<svg id="Calque_1" data-name="Calque 1" xmlns="http://www.w3.org/2000/svg" viewBox="0 0 159.45 74.41"><defs><style>.cls-1{fill:#fff;}.cls-2{fill:#ff8b19;}.cls-3{fill:#ff8c19;}</style></defs><title>logo-logilab</title><rect class="cls-1" y="-0.06" width="159.31" height="74.37" rx="3.5" ry="3.5"/><g id="g4"><path id="path6" d="M71.7,58.21C71.7,67.85,66.78,71,56.84,71a30.27,30.27,0,0,1-9.43-1.48l.43-6.4A17.7,17.7,0,0,0,56.17,65c4.93,0,7.58-2.2,7.58-6.8V56.94h-.1a9.76,9.76,0,0,1-8.28,4c-6.77,0-11-4.87-11-11.81s3.45-12.22,11.12-12.22a9.71,9.71,0,0,1,8.38,4.78H64V37.47H71.7ZM58,54.74c3,0,5.44-2.44,5.44-6.05A5.24,5.24,0,0,0,58,43.15c-3.17,0-4.83,2.66-4.83,5.86C53.19,52.66,55.46,54.74,58,54.74Z"/></g><g id="g8"><path id="path10" d="M16.63,49.24c0-7.8,5.47-12.31,12.65-12.31s12.66,4.51,12.66,12.31S36.47,61.5,29.28,61.5,16.63,57,16.63,49.24Zm17.54,0c0-3.52-1.42-6.63-4.89-6.63s-4.88,3.11-4.88,6.63,1.42,6.58,4.88,6.58S34.17,52.71,34.17,49.24Z"/></g><g id="g12"><path id="path14" d="M86.53,19.32h8.52V61H86.53V19.32"/></g><g id="g16"><path id="path18" d="M5.51,28.92h8.73v35H27.76v6.22H5.51V28.92"/></g><g id="g20"><path id="path22" d="M126.38,19.32h8.39V40.49h.09c2.13-2.61,5-3.56,8.3-3.56,6.67,0,10.33,6.17,10.33,11.86,0,6.94-3.85,12.71-11,12.71-3.84,0-7.23-2.12-8.29-4.74h-.1V61h-7.69Zm13.44,23.83c-3.06,0-5.1,2.61-5.1,6.13s2.32,6,5.1,6c3.15,0,5.05-2.57,5.05-6.31C144.87,45.85,143.06,43.15,139.82,43.15Z"/></g><g id="g24"><path id="path26" d="M115.44,61c0-1.27-.19-2.48-.19-3.7h-.09a8.55,8.55,0,0,1-7.81,4.24c-4.88,0-9.23-2.3-9.23-7.4,0-7.16,8.19-8,12.73-8a26.3,26.3,0,0,1,4,.32c0-3.21-2.56-4.06-5.64-4.06a16.63,16.63,0,0,0-7.86,1.76l-.14-5.5A26.47,26.47,0,0,1,111,36.93c6.29,0,11.74,2.57,11.74,9.74v8.74a27.38,27.38,0,0,0,.47,5.55Zm-5.87-4.87a5.4,5.4,0,0,0,5.26-5.55c-1.09,0-2.32-.13-3.6-.13-2.89,0-5.16.85-5.16,3.11C106.07,55.14,107.58,56.09,109.57,56.09Z"/></g><g id="g28"><path id="path30" class="cls-2" d="M74.79,19.32v0H64.65v7.2H74.79V61h8.52V19.32H74.79"/></g><g id="g32"><path id="path34" class="cls-3" d="M74.05,8.24a5,5,0,1,1,5,5,5,5,0,0,1-5-5"/></g></svg>