<?xml version="1.0" encoding="UTF-8" standalone="no"?>
<!-- Created with Inkscape (http://www.inkscape.org/) -->

<svg
   xmlns:dc="http://purl.org/dc/elements/1.1/"
   xmlns:cc="http://creativecommons.org/ns#"
   xmlns:rdf="http://www.w3.org/1999/02/22-rdf-syntax-ns#"
   xmlns:svg="http://www.w3.org/2000/svg"
   xmlns="http://www.w3.org/2000/svg"
   xmlns:sodipodi="http://sodipodi.sourceforge.net/DTD/sodipodi-0.dtd"
   xmlns:inkscape="http://www.inkscape.org/namespaces/inkscape"
   id="svg3571"
   version="1.1"
   inkscape:version="0.91 r13725"
   xml:space="preserve"
   width="831.68475"
   height="674.24402"
   viewBox="0 0 831.68475 674.24402"
   sodipodi:docname="PsyNeuLink_logo.svg"><metadata
     id="metadata3577"><rdf:RDF><cc:Work
         rdf:about=""><dc:format>image/svg+xml</dc:format><dc:type
           rdf:resource="http://purl.org/dc/dcmitype/StillImage" /><dc:title></dc:title></cc:Work></rdf:RDF></metadata><defs
     id="defs3575"><clipPath
       clipPathUnits="userSpaceOnUse"
       id="clipPath3587"><path
         d="m 0,0 1024,0 0,768 L 0,768 0,0 Z"
         id="path3589"
         inkscape:connector-curvature="0" /></clipPath><clipPath
       clipPathUnits="userSpaceOnUse"
       id="clipPath3597"><path
         d="m 138,220 628,0 0,385 -628,0 0,-385 z"
         id="path3599"
         inkscape:connector-curvature="0" /></clipPath><clipPath
       clipPathUnits="userSpaceOnUse"
       id="clipPath3727"><path
         d="m 0,0 1024,0 0,768 L 0,768 0,0 Z"
         id="path3729"
         inkscape:connector-curvature="0" /></clipPath></defs><sodipodi:namedview
     pagecolor="#ffffff"
     bordercolor="#666666"
     borderopacity="1"
     objecttolerance="10"
     gridtolerance="10"
     guidetolerance="10"
     inkscape:pageopacity="0"
     inkscape:pageshadow="2"
     inkscape:window-width="640"
     inkscape:window-height="480"
     id="namedview3573"
     showgrid="false"
     inkscape:zoom="0.96404266"
     inkscape:cx="415.84238"
     inkscape:cy="171.15425"
     inkscape:window-x="330"
     inkscape:window-y="106"
     inkscape:window-maximized="0"
     inkscape:current-layer="g3579" /><g
     id="g3579"
     inkscape:groupmode="layer"
     inkscape:label="PsyNeuLink_logo"
     transform="matrix(1.25,0,0,-1.25,-176.50788,752.87263)"><g
       id="g3581" /><g
       id="g3583"><g
         id="g3585"
         clip-path="url(#clipPath3587)"><path
           d="m 0,0 1024,0 0,768 L 0,768 0,0 Z"
           style="fill:#ffffff;fill-opacity:1;fill-rule:nonzero;stroke:none"
           id="path3591"
           inkscape:connector-curvature="0" /></g></g><g
       id="g3593"><g
         id="g3595"
         clip-path="url(#clipPath3597)"><g
           id="g3601"
           transform="matrix(5.092372,0,0,5.076504,-541.1457,-465.1198)"><text
             transform="matrix(1,0,0,-1,273.1489,298.6074)"
             style="font-variant:normal;font-weight:normal;font-size:30.27729988px;font-family:'Franklin Gothic Book';-inkscape-font-specification:FranklinGothic-BookCnd;writing-mode:lr-tb;fill:#f46f1b;fill-opacity:1;fill-rule:nonzero;stroke:none"
             id="text3603"><tspan
               x="0 20.951891 33.638081 50.956696 65.187027 79.417358 93.64769 107.3633 113.84265 120.32199 128.19409 143.96857 157.68417 171.91451 179.93799 193.65361"
               y="0"
               sodipodi:role="line"
               id="tspan3605">McDonnell Center</tspan></text>
</g><g
           id="g3607"
           transform="matrix(5.092372,0,0,5.076504,-541.1457,-465.1198)"><text
             transform="matrix(1,0,0,-1,274.7461,276.0176)"
             style="font-variant:normal;font-size:9.8980999px;font-family:'Franklin Gothic Book';-inkscape-font-specification:FranklinGothic-MedCnd;writing-mode:lr-tb;fill:#231f20;fill-opacity:1;fill-rule:nonzero;stroke:none"
             id="text3609"><tspan
               x="0 6.3743763 13.085288 16.93565 23.983097 30.694008 36.73185 41.928352 48.9758 56.023247"
               y="0"
               sodipodi:role="line"
               id="tspan3611">PRINCETON </tspan></text>
</g><g
           id="g3613"
           transform="matrix(5.092372,0,0,5.076504,-541.1457,-465.1198)"><text
             transform="matrix(1,0,0,-1,334.7286,276.0176)"
             style="font-variant:normal;font-size:9.8980999px;font-family:'Franklin Gothic Book';-inkscape-font-specification:FranklinGothic-MedCnd;writing-mode:lr-tb;fill:#f46f1b;fill-opacity:1;fill-rule:nonzero;stroke:none"
             id="text3615"><tspan
               x="0 7.0474472 13.085288 19.964468 26.576399 33.623844 40.166489 46.877403 50.727764 56.765602 63.813049 70.523964"
               y="0"
               sodipodi:role="line"
               id="tspan3617">NEUROSCIENCE</tspan></text>
</g><g
           id="g3619"
           transform="matrix(5.092372,0,0,5.076504,-541.1457,-465.1198)" /><g
           id="g3621"
           transform="matrix(5.092372,0,0,5.076504,-541.1457,-465.1198)"><text
             transform="matrix(1,0,0,-1,415.2991,276.0176)"
             style="font-variant:normal;font-size:9.8980999px;font-family:'Franklin Gothic Book';-inkscape-font-specification:FranklinGothic-MedCnd;writing-mode:lr-tb;fill:#231f20;fill-opacity:1;fill-rule:nonzero;stroke:none"
             id="text3623"><tspan
               x="0 3.8503609 10.897808 17.440453 22.636955 26.487316 31.683819 38.562996 43.759499"
               y="0"
               sodipodi:role="line"
               id="tspan3625">INSTITUTE</tspan></text>
</g><g
           id="g3627"
           transform="matrix(5.092372,0,0,5.076504,158.4362,1566.044)"><path
             d="M 0,0 344.594,0"
             style="fill:none;stroke:#7b7979;stroke-width:1;stroke-linecap:butt;stroke-linejoin:miter;stroke-miterlimit:4;stroke-dasharray:0.465, 1.86, 0.465, 1.86, 0.465, 1.86;stroke-dashoffset:0;stroke-opacity:1"
             id="path3629"
             inkscape:connector-curvature="0" /></g><g
           id="g3631"
           transform="matrix(5.092372,0,0,5.076504,-541.1457,-465.1198)"><text
             transform="matrix(1,0,0,-1,138.0098,540.0869)"
             style="font-variant:normal;font-weight:normal;font-size:24.4435997px;font-family:'Franklin Gothic Book';-inkscape-font-specification:FranklinGothic-BookCnd;writing-mode:lr-tb;fill:#231f20;fill-opacity:1;fill-rule:nonzero;stroke:none"
             id="text3633"><tspan
               x="0 15.326138 31.483356 40.576378 57.980221 74.137436 89.048035 100.97651 118.38036"
               y="0"
               sodipodi:role="line"
               id="tspan3635">PRINCETON</tspan></text>
</g><g
           id="g3637"
           transform="matrix(5.092372,0,0,5.076504,-541.1457,-465.1198)"><text
             transform="matrix(1,0,0,-1,135.5801,486.3555)"
             style="font-variant:normal;font-weight:normal;font-size:61.10889816px;font-family:'Franklin Gothic Book';-inkscape-font-specification:FranklinGothic-BookCnd;writing-mode:lr-tb;fill:#f46f1b;fill-opacity:1;fill-rule:nonzero;stroke:none"
             id="text3639"><tspan
               x="0 35.259834 63.247711 92.274437 108.77384 137.80057 162.67189 188.58206 201.96492 229.95279 258.97952 284.88968"
               y="0"
               sodipodi:role="line"
               id="tspan3641">Neuroscience</tspan></text>
</g><g
           id="g3643"
           transform="matrix(5.092372,0,0,5.076504,-541.1457,-465.1198)"><text
             transform="matrix(1,0,0,-1,327.4404,447.5283)"
             style="font-variant:normal;font-weight:normal;font-size:24.4435997px;font-family:'Franklin Gothic Book';-inkscape-font-specification:FranklinGothic-BookCnd;writing-mode:lr-tb;fill:#231f20;fill-opacity:1;fill-rule:nonzero;stroke:none"
             id="text3645"><tspan
               x="0 9.0930195 26.496862 42.654083 55.07143 64.164452 76.581802 93.570099 105.98745"
               y="0"
               sodipodi:role="line"
               id="tspan3647">INSTITUTE</tspan></text>
</g><path
           d="m 1456.929,2514.936 c 87.93,153.133 -76.014,310.632 -76.014,310.632 -176.557,183.404 -440.3984,177.906 -440.3984,177.906 -272.834,8.554 -421.4804,-155.615 -421.4804,-155.615 -210.8496,-209.629 -31.4148,-396.227 -31.4148,-396.227 0,0 -168.4149,103.409 -71.1965,319.541 0,0 127.8491,299.432 525.9301,285.995 0,0 385.365,0.447 532.372,-288.188 0,0 85.552,-140.645 -17.798,-254.044"
           style="fill:#231f20;fill-opacity:1;fill-rule:nonzero;stroke:none"
           id="path3649"
           inkscape:connector-curvature="0" /><path
           d="m 1433.447,2488.979 c -201.979,-215.168 -452.7887,-79.737 -452.7887,-79.737 -218.0707,119.12 -117.201,267.537 -117.201,267.537 83.632,125.019 231.3517,52.608 231.3517,52.608 0,0 -144.0939,33.043 -203.2673,-69.762 0,0 -71.6598,-112.997 80.9127,-207.821 0,0 208.7776,-136.97 460.9926,37.175"
           style="fill:#f46f1b;fill-opacity:1;fill-rule:nonzero;stroke:none"
           id="path3651"
           inkscape:connector-curvature="0" /><path
           d="m 1456.929,2514.936 c 87.93,153.133 -76.014,310.632 -76.014,310.632 -176.557,183.404 -440.3984,177.906 -440.3984,177.906 -272.834,8.554 -421.4804,-155.615 -421.4804,-155.615 -210.8496,-209.629 -31.4148,-396.227 -31.4148,-396.227 0,0 -168.4149,103.409 -71.1965,319.541 0,0 127.8491,299.432 525.9301,285.995 0,0 385.365,0.447 532.372,-288.188 0,0 85.552,-140.645 -17.798,-254.044"
           style="fill:#231f20;fill-opacity:1;fill-rule:nonzero;stroke:none"
           id="path3653"
           inkscape:connector-curvature="0" /><path
           d="m 1142.038,2816.681 c -0.688,-17.341 -6.559,-73.081 -6.559,-73.081 -5.123,-50.303 -40.48,-82.554 -40.48,-82.554 0,0 -25.579,-25.535 -32.545,-35.586 2.903,1.573 43.815,40.83 46.595,43.465 10.246,9.422 19.743,14.478 33.89,14.447 l 0.927,0 c 14.146,0.031 23.644,-5.025 33.889,-14.447 2.786,-2.635 43.693,-41.892 46.596,-43.465 -6.962,10.051 -32.546,35.586 -32.546,35.586 0,0 -35.351,32.251 -40.474,82.554 0,0 -6.258,55.527 -7.491,73.081 l -1.1,8.402 -0.702,-8.402 z"
           style="fill:#f8a361;fill-opacity:1;fill-rule:nonzero;stroke:none"
           id="path3655"
           inkscape:connector-curvature="0" /><path
           d="m 1039.081,2738.786 c 0.295,-14.448 -5.291,-59.035 -5.291,-59.035 -4.145,-40.632 -32.698,-66.69 -32.698,-66.69 0,0 -20.6649,-20.626 -26.2818,-28.748 2.3425,1.279 35.3818,32.982 37.6328,35.109 8.27,7.61 15.944,11.701 27.376,11.676 l 0.744,0 c 11.427,0.025 19.096,-4.066 27.376,-11.676 2.241,-2.127 35.296,-33.83 37.643,-35.109 -5.632,8.122 -26.292,28.748 -26.292,28.748 0,0 -28.553,26.058 -32.698,66.69 0,0 -6.345,44.587 -6.049,59.035 l -0.887,6.787 -0.575,-6.787 z"
           style="fill:#fccea8;fill-opacity:1;fill-rule:nonzero;stroke:none"
           id="path3657"
           inkscape:connector-curvature="0" /><path
           d="m 1105.541,2814.125 c -4.09,-6.371 -13.465,-24.905 -13.465,-24.905 -3.259,-5.975 -7.445,-15.707 -14.172,-19.078 -5.662,-2.858 -14.177,-0.269 -19.096,2.508 -5.734,3.209 -13.561,8.427 -18.913,12.047 -3.988,2.69 -7.18,4.396 -11.616,6.493 6.722,-7.138 16.566,-13.387 23.904,-19.489 7.19,-5.94 10.5,-11.615 9.186,-18.509 -0.713,-3.863 -2.882,-6.701 -5.948,-8.858 -0.55,-0.376 -1.125,-0.767 -1.756,-1.072 -9.523,-4.543 -24.79,-4.634 -35.229,-7.508 4.089,-0.467 10.113,-0.644 14.335,-0.665 7.801,-0.056 15.012,0.711 22.182,-0.355 0.998,-0.142 1.971,-0.305 2.953,-0.503 1.645,-0.314 3.29,-0.685 4.925,-1.132 3.839,-1.046 6.406,-2.66 8.331,-4.965 0.998,-1.223 1.843,-2.629 2.592,-4.238 0.428,-0.904 0.805,-1.853 1.186,-2.879 1.442,-3.904 1.686,-8.742 1.518,-13.747 -0.112,-3.153 -0.412,-6.371 -0.687,-9.458 -0.296,-3.391 -0.408,-6.635 -0.591,-9.462 -0.178,-2.873 -0.54,-9.392 -0.947,-16.062 -0.112,-1.736 -0.204,-3.473 -0.291,-5.168 -0.239,-5.29 -0.178,-9.889 -0.101,-12.108 l 1.782,9.823 0.616,4.092 2.75,18.194 c 0.382,2.787 1.278,8.539 2.083,13.418 0.438,2.589 0.728,4.629 1.278,6.558 0.901,3.143 1.894,5.366 2.811,5.28 2.546,-0.218 4.777,-2.726 6.615,-5.584 l 10.842,-18.555 12.69,-23.529 c -0.637,1.37 -0.973,2.7 -1.396,4.117 -2.154,7.091 -4.96,14.072 -7.842,21.021 l -11.478,30.632 c -4.028,15.915 7.251,12.168 15.185,11.95 0,0 17.065,-1.609 26.18,-1.477 0,0 -24.973,7.153 -29.042,8.493 -6.905,2.259 -12.094,7.65 -15.251,15.067 -3.402,8.036 -2.786,14.641 0.173,22.717 0.82,2.224 13.505,34.866 13.704,36.896"
           style="fill:#f46f1b;fill-opacity:1;fill-rule:nonzero;stroke:none"
           id="path3659"
           inkscape:connector-curvature="0" /><path
           d="m 1308.788,2591.054 c -7.669,2.792 -30.081,9.265 -30.081,9.265 -7.221,2.264 -19.025,5.168 -22.9,9.645 -3.259,3.747 0.3,9.285 3.936,12.458 4.212,3.685 10.974,8.721 15.669,12.163 3.494,2.559 5.74,4.615 8.51,7.488 -9.08,-4.269 -17.223,-10.61 -25.05,-15.316 -7.648,-4.584 -14.768,-6.65 -23.206,-5.665 -4.725,0.538 -8.132,2.01 -10.638,4.061 -0.448,0.365 -0.921,0.751 -1.268,1.162 -5.163,6.316 -4.613,16.321 -7.699,23.22 -0.749,-2.675 -1.238,-6.619 -1.457,-9.396 -0.397,-5.092 0.235,-9.838 -1.395,-14.514 -0.224,-0.634 -0.463,-1.269 -0.743,-1.919 -0.474,-1.066 -0.983,-2.137 -1.599,-3.208 -1.482,-2.493 -3.58,-4.143 -6.503,-5.351 -1.543,-0.645 -3.305,-1.167 -5.347,-1.629 -1.105,-0.254 -2.302,-0.488 -3.58,-0.731 -4.874,-0.868 -10.842,-0.94 -16.999,-0.731 -3.875,0.132 -7.832,0.38 -11.636,0.619 -4.15,0.249 -8.142,0.391 -11.61,0.553 -3.545,0.168 -11.565,0.533 -19.759,0.924 -2.128,0.092 -4.252,0.178 -6.335,0.274 -6.518,0.249 -12.17,0.3 -14.93,0.285 l 12.028,-1.346 5.011,-0.477 22.289,-2.127 c 3.432,-0.305 10.47,-0.985 16.443,-1.619 3.163,-0.32 5.663,-0.554 8.031,-0.955 3.819,-0.644 6.518,-1.335 6.381,-1.934 -0.377,-1.66 -3.565,-3.061 -7.17,-4.234 l -23.349,-6.751 -29.526,-7.889 c 1.727,0.401 3.372,0.599 5.123,0.847 8.846,1.28 17.554,2.985 26.241,4.757 l 38.234,6.955 c 19.794,2.345 14.666,-4.97 14.06,-10.163 0,0 -2.719,-11.148 -2.974,-17.123 0,0 9.91,16.219 11.748,18.864 3.096,4.478 9.94,7.787 19.219,9.716 10.047,2.082 18.169,1.549 27.987,-0.517 2.704,-0.589 42.354,-9.488 44.844,-9.661"
           style="fill:#bdbcbc;fill-opacity:1;fill-rule:nonzero;stroke:none"
           id="path3661"
           inkscape:connector-curvature="0" /><path
           d="m 1307.997,2654.954 c -9.589,2.782 -36.538,7.701 -36.538,7.701 -8.774,1.889 -22.686,3.544 -29.454,10.747 -5.714,6.067 -5.602,17.758 -3.916,24.971 1.94,8.402 5.622,20.21 8.214,28.287 1.945,6.031 2.923,10.67 3.926,17.031 -6.539,-11.107 -10.801,-25.814 -15.791,-37.337 -4.853,-11.25 -10.811,-17.529 -20.029,-18.443 -5.174,-0.533 -9.578,1.137 -13.433,4.208 -0.673,0.559 -1.401,1.122 -2.032,1.807 -9.273,10.29 -15.063,29.48 -22.6,41.557 0.932,-5.326 2.964,-12.976 4.481,-18.316 2.821,-9.813 6.498,-18.621 7.807,-28.043 0.193,-1.289 0.331,-2.579 0.463,-3.894 0.214,-2.183 0.362,-4.391 0.397,-6.619 0.097,-5.224 -0.988,-9.047 -3.193,-12.326 -1.176,-1.721 -2.653,-3.295 -4.404,-4.853 -0.983,-0.863 -2.048,-1.696 -3.214,-2.564 -4.41,-3.259 -10.424,-5.366 -16.83,-7 -4.048,-1.031 -8.234,-1.864 -12.252,-2.671 -4.4,-0.893 -8.55,-1.939 -12.202,-2.766 -3.707,-0.828 -12.104,-2.808 -20.7,-4.762 -2.246,-0.513 -4.466,-1.051 -6.641,-1.589 -6.803,-1.655 -12.598,-3.427 -15.389,-4.366 l 13.113,1.401 5.413,0.757 24.062,3.304 c 3.677,0.559 11.285,1.584 17.793,2.361 3.411,0.416 6.11,0.817 8.769,0.833 4.308,0.035 7.48,-0.391 7.73,-1.574 0.667,-3.28 -1.691,-7.016 -4.609,-10.412 l -19.483,-20.535 -25.08,-24.727 c 1.507,1.32 3.055,2.239 4.695,3.31 8.189,5.33 15.975,11.447 23.69,17.681 l 34.546,25.84 c 18.659,10.98 18.109,-4.625 20.788,-14.697 0,0 4.313,-22.078 7.852,-33.505 0,0 -0.219,34.099 -0.031,39.729 0.296,9.518 5.19,18.072 13.414,24.799 8.916,7.264 17.523,8.934 28.838,8.234 3.127,-0.229 49.187,-4.046 51.83,-3.559"
           style="fill:#f46f1b;fill-opacity:1;fill-rule:nonzero;stroke:none"
           id="path3663"
           inkscape:connector-curvature="0" /><path
           d="m 1086.146,2627.202 c 0.478,-4.28 3.045,-15.829 3.045,-15.829 0.703,-3.817 2.368,-9.615 0.621,-13.529 -1.456,-3.284 -6.172,-5.203 -9.344,-5.746 -3.692,-0.64 -9.029,-1.142 -12.69,-1.462 -2.745,-0.239 -4.767,-0.635 -7.486,-1.295 5.545,-0.751 12.155,0.021 17.599,-0.03 5.332,-0.041 8.83,-1.361 10.74,-4.879 1.074,-1.964 1.161,-3.995 0.57,-6.041 -0.092,-0.365 -0.209,-0.746 -0.382,-1.117 -2.556,-5.416 -9.278,-10.939 -12.853,-15.965 1.996,1.269 4.705,3.355 6.579,4.858 3.468,2.772 6.376,5.711 9.931,7.813 0.483,0.289 0.982,0.568 1.481,0.832 0.83,0.447 1.686,0.884 2.582,1.275 2.083,0.913 3.799,1.121 5.469,0.791 0.892,-0.177 1.773,-0.497 2.679,-0.954 0.514,-0.228 1.034,-0.518 1.569,-0.827 2.052,-1.209 3.9,-3.254 5.637,-5.534 1.09,-1.426 2.118,-2.964 3.116,-4.421 1.085,-1.605 2.205,-3.067 3.163,-4.387 0.957,-1.335 3.147,-4.35 5.382,-7.437 0.566,-0.807 1.161,-1.614 1.732,-2.38 1.802,-2.432 3.488,-4.437 4.323,-5.392 l -2.745,4.98 -1.212,2.026 -5.357,9.026 c -0.84,1.365 -2.521,4.224 -3.931,6.675 -0.749,1.295 -1.355,2.305 -1.813,3.351 -0.723,1.711 -1.085,3.046 -0.662,3.356 1.212,0.807 3.101,0.482 4.94,-0.097 l 11.488,-4.315 14.111,-5.833 c -0.769,0.381 -1.411,0.843 -2.113,1.315 -3.509,2.366 -7.267,4.437 -11.056,6.473 l -16.133,9.401 c -7.521,5.584 -1.181,7.986 2.389,10.737 0,0 8.122,5.422 12.094,8.742 0,0 -13.607,-5.793 -15.893,-6.671 -3.86,-1.467 -8.107,-0.969 -12.176,1.183 -4.405,2.325 -6.523,5.467 -8.122,10.092 -0.459,1.274 -6.646,20.245 -7.272,21.215"
           style="fill:#f7954d;fill-opacity:1;fill-rule:nonzero;stroke:none"
           id="path3665"
           inkscape:connector-curvature="0" /><path
           d="m 449.865,1354.688 c -1.2833,-32.459 -12.2777,-136.807 -12.2777,-136.807 -9.5889,-94.179 -75.7796,-154.559 -75.7796,-154.559 0,0 -47.8886,-47.811 -60.9251,-66.6291 5.4386,2.9494 82.0075,76.4521 87.2374,81.3761 19.1677,17.636 36.9554,27.109 63.4408,27.053 l 1.7365,0 c 26.4701,0.056 44.2578,-9.417 63.4357,-27.053 5.2146,-4.924 81.7987,-78.4267 87.2374,-81.3761 -13.0365,18.8181 -60.9252,66.6291 -60.9252,66.6291 0,0 -66.1855,60.38 -75.7795,154.559 0,0 -11.7125,103.952 -14.0142,136.807 l -2.0676,15.737 -1.3189,-15.737 z"
           style="fill:#f8a361;fill-opacity:1;fill-rule:nonzero;stroke:none"
           id="path3667"
           inkscape:connector-curvature="0" /><path
           d="m 257.1259,1208.862 c 0.5448,-27.042 -9.92,-110.52 -9.92,-110.52 -7.7455,-76.067 -61.2052,-124.8569 -61.2052,-124.8569 0,0 -38.6868,-38.622 -49.2076,-53.8211 4.3845,2.3911 66.2467,61.7608 70.453,65.7357 15.4859,14.2396 29.8464,21.8953 51.2496,21.8543 l 1.4004,0 c 21.3982,0.041 35.7485,-7.6147 51.2547,-21.8543 4.2012,-3.9749 66.0736,-63.3446 70.4632,-65.7357 -10.5412,15.1991 -49.2229,53.8211 -49.2229,53.8211 0,0 -53.4495,48.7899 -61.2103,124.8569 0,0 -11.8805,83.478 -11.3203,110.52 l -1.6652,12.707 -1.0694,-12.707 z"
           style="fill:#fccea8;fill-opacity:1;fill-rule:nonzero;stroke:none"
           id="path3669"
           inkscape:connector-curvature="0" /><path
           d="m 381.5407,1349.909 c -7.6539,-11.93 -25.2022,-46.628 -25.2022,-46.628 -6.1057,-11.188 -13.948,-29.408 -26.5363,-35.718 -10.6074,-5.346 -26.5466,-0.503 -35.7485,4.696 -10.7347,6.015 -25.3855,15.777 -35.4123,22.55 -7.4655,5.04 -13.4337,8.234 -21.7394,12.163 12.5884,-13.372 31.0075,-25.068 44.7518,-36.49 13.454,-11.118 19.6565,-21.743 17.1918,-34.652 -1.3291,-7.229 -5.3979,-12.544 -11.137,-16.575 -1.0286,-0.711 -2.098,-1.447 -3.2795,-2.021 -17.8284,-8.498 -46.4119,-8.665 -65.9615,-14.046 7.6539,-0.873 18.9284,-1.214 26.8419,-1.249 14.5999,-0.107 28.1099,1.325 41.5283,-0.665 1.8536,-0.269 3.6818,-0.579 5.5303,-0.939 3.0656,-0.584 6.1516,-1.285 9.2121,-2.117 7.1905,-1.965 11.9875,-4.98 15.598,-9.3 1.8689,-2.29 3.4628,-4.919 4.853,-7.935 0.7944,-1.69 1.5023,-3.467 2.2254,-5.391 2.6989,-7.305 3.1623,-16.362 2.8364,-25.738 -0.2139,-5.894 -0.774,-11.925 -1.2833,-17.702 -0.5601,-6.345 -0.7689,-12.422 -1.105,-17.712 -0.3361,-5.381 -1.0236,-17.595 -1.7772,-30.078 -0.2139,-3.249 -0.3871,-6.498 -0.55,-9.666 -0.4481,-9.899 -0.3259,-18.509 -0.1732,-22.671 l 3.3355,18.387 1.1407,7.665 5.1535,34.059 c 0.718,5.223 2.3883,15.991 3.9008,25.123 0.8249,4.848 1.3596,8.666 2.3883,12.275 1.6958,5.884 3.5494,10.047 5.2655,9.889 4.7614,-0.411 8.932,-5.107 12.3847,-10.452 l 20.2931,-34.744 23.7559,-44.044 c -1.1916,2.569 -1.818,5.057 -2.6124,7.701 -4.0281,13.281 -9.2783,26.342 -14.6762,39.353 l -21.4949,57.355 c -7.5367,29.794 13.5813,22.783 28.4358,22.367 0,0 31.9444,-3.01 49.009,-2.767 0,0 -46.748,13.392 -54.3713,15.895 -12.9193,4.239 -22.6509,14.326 -28.5478,28.22 -6.3655,15.042 -5.2248,27.403 0.3106,42.526 1.543,4.163 25.2938,65.274 25.6656,69.076"
           style="fill:#f46f1b;fill-opacity:1;fill-rule:nonzero;stroke:none"
           id="path3671"
           inkscape:connector-curvature="0" /><path
           d="m 762.0442,932.2969 c -14.3503,5.2136 -56.3114,17.3312 -56.3114,17.3312 -13.5203,4.2338 -35.611,9.686 -42.8778,18.0571 -6.0956,7.0208 0.5704,17.382 7.3789,23.3265 7.8881,6.9041 20.5477,16.3313 29.3269,22.7783 6.5437,4.777 10.75,8.635 15.9392,14.011 -17.0035,-7.995 -32.2449,-19.854 -46.8957,-28.677 -14.3147,-8.5742 -27.6516,-12.4324 -43.4532,-10.62 -8.8455,1.0305 -15.2211,3.7769 -19.9112,7.6249 -0.8453,0.6853 -1.7314,1.4112 -2.3781,2.1727 -9.6653,11.8284 -8.6316,30.5604 -14.4165,43.4654 -1.4055,-5.006 -2.312,-12.382 -2.7194,-17.575 -0.7485,-9.539 0.4329,-18.423 -2.6123,-27.1798 -0.4125,-1.1879 -0.8759,-2.3809 -1.4004,-3.5993 -0.881,-1.995 -1.8333,-3.9952 -2.9944,-6.0105 -2.76,-4.6552 -6.6913,-7.7519 -12.1605,-10.0109 -2.8874,-1.2082 -6.1975,-2.1829 -10.0167,-3.0459 -2.0777,-0.4823 -4.3031,-0.9189 -6.7016,-1.3656 -9.1204,-1.6296 -20.2931,-1.7565 -31.8222,-1.3706 -7.2618,0.2487 -14.6661,0.7056 -21.7801,1.1523 -7.7761,0.4823 -15.2517,0.7412 -21.7444,1.0509 -6.6456,0.3045 -21.6426,0.9797 -36.991,1.7158 -3.9823,0.1878 -7.9594,0.3452 -11.8551,0.5229 -12.2064,0.467 -22.7883,0.5584 -27.952,0.5178 l 22.5185,-2.518 9.375,-0.8833 41.732,-3.985 c 6.4164,-0.5787 19.5955,-1.8479 30.7834,-3.0358 5.9275,-0.5939 10.6023,-1.0305 15.0276,-1.7869 7.1599,-1.1981 12.2013,-2.4875 11.9569,-3.6094 -0.7129,-3.122 -6.6812,-5.7364 -13.4184,-7.9295 l -43.7129,-12.6405 -55.2777,-14.7726 c 3.2285,0.7513 6.3043,1.1168 9.5889,1.5839 16.5553,2.391 32.8509,5.5841 49.121,8.9143 l 71.5886,13.006 c 37.0521,4.3963 27.4479,-9.3103 26.3174,-19.0267 0,0 -5.0975,-20.8695 -5.5762,-32.0429 0,0 18.5617,30.3676 21.9991,35.3071 5.7951,8.3762 18.6024,14.5746 35.9827,18.1941 18.8061,3.8988 34.0068,2.9038 52.3954,-0.9594 5.0618,-1.1219 79.2831,-17.7779 83.9477,-18.0876"
           style="fill:#bdbcbc;fill-opacity:1;fill-rule:nonzero;stroke:none"
           id="path3673"
           inkscape:connector-curvature="0" /><path
           d="m 760.5619,1051.917 c -17.9507,5.209 -68.4008,14.417 -68.4008,14.417 -16.4331,3.544 -42.4653,6.635 -55.1402,20.124 -10.6991,11.356 -10.4852,33.246 -7.3279,46.744 3.6308,15.737 10.5208,37.83 15.3739,52.958 3.6308,11.285 5.4793,19.971 7.3533,31.896 -12.242,-20.799 -20.2269,-48.339 -29.5663,-69.919 -9.095,-21.052 -20.2422,-32.804 -37.49,-34.525 -9.6908,-0.99 -17.9404,2.132 -25.1563,7.884 -1.268,1.04 -2.6226,2.101 -3.804,3.386 -17.365,19.255 -28.2016,55.186 -42.3024,77.797 1.7365,-9.97 5.5303,-24.291 8.3821,-34.287 5.2859,-18.377 12.1656,-34.86 14.6151,-52.506 0.3564,-2.411 0.6212,-4.833 0.8708,-7.285 0.3972,-4.086 0.6722,-8.224 0.7486,-12.396 0.1731,-9.778 -1.8588,-16.936 -5.9836,-23.073 -2.1999,-3.224 -4.965,-6.173 -8.2496,-9.082 -1.8384,-1.625 -3.8295,-3.173 -6.0039,-4.802 -8.265,-6.102 -19.5344,-10.052 -31.5218,-13.113 -7.5775,-1.929 -15.4146,-3.477 -22.9361,-4.99 -8.2343,-1.675 -16.0104,-3.635 -22.8443,-5.188 -6.9359,-1.544 -22.6611,-5.255 -38.7581,-8.91 -4.1961,-0.964 -8.3566,-1.964 -12.4254,-2.969 -12.7411,-3.102 -23.5828,-6.422 -28.8075,-8.169 l 24.5401,2.62 10.1389,1.406 45.0421,6.193 c 6.8899,1.046 21.1333,2.97 33.3143,4.412 6.3909,0.772 11.4425,1.528 16.4178,1.564 8.0714,0.055 14.0091,-0.726 14.4776,-2.945 1.2476,-6.137 -3.1726,-13.128 -8.6316,-19.504 l -36.4868,-38.434 -46.9415,-46.2926 c 2.8211,2.4722 5.7187,4.1881 8.7792,6.1984 15.3382,9.9753 29.9177,21.4279 44.3597,33.0988 l 64.6782,48.3744 c 34.9337,20.559 33.905,-8.656 38.9159,-27.5151 0,0 8.0714,-41.3379 14.6966,-62.7303 0,0 -0.4074,63.8421 -0.0458,74.3809 0.5448,17.8285 9.7009,33.8395 25.1003,46.4295 16.6928,13.595 32.7999,16.727 53.9995,15.418 5.846,-0.432 92.0803,-7.585 97.0199,-6.666"
           style="fill:#f46f1b;fill-opacity:1;fill-rule:nonzero;stroke:none"
           id="path3675"
           inkscape:connector-curvature="0" /><path
           d="m 345.2305,999.9672 c 0.8963,-8.0107 5.6933,-29.6468 5.6933,-29.6468 1.3342,-7.1375 4.4405,-17.9962 1.1712,-25.3114 -2.7346,-6.1578 -11.5546,-9.7469 -17.4872,-10.7673 -6.9154,-1.1828 -16.9066,-2.1321 -23.7712,-2.7362 -5.1229,-0.4468 -8.9218,-1.1828 -14.0091,-2.4215 10.3885,-1.4164 22.7527,0.0304 32.9477,-0.0711 9.981,-0.0457 16.5349,-2.5382 20.1047,-9.1174 2.0165,-3.6804 2.1744,-7.4777 1.0744,-11.3054 -0.1782,-0.6853 -0.4022,-1.396 -0.7129,-2.1016 -4.7868,-10.1429 -17.3752,-20.4736 -24.0665,-29.8956 3.7276,2.3809 8.8047,6.2898 12.3133,9.1022 6.4928,5.1984 11.9416,10.6911 18.5923,14.6254 0.9115,0.5483 1.8332,1.0712 2.7804,1.5687 1.5481,0.8325 3.1573,1.6447 4.8225,2.3758 3.9058,1.7158 7.114,2.1016 10.2509,1.4772 1.6652,-0.3147 3.305,-0.929 5.0109,-1.7717 0.9574,-0.4366 1.93,-0.9747 2.9383,-1.5483 3.8295,-2.2692 7.3025,-6.0969 10.5463,-10.3713 2.0421,-2.6652 3.967,-5.5435 5.8359,-8.2696 2.0369,-3.0053 4.1248,-5.7416 5.9173,-8.2189 1.7925,-2.4773 5.9021,-8.1376 10.0727,-13.9198 1.0745,-1.5178 2.1796,-3.0256 3.249,-4.4521 3.3711,-4.5587 6.5335,-8.3203 8.0968,-10.092 l -5.1331,9.3103 -2.2814,3.8073 -10.0217,16.8845 c -1.5787,2.5687 -4.7309,7.9092 -7.3636,12.4933 -1.3953,2.4265 -2.536,4.3302 -3.3864,6.2745 -1.3648,3.2135 -2.037,5.7111 -1.2426,6.2847 2.2661,1.5078 5.8002,0.9037 9.2427,-0.1776 l 21.5051,-8.0818 26.4243,-10.9145 c -1.4463,0.7158 -2.6379,1.5686 -3.9568,2.457 -6.5641,4.4318 -13.6068,8.3102 -20.7005,12.1176 l -30.1978,17.6003 c -14.0804,10.4626 -2.2151,14.9503 4.4762,20.108 0,0 15.2008,10.153 22.6356,16.3616 0,0 -25.472,-10.8485 -29.7496,-12.4832 -7.2261,-2.7565 -15.1804,-1.8173 -22.8036,2.2083 -8.2446,4.3557 -12.2014,10.2444 -15.2161,18.8998 -0.8402,2.386 -12.4202,37.8961 -13.6017,39.7186"
           style="fill:#f7954d;fill-opacity:1;fill-rule:nonzero;stroke:none"
           id="path3677"
           inkscape:connector-curvature="0" /><path
           d="m 1433.447,2488.979 c -201.979,-215.168 -452.7887,-79.737 -452.7887,-79.737 -218.0707,119.12 -117.201,267.537 -117.201,267.537 83.632,125.019 231.3517,52.608 231.3517,52.608 0,0 -144.0939,33.043 -203.2673,-69.762 0,0 -71.6598,-112.997 80.9127,-207.821 0,0 208.7776,-136.97 460.9926,37.175"
           style="fill:#f46f1b;fill-opacity:1;fill-rule:nonzero;stroke:none"
           id="path3679"
           inkscape:connector-curvature="0" /><path
           d="m 601.3234,269.7832 c 64.1791,24.7074 27.9113,52.2423 27.9113,52.2423 -36.4614,31.9566 -143.5744,32.2561 -143.5744,32.2561 -108.0856,3.6957 -199.6413,-21.3517 -199.6413,-21.3517 -124.8344,-30.6926 -86.3463,-65.558 -86.3463,-65.558 0,0 -41.9051,23.027 30.4829,56.0497 0,0 92.6405,46.2977 266.3515,40.7541 0,0 155.0271,-3.1423 159.7935,-52.3336 0,0 7.9339,-24.0728 -54.9772,-42.0589"
           style="fill:#c8c7c7;fill-opacity:1;fill-rule:nonzero;stroke:none"
           id="path3681"
           inkscape:connector-curvature="0" /><path
           d="m 586.9889,265.6687 c -121.7128,-34.0582 -197.0545,-9.4575 -197.0545,-9.4575 -65.2638,21.6158 3.2388,45.4296 3.2388,45.4296 57.1618,20.0573 102.9168,6.7924 102.9168,6.7924 0,0 -51.713,6.701 -94.8505,-9.884 0,0 -50.0937,-18.1789 -6.5946,-35.2004 0,0 58.1549,-24.4992 192.344,2.3199"
           style="fill:#c8c7c7;fill-opacity:1;fill-rule:nonzero;stroke:none"
           id="path3683"
           inkscape:connector-curvature="0" /><path
           d="m 733.0213,301.1545 c 48.2859,84.0974 -41.7524,170.5807 -41.7524,170.5807 -96.9587,100.7229 -241.852,97.7125 -241.852,97.7125 -149.8329,4.6958 -231.484,-85.468 -231.484,-85.468 -115.7903,-115.1148 -17.2427,-217.5992 -17.2427,-217.5992 0,0 -92.503,56.7959 -39.0993,175.4896 0,0 70.2035,164.4381 288.8292,157.062 0,0 211.639,0.2386 292.3735,-158.2651 0,0 46.9873,-77.2339 -9.7723,-139.5125"
           style="fill:#231f20;fill-opacity:1;fill-rule:nonzero;stroke:none"
           id="path3685"
           inkscape:connector-curvature="0" /><path
           d="M 720.1213,286.887 C 609.2094,168.7314 471.4557,243.1022 471.4557,243.1022 c -119.7574,65.4107 -64.3676,146.9292 -64.3676,146.9292 45.9281,68.6648 127.0547,28.8751 127.0547,28.8751 0,0 -79.1304,18.1638 -111.6248,-38.292 0,0 -39.3641,-62.0603 44.436,-114.1401 0,0 114.6548,-75.2084 253.1673,20.4126"
           style="fill:#f46f1b;fill-opacity:1;fill-rule:nonzero;stroke:none"
           id="path3687"
           inkscape:connector-curvature="0" /><g
           id="g3689"
           transform="matrix(5.092372,0,0,5.076504,-541.1457,-465.1198)"><text
             transform="matrix(1,0,0,-1,272.5352,169.9199)"
             style="font-variant:normal;font-weight:normal;font-size:30.27729988px;font-family:'Franklin Gothic Book';-inkscape-font-specification:FranklinGothic-BookCnd;writing-mode:lr-tb;fill:#f46f1b;fill-opacity:1;fill-rule:nonzero;stroke:none"
             id="text3691"><tspan
               x="0 15.774473 28.460663 42.690994 49.170334 55.649677"
               y="0"
               sodipodi:role="line"
               id="tspan3693">Scully</tspan></text>
</g><g
           id="g3695"
           transform="matrix(5.092372,0,0,5.076504,-541.1457,-465.1198)" /><g
           id="g3697"
           transform="matrix(5.092372,0,0,5.076504,-541.1457,-465.1198)"><text
             transform="matrix(1,0,0,-1,345.2916,169.9199)"
             style="font-variant:normal;font-weight:normal;font-size:30.27729988px;font-family:'Franklin Gothic Book';-inkscape-font-specification:FranklinGothic-BookCnd;writing-mode:lr-tb;fill:#f46f1b;fill-opacity:1;fill-rule:nonzero;stroke:none"
             id="text3699"><tspan
               x="0 15.774473 29.490089 43.720421 51.743904 65.459526"
               y="0"
               sodipodi:role="line"
               id="tspan3701">Center</tspan></text>
</g><g
           id="g3703"
           transform="matrix(5.092372,0,0,5.076504,-541.1457,-465.1198)"><text
             transform="matrix(1,0,0,-1,274.1313,147.3301)"
             style="font-variant:normal;font-size:9.8980999px;font-family:'Franklin Gothic Book';-inkscape-font-specification:FranklinGothic-MedCnd;writing-mode:lr-tb;fill:#231f20;fill-opacity:1;fill-rule:nonzero;stroke:none"
             id="text3705"><tspan
               x="0 6.4733572 13.28325 17.232592 24.379021 31.188913 37.325737 42.62122 49.767647 56.914074"
               y="0"
               sodipodi:role="line"
               id="tspan3707">PRINCETON </tspan></text>
</g><g
           id="g3709"
           transform="matrix(5.092372,0,0,5.076504,-541.1457,-465.1198)"><text
             transform="matrix(1,0,0,-1,335.1036,147.3301)"
             style="font-variant:normal;font-size:9.8980999px;font-family:'Franklin Gothic Book';-inkscape-font-specification:FranklinGothic-MedCnd;writing-mode:lr-tb;fill:#f46f1b;fill-opacity:1;fill-rule:nonzero;stroke:none"
             id="text3711"><tspan
               x="0 7.1464281 13.28325 20.26141 26.972322 34.118752 40.760376 47.570267 51.519611 57.656433 64.802864 71.612755"
               y="0"
               sodipodi:role="line"
               id="tspan3713">NEUROSCIENCE</tspan></text>
</g><g
           id="g3715"
           transform="matrix(5.092372,0,0,5.076504,-541.1457,-465.1198)" /><g
           id="g3717"
           transform="matrix(5.092372,0,0,5.076504,-541.1457,-465.1198)"><text
             transform="matrix(1,0,0,-1,416.9609,147.3301)"
             style="font-variant:normal;font-size:9.8980999px;font-family:'Franklin Gothic Book';-inkscape-font-specification:FranklinGothic-MedCnd;writing-mode:lr-tb;fill:#231f20;fill-opacity:1;fill-rule:nonzero;stroke:none"
             id="text3719"><tspan
               x="0 3.949342 11.09577 17.737394 23.032879 26.98222 32.277702 39.255863 44.55135"
               y="0"
               sodipodi:role="line"
               id="tspan3721">INSTITUTE</tspan></text>
</g></g></g><g
       id="g3723"><g
         id="g3725"
         clip-path="url(#clipPath3727)"><g
           id="g3731"
           transform="matrix(-0.7071068,-0.7071068,-0.106066,0.106066,332.0889,364.9515)"><path
             d="m 87.30882,-1920.554 c 41.63408,-14.594 76.48788,206.387 75.99898,488.532 -0.1796,103.676 -5.4852,209.289 -12.6438,311.106 -22.5237,320.3546 -61.75239,596.1623 -112.62929,584.9504 -66.63926,-14.6855 -89.40101,-451.9835 -136.89212,-678.5724 -27.12209,-129.405 -63.43139,-179.381 -101.46469,-120.942"
             style="fill:none;stroke:#e7772f;stroke-width:25;stroke-linecap:round;stroke-linejoin:round;stroke-miterlimit:4;stroke-dasharray:none;stroke-opacity:1"
             id="path3733"
             inkscape:connector-curvature="0" /></g><g
           id="g3735"
           transform="translate(179,130)"><text
             transform="scale(1,-1)"
             style="font-style:italic;font-variant:normal;font-weight:bold;font-size:108px;font-family:Arial;-inkscape-font-specification:Arial-BoldItalicMT;writing-mode:lr-tb;fill:#e7772f;fill-opacity:1;fill-rule:nonzero;stroke:none"
             id="text3737"><tspan
               x="0 72.036003 132.10561 192.1104 270.108 330.17761 396.14401 462.11041 492.11279 558.07922"
               y="0"
               sodipodi:role="line"
               id="tspan3739">Ps NeuLink</tspan></text>
</g></g></g></g></svg>