<?xml version="1.0" standalone="no"?>
<!DOCTYPE svg PUBLIC "-//W3C//DTD SVG 1.1//EN" "http://www.w3.org/Graphics/SVG/1.1/DTD/svg11.dtd">
<svg xmlns="http://www.w3.org/2000/svg">
<defs >
<font id="NoticiaText" horiz-adv-x="1155" ><font-face
    font-family="Noticia Text"
    units-per-em="2048"
    panose-1="2 0 8 3 7 0 0 9 0 4"
    ascent="2202"
    descent="-593"
    alphabetic="0" />
<glyph unicode=" " glyph-name="space" horiz-adv-x="550" />
<glyph unicode="!" glyph-name="exclam" horiz-adv-x="644" d="M108 99Q108 140 117 177T143 243T182 288T229 305Q272 305 309 295T374 269T418 230T434 182Q434 141 425 105T399 40T360 -5T312 -22Q269 -22 232 -13T168 13T124 52T108 99ZM297 1540L607 1562L624
1540L393 410H212L297 1540Z" />
<glyph unicode="&quot;" glyph-name="quotedbl" horiz-adv-x="721" d="M207 1540H423L417 1498L293 1137H150L207 1540ZM475 1540H691L685 1498L561 1137H418L475 1540Z" />
<glyph unicode="#" glyph-name="numbersign" horiz-adv-x="1308" d="M686 286H400L319 0H124L127 20L202 286H6L30 463H252L372 889H156L181 1066H422L504 1353H699L696 1333L620 1066H906L988 1353H1183L1180 1333L1104 1066H1292L1267 889H1054L934 463H1141L1117
286H884L803 0H608L611 20L686 286ZM450 463H736L856 889H570L450 463Z" />
<glyph unicode="$" glyph-name="dollar" horiz-adv-x="1105" d="M673 800Q904 656 964 560T1006 341Q981 171 822 74Q703 2 537 -15L508 -226H363L391 -22Q275 -20 176 -4Q65 13 -6 41L10 320H180L225 121Q261 110 316 103Q360 98 408 97L475 576Q458 588 440
600Q231 732 163 819T114 1039Q136 1187 292 1281Q413 1354 587 1370L614 1562H759L732 1374Q816 1372 899 1362Q1001 1349 1077 1323L1060 1033H902L857 1234Q808 1246 758 1251Q736 1253 715 1254L653 812Q663 806 673 800ZM639 125Q658 155 674 195T697 281Q708
359 658 424Q640 447 606 477L554 106Q603 114 639 125ZM556 1247Q502 1239 466 1228Q453 1205 440 1168T423 1100Q410 1012 475 947Q495 927 521 905L570 1249L556 1247Z" />
<glyph unicode="%" glyph-name="percent" horiz-adv-x="1626" d="M1281 1353H1496L1493 1333L339 0H124L127 20L1281 1353ZM102 1059Q111 1124 144 1181T226 1282T336 1350T463 1375Q528 1375 582 1350T673 1282T726 1182T734 1059Q725 993 692 936T610 836T500
768T374 743Q308 743 254 768T164 835T110 935T102 1059ZM291 1059Q280 976 309 941T397 906Q422 906 446 914T490 941T524 988T544 1059Q550 1101 544 1130T524 1177T487 1203T440 1212Q381 1212 342 1177T291 1059ZM886 294Q895 359 928 416T1009 517T1119 585T1246
610Q1311 610 1365 585T1456 517T1510 417T1518 294Q1509 228 1476 171T1393 71T1283 3T1157 -22Q1091 -22 1037 3T947 70T894 170T886 294ZM1075 294Q1063 211 1092 176T1180 141Q1205 141 1229 149T1273 176T1307 223T1328 294Q1334 336 1328 365T1307 412T1270
438T1223 447Q1164 447 1125 412T1075 294Z" />
<glyph unicode="&amp;" glyph-name="ampersand" horiz-adv-x="1489" d="M1284 529Q1270 435 1220 350T1087 193Q1142 147 1194 122T1297 97Q1329 97 1360 102T1417 114Q1446 121 1473 131L1457 45Q1429 26 1394 11Q1364 -2 1322 -12T1227 -22Q1146 -22 1067 3T909
77Q813 30 700 4T458 -22Q200 -22 71 57T-37 293L-35 305Q-26 368 6 423T89 528T203 620T338 701Q268 805 245 883T232 1030L235 1048Q245 1110 286 1169T396 1273T561 1347T776 1375Q873 1375 943 1356T1057 1303T1119 1220T1129 1113L1126 1091Q1118 1031 1088
981T1003 882T868 784T677 679Q746 585 810 499T938 341Q963 384 980 432T1005 536L1010 573L876 606L904 694L1310 716L1284 529ZM504 97Q577 97 646 116T776 174Q685 251 600 349T433 561Q395 541 367 516T318 463T287 407T271 351L269 340Q261 289 274 245T319
168T397 116T504 97ZM824 1078Q838 1168 800 1212T693 1256Q670 1256 651 1252T618 1243Q601 1238 587 1231Q575 1212 565 1187Q557 1166 549 1136T537 1067L536 1056Q533 1026 533 996T537 936T552 874T582 811Q638 844 680 874T752 934T799 996T822 1065L824
1078Z" />
<glyph unicode="&apos;" glyph-name="quotesingle" horiz-adv-x="433" d="M127 1540H343L337 1498L213 1137H70L127 1540Z" />
<glyph unicode="(" glyph-name="parenleft" horiz-adv-x="734" d="M394 543Q378 428 376 324T380 128T403 -43T436 -187Q478 -339 543 -456L422 -516Q306 -402 225 -244Q190 -177 160 -94T111 87T87 300T101 543Q119 669 154 781T237 991T337 1172T445 1324Q571
1483 719 1601L824 1541Q726 1424 641 1272Q605 1207 568 1128T497 958T437 762T394 543Z" />
<glyph unicode=")" glyph-name="parenright" horiz-adv-x="756" d="M340 543Q356 660 358 765T354 962T331 1132T298 1276Q255 1426 190 1541L311 1601Q426 1485 508 1327Q542 1260 573 1177T623 996T646 784T633 543Q615 420 580 309T497 100T397 -81T289 -233Q163
-394 15 -516L-90 -456Q7 -340 92 -188Q128 -123 165 -44T235 126T296 322T340 543Z" />
<glyph unicode="*" glyph-name="asterisk" horiz-adv-x="771" d="M508 1078L519 829L511 772H298L306 829L387 1077L170 913L118 885L40 1068L85 1094L340 1181L113 1267L72 1296L201 1479L245 1451L416 1286L405 1535L413 1592H626L618 1535L537 1287L754 1451L806
1479L885 1296L833 1267L584 1182L811 1097L853 1068L723 885L679 913L508 1078Z" />
<glyph unicode="+" glyph-name="plus" horiz-adv-x="1073" d="M645 1005V697H933V490H645V182H438V490H150V697H438V1005H645Z" />
<glyph unicode="," glyph-name="comma" horiz-adv-x="627" d="M51 98Q51 140 61 177T87 243T126 288T173 305Q196 305 221 302T270 291T315 271T353 241Q363 230 373 215T390 177T402 123T407 50Q407 -10 397 -66T356 -181T266 -301T110 -436L28 -340Q91 -297
133 -260T201 -189T238 -127T249 -73Q249 -49 231 -36T183 -16Q124 0 88 30T51 98Z" />
<glyph unicode="-" glyph-name="hyphen" horiz-adv-x="1023" d="M150 697H883V490H150V697Z" />
<glyph unicode="." glyph-name="period" horiz-adv-x="564" d="M28 99Q28 140 37 177T63 243T102 288T149 305Q192 305 229 296T294 269T338 230T354 182Q354 141 345 105T319 40T280 -5T232 -22Q189 -22 152 -13T88 13T44 52T28 99Z" />
<glyph unicode="/" glyph-name="slash" horiz-adv-x="806" d="M704 1540H919L917 1520L94 -295H-120L-118 -275L704 1540Z" />
<glyph unicode="0" glyph-name="zero" horiz-adv-x="1276" d="M512 -22Q393 -22 303 7T156 100T80 267T81 517L96 622Q123 810 180 951T322 1187T513 1328T746 1375Q878 1375 972 1345T1122 1251T1197 1083T1194 835L1179 731Q1150 534 1094 392T953 157T759 22T512
-22ZM882 782Q902 929 896 1021T866 1166T803 1237T718 1256Q655 1256 607 1227T523 1132T459 964T412 712L393 572Q375 440 379 350T405 203T466 122T555 97Q613 97 660 124T746 214T813 381T863 642L882 782Z" />
<glyph unicode="1" glyph-name="one" horiz-adv-x="814" d="M628 0H91L86 105L216 125L366 1186H141V1285L459 1353H690L516 125L648 105L628 0Z" />
<glyph unicode="2" glyph-name="two" horiz-adv-x="1084" d="M733 1047Q742 1105 733 1145T701 1210T644 1245T566 1256Q530 1256 496 1250T433 1234T375 1214L288 989H141L177 1270Q237 1299 302 1320T449 1358T619 1375Q726 1375 809 1357T946 1301T1024 1206T1036
1070Q1021 967 958 865T795 657T568 441T295 210L298 200H715L824 413L965 400L894 0H-16V135Q164 300 299 434T526 678T670 878T733 1047Z" />
<glyph unicode="3" glyph-name="three" horiz-adv-x="1042" d="M360 -22Q284 -22 218 -8T97 26T-6 72L31 350H177L202 139Q225 127 251 119T311 104T385 97Q430 97 470 112T543 159T598 243T632 369Q643 442 633 497T595 589T527 644T437 662H328L344 781H457Q508
781 546 800T610 854T653 935T677 1036Q692 1145 651 1200T524 1256Q495 1256 470 1252T423 1243T382 1231L299 1013H156L193 1301Q245 1321 302 1336T431 1363T579 1375Q796 1375 898 1292T977 1036Q968 975 940 927T874 841T793 777T711 733Q763 719 808 692T884
623T929 523T933 389Q919 288 872 211T749 82T575 4T360 -22Z" />
<glyph unicode="4" glyph-name="four" horiz-adv-x="1102" d="M955 0H378L373 105L542 125L571 342H3L-6 418L704 1353H968L296 471L300 461H591L638 796H938L890 461H998L1004 356L873 336L843 125L975 105L955 0Z" />
<glyph unicode="5" glyph-name="five" horiz-adv-x="1132" d="M413 -22Q328 -22 259 -9T134 23T31 66L67 343H223L257 127Q280 118 304 112T359 102T425 97Q477 97 523 115T607 169T670 260T706 389Q716 461 704 515T663 606T589 661T488 680Q440 680 399 672T325
654T263 631L143 732L266 1353H1059L1040 1153H396L321 774Q354 785 414 796T549 807Q653 807 744 787T899 719T994 596T1009 408Q994 303 943 223T812 88T631 6T413 -22Z" />
<glyph unicode="6" glyph-name="six" horiz-adv-x="1165" d="M87 572Q114 762 191 911T382 1163T635 1320T925 1375Q963 1375 996 1372T1056 1364T1107 1353L1097 1247Q1070 1249 1043 1251T985 1254T922 1256Q833 1256 749 1218T596 1106T478 929T409 694L418
690Q459 722 533 747T704 772Q797 772 869 747T988 674T1054 557T1061 399Q1048 305 1006 228T894 95T730 9T514 -22Q373 -22 282 17T140 127T76 295T78 508L87 572ZM758 370Q768 445 760 498T729 586T669 637T585 653Q547 653 512 643T449 620T394 590L385 521Q370
410 375 330T402 198T458 122T539 97Q638 97 689 167T758 370Z" />
<glyph unicode="7" glyph-name="seven" horiz-adv-x="1040" d="M240 928H106L166 1353H1124V1260L438 0H159L854 1143L850 1153H322L240 928Z" />
<glyph unicode="8" glyph-name="eight" horiz-adv-x="1124" d="M174 1015Q184 1088 222 1153T324 1268T480 1346T687 1375Q786 1375 860 1357T983 1304T1051 1216T1062 1093Q1053 1033 1023 983T948 893T849 822T739 769Q807 736 861 694T952 599T1003 484T1008
348Q997 271 955 204T842 86T670 7T444 -22Q334 -22 250 -2T112 59T34 161T22 304Q31 366 62 419T141 515T247 592T371 649Q323 678 283 714T215 796T177 895T174 1015ZM328 346Q311 218 353 158T493 97Q535 97 570 111T633 153T678 217T702 302Q715 396 654 468T465
601Q416 560 378 498T328 346ZM756 1049Q771 1156 742 1206T648 1256Q577 1256 534 1203T478 1062Q464 969 501 909T639 811Q684 853 714 912T756 1049Z" />
<glyph unicode="9" glyph-name="nine" horiz-adv-x="1140" d="M428 969Q418 892 425 837T453 747T505 694T574 677Q608 677 640 685T700 704T755 731L764 798Q793 1017 761 1136T633 1256Q585 1256 551 1236T492 1179T452 1089T428 969ZM225 -22Q185 -22 151 -19T89
-11T36 1L45 107Q69 104 93 102T147 99T208 97Q313 97 403 136T563 245T679 412T741 627L731 631Q711 620 683 608T618 584T532 566T424 558Q351 558 291 584T189 660T130 780T123 937Q137 1040 179 1121T289 1259T450 1345T657 1375Q789 1375 877 1341T1014 1239T1076
1072T1071 844L1060 766Q1031 562 955 413T768 168T518 25T225 -22Z" />
<glyph unicode=":" glyph-name="colon" horiz-adv-x="620" d="M44 99Q44 140 53 177T79 243T118 288T165 305Q208 305 245 296T310 269T354 230T370 182Q370 141 361 105T335 40T296 -5T248 -22Q205 -22 168 -13T104 13T60 52T44 99ZM144 810Q144 851 153 888T179
954T218 999T265 1016Q308 1016 345 1007T410 980T454 941T470 893Q470 852 461 816T435 751T396 706T348 689Q305 689 268 698T204 724T160 763T144 810Z" />
<glyph unicode=";" glyph-name="semicolon" horiz-adv-x="639" d="M167 810Q167 851 176 888T202 954T241 999T288 1016Q331 1016 368 1007T433 980T477 941T493 893Q493 852 484 816T458 751T419 706T371 689Q328 689 291 698T227 724T183 763T167 810ZM67 98Q67
140 77 177T103 243T142 288T189 305Q212 305 237 302T286 291T331 271T369 241Q379 230 389 215T406 177T418 123T423 50Q423 -10 413 -66T372 -181T282 -301T126 -436L44 -340Q107 -297 149 -260T217 -189T254 -127T265 -73Q265 -49 247 -37T199 -16Q140 -1 104
29T67 98Z" />
<glyph unicode="&lt;" glyph-name="less" horiz-adv-x="1148" d="M130 505V701L968 1075H998V886L366 608V598L998 321V131H968L130 505Z" />
<glyph unicode="=" glyph-name="equal" horiz-adv-x="1132" d="M150 494H992V277H150V494ZM150 957H992V740H150V957Z" />
<glyph unicode="&gt;" glyph-name="greater" horiz-adv-x="1148" d="M180 131H150V321L782 598V608L150 886V1075H180L1018 701V505L180 131Z" />
<glyph unicode="?" glyph-name="question" horiz-adv-x="1101" d="M571 710Q547 691 532 675T506 645T491 616T485 585Q483 564 488 547T503 519T529 502T561 496Q578 496 599 500T639 511T680 527L663 426Q633 412 598 402T519 384T424 376Q366 376 320 388T244
425T200 487T193 575Q199 617 215 654T261 727T332 803T433 889L639 1057Q680 1091 708 1118T753 1171T780 1223T794 1282Q798 1313 791 1342T762 1393T706 1428T620 1442Q579 1442 547 1438T491 1428T445 1415L341 1185L191 1202L233 1479Q291 1502 356 1519T503
1549T683 1562Q786 1562 864 1543T995 1488T1069 1397T1083 1272Q1076 1219 1056 1173T997 1080T898 979T753 856L571 710ZM191 99Q191 140 200 177T226 243T265 288T312 305Q355 305 392 295T457 269T501 230T517 182Q517 141 508 105T482 40T443 -5T395 -22Q352
-22 315 -13T251 13T207 52T191 99Z" />
<glyph unicode="@" glyph-name="at" horiz-adv-x="1922" d="M797 490Q786 403 784 349T788 266T809 226T843 216Q871 216 904 244T972 316T1037 409T1093 503L1153 946Q1137 949 1120 951T1084 956T1041 959Q1013 959 991 956T951 949T918 939Q895 898 876 846T837
723T806 559L797 490ZM1434 -165Q1363 -206 1273 -238Q1196 -265 1091 -287T858 -310Q696 -310 554 -278T306 -172T139 24T78 322Q78 473 113 609T214 863T373 1075T584 1236T838 1339T1129 1375Q1295 1375 1429 1337T1659 1226T1806 1045T1858 798Q1858 679 1833
582T1767 409T1671 277T1557 184T1436 126T1322 102L1126 88L1045 166L1068 336Q1040 290 1010 246T941 166T848 110T722 88Q661 88 614 107T538 167T498 275T499 435L511 528Q526 640 568 738T678 908T840 1021T1050 1063Q1122 1063 1193 1051T1326 1022T1449
985L1341 209Q1380 213 1420 240T1493 328T1547 492T1568 750Q1568 876 1535 967T1439 1118T1286 1206T1081 1235Q972 1235 877 1204T703 1117T562 981T456 804T391 594T368 359Q368 210 413 109T538 -54T722 -143T947 -170Q1048 -170 1136 -153T1291 -115Q1368
-90 1434 -59V-165Z" />
<glyph unicode="A" glyph-name="A" horiz-adv-x="1277" d="M320 0H-84L-92 105L18 125L631 1353H870L1127 124L1233 105L1216 0H699L691 105L828 124L774 396H337L204 123L337 105L320 0ZM636 1007L395 515H750L652 1007H636Z" />
<glyph unicode="B" glyph-name="B" horiz-adv-x="1217" d="M3 0L-2 105L128 125L284 1228L153 1248L173 1353H717Q956 1353 1067 1276T1154 1032Q1140 929 1066 850T853 720V704Q991 678 1065 596T1121 386Q1095 211 961 106T603 0H3ZM517 119Q581 119 640 124T745
142Q766 178 788 241T820 378Q838 506 786 574T605 643H502L428 119H517ZM600 762Q643 762 689 767T773 781Q800 828 821 891T851 1013Q867 1128 816 1181T648 1234H585L519 762H600Z" />
<glyph unicode="C" glyph-name="C" horiz-adv-x="1218" d="M70 604Q123 985 319 1180T838 1375Q952 1375 1051 1358T1208 1316L1191 1026H1023L977 1236Q945 1246 898 1251T810 1256Q732 1256 660 1237T537 1188Q485 1073 448 945T391 683L373 550Q343 330 428
214T695 97Q788 97 892 126T1087 201L1072 105Q971 47 846 13T595 -22Q287 -22 155 115T58 515L70 604Z" />
<glyph unicode="D" glyph-name="D" horiz-adv-x="1438" d="M5 0L0 105L130 125L286 1228L155 1248L175 1353H771Q1111 1353 1253 1200T1352 742L1340 654Q1296 341 1109 171T628 0H5ZM593 119Q665 119 733 128T857 158Q914 233 964 354T1036 622L1049 716Q1086
981 1007 1107T724 1234H587L430 119H593Z" />
<glyph unicode="E" glyph-name="E" horiz-adv-x="1246" d="M502 648L428 119H856L961 322L1121 309L1055 0H3L-2 105L128 125L284 1228L153 1248L173 1353H1216L1197 1033H1031L991 1234H585L519 767H836L876 894L979 874L923 519L816 514V648H502Z" />
<glyph unicode="F" glyph-name="F" horiz-adv-x="1092" d="M171 1353H1144L1125 1033H959L919 1234H583L517 767H764L804 894L907 874L851 519L744 514V648H500L426 125L608 105L588 0H1L-4 105L126 125L282 1228L151 1248L171 1353Z" />
<glyph unicode="G" glyph-name="G" horiz-adv-x="1356" d="M754 646H1291L1296 541L1165 521L1107 105Q995 48 858 13T589 -22Q309 -22 168 110T63 505L76 594Q132 972 334 1173T858 1375Q967 1375 1070 1360T1253 1318L1236 1028H1068L1022 1234Q980 1244 930
1250T835 1256Q759 1256 681 1236T544 1182Q492 1084 450 954T388 683L370 550Q340 334 423 216T668 97Q739 97 807 111L865 521L734 541L754 646Z" />
<glyph unicode="H" glyph-name="H" horiz-adv-x="1529" d="M171 1353H708L713 1248L582 1228L519 778H1043L1106 1228L975 1248L995 1353H1532L1537 1248L1406 1228L1250 125L1382 105L1362 0H825L820 105L950 125L1026 659H502L426 125L558 105L538 0H1L-4 105L126
125L282 1228L151 1248L171 1353Z" />
<glyph unicode="I" glyph-name="I" horiz-adv-x="705" d="M-4 105L126 125L282 1228L151 1248L171 1353H708L713 1248L582 1228L426 125L558 105L538 0H1L-4 105Z" />
<glyph unicode="J" glyph-name="J" horiz-adv-x="937" d="M387 1353H974L979 1248L848 1228L729 378Q700 176 589 77T287 -22Q206 -22 128 -7T-6 31L10 311H156L203 105Q217 101 237 99T276 96Q298 96 317 99T347 107Q373 148 395 218T428 369L548 1228L367 1248L387
1353Z" />
<glyph unicode="K" glyph-name="K" horiz-adv-x="1346" d="M534 0H-3L-8 105L122 125L278 1228L147 1248L167 1353H704L709 1248L578 1228L507 723L520 717L1062 1231L978 1248L998 1353H1386L1391 1248L1277 1222L817 796L1191 126L1300 105L1286 0H958L619 611L472
475L422 125L554 105L534 0Z" />
<glyph unicode="L" glyph-name="L" horiz-adv-x="1033" d="M905 0H-1L-6 105L124 125L280 1228L149 1248L169 1353H736L741 1248L580 1228L424 119H722L832 332L973 320L905 0Z" />
<glyph unicode="M" glyph-name="M" horiz-adv-x="2035" d="M428 0H1L-4 105L126 125L282 1228L151 1248L171 1353H715L955 389H972L1485 1353H2038L2043 1248L1912 1228L1756 125L1888 105L1868 0H1331L1326 105L1456 125L1603 1162H1587L961 0H776L479 1162H463L316
125L448 105L428 0Z" />
<glyph unicode="N" glyph-name="N" horiz-adv-x="1549" d="M1158 1353H1586L1591 1248L1460 1228L1287 0H914L469 1120H453L312 125L444 105L424 0H-3L-8 105L122 125L278 1228L147 1248L167 1353H670L1114 235H1130L1269 1228L1138 1248L1158 1353Z" />
<glyph unicode="O" glyph-name="O" horiz-adv-x="1430" d="M600 -22Q285 -22 155 115T63 525L74 604Q126 982 316 1178T835 1375Q1142 1375 1274 1237T1367 827L1356 749Q1303 370 1111 174T600 -22ZM1060 783Q1093 1022 1023 1139T784 1256Q717 1256 649 1239T531
1198Q486 1099 447 969T388 703L370 570Q341 346 416 222T642 97Q710 97 779 113T900 156Q939 242 980 375T1042 650L1060 783Z" />
<glyph unicode="P" glyph-name="P" horiz-adv-x="1177" d="M590 0H3L-2 105L128 125L284 1228L153 1248L173 1353H745Q1001 1353 1111 1266T1196 995Q1168 813 1025 710T688 606H496L428 125L610 105L590 0ZM624 725Q671 725 720 729T809 743Q831 778 855 841T888
968Q908 1106 853 1170T663 1234H585L513 725H624Z" />
<glyph unicode="Q" glyph-name="Q" horiz-adv-x="1440" d="M596 -22Q282 -22 151 114T59 525L70 604Q123 984 314 1179T831 1375Q1134 1375 1268 1239T1363 827L1352 749Q1319 512 1232 348T1006 90Q1037 6 1074 -34T1165 -75Q1194 -75 1226 -68T1286 -50L1272
-140Q1230 -166 1179 -180T1073 -194Q960 -194 884 -146T771 -5Q729 -13 686 -17T596 -22ZM1056 783Q1089 1015 1021 1135T780 1256Q714 1256 648 1240T527 1198Q476 1083 439 957T384 703L366 570Q360 527 358 480Q386 540 448 572T591 605Q733 605 807 531T925
323L942 273Q968 343 995 441T1038 650L1056 783ZM692 223Q664 304 641 362T589 453T505 486Q447 486 414 448T381 340Q381 319 385 294T400 243Q437 169 499 133T638 97Q664 97 687 98T733 104L692 223Z" />
<glyph unicode="R" glyph-name="R" horiz-adv-x="1279" d="M538 0H1L-4 105L126 125L282 1228L151 1248L171 1353H736Q968 1353 1075 1266T1157 1003Q1139 877 1066 791T876 663L868 644L1094 127L1221 105L1201 0H862L607 606H494L426 125L558 105L538 0ZM585
725Q631 725 681 731T780 751Q802 793 822 855T850 978Q870 1112 820 1173T641 1234H583L511 725H585Z" />
<glyph unicode="S" glyph-name="S" horiz-adv-x="1203" d="M739 800Q970 656 1030 560T1072 341Q1047 171 888 75T484 -22Q353 -22 242 -5T60 41L76 320H246L291 121Q327 110 382 104T500 97Q555 97 610 105T705 125Q724 155 740 195T763 281Q774 359 725 424T506
600Q297 732 229 819T180 1039Q202 1187 358 1281T759 1375Q863 1375 965 1362T1143 1323L1126 1033H968L923 1234Q874 1246 824 1251T731 1256Q676 1256 622 1248T532 1228Q519 1205 506 1168T489 1100Q476 1012 541 947T739 800Z" />
<glyph unicode="T" glyph-name="T" horiz-adv-x="1148" d="M223 105L353 125L510 1234H283L208 1043H60L116 1353H1228L1201 1043H1062L1032 1234H810L653 125L785 105L765 0H228L223 105Z" />
<glyph unicode="U" glyph-name="U" horiz-adv-x="1452" d="M692 1248L561 1228L466 546Q435 328 493 213T707 97Q791 97 863 118T982 173Q1008 223 1036 316T1081 521L1180 1228L1049 1248L1069 1353H1497L1502 1248L1371 1228L1272 518Q1234 244 1081 111T635
-22Q352 -22 237 104T158 491L261 1228L130 1248L150 1353H687L692 1248Z" />
<glyph unicode="V" glyph-name="V" horiz-adv-x="1311" d="M1002 1353H1416L1427 1248L1312 1225L709 0H438L179 1227L76 1248L90 1353H587L598 1248L458 1228L645 272H661L1118 1229L988 1248L1002 1353Z" />
<glyph unicode="W" glyph-name="W" horiz-adv-x="2111" d="M163 1228L60 1248L74 1353H571L582 1248L445 1228L640 325H656L1084 1353H1335L1526 325H1542L1928 1229L1796 1248L1810 1353H2224L2235 1248L2123 1226L1582 0H1308L1127 975H1111L702 0H430L163 1228Z" />
<glyph unicode="X" glyph-name="X" horiz-adv-x="1289" d="M1196 0H711L706 105L808 119L595 530H579L259 119L362 105L342 0H-51L-56 105L59 127L510 691L233 1227L123 1248L137 1353H617L628 1248L526 1233L714 874H730L1013 1234L917 1248L931 1353H1322L1333
1248L1212 1224L796 711L1099 127L1216 105L1196 0Z" />
<glyph unicode="Y" glyph-name="Y" horiz-adv-x="1162" d="M42 1353H523L534 1248L429 1233L658 770H674L1019 1234L919 1248L933 1353H1329L1340 1248L1218 1224L763 617L693 125L825 105L805 0H268L263 105L393 125L458 586L138 1226L28 1248L42 1353Z" />
<glyph unicode="Z" glyph-name="Z" horiz-adv-x="1242" d="M1220 1353V1259L382 133L385 119H882L981 332L1131 320L1064 0H14V95L851 1220L848 1234H392L293 1021L142 1033L210 1353H1220Z" />
<glyph unicode="[" glyph-name="bracketleft" horiz-adv-x="676" d="M298 1677H766L752 1571H560L291 -351H481L467 -457H0L298 1677Z" />
<glyph unicode="\" glyph-name="backslash" horiz-adv-x="770" d="M660 -275L658 -295H443L130 1520L132 1540H347L660 -275Z" />
<glyph unicode="]" glyph-name="bracketright" horiz-adv-x="676" d="M377 -457H-90L-76 -351H115L384 1571H194L208 1677H676L377 -457Z" />
<glyph unicode="^" glyph-name="asciicircum" horiz-adv-x="984" d="M501 1562H623L1004 1079V1049H805L570 1343H554L320 1049H120V1079L501 1562Z" />
<glyph unicode="_" glyph-name="underscore" horiz-adv-x="1046" d="M-50 -235H986V-379H-50V-235Z" />
<glyph unicode="`" glyph-name="grave" horiz-adv-x="828" d="M623 1275L474 1265L200 1594L210 1660L496 1670L628 1307L623 1275Z" />
<glyph unicode="a" glyph-name="a" horiz-adv-x="1244" d="M1108 0L778 -22L697 56L720 225Q638 109 539 44T341 -22Q181 -22 115 74T77 373L103 561Q140 813 298 960T689 1107Q783 1107 900 1086T1122 1029L996 125L1128 105L1108 0ZM380 461Q356 294 366 200T448
106Q499 106 578 185T743 393L825 982Q798 990 756 996T668 1003Q631 1003 591 995T511 973Q471 898 442 798T398 592L380 461Z" />
<glyph unicode="b" glyph-name="b" horiz-adv-x="1216" d="M174 1540L504 1562L585 1484L499 864Q585 983 686 1045T889 1107Q1043 1107 1106 1011T1141 712L1115 524Q1077 269 920 124T536 -22Q432 -22 312 0T96 56L285 1415L153 1435L174 1540ZM839 624Q864
802 852 890T772 979Q713 979 635 902T475 693L392 101Q430 92 471 87T550 82Q590 82 636 90T716 112Q749 183 777 280T821 493L839 624Z" />
<glyph unicode="c" glyph-name="c" horiz-adv-x="965" d="M929 798L803 788V983Q769 990 733 993T664 997Q630 997 590 989T505 962Q460 879 429 778T380 562L364 443Q339 273 374 181T558 88Q623 88 700 113T845 178V72Q765 26 667 2T471 -22Q239 -22 139 90T72
429L85 522Q125 802 290 954T686 1107Q770 1107 850 1093T985 1055L929 798Z" />
<glyph unicode="d" glyph-name="d" horiz-adv-x="1233" d="M772 1540L1102 1562L1183 1484L993 125L1125 105L1105 0L775 -22L694 56L718 227Q635 104 537 41T338 -22Q185 -22 117 77T74 373L100 561Q138 817 297 962T688 1107Q723 1107 760 1104T839 1095L883
1415L752 1435L772 1540ZM377 461Q351 265 366 186T444 106Q500 106 576 177T741 393L824 987Q799 993 758 998T669 1003Q628 1003 585 994T507 970Q469 896 440 799T395 592L377 461Z" />
<glyph unicode="e" glyph-name="e" horiz-adv-x="1023" d="M1007 824Q984 663 855 573T519 482Q479 482 440 485T373 494L366 443Q341 270 386 179T565 88Q626 88 705 111T868 178V72Q787 27 685 3T478 -22Q238 -22 141 92T74 429L87 522Q127 799 281 953T664
1107Q849 1107 937 1037T1007 824ZM498 968Q464 893 436 799T388 596Q425 592 464 589T534 586Q563 586 589 589T634 599Q662 640 682 691T712 802Q726 906 703 951T615 997Q586 997 557 990T498 968Z" />
<glyph unicode="f" glyph-name="f" horiz-adv-x="746" d="M577 1085H791L777 981H562L420 -47Q392 -255 294 -356T4 -457Q-69 -457 -143 -445T-280 -410L-232 -270Q-163 -298 -92 -314T34 -330Q69 -286 92 -219T127 -74L272 981H83L97 1085H288Q333 1328 443 1445T731
1562Q796 1562 860 1549T970 1515L927 1375Q875 1402 815 1418T702 1435Q658 1383 626 1296T580 1107L577 1085Z" />
<glyph unicode="g" glyph-name="g" horiz-adv-x="1167" d="M22 -187Q184 -253 311 -285T526 -317Q585 -265 628 -162T694 89L712 223Q636 105 533 42T318 -22Q162 -22 103 78T70 373L96 561Q132 810 290 958T682 1107Q778 1107 890 1087T1115 1029L989 129Q950
-135 794 -296T416 -457Q316 -457 201 -434T-20 -367L22 -187ZM373 461Q349 286 362 196T439 106Q504 106 583 183T736 393L818 982Q788 991 746 997T662 1003Q622 1003 577 993T497 968Q465 900 438 809T391 592L373 461Z" />
<glyph unicode="h" glyph-name="h" horiz-adv-x="1346" d="M837 979Q773 979 684 903T501 692L402 -22L114 0L311 1415L180 1435L200 1540L530 1562L611 1484L524 859Q617 980 728 1043T953 1107Q1097 1107 1149 1033T1179 804L1086 125L1218 105L1198 0L868 -22L786
56L879 731Q899 880 890 929T837 979Z" />
<glyph unicode="i" glyph-name="i" horiz-adv-x="704" d="M156 1085L487 1107L568 1029L442 125L573 105L553 0L223 -22L142 56L267 960L136 980L156 1085ZM332 1398Q332 1472 361 1526T430 1580Q503 1580 557 1551T612 1482Q612 1406 583 1353T514 1300Q438 1300
385 1328T332 1398Z" />
<glyph unicode="j" glyph-name="j" horiz-adv-x="661" d="M158 1085L489 1107L570 1029L418 -47Q390 -253 291 -355T-1 -457Q-71 -457 -145 -444T-280 -410L-232 -270Q-160 -297 -88 -313T39 -330Q65 -296 89 -231T125 -86L269 960L138 980L158 1085ZM335 1398Q335
1472 364 1526T433 1580Q506 1580 560 1551T615 1482Q615 1406 586 1353T517 1300Q441 1300 388 1328T335 1398Z" />
<glyph unicode="k" glyph-name="k" horiz-adv-x="1224" d="M1171 0L878 -22L797 56L569 515Q545 505 520 496T469 477L400 -22L112 0L309 1415L178 1435L198 1540L529 1562L610 1484L490 629Q647 695 765 784T971 970L873 980L893 1085L1081 1107L1218 989Q1152
908 1048 813T797 630L1046 126L1185 105L1171 0Z" />
<glyph unicode="l" glyph-name="l" horiz-adv-x="666" d="M194 1540L525 1562L606 1484L416 125L547 105L527 0L197 -22L116 56L305 1415L174 1435L194 1540Z" />
<glyph unicode="m" glyph-name="m" horiz-adv-x="2015" d="M1209 0L879 -22L798 56L891 731Q909 859 903 919T850 979Q788 979 703 908T518 692L418 -22L132 0L264 960L133 980L153 1085L484 1107L565 1029L541 859Q638 980 751 1043T974 1107Q1100 1107 1154
1045T1197 856Q1291 979 1403 1043T1628 1107Q1766 1107 1819 1037T1851 819L1756 125L1887 105L1867 0L1537 -22L1456 56L1549 731Q1566 855 1561 917T1509 979Q1448 979 1364 908T1175 692L1098 125L1229 105L1209 0Z" />
<glyph unicode="n" glyph-name="n" horiz-adv-x="1362" d="M1214 0L884 -22L803 56L896 731Q915 861 907 920T855 979Q800 979 714 908T518 692L418 -22L132 0L264 960L133 980L153 1085L484 1107L565 1029L541 859Q635 977 745 1042T964 1107Q1111 1107 1165
1036T1198 819L1103 125L1234 105L1214 0Z" />
<glyph unicode="o" glyph-name="o" horiz-adv-x="1167" d="M476 -22Q243 -22 141 88T70 429L83 522Q124 801 290 954T694 1107Q933 1107 1032 993T1099 647L1086 552Q1048 294 876 136T476 -22ZM807 632Q832 809 799 903T662 997Q626 997 587 990T513 968Q463
880 429 775T378 562L361 443Q337 264 377 176T508 88Q545 88 584 96T657 118Q706 194 741 298T791 513L807 632Z" />
<glyph unicode="p" glyph-name="p" horiz-adv-x="1245" d="M142 1085L472 1107L553 1029L529 859Q611 976 712 1041T915 1107Q1085 1107 1143 1008T1173 712L1147 524Q1110 272 953 125T568 -22Q530 -22 488 -19T408 -9L366 -310L498 -330L478 -435H-49L-54 -330L76
-310L253 960L122 980L142 1085ZM871 624Q896 808 885 893T811 979Q747 979 666 901T505 689L423 95Q465 88 504 85T581 82Q623 82 666 90T746 112Q775 170 805 269T853 493L871 624Z" />
<glyph unicode="q" glyph-name="q" horiz-adv-x="1174" d="M513 -330L643 -310L717 224Q640 108 541 43T339 -22Q171 -22 109 74T75 373L101 561Q141 811 297 959T681 1107Q774 1107 889 1087T1120 1029L933 -310L1065 -330L1045 -435H518L513 -330ZM377 461Q350
276 365 191T441 106Q501 106 577 176T741 393L823 987Q788 995 748 999T667 1003Q625 1003 580 994T502 971Q458 870 433 774T396 592L377 461Z" />
<glyph unicode="r" glyph-name="r" horiz-adv-x="978" d="M169 1085L500 1107L581 1029L556 853Q610 974 688 1040T858 1107Q900 1107 940 1095T1010 1063L952 788L806 776V954Q795 957 786 958T767 959Q719 959 657 876T523 616L455 125L587 105L567 0H39L34
105L164 125L280 960L149 980L169 1085Z" />
<glyph unicode="s" glyph-name="s" horiz-adv-x="1023" d="M622 659Q822 540 877 456T916 262Q897 127 762 53T411 -22Q315 -22 226 -3T72 48L96 308H218L249 111Q279 101 324 95T420 88Q460 88 500 92T577 106Q591 127 603 156T620 220Q629 284 594 333T399 484Q231
588 182 663T144 828Q163 957 289 1032T629 1107Q726 1107 812 1088T957 1039L932 778H811L778 977Q745 986 703 991T619 997Q584 997 547 992T484 979Q469 961 457 935T441 882Q431 823 462 780T622 659Z" />
<glyph unicode="t" glyph-name="t" horiz-adv-x="821" d="M91 1085H267L296 1292L599 1375L558 1085H835L820 981H544L455 348Q437 226 452 157T534 88Q585 88 635 108T731 158V52Q679 18 601 -2T438 -22Q265 -22 202 70T166 353L253 981H76L91 1085Z" />
<glyph unicode="u" glyph-name="u" horiz-adv-x="1344" d="M807 1085L1138 1107L1219 1029L1093 125L1224 105L1204 0L874 -22L793 56L816 223Q728 109 614 44T381 -22Q243 -22 192 50T161 266L256 960L124 980L144 1085L475 1107L553 1009L461 339Q445 220 453
163T513 106Q577 106 662 179T839 390L918 960L787 980L807 1085Z" />
<glyph unicode="v" glyph-name="v" horiz-adv-x="1063" d="M317 0L162 960L32 980L46 1085L330 1107L411 1029L546 176Q601 261 652 358T746 558T818 763T863 961L738 980L752 1085L972 1107L1053 1029Q1053 950 1033 861T979 679T898 492T799 308T690 134T578
-22L317 0Z" />
<glyph unicode="w" glyph-name="w" horiz-adv-x="1745" d="M46 1085L330 1107L411 1029L535 244L940 1107L1085 1085L1228 180Q1283 265 1334 362T1428 561T1501 765T1545 961L1420 980L1434 1085L1654 1107L1735 1029Q1735 950 1716 861T1662 678T1582 489T1483
304T1373 131T1260 -22L999 0L891 663L578 -22L316 0L162 960L32 980L46 1085Z" />
<glyph unicode="x" glyph-name="x" horiz-adv-x="1139" d="M1069 0L768 -22L687 56L499 452Q421 382 349 294T220 117L322 105L308 0L140 -22L-4 76Q24 129 68 191T170 320T296 453T438 582L259 959L123 980L137 1085L438 1107L519 1029L685 678Q755 747 815 820T925
968L825 980L839 1085L1007 1107L1151 1009Q1122 962 1082 906T990 790T878 668T747 546L946 125L1083 105L1069 0Z" />
<glyph unicode="y" glyph-name="y" horiz-adv-x="1283" d="M146 1085L477 1107L558 1029L463 334Q447 216 453 161T509 106Q564 106 649 178T842 391L921 960L789 980L809 1085L1140 1107L1221 1029L1095 129Q1051 -147 894 -302T522 -457Q420 -457 306 -434T86
-367L128 -187Q278 -249 409 -283T632 -317Q686 -271 731 -169T800 89L818 223Q740 113 627 46T391 -22Q248 -22 195 49T163 266L258 960L126 980L146 1085Z" />
<glyph unicode="z" glyph-name="z" horiz-adv-x="1067" d="M725 975H369L287 801L144 827L194 1085H1071L1061 1002L375 110H740L822 284L965 258L915 0H38L49 95L725 975Z" />
<glyph unicode="{" glyph-name="braceleft" horiz-adv-x="835" d="M99 663H195Q256 663 284 687T320 773L408 1397Q417 1457 445 1508T515 1597T612 1656T727 1677H915L901 1571H880Q789 1571 744 1532T686 1401L605 828Q596 766 578 725T535 660T482 625T425
615L424 605Q452 605 477 595T520 561T545 495T544 392L463 -181Q450 -272 484 -311T609 -351H630L616 -457H428Q368 -457 320 -436T239 -378T192 -289T187 -177L275 447Q283 508 262 532T180 557H84L99 663Z" />
<glyph unicode="|" glyph-name="bar" horiz-adv-x="748" d="M290 1670H458V-537H290V1670Z" />
<glyph unicode="}" glyph-name="braceright" horiz-adv-x="834" d="M735 557H639Q578 557 550 533T514 447L426 -177Q417 -237 389 -288T319 -377T222 -436T107 -457H-80L-66 -351H-45Q45 -351 90 -312T148 -181L229 392Q238 454 258 495T305 560T358 595T409
605L410 615Q387 615 363 625T319 659T291 725T290 828L371 1401Q384 1492 350 1531T225 1571H204L218 1677H406Q466 1677 514 1656T595 1598T642 1509T647 1397L559 773Q551 712 572 688T654 663H750L735 557Z" />
<glyph unicode="~" glyph-name="asciitilde" horiz-adv-x="1291" d="M150 574Q150 630 170 673T224 745T306 788T410 803Q447 803 493 793T588 769T686 737T778 706T856 681T911 671Q930 671 948 678T981 701T1005 738T1014 791L1151 801V704Q1151 651 1133 609T1082
537T1004 491T903 475Q869 475 823 485T726 509T622 541T524 572T441 597T386 607Q366 607 347 603T312 588T288 558T279 509L150 499V574Z" />
<glyph unicode="&#xa0;" glyph-name="uni00A0" horiz-adv-x="550" />
<glyph unicode="&#xa1;" glyph-name="exclamdown" horiz-adv-x="631" d="M519 986Q519 945 510 908T484 842T445 797T398 780Q355 780 318 790T253 816T209 855T193 903Q193 943 202 980T228 1045T267 1090T315 1107Q358 1107 395 1098T459 1072T503 1033T519
986ZM330 -435L22 -457L5 -435L233 675H414L330 -435Z" />
<glyph unicode="&#xa2;" glyph-name="cent" horiz-adv-x="997" d="M929 798L803 788V983Q769 990 733 993Q726 994 720 994L593 89Q643 94 700 113Q777 138 845 178V72Q765 26 667 2Q623 -9 578 -15L546 -245H428L459 -22Q236 -19 139 90Q39 202 72 429L85 522Q125
802 290 954Q430 1084 618 1103L653 1353H771L736 1105Q794 1103 850 1093Q930 1079 985 1055L929 798ZM589 989Q549 981 505 962Q460 879 429 778T380 562L364 443Q339 273 374 180Q399 117 476 97L602 991Q596 990 589 989Z" />
<glyph unicode="&#xa3;" glyph-name="sterling" horiz-adv-x="1108" d="M80 669L195 698Q189 742 185 781T180 857T181 929T189 1003Q200 1079 236 1147T338 1265T499 1345T724 1375Q804 1375 867 1362T979 1332T1068 1292L1031 1025L883 1010L841 1246Q826 1251
808 1255T763 1262T702 1265Q664 1265 634 1261T580 1252T538 1239Q527 1211 517 1180T498 1107T481 1015Q475 971 472 936T469 866T474 794T484 709H869L852 590H500Q507 531 508 480T502 375Q494 320 481 274T455 192Q440 152 423 119H741L851 312L992 290L926
0H16L8 88L152 117Q154 120 162 138T180 186T200 254T217 339Q221 368 222 396T223 454T219 517T210 590H89L80 669Z" />
<glyph unicode="&#xa4;" glyph-name="currency" horiz-adv-x="1128" d="M92 175L252 367Q217 414 198 469T179 588Q179 646 196 699T245 798L90 983L244 1112L399 928Q440 948 485 958T580 969Q628 969 673 959T759 928L913 1112L1068 981L914 798Q946 752 963
699T981 588Q981 525 961 469T906 365L1067 174L913 46L748 242Q670 207 580 207Q535 207 493 216T412 242L247 45L92 175ZM405 588Q405 542 419 507T456 449T512 413T580 401Q616 401 647 413T703 448T740 507T754 588Q754 634 741 669T703 727T648 763T580 775Q544
775 512 763T457 728T419 669T405 588Z" />
<glyph unicode="&#xa5;" glyph-name="yen" horiz-adv-x="1162" d="M174 387H430L451 535H193L209 652H425L138 1226L28 1248L42 1353H523L534 1248L429 1233L658 770H674L1019 1234L919 1248L933 1353H1329L1340 1248L1218 1224L789 652H1012L996 535H751L730
387H977L961 270H713L693 125L825 105L805 0H268L263 105L393 125L413 270H158L174 387Z" />
<glyph unicode="&#xa6;" glyph-name="brokenbar" horiz-adv-x="748" d="M290 320H458V-537H290V320ZM290 1670H458V813H290V1670Z" />
<glyph unicode="&#xa7;" glyph-name="section" horiz-adv-x="1194" d="M768 1030Q860 978 933 930T1055 831T1126 724T1138 599Q1132 554 1115 518T1072 451T1013 397T941 353Q979 309 995 257T1003 136Q984 -1 855 -64T480 -128Q394 -128 322 -118T192 -93T82
-58L141 222H271V5Q298 -2 329 -7T402 -15T495 -18Q538 -18 574 -16T636 -10T688 -2Q696 9 703 21T716 51T726 89Q731 127 717 159T666 224T564 295T404 384Q332 422 274 460T177 543T120 642T112 767Q118 811 135 848T177 915T236 971T308 1019Q273 1060 259 1107T254
1217Q261 1268 291 1316T381 1401T534 1461T760 1484Q850 1484 920 1474T1046 1449T1146 1416L1086 1136H955V1353Q926 1359 895 1363T824 1370T739 1374Q702 1374 670 1371T614 1363T565 1353Q557 1342 551 1331T540 1305T533 1274Q528 1239 537 1212T573 1159T647
1102T768 1030ZM634 562Q688 531 736 504T827 448Q851 492 860 548Q866 587 856 617T818 676T744 734T633 800Q572 834 519 864T422 923Q410 902 402 880T390 831Q385 794 392 764T427 704T505 641T634 562Z" />
<glyph unicode="&#xa8;" glyph-name="dieresis" horiz-adv-x="1035" d="M150 1389Q150 1420 158 1447T181 1495T215 1528T256 1540Q287 1540 314 1532T362 1508T393 1474T405 1432Q405 1402 397 1375T374 1327T341 1294T300 1282Q268 1282 241 1290T194 1314T162
1348T150 1389ZM630 1389Q630 1420 638 1447T661 1495T694 1528T735 1540Q766 1540 793 1532T841 1508T873 1474T885 1432Q885 1402 877 1375T854 1327T820 1294T778 1282Q746 1282 719 1290T673 1314T642 1348T630 1389Z" />
<glyph unicode="&#xa9;" glyph-name="copyright" horiz-adv-x="1377" d="M419 953Q419 1124 509 1214T757 1305Q803 1305 839 1299T903 1285T953 1267L965 1064L867 1050L823 1187Q816 1190 807 1192T786 1197T756 1199Q734 1199 717 1196T686 1190T662 1181Q655
1157 650 1121T642 1048T639 968V915Q639 857 649 817T677 751T719 714T771 702Q809 702 843 709T906 725T961 748V654Q933 637 902 625T830 604T739 595Q671 595 613 615T511 674T444 766T419 890V953ZM297 949Q297 858 331 779T424 640T563 546T734 512Q824 512
903 546T1042 639T1136 778T1170 949Q1170 1039 1136 1118T1043 1257T904 1351T734 1385Q643 1385 564 1351T425 1258T331 1119T297 949ZM120 949Q120 1076 168 1188T300 1383T495 1514T734 1562Q861 1562 973 1514T1168 1383T1299 1188T1347 949Q1347 822 1299
710T1168 515T973 384T734 335Q649 335 571 357T424 419T300 515T204 639T142 785T120 949Z" />
<glyph unicode="&#xaa;" glyph-name="ordfeminine" horiz-adv-x="1188" d="M821 821L623 810L582 849L591 919Q584 910 568 892T525 855T462 824T380 810Q348 810 322 819T280 852T257 913T257 1008L270 1102Q278 1158 302 1207T366 1294T464 1353T595 1375Q634
1375 674 1369T749 1355T820 1336L760 908L834 899L821 821ZM434 1052Q427 1005 427 976T430 931T442 910T463 904Q487 904 510 922T554 963T588 1010T609 1043L643 1291Q635 1293 618 1295T577 1298Q559 1298 542 1295T514 1289T493 1281Q483 1263 474 1240T457
1185T443 1117L434 1052Z" />
<glyph unicode="&#xab;" glyph-name="guillemotleft" horiz-adv-x="1135" d="M446 115L90 536L99 596L573 1017H748L745 995L386 576L383 556L624 137L621 115H446ZM805 159L574 548L579 584L920 973H1095L1092 951L871 566L983 181L980 159H805Z" />
<glyph unicode="&#xac;" glyph-name="logicalnot" horiz-adv-x="1223" d="M150 797H1073V305H876V610H150V797Z" />
<glyph unicode="&#xad;" glyph-name="uni00AD" horiz-adv-x="899" d="M160 685L789 726L759 537L130 496L160 685Z" />
<glyph unicode="&#xae;" glyph-name="registered" horiz-adv-x="1377" d="M120 949Q120 1076 168 1188T300 1383T495 1514T734 1562Q861 1562 973 1514T1168 1383T1299 1188T1347 949Q1347 822 1299 710T1168 515T973 384T734 335Q649 335 571 357T424 419T300
515T204 639T142 785T120 949ZM297 949Q297 858 331 779T424 640T563 546T734 512Q824 512 903 546T1042 639T1136 778T1170 949Q1170 1039 1136 1118T1043 1257T904 1351T734 1385Q643 1385 564 1351T425 1258T331 1119T297 949ZM494 1179L424 1196L433 1261H754Q870
1261 931 1219T993 1083Q993 1017 969 978T909 912V906L985 711L1045 700L1036 635H840L745 896H686V715L756 700L747 635H433L424 700L494 715V1179ZM686 1167V990H712Q746 990 766 993Q777 995 785 997Q788 1009 792 1023Q794 1035 796 1050T799 1082Q799 1118
777 1142T702 1167H686Z" />
<glyph unicode="&#xaf;" glyph-name="overscore" horiz-adv-x="1090" d="M190 1483H940L900 1333H150L190 1483Z" />
<glyph unicode="&#xb0;" glyph-name="degree" horiz-adv-x="624" d="M90 1305Q90 1358 111 1405T168 1487T252 1542T357 1562Q412 1562 461 1542T546 1487T603 1405T624 1305Q624 1252 603 1205T546 1123T461 1068T357 1048Q301 1048 253 1068T168 1123T111 1205T90
1305ZM245 1305Q245 1247 277 1217T357 1187Q405 1187 437 1217T469 1305Q469 1363 437 1393T357 1423Q309 1423 277 1393T245 1305Z" />
<glyph unicode="&#xb1;" glyph-name="plusminus" horiz-adv-x="1073" d="M635 1105V787H933V600H635V282H448V600H150V787H448V1105H635ZM177 187H910V0H177V187Z" />
<glyph unicode="&#xb2;" glyph-name="twosuperior" horiz-adv-x="581" d="M377 1589Q384 1639 362 1658T303 1678Q283 1678 265 1675T232 1666Q215 1661 200 1654L157 1544L62 1549L86 1715Q120 1731 161 1743Q196 1754 243 1763T345 1772Q397 1772 439 1762T510
1730T552 1678T559 1603Q553 1558 524 1510T449 1412T348 1311T230 1205L231 1200H379L435 1306L526 1295L485 1085H-20L-8 1167Q72 1237 140 1297T259 1410T341 1506T377 1589Z" />
<glyph unicode="&#xb3;" glyph-name="threesuperior" horiz-adv-x="548" d="M189 1073Q149 1073 112 1079T45 1093Q11 1102 -19 1114L5 1289L99 1295L110 1189Q124 1182 140 1178Q154 1174 171 1171T209 1168Q251 1168 284 1194T325 1273Q330 1306 325 1329T307
1367T275 1387T233 1394H179L193 1488H249Q291 1488 315 1514T346 1591Q353 1637 333 1657T276 1677Q259 1677 244 1675T216 1669Q202 1665 189 1661L148 1555L56 1561L80 1735Q114 1745 152 1753Q184 1760 226 1766T313 1772Q431 1772 485 1730T529 1610Q524 1574
509 1548T473 1502T430 1469T390 1447Q415 1439 438 1426T477 1393T502 1347T506 1287Q498 1233 472 1193T403 1126T307 1086T189 1073Z" />
<glyph unicode="&#xb4;" glyph-name="acute" horiz-adv-x="910" d="M205 1307L439 1670L710 1660L700 1594L334 1265L200 1275L205 1307Z" />
<glyph unicode="&#xb5;" glyph-name="uni00B5" horiz-adv-x="1327" d="M128 1085L459 1107L537 1009L445 339Q435 267 434 222T441 151T465 116T506 106Q533 106 565 123T629 168T693 229T750 294T795 350T822 388L902 960L771 980L791 1085L1122 1107L1203 1029L1080
152L1238 118L1201 0Q1174 -7 1143 -11Q1117 -16 1084 -19T1014 -22Q947 -22 905 2T838 63T806 143T800 222Q792 209 775 186T732 136T675 81T606 30T526 -7T438 -22Q384 -22 352 -7T299 36L289 26L335 -435L42 -457L239 960L108 980L128 1085Z" />
<glyph unicode="&#xb6;" glyph-name="paragraph" horiz-adv-x="1179" d="M534 485Q441 485 357 509T213 584T122 715T108 908Q124 1020 173 1104T296 1243T465 1325T669 1353H1293L1299 1255L1142 1221L989 128Q974 24 928 -56T814 -191T659 -274T480 -302Q415
-302 363 -295T270 -278T196 -255L212 -143Q241 -152 272 -158T343 -169T431 -174Q484 -174 526 -158T601 -106T655 -11T689 133L843 1224H703L599 485H534Z" />
<glyph unicode="&#xb7;" glyph-name="middot" horiz-adv-x="722" d="M250 648Q250 685 258 718T282 776T316 817T358 832Q397 832 430 824T489 800T528 765T542 722Q542 686 534 653T510 594T475 553T433 538Q394 538 361 546T303 570T264 605T250 648Z" />
<glyph unicode="&#xb8;" glyph-name="cedilla" horiz-adv-x="872" d="M548 37L476 -105Q525 -114 563 -127T626 -162T661 -213T666 -284Q660 -323 639 -355T584 -409T502 -444T398 -457Q356 -457 319 -450T253 -433T200 -410L213 -317Q239 -328 266 -336T325 -351T386
-357Q408 -357 425 -355T455 -350Q459 -344 462 -338T468 -321T473 -297Q476 -273 472 -256T454 -225T415 -203T352 -186L326 -122L406 37H548Z" />
<glyph unicode="&#xb9;" glyph-name="onesuperior" horiz-adv-x="446" d="M366 1085H3L4 1164L108 1181L174 1648H61L64 1705L254 1762H370L288 1181L387 1164L366 1085Z" />
<glyph unicode="&#xba;" glyph-name="ordmasculine" horiz-adv-x="724" d="M319 810Q250 810 204 825T130 870T95 941T95 1036L102 1082Q113 1155 143 1210T216 1301T314 1356T428 1375Q488 1375 533 1363T606 1323T646 1252T650 1145L644 1097Q636 1036 609 984T538
893T439 832T319 810ZM479 1137Q485 1184 482 1214T469 1263T442 1288T405 1295Q390 1295 378 1293T355 1287T337 1281Q323 1258 312 1233T291 1175T275 1102L266 1043Q260 1001 263 972T278 925T305 898T342 890Q359 890 373 892T398 897T419 905Q429 925 438
949T456 1005T471 1078L479 1137Z" />
<glyph unicode="&#xbb;" glyph-name="guillemotright" horiz-adv-x="1135" d="M387 115L390 137L749 556L752 576L511 995L514 1017H699L1045 596L1036 536L572 115H387ZM40 159L43 181L265 566L152 951L155 973H340L561 584L556 548L225 159H40Z" />
<glyph unicode="&#xbc;" glyph-name="onequarter" horiz-adv-x="1555" d="M518 676H155L156 755L260 772L326 1239H213L216 1296L406 1353H522L440 772L539 755L518 676ZM1310 1353H1455L1452 1333L285 0H140L143 20L1310 1353ZM1366 0H994L995 79L1113 96L1124
171H861L859 244L1199 677H1356L1023 266H1137L1152 374H1332L1317 266H1403L1404 186L1303 169L1293 96L1387 79L1366 0Z" />
<glyph unicode="&#xbd;" glyph-name="onehalf" horiz-adv-x="1591" d="M518 676H155L156 755L260 772L326 1239H213L216 1296L406 1353H522L440 772L539 755L518 676ZM1310 1353H1455L1452 1333L285 0H140L143 20L1310 1353ZM1307 504Q1314 554 1292 573T1233
593Q1213 593 1195 590T1162 581Q1145 576 1130 569L1087 459L992 464L1016 630Q1050 646 1091 658Q1126 669 1173 678T1275 687Q1327 687 1369 677T1440 645T1482 593T1489 518Q1483 473 1454 425T1379 327T1278 226T1160 120L1161 115H1309L1365 221L1456 210L1415
0H910L922 82Q1002 152 1070 212T1189 325T1271 421T1307 504Z" />
<glyph unicode="&#xbe;" glyph-name="threequarters" horiz-adv-x="1585" d="M348 676Q308 676 271 682T204 696Q170 705 140 717L164 892L258 898L269 792Q283 785 299 781Q313 777 330 774T368 771Q410 771 443 797T484 876Q489 909 484 932T466 970T434 990T392
997H338L352 1091H408Q450 1091 474 1117T505 1194Q512 1240 492 1260T435 1280Q418 1280 403 1278T375 1272Q361 1268 348 1264L307 1158L215 1164L239 1338Q273 1348 311 1356Q343 1363 385 1369T472 1375Q590 1375 644 1333T688 1213Q683 1177 668 1151T632
1105T589 1072T549 1050Q574 1042 597 1029T636 996T661 950T665 890Q657 836 631 796T562 729T466 689T348 676ZM1340 1353H1485L1482 1333L315 0H170L173 20L1340 1353ZM1396 0H1024L1025 79L1143 96L1154 171H891L889 244L1229 677H1386L1053 266H1167L1182
374H1362L1347 266H1433L1434 186L1333 169L1323 96L1417 79L1396 0Z" />
<glyph unicode="&#xbf;" glyph-name="questiondown" horiz-adv-x="1031" d="M472 385Q518 422 537 451T560 516Q563 552 543 570T487 589Q469 589 448 584T406 573T363 558L380 659Q410 673 445 683T523 701T619 709Q679 709 724 696T800 658T843 595T850 510Q845
471 829 437T785 368T713 293T610 206L404 38Q363 5 336 -22T290 -73T263 -120T250 -170Q245 -204 252 -234T281 -287T337 -323T423 -337Q463 -337 495 -333T552 -324T598 -310L702 -80L852 -97L810 -374Q752 -398 687 -415T540 -444T360 -457Q259 -457 180 -441T49
-390T-27 -302T-41 -177Q-34 -122 -13 -76T47 18T145 118T290 239L472 385ZM852 986Q852 945 843 908T817 842T778 797T731 780Q688 780 651 790T586 816T542 855T526 903Q526 943 535 980T561 1045T600 1090T648 1107Q691 1107 728 1098T792 1072T836 1033T852
986Z" />
<glyph unicode="&#xc0;" glyph-name="Agrave" horiz-adv-x="1277" d="M320 0H-84L-92 105L18 125L631 1353H870L1127 124L1233 105L1216 0H699L691 105L828 124L774 396H337L204 123L337 105L320 0ZM636 1007L395 515H750L652 1007H636ZM863 1471L717 1460L357
1708L366 1774L649 1784L868 1503L863 1471Z" />
<glyph unicode="&#xc1;" glyph-name="Aacute" horiz-adv-x="1277" d="M320 0H-84L-92 105L18 125L631 1353H870L1127 124L1233 105L1216 0H699L691 105L828 124L774 396H337L204 123L337 105L320 0ZM636 1007L395 515H750L652 1007H636ZM620 1503L898 1784L1180
1774V1708L765 1460L620 1471V1503Z" />
<glyph unicode="&#xc2;" glyph-name="Acircumflex" horiz-adv-x="1277" d="M320 0H-84L-92 105L18 125L631 1353H870L1127 124L1233 105L1216 0H699L691 105L828 124L774 396H337L204 123L337 105L320 0ZM636 1007L395 515H750L652 1007H636ZM1132 1470L976 1460L779
1645L517 1460L394 1470L399 1502L702 1794L924 1784L1137 1502L1132 1470Z" />
<glyph unicode="&#xc3;" glyph-name="Atilde" horiz-adv-x="1277" d="M320 0H-84L-92 105L18 125L631 1353H870L1127 124L1233 105L1216 0H699L691 105L828 124L774 396H337L204 123L337 105L320 0ZM636 1007L395 515H750L652 1007H636ZM282 1523Q300 1650 376
1713T567 1777Q634 1777 700 1757T825 1711T933 1666T1019 1645Q1066 1645 1097 1674T1139 1765L1257 1775L1247 1703Q1230 1584 1159 1517T973 1449Q934 1449 891 1459T803 1483T715 1515T632 1546T561 1571T505 1581Q481 1581 461 1577T426 1562T400 1532T385
1483L275 1473L282 1523Z" />
<glyph unicode="&#xc4;" glyph-name="Adieresis" horiz-adv-x="1277" d="M320 0H-84L-92 105L18 125L631 1353H870L1127 124L1233 105L1216 0H699L691 105L828 124L774 396H337L204 123L337 105L320 0ZM636 1007L395 515H750L652 1007H636ZM368 1577Q368 1608
376 1635T399 1683T433 1716T474 1728Q505 1728 532 1720T580 1697T611 1662T623 1620Q623 1590 615 1563T592 1515T559 1482T518 1470Q486 1470 459 1478T412 1502T380 1536T368 1577ZM910 1577Q910 1608 918 1635T941 1683T974 1716T1015 1728Q1046 1728 1073
1720T1121 1697T1153 1662T1165 1620Q1165 1590 1157 1563T1134 1515T1100 1482T1058 1470Q1026 1470 999 1478T953 1502T922 1536T910 1577Z" />
<glyph unicode="&#xc5;" glyph-name="Aring" horiz-adv-x="1277" d="M320 0H-84L-92 105L18 125L631 1353H870L1127 124L1233 105L1216 0H699L691 105L828 124L774 396H337L204 123L337 105L320 0ZM636 1007L395 515H750L652 1007H636ZM545 1570Q553 1628 578
1671T640 1742T722 1785T816 1799Q860 1799 898 1790T964 1760T1004 1709T1011 1634Q1002 1573 978 1530T918 1458T837 1417T741 1404Q695 1404 657 1413T591 1443T552 1495T545 1570ZM705 1602Q698 1546 716 1517T769 1487Q783 1487 794 1488T814 1491T830 1496Q834
1508 838 1523T846 1558T853 1602Q861 1658 842 1687T788 1717Q777 1717 768 1716T752 1712T737 1708Q730 1696 725 1681T714 1647T705 1602Z" />
<glyph unicode="&#xc6;" glyph-name="AE" horiz-adv-x="1836" d="M1132 648L1058 119H1466L1571 322L1711 309L1645 0H633L628 105L758 125L798 406H400L215 121L329 105L312 0H-92L-100 105L20 125L833 1353H1806L1787 1033H1641L1601 1234H1215L1149 767H1446L1486
894L1589 874L1533 519L1426 514V648H1132ZM815 525L908 1186L478 525H815Z" />
<glyph unicode="&#xc7;" glyph-name="Ccedilla" horiz-adv-x="1218" d="M70 604Q123 985 319 1180T838 1375Q952 1375 1051 1358T1208 1316L1191 1026H1023L977 1236Q945 1246 898 1251T810 1256Q732 1256 660 1237T537 1188Q485 1073 448 945T391 683L373 550Q343
330 428 214T695 97Q788 97 892 126T1087 201L1072 105Q971 47 845 12Q748 -14 652 -20L609 -105Q658 -114 696 -127T759 -162T794 -213T799 -284Q793 -323 772 -355T717 -409T635 -444T531 -457Q489 -457 452 -450T386 -433T333 -410L346 -317Q372 -328 399 -336T458
-351T519 -357Q541 -357 558 -355T588 -350Q592 -344 595 -338T601 -321T606 -297Q609 -273 605 -256T587 -225T548 -203T485 -186L459 -122L510 -19Q268 -2 154 115Q22 252 58 515L70 604Z" />
<glyph unicode="&#xc8;" glyph-name="Egrave" horiz-adv-x="1246" d="M502 648L428 119H856L961 322L1121 309L1055 0H3L-2 105L128 125L284 1228L153 1248L173 1353H1216L1197 1033H1031L991 1234H585L519 767H836L876 894L979 874L923 519L816 514V648H502ZM856
1471L710 1460L350 1708L359 1774L642 1784L861 1503L856 1471Z" />
<glyph unicode="&#xc9;" glyph-name="Eacute" horiz-adv-x="1246" d="M502 648L428 119H856L961 322L1121 309L1055 0H3L-2 105L128 125L284 1228L153 1248L173 1353H1216L1197 1033H1031L991 1234H585L519 767H836L876 894L979 874L923 519L816 514V648H502ZM613
1503L891 1784L1173 1774V1708L758 1460L613 1471V1503Z" />
<glyph unicode="&#xca;" glyph-name="Ecircumflex" horiz-adv-x="1246" d="M502 648L428 119H856L961 322L1121 309L1055 0H3L-2 105L128 125L284 1228L153 1248L173 1353H1216L1197 1033H1031L991 1234H585L519 767H836L876 894L979 874L923 519L816 514V648H502ZM1125
1470L969 1460L772 1645L510 1460L387 1470L392 1502L695 1794L917 1784L1130 1502L1125 1470Z" />
<glyph unicode="&#xcb;" glyph-name="Edieresis" horiz-adv-x="1246" d="M502 648L428 119H856L961 322L1121 309L1055 0H3L-2 105L128 125L284 1228L153 1248L173 1353H1216L1197 1033H1031L991 1234H585L519 767H836L876 894L979 874L923 519L816 514V648H502ZM361
1577Q361 1608 369 1635T392 1683T426 1716T467 1728Q498 1728 525 1720T573 1697T604 1662T616 1620Q616 1590 608 1563T585 1515T552 1482T511 1470Q479 1470 452 1478T405 1502T373 1536T361 1577ZM903 1577Q903 1608 911 1635T934 1683T967 1716T1008 1728Q1039
1728 1066 1720T1114 1697T1146 1662T1158 1620Q1158 1590 1150 1563T1127 1515T1093 1482T1051 1470Q1019 1470 992 1478T946 1502T915 1536T903 1577Z" />
<glyph unicode="&#xcc;" glyph-name="Igrave" horiz-adv-x="705" d="M-4 105L126 125L282 1228L151 1248L171 1353H708L713 1248L582 1228L426 125L558 105L538 0H1L-4 105ZM567 1471L421 1460L61 1708L70 1774L353 1784L572 1503L567 1471Z" />
<glyph unicode="&#xcd;" glyph-name="Iacute" horiz-adv-x="705" d="M-4 105L126 125L282 1228L151 1248L171 1353H708L713 1248L582 1228L426 125L558 105L538 0H1L-4 105ZM324 1503L602 1784L884 1774V1708L469 1460L324 1471V1503Z" />
<glyph unicode="&#xce;" glyph-name="Icircumflex" horiz-adv-x="705" d="M-4 105L126 125L282 1228L151 1248L171 1353H708L713 1248L582 1228L426 125L558 105L538 0H1L-4 105ZM836 1470L680 1460L483 1645L221 1460L98 1470L103 1502L406 1794L628 1784L841
1502L836 1470Z" />
<glyph unicode="&#xcf;" glyph-name="Idieresis" horiz-adv-x="705" d="M-4 105L126 125L282 1228L151 1248L171 1353H708L713 1248L582 1228L426 125L558 105L538 0H1L-4 105ZM72 1577Q72 1608 80 1635T103 1683T137 1716T178 1728Q209 1728 236 1720T284 1697T315
1662T327 1620Q327 1590 319 1563T296 1515T263 1482T222 1470Q190 1470 163 1478T116 1502T84 1536T72 1577ZM614 1577Q614 1608 622 1635T645 1683T678 1716T719 1728Q750 1728 777 1720T825 1697T857 1662T869 1620Q869 1590 861 1563T838 1515T804 1482T762
1470Q730 1470 703 1478T657 1502T626 1536T614 1577Z" />
<glyph unicode="&#xd0;" glyph-name="Eth" horiz-adv-x="1438" d="M51 750H218L286 1228L155 1248L175 1353H771Q1111 1353 1253 1200T1352 742L1340 654Q1296 341 1109 171T628 0H5L0 105L130 125L203 640H36L51 750ZM593 119Q665 119 733 128T857 158Q914 233
964 354T1036 622L1049 716Q1086 981 1007 1107T724 1234H587L519 750H707L692 640H503L430 119H593Z" />
<glyph unicode="&#xd1;" glyph-name="Ntilde" horiz-adv-x="1549" d="M1158 1353H1586L1591 1248L1460 1228L1287 0H914L469 1120H453L312 125L444 105L424 0H-3L-8 105L122 125L278 1228L147 1248L167 1353H670L1114 235H1130L1269 1228L1138 1248L1158 1353ZM447
1523Q465 1650 541 1713T732 1777Q799 1777 865 1757T990 1711T1098 1666T1184 1645Q1231 1645 1262 1674T1304 1765L1422 1775L1412 1703Q1395 1584 1324 1517T1138 1449Q1099 1449 1056 1459T968 1483T880 1515T797 1546T726 1571T670 1581Q646 1581 626 1577T591
1562T565 1532T550 1483L440 1473L447 1523Z" />
<glyph unicode="&#xd2;" glyph-name="Ograve" horiz-adv-x="1430" d="M626 -22Q311 -22 181 115T89 525L100 604Q152 982 342 1178T861 1375Q1168 1375 1300 1237T1393 827L1382 749Q1329 370 1137 174T626 -22ZM1086 783Q1119 1022 1049 1139T810 1256Q743 1256
675 1239T557 1198Q512 1099 473 969T414 703L396 570Q367 346 442 222T668 97Q736 97 805 113T926 156Q965 242 1006 375T1068 650L1086 783ZM955 1471L809 1460L449 1708L458 1774L741 1784L960 1503L955 1471Z" />
<glyph unicode="&#xd3;" glyph-name="Oacute" horiz-adv-x="1430" d="M626 -22Q311 -22 181 115T89 525L100 604Q152 982 342 1178T861 1375Q1168 1375 1300 1237T1393 827L1382 749Q1329 370 1137 174T626 -22ZM1086 783Q1119 1022 1049 1139T810 1256Q743 1256
675 1239T557 1198Q512 1099 473 969T414 703L396 570Q367 346 442 222T668 97Q736 97 805 113T926 156Q965 242 1006 375T1068 650L1086 783ZM712 1503L990 1784L1272 1774V1708L857 1460L712 1471V1503Z" />
<glyph unicode="&#xd4;" glyph-name="Ocircumflex" horiz-adv-x="1430" d="M626 -22Q311 -22 181 115T89 525L100 604Q152 982 342 1178T861 1375Q1168 1375 1300 1237T1393 827L1382 749Q1329 370 1137 174T626 -22ZM1086 783Q1119 1022 1049 1139T810 1256Q743
1256 675 1239T557 1198Q512 1099 473 969T414 703L396 570Q367 346 442 222T668 97Q736 97 805 113T926 156Q965 242 1006 375T1068 650L1086 783ZM1224 1470L1068 1460L871 1645L609 1460L486 1470L491 1502L794 1794L1016 1784L1229 1502L1224 1470Z" />
<glyph unicode="&#xd5;" glyph-name="Otilde" horiz-adv-x="1430" d="M626 -22Q311 -22 181 115T89 525L100 604Q152 982 342 1178T861 1375Q1168 1375 1300 1237T1393 827L1382 749Q1329 370 1137 174T626 -22ZM1086 783Q1119 1022 1049 1139T810 1256Q743 1256
675 1239T557 1198Q512 1099 473 969T414 703L396 570Q367 346 442 222T668 97Q736 97 805 113T926 156Q965 242 1006 375T1068 650L1086 783ZM374 1523Q392 1650 468 1713T659 1777Q726 1777 792 1757T917 1711T1025 1666T1111 1645Q1158 1645 1189 1674T1231
1765L1349 1775L1339 1703Q1322 1584 1251 1517T1065 1449Q1026 1449 983 1459T895 1483T807 1515T724 1546T653 1571T597 1581Q573 1581 553 1577T518 1562T492 1532T477 1483L367 1473L374 1523Z" />
<glyph unicode="&#xd6;" glyph-name="Odieresis" horiz-adv-x="1430" d="M626 -22Q311 -22 181 115T89 525L100 604Q152 982 342 1178T861 1375Q1168 1375 1300 1237T1393 827L1382 749Q1329 370 1137 174T626 -22ZM1086 783Q1119 1022 1049 1139T810 1256Q743
1256 675 1239T557 1198Q512 1099 473 969T414 703L396 570Q367 346 442 222T668 97Q736 97 805 113T926 156Q965 242 1006 375T1068 650L1086 783ZM460 1577Q460 1608 468 1635T491 1683T525 1716T566 1728Q597 1728 624 1720T672 1697T703 1662T715 1620Q715
1590 707 1563T684 1515T651 1482T610 1470Q578 1470 551 1478T504 1502T472 1536T460 1577ZM1002 1577Q1002 1608 1010 1635T1033 1683T1066 1716T1107 1728Q1138 1728 1165 1720T1213 1697T1245 1662T1257 1620Q1257 1590 1249 1563T1226 1515T1192 1482T1150
1470Q1118 1470 1091 1478T1045 1502T1014 1536T1002 1577Z" />
<glyph unicode="&#xd7;" glyph-name="multiply" horiz-adv-x="1039" d="M284 978L524 737L765 978L909 834L668 593L909 353L765 209L524 449L284 209L140 353L380 593L140 834L284 978Z" />
<glyph unicode="&#xd8;" glyph-name="Oslash" horiz-adv-x="1430" d="M600 -22Q563 -22 530 -20T464 -14L386 -188H252L254 -168L335 11Q165 62 100 189T63 525L74 604Q126 981 315 1178T835 1375Q895 1375 949 1369L1026 1540H1161L1159 1520L1080 1345Q1427
1249 1367 827L1356 749Q1303 371 1111 175T600 -22ZM1060 783Q1079 927 1062 1021T1000 1169L526 121Q578 97 642 97Q699 97 745 106T829 127T900 156Q931 225 956 299T1004 463T1042 650L1060 783ZM370 570Q353 445 369 356T424 209L891 1241Q841 1256 784 1256Q730
1256 684 1247T601 1226T531 1198Q500 1130 475 1057T426 894T388 703L370 570Z" />
<glyph unicode="&#xd9;" glyph-name="Ugrave" horiz-adv-x="1452" d="M692 1248L561 1228L466 546Q435 328 493 213T707 97Q791 97 863 118T982 173Q1008 223 1036 316T1081 521L1180 1228L1049 1248L1069 1353H1497L1502 1248L1371 1228L1272 518Q1234 244 1081
111T635 -22Q352 -22 237 104T158 491L261 1228L130 1248L150 1353H687L692 1248ZM995 1471L849 1460L489 1708L498 1774L781 1784L1000 1503L995 1471Z" />
<glyph unicode="&#xda;" glyph-name="Uacute" horiz-adv-x="1452" d="M692 1248L561 1228L466 546Q435 328 493 213T707 97Q791 97 863 118T982 173Q1008 223 1036 316T1081 521L1180 1228L1049 1248L1069 1353H1497L1502 1248L1371 1228L1272 518Q1234 244 1081
111T635 -22Q352 -22 237 104T158 491L261 1228L130 1248L150 1353H687L692 1248ZM752 1503L1030 1784L1312 1774V1708L897 1460L752 1471V1503Z" />
<glyph unicode="&#xdb;" glyph-name="Ucircumflex" horiz-adv-x="1452" d="M692 1248L561 1228L466 546Q435 328 493 213T707 97Q791 97 863 118T982 173Q1008 223 1036 316T1081 521L1180 1228L1049 1248L1069 1353H1497L1502 1248L1371 1228L1272 518Q1234 244
1081 111T635 -22Q352 -22 237 104T158 491L261 1228L130 1248L150 1353H687L692 1248ZM1264 1470L1108 1460L911 1645L649 1460L526 1470L531 1502L834 1794L1056 1784L1269 1502L1264 1470Z" />
<glyph unicode="&#xdc;" glyph-name="Udieresis" horiz-adv-x="1452" d="M692 1248L561 1228L466 546Q435 328 493 213T707 97Q791 97 863 118T982 173Q1008 223 1036 316T1081 521L1180 1228L1049 1248L1069 1353H1497L1502 1248L1371 1228L1272 518Q1234 244
1081 111T635 -22Q352 -22 237 104T158 491L261 1228L130 1248L150 1353H687L692 1248ZM500 1577Q500 1608 508 1635T531 1683T565 1716T606 1728Q637 1728 664 1720T712 1697T743 1662T755 1620Q755 1590 747 1563T724 1515T691 1482T650 1470Q618 1470 591 1478T544
1502T512 1536T500 1577ZM1042 1577Q1042 1608 1050 1635T1073 1683T1106 1716T1147 1728Q1178 1728 1205 1720T1253 1697T1285 1662T1297 1620Q1297 1590 1289 1563T1266 1515T1232 1482T1190 1470Q1158 1470 1131 1478T1085 1502T1054 1536T1042 1577Z" />
<glyph unicode="&#xdd;" glyph-name="Yacute" horiz-adv-x="1162" d="M42 1353H523L534 1248L429 1233L658 770H674L1019 1234L919 1248L933 1353H1329L1340 1248L1218 1224L763 617L693 125L825 105L805 0H268L263 105L393 125L458 586L138 1226L28 1248L42 1353ZM604
1503L882 1784L1164 1774V1708L749 1460L604 1471V1503Z" />
<glyph unicode="&#xde;" glyph-name="Thorn" horiz-adv-x="1179" d="M169 1353H706L711 1248L580 1228L560 1085H681Q802 1085 892 1065T1041 1002T1122 891T1132 727Q1119 633 1072 561T956 439T801 364T624 338H454L424 125L606 105L586 0H-1L-6 105L124 125L280
1228L149 1248L169 1353ZM560 457Q603 457 637 459T695 466Q723 470 745 475Q762 505 778 540Q791 570 804 611T824 700Q843 839 788 902T599 966H543L471 457H560Z" />
<glyph unicode="&#xdf;" glyph-name="germandbls" horiz-adv-x="1296" d="M100 1085H290L299 1149Q315 1244 354 1320T457 1450T610 1533T817 1562Q911 1562 989 1543T1120 1484T1196 1386T1207 1245Q1195 1172 1169 1112T1107 1001T1028 907T937 827L1069 685Q1106
643 1141 597T1201 502T1239 399T1242 288Q1231 218 1197 161T1108 64T980 1T818 -22Q754 -22 701 -12T605 11T525 43L557 299H690L714 100Q726 97 741 95T773 90T812 88Q832 88 848 90T876 95T899 102Q908 116 915 132T930 170T942 219Q949 258 942 296T914 376T856
467T767 577L675 689L694 808Q746 860 784 908T848 1004T891 1104T913 1215Q920 1281 914 1326T891 1399T847 1439T785 1452Q759 1452 738 1449T701 1443T670 1434Q654 1401 641 1364T616 1281T595 1181L420 -47Q401 -168 364 -247T273 -373T154 -438T9 -457Q-56
-457 -109 -450T-203 -433T-280 -410L-235 -279Q-193 -294 -151 -304T-61 -322T34 -330Q52 -307 68 -273T100 -191T127 -74L275 981H86L100 1085Z" />
<glyph unicode="&#xe0;" glyph-name="agrave" horiz-adv-x="1244" d="M1108 0L778 -22L697 56L720 225Q638 109 539 44T341 -22Q181 -22 115 74T77 373L103 561Q140 813 298 960T689 1107Q783 1107 900 1086T1122 1029L996 125L1128 105L1108 0ZM380 461Q356 294
366 200T448 106Q499 106 578 185T743 393L825 982Q798 990 756 996T668 1003Q631 1003 591 995T511 973Q471 898 442 798T398 592L380 461ZM812 1275L663 1265L389 1594L399 1660L685 1670L817 1307L812 1275Z" />
<glyph unicode="&#xe1;" glyph-name="aacute" horiz-adv-x="1244" d="M1108 0L778 -22L697 56L720 225Q638 109 539 44T341 -22Q181 -22 115 74T77 373L103 561Q140 813 298 960T689 1107Q783 1107 900 1086T1122 1029L996 125L1128 105L1108 0ZM380 461Q356 294
366 200T448 106Q499 106 578 185T743 393L825 982Q798 990 756 996T668 1003Q631 1003 591 995T511 973Q471 898 442 798T398 592L380 461ZM675 1307L909 1670L1180 1660L1170 1594L804 1265L670 1275L675 1307Z" />
<glyph unicode="&#xe2;" glyph-name="acircumflex" horiz-adv-x="1244" d="M1108 0L778 -22L697 56L720 225Q638 109 539 44T341 -22Q181 -22 115 74T77 373L103 561Q140 813 298 960T689 1107Q783 1107 900 1086T1122 1029L996 125L1128 105L1108 0ZM380 461Q356
294 366 200T448 106Q499 106 578 185T743 393L825 982Q798 990 756 996T668 1003Q631 1003 591 995T511 973Q471 898 442 798T398 592L380 461ZM1068 1275L911 1265L741 1512L502 1265L379 1275L383 1307L669 1680L890 1670L1072 1307L1068 1275Z" />
<glyph unicode="&#xe3;" glyph-name="atilde" horiz-adv-x="1244" d="M1108 0L778 -22L697 56L720 225Q638 109 539 44T341 -22Q181 -22 115 74T77 373L103 561Q140 813 298 960T689 1107Q783 1107 900 1086T1122 1029L996 125L1128 105L1108 0ZM380 461Q356 294
366 200T448 106Q499 106 578 185T743 393L825 982Q798 990 756 996T668 1003Q631 1003 591 995T511 973Q471 898 442 798T398 592L380 461ZM315 1307Q333 1434 403 1497T581 1561Q639 1561 696 1541T804 1495T898 1450T973 1429Q1011 1429 1037 1458T1073 1549L1191
1559L1181 1487Q1164 1368 1099 1301T927 1233Q875 1233 816 1253T701 1299T597 1344T519 1365Q479 1365 453 1346T418 1267L308 1257L315 1307Z" />
<glyph unicode="&#xe4;" glyph-name="adieresis" horiz-adv-x="1244" d="M1108 0L778 -22L697 56L720 225Q638 109 539 44T341 -22Q181 -22 115 74T77 373L103 561Q140 813 298 960T689 1107Q783 1107 900 1086T1122 1029L996 125L1128 105L1108 0ZM380 461Q356
294 366 200T448 106Q499 106 578 185T743 393L825 982Q798 990 756 996T668 1003Q631 1003 591 995T511 973Q471 898 442 798T398 592L380 461ZM370 1389Q370 1420 378 1447T401 1495T435 1528T476 1540Q507 1540 534 1532T582 1508T613 1474T625 1432Q625 1402
617 1375T594 1327T561 1294T520 1282Q488 1282 461 1290T414 1314T382 1348T370 1389ZM850 1389Q850 1420 858 1447T881 1495T914 1528T955 1540Q986 1540 1013 1532T1061 1508T1093 1474T1105 1432Q1105 1402 1097 1375T1074 1327T1040 1294T998 1282Q966 1282
939 1290T893 1314T862 1348T850 1389Z" />
<glyph unicode="&#xe5;" glyph-name="aring" horiz-adv-x="1244" d="M1108 0L778 -22L697 56L720 225Q638 109 539 44T341 -22Q181 -22 115 74T77 373L103 561Q140 813 298 960T689 1107Q783 1107 900 1086T1122 1029L996 125L1128 105L1108 0ZM380 461Q356 294
366 200T448 106Q499 106 578 185T743 393L825 982Q798 990 756 996T668 1003Q631 1003 591 995T511 973Q471 898 442 798T398 592L380 461ZM531 1436Q540 1497 565 1542T628 1616T710 1660T804 1675Q848 1675 886 1665T951 1634T990 1580T997 1500Q988 1436 963
1391T902 1316T821 1274T725 1260Q679 1260 641 1270T576 1301T537 1356T531 1436ZM691 1468Q683 1408 701 1376T758 1343Q769 1343 779 1344T798 1347T815 1352Q820 1366 824 1382T831 1420T839 1468Q847 1528 829 1560T773 1593Q762 1593 754 1592T738 1588T724
1584Q717 1571 712 1555T701 1518T691 1468Z" />
<glyph unicode="&#xe6;" glyph-name="ae" horiz-adv-x="1605" d="M1578 802Q1569 733 1530 674T1428 573T1284 506T1106 482Q1049 482 1004 484T930 490L923 443Q910 350 923 283T968 173T1049 109T1153 88Q1206 88 1258 102T1355 134T1445 178V72Q1403 45 1352
26T1235 -7T1085 -22Q940 -22 850 24T715 155Q692 134 653 104T560 46T439 -2T294 -22Q224 -22 168 -5T75 45T21 129T14 244Q25 323 70 388T200 501T409 575T705 602L719 702Q731 786 722 842T688 933T626 982T545 997Q516 997 487 995T433 989T382 982L292 750H165L205
1053Q254 1068 310 1079T435 1098T586 1107Q709 1107 793 1080T923 990Q994 1049 1079 1078T1259 1107Q1344 1107 1409 1089T1515 1034T1572 939T1578 802ZM408 88Q447 88 492 108T577 155T647 204T685 235Q666 321 681 429L690 492Q600 491 539 483T435 465T363
438Q350 417 340 392T321 335T307 263Q296 171 322 130T408 88ZM1095 968Q1063 923 1037 870T985 748T945 592Q961 591 983 590T1029 588T1078 587T1128 586Q1153 586 1174 588T1211 594T1241 603Q1252 625 1263 653Q1272 677 1282 711T1298 791Q1306 851 1305
891T1292 954T1259 987T1208 997Q1185 997 1165 992T1128 982T1095 968Z" />
<glyph unicode="&#xe7;" glyph-name="ccedilla" horiz-adv-x="965" d="M929 798L803 788V983Q769 990 733 993T664 997Q630 997 590 989T505 962Q460 879 429 778T380 562L364 443Q339 273 374 181T558 88Q623 88 700 113T845 178V72Q765 26 667 2Q611 -11 555
-17L511 -105Q560 -114 598 -127T661 -162T696 -213T701 -284Q695 -323 674 -355T619 -409T537 -444T433 -457Q391 -457 354 -450T288 -433T235 -410L248 -317Q274 -328 301 -336T360 -351T421 -357Q443 -357 460 -355T490 -350Q494 -344 497 -338T503 -321T508
-297Q511 -273 507 -256T489 -225T450 -203T387 -186L361 -122L412 -20Q226 -7 139 90Q39 202 72 429L85 522Q125 802 290 954T686 1107Q770 1107 850 1093T985 1055L929 798Z" />
<glyph unicode="&#xe8;" glyph-name="egrave" horiz-adv-x="1023" d="M1007 824Q984 663 855 573T519 482Q479 482 440 485T373 494L366 443Q341 270 386 179T565 88Q626 88 705 111T868 178V72Q787 27 685 3T478 -22Q238 -22 141 92T74 429L87 522Q127 799 281
953T664 1107Q849 1107 937 1037T1007 824ZM498 968Q464 893 436 799T388 596Q425 592 464 589T534 586Q563 586 589 589T634 599Q662 640 682 691T712 802Q726 906 703 951T615 997Q586 997 557 990T498 968ZM775 1275L626 1265L352 1594L362 1660L648 1670L780
1307L775 1275Z" />
<glyph unicode="&#xe9;" glyph-name="eacute" horiz-adv-x="1023" d="M1007 824Q984 663 855 573T519 482Q479 482 440 485T373 494L366 443Q341 270 386 179T565 88Q626 88 705 111T868 178V72Q787 27 685 3T478 -22Q238 -22 141 92T74 429L87 522Q127 799 281
953T664 1107Q849 1107 937 1037T1007 824ZM498 968Q464 893 436 799T388 596Q425 592 464 589T534 586Q563 586 589 589T634 599Q662 640 682 691T712 802Q726 906 703 951T615 997Q586 997 557 990T498 968ZM638 1307L872 1670L1143 1660L1133 1594L767 1265L633
1275L638 1307Z" />
<glyph unicode="&#xea;" glyph-name="ecircumflex" horiz-adv-x="1023" d="M1007 824Q984 663 855 573T519 482Q479 482 440 485T373 494L366 443Q341 270 386 179T565 88Q626 88 705 111T868 178V72Q787 27 685 3T478 -22Q238 -22 141 92T74 429L87 522Q127 799
281 953T664 1107Q849 1107 937 1037T1007 824ZM498 968Q464 893 436 799T388 596Q425 592 464 589T534 586Q563 586 589 589T634 599Q662 640 682 691T712 802Q726 906 703 951T615 997Q586 997 557 990T498 968ZM1031 1275L874 1265L704 1512L465 1265L342 1275L346
1307L632 1680L853 1670L1035 1307L1031 1275Z" />
<glyph unicode="&#xeb;" glyph-name="edieresis" horiz-adv-x="1023" d="M1007 824Q984 663 855 573T519 482Q479 482 440 485T373 494L366 443Q341 270 386 179T565 88Q626 88 705 111T868 178V72Q787 27 685 3T478 -22Q238 -22 141 92T74 429L87 522Q127 799
281 953T664 1107Q849 1107 937 1037T1007 824ZM498 968Q464 893 436 799T388 596Q425 592 464 589T534 586Q563 586 589 589T634 599Q662 640 682 691T712 802Q726 906 703 951T615 997Q586 997 557 990T498 968ZM333 1389Q333 1420 341 1447T364 1495T398 1528T439
1540Q470 1540 497 1532T545 1508T576 1474T588 1432Q588 1402 580 1375T557 1327T524 1294T483 1282Q451 1282 424 1290T377 1314T345 1348T333 1389ZM813 1389Q813 1420 821 1447T844 1495T877 1528T918 1540Q949 1540 976 1532T1024 1508T1056 1474T1068 1432Q1068
1402 1060 1375T1037 1327T1003 1294T961 1282Q929 1282 902 1290T856 1314T825 1348T813 1389Z" />
<glyph unicode="&#xec;" glyph-name="igrave" horiz-adv-x="704" d="M156 1085L487 1107L568 1029L442 125L573 105L553 0L223 -22L142 56L267 960L136 980L156 1085ZM475 1275L326 1265L52 1594L62 1660L348 1670L480 1307L475 1275Z" />
<glyph unicode="&#xed;" glyph-name="iacute" horiz-adv-x="704" d="M156 1085L487 1107L568 1029L442 125L573 105L553 0L223 -22L142 56L267 960L136 980L156 1085ZM337 1307L571 1670L842 1660L832 1594L466 1265L332 1275L337 1307Z" />
<glyph unicode="&#xee;" glyph-name="icircumflex" horiz-adv-x="704" d="M156 1085L487 1107L568 1029L442 125L573 105L553 0L223 -22L142 56L267 960L136 980L156 1085ZM987 1275L830 1265L660 1512L421 1265L298 1275L302 1307L588 1680L809 1670L991 1307L987 1275Z" />
<glyph unicode="&#xef;" glyph-name="idieresis" horiz-adv-x="704" d="M156 1085L487 1107L568 1029L442 125L573 105L553 0L223 -22L142 56L267 960L136 980L156 1085ZM289 1389Q289 1420 297 1447T320 1495T354 1528T395 1540Q426 1540 453 1532T501 1508T532
1474T544 1432Q544 1402 536 1375T513 1327T480 1294T439 1282Q407 1282 380 1290T333 1314T301 1348T289 1389ZM769 1389Q769 1420 777 1447T800 1495T833 1528T874 1540Q905 1540 932 1532T980 1508T1012 1474T1024 1432Q1024 1402 1016 1375T993 1327T959 1294T917
1282Q885 1282 858 1290T812 1314T781 1348T769 1389Z" />
<glyph unicode="&#xf0;" glyph-name="eth" horiz-adv-x="1169" d="M397 1279L628 1381Q583 1423 534 1459T432 1530L574 1562Q687 1515 779 1449L1029 1560L1062 1457L871 1372Q945 1301 995 1218T1074 1043T1108 851T1101 647L1088 552Q1071 431 1019 326T887
144T702 23T478 -22Q353 -22 268 8T133 97T70 239T71 429L85 522Q107 667 162 777T298 960T478 1070T688 1107Q712 1107 735 1104T778 1096T818 1085Q802 1145 774 1197T706 1298L430 1175L397 1279ZM809 632Q824 742 818 812T791 924T734 981T656 997Q628 997
603 992T557 982T515 968Q487 919 463 861T416 729T380 562L363 443Q349 342 356 274T385 165T441 106T515 88Q543 88 569 92T617 103T659 118Q687 162 711 217T757 345T793 513L809 632Z" />
<glyph unicode="&#xf1;" glyph-name="ntilde" horiz-adv-x="1362" d="M1214 0L884 -22L803 56L896 731Q915 861 907 920T855 979Q800 979 714 908T518 692L418 -22L132 0L264 960L133 980L153 1085L484 1107L565 1029L541 859Q635 977 745 1042T964 1107Q1111
1107 1165 1036T1198 819L1103 125L1234 105L1214 0ZM408 1307Q426 1434 496 1497T674 1561Q732 1561 789 1541T897 1495T991 1450T1066 1429Q1104 1429 1130 1458T1166 1549L1284 1559L1274 1487Q1257 1368 1192 1301T1020 1233Q968 1233 909 1253T794 1299T690
1344T612 1365Q572 1365 546 1346T511 1267L401 1257L408 1307Z" />
<glyph unicode="&#xf2;" glyph-name="ograve" horiz-adv-x="1167" d="M476 -22Q243 -22 141 88T70 429L83 522Q124 801 290 954T694 1107Q933 1107 1032 993T1099 647L1086 552Q1048 294 876 136T476 -22ZM807 632Q832 809 799 903T662 997Q626 997 587 990T513
968Q463 880 429 775T378 562L361 443Q337 264 377 176T508 88Q545 88 584 96T657 118Q706 194 741 298T791 513L807 632ZM824 1275L675 1265L401 1594L411 1660L697 1670L829 1307L824 1275Z" />
<glyph unicode="&#xf3;" glyph-name="oacute" horiz-adv-x="1167" d="M476 -22Q243 -22 141 88T70 429L83 522Q124 801 290 954T694 1107Q933 1107 1032 993T1099 647L1086 552Q1048 294 876 136T476 -22ZM807 632Q832 809 799 903T662 997Q626 997 587 990T513
968Q463 880 429 775T378 562L361 443Q337 264 377 176T508 88Q545 88 584 96T657 118Q706 194 741 298T791 513L807 632ZM687 1307L921 1670L1192 1660L1182 1594L816 1265L682 1275L687 1307Z" />
<glyph unicode="&#xf4;" glyph-name="ocircumflex" horiz-adv-x="1167" d="M476 -22Q243 -22 141 88T70 429L83 522Q124 801 290 954T694 1107Q933 1107 1032 993T1099 647L1086 552Q1048 294 876 136T476 -22ZM807 632Q832 809 799 903T662 997Q626 997 587 990T513
968Q463 880 429 775T378 562L361 443Q337 264 377 176T508 88Q545 88 584 96T657 118Q706 194 741 298T791 513L807 632ZM1080 1275L923 1265L753 1512L514 1265L391 1275L395 1307L681 1680L902 1670L1084 1307L1080 1275Z" />
<glyph unicode="&#xf5;" glyph-name="otilde" horiz-adv-x="1167" d="M476 -22Q243 -22 141 88T70 429L83 522Q124 801 290 954T694 1107Q933 1107 1032 993T1099 647L1086 552Q1048 294 876 136T476 -22ZM807 632Q832 809 799 903T662 997Q626 997 587 990T513
968Q463 880 429 775T378 562L361 443Q337 264 377 176T508 88Q545 88 584 96T657 118Q706 194 741 298T791 513L807 632ZM327 1307Q345 1434 415 1497T593 1561Q651 1561 708 1541T816 1495T910 1450T985 1429Q1023 1429 1049 1458T1085 1549L1203 1559L1193 1487Q1176
1368 1111 1301T939 1233Q887 1233 828 1253T713 1299T609 1344T531 1365Q491 1365 465 1346T430 1267L320 1257L327 1307Z" />
<glyph unicode="&#xf6;" glyph-name="odieresis" horiz-adv-x="1167" d="M476 -22Q243 -22 141 88T70 429L83 522Q124 801 290 954T694 1107Q933 1107 1032 993T1099 647L1086 552Q1048 294 876 136T476 -22ZM807 632Q832 809 799 903T662 997Q626 997 587 990T513
968Q463 880 429 775T378 562L361 443Q337 264 377 176T508 88Q545 88 584 96T657 118Q706 194 741 298T791 513L807 632ZM382 1389Q382 1420 390 1447T413 1495T447 1528T488 1540Q519 1540 546 1532T594 1508T625 1474T637 1432Q637 1402 629 1375T606 1327T573
1294T532 1282Q500 1282 473 1290T426 1314T394 1348T382 1389ZM862 1389Q862 1420 870 1447T893 1495T926 1528T967 1540Q998 1540 1025 1532T1073 1508T1105 1474T1117 1432Q1117 1402 1109 1375T1086 1327T1052 1294T1010 1282Q978 1282 951 1290T905 1314T874
1348T862 1389Z" />
<glyph unicode="&#xf7;" glyph-name="divide" horiz-adv-x="1183" d="M150 687H1043V500H150V687ZM475 176Q475 209 482 239T503 292T534 328T572 342Q607 342 637 334T689 313T724 281T737 242Q737 210 730 181T709 129T677 93T638 79Q604 79 574 86T522 107T488
138T475 176ZM475 941Q475 974 483 1004T504 1057T534 1093T572 1107Q607 1107 637 1099T689 1078T724 1046T737 1007Q737 975 729 946T708 894T676 858T638 844Q604 844 574 851T522 872T488 903T475 941Z" />
<glyph unicode="&#xf8;" glyph-name="oslash" horiz-adv-x="1167" d="M476 -22Q453 -22 432 -21T391 -18L314 -188H180L182 -168L262 10Q137 56 92 163T70 429L83 522Q103 668 159 777T296 960T479 1070T694 1107Q711 1107 726 1107T757 1105L830 1265H965L963
1245L889 1081Q950 1062 995 1027T1068 939T1103 813T1099 647L1086 552Q1069 431 1017 326T885 144T700 23T476 -22ZM807 632Q819 722 817 785T802 890L445 101Q459 94 475 91T508 88Q539 88 566 92T616 103T657 118Q685 162 709 217T755 345T791 513L807 632ZM361
443Q350 373 351 320T360 227L706 992Q683 997 662 997Q630 997 603 992T554 982T513 968Q485 919 461 861T414 729T378 562L361 443Z" />
<glyph unicode="&#xf9;" glyph-name="ugrave" horiz-adv-x="1344" d="M807 1085L1138 1107L1219 1029L1093 125L1224 105L1204 0L874 -22L793 56L816 223Q728 109 614 44T381 -22Q243 -22 192 50T161 266L256 960L124 980L144 1085L475 1107L553 1009L461 339Q445
220 453 163T513 106Q577 106 662 179T839 390L918 960L787 980L807 1085ZM820 1275L671 1265L397 1594L407 1660L693 1670L825 1307L820 1275Z" />
<glyph unicode="&#xfa;" glyph-name="uacute" horiz-adv-x="1344" d="M807 1085L1138 1107L1219 1029L1093 125L1224 105L1204 0L874 -22L793 56L816 223Q728 109 614 44T381 -22Q243 -22 192 50T161 266L256 960L124 980L144 1085L475 1107L553 1009L461 339Q445
220 453 163T513 106Q577 106 662 179T839 390L918 960L787 980L807 1085ZM683 1307L917 1670L1188 1660L1178 1594L812 1265L678 1275L683 1307Z" />
<glyph unicode="&#xfb;" glyph-name="ucircumflex" horiz-adv-x="1344" d="M807 1085L1138 1107L1219 1029L1093 125L1224 105L1204 0L874 -22L793 56L816 223Q728 109 614 44T381 -22Q243 -22 192 50T161 266L256 960L124 980L144 1085L475 1107L553 1009L461
339Q445 220 453 163T513 106Q577 106 662 179T839 390L918 960L787 980L807 1085ZM1076 1275L919 1265L749 1512L510 1265L387 1275L391 1307L677 1680L898 1670L1080 1307L1076 1275Z" />
<glyph unicode="&#xfc;" glyph-name="udieresis" horiz-adv-x="1344" d="M807 1085L1138 1107L1219 1029L1093 125L1224 105L1204 0L874 -22L793 56L816 223Q728 109 614 44T381 -22Q243 -22 192 50T161 266L256 960L124 980L144 1085L475 1107L553 1009L461 339Q445
220 453 163T513 106Q577 106 662 179T839 390L918 960L787 980L807 1085ZM378 1389Q378 1420 386 1447T409 1495T443 1528T484 1540Q515 1540 542 1532T590 1508T621 1474T633 1432Q633 1402 625 1375T602 1327T569 1294T528 1282Q496 1282 469 1290T422 1314T390
1348T378 1389ZM858 1389Q858 1420 866 1447T889 1495T922 1528T963 1540Q994 1540 1021 1532T1069 1508T1101 1474T1113 1432Q1113 1402 1105 1375T1082 1327T1048 1294T1006 1282Q974 1282 947 1290T901 1314T870 1348T858 1389Z" />
<glyph unicode="&#xfd;" glyph-name="yacute" horiz-adv-x="1283" d="M146 1085L477 1107L558 1029L463 334Q447 216 453 161T509 106Q564 106 649 178T842 391L921 960L789 980L809 1085L1140 1107L1221 1029L1095 129Q1051 -147 894 -302T522 -457Q420 -457
306 -434T86 -367L128 -187Q278 -249 409 -283T632 -317Q686 -271 731 -169T800 89L818 223Q740 113 627 46T391 -22Q248 -22 195 49T163 266L258 960L126 980L146 1085ZM685 1307L919 1670L1190 1660L1180 1594L814 1265L680 1275L685 1307Z" />
<glyph unicode="&#xfe;" glyph-name="thorn" horiz-adv-x="1216" d="M174 1540L504 1562L585 1484L497 860Q505 871 522 893T564 943T623 1000T697 1053T784 1092T883 1107Q961 1107 1016 1086T1104 1019T1146 897T1141 712L1115 524Q1100 411 1055 312T936 139T762
21T536 -22Q495 -22 455 -19T376 -9L334 -310L466 -330L446 -435H-81L-86 -330L44 -310L285 1415L153 1435L174 1540ZM839 624Q854 732 856 801T850 909T823 964T779 979Q745 979 711 960T644 910T582 845T530 777T493 720T474 690L391 95Q395 94 408 92T443 88T491
84T549 82Q584 82 613 86T667 97T714 112Q735 157 753 211T790 335T821 493L839 624Z" />
<glyph unicode="&#xff;" glyph-name="ydieresis" horiz-adv-x="1283" d="M146 1085L477 1107L558 1029L463 334Q447 216 453 161T509 106Q564 106 649 178T842 391L921 960L789 980L809 1085L1140 1107L1221 1029L1095 129Q1051 -147 894 -302T522 -457Q420 -457
306 -434T86 -367L128 -187Q278 -249 409 -283T632 -317Q686 -271 731 -169T800 89L818 223Q740 113 627 46T391 -22Q248 -22 195 49T163 266L258 960L126 980L146 1085ZM380 1389Q380 1420 388 1447T411 1495T445 1528T486 1540Q517 1540 544 1532T592 1508T623
1474T635 1432Q635 1402 627 1375T604 1327T571 1294T530 1282Q498 1282 471 1290T424 1314T392 1348T380 1389ZM860 1389Q860 1420 868 1447T891 1495T924 1528T965 1540Q996 1540 1023 1532T1071 1508T1103 1474T1115 1432Q1115 1402 1107 1375T1084 1327T1050
1294T1008 1282Q976 1282 949 1290T903 1314T872 1348T860 1389Z" />
<glyph unicode="&#x2013;" glyph-name="endash" horiz-adv-x="1121" d="M60 665H1081L1061 489H40L60 665Z" />
<glyph unicode="&#x2014;" glyph-name="emdash" horiz-adv-x="2115" d="M60 665H2075L2055 489H40L60 665Z" />
<glyph unicode="&#x2018;" glyph-name="quoteleft" horiz-adv-x="587" d="M575 1028Q569 986 554 949T518 883T473 838T423 821Q376 821 328 835T252 885Q244 896 237 911T226 949T221 1003T226 1076Q234 1136 251 1192T303 1307T398 1427T551 1562L619 1466Q562
1423 522 1386T456 1315T417 1253T401 1199Q397 1175 414 1163T459 1142Q516 1127 548 1097T575 1028Z" />
<glyph unicode="&#x2019;" glyph-name="quoteright" horiz-adv-x="726" d="M150 1355Q156 1397 171 1434T207 1500T252 1545T302 1562Q349 1562 397 1548T473 1498Q481 1487 488 1472T500 1434T505 1380T500 1307Q491 1247 474 1191T422 1076T327 956T174 821L106
917Q163 960 203 997T269 1068T308 1130T324 1184Q328 1208 311 1220T266 1241Q209 1256 177 1286T150 1355Z" />
<glyph unicode="&#x201a;" glyph-name="quotesinglbase" horiz-adv-x="648" d="M72 98Q78 140 93 177T129 243T174 288T224 305Q271 305 319 291T395 241Q403 230 410 215T422 177T427 123T422 50Q413 -10 396 -66T344 -181T249 -301T96 -436L28 -340Q85 -297
125 -260T191 -189T230 -127T246 -73Q250 -49 233 -37T188 -16Q131 -1 99 29T72 98Z" />
<glyph unicode="&#x201c;" glyph-name="quotedblleft" horiz-adv-x="1003" d="M575 1028Q569 986 554 949T518 883T473 838T423 821Q400 821 376 824T329 835T286 855T253 885Q245 896 238 911T226 949T221 1003T226 1076Q235 1136 251 1192T303 1307T398 1427T551
1562L619 1466Q562 1423 522 1386T456 1315T417 1253T401 1199Q397 1175 414 1163T459 1142Q516 1127 548 1097T575 1028ZM991 1028Q985 986 970 949T934 883T889 838T839 821Q792 821 744 835T668 885Q660 896 653 911T641 949T636 1003T641 1076Q650 1136 667
1192T719 1307T814 1427T967 1562L1035 1466Q978 1423 938 1386T872 1315T833 1253T817 1199Q813 1175 830 1163T875 1142Q932 1127 964 1097T991 1028Z" />
<glyph unicode="&#x201d;" glyph-name="quotedblright" horiz-adv-x="1141" d="M149 1355Q155 1397 170 1434T206 1500T251 1545T301 1562Q348 1562 396 1548T472 1498Q480 1487 487 1472T499 1434T504 1380T499 1307Q490 1247 473 1191T421 1076T326 956T173
821L106 917Q163 960 203 997T268 1068T307 1130T323 1184Q327 1208 310 1220T265 1241Q208 1256 176 1286T149 1355ZM565 1355Q571 1397 586 1434T622 1500T667 1545T717 1562Q764 1562 812 1548T888 1498Q896 1487 903 1472T915 1434T920 1380T915 1307Q906 1247
889 1191T837 1076T742 956T589 821L521 917Q578 960 618 997T684 1068T723 1130T739 1184Q743 1208 726 1220T681 1241Q624 1256 592 1286T565 1355Z" />
<glyph unicode="&#x201e;" glyph-name="quotedblbase" horiz-adv-x="1064" d="M72 98Q78 140 93 177T129 243T174 288T224 305Q271 305 319 291T395 241Q403 230 410 215T422 177T427 123T422 50Q413 -10 396 -66T344 -181T249 -301T96 -436L28 -340Q85 -297 125
-260T191 -189T230 -127T246 -73Q250 -49 233 -37T188 -16Q131 -1 99 29T72 98ZM488 98Q494 140 509 177T545 243T590 288T640 305Q687 305 735 291T811 241Q819 230 826 215T838 177T843 123T838 50Q829 -10 812 -66T760 -181T665 -301T512 -436L444 -340Q501
-297 541 -260T607 -189T646 -127T662 -73Q666 -49 649 -37T604 -16Q547 -1 515 29T488 98Z" />
<glyph unicode="&#x2022;" glyph-name="bullet" horiz-adv-x="921" d="M210 577Q210 642 225 701T266 806T328 877T403 904Q472 904 531 889T633 847T702 785T727 709Q727 644 712 586T671 483T609 412T534 385Q466 385 407 400T304 441T235 503T210 577Z" />
<glyph unicode="&#x2039;" glyph-name="guilsinglleft" horiz-adv-x="788" d="M436 115L90 536L99 596L563 1017H748L745 995L386 576L383 556L624 137L621 115H436Z" />
<glyph unicode="&#x203a;" glyph-name="guilsinglright" horiz-adv-x="788" d="M40 115L43 137L402 556L405 576L164 995L167 1017H352L698 596L689 536L225 115H40Z" />
</font>
</defs>
</svg>
