<svg width="150" height="193" viewBox="0 0 150 193" version="1.1" xmlns="http://www.w3.org/2000/svg" xmlns:xlink="http://www.w3.org/1999/xlink">
<title>Component</title>
<desc>Created using Figma</desc>
<g id="Canvas" transform="translate(225 4070)">
<g id="Component">
<g id="Group">
<g id="Polygon">
<mask id="mask0_outline_ins">
<use xlink:href="#path0_fill" fill="white" transform="matrix(-0.494092 0.86941 -0.87004 -0.492981 -106.174 -4038.68)"/>
</mask>
<g mask="url(#mask0_outline_ins)">
<use xlink:href="#path1_stroke_2x" transform="matrix(-0.494092 0.86941 -0.87004 -0.492981 -106.174 -4038.68)" fill="#2D2D2D"/>
</g>
</g>
<g id="Polygon">
<mask id="mask1_outline_ins">
<use xlink:href="#path2_fill" fill="white" transform="matrix(-0.494092 0.86941 -0.87004 -0.492981 -137.228 -3982.97)"/>
</mask>
<g mask="url(#mask1_outline_ins)">
<use xlink:href="#path3_stroke_2x" transform="matrix(-0.494092 0.86941 -0.87004 -0.492981 -137.228 -3982.97)" fill="#2D2D2D"/>
</g>
</g>
<g id="Polygon">
<mask id="mask2_outline_ins">
<use xlink:href="#path2_fill" fill="white" transform="matrix(-0.494092 0.86941 -0.87004 -0.492981 -74.2282 -3982.97)"/>
</mask>
<g mask="url(#mask2_outline_ins)">
<use xlink:href="#path3_stroke_2x" transform="matrix(-0.494092 0.86941 -0.87004 -0.492981 -74.2282 -3982.97)" fill="#2D2D2D"/>
</g>
</g>
</g>
</g>
</g>
<defs>
<path id="path0_fill" d="M 31.3041 0.867143C 32.2328 0.330606 33.3772 0.330606 34.3058 0.867143L 59.7157 15.5484C 60.6435 16.0844 61.2149 17.0745 61.2149 18.146L 61.2149 47.5123C 61.2149 48.5838 60.6435 49.5739 59.7157 50.1099L 34.3058 64.7912C 33.3772 65.3277 32.2328 65.3277 31.3041 64.7912L 5.8942 50.1099C 4.96647 49.5739 4.39503 48.5838 4.39503 47.5123L 4.39503 18.146C 4.39503 17.0745 4.96647 16.0844 5.8942 15.5484L 31.3041 0.867143Z"/>
<path id="path1_stroke_2x" d="M 5.8942 15.5484L 0.891441 6.88973L 5.8942 15.5484ZM 5.8942 50.1099L 0.891441 58.7686L 5.8942 50.1099ZM 34.3058 64.7912L 29.303 56.1325L 34.3058 64.7912ZM 31.3041 64.7912L 36.3069 56.1325L 31.3041 64.7912ZM 59.7157 50.1099L 64.7185 58.7686L 59.7157 50.1099ZM 59.7157 15.5484L 64.7185 6.88973L 59.7157 15.5484ZM 34.3058 0.867143L 29.303 9.5258L 34.3058 0.867143ZM 29.303 9.5258L 54.713 24.207L 64.7185 6.88973L 39.3086 -7.79152L 29.303 9.5258ZM 51.2149 18.146L 51.2149 47.5123L 71.2149 47.5123L 71.2149 18.146L 51.2149 18.146ZM 54.713 41.4513L 29.303 56.1325L 39.3086 73.4498L 64.7185 58.7686L 54.713 41.4513ZM 36.3069 56.1325L 10.897 41.4513L 0.891441 58.7686L 26.3014 73.4498L 36.3069 56.1325ZM 14.395 47.5123L 14.395 18.146L -5.60497 18.146L -5.60497 47.5123L 14.395 47.5123ZM 10.897 24.207L 36.3069 9.5258L 26.3014 -7.79152L 0.891441 6.88973L 10.897 24.207ZM 14.395 18.146C 14.395 20.646 13.0617 22.9563 10.897 24.207L 0.891441 6.88973C -3.12875 9.2125 -5.60497 13.503 -5.60497 18.146L 14.395 18.146ZM 10.897 41.4513C 13.0617 42.702 14.395 45.0123 14.395 47.5123L -5.60497 47.5123C -5.60497 52.1553 -3.12875 56.4458 0.891441 58.7686L 10.897 41.4513ZM 29.303 56.1325C 31.4698 54.8806 34.1401 54.8806 36.3069 56.1325L 26.3014 73.4498C 30.3254 75.7748 35.2845 75.7748 39.3086 73.4498L 29.303 56.1325ZM 51.2149 47.5123C 51.2149 45.0123 52.5483 42.702 54.713 41.4513L 64.7185 58.7686C 68.7387 56.4458 71.2149 52.1553 71.2149 47.5123L 51.2149 47.5123ZM 54.713 24.207C 52.5483 22.9563 51.2149 20.646 51.2149 18.146L 71.2149 18.146C 71.2149 13.503 68.7387 9.2125 64.7185 6.88973L 54.713 24.207ZM 39.3086 -7.79152C 35.2845 -10.1165 30.3254 -10.1165 26.3014 -7.79152L 36.3069 9.5258C 34.1401 10.7777 31.4698 10.7777 29.303 9.5258L 39.3086 -7.79152Z"/>
<path id="path2_fill" d="M 31.3041 0.867143C 32.2328 0.330606 33.3772 0.330606 34.3058 0.867143L 59.7157 15.5484C 60.6435 16.0844 61.2149 17.0745 61.2149 18.146L 61.2149 47.5123C 61.2149 48.5838 60.6435 49.5739 59.7157 50.1099L 34.3058 64.7912C 33.3772 65.3277 32.2328 65.3277 31.3041 64.7912L 5.8942 50.1099C 4.96647 49.5739 4.39503 48.5838 4.39503 47.5123L 4.39503 18.146C 4.39503 17.0745 4.96647 16.0844 5.8942 15.5484L 31.3041 0.867143Z"/>
<path id="path3_stroke_2x" d="M 5.8942 50.1099L 0.891441 58.7686L 5.8942 50.1099ZM 34.3058 64.7912L 39.3086 73.4498L 34.3058 64.7912ZM 31.3041 64.7912L 36.3069 56.1325L 31.3041 64.7912ZM 59.7157 50.1099L 54.713 41.4513L 54.713 41.4513L 59.7157 50.1099ZM 59.7157 15.5484L 54.713 24.2071L 59.7157 15.5484ZM 34.3058 0.867143L 29.303 9.5258L 34.3058 0.867143ZM 31.3041 0.867143L 26.3014 -7.79152L 31.3041 0.867143ZM 29.303 9.5258L 54.713 24.2071L 64.7185 6.88973L 39.3086 -7.79152L 29.303 9.5258ZM 51.2149 18.146L 51.2149 47.5123L 71.2149 47.5123L 71.2149 18.146L 51.2149 18.146ZM 54.713 41.4513L 29.303 56.1325L 39.3086 73.4498L 64.7185 58.7686L 54.713 41.4513ZM 36.3069 56.1325L 10.897 41.4513L 0.891441 58.7686L 26.3014 73.4498L 36.3069 56.1325ZM 14.395 47.5123L 14.395 18.146L -5.60497 18.146L -5.60497 47.5123L 14.395 47.5123ZM 10.897 24.2071L 36.3069 9.5258L 26.3014 -7.79152L 0.891441 6.88973L 10.897 24.2071ZM 14.395 18.146C 14.395 20.646 13.0617 22.9563 10.897 24.2071L 0.891441 6.88973C -3.12875 9.21251 -5.60497 13.503 -5.60497 18.146L 14.395 18.146ZM 10.897 41.4513C 13.0617 42.702 14.395 45.0123 14.395 47.5123L -5.60497 47.5123C -5.60497 52.1553 -3.12875 56.4458 0.891441 58.7686L 10.897 41.4513ZM 29.303 56.1325C 31.4698 54.8806 34.1401 54.8806 36.3069 56.1325L 26.3014 73.4498C 30.3254 75.7748 35.2845 75.7748 39.3086 73.4498L 29.303 56.1325ZM 51.2149 47.5123C 51.2149 45.0123 52.5483 42.702 54.713 41.4513L 64.7185 58.7686C 68.7387 56.4458 71.2149 52.1553 71.2149 47.5123L 51.2149 47.5123ZM 54.713 24.2071C 52.5483 22.9563 51.2149 20.6461 51.2149 18.146L 71.2149 18.146C 71.2149 13.503 68.7387 9.2125 64.7185 6.88973L 54.713 24.2071ZM 39.3086 -7.79152C 35.2845 -10.1165 30.3254 -10.1165 26.3014 -7.79152L 36.3069 9.5258C 34.1401 10.7777 31.4698 10.7777 29.303 9.5258L 39.3086 -7.79152Z"/>
</defs>
</svg>
