<svg id="Layer_1" data-name="Layer 1" xmlns="http://www.w3.org/2000/svg" viewBox="0 0 130 32"><defs><style>.cls-1{fill:#fff;}.cls-1,.cls-2{fill-rule:evenodd;}.cls-2{fill:#bbc3e3;}</style></defs><title>lsst_inverted_logo</title><path class="cls-1" d="M88,.56s-10,0-10.46,0-1.14.06-1.71.12a27.79,27.79,0,0,0-3.2.49A30.36,30.36,0,0,0,69.56,2a15.73,15.73,0,0,0-1.48.58,1,1,0,0,1-.6.12c-.17,0-1.88-.41-2.54-.52s-1.47-.24-2.21-.38c-1.42-.27-2.85-.54-4.28-.78C56.52.7,54.57.43,52.61.27S48.68.06,46.71,0a75.65,75.65,0,0,0-11.4.49,4.87,4.87,0,0,1-.63.09c-1.32.19-2.59.43-3.86.67-.15,0-2,.42-2.73.66a26.06,26.06,0,0,0-2.71,1.27C23.11,4.39,21,6.13,20.44,8.75c-.5,2.25.18,5.13,2.45,6.14a10.4,10.4,0,0,0,1.6.81c.48.23,1.89.81,2.08.88s4.79,1.3,5,1.36,2.66.58,3.41.77a25.05,25.05,0,0,1,3.71,1.11c1,.41,2.26,1.12,2.3,2.35s-1,1.86-1.82,2.39a13.61,13.61,0,0,1-2.16.63,16,16,0,0,1-2.78.13l-5.38.07-6.09,0h-4c-.07,0-5.81,0-8.44-.09.3-.8,3.2-8.73,3.37-9.19C14.12,15.13,18.64,2,19.27,1h-8C7.53,11,3.81,21,.14,32H3.28c.12,0,12.14-.29,17.74-.29.11,0,7.32-.19,10.78-.18s6.76.26,10.11-.31l1.89-.35a20.16,20.16,0,0,0,3.4-1c.47-.17.93-.37,1.39-.59a1.55,1.55,0,0,1,1.07-.24c2.36.6,4.69,1.26,7.08,1.71.15,0,5.94,1,6.15.9,1.16.12,4,.3,4.09.27,1.81,0,3.63.09,5.44,0s3.46-.13,5.18-.26a50.29,50.29,0,0,0,9.76-1.55c2.75-.76,5.69-1.89,7.67-4A7.19,7.19,0,0,0,96.9,22a5.71,5.71,0,0,0-.19-2.3,10.23,10.23,0,0,0-.39-1.07,14.25,14.25,0,0,0-2.14-2.36c-3.1-2.11-7.44-3-11.68-4-.16,0-4.19-1.18-4.83-1.48a2.75,2.75,0,0,1-1.3-1,1.8,1.8,0,0,1,0-1.75c.8-1.4,2.58-1.44,4-1.47,2,0,25.37,0,26.44.1-.18.64-.49,1.53-.72,2.15L97.79,32h8c.17,0,7.84-21.6,9.12-25,4.26,0,8.66-.15,12.67-.14.47-1.16,2.35-6.17,2.25-6.18C124,.64,89.81.57,88,.56ZM78.32,22.2c0,2.4-4.47,3.11-6.26,3.28a33.32,33.32,0,0,1-14.91-2.09c-.17-5.51-3.32-7.66-8.35-9.25-2.81-.89-8.61-1.36-8.65-3.88-.06-3.23,8.2-3.21,11.63-3a34.34,34.34,0,0,1,9.84,2.09c-.13,5.73,3.43,6.7,8.65,8.35C72.88,18.55,78.29,19.88,78.32,22.2Z"/><path class="cls-2" d="M66.39,7c.9,1.27-.64,2.22-.3,3.88C67.88,14.6,73,14.74,78,15.94c4.05,1,10.51,2.25,10.74,6.26.33,5.91-10.89,6.9-16.41,7.16-8.38.39-15.27-1-20-3.58.51-4.81-1.11-7-5.37-8.65s-17-1.68-17.9-6.26C28,5.11,37.24,3.71,41.33,3.41,50.93,2.7,60.63,4.2,66.39,7Zm-14.62.3c-3.43-.23-11.69-.25-11.63,3,0,2.52,5.84,3,8.65,3.88,5,1.58,8.19,3.73,8.35,9.25a33.32,33.32,0,0,0,14.91,2.09c1.8-.17,6.29-.88,6.26-3.28s-5.44-3.65-8.05-4.47C65,16.08,61.49,15.1,61.62,9.37A34.34,34.34,0,0,0,51.77,7.29Z"/></svg>