<?xml version="1.0" standalone="no"?>
<!DOCTYPE svg PUBLIC "-//W3C//DTD SVG 1.1//EN" "http://www.w3.org/Graphics/SVG/1.1/DTD/svg11.dtd" >
<svg xmlns="http://www.w3.org/2000/svg">
<metadata></metadata>
<defs>
<font id="blender_prothin" horiz-adv-x="1012" >
<font-face units-per-em="2048" ascent="1638" descent="-410" />
<missing-glyph horiz-adv-x="461" />
<glyph horiz-adv-x="0" />
<glyph unicode="&#xd;" horiz-adv-x="1024" />
<glyph unicode=" "  horiz-adv-x="461" />
<glyph unicode="&#x09;" horiz-adv-x="461" />
<glyph unicode="&#xa0;" horiz-adv-x="461" />
<glyph unicode="!" horiz-adv-x="420" d="M92 0v129h121v-129h-121zM117 377v840h69v-840h-69z" />
<glyph unicode="&#x22;" horiz-adv-x="750" d="M154 946l12 131v244h67v-270l-10 -105h-69zM444 946l13 131v244h67v-270l-10 -105h-70z" />
<glyph unicode="#" horiz-adv-x="1063" d="M55 391l11 70h182l49 287h-182l10 69h182l39 221h74l-39 -221h223l39 221h70l-37 -221h182l-10 -69h-182l-50 -287h183l-11 -70h-184l-39 -229h-71l38 229h-221l-39 -229h-73l39 229h-183zM322 461h219l49 287h-219z" />
<glyph unicode="$" horiz-adv-x="1094" d="M86 199l74 20q11 -21 28 -44t36 -44t38.5 -38t34.5 -25q9 -5 19 -7t18 -2h131v523l-264 75q-25 7 -45.5 24t-35.5 41t-23.5 52.5t-8.5 59.5v131q0 24 5 47.5t16 42.5q7 12 24.5 32.5t37.5 41.5t39.5 39t31.5 26q20 12 45 21.5t45 9.5h133v161h67v-161h107q20 0 45 -9.5 t45 -21.5q23 -15 45 -36t42 -45.5t37 -50t30 -48.5l-74 -23q-10 22 -27 45t-36.5 44t-39 38.5t-34.5 26.5q-10 5 -20 6.5t-19 1.5h-101v-512l265 -76q25 -7 46 -23.5t36 -39.5t23.5 -51t8.5 -58v-147q0 -52 -22 -90q-8 -12 -25 -32t-37 -40.5t-39.5 -38.5t-31.5 -27 q-20 -12 -45 -21t-45 -9h-134v-178h-67v178h-137q-20 0 -46 9t-46 21q-23 15 -45 36t-41 45.5t-35.5 50.5t-28.5 49zM162 840q0 -37 20 -70.5t56 -44.5l227 -66v494h-123q-9 0 -18.5 -1.5t-18.5 -6.5q-14 -8 -33 -24t-38.5 -35.5t-37 -41t-28.5 -40.5q-6 -17 -6 -39v-125z M532 59h125q22 0 35 9q14 7 33 22.5t38.5 34.5t37 40t28.5 40q5 9 7 21.5t2 21.5v131q0 18 -4.5 37.5t-14 36t-24 29t-33.5 18.5l-230 63v-504z" />
<glyph unicode="%" horiz-adv-x="1354" d="M72 799v254q0 23 3.5 40.5t14.5 32.5q4 6 12.5 16.5t18 21t19 20t16.5 14.5q17 14 38.5 21.5t43.5 7.5h147q22 0 43.5 -7.5t38.5 -21.5q7 -5 16 -14.5t18.5 -20t17.5 -21t13 -16.5q11 -15 15 -32.5t4 -40.5v-254q0 -23 -4 -41t-15 -33q-5 -6 -13 -16t-17.5 -20.5 t-18.5 -20t-16 -15.5q-36 -28 -82 -28h-147q-22 0 -43.5 7t-38.5 21q-7 6 -16.5 15.5t-19 20t-18 20.5t-12.5 16q-11 15 -14.5 33t-3.5 41zM137 807q0 -9 0.5 -17t3.5 -14q5 -10 14 -21.5t19 -23t19.5 -20.5t15.5 -13q13 -8 33 -8h139q18 0 33 8q6 4 15.5 13t19.5 20.5 t18.5 23t13.5 21.5q3 6 3.5 14t0.5 17v237q0 10 -0.5 17.5t-3.5 13.5q-5 10 -13.5 22t-18.5 23.5t-19.5 20t-15.5 12.5q-15 8 -33 8h-139q-20 0 -33 -8q-6 -4 -15.5 -12.5t-19.5 -20t-19 -23.5t-14 -22q-3 -6 -3.5 -13.5t-0.5 -17.5v-237zM303 0l625 1229h73l-622 -1229h-76 zM741 166v254q0 23 4 40.5t15 33.5q4 6 12.5 16t18 20.5t18.5 20t16 14.5q17 14 39 21.5t43 7.5h148q21 0 43 -7.5t39 -21.5q7 -5 16 -14.5t18.5 -20t17.5 -20.5t13 -16q11 -16 15 -33.5t4 -40.5v-254q0 -23 -4 -40.5t-15 -33.5q-5 -6 -13 -16t-17.5 -20.5t-18.5 -20 t-16 -15.5q-17 -14 -39 -21t-43 -7h-148q-21 0 -43 7t-39 21q-7 6 -16 15.5t-18.5 20t-18 20.5t-12.5 16q-11 16 -15 33.5t-4 40.5zM807 174q0 -9 0.5 -16.5t3.5 -14.5q4 -10 13 -21.5t19 -23t20 -20t16 -12.5q13 -9 32 -9h140q19 0 32 9q6 4 16 12.5t20 20t18.5 23 t13.5 21.5q3 7 3.5 14.5t0.5 16.5v238q0 9 -0.5 16.5t-3.5 13.5q-5 10 -13.5 22t-18.5 23.5t-20 20t-16 12.5q-13 8 -32 8h-140q-19 0 -32 -8q-6 -4 -16 -12.5t-20 -20t-19 -23.5t-13 -22q-3 -6 -3.5 -13.5t-0.5 -16.5v-238z" />
<glyph unicode="&#x26;" horiz-adv-x="1085" d="M57 225v193q0 28 6.5 50t20.5 42q8 13 21 28.5t27 30t27.5 26.5t24.5 19q-10 6 -24 19.5t-27.5 29.5t-25 31t-15.5 23q-26 38 -26 96v172q0 28 7 53t19 45q7 12 18.5 26t25 28t27.5 27.5t25 23.5q22 17 50.5 27t56.5 10h190q20 0 46.5 -9.5t46.5 -21.5q49 -31 86.5 -80.5 t66.5 -101.5l-74 -21q-11 25 -27.5 48.5t-35 44t-37.5 37t-37 26.5q-9 6 -21 7t-20 1h-182q-11 0 -22.5 -2t-22.5 -8q-12 -7 -27.5 -20.5t-30.5 -29.5t-28 -32.5t-19 -28.5q-10 -23 -10 -45v-172q0 -22 10 -45q8 -15 19 -32t24 -32t27 -28t27 -21q21 -12 45 -12h235v-67 h-237q-13 0 -23.5 -3.5t-21.5 -9.5q-13 -8 -28 -20t-29 -26.5t-26 -30.5t-20 -31q-10 -22 -10 -43v-187q0 -21 10 -43q8 -15 20.5 -32.5t27.5 -33.5t30.5 -29.5t28.5 -20.5q11 -7 22.5 -9t22.5 -2h301q11 0 23.5 2t23.5 9q13 7 28 20.5t29.5 29.5t26.5 33.5t20 32.5 q11 20 11 43v306h215v-72h-144v-238q0 -52 -26 -94q-5 -8 -17 -22.5t-27 -31t-29.5 -31t-23.5 -21.5q-21 -17 -51 -26t-59 -9h-305q-29 0 -57 9t-50 26q-9 7 -23.5 21.5t-29 31t-27 31t-16.5 22.5q-27 43 -27 94z" />
<glyph unicode="'" horiz-adv-x="455" d="M154 946l12 131v244h67v-270l-10 -105h-69z" />
<glyph unicode="(" horiz-adv-x="670" d="M82 262v703q0 24 5 46.5t17 41.5q10 15 32 43t46 53l162 164l49 -53l-157 -160q-22 -22 -44 -47.5t-34 -48.5q-5 -8 -4.5 -20t0.5 -23v-695q0 -11 0.5 -23t5.5 -20q12 -23 34 -48.5t44 -47.5l157 -158l-51 -53l-162 164q-24 25 -46 51t-32 41q-12 19 -17 42t-5 48z" />
<glyph unicode=")" horiz-adv-x="672" d="M137 -31l158 158q22 22 43.5 47.5t34.5 48.5q5 8 5.5 20t0.5 23v695q0 11 -0.5 23t-5.5 20q-13 23 -32.5 48.5t-41.5 47.5l-158 160l43 53l164 -164q25 -25 47 -53t31 -43q25 -39 25 -88v-703q0 -51 -25 -90q-9 -15 -31 -41t-47 -51l-164 -164z" />
<glyph unicode="*" horiz-adv-x="936" d="M84 1049l22 71l267 -92l-2 285h73l-4 -285l269 92l22 -71l-268 -82l170 -226l-62 -43l-163 234l-164 -234l-62 43l168 226z" />
<glyph unicode="+" horiz-adv-x="1061" d="M115 475v70h307v325h70v-325h307v-70h-307v-325h-70v325h-307z" />
<glyph unicode="," horiz-adv-x="420" d="M16 -178l123 338l76 -29l-117 -309h-82z" />
<glyph unicode="-" horiz-adv-x="709" d="M76 475v68h438v-68h-438z" />
<glyph unicode="." horiz-adv-x="440" d="M94 0v133h125v-133h-125z" />
<glyph unicode="/" horiz-adv-x="846" d="M39 0l618 1217h76l-616 -1217h-78z" />
<glyph unicode="0" d="M78 223v766q0 26 6 50.5t20 45.5q5 8 17 23t27 31.5t29.5 31t23.5 21.5q21 17 49 26t57 9h273q29 0 57.5 -9t50.5 -26q9 -7 23.5 -21.5t29 -31t26.5 -31.5t17 -23q14 -21 20.5 -45.5t6.5 -50.5v-766q0 -26 -6.5 -49t-20.5 -45q-5 -8 -17 -22.5t-26.5 -31t-29 -31 t-23.5 -21.5q-22 -17 -50.5 -26t-57.5 -9h-273q-29 0 -57 9t-49 26q-9 7 -23.5 21.5t-29.5 31t-27 31t-17 22.5q-26 42 -26 94zM152 227q0 -11 0.5 -21.5t5.5 -21.5q7 -15 19.5 -32t27 -33t29.5 -29t28 -20q11 -7 23.5 -9t23.5 -2h269q11 0 23.5 2t23.5 9q13 7 28 20 t29.5 29t26.5 33t20 32q5 10 6.5 21t1.5 22v758q0 11 -1.5 22.5t-6.5 22.5q-8 15 -20 32t-26.5 32t-29.5 28t-28 21q-11 6 -23.5 9t-23.5 3h-269q-11 0 -23.5 -3t-23.5 -9q-13 -8 -28 -21t-29.5 -28t-27 -32t-19.5 -32q-5 -11 -5.5 -22.5t-0.5 -22.5v-758z" />
<glyph unicode="1" d="M143 0v72h295v1073h-295v72h369v-1145h272v-72h-641z" />
<glyph unicode="2" horiz-adv-x="1010" d="M90 1018q12 23 28.5 48t35.5 48.5t40 45t44 36.5q20 14 46 22.5t46 8.5h250q38 0 62 -9t46 -26q9 -7 23.5 -21.5t29 -31t26.5 -31.5t17 -23q14 -21 20.5 -45.5t6.5 -50.5v-149q0 -60 -30.5 -105.5t-84.5 -72.5l-442 -232q-35 -18 -56.5 -48.5t-21.5 -72.5v-237h619v-72 h-693v319q0 59 30.5 102.5t86.5 72.5l445 231q35 19 54 49t19 70v141q0 11 -1.5 22.5t-6.5 22.5q-8 15 -19.5 32t-25.5 33t-29 29t-28 21q-11 6 -24.5 8t-24.5 2h-240q-8 0 -21 -2t-22 -8q-16 -9 -35 -26t-37.5 -37.5t-34.5 -43.5t-26 -45z" />
<glyph unicode="3" horiz-adv-x="1010" d="M90 193l74 24q12 -20 28.5 -42.5t35 -43t37.5 -37.5t34 -26q9 -5 19 -7t18 -2h244q11 0 23.5 2t23.5 9q13 7 28 20t29 28t25.5 32t19.5 32q5 10 6.5 21t1.5 22v189q0 11 -1.5 22t-6.5 21q-8 15 -19.5 31t-26 31t-29.5 27.5t-29 20.5q-8 5 -19.5 9t-23.5 4h-258v71h256 q9 0 21.5 1t23.5 7q14 8 29 21t29.5 28t26 31t19.5 31q5 11 6.5 22.5t1.5 22.5v170q0 11 -1.5 22.5t-6.5 22.5q-8 15 -19.5 32t-26 33.5t-29.5 30t-29 21.5q-11 6 -23 7t-24 1h-242q-8 0 -21 -1.5t-22 -6.5q-16 -9 -34.5 -26.5t-36.5 -39t-34 -44.5t-26 -44l-72 23 q13 23 29.5 48.5t36 50t40.5 46.5t44 37q18 12 43 20.5t47 8.5h252q29 0 56.5 -9t49.5 -26q9 -7 23.5 -21.5t29 -31t26.5 -31.5t17 -23q14 -21 20.5 -45.5t6.5 -50.5v-178q0 -57 -27 -94q-7 -12 -15.5 -22t-19.5 -21t-26 -25.5t-35 -34.5q20 -20 35 -34t26 -25.5t19.5 -21 t15.5 -21.5q14 -20 20.5 -43t6.5 -51v-195q0 -26 -6.5 -50t-20.5 -46q-5 -8 -17 -23t-26.5 -31.5t-29 -31t-23.5 -21.5q-45 -34 -106 -34h-254q-20 0 -46 9t-44 23q-20 15 -41.5 36t-41 44.5t-36.5 48t-29 46.5z" />
<glyph unicode="4" d="M70 287v71l503 859h146v-859h131v-71h-131v-287h-74v287h-575zM152 358h493v793h-31z" />
<glyph unicode="5" d="M82 199l74 20q12 -21 27.5 -43.5t33.5 -43t37 -37.5t37 -27q9 -5 20 -7t19 -2h252q11 0 24.5 2t24.5 9q13 7 28 20t29 29t25.5 33t19.5 32q5 10 6.5 21t1.5 22v242q0 11 -1.5 23.5t-6.5 23.5q-8 15 -19.5 31.5t-25.5 31.5t-29 27.5t-28 20.5q-11 6 -24.5 8t-24.5 2h-451 v580h621v-72h-547v-436h383q32 0 57 -8t51 -29q9 -8 23 -22t28 -29.5t25 -29.5t16 -22q27 -40 27 -94v-250q0 -26 -6.5 -50t-20.5 -46q-5 -8 -17 -22.5t-26.5 -31t-29 -31t-23.5 -21.5q-21 -17 -50 -26t-58 -9h-258q-25 0 -49 9t-44 21q-21 13 -42.5 34.5t-41.5 46.5 t-37.5 51t-29.5 49z" />
<glyph unicode="6" d="M80 225v764q0 26 6 50.5t20 45.5q5 8 17 23t27 31.5t29.5 31t23.5 21.5q21 17 49 26t57 9h250q22 0 48 -8.5t44 -20.5q22 -15 44 -36.5t42 -46t37.5 -49.5t30.5 -48l-74 -23q-10 18 -26.5 40.5t-35.5 43.5t-39 39t-36 27q-9 6 -21 8t-20 2h-244q-12 0 -23 -2t-22 -8 q-14 -8 -29 -21.5t-28.5 -29.5t-25.5 -32.5t-19 -31.5q-5 -11 -6.5 -22.5t-1.5 -22.5v-383q9 14 22 29t27.5 28.5t28.5 25.5t26 20q19 12 45 18t47 6h232q29 0 57.5 -8t48.5 -25q9 -8 23.5 -22t29 -29t26.5 -29.5t17 -21.5q13 -20 20 -44t7 -52v-273q0 -26 -6.5 -50 t-20.5 -46q-5 -8 -17 -22.5t-26.5 -31t-29 -31t-23.5 -21.5q-22 -17 -49.5 -26t-56.5 -9h-273q-29 0 -57 9t-49 26q-9 7 -23.5 21.5t-29.5 31t-27 31t-17 22.5q-26 42 -26 96zM154 227q0 -11 1.5 -22t6.5 -21q7 -15 19.5 -32t27 -33t29.5 -29t28 -20q11 -7 22.5 -9t22.5 -2 h269q11 0 23.5 2t23.5 9q13 7 28 20t29 29t25.5 33t19.5 32q5 10 6.5 21t1.5 22v269q0 11 -1.5 22t-6.5 21q-8 15 -19.5 30.5t-25 29.5t-28.5 26t-29 20q-11 6 -23.5 9t-23.5 3h-232q-8 0 -22 -2.5t-23 -7.5q-13 -8 -30.5 -21.5t-36 -30.5t-36.5 -37t-32 -40 q-6 -9 -10 -18.5t-4 -16.5v-256z" />
<glyph unicode="7" d="M84 1143v74h719v-74l-522 -1143l-84 2l524 1141h-637z" />
<glyph unicode="8" d="M84 225v193q0 28 6.5 51t20.5 43q8 12 34 40t60 62q-34 32 -60 62t-34 43q-27 37 -27 94v176q0 57 27 98q4 8 16.5 22.5t27 30t29 30t23.5 22.5q22 17 49.5 26t56.5 9h275q29 0 57 -9t49 -26q9 -8 23.5 -22.5t29.5 -30t27 -30t17 -22.5q12 -20 19 -45t7 -53v-176 q0 -56 -26 -94q-8 -13 -34.5 -43t-60.5 -62q34 -34 60.5 -62t34.5 -40q26 -39 26 -94v-193q0 -54 -26 -96q-5 -8 -17 -22.5t-27 -31t-29.5 -31t-23.5 -21.5q-21 -17 -49 -26t-57 -9h-275q-29 0 -56.5 9t-49.5 26q-9 7 -23.5 21.5t-29 31t-27 31t-16.5 22.5q-14 22 -20.5 46 t-6.5 50zM158 227q0 -11 1.5 -22t6.5 -21q7 -15 19 -32t26 -33t29 -29t28 -20q11 -7 23.5 -9t23.5 -2h271q11 0 22.5 2t22.5 9q13 7 28 20t29.5 29t26.5 33t20 32q5 10 6.5 21t1.5 22v187q0 11 -1.5 22t-6.5 21q-8 15 -20 31.5t-26.5 31.5t-29.5 27t-28 20q-11 6 -22 9.5 t-23 3.5h-271q-23 0 -47 -13q-13 -8 -28 -20t-29 -27t-26 -31.5t-19 -31.5q-5 -10 -6.5 -21t-1.5 -22v-187zM158 817q0 -11 1.5 -22.5t6.5 -22.5q7 -15 19 -31.5t25.5 -32t28.5 -28.5t29 -21q11 -6 23 -7t24 -1h271q11 0 22.5 2t22.5 9q13 7 28 19.5t29.5 27.5t26.5 31.5 t20 31.5q5 11 6.5 22.5t1.5 22.5v168q0 11 -1.5 22.5t-6.5 22.5q-8 15 -20 32t-26.5 33t-29.5 29t-28 21q-11 6 -22.5 8t-22.5 2h-271q-11 0 -23.5 -2t-23.5 -8q-14 -8 -29 -21.5t-28.5 -29.5t-25.5 -32.5t-19 -31.5q-5 -11 -6.5 -22.5t-1.5 -22.5v-168z" />
<glyph unicode="9" d="M76 717v272q0 26 6 50.5t20 45.5q5 8 17 23t27 31.5t29.5 31t23.5 21.5q21 17 49 26t57 9h273q29 0 56.5 -9t49.5 -26q9 -7 23.5 -21.5t29 -31t26.5 -31.5t17 -23q14 -21 20.5 -45.5t6.5 -50.5v-764q0 -26 -6.5 -50t-20.5 -46q-5 -8 -17 -22.5t-26.5 -31t-29 -31 t-23.5 -21.5q-22 -17 -49.5 -26t-56.5 -9h-250q-22 0 -48 8t-44 20q-23 15 -44.5 36.5t-41.5 46t-37.5 50t-30.5 48.5l74 22q10 -18 26.5 -40.5t35.5 -43.5t39 -38.5t36 -26.5q9 -7 21 -9t20 -2h244q12 0 23 2t22 9q13 7 28 20.5t29 29.5t25.5 32.5t19.5 31.5q5 11 6.5 22.5 t1.5 22.5v383q-9 -14 -22 -29t-27.5 -28.5t-29 -25.5t-25.5 -19q-19 -12 -45 -18.5t-47 -6.5h-232q-29 0 -57.5 8t-48.5 25q-9 8 -23.5 22t-29.5 29.5t-27 29.5t-17 22q-12 20 -19 44t-7 52zM150 719q0 -11 1.5 -22.5t6.5 -20.5q7 -15 19 -30.5t25.5 -30t28.5 -26.5t29 -20 q11 -6 23.5 -9t23.5 -3h232q8 0 21.5 2.5t23.5 7.5q13 8 30.5 21.5t36 31t36.5 37t32 39.5q6 10 10 19.5t4 15.5v256q0 11 -1.5 22.5t-6.5 20.5q-8 15 -20 32t-26.5 33t-29.5 29t-28 21q-11 6 -23 8t-23 2h-268q-11 0 -23.5 -2t-23.5 -8q-13 -8 -28 -21t-29 -29t-26 -33 t-19 -32q-5 -9 -6.5 -20.5t-1.5 -22.5v-268z" />
<glyph unicode=":" horiz-adv-x="440" d="M94 0v133h125v-133h-125zM94 612v133h125v-133h-125z" />
<glyph unicode=";" horiz-adv-x="432" d="M16 -178l123 338l76 -29l-117 -309h-82zM96 612v133h125v-133h-125z" />
<glyph unicode="&#x3c;" horiz-adv-x="1468" d="M43 616l596 619h90l-553 -582h1081v-71h-1081l555 -582h-92z" />
<glyph unicode="=" horiz-adv-x="965" d="M86 340v74h664v-74h-664zM86 606v74h664v-74h-664z" />
<glyph unicode="&#x3e;" horiz-adv-x="1468" d="M49 582v71h1084l-558 582h93l596 -619l-596 -616h-90l555 582h-1084z" />
<glyph unicode="?" horiz-adv-x="909" d="M57 1014q12 23 28.5 48.5t35.5 50t41 45.5t45 36q20 12 47 21.5t47 9.5h248q29 0 58 -9t50 -26q9 -7 23.5 -21.5t29.5 -31t27 -31.5t17 -23q14 -21 20 -45.5t6 -50.5v-147q0 -59 -32.5 -105.5t-81.5 -72.5l-134 -72q-14 -8 -28 -20.5t-25 -28t-17.5 -34t-6.5 -38.5v-111 h-74v121q0 59 32.5 101t88.5 71l133 76q31 17 51.5 48t20.5 69l2 139q0 11 -2 22.5t-7 22.5q-8 15 -20.5 32t-27 33t-30 29t-28.5 21q-11 6 -23.5 8t-23.5 2h-240q-8 0 -19.5 -1t-21.5 -7q-16 -9 -35.5 -26.5t-39 -38.5t-36 -44t-26.5 -45zM358 0v129h121v-129h-121z" />
<glyph unicode="@" horiz-adv-x="1303" d="M84 -70v1028q0 23 4 51t16 44q9 12 27.5 32.5t39 42t41 41t34.5 29.5q20 16 46.5 22.5t51.5 6.5h471q25 0 51 -7.5t47 -21.5q42 -28 77 -67t61 -76q14 -20 19 -45.5t5 -51.5v-808l19 -150h-74l-16 123q-8 -10 -24 -24.5t-34 -29t-34.5 -27t-24.5 -17.5 q-22 -14 -47.5 -24.5t-48.5 -10.5h-103q-31 0 -63.5 8.5t-55.5 28.5q-9 7 -22 19.5t-26.5 26.5t-25.5 28t-20 24q-15 20 -20.5 46t-5.5 54v418q0 28 6.5 55t21.5 45l25 30t19.5 22t20.5 21t27 26q25 20 56.5 28.5t62.5 8.5h103q23 0 48.5 -11.5t45.5 -25.5t51 -36.5 t70 -66.5v222q0 11 -2 23t-7 20q-11 19 -30 41.5t-39 43t-39 37t-31 23.5q-11 6 -22 8t-19 2h-475q-11 0 -22.5 -2t-20.5 -8q-13 -9 -31.5 -25.5t-38 -36.5t-37 -42t-28.5 -41q-5 -8 -6.5 -20t-1.5 -23v-1037q0 -11 1.5 -21t6.5 -18q12 -18 30 -39t37.5 -40t38.5 -34.5 t33 -23.5q21 -12 41 -12h102l11 -72h-113q-25 0 -51.5 8.5t-46.5 22.5q-13 9 -33 27t-40 39t-38.5 41.5t-28.5 33.5q-12 17 -17 44t-5 50zM522 227q0 -14 1.5 -26.5t6.5 -20.5q9 -15 21.5 -32t27 -32t30 -28t30.5 -20q9 -7 23 -9t28 -2h94q10 0 22 3t21 8q15 7 39.5 22 t50 34.5t48.5 41.5t34 43q2 3 4.5 9.5t2.5 14.5v400q0 5 -1.5 11.5t-5.5 12.5q-11 20 -34.5 42.5t-50 42.5t-51.5 36t-40 23q-8 3 -19.5 5.5t-19.5 2.5h-94q-29 0 -49 -10q-15 -8 -31 -21t-31 -29t-27.5 -33.5t-21.5 -33.5q-5 -8 -6.5 -19.5t-1.5 -25.5v-410z" />
<glyph unicode="A" horiz-adv-x="1049" d="M-4 0l393 1217h150l393 -1217h-78l-94 291h-592l-96 -291h-76zM188 362h551l-247 785h-58z" />
<glyph unicode="B" horiz-adv-x="1085" d="M102 0v1217h545q37 0 61 -10t46 -27q9 -8 23.5 -22.5t29.5 -30t27.5 -30t17.5 -22.5q25 -41 25 -98v-164q0 -55 -25 -96q-14 -23 -38.5 -49t-55.5 -54q31 -27 55.5 -53t38.5 -49q25 -42 25 -96v-180q0 -53 -25 -95q-5 -8 -17.5 -22.5t-27.5 -31t-29.5 -31t-23.5 -21.5 q-22 -17 -50 -26t-57 -9h-545zM176 72h465q11 0 23.5 2t23.5 8q13 7 28.5 20.5t30.5 29t27.5 33t20.5 32.5q5 9 6.5 20.5t1.5 22.5v176q0 11 -1.5 22t-6.5 21q-8 15 -20 31t-26.5 30.5t-29.5 26.5t-29 20q-9 6 -21.5 8.5t-21.5 2.5h-471v-506zM176 649h473q13 0 24 4t19 9 q14 7 29 19.5t28.5 27.5t25.5 30.5t20 30.5q5 11 6.5 22.5t1.5 22.5v160q0 11 -1.5 22.5t-6.5 20.5q-8 15 -20.5 32.5t-27.5 33.5t-30.5 29.5t-28.5 21.5q-11 6 -21 8t-26 2h-465v-496z" />
<glyph unicode="C" horiz-adv-x="1059" d="M102 244v727q0 52 23 88q7 12 24 32.5t36.5 41.5t39 39t31.5 26q19 12 42 21.5t48 9.5h291q29 0 49.5 -9.5t40.5 -21.5q23 -15 45 -36.5t42 -46t37 -49.5t30 -48l-72 -23q-12 22 -29.5 45.5t-36.5 44.5t-38 38t-35 26q-10 5 -20.5 6.5t-18.5 1.5h-281q-18 0 -35 -8 q-14 -8 -31.5 -23t-35.5 -33.5t-34.5 -39t-27.5 -39.5q-5 -8 -7.5 -23t-2.5 -24v-723q0 -17 10 -37q11 -19 28 -40.5t36 -41t37 -35t32 -22.5q10 -5 18 -7t17 -2h279q8 0 17.5 2t19.5 7q15 9 34 26.5t37.5 38.5t35 43.5t28.5 42.5l76 -20q-13 -23 -30 -48.5t-37 -50t-42 -46 t-45 -36.5q-20 -12 -40.5 -21t-49.5 -9h-289q-25 0 -48.5 9t-43.5 21q-12 8 -31.5 26t-39 38.5t-36.5 41t-24 32.5q-12 18 -17.5 40.5t-5.5 47.5z" />
<glyph unicode="D" horiz-adv-x="1083" d="M102 0v1217h533q31 0 51 -8.5t39 -20.5q12 -8 31.5 -26t39 -39.5t36 -42t24.5 -33.5q11 -19 17 -41.5t6 -47.5v-702q0 -25 -6 -47t-17 -41q-9 -15 -25 -34.5t-34.5 -39t-37.5 -36.5t-34 -27q-17 -11 -39 -21t-51 -10h-533zM176 72h451q20 0 37 8q13 7 31.5 22.5t37.5 35 t36 41t28 40.5q5 9 6.5 18.5t1.5 18.5v700q0 10 -1 20t-7 21q-11 19 -27 40.5t-33.5 41t-35 35t-31.5 23.5q-17 8 -37 8h-457v-1073z" />
<glyph unicode="E" horiz-adv-x="1006" d="M102 0v1217h672v-72h-598v-496h559v-71h-559v-506h598v-72h-672z" />
<glyph unicode="F" horiz-adv-x="950" d="M102 0v1217h672v-72h-598v-496h561v-71h-561v-578h-74z" />
<glyph unicode="G" horiz-adv-x="1169" d="M102 250v719q0 24 5.5 47.5t17.5 42.5q7 12 24.5 32.5t38 41.5t40.5 39t32 26q20 14 41.5 22.5t46.5 8.5h334q20 0 46 -8.5t46 -22.5q23 -16 45 -38t41.5 -46t36 -49t29.5 -47l-74 -23q-12 22 -29 45t-36 44t-38 38.5t-34 26.5q-10 5 -20.5 6.5t-18.5 1.5h-320 q-18 0 -34 -8q-14 -8 -33.5 -24t-39.5 -35.5t-38 -41t-29 -40.5q-6 -11 -6 -21.5v-19.5v-715q0 -9 0.5 -18.5t5.5 -18.5q11 -19 29 -40.5t38 -41.5t39.5 -36t33.5 -23q9 -5 18.5 -6.5t17.5 -1.5h316q20 0 37 8q14 7 33 22t38.5 33.5t37 39t28.5 40.5q5 9 6.5 19.5t1.5 19.5 v330h-299v71h373v-215t1 -141q0 -64 1 -103q2 -29 6 -61q3 -27 7 -60.5t9 -68.5h-67l-15 123q-34 -42 -62.5 -66t-39.5 -32q-40 -31 -90 -31h-332q-20 0 -46 9t-46 22q-12 7 -31.5 25t-39 38.5t-36.5 41t-24 32.5q-12 18 -17.5 40.5t-5.5 47.5z" />
<glyph unicode="H" horiz-adv-x="1116" d="M102 0v1217h74v-568h637v568h74v-1217h-74v578h-637v-578h-74z" />
<glyph unicode="I" horiz-adv-x="406" d="M102 0v1217h74v-1217h-74z" />
<glyph unicode="J" horiz-adv-x="877" d="M20 201l72 20q13 -21 30.5 -44.5t36.5 -45.5t37 -38.5t33 -22.5q10 -5 21.5 -7t19.5 -2h148q9 0 18 2t17 7q13 7 31.5 22.5t37 35t35 41t27.5 40.5q3 8 6.5 16t3.5 21v971h74v-969q0 -25 -6.5 -48.5t-18.5 -41.5q-8 -12 -24 -32.5t-35.5 -41t-38.5 -38.5t-31 -26 q-20 -12 -46 -21t-46 -9h-158q-20 0 -46 9t-46 21q-23 15 -44.5 36.5t-40.5 46t-36 50t-31 48.5z" />
<glyph unicode="K" horiz-adv-x="987" d="M102 0v1217h74v-576h51l527 576h94l-557 -609l563 -608h-98l-529 573h-51v-573h-74z" />
<glyph unicode="L" horiz-adv-x="911" d="M102 0v1217h74v-1145h586v-72h-660z" />
<glyph unicode="M" horiz-adv-x="1307" d="M102 0v1217h144l342 -762l344 762h145v-1217h-73v1151h-23l-369 -811h-47l-368 807h-21v-1147h-74z" />
<glyph unicode="N" horiz-adv-x="1106" d="M102 0v1217h142l540 -1147h19v1147h74v-1217h-142l-538 1149h-21v-1149h-74z" />
<glyph unicode="O" horiz-adv-x="1141" d="M102 246v723q0 50 21 88q7 12 24.5 32.5t37.5 42t39.5 40t31.5 26.5q20 14 45 22.5t45 8.5h344q20 0 46 -8.5t46 -22.5q12 -8 31.5 -26t39 -39t36 -41.5t24.5 -32.5q11 -19 17 -42.5t6 -47.5v-723q0 -25 -5 -48.5t-18 -41.5q-8 -12 -24.5 -32.5t-36 -41t-39 -38.5 t-31.5 -26q-20 -12 -46 -21t-46 -9h-344q-20 0 -45 9t-45 21q-12 9 -31.5 27t-39.5 38.5t-37.5 40.5t-24.5 32q-13 18 -17 41.5t-4 48.5zM176 244q0 -26 8 -39q11 -18 29.5 -39t38.5 -41t38 -35.5t29 -21.5q10 -5 18 -7t17 -2h330q9 0 18.5 2t18.5 7q14 7 32 22.5t36.5 34.5 t35.5 40t29 40q5 8 6.5 19.5t1.5 21.5v725q0 9 -1 19.5t-7 21.5q-11 19 -28 40t-35.5 40t-37 34t-32.5 23q-9 5 -18.5 6.5t-18.5 1.5h-330q-18 0 -35 -8q-14 -8 -32 -23t-37 -34t-36 -40t-28 -40q-10 -18 -10 -41v-727z" />
<glyph unicode="P" horiz-adv-x="1047" d="M102 0v1217h545q29 0 56 -9t49 -26q10 -8 25 -22.5t30 -31t27.5 -31t17.5 -22.5q27 -42 27 -96v-176q0 -52 -27 -94q-5 -8 -17 -22.5t-27 -30t-30.5 -30t-25.5 -22.5q-22 -15 -49 -24t-56 -9h-471v-571h-74zM176 643h469q11 0 22.5 2t22.5 8q13 8 29 20t31 27t28 31 t21 31q5 11 5.5 21.5t0.5 21.5v170q0 11 -1.5 22.5t-6.5 22.5q-8 15 -20 31.5t-26.5 32t-29.5 28.5t-29 21q-21 12 -47 12h-469v-502z" />
<glyph unicode="Q" horiz-adv-x="1141" d="M104 246v723q0 50 21 88q7 12 24.5 32.5t37.5 42t39.5 40t31.5 26.5q20 14 45 22.5t45 8.5h344q20 0 46 -8.5t46 -22.5q12 -8 31.5 -26t39 -39t36 -41.5t24.5 -32.5q11 -19 17 -42.5t6 -47.5v-723q0 -25 -5 -48.5t-18 -41.5q-8 -12 -24.5 -32.5t-36 -41t-39 -38.5 t-31.5 -26q-20 -12 -46 -21t-46 -9h-45l74 -185h-72l-71 185h-230q-20 0 -45 9t-45 21q-12 9 -31.5 27t-39.5 38.5t-37.5 40.5t-24.5 32q-12 18 -16.5 41.5t-4.5 48.5zM178 244q0 -26 8 -39q11 -18 29.5 -39t38.5 -41t38.5 -35.5t29.5 -21.5q9 -5 17 -7t17 -2h191l-29 74 l64 23l39 -97h65q9 0 18.5 2t18.5 7q14 7 32 22.5t36.5 34.5t35.5 40t29 40q5 8 6.5 19.5t1.5 21.5v725q0 9 -1 19.5t-7 21.5q-11 19 -28 40t-35.5 40t-37 34t-32.5 23q-9 5 -18.5 6.5t-18.5 1.5h-330q-18 0 -34 -8q-14 -8 -32.5 -23t-37.5 -34t-36 -40t-28 -40 q-10 -18 -10 -41v-727z" />
<glyph unicode="R" horiz-adv-x="1114" d="M102 0v1217h545q29 0 56 -9t49 -26q10 -8 25 -22.5t30 -31t27.5 -31t17.5 -22.5q27 -42 27 -96v-176q0 -52 -27 -94q-5 -8 -17 -22.5t-27 -30t-30.5 -30t-25.5 -22.5q-22 -15 -49 -24t-56 -9h-49l328 -571h-84l-328 571h-338v-571h-74zM176 643h469q11 0 22.5 2t22.5 8 q13 8 29 20t31 27t28 31t21 31q5 11 5.5 21.5t0.5 21.5v170q0 11 -1.5 22.5t-6.5 22.5q-8 15 -20 31.5t-26.5 32t-29.5 28.5t-29 21q-21 12 -47 12h-469v-502z" />
<glyph unicode="S" horiz-adv-x="1106" d="M72 199l73 20q12 -21 29 -44t36 -44t38.5 -38t34.5 -25q9 -5 18.5 -7t17.5 -2h338q22 0 35 9q14 7 33 22.5t38.5 34.5t37 40t28.5 40q5 9 7 21.5t2 21.5v133q0 21 -3 39.5t-12 34.5t-25 28.5t-42 20.5l-549 155q-27 8 -49 25t-37.5 40t-24 51.5t-8.5 60.5v133 q0 24 5 47.5t16 42.5q7 12 24.5 32.5t37.5 41.5t39.5 39t31.5 26q20 14 45 22.5t45 8.5h307q20 0 45 -9.5t45 -21.5q23 -15 45 -36t42 -45.5t37 -50t30 -48.5l-74 -23q-10 22 -27 45t-36.5 44t-39 38.5t-34.5 26.5q-10 5 -20 6.5t-19 1.5h-293q-9 0 -18.5 -1.5t-18.5 -6.5 q-14 -8 -32.5 -24t-38 -35.5t-36.5 -41t-28 -40.5q-6 -17 -6 -39v-127q0 -41 16.5 -73t61.5 -46l557 -156q55 -15 84.5 -62.5t29.5 -109.5v-149q0 -52 -22 -90q-8 -12 -25 -32t-37 -40.5t-39.5 -38.5t-31.5 -27q-20 -12 -45 -21t-45 -9h-353q-20 0 -46.5 8t-45.5 22 q-21 15 -42 36.5t-41 46t-37 50t-29 48.5z" />
<glyph unicode="T" horiz-adv-x="930" d="M0 1145v72h786v-72h-356v-1145h-74v1145h-356z" />
<glyph unicode="U" horiz-adv-x="1077" d="M86 244v973h74v-975q0 -13 3.5 -22t6.5 -17q11 -19 28.5 -39.5t37 -39.5t38.5 -34t33 -22q9 -5 17.5 -7t17.5 -2h272q10 0 19 2t18 7q14 7 33 22t38.5 34t36.5 39.5t27 39.5q4 8 6.5 17t2.5 22v975h73v-973q0 -50 -22 -88q-8 -12 -25 -32.5t-36.5 -41t-38.5 -38.5 t-31 -26q-20 -12 -45 -21t-45 -9h-293q-20 0 -46 9t-46 21q-12 8 -31.5 26t-39 38.5t-36.5 41t-24 32.5q-13 18 -18 40.5t-5 47.5z" />
<glyph unicode="V" horiz-adv-x="1024" d="M-10 1217h78l362 -1145h45l361 1145h77l-387 -1217h-149z" />
<glyph unicode="W" horiz-adv-x="1393" d="M-8 1217h74l237 -1143h29l256 1143h88l256 -1143h29l241 1143h76l-266 -1217h-131l-250 1108l-248 -1108h-133z" />
<glyph unicode="X" horiz-adv-x="956" d="M-2 0l377 614l-367 603h80l328 -537l327 537h80l-368 -603l379 -614h-82l-336 549l-336 -549h-82z" />
<glyph unicode="Y" horiz-adv-x="911" d="M-10 1217h82l329 -599l332 599h82l-377 -674v-543h-73v543z" />
<glyph unicode="Z" horiz-adv-x="952" d="M70 0v70l630 1075h-630v72h712v-74l-628 -1071h628v-72h-712z" />
<glyph unicode="[" horiz-adv-x="578" d="M84 0v1217h268v-70h-196v-1077h196v-70h-268z" />
<glyph unicode="\" horiz-adv-x="846" d="M61 1217h76l619 -1217h-78z" />
<glyph unicode="]" horiz-adv-x="565" d="M92 0v70h197v1077h-197v70h270v-1217h-270z" />
<glyph unicode="^" horiz-adv-x="610" d="M37 647l182 570h88l180 -570h-71l-152 506l-158 -506h-69z" />
<glyph unicode="_" horiz-adv-x="915" d="M72 -47h700v-68h-700v68z" />
<glyph unicode="`" horiz-adv-x="739" d="M231 1317h86l195 -248l-63 -27z" />
<glyph unicode="a" horiz-adv-x="952" d="M51 223v43q0 29 6.5 56t20.5 47q5 8 15.5 21t22.5 26.5t25 26t23 20.5q22 17 52 27t60 10h398v155q0 11 -0.5 21.5t-5.5 21.5q-8 15 -20.5 32.5t-27 33t-29.5 28.5t-28 21q-11 6 -23 8t-24 2h-215q-24 0 -45 -12q-13 -7 -26.5 -19.5t-25.5 -27t-23 -29.5t-19 -26l-68 26 q9 12 21 29t26 34t28.5 32.5t27.5 25.5q21 17 50 26t60 9h209q31 0 62 -10t53 -27q10 -8 23 -20.5t25.5 -26.5t23.5 -27.5t16 -21.5q14 -20 19 -46t5 -57v-503l21 -152h-70l-16 115q-9 -12 -24.5 -26.5t-32 -28t-31.5 -24.5t-23 -16q-23 -14 -46.5 -22t-43.5 -8h-201 q-30 0 -60 10t-52 27q-10 7 -23 20t-25 27t-22.5 27t-15.5 22q-14 20 -20.5 45.5t-6.5 54.5zM121 221q0 -12 1.5 -23t6.5 -20q16 -31 43 -61t55 -47q11 -7 26 -10t28 -3h190q20 0 39 11q13 7 35.5 20.5t46.5 32t46.5 41t35.5 47.5v223h-400q-12 0 -26 -3t-25 -9 q-28 -17 -53 -45.5t-41 -59.5q-5 -9 -6.5 -20.5t-1.5 -24.5v-49z" />
<glyph unicode="b" horiz-adv-x="969" d="M78 0l16 137v1080h70v-453q9 12 22.5 25.5t28.5 26.5t30.5 25t28.5 21q22 16 46.5 22.5t46.5 6.5h180q31 0 61 -9t51 -26q10 -8 23 -21t25.5 -27.5t23.5 -28t17 -21.5q26 -39 26 -99v-436q0 -61 -26 -100q-6 -9 -16.5 -22t-23.5 -27t-26 -27t-23 -20q-21 -17 -51 -27 t-61 -10h-180q-22 0 -47 8t-48 22q-8 6 -18.5 12.5t-23.5 17.5t-30 27t-38 40l-15 -117h-69zM164 219q11 -23 33.5 -47t48 -45t49.5 -37.5t39 -23.5q9 -5 19 -7t20 -2h172q12 0 24 3t23 10q14 7 29 20t29.5 28t26 31t19.5 31q5 10 7 22.5t2 24.5v426q0 13 -2 25.5t-7 21.5 q-8 15 -19.5 31.5t-25 32t-28.5 28.5t-29 21q-11 6 -23 8t-24 2h-174q-10 0 -20 -1.5t-19 -6.5q-14 -8 -39 -23t-51 -35.5t-48.5 -44.5t-31.5 -48v-445z" />
<glyph unicode="c" horiz-adv-x="936" d="M82 225v430q0 31 5 56t19 45q6 8 16.5 21.5t23.5 28t26 27.5t23 21q21 17 52 27t62 10h223q31 0 61 -10t52 -27q34 -28 58.5 -58.5t44.5 -62.5l-70 -22q-8 13 -19.5 28t-25 29t-27.5 26t-26 19q-11 6 -23 8t-25 2h-225q-12 0 -24 -2t-23 -8q-13 -8 -28 -20.5t-29 -28 t-26 -32.5t-19 -32q-5 -9 -5.5 -20.5t-0.5 -24.5v-430q0 -12 0.5 -23.5t5.5 -21.5q7 -15 20 -32t27.5 -32t30 -28t28.5 -20q11 -7 23 -9t24 -2h230q12 0 24 2t23 9q12 7 26 19t27 26.5t24 30t19 28.5l68 -25l-19 -28.5t-24.5 -33t-28 -32.5t-29.5 -26q-21 -17 -51 -27 t-61 -10h-230q-31 0 -62 10t-52 27q-10 7 -23 20.5t-26 27.5t-23.5 27.5t-16.5 22.5q-14 20 -19 44.5t-5 55.5z" />
<glyph unicode="d" horiz-adv-x="969" d="M82 223v436q0 29 6.5 54t20.5 45q6 8 16.5 21.5t23 28t25.5 27.5t23 21q21 17 51 26t61 9h180q22 0 46.5 -6.5t46.5 -22.5q13 -9 28.5 -21t30.5 -25t28.5 -26.5t22.5 -25.5v453h70v-1080l16 -137h-69l-15 117q-21 -24 -38 -40t-30 -27t-23.5 -17.5t-18.5 -12.5 q-23 -14 -48 -22t-47 -8h-180q-31 0 -61 10t-51 27q-10 7 -23 20t-26 27t-23.5 27t-15.5 22q-14 20 -20.5 45.5t-6.5 54.5zM152 227q0 -12 1.5 -24.5t6.5 -22.5q7 -15 19 -31t26.5 -31t29.5 -28t29 -20q22 -13 47 -13h172q10 0 20 2t19 7q15 7 39.5 23.5t50 37.5t47.5 45 t33 47v445q-9 24 -31.5 48t-48.5 44.5t-51 35.5t-39 23q-9 5 -19 6.5t-20 1.5h-174q-12 0 -24 -2t-23 -8q-14 -8 -29 -21t-28.5 -28.5t-25.5 -32t-19 -31.5q-5 -9 -6.5 -21.5t-1.5 -25.5v-426z" />
<glyph unicode="e" horiz-adv-x="948" d="M82 225v430q0 29 6.5 55t20.5 46q5 8 15.5 21.5t23.5 28t26 27.5t23 21q21 17 52 27t62 10h226q31 0 62 -10t52 -27q10 -8 23 -21t26 -27.5t23.5 -28t15.5 -21.5q14 -20 19.5 -45t5.5 -56v-252h-612v-174q0 -12 0.5 -23.5t5.5 -21.5q7 -15 20 -32.5t27.5 -33.5t30 -29.5 t28.5 -20.5q11 -7 22 -9t23 -2h232q12 0 25 3t24 10q35 21 57.5 49.5t40.5 54.5l66 -27l-19 -28.5t-24.5 -33t-28 -32.5t-29.5 -26q-21 -17 -51 -27t-61 -10h-230q-31 0 -62 10t-52 27q-10 7 -23 20.5t-26 27.5t-23.5 27.5t-15.5 22.5q-14 20 -20.5 45.5t-6.5 54.5zM152 471 h542v182l1 25q0 10 -5 20q-8 15 -20.5 32.5t-27.5 33t-30 28.5t-28 21q-11 6 -23 8t-24 2h-228q-12 0 -23 -2t-22 -8q-13 -8 -28.5 -21t-30 -28.5t-27.5 -33t-20 -32.5q-5 -9 -5.5 -20.5t-0.5 -24.5v-182z" />
<glyph unicode="f" horiz-adv-x="641" d="M31 813v68h145v127q0 31 5.5 50.5t19.5 39.5q5 8 15.5 21.5t23.5 27.5t26 26.5t23 20.5q21 17 52 26t62 9h144v-66h-144q-14 0 -29 -3t-24 -9q-28 -17 -55.5 -46t-42.5 -58q-5 -11 -5.5 -19.5t-0.5 -19.5v-127h266v-68h-266v-813h-70v813h-145z" />
<glyph unicode="g" horiz-adv-x="983" d="M82 221v436q0 31 5 56t19 45q6 8 17 21.5t24.5 28t27.5 27.5t24 21q21 17 51 26t59 9h195q21 0 46.5 -9.5t47.5 -25.5q9 -7 23 -18t29 -23.5t29 -26.5t23 -26l17 119h69l-14 -131v-863q0 -31 -5 -55.5t-19 -44.5q-6 -9 -16.5 -22t-23.5 -27t-25.5 -27t-22.5 -20 q-22 -17 -54 -27t-61 -10h-230q-29 0 -60 10t-52 27q-13 10 -27.5 25.5t-28 32.5t-25.5 34t-20 29l68 24q9 -13 20.5 -28t23.5 -29.5t25 -26t25 -18.5q11 -6 22 -9.5t23 -3.5h240q24 0 47 13q13 7 27.5 19.5t28 27t25 30.5t19.5 31q5 11 6 23.5t1 23.5v232q-23 -26 -39 -42 t-28 -26.5t-20.5 -16.5t-17.5 -13q-22 -16 -47 -24.5t-47 -8.5h-197q-29 0 -61 9t-53 26q-10 7 -23 20.5t-26 27.5t-23.5 27.5t-16.5 22.5q-14 20 -19 43.5t-5 54.5zM152 225q0 -12 0.5 -25t5.5 -22q7 -15 19.5 -31.5t27 -31.5t29.5 -27.5t28 -19.5q11 -7 23 -9t24 -2h191 q9 0 20 2t21 7q14 7 34.5 22t43 34t43 39.5t34.5 39.5l9 14v449l-9 14q-14 19 -35 40t-43.5 40t-44 34t-34.5 23q-10 5 -21 6.5t-20 1.5h-189q-12 0 -24 -2t-23 -8q-13 -8 -28 -20.5t-29.5 -28t-27 -32.5t-19.5 -32q-5 -9 -5.5 -21.5t-0.5 -25.5v-428z" />
<glyph unicode="h" horiz-adv-x="961" d="M88 0v1217h70v-455q5 10 19.5 24t32 28t34 26.5t26.5 19.5q22 16 45.5 23.5t44.5 7.5h168q29 0 60 -9t53 -26q10 -8 23 -21t26 -27.5t23.5 -28t15.5 -21.5q14 -20 20.5 -46t6.5 -55v-657h-70v653q0 13 -0.5 25.5t-5.5 21.5q-8 15 -20.5 31.5t-27 32t-30 28.5t-29.5 21 q-11 6 -22.5 8t-24.5 2h-159q-10 0 -20 -1.5t-19 -6.5q-14 -8 -39 -23t-51 -35.5t-48.5 -44.5t-31.5 -48v-664h-70z" />
<glyph unicode="i" horiz-adv-x="391" d="M80 1133v114h110v-114h-110zM100 0v881h70v-881h-70z" />
<glyph unicode="j" horiz-adv-x="410" d="M-143 -279h106q14 0 27 1t22 8q14 7 28.5 20t28 28t25 31t19.5 31q5 10 5.5 22.5t0.5 24.5v994h69v-998q0 -29 -4 -54.5t-18 -45.5q-5 -9 -16 -22t-23.5 -27t-25.5 -27t-23 -20q-22 -17 -53 -25t-60 -8h-108v67zM98 1133v114h111v-114h-111z" />
<glyph unicode="k" horiz-adv-x="803" d="M84 0v1217h70v-719h47l393 383h92l-422 -414l459 -467h-98l-422 432h-49v-432h-70z" />
<glyph unicode="l" horiz-adv-x="377" d="M90 121v1096h70v-1076q0 -15 2 -33t4.5 -37t5 -37.5t4.5 -33.5h-70q-2 12 -4.5 28t-5 33t-4.5 33t-2 27z" />
<glyph unicode="m" horiz-adv-x="1442" d="M82 881h70l14 -115q7 10 22 23.5t32 27t33 25t26 18.5q21 16 44.5 23.5t45.5 7.5h100q31 0 62 -10t53 -27q9 -8 21 -20.5t24.5 -26t23.5 -27t17 -22.5l6 -13q38 47 69.5 71.5t53.5 41.5q21 17 47.5 25t46.5 8h113q31 0 62 -10t52 -27q10 -8 23 -21t26 -27.5t23.5 -28 t15.5 -21.5q14 -20 19.5 -45t5.5 -56v-655h-70v651q0 13 -0.5 24.5t-5.5 20.5q-8 15 -20.5 33t-27.5 34.5t-30 30t-28 21.5q-10 6 -21.5 7t-25.5 1h-105q-9 0 -20.5 -1t-20.5 -7q-12 -7 -33 -22t-44.5 -35.5t-46 -43.5t-36.5 -46v-668h-69v651q0 13 -1.5 24.5t-6.5 20.5 q-8 15 -20.5 32.5t-27 34t-29.5 29.5t-28 21q-9 6 -22 8t-27 2h-92q-10 0 -20 -1.5t-19 -6.5q-14 -8 -39 -23t-51 -35.5t-48.5 -44.5t-31.5 -48v-664h-70v750z" />
<glyph unicode="n" horiz-adv-x="969" d="M82 881h70l14 -115q7 10 22 23.5t32 27t33 25t26 18.5q21 16 44.5 23.5t45.5 7.5h168q29 0 60 -9t52 -26q10 -8 23 -21t26 -27.5t23.5 -28t15.5 -21.5q14 -20 20.5 -46t6.5 -55v-657h-70v653q0 13 -0.5 25.5t-5.5 21.5q-8 15 -20 31.5t-27 32t-30.5 28.5t-28.5 21 q-11 6 -23 8t-24 2h-160q-10 0 -20 -1.5t-19 -6.5q-14 -8 -39 -23t-51 -35.5t-48.5 -44.5t-31.5 -48v-664h-70v750z" />
<glyph unicode="o" horiz-adv-x="936" d="M72 225v430q0 31 5 56t19 45q6 8 16.5 21.5t23.5 28t25.5 27.5t22.5 21q22 17 53 27t62 10h225q31 0 62 -10t53 -27q10 -8 23 -21t26 -27.5t23.5 -28t15.5 -21.5q14 -20 19.5 -45t5.5 -56v-430q0 -31 -5.5 -55.5t-19.5 -44.5q-5 -9 -15.5 -22.5t-23.5 -27.5t-26 -27.5 t-23 -20.5q-22 -17 -53 -27t-62 -10h-225q-31 0 -62 10t-53 27q-10 7 -22.5 20.5t-25.5 27.5t-23.5 27.5t-16.5 22.5q-14 20 -19 44.5t-5 55.5zM141 225q0 -12 0.5 -23.5t5.5 -21.5q8 -15 20.5 -32t27.5 -32t30.5 -28t28.5 -20q11 -7 23 -9t24 -2h223q13 0 24.5 2t22.5 9 q13 7 28 20t29.5 28t27 32t20.5 32q5 11 5.5 22.5t0.5 22.5v432q0 11 -0.5 22.5t-5.5 22.5q-8 15 -20.5 31.5t-27.5 31.5t-30.5 27.5t-28.5 20.5q-11 6 -22.5 8t-24.5 2h-223q-12 0 -24 -2t-23 -8q-13 -8 -28 -20.5t-29.5 -27.5t-27 -31.5t-20.5 -31.5q-5 -9 -5.5 -20.5 t-0.5 -24.5v-432z" />
<glyph unicode="p" horiz-adv-x="958" d="M78 881h69l15 -117q21 24 38 40t30 26.5t23.5 17.5t18.5 12q23 14 48 22.5t47 8.5h180q31 0 61 -10t51 -27q10 -8 23 -20.5t26 -26.5t23.5 -27.5t16.5 -21.5q14 -20 20 -46t6 -55v-436q0 -59 -26 -98q-6 -9 -17 -22.5t-23.5 -27.5t-25.5 -27.5t-23 -20.5q-21 -17 -51 -26 t-61 -9h-180q-22 0 -46.5 7.5t-46.5 22.5q-10 7 -26.5 19.5t-33 27t-31 28.5t-19.5 24v-455h-70v1079zM164 217q9 -24 31.5 -48t48.5 -44.5t51 -36t39 -22.5q9 -5 19 -7t20 -2h176q12 0 24 2t23 9q14 7 28.5 20t28 28.5t24.5 32t19 31.5q5 10 7 22.5t2 24.5v426 q0 13 -2 25.5t-7 21.5q-8 15 -19.5 31t-25 31.5t-28.5 28t-29 20.5q-21 12 -47 12h-174q-10 0 -20 -1.5t-19 -6.5q-15 -8 -39 -24t-49.5 -37t-48 -45t-33.5 -47v-445z" />
<glyph unicode="q" horiz-adv-x="967" d="M82 221v436q0 29 6.5 55t20.5 46q5 8 15.5 21.5t23.5 27.5t26 26.5t23 20.5q21 17 51 27t61 10h180q22 0 47 -8.5t48 -22.5q8 -5 18.5 -12t23.5 -17.5t30 -26.5t38 -40l15 117h69l-16 -138v-1079h-70v453q-5 -10 -19.5 -24t-31 -27.5t-33 -26t-26.5 -19.5 q-22 -15 -46.5 -22.5t-46.5 -7.5h-180q-31 0 -61 9t-51 26q-10 7 -23 20.5t-25.5 27.5t-23 27.5t-16.5 22.5q-14 20 -20.5 44.5t-6.5 53.5zM152 227q0 -12 1.5 -24.5t6.5 -22.5q7 -15 19 -31.5t25.5 -32t28.5 -28.5t29 -20q11 -7 23 -9t24 -2h174q10 0 20 2t19 7 q14 7 39 22.5t51 36t48.5 44.5t31.5 48v445q-11 23 -33 47t-47.5 45t-50 37t-39.5 24q-9 5 -19 6.5t-20 1.5h-172q-25 0 -47 -12q-14 -8 -29 -20.5t-29.5 -28t-26.5 -31.5t-19 -31q-5 -9 -6.5 -21.5t-1.5 -25.5v-426z" />
<glyph unicode="r" horiz-adv-x="803" d="M80 881h70l14 -115q7 10 22 23.5t31.5 27t32.5 25t26 18.5q22 16 45.5 23.5t45.5 7.5h100q31 0 61 -10t52 -27q14 -11 28.5 -26.5t28 -32.5t24.5 -33.5l19 -28.5l-68 -26q-9 13 -20 28t-23 30t-25 27.5t-26 20.5q-11 6 -23 8t-24 2h-98q-10 0 -20 -1.5t-19 -6.5 q-14 -8 -39 -23t-51 -35.5t-48.5 -44.5t-31.5 -48v-664h-70v750z" />
<glyph unicode="s" horiz-adv-x="915" d="M55 147l66 27q7 -13 18 -28.5t24 -30.5t26.5 -27.5t25.5 -19.5q11 -7 23 -9t24 -2h248q12 0 24 2t23 9q26 15 54.5 43t43.5 59q5 9 6 23t1 26v78q0 21 -8 39.5t-21.5 32.5t-31 22t-36.5 10l-338 25q-36 2 -65.5 16.5t-50 37.5t-32 53t-11.5 65v66q0 29 6 55.5t20 46.5 l15 20t20.5 24.5t23 24t21.5 19.5q22 17 53 27t60 10h213q29 0 60 -10t52 -27q15 -11 29.5 -26.5t28 -32.5t24.5 -33.5l19 -28.5l-64 -24q-8 13 -19.5 28t-25 30t-27.5 27t-26 19q-11 6 -22 8t-23 2h-217q-13 0 -26.5 -2t-24.5 -8q-28 -17 -53.5 -43t-41.5 -57 q-5 -10 -5.5 -24.5t-0.5 -26.5v-64q0 -21 8 -39.5t21 -32.5t30.5 -22.5t36.5 -9.5l338 -25q36 -2 65.5 -16.5t50.5 -38t32.5 -54.5t11.5 -65v-78q0 -29 -6 -55.5t-20 -46.5q-6 -9 -15.5 -20.5t-20.5 -23.5t-22.5 -23.5t-21.5 -18.5q-22 -17 -53 -28t-60 -11h-246 q-29 0 -60 10t-52 27q-13 10 -27 25.5t-27.5 32t-25 33t-19.5 29.5z" />
<glyph unicode="t" horiz-adv-x="639" d="M10 813v68h146v336h69v-336h271v-68h-271v-575q0 -11 0.5 -26t5.5 -26q8 -15 20 -30.5t25.5 -29.5t28.5 -26.5t29 -19.5q11 -6 25.5 -9t25.5 -3h109v-68h-111q-31 0 -61 10t-52 27q-10 7 -22.5 20t-25.5 27t-23.5 27.5t-16.5 21.5q-14 20 -20 45.5t-6 54.5v580h-146z" />
<glyph unicode="u" horiz-adv-x="956" d="M82 223v658h70v-654q0 -12 0.5 -24.5t5.5 -22.5q7 -15 19.5 -31.5t27 -32t30 -28.5t29.5 -20q11 -7 23 -9t24 -2h160q9 0 19.5 2t19.5 7q14 7 38.5 22.5t51 36t49 44.5t31.5 48v664h70v-750l14 -131h-70l-14 115q-8 -10 -23 -23.5t-31.5 -27t-32.5 -25.5t-26 -19 q-21 -15 -44.5 -22.5t-45.5 -7.5h-168q-29 0 -60 9t-52 26q-10 7 -23 20.5t-26 27.5t-23.5 27.5t-15.5 22.5q-14 20 -20.5 45.5t-6.5 54.5z" />
<glyph unicode="v" horiz-adv-x="819" d="M18 881h76l246 -807h35l243 807h74l-272 -881h-125z" />
<glyph unicode="w" horiz-adv-x="1315" d="M23 881h71l215 -811h31l215 811h96l213 -811h33l217 811h72l-242 -881h-125l-215 797l-219 -797h-123z" />
<glyph unicode="x" horiz-adv-x="854" d="M51 0l279 453l-267 428h84l226 -377l219 377h86l-264 -428l280 -453h-84l-239 395l-236 -395h-84z" />
<glyph unicode="y" horiz-adv-x="819" d="M18 881h76l248 -809h29l247 809h74l-379 -1217h-77l112 336h-53z" />
<glyph unicode="z" horiz-adv-x="838" d="M55 813v68h596v-64l-495 -749h518v-68h-602v59l495 754h-512z" />
<glyph unicode="{" horiz-adv-x="694" d="M86 252v717q0 24 4.5 47.5t15.5 42.5q8 12 24.5 32.5t36 41.5t38.5 39t31 26q24 17 45 24t47 7h90v-68h-86q-21 0 -37 -8q-14 -8 -32 -23t-36.5 -34.5t-35 -41t-27.5 -40.5q-5 -10 -5.5 -23t-0.5 -22v-721q0 -11 0.5 -21.5t5.5 -19.5q11 -19 28.5 -40.5t37 -41t38.5 -35 t33 -22.5q9 -5 18.5 -7t18.5 -2h80v-67h-90q-25 0 -47.5 9t-42.5 22q-12 8 -31.5 26t-40 39t-37.5 41.5t-25 32.5q-11 17 -14.5 40.5t-3.5 49.5z" />
<glyph unicode="|" horiz-adv-x="313" d="M61 -190v1576h68v-1576h-68z" />
<glyph unicode="}" horiz-adv-x="674" d="M137 -8v67h80q9 0 18.5 2t18.5 7q14 7 33 22.5t38.5 35t37 41t28.5 40.5q5 9 5.5 19.5t0.5 21.5v721q0 9 -0.5 22t-5.5 23q-11 19 -27.5 40.5t-35 41t-36.5 34.5t-32 23q-16 8 -37 8h-86v68h90q26 0 47 -7t45 -24q12 -8 31 -26t38.5 -39t36 -41.5t24.5 -32.5 q11 -19 15.5 -42.5t4.5 -47.5v-717q0 -26 -3.5 -49.5t-14.5 -40.5q-8 -12 -25 -32.5t-37.5 -41.5t-40 -39t-31.5 -26q-20 -13 -42.5 -22t-47.5 -9h-90z" />
<glyph unicode="~" horiz-adv-x="791" d="M76 573l65 21q17 -38 49 -56t64 -12l145 45q30 10 60 7.5t56 -17t47.5 -40.5t33.5 -62l-66 -21q-17 38 -48.5 57t-63.5 13l-142 -45q-30 -10 -60 -7.5t-57 16.5t-49 39.5t-34 61.5z" />
<glyph unicode="&#xa1;" horiz-adv-x="428" d="M92 1096v129h121v-129h-121zM115 0v840h69v-840h-69z" />
<glyph unicode="&#xa2;" horiz-adv-x="913" d="M82 225v430q0 31 5 56t19 45q6 8 16.5 21.5t23.5 28t26 27.5t23 21q21 17 52 27t62 10h70v213h70v-213h83q31 0 61 -10t52 -27q13 -11 27.5 -26.5t28 -32.5t25 -34t19.5 -30l-63 -22q-8 13 -19.5 28t-25 30t-27.5 27t-26 19q-11 6 -23 8t-24 2h-88v-766h94q12 0 24 2 t23 9q12 7 26 19t27 26.5t24 30t19 28.5l66 -25l-19 -28.5t-24.5 -33t-28 -32.5t-29.5 -26q-21 -17 -51 -27t-61 -10h-90v-187h-70v187h-70q-31 0 -62 10t-52 27q-10 7 -23 20.5t-26 27.5t-23.5 27.5t-16.5 22.5q-14 20 -19 44.5t-5 55.5zM151.5 205.5q-0.5 -11.5 4.5 -21.5 q7 -15 20 -32.5t28 -33.5t31 -29.5t29 -20.5q11 -7 23 -9t24 -2h68v766h-68q-12 0 -24 -2t-23 -8q-13 -8 -29 -21t-31 -29.5t-28 -34t-20 -32.5q-5 -9 -4.5 -20.5t0.5 -24.5v-422q0 -12 -0.5 -23.5z" />
<glyph unicode="&#xa3;" horiz-adv-x="1184" d="M88 348v62h84v170h-84v63h84v328q0 26 5 47.5t16 40.5q7 13 24.5 33.5t37.5 41.5t39.5 38.5t31.5 25.5q20 12 46 21.5t46 9.5h235v-70h-233q-9 0 -20.5 -1.5t-20.5 -6.5q-14 -8 -31.5 -22t-35 -31.5t-33.5 -37.5t-27 -40q-2 -5 -4 -18.5t-2 -30.5v-328h487v-63h-487v-170 h487v-62h-487v-278h459q8 0 19.5 2.5t20.5 7.5q16 9 36 26.5t39 39t36 45.5t27 47l71 -23q-11 -24 -27.5 -49.5t-36.5 -49.5t-42 -45.5t-45 -37.5q-20 -13 -46 -23t-46 -10h-539v348h-84z" />
<glyph unicode="&#xa4;" horiz-adv-x="1135" d="M168 352l61 62l-30 39q-11 15 -15 32.5t-4 40.5v219q0 23 4 41t15 33q5 6 13 17t19 22l-61 64l49 49l66 -66q14 8 30 11.5t31 3.5h311q30 0 62 -15l69 70l50 -49l-68 -68q11 -11 20 -22t15 -17q11 -15 14.5 -33t3.5 -41v-219q0 -23 -3.5 -40.5t-14.5 -32.5 q-5 -7 -13.5 -17.5t-19.5 -21.5l66 -64l-50 -49l-69 66q-14 -8 -30 -11.5t-32 -3.5h-311q-17 0 -33.5 3.5t-31.5 13.5l-64 -66zM246 535q0 -10 0.5 -17.5t3.5 -13.5q4 -10 13 -22t19 -23.5t19.5 -20t15.5 -12.5q15 -8 33 -8h303q20 0 33 8q6 4 15.5 12.5t19.5 20t19 23.5 t14 22q3 6 3.5 13.5t0.5 17.5v202q0 10 -0.5 17.5t-3.5 13.5q-5 10 -14 22t-19 23.5t-19.5 20t-15.5 12.5q-13 8 -33 8h-303q-18 0 -33 -8q-6 -4 -15.5 -12.5t-19.5 -20t-19 -23.5t-13 -22q-3 -6 -3.5 -13.5t-0.5 -17.5v-202z" />
<glyph unicode="&#xa5;" horiz-adv-x="965" d="M55 1217h80l314 -578h10l315 578h78l-320 -578h236v-68h-279v-161h279v-68h-279v-342h-73v342h-291v68h291v161h-291v68h246z" />
<glyph unicode="&#xa6;" horiz-adv-x="385" d="M61 -176v682h68v-682h-68zM61 705v681h68v-681h-68z" />
<glyph unicode="&#xa7;" horiz-adv-x="915" d="M55 145l64 25q7 -13 18.5 -28t24.5 -29.5t27 -26t26 -18.5q11 -7 23 -9t24 -2h248q12 0 24 2t23 9q26 15 53.5 42t42.5 58q5 9 5.5 23t0.5 26v57q0 43 -28 70.5t-66 30.5l-338 28q-29 4 -54.5 13.5t-45.5 27.5q-9 10 -19 21.5t-18 23.5q-12 20 -17 41.5t-5 44.5v43 q0 29 6 56t20 47q6 8 15.5 19.5t21 23.5t23.5 23.5t22 19.5q-48 18 -78 62t-30 100v35q0 29 6 55.5t20 46.5l15 20t20.5 24.5t23 24t21.5 19.5q22 17 53 27t60 10h213q29 0 60 -10t52 -27q15 -11 29.5 -26.5t28 -32.5t24.5 -33.5l19 -28.5l-66 -24q-8 13 -19 28t-24 29 t-27 26t-26 19q-11 6 -22 8t-23 2h-217q-13 0 -26.5 -2t-24.5 -8q-28 -17 -52.5 -42t-40.5 -56q-5 -10 -5.5 -24.5t-0.5 -27.5v-32q0 -22 7.5 -40t20.5 -31.5t30 -22t36 -9.5l338 -26q34 -2 63.5 -16.5t51 -38t33.5 -54.5t12 -65v-56q0 -29 -6 -55.5t-20 -46.5 q-5 -8 -13.5 -18t-18.5 -20.5t-20.5 -20.5t-19.5 -19q43 -22 70.5 -63.5t27.5 -94.5v-57q0 -29 -6 -55.5t-20 -46.5q-6 -9 -15.5 -20.5t-20.5 -23.5t-22.5 -23.5t-21.5 -18.5q-22 -17 -53 -28t-60 -11h-246q-29 0 -60 10t-52 27q-13 10 -27 25.5t-27.5 32t-25 33t-19.5 29.5 zM139 575q0 -21 7.5 -39t20.5 -31.5t30 -22t36 -9.5l277 -22q26 0 47 12q26 15 53.5 42t42.5 58q5 9 5.5 23t0.5 26v56q0 43 -28 70t-66 30l-260 23q-12 0 -26 -2.5t-25 -8.5q-14 -8 -30 -21t-31 -28t-27.5 -31.5t-20.5 -31.5q-5 -10 -5.5 -24.5t-0.5 -27.5v-41z" />
<glyph unicode="&#xa8;" horiz-adv-x="743" d="M215 1133v114h111v-114h-111zM489 1133v114h111v-114h-111z" />
<glyph unicode="&#xa9;" horiz-adv-x="1272" d="M84 250v713q0 24 4.5 47.5t15.5 42.5q8 13 25 34t37.5 42.5t40 40t31.5 26.5q20 12 45 21.5t47 9.5h497q22 0 48.5 -9.5t46.5 -21.5q12 -8 31 -26t38.5 -39t36.5 -42t25 -34q12 -19 18 -42.5t6 -47.5v-715q0 -25 -6 -48.5t-18 -41.5q-8 -12 -25 -32t-36.5 -40.5 t-38.5 -38.5t-31 -26q-20 -13 -46.5 -22t-48.5 -9h-499q-22 0 -47 9t-45 22q-12 8 -31.5 26t-39 38.5t-36.5 40.5t-25 32q-11 18 -15.5 41.5t-4.5 48.5zM154 254q0 -9 1.5 -20.5t6.5 -20.5q10 -19 27 -41t36.5 -42t38.5 -36.5t33 -23.5q8 -5 18 -7t19 -2h487q10 0 19.5 2 t17.5 7q14 7 34 23.5t40.5 36.5t38.5 42t28 41q5 9 7 20.5t2 20.5v707q0 11 -3 21.5t-8 18.5q-11 19 -28 42t-36 44t-38 37.5t-33 24.5q-8 5 -18.5 6.5t-20.5 1.5h-489q-9 0 -20 -1.5t-19 -6.5q-14 -8 -33 -24.5t-38 -37t-35.5 -42.5t-26.5 -41q-5 -10 -6.5 -22t-1.5 -21 v-707zM305 496v231q0 55 29 98q4 8 14.5 21t22.5 27t25 27t22 20q21 17 50 24.5t58 7.5h136q41 0 86 -39q17 -15 37 -35.5t40 -41.5l-59 -31q-20 18 -40 38.5t-34 28.5q-6 5 -15 9t-20 4h-129q-12 0 -25.5 -1t-23.5 -7q-13 -8 -27 -20t-26.5 -26.5t-24 -30t-18.5 -30.5 q-5 -9 -6.5 -20.5t-1.5 -22.5v-227q0 -11 1.5 -23.5t6.5 -21.5q7 -15 19 -31t25.5 -31t28 -28t27.5 -21q10 -6 21.5 -7t23.5 -1h129q24 0 35 8q14 8 34 28.5t40 39.5l63 -23q-20 -23 -41 -43.5t-38 -36.5q-20 -17 -45 -29t-43 -12h-136q-29 0 -58 10t-50 27q-9 7 -22 19.5 t-25 26t-22.5 26t-14.5 20.5q-29 44 -29 99z" />
<glyph unicode="&#xaa;" horiz-adv-x="762" d="M72 797v256q0 23 3.5 41t14.5 32q4 7 11.5 17t17 20.5t19 20t16.5 14.5q17 12 39.5 20.5t44.5 8.5h147q22 0 44 -11.5t38 -23.5q5 -3 10.5 -8.5t11.5 -12.5v48h62v-459q0 -13 2 -29.5t4.5 -33.5t5 -33.5t4.5 -30.5h-61l-12 63l-27 -22q-8 -6 -21 -14.5t-27.5 -16t-29 -13 t-24.5 -5.5h-127q-22 0 -44.5 8t-39.5 20q-7 6 -16.5 15t-19 19.5t-17 20.5t-11.5 17q-11 14 -14.5 32t-3.5 40zM137 807q0 -8 0.5 -16.5t3.5 -14.5q11 -21 32 -44t40 -34q13 -8 33 -8h112q15 0 31 8q9 6 23 15t27.5 19.5t25 21.5t16.5 22q3 8 3.5 16.5t0.5 14.5v237 q0 8 -0.5 16.5t-3.5 14.5q-11 23 -32 45t-39 33q-17 8 -33 8h-131q-20 0 -33 -8q-19 -11 -40 -33t-32 -45q-3 -6 -3.5 -13.5t-0.5 -17.5v-237z" />
<glyph unicode="&#xab;" horiz-adv-x="1077" d="M150 506l274 317l78 -26l-256 -289l254 -291l-76 -24zM463 506l274 317l78 -26l-256 -289l254 -291l-76 -24z" />
<glyph unicode="&#xac;" horiz-adv-x="1229" d="M49 475v70h858l2 -330h-69v260h-791z" />
<glyph unicode="&#xad;" horiz-adv-x="709" d="M76 475v68h438v-68h-438z" />
<glyph unicode="&#xae;" horiz-adv-x="1272" d="M84 250v713q0 24 4.5 47.5t15.5 42.5q8 13 25 34t37.5 42.5t40 40t31.5 26.5q20 12 45 21.5t47 9.5h497q22 0 48.5 -9.5t46.5 -21.5q12 -8 31 -26t38.5 -39t36.5 -42t25 -34q12 -19 18 -42.5t6 -47.5v-715q0 -25 -6 -48.5t-18 -41.5q-8 -12 -25 -32t-36.5 -40.5 t-38.5 -38.5t-31 -26q-20 -13 -46.5 -22t-48.5 -9h-499q-22 0 -47 9t-45 22q-12 8 -31.5 26t-39 38.5t-36.5 40.5t-25 32q-11 18 -15.5 41.5t-4.5 48.5zM154 254q0 -9 1.5 -20.5t6.5 -20.5q10 -19 27 -41t36.5 -42t38.5 -36.5t33 -23.5q8 -5 18 -7t19 -2h487q10 0 19.5 2 t17.5 7q14 7 34 23.5t40.5 36.5t38.5 42t28 41q5 9 7 20.5t2 20.5v707q0 11 -3 21.5t-8 18.5q-11 19 -28 42t-36 44t-38 37.5t-33 24.5q-8 5 -18.5 6.5t-20.5 1.5h-489q-9 0 -20 -1.5t-19 -6.5q-14 -8 -33 -24.5t-38 -37t-35.5 -42.5t-26.5 -41q-5 -10 -6.5 -22t-1.5 -21 v-707zM340 240v737h283q31 0 61 -10t51 -27q10 -8 23 -20.5t25 -26.5t22.5 -27.5t15.5 -21.5q14 -20 20.5 -46t6.5 -55v-32q0 -29 -6.5 -55t-20.5 -46q-5 -8 -15.5 -21t-23.5 -26.5t-26 -26t-23 -20.5q-9 -8 -19.5 -12.5t-23.5 -9.5l178 -254h-88l-159 237h-211v-237h-70z M410 545h217q24 0 47 12q28 17 55.5 45.5t42.5 59.5q5 9 6.5 21.5t1.5 25.5v34q0 27 -8 43q-8 15 -19.5 31t-26 31t-29.5 27.5t-29 21.5q-23 12 -47 12h-211v-364z" />
<glyph unicode="&#xaf;" horiz-adv-x="616" d="M90 1151v68h322v-68h-322z" />
<glyph unicode="&#xb0;" horiz-adv-x="766" d="M152 1188q0 38 15 72t40.5 59.5t60 40t72.5 14.5t72.5 -14.5t60 -40t40.5 -59.5t15 -72q0 -40 -15 -74.5t-40.5 -60t-60 -40t-72.5 -14.5t-72.5 14.5t-60 40t-40.5 60t-15 74.5zM219 1188q0 -57 33.5 -92t87.5 -35t88.5 35t34.5 92q0 27 -9 50t-25.5 39.5t-39 26 t-49.5 9.5q-54 0 -87.5 -35.5t-33.5 -89.5z" />
<glyph unicode="&#xb1;" horiz-adv-x="1061" d="M113 -47h686v-68h-686v68zM115 475v70h307v325h70v-325h307v-70h-307v-325h-70v325h-307z" />
<glyph unicode="&#xb2;" horiz-adv-x="608" d="M43 1122q7 11 18.5 22t24.5 21.5t24.5 19t18.5 13.5q17 12 39.5 20.5t44.5 8.5h127q22 0 44 -8.5t38 -20.5q7 -5 17 -14.5t19.5 -20t17 -20.5t11.5 -17q19 -26 19 -73v-21q0 -49 -19.5 -77t-68.5 -44l-254 -86q-12 -5 -21 -10.5t-14 -13t-7.5 -19.5t-2.5 -30v-52h385v-69 h-455v129q0 52 26 85t79 50q90 30 142.5 46.5t79.5 25.5t36 12.5t14 7.5q11 9 12.5 22.5t1.5 34.5q0 8 -0.5 16.5t-3.5 14.5q-11 23 -32 45t-39 33q-17 8 -33 8h-111q-20 0 -35 -8q-8 -5 -18.5 -11.5t-21.5 -15t-21 -17t-16 -15.5z" />
<glyph unicode="&#xb3;" horiz-adv-x="610" d="M43 729l63 29q13 -19 37 -34.5t39 -25.5q8 -5 19 -6.5t20 -1.5h111q16 0 33 8q18 11 39 33t32 45q3 6 3.5 14.5t0.5 16.5v8q0 12 -4 25.5t-12 25t-19 19.5t-26 10h-6h-156v61h156q16 0 28.5 7.5t21 19.5t13 26t4.5 27v8q0 8 -0.5 16.5t-3.5 14.5q-11 23 -32 45t-39 33 q-17 8 -33 8h-111q-19 0 -35 -6q-8 -4 -19.5 -10.5t-22.5 -15t-21.5 -17.5t-16.5 -18l-63 28q0 6 10 17.5t23.5 23.5t27 22t21.5 15q19 11 42.5 19t45.5 8h127q22 0 44 -8.5t38 -20.5q7 -5 17 -14.5t19.5 -20t17 -20.5t11.5 -17q19 -26 19 -73v-19q0 -34 -13 -62t-34 -46 q21 -19 34 -47t13 -62v-18q0 -48 -19 -74q-4 -7 -11.5 -17t-17 -20.5t-19.5 -19.5t-17 -15q-16 -12 -38 -20t-44 -8h-127q-22 0 -44.5 6.5t-39.5 17.5t-43 31t-43 49z" />
<glyph unicode="&#xb4;" horiz-adv-x="760" d="M311 1069l195 248h84l-217 -275z" />
<glyph unicode="&#xb5;" horiz-adv-x="956" d="M82 -334v1215h70v-664q9 -24 31.5 -48t48.5 -44.5t51 -36t39 -22.5q9 -5 19 -7t19 -2h111q9 0 19.5 2t19.5 7q14 7 38.5 22.5t51 36t49 44.5t31.5 48v664h70v-750l14 -131h-70l-16 115q-8 -10 -22.5 -23.5t-31 -27t-32 -25.5t-25.5 -19q-21 -15 -44.5 -22.5t-45.5 -7.5 h-123q-21 0 -44.5 7.5t-45.5 22.5q-10 7 -25.5 19.5t-32 26t-31.5 27.5t-23 24v-453z" />
<glyph unicode="&#xb6;" horiz-adv-x="1049" d="M90 807v170q0 28 6.5 51t20.5 45q4 8 17 22.5t28.5 31t30.5 31t24 22.5q22 17 51 27t58 10h548v-1217h-73v569h-166v-569h-74v569h-235q-29 0 -58 10t-51 27q-9 8 -24 22.5t-30.5 30t-28.5 30t-17 22.5q-27 40 -27 96zM164 811q0 -11 1.5 -22.5t6.5 -22.5q8 -15 20.5 -32 t27.5 -32t30.5 -28t28.5 -21q11 -6 24.5 -8t24.5 -2h233v502h-233q-13 0 -25.5 -2t-23.5 -8q-14 -9 -29.5 -22.5t-30 -29.5t-27 -33t-20.5 -32q-5 -11 -6.5 -22.5t-1.5 -22.5v-162zM635 643h166v502h-166v-502z" />
<glyph unicode="&#xb7;" horiz-adv-x="586" d="M156 434v160h118v-160h-118z" />
<glyph unicode="&#xb8;" horiz-adv-x="831" d="M229 -340l162 260l70 -29l-152 -231h-80z" />
<glyph unicode="&#xb9;" horiz-adv-x="610" d="M102 631v67h142v457h-121v70h192v-527h127v-67h-340z" />
<glyph unicode="&#xba;" horiz-adv-x="801" d="M96 799v254q0 23 4 40.5t15 32.5q4 6 12.5 16.5t18 21t18.5 20t16 14.5q17 14 38.5 21.5t43.5 7.5h148q21 0 43 -7.5t39 -21.5q7 -5 16 -14.5t18.5 -20t17.5 -21t13 -16.5q11 -15 14.5 -32.5t3.5 -40.5v-254q0 -23 -3.5 -41t-14.5 -33q-5 -6 -13 -16t-17.5 -20.5 t-18.5 -20t-16 -15.5q-17 -14 -39 -21t-43 -7h-148q-46 0 -82 28q-7 6 -16 15.5t-18.5 20t-18 20.5t-12.5 16q-11 15 -15 33t-4 41zM162 807q0 -9 0.5 -17t3.5 -14q4 -10 13 -21.5t19 -23t19.5 -20.5t15.5 -13q15 -8 33 -8h140q19 0 32 8q6 4 16 13t20 20.5t18.5 23 t13.5 21.5q3 6 3.5 14t0.5 17v237q0 10 -0.5 17.5t-3.5 13.5q-5 10 -13.5 22t-18.5 23.5t-20 20t-16 12.5q-13 8 -32 8h-140q-18 0 -33 -8q-6 -4 -15.5 -12.5t-19.5 -20t-19 -23.5t-13 -22q-3 -6 -3.5 -13.5t-0.5 -17.5v-237z" />
<glyph unicode="&#xbb;" horiz-adv-x="1077" d="M150 797l77 26l275 -317l-275 -313l-75 24l254 291zM463 797l78 26l274 -317l-274 -313l-76 24l254 291z" />
<glyph unicode="&#xbc;" horiz-adv-x="1339" d="M90 631v67h141v457h-120v70h192v-527h127v-67h-340zM262 0l619 1225h75l-616 -1225h-78zM643 152v61l313 383h68v-375h121v-69h-121v-152h-72v152h-309zM731 221h221v266z" />
<glyph unicode="&#xbd;" horiz-adv-x="1335" d="M90 631v67h141v457h-120v70h192v-527h127v-67h-340zM262 0l619 1225h75l-616 -1225h-78zM770 492q7 10 18.5 21.5t24.5 21.5t24.5 18.5t18.5 13.5q17 13 39.5 21t44.5 8h127q22 0 44 -8t38 -21q7 -5 17 -14.5t19.5 -19.5t17 -20t11.5 -17q19 -28 19 -74v-21 q0 -49 -19.5 -77t-68.5 -43l-254 -86q-12 -6 -21 -11t-14 -13t-7.5 -20t-2.5 -30v-51h385v-70h-455v129q0 53 26 85.5t79 49.5q90 30 142.5 46.5t79.5 25.5t36 12.5t14 7.5q11 10 12.5 23t1.5 35q0 8 -0.5 16t-3.5 14q-11 23 -32 45t-39 33q-17 8 -33 8h-111q-20 0 -35 -8 q-8 -5 -18.5 -11.5t-21.5 -15t-21 -17t-16 -15.5z" />
<glyph unicode="&#xbe;" horiz-adv-x="1339" d="M43 729l63 29q13 -19 37 -34.5t39 -25.5q8 -5 19 -6.5t20 -1.5h111q16 0 33 8q18 11 39 33t32 45q3 6 3.5 14.5t0.5 16.5v8q0 12 -4 25.5t-12 25t-19 19.5t-26 10h-6h-156v61h156q16 0 28.5 7.5t21 19.5t13 26t4.5 27v8q0 8 -0.5 16.5t-3.5 14.5q-11 23 -32 45t-39 33 q-17 8 -33 8h-111q-19 0 -35 -6q-8 -4 -19.5 -10.5t-22.5 -15t-21.5 -17.5t-16.5 -18l-63 28q0 6 10 17.5t23.5 23.5t27 22t21.5 15q19 11 42.5 19t45.5 8h127q22 0 44 -8.5t38 -20.5q7 -5 17 -14.5t19.5 -20t17 -20.5t11.5 -17q19 -26 19 -73v-19q0 -34 -13 -62t-34 -46 q21 -19 34 -47t13 -62v-18q0 -48 -19 -74q-4 -7 -11.5 -17t-17 -20.5t-19.5 -19.5t-17 -15q-16 -12 -38 -20t-44 -8h-127q-22 0 -44.5 6.5t-39.5 17.5t-43 31t-43 49zM262 0l619 1225h75l-616 -1225h-78zM643 152v61l313 383h68v-375h121v-69h-121v-152h-72v152h-309z M731 221h221v266z" />
<glyph unicode="&#xbf;" horiz-adv-x="909" d="M92 238v147q0 59 32.5 105.5t82.5 72.5l133 72q15 7 29 19.5t25 28t17.5 34.5t6.5 39v110h74v-121q0 -58 -33 -100.5t-88 -71.5l-133 -75q-31 -17 -51.5 -48t-20.5 -69l-2 -139q0 -11 1.5 -22.5t6.5 -22.5q8 -15 20.5 -32.5t27.5 -33t30.5 -29t28.5 -20.5q11 -6 23.5 -8 t23.5 -2h239q8 0 20 1t21 7q16 9 36 26t39 38t35.5 44.5t26.5 44.5l72 -22q-12 -23 -28.5 -48.5t-35.5 -50t-40.5 -45.5t-44.5 -36q-20 -13 -47.5 -22t-47.5 -9h-247q-29 0 -58 9t-51 26q-9 7 -23.5 21.5t-29 31t-27 31t-16.5 22.5q-14 22 -20.5 46.5t-6.5 50.5zM393 1096 v129h121v-129h-121z" />
<glyph unicode="&#xc0;" horiz-adv-x="1042" d="M-10 0l393 1217h149l394 -1217h-78l-94 291h-592l-96 -291h-76zM182 362h551l-248 785h-57zM297 1610h86l195 -248l-64 -27z" />
<glyph unicode="&#xc1;" horiz-adv-x="1049" d="M-4 0l393 1217h150l393 -1217h-78l-94 291h-592l-96 -291h-76zM188 362h551l-247 785h-58zM350 1364l195 248h84l-217 -275z" />
<glyph unicode="&#xc2;" horiz-adv-x="1049" d="M-4 0l393 1217h150l393 -1217h-78l-94 291h-592l-96 -291h-76zM188 362h551l-247 785h-58zM209 1337l217 277h78l217 -277h-86l-170 219l-172 -219h-84z" />
<glyph unicode="&#xc3;" horiz-adv-x="1049" d="M-4 0l393 1217h150l393 -1217h-78l-94 291h-592l-96 -291h-76zM188 362h551l-247 785h-58zM203 1501l65 21q17 -39 49 -56.5t64 -11.5l145 45q30 10 60 7.5t56 -17.5t47.5 -41t33.5 -62l-66 -20q-17 38 -48.5 57t-63.5 13l-142 -45q-30 -10 -60 -7.5t-57 16.5t-49 39.5 t-34 61.5z" />
<glyph unicode="&#xc4;" horiz-adv-x="1049" d="M-4 0l393 1217h150l393 -1217h-78l-94 291h-592l-96 -291h-76zM188 362h551l-247 785h-58zM268 1405v115h111v-115h-111zM543 1405v115h110v-115h-110z" />
<glyph unicode="&#xc5;" horiz-adv-x="1049" d="M-4 0l393 1217h150l393 -1217h-78l-94 291h-592l-96 -291h-76zM188 362h551l-247 785h-58zM274 1540q0 38 15 72t41 59.5t60 40t73 14.5q38 0 72.5 -14.5t60 -40t40.5 -59.5t15 -72q0 -40 -15 -74t-40.5 -59.5t-60 -40t-72.5 -14.5q-39 0 -73 14.5t-60 40t-41 59.5 t-15 74zM342 1540q0 -57 33.5 -92t87.5 -35t88.5 35t34.5 92q0 27 -9 50t-25.5 39.5t-39 26t-49.5 9.5q-54 0 -87.5 -35.5t-33.5 -89.5z" />
<glyph unicode="&#xc6;" horiz-adv-x="1470" d="M10 0l516 1217h713v-74h-528v-500h487v-72h-487v-499h528v-72h-602v289h-424l-125 -289h-78zM244 362h393v781h-64z" />
<glyph unicode="&#xc7;" horiz-adv-x="1061" d="M102 0zM102 244v727q0 52 23 88q7 12 24 32.5t36.5 41.5t39 39t31.5 26q19 12 42 21.5t48 9.5h291q29 0 49.5 -9.5t40.5 -21.5q23 -15 45 -36.5t42 -46t37 -49.5t30 -48l-72 -23q-12 22 -29.5 45.5t-36.5 44.5t-38 38t-35 26q-10 5 -20.5 6.5t-18.5 1.5h-281 q-18 0 -35 -8q-14 -8 -31.5 -23t-35.5 -33.5t-34.5 -39t-27.5 -39.5q-5 -8 -7.5 -23t-2.5 -24v-723q0 -17 10 -37q11 -19 28 -40.5t36 -41t37 -35t32 -22.5q10 -5 18 -7t17 -2h279q8 0 17.5 2t19.5 7q15 9 34 26.5t37.5 38.5t35 43.5t28.5 42.5l76 -20q-13 -23 -30 -48.5 t-37 -50t-42 -46t-45 -36.5q-20 -12 -40.5 -21t-49.5 -9h-289q-25 0 -48.5 9t-43.5 21q-12 8 -31.5 26t-39 38.5t-36.5 41t-24 32.5q-12 18 -17.5 40.5t-5.5 47.5zM368 -340l162 260l70 -29l-152 -231h-80z" />
<glyph unicode="&#xc8;" horiz-adv-x="1006" d="M102 0v1217h672v-72h-598v-496h559v-71h-559v-506h598v-72h-672zM291 1612h86l194 -248l-63 -27z" />
<glyph unicode="&#xc9;" horiz-adv-x="1006" d="M102 0v1217h672v-72h-598v-496h559v-71h-559v-506h598v-72h-672zM358 1362l195 248h84l-217 -275z" />
<glyph unicode="&#xca;" horiz-adv-x="1006" d="M102 0v1217h672v-72h-598v-496h559v-71h-559v-506h598v-72h-672zM193 1337l217 277h77l218 -277h-87l-169 219l-173 -219h-83z" />
<glyph unicode="&#xcb;" horiz-adv-x="1006" d="M102 0v1217h672v-72h-598v-496h559v-71h-559v-506h598v-72h-672zM268 1405v115h111v-115h-111zM543 1405v115h110v-115h-110z" />
<glyph unicode="&#xcc;" horiz-adv-x="471" d="M-72 1612h86l195 -248l-64 -27zM102 0v1217h74v-1217h-74z" />
<glyph unicode="&#xcd;" horiz-adv-x="471" d="M70 1364l194 248h84l-217 -275zM102 0v1217h74v-1217h-74z" />
<glyph unicode="&#xce;" horiz-adv-x="471" d="M-113 1337l217 277h78l217 -277h-86l-170 219l-172 -219h-84zM102 0v1217h74v-1217h-74z" />
<glyph unicode="&#xcf;" horiz-adv-x="471" d="M-51 1415v115h110v-115h-110zM102 0v1217h74v-1217h-74zM223 1415v115h111v-115h-111z" />
<glyph unicode="&#xd0;" horiz-adv-x="1139" d="M-20 575v68h165v574h531q22 0 47 -8.5t45 -20.5q12 -8 30.5 -26t38 -39.5t36 -42t24.5 -33.5q11 -19 17 -41.5t6 -47.5v-702q0 -25 -6 -47t-17 -41q-8 -12 -24.5 -32.5t-36 -41t-38 -38.5t-30.5 -25q-22 -13 -46 -22t-46 -9h-531v575h-165zM217 72h453q9 0 19 1.5t20 6.5 q13 7 31 22.5t36 35t34.5 41t27.5 40.5q5 9 6.5 18.5t1.5 18.5v700q0 10 -1 20t-7 21q-11 19 -27 40.5t-33.5 41t-35 35t-31.5 23.5q-17 8 -35 8h-459v-502h320v-68h-320v-503z" />
<glyph unicode="&#xd1;" horiz-adv-x="1106" d="M102 0v1217h142l540 -1147h19v1147h74v-1217h-142l-538 1149h-21v-1149h-74zM229 1501l66 21q17 -39 49 -56.5t64 -11.5l145 45q30 10 60 7.5t56 -17.5t47.5 -41t33.5 -62l-66 -20q-17 38 -49 57t-64 13l-141 -45q-30 -10 -60.5 -7.5t-57.5 16.5t-49 39.5t-34 61.5z" />
<glyph unicode="&#xd2;" horiz-adv-x="1143" d="M104 0zM104 246v723q0 50 21 88q7 12 24.5 32.5t37.5 42t39.5 40t31.5 26.5q20 14 45 22.5t45 8.5h344q20 0 46 -8.5t46 -22.5q12 -8 31.5 -26t39 -39t36 -41.5t24.5 -32.5q11 -19 17 -42.5t6 -47.5v-723q0 -25 -5 -48.5t-18 -41.5q-8 -12 -24.5 -32.5t-36 -41t-39 -38.5 t-31.5 -26q-20 -12 -46 -21t-46 -9h-344q-20 0 -45 9t-45 21q-12 9 -31.5 27t-39.5 38.5t-37.5 40.5t-24.5 32q-13 18 -17 41.5t-4 48.5zM178 244q0 -26 8 -39q11 -18 29.5 -39t38.5 -41t38 -35.5t29 -21.5q10 -5 18 -7t17 -2h330q9 0 18.5 2t18.5 7q14 7 32 22.5t36.5 34.5 t35.5 40t29 40q5 8 6.5 19.5t1.5 21.5v725q0 9 -1 19.5t-7 21.5q-11 19 -28 40t-35.5 40t-37 34t-32.5 23q-9 5 -18.5 6.5t-18.5 1.5h-330q-18 0 -35 -8q-14 -8 -32 -23t-37 -34t-36 -40t-28 -40q-10 -18 -10 -41v-727zM374 1616h86l195 -248l-63 -27z" />
<glyph unicode="&#xd3;" horiz-adv-x="1143" d="M104 0zM104 246v723q0 50 21 88q7 12 24.5 32.5t37.5 42t39.5 40t31.5 26.5q20 14 45 22.5t45 8.5h344q20 0 46 -8.5t46 -22.5q12 -8 31.5 -26t39 -39t36 -41.5t24.5 -32.5q11 -19 17 -42.5t6 -47.5v-723q0 -25 -5 -48.5t-18 -41.5q-8 -12 -24.5 -32.5t-36 -41t-39 -38.5 t-31.5 -26q-20 -12 -46 -21t-46 -9h-344q-20 0 -45 9t-45 21q-12 9 -31.5 27t-39.5 38.5t-37.5 40.5t-24.5 32q-13 18 -17 41.5t-4 48.5zM178 244q0 -26 8 -39q11 -18 29.5 -39t38.5 -41t38 -35.5t29 -21.5q10 -5 18 -7t17 -2h330q9 0 18.5 2t18.5 7q14 7 32 22.5t36.5 34.5 t35.5 40t29 40q5 8 6.5 19.5t1.5 21.5v725q0 9 -1 19.5t-7 21.5q-11 19 -28 40t-35.5 40t-37 34t-32.5 23q-9 5 -18.5 6.5t-18.5 1.5h-330q-18 0 -35 -8q-14 -8 -32 -23t-37 -34t-36 -40t-28 -40q-10 -18 -10 -41v-727zM405 1366l195 248h84l-217 -275z" />
<glyph unicode="&#xd4;" horiz-adv-x="1143" d="M104 0zM104 246v723q0 50 21 88q7 12 24.5 32.5t37.5 42t39.5 40t31.5 26.5q20 14 45 22.5t45 8.5h344q20 0 46 -8.5t46 -22.5q12 -8 31.5 -26t39 -39t36 -41.5t24.5 -32.5q11 -19 17 -42.5t6 -47.5v-723q0 -25 -5 -48.5t-18 -41.5q-8 -12 -24.5 -32.5t-36 -41t-39 -38.5 t-31.5 -26q-20 -12 -46 -21t-46 -9h-344q-20 0 -45 9t-45 21q-12 9 -31.5 27t-39.5 38.5t-37.5 40.5t-24.5 32q-13 18 -17 41.5t-4 48.5zM178 244q0 -26 8 -39q11 -18 29.5 -39t38.5 -41t38 -35.5t29 -21.5q10 -5 18 -7t17 -2h330q9 0 18.5 2t18.5 7q14 7 32 22.5t36.5 34.5 t35.5 40t29 40q5 8 6.5 19.5t1.5 21.5v725q0 9 -1 19.5t-7 21.5q-11 19 -28 40t-35.5 40t-37 34t-32.5 23q-9 5 -18.5 6.5t-18.5 1.5h-330q-18 0 -35 -8q-14 -8 -32 -23t-37 -34t-36 -40t-28 -40q-10 -18 -10 -41v-727zM268 1339l217 277h78l217 -277h-86l-170 220 l-172 -220h-84z" />
<glyph unicode="&#xd5;" horiz-adv-x="1143" d="M104 0zM104 246v723q0 50 21 88q7 12 24.5 32.5t37.5 42t39.5 40t31.5 26.5q20 14 45 22.5t45 8.5h344q20 0 46 -8.5t46 -22.5q12 -8 31.5 -26t39 -39t36 -41.5t24.5 -32.5q11 -19 17 -42.5t6 -47.5v-723q0 -25 -5 -48.5t-18 -41.5q-8 -12 -24.5 -32.5t-36 -41t-39 -38.5 t-31.5 -26q-20 -12 -46 -21t-46 -9h-344q-20 0 -45 9t-45 21q-12 9 -31.5 27t-39.5 38.5t-37.5 40.5t-24.5 32q-13 18 -17 41.5t-4 48.5zM178 244q0 -26 8 -39q11 -18 29.5 -39t38.5 -41t38 -35.5t29 -21.5q10 -5 18 -7t17 -2h330q9 0 18.5 2t18.5 7q14 7 32 22.5t36.5 34.5 t35.5 40t29 40q5 8 6.5 19.5t1.5 21.5v725q0 9 -1 19.5t-7 21.5q-11 19 -28 40t-35.5 40t-37 34t-32.5 23q-9 5 -18.5 6.5t-18.5 1.5h-330q-18 0 -35 -8q-14 -8 -32 -23t-37 -34t-36 -40t-28 -40q-10 -18 -10 -41v-727zM258 1501l65 20q17 -38 49 -55.5t64 -11.5l145 45 q30 10 60 7.5t56 -17.5t47.5 -41t33.5 -62l-65 -20q-17 38 -49 57t-64 12l-141 -45q-30 -10 -60.5 -7.5t-57.5 17t-49 40t-34 61.5z" />
<glyph unicode="&#xd6;" horiz-adv-x="1143" d="M104 0zM104 246v723q0 50 21 88q7 12 24.5 32.5t37.5 42t39.5 40t31.5 26.5q20 14 45 22.5t45 8.5h344q20 0 46 -8.5t46 -22.5q12 -8 31.5 -26t39 -39t36 -41.5t24.5 -32.5q11 -19 17 -42.5t6 -47.5v-723q0 -25 -5 -48.5t-18 -41.5q-8 -12 -24.5 -32.5t-36 -41t-39 -38.5 t-31.5 -26q-20 -12 -46 -21t-46 -9h-344q-20 0 -45 9t-45 21q-12 9 -31.5 27t-39.5 38.5t-37.5 40.5t-24.5 32q-13 18 -17 41.5t-4 48.5zM178 244q0 -26 8 -39q11 -18 29.5 -39t38.5 -41t38 -35.5t29 -21.5q10 -5 18 -7t17 -2h330q9 0 18.5 2t18.5 7q14 7 32 22.5t36.5 34.5 t35.5 40t29 40q5 8 6.5 19.5t1.5 21.5v725q0 9 -1 19.5t-7 21.5q-11 19 -28 40t-35.5 40t-37 34t-32.5 23q-9 5 -18.5 6.5t-18.5 1.5h-330q-18 0 -35 -8q-14 -8 -32 -23t-37 -34t-36 -40t-28 -40q-10 -18 -10 -41v-727zM328 1401v114h111v-114h-111zM602 1401v114h111v-114 h-111z" />
<glyph unicode="&#xd7;" horiz-adv-x="1061" d="M176 285l230 229l-228 229l49 50l228 -230l229 230l49 -50l-229 -229l227 -227l-49 -49l-227 227l-230 -229z" />
<glyph unicode="&#xd8;" horiz-adv-x="1143" d="M104 246v719q0 24 5 47.5t16 42.5q7 12 24.5 32.5t37.5 41.5t39.5 39t31.5 26q20 12 45 21.5t45 9.5h344q16 0 35.5 -7t38.5 -16l18 35h76l-39 -76q14 -13 28.5 -28t27 -29.5t23 -27.5t15.5 -21q11 -19 17 -42.5t6 -47.5v-719q0 -25 -5 -48.5t-18 -41.5 q-8 -12 -24.5 -32.5t-36 -41t-39 -38.5t-31.5 -26q-20 -12 -46 -21t-46 -9h-344q-20 0 -45 9t-45 21q-2 2 -4 3.5t-4 3.5l-23 -45h-77l47 92q-23 23 -43.5 46.5t-28.5 37.5q-11 18 -16 41.5t-5 48.5zM178 246q0 -24 6 -39q8 -16 21.5 -30t27.5 -30l500 990q-3 3 -5.5 4.5 t-4.5 3.5q-9 5 -18.5 6.5t-18.5 1.5h-330q-18 0 -34 -8q-14 -8 -32.5 -23.5t-37.5 -35t-36 -40.5t-28 -40q-10 -18 -10 -41v-719zM285 94q11 -9 21 -15t18 -11q9 -5 17 -7t17 -2h326q9 0 18.5 2t18.5 7q14 7 32.5 23t38 36t36.5 41.5t28 40.5q8 16 8 37v719q0 9 -1 19.5 t-7 21.5q-12 20 -31 43t-39 43z" />
<glyph unicode="&#xd9;" horiz-adv-x="1094" d="M86 244v973h74v-975q0 -13 3.5 -22t6.5 -17q11 -19 28.5 -39.5t37 -39.5t38.5 -34t33 -22q9 -5 17.5 -7t17.5 -2h272q10 0 19 2t18 7q14 7 33 22t38.5 34t36.5 39.5t27 39.5q4 8 6.5 17t2.5 22v975h73v-973q0 -50 -22 -88q-8 -12 -25 -32.5t-36.5 -41t-38.5 -38.5 t-31 -26q-20 -12 -45 -21t-45 -9h-293q-20 0 -46 9t-46 21q-12 8 -31.5 26t-39 38.5t-36.5 41t-24 32.5q-13 18 -18 40.5t-5 47.5zM340 1614h86l195 -248l-64 -27z" />
<glyph unicode="&#xda;" horiz-adv-x="1094" d="M86 244v973h74v-975q0 -13 3.5 -22t6.5 -17q11 -19 28.5 -39.5t37 -39.5t38.5 -34t33 -22q9 -5 17.5 -7t17.5 -2h272q10 0 19 2t18 7q14 7 33 22t38.5 34t36.5 39.5t27 39.5q4 8 6.5 17t2.5 22v975h73v-973q0 -50 -22 -88q-8 -12 -25 -32.5t-36.5 -41t-38.5 -38.5 t-31 -26q-20 -12 -45 -21t-45 -9h-293q-20 0 -46 9t-46 21q-12 8 -31.5 26t-39 38.5t-36.5 41t-24 32.5q-13 18 -18 40.5t-5 47.5zM358 1366l195 248h84l-217 -275z" />
<glyph unicode="&#xdb;" horiz-adv-x="1094" d="M86 244v973h74v-975q0 -13 3.5 -22t6.5 -17q11 -19 28.5 -39.5t37 -39.5t38.5 -34t33 -22q9 -5 17.5 -7t17.5 -2h272q10 0 19 2t18 7q14 7 33 22t38.5 34t36.5 39.5t27 39.5q4 8 6.5 17t2.5 22v975h73v-973q0 -50 -22 -88q-8 -12 -25 -32.5t-36.5 -41t-38.5 -38.5 t-31 -26q-20 -12 -45 -21t-45 -9h-293q-20 0 -46 9t-46 21q-12 8 -31.5 26t-39 38.5t-36.5 41t-24 32.5q-13 18 -18 40.5t-5 47.5zM229 1337l217 277h78l217 -277h-86l-170 219l-172 -219h-84z" />
<glyph unicode="&#xdc;" horiz-adv-x="1094" d="M86 244v973h74v-975q0 -13 3.5 -22t6.5 -17q11 -19 28.5 -39.5t37 -39.5t38.5 -34t33 -22q9 -5 17.5 -7t17.5 -2h272q10 0 19 2t18 7q14 7 33 22t38.5 34t36.5 39.5t27 39.5q4 8 6.5 17t2.5 22v975h73v-973q0 -50 -22 -88q-8 -12 -25 -32.5t-36.5 -41t-38.5 -38.5 t-31 -26q-20 -12 -45 -21t-45 -9h-293q-20 0 -46 9t-46 21q-12 8 -31.5 26t-39 38.5t-36.5 41t-24 32.5q-13 18 -18 40.5t-5 47.5zM291 1401v115h110v-115h-110zM565 1401v115h111v-115h-111z" />
<glyph unicode="&#xdd;" horiz-adv-x="911" d="M-10 1217h82l329 -599l332 599h82l-377 -674v-543h-73v543zM299 1364l195 248h84l-218 -275z" />
<glyph unicode="&#xde;" horiz-adv-x="1047" d="M102 0v1217h74v-273h471q28 0 55.5 -9t49.5 -26q9 -8 24 -22.5t30 -30.5t27.5 -31t16.5 -22q27 -44 27 -96v-177q0 -51 -27 -94q-4 -8 -16.5 -22t-27.5 -30t-30 -30.5t-24 -21.5q-22 -17 -49.5 -25t-55.5 -8h-471v-299h-74zM176 371h469q11 0 22.5 2t22.5 8 q13 7 28.5 19.5t30.5 27t27.5 30.5t20.5 31q6 11 7 21.5t1 21.5v170q0 11 -1.5 23t-6.5 23q-8 14 -20.5 30.5t-27 32t-30 28.5t-29.5 21q-21 12 -45 12h-469v-501z" />
<glyph unicode="&#xdf;" d="M76 0l20 123v838q0 27 5 51t18 43q9 14 26.5 35t38 42.5t40 39.5t32.5 26q22 14 45.5 22.5t46.5 8.5h98q36 0 63 -11t46 -26q10 -8 23.5 -20.5t26.5 -26t24 -26.5t16 -21q29 -41 29 -99v-47q0 -15 -5.5 -34.5t-19.5 -36.5q-4 -6 -18 -20t-31.5 -30.5t-34 -31.5t-24.5 -23 q-20 -18 -44.5 -41.5t-39.5 -54.5q-5 -9 -6.5 -20t-1.5 -23v-33q0 -21 8.5 -39t22.5 -31.5t32 -21t37 -8.5l129 -10q34 -3 63 -17t50.5 -37t34 -53.5t12.5 -64.5v-105q0 -29 -6.5 -55.5t-20.5 -46.5q-5 -9 -14.5 -21t-20.5 -24.5t-23 -24t-22 -18.5q-22 -17 -53 -27t-60 -10 h-245q-29 0 -53 6.5t-46 23.5l48 50q20 -13 47 -13h252q12 0 23 2t22 9q26 15 52 43t42 59q5 9 6.5 22t1.5 25v109q0 21 -8 39t-21 31t-30.5 20.5t-36.5 9.5l-131 8q-36 2 -65.5 16.5t-50.5 37.5t-32.5 53t-11.5 65v23q0 29 6.5 56.5t20.5 47.5q5 9 17 22t26 26.5t28 26.5 t23 21q10 10 23 22.5t26 24.5t24 22.5t17 16.5q9 10 13.5 22.5t4.5 14.5v54q0 12 -3.5 20.5t-8.5 17.5q-8 15 -20.5 30.5t-27.5 30t-31 26.5t-30 20q-11 6 -21 8t-24 2h-96q-17 0 -39 -10q-14 -8 -32.5 -23.5t-38 -35t-36.5 -41.5t-28 -43q-5 -10 -6.5 -22t-1.5 -21v-861 l-19 -104h-71z" />
<glyph unicode="&#xe0;" horiz-adv-x="942" d="M51 0zM51 223v43q0 29 6.5 56t20.5 47q5 8 15.5 21t22.5 26.5t25 26t23 20.5q22 17 52 27t60 10h398v155q0 11 -0.5 21.5t-5.5 21.5q-8 15 -20.5 32.5t-27 33t-29.5 28.5t-28 21q-11 6 -23 8t-24 2h-215q-24 0 -45 -12q-13 -7 -26.5 -19.5t-25.5 -27t-23 -29.5t-19 -26 l-68 26q9 12 21 29t26 34t28.5 32.5t27.5 25.5q21 17 50 26t60 9h209q31 0 62 -10t53 -27q10 -8 23 -20.5t25.5 -26.5t23.5 -27.5t16 -21.5q14 -20 19 -46t5 -57v-503l21 -152h-70l-16 115q-9 -12 -24.5 -26.5t-32 -28t-31.5 -24.5t-23 -16q-23 -14 -46.5 -22t-43.5 -8h-201 q-30 0 -60 10t-52 27q-10 7 -23 20t-25 27t-22.5 27t-15.5 22q-14 20 -20.5 45.5t-6.5 54.5zM121 221q0 -12 1.5 -23t6.5 -20q16 -31 43 -61t55 -47q11 -7 26 -10t28 -3h190q20 0 39 11q13 7 35.5 20.5t46.5 32t46.5 41t35.5 47.5v223h-400q-12 0 -26 -3t-25 -9 q-28 -17 -53 -45.5t-41 -59.5q-5 -9 -6.5 -20.5t-1.5 -24.5v-49zM231 1317h86l195 -248l-63 -27z" />
<glyph unicode="&#xe1;" horiz-adv-x="942" d="M51 0zM51 223v43q0 29 6.5 56t20.5 47q5 8 15.5 21t22.5 26.5t25 26t23 20.5q22 17 52 27t60 10h398v155q0 11 -0.5 21.5t-5.5 21.5q-8 15 -20.5 32.5t-27 33t-29.5 28.5t-28 21q-11 6 -23 8t-24 2h-215q-24 0 -45 -12q-13 -7 -26.5 -19.5t-25.5 -27t-23 -29.5t-19 -26 l-68 26q9 12 21 29t26 34t28.5 32.5t27.5 25.5q21 17 50 26t60 9h209q31 0 62 -10t53 -27q10 -8 23 -20.5t25.5 -26.5t23.5 -27.5t16 -21.5q14 -20 19 -46t5 -57v-503l21 -152h-70l-16 115q-9 -12 -24.5 -26.5t-32 -28t-31.5 -24.5t-23 -16q-23 -14 -46.5 -22t-43.5 -8h-201 q-30 0 -60 10t-52 27q-10 7 -23 20t-25 27t-22.5 27t-15.5 22q-14 20 -20.5 45.5t-6.5 54.5zM121 221q0 -12 1.5 -23t6.5 -20q16 -31 43 -61t55 -47q11 -7 26 -10t28 -3h190q20 0 39 11q13 7 35.5 20.5t46.5 32t46.5 41t35.5 47.5v223h-400q-12 0 -26 -3t-25 -9 q-28 -17 -53 -45.5t-41 -59.5q-5 -9 -6.5 -20.5t-1.5 -24.5v-49zM311 1069l195 248h84l-217 -275z" />
<glyph unicode="&#xe2;" horiz-adv-x="942" d="M51 0zM51 223v43q0 29 6.5 56t20.5 47q5 8 15.5 21t22.5 26.5t25 26t23 20.5q22 17 52 27t60 10h398v155q0 11 -0.5 21.5t-5.5 21.5q-8 15 -20.5 32.5t-27 33t-29.5 28.5t-28 21q-11 6 -23 8t-24 2h-215q-24 0 -45 -12q-13 -7 -26.5 -19.5t-25.5 -27t-23 -29.5t-19 -26 l-68 26q9 12 21 29t26 34t28.5 32.5t27.5 25.5q21 17 50 26t60 9h209q31 0 62 -10t53 -27q10 -8 23 -20.5t25.5 -26.5t23.5 -27.5t16 -21.5q14 -20 19 -46t5 -57v-503l21 -152h-70l-16 115q-9 -12 -24.5 -26.5t-32 -28t-31.5 -24.5t-23 -16q-23 -14 -46.5 -22t-43.5 -8h-201 q-30 0 -60 10t-52 27q-10 7 -23 20t-25 27t-22.5 27t-15.5 22q-14 20 -20.5 45.5t-6.5 54.5zM121 221q0 -12 1.5 -23t6.5 -20q16 -31 43 -61t55 -47q11 -7 26 -10t28 -3h190q20 0 39 11q13 7 35.5 20.5t46.5 32t46.5 41t35.5 47.5v223h-400q-12 0 -26 -3t-25 -9 q-28 -17 -53 -45.5t-41 -59.5q-5 -9 -6.5 -20.5t-1.5 -24.5v-49zM162 1042l217 277h78l217 -277h-86l-170 220l-172 -220h-84z" />
<glyph unicode="&#xe3;" horiz-adv-x="952" d="M51 0zM51 223v43q0 29 6.5 56t20.5 47q5 8 15.5 21t22.5 26.5t25 26t23 20.5q22 17 52 27t60 10h398v155q0 11 -0.5 21.5t-5.5 21.5q-8 15 -20.5 32.5t-27 33t-29.5 28.5t-28 21q-11 6 -23 8t-24 2h-215q-24 0 -45 -12q-13 -7 -26.5 -19.5t-25.5 -27t-23 -29.5t-19 -26 l-68 26q9 12 21 29t26 34t28.5 32.5t27.5 25.5q21 17 50 26t60 9h209q31 0 62 -10t53 -27q10 -8 23 -20.5t25.5 -26.5t23.5 -27.5t16 -21.5q14 -20 19 -46t5 -57v-503l21 -152h-70l-16 115q-9 -12 -24.5 -26.5t-32 -28t-31.5 -24.5t-23 -16q-23 -14 -46.5 -22t-43.5 -8h-201 q-30 0 -60 10t-52 27q-10 7 -23 20t-25 27t-22.5 27t-15.5 22q-14 20 -20.5 45.5t-6.5 54.5zM121 221q0 -12 1.5 -23t6.5 -20q16 -31 43 -61t55 -47q11 -7 26 -10t28 -3h190q20 0 39 11q13 7 35.5 20.5t46.5 32t46.5 41t35.5 47.5v223h-400q-12 0 -26 -3t-25 -9 q-28 -17 -53 -45.5t-41 -59.5q-5 -9 -6.5 -20.5t-1.5 -24.5v-49zM174 1235l65 20q17 -38 49 -55.5t64 -11.5l145 45q30 10 60 7.5t56 -17.5t47.5 -41t33.5 -62l-65 -20q-17 38 -49 57t-64 12l-141 -45q-30 -10 -60.5 -7.5t-57.5 17t-49 40t-34 61.5z" />
<glyph unicode="&#xe4;" horiz-adv-x="942" d="M51 0zM51 223v43q0 29 6.5 56t20.5 47q5 8 15.5 21t22.5 26.5t25 26t23 20.5q22 17 52 27t60 10h398v155q0 11 -0.5 21.5t-5.5 21.5q-8 15 -20.5 32.5t-27 33t-29.5 28.5t-28 21q-11 6 -23 8t-24 2h-215q-24 0 -45 -12q-13 -7 -26.5 -19.5t-25.5 -27t-23 -29.5t-19 -26 l-68 26q9 12 21 29t26 34t28.5 32.5t27.5 25.5q21 17 50 26t60 9h209q31 0 62 -10t53 -27q10 -8 23 -20.5t25.5 -26.5t23.5 -27.5t16 -21.5q14 -20 19 -46t5 -57v-503l21 -152h-70l-16 115q-9 -12 -24.5 -26.5t-32 -28t-31.5 -24.5t-23 -16q-23 -14 -46.5 -22t-43.5 -8h-201 q-30 0 -60 10t-52 27q-10 7 -23 20t-25 27t-22.5 27t-15.5 22q-14 20 -20.5 45.5t-6.5 54.5zM121 221q0 -12 1.5 -23t6.5 -20q16 -31 43 -61t55 -47q11 -7 26 -10t28 -3h190q20 0 39 11q13 7 35.5 20.5t46.5 32t46.5 41t35.5 47.5v223h-400q-12 0 -26 -3t-25 -9 q-28 -17 -53 -45.5t-41 -59.5q-5 -9 -6.5 -20.5t-1.5 -24.5v-49zM221 1133v114h111v-114h-111zM495 1133v114h111v-114h-111z" />
<glyph unicode="&#xe5;" horiz-adv-x="952" d="M51 0zM51 223v43q0 29 6.5 56t20.5 47q5 8 15.5 21t22.5 26.5t25 26t23 20.5q22 17 52 27t60 10h398v155q0 11 -0.5 21.5t-5.5 21.5q-8 15 -20.5 32.5t-27 33t-29.5 28.5t-28 21q-11 6 -23 8t-24 2h-215q-24 0 -45 -12q-13 -7 -26.5 -19.5t-25.5 -27t-23 -29.5t-19 -26 l-68 26q9 12 21 29t26 34t28.5 32.5t27.5 25.5q21 17 50 26t60 9h209q31 0 62 -10t53 -27q10 -8 23 -20.5t25.5 -26.5t23.5 -27.5t16 -21.5q14 -20 19 -46t5 -57v-503l21 -152h-70l-16 115q-9 -12 -24.5 -26.5t-32 -28t-31.5 -24.5t-23 -16q-23 -14 -46.5 -22t-43.5 -8h-201 q-30 0 -60 10t-52 27q-10 7 -23 20t-25 27t-22.5 27t-15.5 22q-14 20 -20.5 45.5t-6.5 54.5zM121 221q0 -12 1.5 -23t6.5 -20q16 -31 43 -61t55 -47q11 -7 26 -10t28 -3h190q20 0 39 11q13 7 35.5 20.5t46.5 32t46.5 41t35.5 47.5v223h-400q-12 0 -26 -3t-25 -9 q-28 -17 -53 -45.5t-41 -59.5q-5 -9 -6.5 -20.5t-1.5 -24.5v-49zM258 1200q0 36 14 68t38 56t56.5 38t69.5 14q36 0 68.5 -14t56.5 -38t38.5 -56t14.5 -68q0 -38 -14.5 -70.5t-38.5 -56.5t-56.5 -37.5t-68.5 -13.5q-37 0 -69.5 13.5t-56.5 37.5t-38 56.5t-14 70.5zM321 1200 q0 -54 32 -87.5t83 -33.5t84 33.5t33 87.5q0 25 -8.5 47t-24.5 38t-37.5 25t-46.5 9q-51 0 -83 -34t-32 -85z" />
<glyph unicode="&#xe6;" horiz-adv-x="1520" d="M41 221v43q0 29 6.5 54t20.5 47q5 8 15.5 21t22.5 26.5t25 26t23 20.5q21 17 52 27t60 10h389v166q0 9 -0.5 18.5t-5.5 17.5q-8 15 -20 32t-26.5 33t-30 29t-29.5 21q-11 6 -23 8t-24 2h-205q-13 0 -23.5 -2t-21.5 -8q-12 -7 -26.5 -19t-28 -27t-25 -30t-19.5 -28l-65 24 q7 13 19.5 29.5t27 33t29.5 32t28 26.5q22 17 52 27t59 10h201q29 0 60 -10t52 -27q13 -11 33.5 -31.5t46.5 -54.5q26 34 49 55.5t35 32.5q20 19 50 27t59 8h225q29 0 60 -10t53 -27q10 -8 22.5 -20.5t25.5 -26.5t23.5 -27.5t16.5 -21.5q14 -20 20 -48t6 -57v-227h-610v-201 q0 -25 6 -41q8 -15 20.5 -32.5t27.5 -33.5t30.5 -29.5t28.5 -20.5q11 -7 22.5 -9t24.5 -2h231q13 0 24.5 2t22.5 9q12 7 26 19t27 26.5t24.5 30t19.5 28.5l63 -25q-8 -13 -19 -29.5t-24.5 -33t-27.5 -32t-27 -25.5q-22 -17 -53 -27t-60 -10h-229q-29 0 -61 10t-54 27 q-12 11 -32 30.5t-46 53.5q-26 -34 -46.5 -53.5t-33.5 -30.5q-21 -17 -52 -27t-60 -10h-232q-29 0 -60 10t-52 27q-10 7 -23 19.5t-25 26t-22.5 26.5t-15.5 22q-14 22 -20.5 46.5t-6.5 53.5zM111 223q0 -12 1.5 -24t6.5 -21q7 -15 19 -31.5t26 -31.5t29 -27.5t28 -19.5 q11 -7 22 -8t23 -3h230q12 0 24 2t23 9q14 8 29.5 21.5t30 29.5t26.5 33t20 32q5 10 5.5 21.5t0.5 23.5v199h-387q-25 0 -47 -12q-13 -8 -28 -20t-29 -26t-26 -30t-19 -31q-5 -9 -6.5 -21.5t-1.5 -25.5v-39zM725 494h541v157q0 13 -0.5 23.5t-5.5 19.5q-8 15 -20.5 32.5 t-27 34t-30 30.5t-29.5 22q-11 6 -23 8t-24 2h-223q-13 0 -24.5 -2t-22.5 -8q-13 -8 -28.5 -21t-30.5 -28.5t-27.5 -33t-20.5 -32.5q-3 -8 -3.5 -17.5t-0.5 -18.5v-168z" />
<glyph unicode="&#xe7;" horiz-adv-x="926" d="M82 0zM82 225v430q0 31 5 56t19 45q6 8 16.5 21.5t23.5 28t26 27.5t23 21q21 17 52 27t62 10h223q31 0 61 -10t52 -27q34 -28 58.5 -58.5t44.5 -62.5l-70 -22q-8 13 -19.5 28t-25 29t-27.5 26t-26 19q-11 6 -23 8t-25 2h-225q-12 0 -24 -2t-23 -8q-13 -8 -28 -20.5 t-29 -28t-26 -32.5t-19 -32q-5 -9 -5.5 -20.5t-0.5 -24.5v-430q0 -12 0.5 -23.5t5.5 -21.5q7 -15 20 -32t27.5 -32t30 -28t28.5 -20q11 -7 23 -9t24 -2h230q12 0 24 2t23 9q12 7 26 19t27 26.5t24 30t19 28.5l68 -25l-19 -28.5t-24.5 -33t-28 -32.5t-29.5 -26 q-21 -17 -51 -27t-61 -10h-230q-31 0 -62 10t-52 27q-10 7 -23 20.5t-26 27.5t-23.5 27.5t-16.5 22.5q-14 20 -19 44.5t-5 55.5zM286 -340l162 260l70 -29l-152 -231h-80z" />
<glyph unicode="&#xe8;" horiz-adv-x="948" d="M82 0zM82 225v430q0 29 6.5 55t20.5 46q5 8 15.5 21.5t23.5 28t26 27.5t23 21q21 17 52 27t62 10h226q31 0 62 -10t52 -27q10 -8 23 -21t26 -27.5t23.5 -28t15.5 -21.5q14 -20 19.5 -45t5.5 -56v-252h-612v-174q0 -12 0.5 -23.5t5.5 -21.5q7 -15 20 -32.5t27.5 -33.5 t30 -29.5t28.5 -20.5q11 -7 22 -9t23 -2h232q12 0 25 3t24 10q35 21 57.5 49.5t40.5 54.5l66 -27l-19 -28.5t-24.5 -33t-28 -32.5t-29.5 -26q-21 -17 -51 -27t-61 -10h-230q-31 0 -62 10t-52 27q-10 7 -23 20.5t-26 27.5t-23.5 27.5t-15.5 22.5q-14 20 -20.5 45.5t-6.5 54.5 zM152 471h542v182q0 11 0.5 22.5t-4.5 22.5q-8 15 -20.5 32.5t-27.5 33t-30 28.5t-28 21q-11 6 -23 8t-24 2h-228q-12 0 -23 -2t-22 -8q-13 -8 -28.5 -21t-30 -28.5t-27.5 -33t-20 -32.5q-5 -9 -5.5 -20.5t-0.5 -24.5v-182zM231 1317h86l195 -248l-63 -27z" />
<glyph unicode="&#xe9;" horiz-adv-x="948" d="M82 0zM82 225v430q0 29 6.5 55t20.5 46q5 8 15.5 21.5t23.5 28t26 27.5t23 21q21 17 52 27t62 10h226q31 0 62 -10t52 -27q10 -8 23 -21t26 -27.5t23.5 -28t15.5 -21.5q14 -20 19.5 -45t5.5 -56v-252h-612v-174q0 -12 0.5 -23.5t5.5 -21.5q7 -15 20 -32.5t27.5 -33.5 t30 -29.5t28.5 -20.5q11 -7 22 -9t23 -2h232q12 0 25 3t24 10q35 21 57.5 49.5t40.5 54.5l66 -27l-19 -28.5t-24.5 -33t-28 -32.5t-29.5 -26q-21 -17 -51 -27t-61 -10h-230q-31 0 -62 10t-52 27q-10 7 -23 20.5t-26 27.5t-23.5 27.5t-15.5 22.5q-14 20 -20.5 45.5t-6.5 54.5 zM152 471h542v182q0 11 0.5 22.5t-4.5 22.5q-8 15 -20.5 32.5t-27.5 33t-30 28.5t-28 21q-11 6 -23 8t-24 2h-228q-12 0 -23 -2t-22 -8q-13 -8 -28.5 -21t-30 -28.5t-27.5 -33t-20 -32.5q-5 -9 -5.5 -20.5t-0.5 -24.5v-182zM311 1069l195 248h84l-217 -275z" />
<glyph unicode="&#xea;" horiz-adv-x="948" d="M82 0zM82 225v430q0 29 6.5 55t20.5 46q5 8 15.5 21.5t23.5 28t26 27.5t23 21q21 17 52 27t62 10h226q31 0 62 -10t52 -27q10 -8 23 -21t26 -27.5t23.5 -28t15.5 -21.5q14 -20 19.5 -45t5.5 -56v-252h-612v-174q0 -12 0.5 -23.5t5.5 -21.5q7 -15 20 -32.5t27.5 -33.5 t30 -29.5t28.5 -20.5q11 -7 22 -9t23 -2h232q12 0 25 3t24 10q35 21 57.5 49.5t40.5 54.5l66 -27l-19 -28.5t-24.5 -33t-28 -32.5t-29.5 -26q-21 -17 -51 -27t-61 -10h-230q-31 0 -62 10t-52 27q-10 7 -23 20.5t-26 27.5t-23.5 27.5t-15.5 22.5q-14 20 -20.5 45.5t-6.5 54.5 zM152 471h542v182q0 11 0.5 22.5t-4.5 22.5q-8 15 -20.5 32.5t-27.5 33t-30 28.5t-28 21q-11 6 -23 8t-24 2h-228q-12 0 -23 -2t-22 -8q-13 -8 -28.5 -21t-30 -28.5t-27.5 -33t-20 -32.5q-5 -9 -5.5 -20.5t-0.5 -24.5v-182zM162 1042l217 277h78l217 -277h-86l-170 220 l-172 -220h-84z" />
<glyph unicode="&#xeb;" horiz-adv-x="948" d="M82 0zM82 225v430q0 29 6.5 55t20.5 46q5 8 15.5 21.5t23.5 28t26 27.5t23 21q21 17 52 27t62 10h226q31 0 62 -10t52 -27q10 -8 23 -21t26 -27.5t23.5 -28t15.5 -21.5q14 -20 19.5 -45t5.5 -56v-252h-612v-174q0 -12 0.5 -23.5t5.5 -21.5q7 -15 20 -32.5t27.5 -33.5 t30 -29.5t28.5 -20.5q11 -7 22 -9t23 -2h232q12 0 25 3t24 10q35 21 57.5 49.5t40.5 54.5l66 -27l-19 -28.5t-24.5 -33t-28 -32.5t-29.5 -26q-21 -17 -51 -27t-61 -10h-230q-31 0 -62 10t-52 27q-10 7 -23 20.5t-26 27.5t-23.5 27.5t-15.5 22.5q-14 20 -20.5 45.5t-6.5 54.5 zM152 471h542v182q0 11 0.5 22.5t-4.5 22.5q-8 15 -20.5 32.5t-27.5 33t-30 28.5t-28 21q-11 6 -23 8t-24 2h-228q-12 0 -23 -2t-22 -8q-13 -8 -28.5 -21t-30 -28.5t-27.5 -33t-20 -32.5q-5 -9 -5.5 -20.5t-0.5 -24.5v-182zM221 1133v114h111v-114h-111zM495 1133v114h111 v-114h-111z" />
<glyph unicode="&#xec;" horiz-adv-x="422" d="M-100 1317h86l194 -248l-63 -27zM90 0v881h70v-881h-70z" />
<glyph unicode="&#xed;" horiz-adv-x="422" d="M82 1069l194 248h84l-217 -275zM90 0v881h70v-881h-70z" />
<glyph unicode="&#xee;" horiz-adv-x="422" d="M-133 1042l217 277h78l217 -277h-86l-170 220l-172 -220h-84zM90 0v881h70v-881h-70z" />
<glyph unicode="&#xef;" horiz-adv-x="422" d="M-68 1133v114h111v-114h-111zM90 0v881h70v-881h-70zM207 1133v114h110v-114h-110z" />
<glyph unicode="&#xf0;" horiz-adv-x="956" d="M82 225v437q0 27 7 51.5t20 44.5q4 7 16.5 21.5t27 29.5t29 29t23.5 22q20 17 48.5 25t57.5 8h183q21 0 47 -5.5t45 -19.5q31 -23 55.5 -47t50.5 -53v66q0 40 -21.5 71.5t-52.5 48.5l-133 68l-118 -61l-33 53l84 43l-248 135l33 57l289 -155l188 98l33 -57l-150 -76 l84 -43q56 -29 85.5 -72t29.5 -102v-617q0 -26 -6.5 -50t-20.5 -46q-5 -8 -16.5 -22.5t-25.5 -30.5t-28.5 -30t-23.5 -21q-22 -17 -49.5 -26t-56.5 -9h-224q-29 0 -57 9t-49 26q-9 7 -23.5 21t-29 30t-27 30.5t-16.5 22.5q-14 22 -20.5 46t-6.5 50zM152 227q0 -11 1.5 -22 t6.5 -21q7 -15 20 -32.5t27.5 -33.5t30 -29.5t28.5 -20.5q11 -7 23.5 -9t23.5 -2h219q11 0 23 2t23 9q13 7 28 20.5t30 29.5t27.5 33.5t20.5 32.5q5 10 6.5 21t1.5 22v418q0 20 -10 37q-12 21 -30.5 42t-39 38.5t-39.5 31t-32 21.5q-10 5 -23.5 7.5t-21.5 2.5h-183 q-11 0 -23.5 -3t-23.5 -9q-14 -8 -29.5 -20.5t-30 -28t-27 -31.5t-19.5 -31q-5 -9 -6.5 -20.5t-1.5 -22.5v-432z" />
<glyph unicode="&#xf1;" horiz-adv-x="969" d="M82 881h70l14 -115q7 10 22 23.5t32 27t33 25t26 18.5q21 16 44.5 23.5t45.5 7.5h168q29 0 60 -9t52 -26q10 -8 23 -21t26 -27.5t23.5 -28t15.5 -21.5q14 -20 20.5 -46t6.5 -55v-657h-70v653q0 13 -0.5 25.5t-5.5 21.5q-8 15 -20 31.5t-27 32t-30.5 28.5t-28.5 21 q-11 6 -23 8t-24 2h-160q-10 0 -20 -1.5t-19 -6.5q-14 -8 -39 -23t-51 -35.5t-48.5 -44.5t-31.5 -48v-664h-70v750zM184 1235l66 20q17 -38 48.5 -55.5t63.5 -11.5l146 45q30 10 60 7.5t56 -17.5t47.5 -41t33.5 -62l-66 -20q-17 38 -49 57t-64 12l-141 -45 q-30 -10 -60.5 -7.5t-57.5 17t-49 40t-34 61.5z" />
<glyph unicode="&#xf2;" horiz-adv-x="936" d="M72 0zM72 225v430q0 31 5 56t19 45q6 8 16.5 21.5t23.5 28t25.5 27.5t22.5 21q22 17 53 27t62 10h225q31 0 62 -10t53 -27q10 -8 23 -21t26 -27.5t23.5 -28t15.5 -21.5q14 -20 19.5 -45t5.5 -56v-430q0 -31 -5.5 -55.5t-19.5 -44.5q-5 -9 -15.5 -22.5t-23.5 -27.5 t-26 -27.5t-23 -20.5q-22 -17 -53 -27t-62 -10h-225q-31 0 -62 10t-53 27q-10 7 -22.5 20.5t-25.5 27.5t-23.5 27.5t-16.5 22.5q-14 20 -19 44.5t-5 55.5zM141 225q0 -12 0.5 -23.5t5.5 -21.5q8 -15 20.5 -32t27.5 -32t30.5 -28t28.5 -20q11 -7 23 -9t24 -2h223q13 0 24.5 2 t22.5 9q13 7 28 20t29.5 28t27 32t20.5 32q5 11 5.5 22.5t0.5 22.5v432q0 11 -0.5 22.5t-5.5 22.5q-8 15 -20.5 31.5t-27.5 31.5t-30.5 27.5t-28.5 20.5q-11 6 -22.5 8t-24.5 2h-223q-12 0 -24 -2t-23 -8q-13 -8 -28 -20.5t-29.5 -27.5t-27 -31.5t-20.5 -31.5 q-5 -9 -5.5 -20.5t-0.5 -24.5v-432zM231 1317h86l195 -248l-63 -27z" />
<glyph unicode="&#xf3;" horiz-adv-x="936" d="M72 0zM72 225v430q0 31 5 56t19 45q6 8 16.5 21.5t23.5 28t25.5 27.5t22.5 21q22 17 53 27t62 10h225q31 0 62 -10t53 -27q10 -8 23 -21t26 -27.5t23.5 -28t15.5 -21.5q14 -20 19.5 -45t5.5 -56v-430q0 -31 -5.5 -55.5t-19.5 -44.5q-5 -9 -15.5 -22.5t-23.5 -27.5 t-26 -27.5t-23 -20.5q-22 -17 -53 -27t-62 -10h-225q-31 0 -62 10t-53 27q-10 7 -22.5 20.5t-25.5 27.5t-23.5 27.5t-16.5 22.5q-14 20 -19 44.5t-5 55.5zM141 225q0 -12 0.5 -23.5t5.5 -21.5q8 -15 20.5 -32t27.5 -32t30.5 -28t28.5 -20q11 -7 23 -9t24 -2h223q13 0 24.5 2 t22.5 9q13 7 28 20t29.5 28t27 32t20.5 32q5 11 5.5 22.5t0.5 22.5v432q0 11 -0.5 22.5t-5.5 22.5q-8 15 -20.5 31.5t-27.5 31.5t-30.5 27.5t-28.5 20.5q-11 6 -22.5 8t-24.5 2h-223q-12 0 -24 -2t-23 -8q-13 -8 -28 -20.5t-29.5 -27.5t-27 -31.5t-20.5 -31.5 q-5 -9 -5.5 -20.5t-0.5 -24.5v-432zM311 1069l195 248h84l-217 -275z" />
<glyph unicode="&#xf4;" horiz-adv-x="936" d="M72 0zM72 225v430q0 31 5 56t19 45q6 8 16.5 21.5t23.5 28t25.5 27.5t22.5 21q22 17 53 27t62 10h225q31 0 62 -10t53 -27q10 -8 23 -21t26 -27.5t23.5 -28t15.5 -21.5q14 -20 19.5 -45t5.5 -56v-430q0 -31 -5.5 -55.5t-19.5 -44.5q-5 -9 -15.5 -22.5t-23.5 -27.5 t-26 -27.5t-23 -20.5q-22 -17 -53 -27t-62 -10h-225q-31 0 -62 10t-53 27q-10 7 -22.5 20.5t-25.5 27.5t-23.5 27.5t-16.5 22.5q-14 20 -19 44.5t-5 55.5zM141 225q0 -12 0.5 -23.5t5.5 -21.5q8 -15 20.5 -32t27.5 -32t30.5 -28t28.5 -20q11 -7 23 -9t24 -2h223q13 0 24.5 2 t22.5 9q13 7 28 20t29.5 28t27 32t20.5 32q5 11 5.5 22.5t0.5 22.5v432q0 11 -0.5 22.5t-5.5 22.5q-8 15 -20.5 31.5t-27.5 31.5t-30.5 27.5t-28.5 20.5q-11 6 -22.5 8t-24.5 2h-223q-12 0 -24 -2t-23 -8q-13 -8 -28 -20.5t-29.5 -27.5t-27 -31.5t-20.5 -31.5 q-5 -9 -5.5 -20.5t-0.5 -24.5v-432zM162 1042l217 277h78l217 -277h-86l-170 220l-172 -220h-84z" />
<glyph unicode="&#xf5;" horiz-adv-x="936" d="M72 0zM72 225v430q0 31 5 56t19 45q6 8 16.5 21.5t23.5 28t25.5 27.5t22.5 21q22 17 53 27t62 10h225q31 0 62 -10t53 -27q10 -8 23 -21t26 -27.5t23.5 -28t15.5 -21.5q14 -20 19.5 -45t5.5 -56v-430q0 -31 -5.5 -55.5t-19.5 -44.5q-5 -9 -15.5 -22.5t-23.5 -27.5 t-26 -27.5t-23 -20.5q-22 -17 -53 -27t-62 -10h-225q-31 0 -62 10t-53 27q-10 7 -22.5 20.5t-25.5 27.5t-23.5 27.5t-16.5 22.5q-14 20 -19 44.5t-5 55.5zM141 225q0 -12 0.5 -23.5t5.5 -21.5q8 -15 20.5 -32t27.5 -32t30.5 -28t28.5 -20q11 -7 23 -9t24 -2h223q13 0 24.5 2 t22.5 9q13 7 28 20t29.5 28t27 32t20.5 32q5 11 5.5 22.5t0.5 22.5v432q0 11 -0.5 22.5t-5.5 22.5q-8 15 -20.5 31.5t-27.5 31.5t-30.5 27.5t-28.5 20.5q-11 6 -22.5 8t-24.5 2h-223q-12 0 -24 -2t-23 -8q-13 -8 -28 -20.5t-29.5 -27.5t-27 -31.5t-20.5 -31.5 q-5 -9 -5.5 -20.5t-0.5 -24.5v-432zM154 1235l65 20q17 -38 49 -55.5t64 -11.5l145 45q30 10 60 7.5t56 -17.5t47.5 -41t33.5 -62l-65 -20q-17 38 -49 57t-64 12l-141 -45q-30 -10 -60.5 -7.5t-57.5 17t-49 40t-34 61.5z" />
<glyph unicode="&#xf6;" horiz-adv-x="936" d="M72 0zM72 225v430q0 31 5 56t19 45q6 8 16.5 21.5t23.5 28t25.5 27.5t22.5 21q22 17 53 27t62 10h225q31 0 62 -10t53 -27q10 -8 23 -21t26 -27.5t23.5 -28t15.5 -21.5q14 -20 19.5 -45t5.5 -56v-430q0 -31 -5.5 -55.5t-19.5 -44.5q-5 -9 -15.5 -22.5t-23.5 -27.5 t-26 -27.5t-23 -20.5q-22 -17 -53 -27t-62 -10h-225q-31 0 -62 10t-53 27q-10 7 -22.5 20.5t-25.5 27.5t-23.5 27.5t-16.5 22.5q-14 20 -19 44.5t-5 55.5zM141 225q0 -12 0.5 -23.5t5.5 -21.5q8 -15 20.5 -32t27.5 -32t30.5 -28t28.5 -20q11 -7 23 -9t24 -2h223q13 0 24.5 2 t22.5 9q13 7 28 20t29.5 28t27 32t20.5 32q5 11 5.5 22.5t0.5 22.5v432q0 11 -0.5 22.5t-5.5 22.5q-8 15 -20.5 31.5t-27.5 31.5t-30.5 27.5t-28.5 20.5q-11 6 -22.5 8t-24.5 2h-223q-12 0 -24 -2t-23 -8q-13 -8 -28 -20.5t-29.5 -27.5t-27 -31.5t-20.5 -31.5 q-5 -9 -5.5 -20.5t-0.5 -24.5v-432zM221 1133v114h111v-114h-111zM495 1133v114h111v-114h-111z" />
<glyph unicode="&#xf7;" horiz-adv-x="885" d="M82 340v68h625v-68h-625zM326 0v133h125v-133h-125zM326 612v133h125v-133h-125z" />
<glyph unicode="&#xf8;" horiz-adv-x="936" d="M72 225v430q0 31 5 56t19 45q6 8 16.5 21.5t23.5 28t25.5 27.5t22.5 21q22 17 53 27t62 10h225q16 0 32 -2.5t32 -7.5l24 49h76l-41 -82q10 -9 22 -22t23 -26t20.5 -25t14.5 -19q14 -20 19.5 -45t5.5 -56v-430q0 -31 -5.5 -55.5t-19.5 -44.5q-5 -9 -15.5 -22.5 t-23.5 -27.5t-26 -27.5t-23 -20.5q-22 -17 -53 -27t-62 -10h-225q-19 0 -38 4t-36 10l-30 -63h-80l51 102q-10 9 -21 20.5t-20.5 22.5t-17 21.5t-11.5 17.5q-14 20 -19 44.5t-5 55.5zM141 225q0 -12 0.5 -23.5t5.5 -21.5q8 -17 22.5 -34.5t31.5 -34.5l356 708q-9 3 -17 3.5 t-18 0.5h-223q-12 0 -24 -2t-23 -8q-13 -8 -28 -20.5t-29.5 -27.5t-27 -31.5t-20.5 -31.5q-5 -9 -5.5 -20.5t-0.5 -24.5v-432zM256 66q11 -7 22 -8t23 -1h223q13 0 24.5 2t22.5 9q13 7 28 20t29.5 28t27 32t20.5 32q5 11 5.5 22.5t0.5 22.5v432q0 11 -0.5 22.5t-5.5 22.5 q-11 19 -27.5 40t-36.5 38z" />
<glyph unicode="&#xf9;" horiz-adv-x="956" d="M82 223v658h70v-654q0 -12 0.5 -24.5t5.5 -22.5q7 -15 19.5 -31.5t27 -32t30 -28.5t29.5 -20q11 -7 23 -9t24 -2h160q9 0 19.5 2t19.5 7q14 7 38.5 22.5t51 36t49 44.5t31.5 48v664h70v-750l14 -131h-70l-14 115q-8 -10 -23 -23.5t-31.5 -27t-32.5 -25.5t-26 -19 q-21 -15 -44.5 -22.5t-45.5 -7.5h-168q-29 0 -60 9t-52 26q-10 7 -23 20.5t-26 27.5t-23.5 27.5t-15.5 22.5q-14 20 -20.5 45.5t-6.5 54.5zM231 1317h86l195 -248l-63 -27z" />
<glyph unicode="&#xfa;" horiz-adv-x="956" d="M82 223v658h70v-654q0 -12 0.5 -24.5t5.5 -22.5q7 -15 19.5 -31.5t27 -32t30 -28.5t29.5 -20q11 -7 23 -9t24 -2h160q9 0 19.5 2t19.5 7q14 7 38.5 22.5t51 36t49 44.5t31.5 48v664h70v-750l14 -131h-70l-14 115q-8 -10 -23 -23.5t-31.5 -27t-32.5 -25.5t-26 -19 q-21 -15 -44.5 -22.5t-45.5 -7.5h-168q-29 0 -60 9t-52 26q-10 7 -23 20.5t-26 27.5t-23.5 27.5t-15.5 22.5q-14 20 -20.5 45.5t-6.5 54.5zM311 1069l195 248h84l-217 -275z" />
<glyph unicode="&#xfb;" horiz-adv-x="956" d="M82 223v658h70v-654q0 -12 0.5 -24.5t5.5 -22.5q7 -15 19.5 -31.5t27 -32t30 -28.5t29.5 -20q11 -7 23 -9t24 -2h160q9 0 19.5 2t19.5 7q14 7 38.5 22.5t51 36t49 44.5t31.5 48v664h70v-750l14 -131h-70l-14 115q-8 -10 -23 -23.5t-31.5 -27t-32.5 -25.5t-26 -19 q-21 -15 -44.5 -22.5t-45.5 -7.5h-168q-29 0 -60 9t-52 26q-10 7 -23 20.5t-26 27.5t-23.5 27.5t-15.5 22.5q-14 20 -20.5 45.5t-6.5 54.5zM172 1042l217 277h78l217 -277h-86l-170 220l-172 -220h-84z" />
<glyph unicode="&#xfc;" horiz-adv-x="956" d="M82 223v658h70v-654q0 -12 0.5 -24.5t5.5 -22.5q7 -15 19.5 -31.5t27 -32t30 -28.5t29.5 -20q11 -7 23 -9t24 -2h160q9 0 19.5 2t19.5 7q14 7 38.5 22.5t51 36t49 44.5t31.5 48v664h70v-750l14 -131h-70l-14 115q-8 -10 -23 -23.5t-31.5 -27t-32.5 -25.5t-26 -19 q-21 -15 -44.5 -22.5t-45.5 -7.5h-168q-29 0 -60 9t-52 26q-10 7 -23 20.5t-26 27.5t-23.5 27.5t-15.5 22.5q-14 20 -20.5 45.5t-6.5 54.5zM217 1133v114h111v-114h-111zM492 1133v114h110v-114h-110z" />
<glyph unicode="&#xfd;" horiz-adv-x="819" d="M18 881h76l248 -809h29l247 809h74l-379 -1217h-77l112 336h-53zM252 1069l194 248h84l-217 -275z" />
<glyph unicode="&#xfe;" horiz-adv-x="958" d="M92 1217h70l2 -437l2 -18q21 24 37.5 39.5t29 26t22 17.5t17.5 13q22 16 47.5 24.5t47.5 8.5h180q31 0 61 -10t51 -27q10 -8 23 -20.5t26 -26.5t23.5 -27.5t16.5 -21.5q14 -20 20 -46t6 -55v-436q0 -59 -26 -98q-6 -9 -17 -22.5t-23.5 -27.5t-25.5 -27.5t-23 -20.5 q-21 -17 -51 -26t-61 -9h-180q-22 0 -45.5 7.5t-45.5 22.5q-10 7 -26.5 19.5t-34 27t-32 28.5t-19.5 24v-455h-70zM164 217q9 -24 31.5 -48t48.5 -44.5t51 -36t39 -22.5q9 -5 19 -7t20 -2h174q12 0 24 2t23 9q14 7 29 20t28.5 28.5t25 32t19.5 31.5q5 10 7 22.5t2 24.5v426 q0 13 -2 25.5t-7 21.5q-8 15 -19.5 31t-26 31.5t-29.5 28t-29 20.5q-21 12 -47 12h-172q-10 0 -20 -1.5t-19 -6.5q-15 -8 -39 -24t-49.5 -37t-48 -45t-33.5 -47v-445z" />
<glyph unicode="&#xff;" horiz-adv-x="819" d="M18 881h76l248 -809h29l247 809h74l-379 -1217h-77l112 336h-53zM162 1133v114h110v-114h-110zM436 1133v114h111v-114h-111z" />
<glyph unicode="&#x152;" horiz-adv-x="1749" d="M104 246v723q0 50 21 88q7 12 24.5 32.5t37.5 42t39.5 40t31.5 26.5q20 14 45 22.5t45 8.5h324q20 0 46 -8.5t46 -22.5q14 -9 36 -31t44 -45v95h672v-72h-598v-496h559v-71h-559v-506h598v-72h-672v92q-22 -23 -44 -44.5t-36 -29.5q-20 -12 -46 -21t-46 -9h-324 q-20 0 -45 9t-45 21q-12 9 -31.5 27t-39.5 38.5t-37.5 40.5t-24.5 32q-12 18 -16.5 41.5t-4.5 48.5zM178 244q0 -26 8 -39q11 -18 29.5 -39t38.5 -41t38.5 -35.5t29.5 -21.5q9 -5 17 -7t17 -2h310q9 0 18 2t18 7q14 7 32 22.5t37 34.5t36 40t29 40q5 8 6.5 19.5t1.5 21.5 v739l-8 27q-11 19 -28 40t-36 40t-37.5 34t-32.5 23q-16 8 -36 8h-310q-18 0 -34 -8q-14 -8 -32.5 -23t-37.5 -34t-36 -40t-28 -40q-10 -18 -10 -41v-727z" />
<glyph unicode="&#x153;" horiz-adv-x="1546" d="M72 225v430q0 31 5 56t19 45q6 8 16.5 21.5t23.5 28t25.5 27.5t22.5 21q22 17 53 27t62 10h225q31 0 62 -10t53 -27q9 -7 19.5 -17.5t21 -22.5t20.5 -24t17 -22q7 10 17.5 22t21.5 24t21.5 22.5t19.5 17.5q21 17 52 27t62 10h226q31 0 62 -10t52 -27q10 -8 23 -21 t26 -27.5t23.5 -28t15.5 -21.5q14 -20 19.5 -45t5.5 -56v-252h-612v-174q0 -12 0.5 -23.5t5.5 -21.5q7 -15 20 -32.5t27.5 -33.5t30 -29.5t28.5 -20.5q11 -7 22 -9t23 -2h232q12 0 25 3t24 10q35 21 57.5 49.5t40.5 54.5l66 -27l-19 -28.5t-24.5 -33t-28 -32.5t-29.5 -26 q-21 -17 -51 -27t-61 -10h-230q-31 0 -62 10t-52 27q-9 6 -19.5 16t-21.5 22t-21.5 24t-17.5 22q-7 -10 -17 -22t-20.5 -24t-21 -22t-19.5 -16q-22 -17 -53 -27t-62 -10h-225q-31 0 -62 10t-53 27q-10 7 -22.5 20.5t-25.5 27.5t-23.5 27.5t-16.5 22.5q-14 20 -19 44.5 t-5 55.5zM141 225q0 -12 0.5 -23.5t5.5 -21.5q8 -15 20.5 -32t27.5 -32t30.5 -28t28.5 -20q11 -7 23 -9t24 -2h223q13 0 24.5 2t22.5 9q13 7 28 20t29.5 28t27 32t20.5 32q6 15 6 31v14v432v13q0 17 -6 32q-8 15 -20.5 31.5t-27.5 31.5t-30.5 27.5t-28.5 20.5q-11 6 -22.5 8 t-24.5 2h-223q-12 0 -24 -2t-23 -8q-13 -8 -28 -20.5t-29.5 -27.5t-27 -31.5t-20.5 -31.5q-5 -9 -5.5 -20.5t-0.5 -24.5v-432zM752 471h542v182q0 11 0.5 22.5t-4.5 22.5q-8 15 -20.5 32.5t-27 33t-30 28.5t-28.5 21q-11 6 -23 8t-24 2h-228q-12 0 -23 -2t-22 -8 q-13 -8 -28.5 -21t-30 -28.5t-27.5 -33t-20 -32.5q-5 -9 -5.5 -20.5t-0.5 -24.5v-182z" />
<glyph unicode="&#x178;" horiz-adv-x="911" d="M-10 1217h82l329 -599l332 599h82l-377 -674v-543h-73v543zM207 1427v115h110v-115h-110zM481 1427v115h111v-115h-111z" />
<glyph unicode="&#x2c6;" horiz-adv-x="868" d="M162 1042l217 277h78l217 -277h-86l-170 220l-172 -220h-84z" />
<glyph unicode="&#x2dc;" horiz-adv-x="848" d="M123 1235l65 20q17 -38 49 -55.5t64 -11.5l145 45q30 10 60 7.5t56 -17.5t47.5 -41t33.5 -62l-65 -20q-17 38 -49 57t-64 12l-141 -45q-30 -10 -60.5 -7.5t-57.5 17t-49 40t-34 61.5z" />
<glyph unicode="&#x2000;" horiz-adv-x="863" />
<glyph unicode="&#x2001;" horiz-adv-x="1726" />
<glyph unicode="&#x2002;" horiz-adv-x="863" />
<glyph unicode="&#x2003;" horiz-adv-x="1726" />
<glyph unicode="&#x2004;" horiz-adv-x="575" />
<glyph unicode="&#x2005;" horiz-adv-x="431" />
<glyph unicode="&#x2006;" horiz-adv-x="287" />
<glyph unicode="&#x2007;" horiz-adv-x="287" />
<glyph unicode="&#x2008;" horiz-adv-x="215" />
<glyph unicode="&#x2009;" horiz-adv-x="345" />
<glyph unicode="&#x200a;" horiz-adv-x="95" />
<glyph unicode="&#x2010;" horiz-adv-x="709" d="M76 475v68h438v-68h-438z" />
<glyph unicode="&#x2011;" horiz-adv-x="709" d="M76 475v68h438v-68h-438z" />
<glyph unicode="&#x2012;" horiz-adv-x="709" d="M76 475v68h438v-68h-438z" />
<glyph unicode="&#x2013;" horiz-adv-x="922" d="M82 473v66h625v-66h-625z" />
<glyph unicode="&#x2014;" horiz-adv-x="1110" d="M82 475v64h813v-64h-813z" />
<glyph unicode="&#x2018;" horiz-adv-x="446" d="M133 983l123 338l70 -29l-111 -309h-82z" />
<glyph unicode="&#x2019;" horiz-adv-x="385" d="M72 1012l110 309h82l-123 -338z" />
<glyph unicode="&#x201a;" horiz-adv-x="399" d="M86 -178l123 338l70 -29l-111 -309h-82z" />
<glyph unicode="&#x201c;" horiz-adv-x="688" d="M133 1012l111 309h82l-123 -338zM375 1012l110 309h82l-123 -338z" />
<glyph unicode="&#x201d;" horiz-adv-x="627" d="M72 983l123 338l69 -29l-110 -309h-82zM313 983l123 338l70 -29l-111 -309h-82z" />
<glyph unicode="&#x201e;" horiz-adv-x="641" d="M86 -178l123 338l70 -29l-111 -309h-82zM328 -178l123 338l69 -29l-110 -309h-82z" />
<glyph unicode="&#x2022;" horiz-adv-x="877" d="M143 494v43q0 29 9 56t24 50q6 10 18 23.5t24.5 26.5t24.5 24t19 16q36 27 84 27h55q50 0 84 -27q7 -5 19 -15.5t24.5 -22.5t23.5 -25t17 -23q16 -23 24.5 -52t8.5 -58v-43q0 -29 -8.5 -58t-24.5 -51q-6 -9 -17 -22t-23.5 -26t-24.5 -24t-19 -16q-36 -27 -84 -27h-55 q-47 0 -84 27q-7 5 -19 16.5t-25.5 24.5t-25.5 26.5t-18 22.5q-31 45 -31 107z" />
<glyph unicode="&#x2026;" horiz-adv-x="1241" d="M197 0v139h118v-139h-118zM518 0v139h119v-139h-119zM838 0v139h118v-139h-118z" />
<glyph unicode="&#x202f;" horiz-adv-x="345" />
<glyph unicode="&#x2039;" horiz-adv-x="764" d="M150 506l274 317l78 -26l-256 -289l254 -291l-76 -24z" />
<glyph unicode="&#x203a;" horiz-adv-x="764" d="M150 797l77 26l275 -317l-275 -313l-75 24l254 291z" />
<glyph unicode="&#x205f;" horiz-adv-x="431" />
<glyph unicode="&#x20ac;" horiz-adv-x="1171" d="M84 459v67h88v160h-88v68h88v215q0 24 5 46.5t18 41.5q7 12 24 32.5t36.5 41.5t39 39t31.5 26q20 12 45 21.5t45 9.5h291q20 0 45 -9.5t45 -21.5q23 -15 45 -36t41.5 -45.5t36.5 -50t30 -48.5l-73 -23q-10 22 -27 45t-36 44t-39 38.5t-36 26.5q-9 5 -20 6.5t-19 1.5h-282 q-19 0 -35 -8q-14 -8 -31.5 -23t-35 -33.5t-33.5 -39t-27 -39.5q-5 -8 -7.5 -23t-2.5 -24v-211h477v-68h-477v-160h477v-67h-477v-215q0 -17 10 -37q11 -19 28 -40.5t36.5 -41t38 -35t32.5 -22.5q9 -5 17.5 -7t17.5 -2h276q8 0 18 2t19 7q15 9 34 26.5t37.5 38.5t35.5 43.5 t28 42.5l76 -20q-13 -23 -30 -49t-36.5 -50.5t-41.5 -45.5t-45 -36q-20 -12 -45 -21t-45 -9h-289q-20 0 -46 9t-46 21q-12 8 -31.5 26t-39 38.5t-36.5 41t-24 32.5q-13 18 -18 40.5t-5 47.5v215h-88z" />
<glyph unicode="&#x2122;" horiz-adv-x="1247" d="M100 1157v57h355v-57h-140v-508h-61v508h-154zM567 649v565h111l121 -266l129 266h114v-565h-61v510h-10l-150 -299h-45l-137 297h-10v-508h-62z" />
<glyph unicode="&#x25fc;" horiz-adv-x="880" d="M0 0v880h880v-880h-880z" />
<glyph unicode="&#xfb01;" d="M31 813v68h145v127q0 31 5.5 50.5t19.5 39.5q5 8 15.5 21.5t23.5 27.5t26 26.5t23 20.5q21 17 52 26t62 9h144v-66h-144q-14 0 -29 -3t-24 -9q-28 -17 -55.5 -46t-42.5 -58q-5 -11 -5.5 -19.5t-0.5 -19.5v-127h266v-68h-266v-813h-70v813h-145zM723 1133v114h111v-114 h-111zM743 0v881h70v-881h-70z" />
<glyph unicode="&#xfb02;" horiz-adv-x="985" d="M31 813v68h145v127q0 31 5.5 50.5t19.5 39.5q5 8 15.5 21.5t23.5 27.5t26 26.5t23 20.5q21 17 52 26t62 9h144v-66h-144q-14 0 -29 -3t-24 -9q-28 -17 -55.5 -46t-42.5 -58q-5 -11 -5.5 -19.5t-0.5 -19.5v-127h266v-68h-266v-813h-70v813h-145zM731 121v1096h70v-1076 q0 -15 2 -33t4.5 -37t5 -37.5t4.5 -33.5h-69q-2 12 -5 28t-5.5 33t-4.5 33t-2 27z" />
</font>
</defs>
</svg>
