<?xml version="1.0" standalone="no"?>
<!DOCTYPE svg PUBLIC "-//W3C//DTD SVG 1.1//EN" "http://www.w3.org/Graphics/SVG/1.1/DTD/svg11.dtd" >
<svg>
<metadata>
Created by FontForge 20120731 at Sat Jun 29 16:28:15 2019
 By www
Copyright (c) 2013 by Gayane Bagdasaryan, Dmitry Rastvortsev. All rights reserved.
</metadata>
<defs>
<font id="BrutalTypeW00-Regular" horiz-adv-x="606" >
  <font-face 
    font-family="BrutalTypeW00-Regular"
    font-weight="400"
    font-stretch="normal"
    units-per-em="1000"
    panose-1="2 0 6 3 2 0 0 2 0 4"
    ascent="800"
    descent="-200"
    x-height="514"
    cap-height="700"
    bbox="-47 -251 1076 952"
    underline-thickness="50"
    underline-position="-75"
    unicode-range="U+0020-FB02"
  />
<missing-glyph horiz-adv-x="312" 
 />
    <glyph glyph-name="uniFB01" unicode="fi" horiz-adv-x="580" 
d="M102 0v444h-84v70h84q0 102 45 147.5t129 45.5l35 -2v-72l-26 1q-52 0 -77.5 -24t-25.5 -79v-17h315v-514h-80v444h-235v-444h-80zM417 595v110h80v-110h-80z" />
    <glyph glyph-name="uniFB02" unicode="fl" horiz-adv-x="580" 
d="M102 0v444h-84v70h84q0 102 45 147.5t129 45.5l35 -2v-72l-26 1q-52 0 -77.5 -24t-25.5 -79v-17h124v-70h-124v-444h-80zM417 0v705h80v-705h-80z" />
    <glyph glyph-name=".notdef" horiz-adv-x="312" 
 />
    <glyph glyph-name=".null" horiz-adv-x="0" 
 />
    <glyph glyph-name="nonmarkingreturn" horiz-adv-x="333" 
 />
    <glyph glyph-name="space" unicode=" " horiz-adv-x="249" 
 />
    <glyph glyph-name="exclam" unicode="!" horiz-adv-x="271" 
d="M93 0v123h85v-123h-85zM96 220v480h80v-480h-80z" />
    <glyph glyph-name="quotedbl" unicode="&#x22;" horiz-adv-x="363" 
d="M66 469l-16 155v81h87v-81l-16 -155h-55zM242 469l-16 155v81h87v-81l-16 -155h-55z" />
    <glyph glyph-name="numbersign" unicode="#" horiz-adv-x="655" 
d="M102 0v29l30 152h-98v74h114l38 190h-108v74h123l37 181h71v-29l-30 -152h165l37 181h71v-29l-31 -152h100v-74h-115l-38 -190h109v-74h-124l-37 -181h-71v29l30 152h-165l-36 -181h-72zM225 255h166l38 190h-166z" />
    <glyph glyph-name="dollar" unicode="$" horiz-adv-x="604" 
d="M48 227h80q0 -56 23 -93t64 -56.5t96 -19.5q54 0 88.5 19t46.5 47t12 52q0 22 -10.5 44.5t-37.5 40.5t-71 36l-77 31q-68 27 -111 52.5t-62.5 61.5t-19.5 85q0 16 4 37t15.5 44t33.5 45.5t59 39.5t83 21v91h80v-94q90 -14 141.5 -75.5t51.5 -156.5h-81q0 54 -19.5 89.5
t-55.5 54.5t-88 19q-48 0 -82 -17.5t-47 -43t-13 -51.5t10.5 -47.5t38.5 -39t82 -39.5l78 -31q103 -41 142 -84t39 -107q0 -39 -11.5 -69t-31 -54.5t-58.5 -46t-96 -26.5v-101h-80v102q-101 11 -158.5 74t-57.5 166z" />
    <glyph glyph-name="percent" unicode="%" horiz-adv-x="776" 
d="M193 413q28 0 47.5 13t26 31t6.5 33v87q0 34 -21 56t-59 22q-37 0 -58 -22t-21 -56v-87q0 -33 21 -55t58 -22zM193 353q-71 0 -110.5 39t-39.5 108v68q0 69 39.5 108t110.5 39t111 -39t40 -108v-68q0 -70 -39.5 -108.5t-111.5 -38.5zM156 0v29l398 671h65v-29l-399 -671
h-64zM583 44q38 0 59 22.5t21 55.5v87q0 33 -21 55.5t-59 22.5q-18 0 -36.5 -7.5t-30.5 -27t-12 -43.5v-87q0 -24 12 -43.5t30.5 -27t36.5 -7.5zM583 -15q-71 0 -110.5 38.5t-39.5 107.5v69q0 69 39.5 108t110.5 39t111 -39t40 -108v-69q0 -69 -39.5 -107.5t-111.5 -38.5z
" />
    <glyph glyph-name="ampersand" unicode="&#x26;" horiz-adv-x="653" 
d="M619 38v-38h-71l-72 75q-38 -41 -91.5 -64t-116.5 -23q-101 0 -162 53t-61 137q0 56 26.5 99t86.5 91l22 18l-18 20q-32 36 -46 57t-20.5 44t-6.5 47q0 67 46.5 110t118.5 43q70 0 114.5 -41.5t44.5 -110.5q0 -76 -78 -138l-43 -35l176 -188q15 31 24 72.5t9 81.5h75
q0 -120 -52 -211zM270 61q47 0 87 18t68 50l-193 205l-25 -20q-45 -38 -63.5 -64.5t-18.5 -63.5q0 -20 7 -41.5t26.5 -42t50.5 -31t61 -10.5zM169 552q0 -18 7 -36t41 -55l25 -26l42 34q26 21 38.5 41t12.5 46t-14 45t-33 26t-35 7q-37 0 -60.5 -23t-23.5 -59z" />
    <glyph glyph-name="quotesingle" unicode="'" horiz-adv-x="187" 
d="M66 469l-16 155v81h87v-81l-16 -155h-55z" />
    <glyph glyph-name="parenleft" unicode="(" horiz-adv-x="306" 
d="M272 -160q-51 0 -93.5 20.5t-64 63.5t-21.5 96v558q0 53 21.5 96t64 63.5t93.5 20.5v-73q-45 0 -72 -28.5t-27 -74.5v-566q0 -46 27 -74.5t72 -28.5v-73z" />
    <glyph glyph-name="parenright" unicode=")" horiz-adv-x="306" 
d="M34 -160v73q45 0 72 28.5t27 74.5v566q0 46 -27 74.5t-72 28.5v73q51 0 93.5 -20.5t64 -63.5t21.5 -96v-558q0 -53 -21.5 -96t-64 -63.5t-93.5 -20.5z" />
    <glyph glyph-name="asterisk" unicode="*" horiz-adv-x="428" 
d="M182 333l4 138l-117 -73l-32 56l122 65l-122 65l32 56l117 -73l-4 138h64l-5 -138l118 73l32 -56l-123 -65l123 -65l-32 -56l-118 73l5 -138h-64z" />
    <glyph glyph-name="plus" unicode="+" horiz-adv-x="541" 
d="M234 97v182h-177v68h177v178h73v-178h177v-68h-177v-182h-73z" />
    <glyph glyph-name="comma" unicode="," horiz-adv-x="239" 
d="M34 -104l59 236h88v-38l-83 -198h-64z" />
    <glyph glyph-name="hyphen" unicode="-" horiz-adv-x="438" 
d="M63 276v74h313v-74h-313z" />
    <glyph glyph-name="period" unicode="." horiz-adv-x="243" 
d="M75 0v132h94v-132h-94z" />
    <glyph glyph-name="slash" unicode="/" horiz-adv-x="460" 
d="M43 -100v29l302 829h72v-29l-302 -829h-72z" />
    <glyph glyph-name="zero" unicode="0" horiz-adv-x="603" 
d="M301 58q70 0 109.5 43t39.5 111v275q0 69 -39.5 112t-109.5 43q-69 0 -108.5 -43t-39.5 -112v-275q0 -68 39.5 -111t108.5 -43zM301 -15q-105 0 -166.5 61.5t-61.5 170.5v266q0 109 61.5 170.5t166.5 61.5q51 0 94 -15.5t73 -45.5t46 -73.5t16 -97.5v-266
q0 -54 -16 -97.5t-46 -73.5t-73 -45.5t-94 -15.5z" />
    <glyph glyph-name="one" unicode="1" horiz-adv-x="283" 
d="M110 0v598h-68v42l98 60h50v-700h-80z" />
    <glyph glyph-name="two" unicode="2" horiz-adv-x="560" 
d="M56 0v66l211 215q57 58 83 89t41 64t15 70q0 27 -7.5 50.5t-21 41.5t-39.5 32t-66 14q-66 0 -102 -42.5t-37 -114.5h-80q1 107 61.5 168.5t156.5 61.5q37 0 75 -10.5t69 -36t51 -66.5t20 -96q0 -49 -19 -92t-49.5 -80t-90.5 -98l-162 -163h330v-73h-439z" />
    <glyph glyph-name="three" unicode="3" horiz-adv-x="576" 
d="M284 -15q-105 0 -168 60.5t-65 165.5h80q2 -51 23 -85t54.5 -51t78.5 -17q71 0 108.5 39.5t37.5 104.5q0 58 -37 92t-101 34h-55v73h50q57 0 91.5 31.5t34.5 86.5q0 22 -9 48t-29 43.5t-44 24.5t-48 7q-67 0 -103 -41t-37 -113h-80q1 107 60.5 167t159.5 60
q36 0 73.5 -10t67 -33t48.5 -60t19 -86q0 -58 -27 -97.5t-73 -60.5q51 -16 85 -61.5t34 -109.5q0 -99 -61 -155.5t-168 -56.5z" />
    <glyph glyph-name="four" unicode="4" horiz-adv-x="547" 
d="M355 0v152h-322v62l262 486h71v-29l-241 -446h230v186h80v-186h89v-73h-89v-152h-80z" />
    <glyph glyph-name="five" unicode="5" horiz-adv-x="586" 
d="M296 -15q-96 0 -157.5 53t-73.5 148h80q6 -42 31.5 -73.5t59 -43t62.5 -11.5q71 0 108.5 46t37.5 125q0 78 -39.5 121.5t-104.5 43.5q-32 0 -67 -14t-61 -48h-79l33 368h358v-73h-292l-19 -213q60 47 141 47q43 0 81.5 -13.5t67 -41.5t45 -72.5t16.5 -103.5
q0 -114 -61.5 -179.5t-166.5 -65.5z" />
    <glyph glyph-name="six" unicode="6" horiz-adv-x="581" 
d="M296 -15q-109 0 -171 62.5t-62 171.5q0 33 12 75.5t55 110.5l185 295h74v-29l-168 -262q19 12 47.5 19.5t58.5 7.5q89 0 145 -58t56 -159q0 -109 -62 -171.5t-170 -62.5zM296 58q73 0 112.5 42.5t39.5 114.5q0 71 -38 113t-113 42q-72 0 -113 -41.5t-41 -113.5
t39.5 -114.5t113.5 -42.5z" />
    <glyph glyph-name="seven" unicode="7" horiz-adv-x="536" 
d="M172 0v29l231 598h-282v-123h-75v196h440v-68l-242 -632h-72z" />
    <glyph glyph-name="eight" unicode="8" horiz-adv-x="608" 
d="M304 -15q-114 0 -177.5 55.5t-63.5 151.5q0 65 37.5 112t89.5 63q-47 21 -70.5 51.5t-29.5 57t-6 49.5q0 39 14.5 74t42.5 61t70 40.5t93 14.5q38 0 77.5 -10t71 -33.5t51.5 -60.5t20 -86q0 -53 -25.5 -93.5t-79.5 -64.5q52 -16 89 -63t37 -112q0 -96 -63.5 -151.5
t-177.5 -55.5zM163 519q0 -27 12.5 -55.5t47.5 -48t81 -19.5q30 0 60 10t48.5 30t25 41.5t6.5 41.5q0 26 -12 55.5t-45.5 48.5t-82.5 19q-24 0 -49 -6t-47.5 -22t-33.5 -42.5t-11 -52.5zM144 195q0 -62 42 -99.5t118 -37.5t118 37.5t42 99.5q0 61 -43 99.5t-117 38.5
t-117 -38.5t-43 -99.5z" />
    <glyph glyph-name="nine" unicode="9" horiz-adv-x="581" 
d="M199 0v29l165 263q-19 -12 -47 -20t-58 -8q-92 0 -149 58.5t-57 160.5q0 107 62 169.5t171 62.5t170.5 -62.5t61.5 -169.5q0 -44 -15.5 -88t-49.5 -100l-181 -295h-73zM286 642q-74 0 -113.5 -42t-39.5 -114t38.5 -114.5t112.5 -42.5q72 0 113 42t41 115
q0 71 -39.5 113.5t-112.5 42.5z" />
    <glyph glyph-name="colon" unicode=":" horiz-adv-x="243" 
d="M75 0v132h94v-132h-94zM75 382v132h94v-132h-94z" />
    <glyph glyph-name="semicolon" unicode=";" horiz-adv-x="239" 
d="M34 -104l59 236h88v-38l-83 -198h-64zM85 382v132h94v-132h-94z" />
    <glyph glyph-name="less" unicode="&#x3c;" horiz-adv-x="502" 
d="M405 97l-348 186v66l348 185h40v-56l-308 -162l308 -162v-57h-40z" />
    <glyph glyph-name="equal" unicode="=" horiz-adv-x="541" 
d="M57 171v68h427v-68h-427zM57 388v67h427v-67h-427z" />
    <glyph glyph-name="greater" unicode="&#x3e;" horiz-adv-x="502" 
d="M57 97v57l308 162l-308 162v56h40l348 -185v-66l-348 -186h-40z" />
    <glyph glyph-name="question" unicode="?" horiz-adv-x="513" 
d="M208 220v107l84 58q47 33 64.5 51t25.5 40t8 48q0 34 -19 64t-50 42t-63 12q-67 0 -108 -41t-41 -113h-76q0 53 17 96t47.5 72t72 44t88.5 15q64 0 110.5 -23.5t74 -66.5t27.5 -100q0 -46 -18.5 -81t-46.5 -60.5t-71 -53.5l-46 -31v-79h-80zM206 0v123h85v-123h-85z" />
    <glyph glyph-name="at" unicode="@" horiz-adv-x="1002" 
d="M510 -151q-94 0 -175 31.5t-139.5 90t-90.5 138.5t-32 173q0 94 32 175t90 138.5t139.5 88.5t175.5 31q86 0 163 -27.5t134.5 -79.5t89.5 -126t32 -161q0 -118 -49.5 -190t-131.5 -72q-31 0 -57.5 11t-41.5 31t-20 41q-28 -35 -68.5 -58t-89.5 -23q-54 0 -91.5 23.5
t-56 60.5t-18.5 86v101q0 49 18.5 86t56 61t91.5 24q24 0 53 -8.5t56 -27.5t45 -42l28 67h36v-300q0 -33 15.5 -52t46.5 -19q29 0 53 19.5t40.5 63.5t16.5 117q0 75 -27.5 137.5t-76 106t-112.5 66.5t-135 23q-79 0 -147.5 -26.5t-117.5 -75.5t-76 -118.5t-27 -151.5
q0 -81 27 -150t76.5 -118.5t117.5 -76t147 -26.5h25v-62h-25zM484 126q74 0 135 71v166q-36 43 -69.5 58.5t-65.5 15.5q-23 0 -49 -11t-43.5 -39.5t-17.5 -65.5v-78q0 -51 30.5 -84t79.5 -33z" />
    <glyph glyph-name="A" unicode="A" horiz-adv-x="656" 
d="M23 0v29l261 671h87l262 -671v-29h-86l-70 186h-302l-72 -186h-80zM201 260h249l-124 324z" />
    <glyph glyph-name="B" unicode="B" horiz-adv-x="655" 
d="M93 0v700h294q89 0 138.5 -47.5t49.5 -136.5q0 -113 -91 -152q38 -11 64.5 -34.5t40 -57.5t13.5 -81q0 -92 -50.5 -141.5t-139.5 -49.5h-319zM180 77h217q57 0 87.5 31.5t30.5 87.5q0 42 -17.5 71t-45.5 39.5t-55 10.5h-217v-240zM180 391h194q54 0 84 31t30 85
q0 55 -30 85.5t-86 30.5h-192v-232z" />
    <glyph glyph-name="C" unicode="C" horiz-adv-x="659" 
d="M341 -15q-126 0 -197 66.5t-71 185.5v226q0 119 71 185.5t197 66.5q51 0 91 -12.5t69 -32t50 -47.5t33 -65.5t12 -80.5v-10h-87v10q0 39 -14.5 69t-39.5 50t-56 29.5t-59 9.5q-87 0 -133.5 -43.5t-46.5 -122.5v-238q0 -79 46.5 -122.5t133.5 -43.5q28 0 59 9.5t56 29.5
t39.5 50t14.5 69v10h87v-10q0 -28 -7 -62t-25 -64.5t-49 -56.5t-77 -40.5t-97 -14.5z" />
    <glyph glyph-name="D" unicode="D" horiz-adv-x="679" 
d="M180 77h157q85 0 133.5 45t48.5 120v216q0 75 -48.5 120t-133.5 45h-157v-546zM93 0v700h244q124 0 196.5 -64.5t72.5 -179.5v-212q0 -115 -72.5 -179.5t-196.5 -64.5h-244z" />
    <glyph glyph-name="E" unicode="E" horiz-adv-x="584" 
d="M93 0v700h436v-77h-349v-232h302v-77h-302v-237h350v-77h-437z" />
    <glyph glyph-name="F" unicode="F" horiz-adv-x="577" 
d="M93 0v700h441v-77h-353v-237h305v-77h-305v-309h-88z" />
    <glyph glyph-name="G" unicode="G" horiz-adv-x="689" 
d="M335 -15q-120 0 -191 68t-71 184v226q0 118 73 185t200 67q51 0 98 -14.5t83 -44t57.5 -74t21.5 -101.5v-6h-87v6q0 45 -21 78.5t-60 54.5t-94 21q-85 0 -134.5 -44.5t-49.5 -121.5v-232q0 -78 48 -125t132 -47q60 0 106 29t73 83v106h-160v74h247v-357h-49l-24 87
q-68 -102 -198 -102z" />
    <glyph glyph-name="H" unicode="H" horiz-adv-x="701" 
d="M93 0v700h87v-310h341v310h87v-700h-87v313h-341v-313h-87z" />
    <glyph glyph-name="I" unicode="I" horiz-adv-x="273" 
d="M93 0v700h87v-700h-87z" />
    <glyph glyph-name="J" unicode="J" horiz-adv-x="572" 
d="M256 -15q-78 0 -129.5 27t-77.5 74.5t-26 117.5v29h87v-30q0 -68 39 -103t107 -35q39 0 74 15t53.5 49t18.5 77v494h87v-496q0 -68 -26.5 -116t-78 -75.5t-128.5 -27.5z" />
    <glyph glyph-name="K" unicode="K" horiz-adv-x="612" 
d="M93 0v700h87v-310h112l203 310h81v-29l-208 -315l221 -327v-29h-86l-210 313h-113v-313h-87z" />
    <glyph glyph-name="L" unicode="L" horiz-adv-x="561" 
d="M93 0v700h87v-623h358v-77h-445z" />
    <glyph glyph-name="M" unicode="M" horiz-adv-x="803" 
d="M93 0v700h84l226 -355l226 355h81v-700h-84v546l-196 -308h-57l-196 307v-545h-84z" />
    <glyph glyph-name="N" unicode="N" horiz-adv-x="701" 
d="M93 0v700h80l348 -539v539h87v-700h-80l-348 538v-538h-87z" />
    <glyph glyph-name="O" unicode="O" horiz-adv-x="684" 
d="M342 65q53 0 96.5 20.5t64.5 60.5t21 86v236q0 46 -21 86t-64.5 60.5t-96.5 20.5q-86 0 -134 -46t-48 -121v-236q0 -75 48 -121t134 -46zM342 -15q-60 0 -110.5 17t-85.5 49.5t-54 79.5t-19 105v228q0 58 19 105t54 79.5t85.5 49.5t110.5 17t110.5 -17t85.5 -49.5
t54 -79.5t19 -105v-228q0 -58 -19 -105t-54 -79.5t-85.5 -49.5t-110.5 -17z" />
    <glyph glyph-name="P" unicode="P" horiz-adv-x="627" 
d="M93 0v700h293q90 0 141.5 -57t51.5 -154q0 -96 -51.5 -153t-141.5 -57h-206v-279h-87zM180 356h191q54 0 86.5 35t32.5 98q0 32 -7.5 54t-21.5 40.5t-39.5 29t-50.5 10.5h-191v-267z" />
    <glyph glyph-name="Q" unicode="Q" horiz-adv-x="685" 
d="M528 -119l-81 119q-19 -7 -49.5 -11t-55.5 -4q-60 0 -110.5 17t-85.5 49.5t-54 79.5t-19 105v228q0 58 19 105t54 79.5t85.5 49.5t110.5 17t110 -17t85.5 -49.5t54 -79.5t18.5 -105v-228q0 -129 -86 -196l88 -129v-30h-84zM342 65q86 0 134 45.5t48 120.5v238
q0 75 -48 120.5t-134 45.5t-134 -45t-48 -121v-238q0 -76 48 -121t134 -45z" />
    <glyph glyph-name="R" unicode="R" horiz-adv-x="651" 
d="M93 0v700h293q97 0 150 -56t53 -155q0 -80 -35 -129.5t-99 -71.5l145 -259v-29h-86l-155 277h-179v-277h-87zM180 354h191q62 0 95.5 34.5t33.5 100.5t-33.5 100t-95.5 34h-191v-269z" />
    <glyph glyph-name="S" unicode="S" horiz-adv-x="633" 
d="M318 -15q-53 0 -102 15t-87 44.5t-59.5 76t-21.5 106.5h87q0 -32 11.5 -63t40 -55.5t67 -34t68.5 -9.5q47 0 84.5 14.5t54.5 41.5t17 57q0 29 -15 49.5t-47.5 38.5t-97.5 43l-50 18q-118 42 -158 85t-40 110q0 86 65 139.5t176 53.5q84 0 140 -29t85 -80.5t29 -126.5h-87
q0 51 -22.5 88t-62.5 52.5t-83 15.5q-69 0 -111 -30t-42 -77q0 -25 11.5 -46t43 -39t92.5 -40l47 -17q96 -35 139 -64t61.5 -64t18.5 -76t-16 -77.5t-48 -63t-79.5 -41.5t-108.5 -15z" />
    <glyph glyph-name="T" unicode="T" horiz-adv-x="558" 
d="M236 0v623h-213v77h512v-77h-212v-623h-87z" />
    <glyph glyph-name="U" unicode="U" horiz-adv-x="681" 
d="M341 -15q-56 0 -103.5 16t-82 47t-53.5 77t-19 103v472h87v-475q0 -73 45.5 -116.5t125.5 -43.5q79 0 124.5 43t45.5 117v475h87v-472q0 -57 -19 -102.5t-53.5 -77t-82 -47.5t-102.5 -16z" />
    <glyph glyph-name="V" unicode="V" horiz-adv-x="656" 
d="M285 0l-262 671v29h83l224 -584l221 584h82v-29l-261 -671h-87z" />
    <glyph glyph-name="W" unicode="W" horiz-adv-x="817" 
d="M181 0l-138 671v29h86l111 -561l143 363h55l145 -365l110 563h81v-29l-138 -671h-82l-145 369l-146 -369h-82z" />
    <glyph glyph-name="X" unicode="X" horiz-adv-x="629" 
d="M33 0v29l227 330l-215 312v29h88l181 -273l187 273h82v-29l-216 -312l229 -330v-29h-88l-196 290l-196 -290h-83z" />
    <glyph glyph-name="Y" unicode="Y" horiz-adv-x="609" 
d="M261 0v278l-248 393v29h86l206 -335l211 335h79v-29l-247 -390v-281h-87z" />
    <glyph glyph-name="Z" unicode="Z" horiz-adv-x="577" 
d="M43 0v76l382 547h-368v77h468v-75l-382 -548h392v-77h-492z" />
    <glyph glyph-name="bracketleft" unicode="[" horiz-adv-x="323" 
d="M93 -160v918h202v-73h-122v-772h122v-73h-202z" />
    <glyph glyph-name="backslash" unicode="\" horiz-adv-x="460" 
d="M417 -71v-29h-72l-302 829v29h72z" />
    <glyph glyph-name="bracketright" unicode="]" horiz-adv-x="323" 
d="M230 758v-918h-202v73h122v772h-122v73h202z" />
    <glyph glyph-name="asciicircum" unicode="^" horiz-adv-x="507" 
d="M57 387v29l161 289h69l162 -289v-29h-68l-129 229l-126 -229h-69z" />
    <glyph glyph-name="underscore" unicode="_" horiz-adv-x="540" 
d="M-1 -118v68h542v-68h-542z" />
    <glyph glyph-name="grave" unicode="`" horiz-adv-x="292" 
d="M161 590l-100 112v28h76l95 -140h-71z" />
    <glyph glyph-name="a" unicode="a" horiz-adv-x="547" 
d="M218 -12q-31 0 -63 9t-56 28t-37.5 47.5t-13.5 64.5q0 79 54.5 121.5t158.5 42.5h129v51q0 46 -30.5 73.5t-88.5 27.5q-56 0 -87 -26.5t-31 -68.5h-78q0 36 12 67t36.5 53.5t62 35t85.5 12.5q36 0 72 -8.5t64 -29t45.5 -53t17.5 -78.5v-357h-48l-30 65
q-27 -30 -73.5 -53.5t-100.5 -23.5zM234 61q23 0 51.5 8t56 25.5t48.5 38.5v103h-129q-70 0 -101.5 -25t-31.5 -65q0 -20 10 -40.5t36 -32.5t60 -12z" />
    <glyph glyph-name="b" unicode="b" horiz-adv-x="578" 
d="M329 -12q-52 0 -96 23t-74 57l-28 -68h-48v705h80v-254q26 31 68.5 53t94.5 22q61 0 102 -25.5t61.5 -66.5t20.5 -97v-160q0 -89 -50.5 -139t-130.5 -50zM314 61q52 0 84 34t32 88v148q0 54 -32 88t-83 34q-77 0 -152 -81v-230q75 -81 151 -81z" />
    <glyph glyph-name="c" unicode="c" horiz-adv-x="533" 
d="M270 -12q-97 0 -153.5 52.5t-56.5 138.5v156q0 86 56.5 138.5t153.5 52.5q95 0 151 -50t56 -134v-5h-80v6q0 49 -34 79.5t-93 30.5q-62 0 -96 -32t-34 -84v-160q0 -52 34 -84t96 -32q59 0 93 31.5t34 80.5v7h80v-6q0 -84 -56.5 -135t-150.5 -51z" />
    <glyph glyph-name="d" unicode="d" horiz-adv-x="578" 
d="M249 -12q-80 0 -130.5 50t-50.5 139v160q0 56 20.5 97t61.5 66.5t102 25.5q52 0 94.5 -22t68.5 -53v254h80v-705h-48l-28 68q-30 -34 -73.5 -57t-96.5 -23zM264 61q76 0 151 81v230q-75 81 -152 81q-51 0 -83 -34t-32 -88v-148q0 -54 32 -88t84 -34z" />
    <glyph glyph-name="e" unicode="e" horiz-adv-x="541" 
d="M274 -12q-99 0 -156.5 51t-57.5 138v158q0 86 57.5 138.5t156.5 52.5q97 0 152.5 -51.5t55.5 -137.5v-107h-342v-51q0 -51 34 -84.5t100 -33.5q27 0 54.5 8.5t46.5 31t24 53.5h80q-7 -77 -60.5 -121.5t-144.5 -44.5zM140 295h262v42q0 24 -11 51.5t-42 46t-78 18.5
q-48 0 -78.5 -19t-41.5 -46t-11 -51v-42z" />
    <glyph glyph-name="f" unicode="f" horiz-adv-x="334" 
d="M102 0v444h-84v70h84q0 102 45 147.5t129 45.5l35 -2v-72l-26 1q-52 0 -77.5 -24t-25.5 -79v-17h124v-70h-124v-444h-80z" />
    <glyph glyph-name="g" unicode="g" horiz-adv-x="578" 
d="M288 -172q-45 0 -78.5 10t-60 27t-47.5 50t-22 81h80q2 -40 35.5 -67.5t92.5 -27.5q63 0 95 32t32 92v88q-26 -31 -68.5 -53t-94.5 -22q-61 0 -102 25.5t-61.5 66.5t-20.5 97v110q0 89 50.5 139t130.5 50q40 0 85.5 -18t83.5 -62l29 68h48v-487q0 -98 -55.5 -148.5
t-151.5 -50.5zM266 111q77 0 149 80v182q-72 80 -149 80q-25 0 -53 -11t-46.5 -40.5t-18.5 -69.5v-100q0 -40 18.5 -69.5t46.5 -40.5t53 -11z" />
    <glyph glyph-name="h" unicode="h" horiz-adv-x="583" 
d="M83 0v705h80v-254q29 32 72 53.5t94 21.5q37 0 69.5 -12.5t56.5 -37.5t37.5 -61.5t13.5 -81.5v-333h-80v324q0 65 -32.5 97t-81.5 32q-42 0 -82 -24.5t-67 -56.5v-372h-80z" />
    <glyph glyph-name="i" unicode="i" horiz-adv-x="246" 
d="M83 0v514h80v-514h-80zM83 595v110h80v-110h-80z" />
    <glyph glyph-name="j" unicode="j" horiz-adv-x="247" 
d="M12 -172l-34 2v71h25q41 0 61 25t20 78v510h80v-511q0 -32 -7.5 -64t-25 -57t-47.5 -39.5t-72 -14.5zM84 595v110h80v-110h-80z" />
    <glyph glyph-name="k" unicode="k" horiz-adv-x="526" 
d="M83 0v705h80v-407h88l153 216h66v-38l-148 -209l162 -229v-38h-72l-161 228h-88v-228h-80z" />
    <glyph glyph-name="l" unicode="l" horiz-adv-x="246" 
d="M83 0v705h80v-705h-80z" />
    <glyph glyph-name="m" unicode="m" horiz-adv-x="882" 
d="M83 0v514h48l28 -68q70 80 161 80q37 0 68 -13.5t49 -35.5t27 -43q23 28 54 50.5t64 32t59 9.5q77 0 120.5 -48t43.5 -137v-341h-80v332q0 59 -29 90t-74 31q-73 0 -140 -83q2 -22 2 -66v-304h-80v332q0 59 -29 90t-74 31q-21 0 -46.5 -9t-49.5 -29t-42 -43v-372h-80z
" />
    <glyph glyph-name="n" unicode="n" horiz-adv-x="583" 
d="M83 0v514h48l28 -68q30 34 73.5 57t95.5 23q79 0 128.5 -51t49.5 -142v-333h-80v324q0 65 -32.5 97t-81.5 32q-22 0 -49 -9t-54 -29t-46 -43v-372h-80z" />
    <glyph glyph-name="o" unicode="o" horiz-adv-x="547" 
d="M274 61q32 0 63 11.5t50.5 41.5t19.5 68v150q0 38 -19.5 68t-50.5 41.5t-63 11.5q-65 0 -99.5 -35t-34.5 -86v-150q0 -51 34.5 -86t99.5 -35zM274 -12q-102 0 -158 53.5t-56 137.5v156q0 84 56 137.5t158 53.5q38 0 76.5 -9.5t68.5 -33t49 -60.5t19 -88v-156
q0 -40 -13.5 -75t-40.5 -61t-67.5 -40.5t-91.5 -14.5z" />
    <glyph glyph-name="p" unicode="p" horiz-adv-x="578" 
d="M329 526q80 0 130.5 -50t50.5 -139v-160q0 -56 -20.5 -97t-61.5 -66.5t-102 -25.5q-52 0 -94.5 22t-68.5 53v-223h-80v674h48l28 -68q30 34 74 57t96 23zM314 61q52 0 84 34t32 88v148q0 54 -32 88t-83 34q-77 0 -152 -81v-230q75 -81 151 -81z" />
    <glyph glyph-name="q" unicode="q" horiz-adv-x="578" 
d="M249 526q40 0 85.5 -18t84.5 -62l28 68h48v-674h-80v223q-26 -31 -68.5 -53t-94.5 -22q-61 0 -102 25.5t-61.5 66.5t-20.5 97v160q0 89 50.5 139t130.5 50zM264 61q76 0 151 81v230q-75 81 -152 81q-51 0 -83 -34t-32 -88v-148q0 -54 32 -88t84 -34z" />
    <glyph glyph-name="r" unicode="r" horiz-adv-x="368" 
d="M83 0v514h42l29 -68q21 23 51.5 43t61.5 28.5t55 8.5h13v-78h-11q-101 0 -161 -72v-376h-80z" />
    <glyph glyph-name="s" unicode="s" horiz-adv-x="546" 
d="M277 -12q-73 0 -123 24.5t-75.5 65t-25.5 96.5h80q0 -35 18 -59.5t52 -39t80 -14.5q26 0 54.5 7.5t47 26.5t18.5 44q0 27 -18.5 43.5t-61.5 27.5l-127 33q-42 11 -69 28t-40.5 42t-13.5 62q0 66 53.5 108.5t145.5 42.5q94 0 148.5 -46.5t54.5 -134.5h-80q0 53 -36 80.5
t-93 27.5q-41 0 -68 -12.5t-36 -29.5t-9 -31q0 -26 17 -42t56 -26l125 -31q64 -16 98 -47.5t34 -88.5q0 -70 -55.5 -113.5t-150.5 -43.5z" />
    <glyph glyph-name="t" unicode="t" horiz-adv-x="367" 
d="M271 0q-34 0 -65.5 9.5t-53.5 31t-33.5 53t-11.5 73.5v277h-84v70h84v107h80v-107h132v-70h-132v-275q0 -96 84 -96h48v-73h-48z" />
    <glyph glyph-name="u" unicode="u" horiz-adv-x="582" 
d="M499 514v-514h-48l-29 68q-29 -34 -72.5 -57t-95.5 -23q-78 0 -127 51t-49 142v333h80v-324q0 -65 32 -97t80 -32q22 0 49 9t54 29t46 43v372h80z" />
    <glyph glyph-name="v" unicode="v" horiz-adv-x="505" 
d="M215 0l-192 476v38h75l157 -406l154 406h73v-38l-192 -476h-75z" />
    <glyph glyph-name="w" unicode="w" horiz-adv-x="711" 
d="M385 417l109 -309l96 406h72v-38l-119 -476h-78l-109 293l-110 -293h-79l-119 476v38h73l97 -406l109 309h58z" />
    <glyph glyph-name="x" unicode="x" horiz-adv-x="517" 
d="M470 476l-162 -217l167 -221v-38h-72l-146 198l-142 -198h-72v38l165 221l-163 217v38h73l141 -192l138 192h73v-38z" />
    <glyph glyph-name="y" unicode="y" horiz-adv-x="505" 
d="M159 -160v30l57 130l-193 476v38h75l157 -406l154 406h73v-38l-256 -636h-67z" />
    <glyph glyph-name="z" unicode="z" horiz-adv-x="520" 
d="M53 0v70l300 374h-288v70h385v-70l-302 -374h310v-70h-405z" />
    <glyph glyph-name="braceleft" unicode="{" horiz-adv-x="327" 
d="M299 -160q-83 0 -131.5 47t-48.5 133v169q0 79 -59 79h-27v74h27q59 0 59 79v157q0 86 48.5 133t131.5 47v-73q-46 0 -73 -28.5t-27 -74.5v-182q0 -28 -13 -55.5t-44 -39.5q24 -9 40.5 -33t16.5 -62v-194q0 -46 27 -74.5t73 -28.5v-73z" />
    <glyph glyph-name="bar" unicode="|" horiz-adv-x="266" 
d="M93 -100v858h80v-858h-80z" />
    <glyph glyph-name="braceright" unicode="}" horiz-adv-x="327" 
d="M28 -160v73q46 0 73 28.5t27 74.5v194q0 28 13 55.5t44 39.5q-24 9 -40.5 33t-16.5 62v182q0 46 -27 74.5t-73 28.5v73q83 0 131.5 -47t48.5 -133v-157q0 -79 59 -79h27v-74h-27q-59 0 -59 -79v-169q0 -86 -48.5 -133t-131.5 -47z" />
    <glyph glyph-name="asciitilde" unicode="~" horiz-adv-x="479" 
d="M98 247l-51 38q30 49 58 73t60 24q34 0 70 -26l21 -15q32 -23 55 -23q12 0 25.5 9t44.5 53l52 -37q-29 -50 -57.5 -74.5t-60.5 -24.5q-30 0 -64 22l-24 16q-32 21 -41.5 24t-14.5 3q-14 0 -28 -9t-45 -53z" />
    <glyph glyph-name="uni00A0" unicode="&#xa0;" horiz-adv-x="249" 
 />
    <glyph glyph-name="exclamdown" unicode="&#xa1;" horiz-adv-x="270" 
d="M95 -160v458h80v-458h-80zM93 391v123h84v-123h-84z" />
    <glyph glyph-name="cent" unicode="&#xa2;" horiz-adv-x="536" 
d="M299 700v-87q83 -7 132 -56t49 -126v-6h-80v6q0 43 -27.5 72.5t-75.5 35.5v-387q48 7 75.5 36.5t27.5 72.5v8h80v-6q0 -78 -49.5 -128t-131.5 -57v-78h-60v79q-83 8 -131 59t-48 130v156q0 78 48 129t131 60v87h60zM140 266q0 -45 26.5 -75.5t74.5 -37.5v386
q-101 -17 -101 -133v-140z" />
    <glyph glyph-name="sterling" unicode="&#xa3;" horiz-adv-x="577" 
d="M43 0v73h74v247h-74v73h74v131q0 86 56.5 138.5t153.5 52.5q95 0 151 -51t56 -140v-32h-80v32q0 40 -18.5 68t-48 39t-60.5 11q-62 0 -96 -32t-34 -84v-133h166v-73h-166v-247h337v-73h-491z" />
    <glyph glyph-name="yen" unicode="&#xa5;" horiz-adv-x="586" 
d="M252 0v111h-187v73h187v96h-187v73h144l-196 318v29h76l204 -341l204 341h75v-29l-197 -318h144v-73h-187v-96h187v-73h-187v-111h-80z" />
    <glyph glyph-name="brokenbar" unicode="&#xa6;" horiz-adv-x="266" 
d="M93 -100v344h80v-344h-80zM93 435v323h80v-323h-80z" />
    <glyph glyph-name="section" unicode="&#xa7;" horiz-adv-x="574" 
d="M290 -172q-48 0 -91 12.5t-76 37.5t-51.5 63t-18.5 87h77q0 -42 21.5 -70.5t59.5 -42.5t85 -14q59 0 94.5 24t35.5 68q0 25 -19.5 45t-85.5 44l-64 23q-59 22 -98.5 44t-64.5 54t-25 81q0 40 18.5 78t47.5 70q-39 28 -50 57t-11 59q0 25 9.5 51.5t33.5 50.5t65.5 40.5
t100.5 16.5q74 0 124 -24t76 -66.5t26 -103.5h-77q0 40 -20 67t-55 40.5t-77 13.5q-56 0 -91 -23t-35 -64q0 -27 19.5 -47.5t88.5 -45.5l64 -24q72 -27 110.5 -51t58 -54t19.5 -71q0 -72 -70 -148q34 -25 49.5 -51t15.5 -67q0 -68 -59 -114t-160 -46zM386 136
q23 27 36.5 55.5t13.5 52.5q0 30 -27 58.5t-104 57.5l-111 42q-45 -55 -45 -108q0 -31 26 -59t99 -56z" />
    <glyph glyph-name="dieresis" unicode="&#xa8;" horiz-adv-x="376" 
d="M54 595v110h80v-110h-80zM243 595v110h80v-110h-80z" />
    <glyph glyph-name="copyright" unicode="&#xa9;" horiz-adv-x="866" 
d="M433 140q-83 0 -128.5 43.5t-45.5 119.5v95q0 76 45.5 119.5t128.5 43.5q44 0 84 -17t61 -53.5t21 -82.5v-3h-64v3q0 22 -10.5 44.5t-36 36.5t-56.5 14q-52 0 -80.5 -27t-28.5 -73v-104q0 -46 28.5 -73.5t80.5 -27.5q31 0 56.5 14t36 37t10.5 45v2h64v-2q0 -46 -19 -79.5
t-56 -54t-91 -20.5zM433 -15q-74 0 -140.5 28t-115.5 77.5t-76.5 117t-27.5 142.5t27.5 142.5t76.5 117t115.5 77.5t140.5 28t140.5 -28t115.5 -77.5t76.5 -117t27.5 -142.5t-27.5 -142.5t-76.5 -117t-115.5 -77.5t-140.5 -28zM433 41q61 0 116.5 23.5t97 65.5t64.5 99
t23 121t-23 121t-64.5 99t-97 65.5t-116.5 23.5q-62 0 -117.5 -23.5t-96.5 -65.5t-64 -99t-23 -121t23 -121t64 -99t96.5 -65.5t117.5 -23.5z" />
    <glyph glyph-name="ordfeminine" unicode="&#xaa;" horiz-adv-x="435" 
d="M176 353q-52 0 -86 25.5t-34 74.5q0 53 36 79.5t112 26.5h81v28q0 26 -17.5 40.5t-50.5 14.5q-32 0 -49.5 -15.5t-17.5 -41.5h-77q0 25 11.5 53.5t45 47.5t86.5 19q36 0 70.5 -10.5t54 -38.5t19.5 -64v-234h-46l-18 40q-21 -18 -52.5 -31.5t-67.5 -13.5zM192 416
q27 0 52.5 13t40.5 27v52h-75q-39 0 -58.5 -13t-19.5 -35t16.5 -33t43.5 -11z" />
    <glyph glyph-name="guillemotleft" unicode="&#xab;" horiz-adv-x="532" 
d="M194 63l-156 209l156 208h70v-27l-137 -181l137 -182v-27h-70zM400 63l-156 209l156 208h70v-27l-137 -181l137 -182v-27h-70z" />
    <glyph glyph-name="logicalnot" unicode="&#xac;" horiz-adv-x="541" 
d="M412 200v188h-355v67h427v-255h-72z" />
    <glyph glyph-name="uni00AD" unicode="&#xad;" horiz-adv-x="438" 
d="M63 276v74h313v-74h-313z" />
    <glyph glyph-name="registered" unicode="&#xae;" horiz-adv-x="408" 
d="M136 455v177h79q29 0 45.5 -14.5t16.5 -39.5q0 -16 -9 -32.5t-33 -22.5l42 -56v-12h-28l-47 64h-36v-64h-30zM166 546h49q13 0 23 7.5t10 21.5t-10 21t-23 7h-49v-57zM204 371q-25 0 -53 8.5t-53 29.5t-43 55t-18 79q0 26 8.5 55.5t29.5 55t53.5 43.5t75.5 18
q25 0 53 -8.5t53 -29.5t43 -55t18 -79q0 -26 -8.5 -55.5t-29.5 -55t-53.5 -43.5t-75.5 -18zM204 400q56 0 96 41.5t40 101.5t-40 101.5t-96 41.5t-96 -41.5t-40 -101.5t40 -101.5t96 -41.5z" />
    <glyph glyph-name="macron" unicode="&#xaf;" horiz-adv-x="435" 
d="M75 617v66h285v-66h-285z" />
    <glyph glyph-name="degree" unicode="&#xb0;" horiz-adv-x="387" 
d="M193 418q38 0 59 22.5t21 55.5v81q0 34 -21 56t-59 22q-37 0 -58 -22t-21 -56v-81q0 -34 21 -56t58 -22zM193 358q-71 0 -110.5 39t-39.5 108v63q0 69 39.5 108t110.5 39t111 -39t40 -108v-63q0 -69 -40 -108t-111 -39z" />
    <glyph glyph-name="plusminus" unicode="&#xb1;" horiz-adv-x="541" 
d="M234 155v175h-177v67h177v170h73v-170h177v-67h-177v-175h-73zM57 11v68h427v-68h-427z" />
    <glyph glyph-name="uni00B2" unicode="&#xb2;" horiz-adv-x="315" 
d="M38 358v61l105 86q45 37 51 52.5t6 26.5q0 23 -13.5 36.5t-35.5 13.5q-23 0 -37.5 -15t-14.5 -42h-66q0 30 11.5 59.5t42 49t68.5 19.5q24 0 51.5 -10.5t46 -38t18.5 -62.5q0 -33 -14.5 -62t-63.5 -68l-53 -42h135v-64h-237z" />
    <glyph glyph-name="uni00B3" unicode="&#xb3;" horiz-adv-x="327" 
d="M164 353q-27 0 -58 11t-51.5 39.5t-21.5 66.5h64q1 -24 19 -38.5t47 -14.5q28 0 43 12.5t15 31.5q0 18 -15.5 30t-39.5 12h-39v55h39q21 0 33.5 12.5t12.5 29.5t-14.5 29t-39.5 12q-26 0 -42 -15t-16 -41h-62q0 41 19.5 70t48 39.5t54.5 10.5t54 -9.5t46 -33t18 -52.5
q0 -26 -12 -44.5t-32 -27.5q23 -8 39 -29t16 -49q0 -47 -34 -77t-91 -30z" />
    <glyph glyph-name="acute" unicode="&#xb4;" horiz-adv-x="292" 
d="M232 702l-100 -112h-71l95 140h76v-28z" />
    <glyph glyph-name="uni00B5" unicode="&#xb5;" horiz-adv-x="587" 
d="M504 514v-514h-48l-29 68q-68 -80 -158 -80q-29 0 -59 15.5t-47 44.5v-208h-80v674h80v-324q0 -65 32 -97t80 -32q22 0 49 9t54 29t46 43v372h80z" />
    <glyph glyph-name="paragraph" unicode="&#xb6;" horiz-adv-x="598" 
d="M218 -87v455q-81 0 -128 42.5t-47 119.5v8q0 78 46.5 120t128.5 42h286v-787h-76v714h-134v-714h-76z" />
    <glyph glyph-name="periodcentered" unicode="&#xb7;" horiz-adv-x="243" 
d="M75 250v132h94v-132h-94z" />
    <glyph glyph-name="cedilla" unicode="&#xb8;" horiz-adv-x="293" 
d="M68 -132l96 132h71l-91 -160h-76v28z" />
    <glyph glyph-name="uni00B9" unicode="&#xb9;" horiz-adv-x="242" 
d="M91 358v247h-61v38l91 57h45v-342h-75z" />
    <glyph glyph-name="ordmasculine" unicode="&#xba;" horiz-adv-x="406" 
d="M203 420q38 0 60.5 23.5t22.5 58.5v54q0 35 -22 58.5t-61 23.5t-61 -23.5t-22 -58.5v-54q0 -35 22 -58.5t61 -23.5zM203 353q-70 0 -114 39t-44 110v54q0 71 44 110t114 39q71 0 114.5 -39t43.5 -110v-54q0 -71 -43.5 -110t-114.5 -39z" />
    <glyph glyph-name="guillemotright" unicode="&#xbb;" horiz-adv-x="532" 
d="M288 272l-156 -209h-70v27l137 182l-137 181v27h70zM494 272l-156 -209h-70v27l137 182l-137 181v27h70z" />
    <glyph glyph-name="onequarter" unicode="&#xbc;" horiz-adv-x="694" 
d="M79 0v29l399 671h64v-29l-399 -671h-64zM91 358v247h-61v38l91 57h45v-342h-75zM498 342h55v-36l-103 -177h97v71h75v-71h52v-64h-52v-65h-75v65h-181v53z" />
    <glyph glyph-name="onehalf" unicode="&#xbd;" horiz-adv-x="705" 
d="M79 0v29l399 671h64v-29l-399 -671h-64zM91 358v247h-61v38l91 57h45v-342h-75zM428 0v61l105 86q45 37 51 52.5t6 26.5q0 23 -13.5 36.5t-35.5 13.5q-23 0 -37.5 -15t-14.5 -42h-66q0 30 11.5 59.5t42 49t68.5 19.5q24 0 51.5 -10.5t46 -38t18.5 -62.5q0 -33 -14.5 -62
t-63.5 -68l-53 -42h135v-64h-237z" />
    <glyph glyph-name="threequarters" unicode="&#xbe;" horiz-adv-x="764" 
d="M150 0v29l399 671h64v-29l-399 -671h-64zM569 342h55v-36l-103 -177h97v71h75v-71h52v-64h-52v-65h-75v65h-181v53zM164 353q-27 0 -58 11t-51.5 39.5t-21.5 66.5h64q1 -24 19 -38.5t47 -14.5q28 0 43 12.5t15 31.5q0 18 -15.5 30t-39.5 12h-39v55h39q21 0 33.5 12.5
t12.5 29.5t-14.5 29t-39.5 12q-26 0 -42 -15t-16 -41h-62q0 41 19.5 70t48 39.5t54.5 10.5t54 -9.5t46 -33t18 -52.5q0 -26 -12 -44.5t-32 -27.5q23 -8 39 -29t16 -49q0 -47 -34 -77t-91 -30z" />
    <glyph glyph-name="questiondown" unicode="&#xbf;" horiz-adv-x="513" 
d="M298 298v-97l-80 -49q-65 -39 -83.5 -71t-18.5 -70q0 -32 19 -60t50 -39t63 -11q68 0 108 39.5t40 110.5h77q0 -39 -11.5 -79t-42 -75.5t-77.5 -52t-94 -16.5q-64 0 -110.5 22t-74 63.5t-27.5 97.5q0 55 30 99.5t105 90.5l47 29v68h80zM300 514v-123h-85v123h85z" />
    <glyph glyph-name="Agrave" unicode="&#xc0;" horiz-adv-x="656" 
d="M23 0v29l261 671h87l262 -671v-29h-86l-70 186h-302l-72 -186h-80zM201 260h249l-124 324zM291 762l-108 121v30h82l102 -151h-76z" />
    <glyph glyph-name="Aacute" unicode="&#xc1;" horiz-adv-x="656" 
d="M23 0v29l261 671h87l262 -671v-29h-86l-70 186h-302l-72 -186h-80zM201 260h249l-124 324zM481 883l-107 -121h-77l102 151h82v-30z" />
    <glyph glyph-name="Acircumflex" unicode="&#xc2;" horiz-adv-x="656" 
d="M23 0v29l261 671h87l262 -671v-29h-86l-70 186h-302l-72 -186h-80zM201 260h249l-124 324zM364 913l111 -122v-29h-71l-78 91l-77 -91h-70v29l111 122h74z" />
    <glyph glyph-name="Atilde" unicode="&#xc3;" horiz-adv-x="656" 
d="M23 0v29l261 671h87l262 -671v-29h-86l-70 186h-302l-72 -186h-80zM201 260h249l-124 324zM194 763l-49 33q29 49 54.5 72.5t55.5 23.5q29 0 69 -26l21 -13q33 -23 53 -23q11 0 23.5 8.5t41.5 50.5l49 -33q-28 -49 -54 -72.5t-57 -23.5q-34 0 -65 23l-20 13
q-30 20 -40.5 23t-15.5 3q-11 0 -23 -8.5t-43 -50.5z" />
    <glyph glyph-name="Adieresis" unicode="&#xc4;" horiz-adv-x="656" 
d="M23 0v29l261 671h87l262 -671v-29h-86l-70 186h-302l-72 -186h-80zM201 260h249l-124 324zM183 768v118h86v-118h-86zM385 768v118h86v-118h-86z" />
    <glyph glyph-name="Aring" unicode="&#xc5;" horiz-adv-x="656" 
d="M23 0v29l261 671h87l262 -671v-29h-86l-70 186h-302l-72 -186h-80zM201 260h249l-124 324zM218 846q0 20 11 45t38 43t59 18q21 0 46.5 -10.5t44 -37t18.5 -58.5q0 -20 -11 -44t-38.5 -42t-59.5 -18q-20 0 -45.5 10.5t-44 36.5t-18.5 57zM270 846q0 -21 17 -37.5
t39 -16.5q23 0 40 16.5t17 37.5q0 23 -17 39t-40 16q-22 0 -39 -16t-17 -39z" />
    <glyph glyph-name="AE" unicode="&#xc6;" horiz-adv-x="972" 
d="M13 0v29l422 671h482v-77h-349v-234h302v-74h-302v-238h350v-77h-437v186h-272l-118 -186h-78zM255 260h226v359z" />
    <glyph glyph-name="Ccedilla" unicode="&#xc7;" horiz-adv-x="659" 
d="M209 -132l88 120q-107 11 -165.5 76t-58.5 173v226q0 119 71 185.5t197 66.5q51 0 91 -12.5t69 -32t50 -47.5t33 -65.5t12 -80.5v-10h-87v10q0 39 -14.5 69t-39.5 50t-56 29.5t-59 9.5q-87 0 -133.5 -43.5t-46.5 -122.5v-238q0 -79 46.5 -122.5t133.5 -43.5q28 0 59 9.5
t56 29.5t39.5 50t14.5 69v10h87v-10q0 -68 -27 -118t-78 -81.5t-123 -37.5l-83 -146h-76v28z" />
    <glyph glyph-name="Egrave" unicode="&#xc8;" horiz-adv-x="584" 
d="M93 0v700h436v-77h-349v-232h302v-77h-302v-237h350v-77h-437zM301 762l-108 121v30h82l102 -151h-76z" />
    <glyph glyph-name="Eacute" unicode="&#xc9;" horiz-adv-x="584" 
d="M93 0v700h436v-77h-349v-232h302v-77h-302v-237h350v-77h-437zM430 883l-107 -121h-77l102 151h82v-30z" />
    <glyph glyph-name="Ecircumflex" unicode="&#xca;" horiz-adv-x="584" 
d="M93 0v700h436v-77h-349v-232h302v-77h-302v-237h350v-77h-437zM351 913l111 -122v-29h-71l-78 91l-77 -91h-70v29l111 122h74z" />
    <glyph glyph-name="Edieresis" unicode="&#xcb;" horiz-adv-x="584" 
d="M93 0v700h436v-77h-349v-232h302v-77h-302v-237h350v-77h-437zM166 768v118h86v-118h-86zM368 768v118h86v-118h-86z" />
    <glyph glyph-name="Igrave" unicode="&#xcc;" horiz-adv-x="273" 
d="M93 0v700h87v-700h-87zM103 762l-108 121v30h82l102 -151h-76z" />
    <glyph glyph-name="Iacute" unicode="&#xcd;" horiz-adv-x="273" 
d="M93 0v700h87v-700h-87zM285 883l-107 -121h-77l102 151h82v-30z" />
    <glyph glyph-name="Icircumflex" unicode="&#xce;" horiz-adv-x="273" 
d="M93 0v700h87v-700h-87zM174 913l111 -122v-29h-71l-78 91l-77 -91h-70v29l111 122h74z" />
    <glyph glyph-name="Idieresis" unicode="&#xcf;" horiz-adv-x="273" 
d="M93 0v700h87v-700h-87zM-7 768v119h86v-119h-86zM196 768v119h86v-119h-86z" />
    <glyph glyph-name="Eth" unicode="&#xd0;" horiz-adv-x="702" 
d="M203 77h157q85 0 133.5 45t48.5 120v216q0 75 -48.5 120t-133.5 45h-157v-235h173v-74h-173v-237zM116 0v314h-96v74h96v312h244q124 0 196.5 -64.5t72.5 -179.5v-212q0 -115 -72.5 -179.5t-196.5 -64.5h-244z" />
    <glyph glyph-name="Ntilde" unicode="&#xd1;" horiz-adv-x="701" 
d="M93 0v700h80l348 -539v539h87v-700h-80l-348 538v-538h-87zM219 763l-49 33q29 49 54.5 72.5t55.5 23.5q29 0 69 -26l21 -13q33 -23 53 -23q11 0 23.5 8.5t41.5 50.5l49 -33q-28 -49 -54 -72.5t-57 -23.5q-34 0 -65 23l-20 13q-30 20 -40.5 23t-15.5 3q-11 0 -23 -8.5
t-43 -50.5z" />
    <glyph glyph-name="Ograve" unicode="&#xd2;" horiz-adv-x="684" 
d="M342 65q53 0 96.5 20.5t64.5 60.5t21 86v236q0 46 -21 86t-64.5 60.5t-96.5 20.5q-86 0 -134 -46t-48 -121v-236q0 -75 48 -121t134 -46zM342 -15q-60 0 -110.5 17t-85.5 49.5t-54 79.5t-19 105v228q0 58 19 105t54 79.5t85.5 49.5t110.5 17t110.5 -17t85.5 -49.5
t54 -79.5t19 -105v-228q0 -58 -19 -105t-54 -79.5t-85.5 -49.5t-110.5 -17zM322 762l-108 121v30h82l102 -151h-76z" />
    <glyph glyph-name="Oacute" unicode="&#xd3;" horiz-adv-x="684" 
d="M342 65q53 0 96.5 20.5t64.5 60.5t21 86v236q0 46 -21 86t-64.5 60.5t-96.5 20.5q-86 0 -134 -46t-48 -121v-236q0 -75 48 -121t134 -46zM342 -15q-60 0 -110.5 17t-85.5 49.5t-54 79.5t-19 105v228q0 58 19 105t54 79.5t85.5 49.5t110.5 17t110.5 -17t85.5 -49.5
t54 -79.5t19 -105v-228q0 -58 -19 -105t-54 -79.5t-85.5 -49.5t-110.5 -17zM488 883l-107 -121h-77l102 151h82v-30z" />
    <glyph glyph-name="Ocircumflex" unicode="&#xd4;" horiz-adv-x="684" 
d="M342 65q53 0 96.5 20.5t64.5 60.5t21 86v236q0 46 -21 86t-64.5 60.5t-96.5 20.5q-86 0 -134 -46t-48 -121v-236q0 -75 48 -121t134 -46zM342 -15q-60 0 -110.5 17t-85.5 49.5t-54 79.5t-19 105v228q0 58 19 105t54 79.5t85.5 49.5t110.5 17t110.5 -17t85.5 -49.5
t54 -79.5t19 -105v-228q0 -58 -19 -105t-54 -79.5t-85.5 -49.5t-110.5 -17zM379 913l111 -122v-29h-71l-78 91l-77 -91h-70v29l111 122h74z" />
    <glyph glyph-name="Otilde" unicode="&#xd5;" horiz-adv-x="684" 
d="M342 65q53 0 96.5 20.5t64.5 60.5t21 86v236q0 46 -21 86t-64.5 60.5t-96.5 20.5q-86 0 -134 -46t-48 -121v-236q0 -75 48 -121t134 -46zM342 -15q-60 0 -110.5 17t-85.5 49.5t-54 79.5t-19 105v228q0 58 19 105t54 79.5t85.5 49.5t110.5 17t110.5 -17t85.5 -49.5
t54 -79.5t19 -105v-228q0 -58 -19 -105t-54 -79.5t-85.5 -49.5t-110.5 -17zM213 763l-49 33q29 49 54.5 72.5t55.5 23.5q29 0 69 -26l21 -13q33 -23 53 -23q11 0 23.5 8.5t41.5 50.5l49 -33q-28 -49 -54 -72.5t-57 -23.5q-34 0 -65 23l-20 13q-30 20 -40.5 23t-15.5 3
q-11 0 -23 -8.5t-43 -50.5z" />
    <glyph glyph-name="Odieresis" unicode="&#xd6;" horiz-adv-x="684" 
d="M342 65q53 0 96.5 20.5t64.5 60.5t21 86v236q0 46 -21 86t-64.5 60.5t-96.5 20.5q-86 0 -134 -46t-48 -121v-236q0 -75 48 -121t134 -46zM342 -15q-60 0 -110.5 17t-85.5 49.5t-54 79.5t-19 105v228q0 58 19 105t54 79.5t85.5 49.5t110.5 17t110.5 -17t85.5 -49.5
t54 -79.5t19 -105v-228q0 -58 -19 -105t-54 -79.5t-85.5 -49.5t-110.5 -17zM199 768v118h86v-118h-86zM401 768v118h86v-118h-86z" />
    <glyph glyph-name="multiply" unicode="&#xd7;" horiz-adv-x="518" 
d="M109 109l-52 51l150 151l-150 150l52 52l150 -150l150 150l52 -52l-151 -150l151 -151l-52 -51l-150 150z" />
    <glyph glyph-name="Oslash" unicode="&#xd8;" horiz-adv-x="683" 
d="M342 -15q-43 0 -81 9l-32 -94h-65v29l31 88q-42 22 -71.5 59.5t-40 80.5t-10.5 79v228q0 58 19 105t54 79.5t85.5 49.5t110.5 17q43 0 93 -12l33 97h65v-29l-33 -95q52 -31 81 -85.5t29 -126.5v-228q0 -58 -18.5 -105t-54 -79.5t-85.5 -49.5t-110 -17zM160 232
q0 -90 65 -134l184 527q-32 10 -67 10q-86 0 -134 -46t-48 -121v-236zM342 65q53 0 96.5 20.5t64.5 60.5t21 86v236q0 80 -55 126l-182 -523q24 -6 55 -6z" />
    <glyph glyph-name="Ugrave" unicode="&#xd9;" horiz-adv-x="681" 
d="M341 -15q-56 0 -103.5 16t-82 47t-53.5 77t-19 103v472h87v-475q0 -73 45.5 -116.5t125.5 -43.5q79 0 124.5 43t45.5 117v475h87v-472q0 -57 -19 -102.5t-53.5 -77t-82 -47.5t-102.5 -16zM326 762l-108 121v30h82l102 -151h-76z" />
    <glyph glyph-name="Uacute" unicode="&#xda;" horiz-adv-x="681" 
d="M341 -15q-56 0 -103.5 16t-82 47t-53.5 77t-19 103v472h87v-475q0 -73 45.5 -116.5t125.5 -43.5q79 0 124.5 43t45.5 117v475h87v-472q0 -57 -19 -102.5t-53.5 -77t-82 -47.5t-102.5 -16zM478 883l-107 -121h-77l102 151h82v-30z" />
    <glyph glyph-name="Ucircumflex" unicode="&#xdb;" horiz-adv-x="681" 
d="M341 -15q-56 0 -103.5 16t-82 47t-53.5 77t-19 103v472h87v-475q0 -73 45.5 -116.5t125.5 -43.5q79 0 124.5 43t45.5 117v475h87v-472q0 -57 -19 -102.5t-53.5 -77t-82 -47.5t-102.5 -16zM378 913l111 -122v-29h-71l-78 91l-77 -91h-70v29l111 122h74z" />
    <glyph glyph-name="Udieresis" unicode="&#xdc;" horiz-adv-x="681" 
d="M341 -15q-56 0 -103.5 16t-82 47t-53.5 77t-19 103v472h87v-475q0 -73 45.5 -116.5t125.5 -43.5q79 0 124.5 43t45.5 117v475h87v-472q0 -57 -19 -102.5t-53.5 -77t-82 -47.5t-102.5 -16zM197 768v118h86v-118h-86zM399 768v118h86v-118h-86z" />
    <glyph glyph-name="Yacute" unicode="&#xdd;" horiz-adv-x="609" 
d="M261 0v278l-248 393v29h86l206 -335l211 335h79v-29l-247 -390v-281h-87zM441 883l-107 -121h-77l102 151h82v-30z" />
    <glyph glyph-name="Thorn" unicode="&#xde;" horiz-adv-x="627" 
d="M93 0v700h87v-137h206q90 0 141.5 -57t51.5 -154q0 -96 -51.5 -153t-141.5 -57h-206v-142h-87zM180 219h191q54 0 86.5 35t32.5 98q0 65 -34 100t-85 35h-191v-268z" />
    <glyph glyph-name="germandbls" unicode="&#xdf;" horiz-adv-x="591" 
d="M83 0v467q0 114 57.5 177t158.5 63q35 0 71.5 -9t69.5 -34t48.5 -61.5t15.5 -72.5q0 -110 -89 -145q51 -15 87 -63.5t36 -113.5q0 -98 -60 -153t-163 -55q-40 0 -67 6v71q32 -4 61 -4q73 0 111 37.5t38 101.5q0 63 -39.5 99.5t-107.5 36.5h-53v70h46q58 0 87 28.5
t29 78.5q0 47 -31.5 78t-88.5 31q-66 0 -101.5 -41t-35.5 -118v-475h-80z" />
    <glyph glyph-name="agrave" unicode="&#xe0;" horiz-adv-x="547" 
d="M218 -12q-31 0 -63 9t-56 28t-37.5 47.5t-13.5 64.5q0 79 54.5 121.5t158.5 42.5h129v51q0 46 -30.5 73.5t-88.5 27.5q-56 0 -87 -26.5t-31 -68.5h-78q0 36 12 67t36.5 53.5t62 35t85.5 12.5q36 0 72 -8.5t64 -29t45.5 -53t17.5 -78.5v-357h-48l-30 65
q-27 -30 -73.5 -53.5t-100.5 -23.5zM234 61q23 0 51.5 8t56 25.5t48.5 38.5v103h-129q-70 0 -101.5 -25t-31.5 -65q0 -20 10 -40.5t36 -32.5t60 -12zM276 590l-100 112v28h76l95 -140h-71z" />
    <glyph glyph-name="aacute" unicode="&#xe1;" horiz-adv-x="547" 
d="M218 -12q-31 0 -63 9t-56 28t-37.5 47.5t-13.5 64.5q0 79 54.5 121.5t158.5 42.5h129v51q0 46 -30.5 73.5t-88.5 27.5q-56 0 -87 -26.5t-31 -68.5h-78q0 36 12 67t36.5 53.5t62 35t85.5 12.5q36 0 72 -8.5t64 -29t45.5 -53t17.5 -78.5v-357h-48l-30 65
q-27 -30 -73.5 -53.5t-100.5 -23.5zM234 61q23 0 51.5 8t56 25.5t48.5 38.5v103h-129q-70 0 -101.5 -25t-31.5 -65q0 -20 10 -40.5t36 -32.5t60 -12zM397 702l-100 -112h-71l95 140h76v-28z" />
    <glyph glyph-name="acircumflex" unicode="&#xe2;" horiz-adv-x="547" 
d="M218 -12q-31 0 -63 9t-56 28t-37.5 47.5t-13.5 64.5q0 79 54.5 121.5t158.5 42.5h129v51q0 46 -30.5 73.5t-88.5 27.5q-56 0 -87 -26.5t-31 -68.5h-78q0 36 12 67t36.5 53.5t62 35t85.5 12.5q36 0 72 -8.5t64 -29t45.5 -53t17.5 -78.5v-357h-48l-30 65
q-27 -30 -73.5 -53.5t-100.5 -23.5zM234 61q23 0 51.5 8t56 25.5t48.5 38.5v103h-129q-70 0 -101.5 -25t-31.5 -65q0 -20 10 -40.5t36 -32.5t60 -12zM310 730l104 -113v-27h-67l-72 84l-72 -84h-66v27l104 113h69z" />
    <glyph glyph-name="atilde" unicode="&#xe3;" horiz-adv-x="547" 
d="M218 -12q-31 0 -63 9t-56 28t-37.5 47.5t-13.5 64.5q0 79 54.5 121.5t158.5 42.5h129v51q0 46 -30.5 73.5t-88.5 27.5q-56 0 -87 -26.5t-31 -68.5h-78q0 36 12 67t36.5 53.5t62 35t85.5 12.5q36 0 72 -8.5t64 -29t45.5 -53t17.5 -78.5v-357h-48l-30 65
q-27 -30 -73.5 -53.5t-100.5 -23.5zM234 61q23 0 51.5 8t56 25.5t48.5 38.5v103h-129q-70 0 -101.5 -25t-31.5 -65q0 -20 10 -40.5t36 -32.5t60 -12zM155 602l-48 32q28 47 53 70t54 23q30 0 68 -25l20 -13q32 -22 52 -22q10 0 22.5 8.5t40.5 48.5l48 -32q-27 -47 -52.5 -70
t-55.5 -23q-32 0 -64 22l-19 13q-20 13 -31.5 19t-23.5 6q-11 0 -23 -8.5t-41 -48.5z" />
    <glyph glyph-name="adieresis" unicode="&#xe4;" horiz-adv-x="547" 
d="M218 -12q-31 0 -63 9t-56 28t-37.5 47.5t-13.5 64.5q0 79 54.5 121.5t158.5 42.5h129v51q0 46 -30.5 73.5t-88.5 27.5q-56 0 -87 -26.5t-31 -68.5h-78q0 36 12 67t36.5 53.5t62 35t85.5 12.5q36 0 72 -8.5t64 -29t45.5 -53t17.5 -78.5v-357h-48l-30 65
q-27 -30 -73.5 -53.5t-100.5 -23.5zM234 61q23 0 51.5 8t56 25.5t48.5 38.5v103h-129q-70 0 -101.5 -25t-31.5 -65q0 -20 10 -40.5t36 -32.5t60 -12zM136 595v110h80v-110h-80zM325 595v110h80v-110h-80z" />
    <glyph glyph-name="aring" unicode="&#xe5;" horiz-adv-x="547" 
d="M218 -12q-31 0 -63 9t-56 28t-37.5 47.5t-13.5 64.5q0 79 54.5 121.5t158.5 42.5h129v51q0 46 -30.5 73.5t-88.5 27.5q-56 0 -87 -26.5t-31 -68.5h-78q0 36 12 67t36.5 53.5t62 35t85.5 12.5q36 0 72 -8.5t64 -29t45.5 -53t17.5 -78.5v-357h-48l-30 65
q-27 -30 -73.5 -53.5t-100.5 -23.5zM234 61q23 0 51.5 8t56 25.5t48.5 38.5v103h-129q-70 0 -101.5 -25t-31.5 -65q0 -20 10 -40.5t36 -32.5t60 -12zM173 667q0 19 10 42t35.5 40t55.5 17q19 0 43 -10t41.5 -34.5t17.5 -54.5q0 -40 -30 -68.5t-72 -28.5q-41 0 -71 28.5
t-30 68.5zM222 667q0 -20 15.5 -35t36.5 -15t37 15t16 35q0 21 -15.5 36.5t-37.5 15.5q-21 0 -36.5 -15.5t-15.5 -36.5z" />
    <glyph glyph-name="ae" unicode="&#xe6;" horiz-adv-x="871" 
d="M218 -12q-54 0 -92 19t-58 51.5t-20 77.5q0 78 54 120t159 42h129v53q0 46 -30.5 74t-88.5 28q-56 0 -87 -26.5t-31 -68.5h-78q0 36 12 67t36.5 53.5t62 35t85.5 12.5q58 0 100 -20t64 -54q25 34 68.5 54t99.5 20q97 0 153 -51t56 -138v-103h-342v-56q0 -38 20 -67
t51 -39.5t62 -10.5q55 0 87 25t39 68h80q-7 -77 -60.5 -121.5t-145.5 -44.5q-71 0 -121 27.5t-73 74.5q-30 -44 -79.5 -73t-111.5 -29zM234 62q49 0 90.5 24.5t65.5 58.5v89h-129q-70 0 -101.5 -24.5t-31.5 -64.5q0 -20 10 -40t36 -31.5t60 -11.5zM470 298h262v38
q0 37 -17.5 64t-46 40t-67.5 13q-48 0 -78.5 -19.5t-41.5 -46.5t-11 -51v-38z" />
    <glyph glyph-name="ccedilla" unicode="&#xe7;" horiz-adv-x="533" 
d="M139 -132l89 123q-59 8 -96 36t-54.5 66.5t-17.5 85.5v156q0 86 56.5 138.5t153.5 52.5q95 0 151 -50t56 -134v-5h-80v6q0 49 -34 79.5t-93 30.5q-62 0 -96 -32t-34 -84v-160q0 -52 34 -84t96 -32q59 0 93 31.5t34 80.5v7h80v-6q0 -47 -19 -85.5t-58.5 -65.5t-99.5 -33
l-85 -150h-76v28z" />
    <glyph glyph-name="egrave" unicode="&#xe8;" horiz-adv-x="541" 
d="M274 -12q-99 0 -156.5 51t-57.5 138v158q0 86 57.5 138.5t156.5 52.5q97 0 152.5 -51.5t55.5 -137.5v-107h-342v-51q0 -51 34 -84.5t100 -33.5q27 0 54.5 8.5t46.5 31t24 53.5h80q-7 -77 -60.5 -121.5t-144.5 -44.5zM140 295h262v42q0 24 -11 51.5t-42 46t-78 18.5
q-48 0 -78.5 -19t-41.5 -46t-11 -51v-42zM267 590l-100 112v28h76l95 -140h-71z" />
    <glyph glyph-name="eacute" unicode="&#xe9;" horiz-adv-x="541" 
d="M274 -12q-99 0 -156.5 51t-57.5 138v158q0 86 57.5 138.5t156.5 52.5q97 0 152.5 -51.5t55.5 -137.5v-107h-342v-51q0 -51 34 -84.5t100 -33.5q27 0 54.5 8.5t46.5 31t24 53.5h80q-7 -77 -60.5 -121.5t-144.5 -44.5zM140 295h262v42q0 24 -11 51.5t-42 46t-78 18.5
q-48 0 -78.5 -19t-41.5 -46t-11 -51v-42zM379 702l-100 -112h-71l95 140h76v-28z" />
    <glyph glyph-name="ecircumflex" unicode="&#xea;" horiz-adv-x="541" 
d="M274 -12q-99 0 -156.5 51t-57.5 138v158q0 86 57.5 138.5t156.5 52.5q97 0 152.5 -51.5t55.5 -137.5v-107h-342v-51q0 -51 34 -84.5t100 -33.5q27 0 54.5 8.5t46.5 31t24 53.5h80q-7 -77 -60.5 -121.5t-144.5 -44.5zM140 295h262v42q0 24 -11 51.5t-42 46t-78 18.5
q-48 0 -78.5 -19t-41.5 -46t-11 -51v-42zM309 730l104 -113v-27h-67l-72 84l-72 -84h-66v27l104 113h69z" />
    <glyph glyph-name="edieresis" unicode="&#xeb;" horiz-adv-x="541" 
d="M274 -12q-99 0 -156.5 51t-57.5 138v158q0 86 57.5 138.5t156.5 52.5q97 0 152.5 -51.5t55.5 -137.5v-107h-342v-51q0 -51 34 -84.5t100 -33.5q27 0 54.5 8.5t46.5 31t24 53.5h80q-7 -77 -60.5 -121.5t-144.5 -44.5zM140 295h262v42q0 24 -11 51.5t-42 46t-78 18.5
q-48 0 -78.5 -19t-41.5 -46t-11 -51v-42zM138 595v110h80v-110h-80zM327 595v110h80v-110h-80z" />
    <glyph glyph-name="igrave" unicode="&#xec;" horiz-adv-x="246" 
d="M89 588l-100 112v28h76l95 -140h-71zM83 0v514h80v-514h-80z" />
    <glyph glyph-name="iacute" unicode="&#xed;" horiz-adv-x="246" 
d="M259 702l-100 -112h-71l95 140h76v-28zM83 0v514h80v-514h-80z" />
    <glyph glyph-name="icircumflex" unicode="&#xee;" horiz-adv-x="246" 
d="M83 0v514h80v-514h-80zM158 730l104 -113v-27h-67l-72 84l-72 -84h-66v27l104 113h69z" />
    <glyph glyph-name="idieresis" unicode="&#xef;" horiz-adv-x="246" 
d="M-11 595v110h80v-110h-80zM178 595v110h80v-110h-80zM83 0v514h80v-514h-80z" />
    <glyph glyph-name="eth" unicode="&#xf0;" horiz-adv-x="555" 
d="M276 -12q-99 0 -156.5 52.5t-57.5 138.5v99q0 33 9 67t31 61t58 44.5t86 17.5q36 0 71 -13t76 -50q-21 49 -85 129h-165v56h120l-62 77v38h72l90 -115h116v-56h-74q46 -62 65.5 -112t19.5 -124v-121q0 -86 -57.5 -137.5t-156.5 -51.5zM276 61q65 0 99.5 35t34.5 86v137
q-68 76 -144 76q-56 0 -90 -33.5t-34 -88.5v-91q0 -38 19.5 -68t51 -41.5t63.5 -11.5z" />
    <glyph glyph-name="ntilde" unicode="&#xf1;" horiz-adv-x="583" 
d="M83 0v514h48l28 -68q30 34 73.5 57t95.5 23q79 0 128.5 -51t49.5 -142v-333h-80v324q0 65 -32.5 97t-81.5 32q-22 0 -49 -9t-54 -29t-46 -43v-372h-80zM173 602l-48 32q28 47 53 70t54 23q30 0 68 -25l20 -13q32 -22 52 -22q10 0 22.5 8.5t40.5 48.5l48 -32
q-27 -47 -52.5 -70t-55.5 -23q-32 0 -64 22l-19 13q-20 13 -31.5 19t-23.5 6q-11 0 -23 -8.5t-41 -48.5z" />
    <glyph glyph-name="ograve" unicode="&#xf2;" horiz-adv-x="547" 
d="M274 61q32 0 63 11.5t50.5 41.5t19.5 68v150q0 38 -19.5 68t-50.5 41.5t-63 11.5q-65 0 -99.5 -35t-34.5 -86v-150q0 -51 34.5 -86t99.5 -35zM274 -12q-102 0 -158 53.5t-56 137.5v156q0 84 56 137.5t158 53.5q38 0 76.5 -9.5t68.5 -33t49 -60.5t19 -88v-156
q0 -40 -13.5 -75t-40.5 -61t-67.5 -40.5t-91.5 -14.5zM255 590l-100 112v28h76l95 -140h-71z" />
    <glyph glyph-name="oacute" unicode="&#xf3;" horiz-adv-x="547" 
d="M274 61q32 0 63 11.5t50.5 41.5t19.5 68v150q0 38 -19.5 68t-50.5 41.5t-63 11.5q-65 0 -99.5 -35t-34.5 -86v-150q0 -51 34.5 -86t99.5 -35zM274 -12q-102 0 -158 53.5t-56 137.5v156q0 84 56 137.5t158 53.5q38 0 76.5 -9.5t68.5 -33t49 -60.5t19 -88v-156
q0 -40 -13.5 -75t-40.5 -61t-67.5 -40.5t-91.5 -14.5zM395 702l-100 -112h-71l95 140h76v-28z" />
    <glyph glyph-name="ocircumflex" unicode="&#xf4;" horiz-adv-x="547" 
d="M274 61q32 0 63 11.5t50.5 41.5t19.5 68v150q0 38 -19.5 68t-50.5 41.5t-63 11.5q-65 0 -99.5 -35t-34.5 -86v-150q0 -51 34.5 -86t99.5 -35zM274 -12q-102 0 -158 53.5t-56 137.5v156q0 84 56 137.5t158 53.5q38 0 76.5 -9.5t68.5 -33t49 -60.5t19 -88v-156
q0 -40 -13.5 -75t-40.5 -61t-67.5 -40.5t-91.5 -14.5zM308 730l104 -113v-27h-67l-72 84l-72 -84h-66v27l104 113h69z" />
    <glyph glyph-name="otilde" unicode="&#xf5;" horiz-adv-x="547" 
d="M274 61q32 0 63 11.5t50.5 41.5t19.5 68v150q0 38 -19.5 68t-50.5 41.5t-63 11.5q-65 0 -99.5 -35t-34.5 -86v-150q0 -51 34.5 -86t99.5 -35zM274 -12q-102 0 -158 53.5t-56 137.5v156q0 84 56 137.5t158 53.5q38 0 76.5 -9.5t68.5 -33t49 -60.5t19 -88v-156
q0 -40 -13.5 -75t-40.5 -61t-67.5 -40.5t-91.5 -14.5zM143 602l-48 32q28 47 53 70t54 23q30 0 68 -25l20 -13q32 -22 52 -22q10 0 22.5 8.5t40.5 48.5l48 -32q-27 -47 -52.5 -70t-55.5 -23q-32 0 -64 22l-19 13q-20 13 -31.5 19t-23.5 6q-11 0 -23 -8.5t-41 -48.5z" />
    <glyph glyph-name="odieresis" unicode="&#xf6;" horiz-adv-x="547" 
d="M274 61q32 0 63 11.5t50.5 41.5t19.5 68v150q0 38 -19.5 68t-50.5 41.5t-63 11.5q-65 0 -99.5 -35t-34.5 -86v-150q0 -51 34.5 -86t99.5 -35zM274 -12q-102 0 -158 53.5t-56 137.5v156q0 84 56 137.5t158 53.5q38 0 76.5 -9.5t68.5 -33t49 -60.5t19 -88v-156
q0 -40 -13.5 -75t-40.5 -61t-67.5 -40.5t-91.5 -14.5zM138 595v110h80v-110h-80zM327 595v110h80v-110h-80z" />
    <glyph glyph-name="divide" unicode="&#xf7;" horiz-adv-x="541" 
d="M225 85v119h91v-119h-91zM57 279v68h427v-68h-427zM225 422v119h91v-119h-91z" />
    <glyph glyph-name="oslash" unicode="&#xf8;" horiz-adv-x="550" 
d="M274 -12q-47 0 -88 13l-62 -127h-64v38l61 124q-30 25 -45.5 62t-15.5 81v156q0 40 13.5 75t40.5 61t67.5 40.5t91.5 14.5q48 0 84 -12l66 132h64v-38l-63 -128q31 -25 47 -63.5t16 -81.5v-156q0 -30 -9 -62.5t-32 -60.5t-65.5 -48t-106.5 -20zM274 61q32 0 63 11.5
t50.5 41.5t19.5 68v141q0 55 -25 86l-167 -338q23 -10 59 -10zM140 182q0 -20 6 -39.5t17 -32.5l165 335q-24 8 -55 8q-65 0 -99 -35t-34 -86v-150z" />
    <glyph glyph-name="ugrave" unicode="&#xf9;" horiz-adv-x="582" 
d="M499 514v-514h-48l-29 68q-29 -34 -72.5 -57t-95.5 -23q-78 0 -127 51t-49 142v333h80v-324q0 -65 32 -97t80 -32q22 0 49 9t54 29t46 43v372h80zM286 590l-100 112v28h76l95 -140h-71z" />
    <glyph glyph-name="uacute" unicode="&#xfa;" horiz-adv-x="582" 
d="M499 514v-514h-48l-29 68q-29 -34 -72.5 -57t-95.5 -23q-78 0 -127 51t-49 142v333h80v-324q0 -65 32 -97t80 -32q22 0 49 9t54 29t46 43v372h80zM397 702l-100 -112h-71l95 140h76v-28z" />
    <glyph glyph-name="ucircumflex" unicode="&#xfb;" horiz-adv-x="582" 
d="M499 514v-514h-48l-29 68q-29 -34 -72.5 -57t-95.5 -23q-78 0 -127 51t-49 142v333h80v-324q0 -65 32 -97t80 -32q22 0 49 9t54 29t46 43v372h80zM325 730l104 -113v-27h-67l-72 84l-72 -84h-66v27l104 113h69z" />
    <glyph glyph-name="udieresis" unicode="&#xfc;" horiz-adv-x="582" 
d="M499 514v-514h-48l-29 68q-29 -34 -72.5 -57t-95.5 -23q-78 0 -127 51t-49 142v333h80v-324q0 -65 32 -97t80 -32q22 0 49 9t54 29t46 43v372h80zM156 595v110h80v-110h-80zM345 595v110h80v-110h-80z" />
    <glyph glyph-name="yacute" unicode="&#xfd;" horiz-adv-x="505" 
d="M159 -160v30l57 130l-193 476v38h75l157 -406l154 406h73v-38l-256 -636h-67zM371 702l-100 -112h-71l95 140h76v-28z" />
    <glyph glyph-name="thorn" unicode="&#xfe;" horiz-adv-x="578" 
d="M327 526q40 0 73.5 -12.5t58 -36.5t38 -59.5t13.5 -80.5v-160q0 -56 -20.5 -97t-61.5 -66.5t-102 -25.5q-52 0 -94.5 22t-68.5 53v-223h-80v865h80v-255q28 32 70 54t94 22zM314 61q52 0 84 34t32 88v148q0 54 -32 88t-83 34q-77 0 -152 -81v-230q75 -81 151 -81z" />
    <glyph glyph-name="ydieresis" unicode="&#xff;" horiz-adv-x="505" 
d="M159 -160v30l57 130l-193 476v38h75l157 -406l154 406h73v-38l-256 -636h-67zM117 595v110h80v-110h-80zM306 595v110h80v-110h-80z" />
    <glyph glyph-name="Amacron" unicode="&#x100;" horiz-adv-x="656" 
d="M23 0v29l261 671h87l262 -671v-29h-86l-70 186h-302l-72 -186h-80zM201 260h249l-124 324zM175 792v71h306v-71h-306z" />
    <glyph glyph-name="amacron" unicode="&#x101;" horiz-adv-x="547" 
d="M218 -12q-31 0 -63 9t-56 28t-37.5 47.5t-13.5 64.5q0 79 54.5 121.5t158.5 42.5h129v51q0 46 -30.5 73.5t-88.5 27.5q-56 0 -87 -26.5t-31 -68.5h-78q0 36 12 67t36.5 53.5t62 35t85.5 12.5q36 0 72 -8.5t64 -29t45.5 -53t17.5 -78.5v-357h-48l-30 65
q-27 -30 -73.5 -53.5t-100.5 -23.5zM234 61q23 0 51.5 8t56 25.5t48.5 38.5v103h-129q-70 0 -101.5 -25t-31.5 -65q0 -20 10 -40.5t36 -32.5t60 -12zM133 617v66h285v-66h-285z" />
    <glyph glyph-name="Aogonek" unicode="&#x104;" horiz-adv-x="656" 
d="M625 -160q-46 0 -73 20t-27 54q0 41 52 86h-30l-70 186h-302l-72 -186h-80v29l261 671h87l262 -671v-29q-51 -38 -51 -68q0 -38 60 -38h39v-54h-56zM201 260h249l-124 324z" />
    <glyph glyph-name="aogonek" unicode="&#x105;" horiz-adv-x="548" 
d="M462 -160q-46 0 -73 20t-27 54q0 41 60 86l-30 65q-27 -30 -73.5 -53.5t-100.5 -23.5q-31 0 -63 9t-56 28t-37.5 47.5t-13.5 64.5q0 79 54.5 121.5t158.5 42.5h129v51q0 46 -30.5 73.5t-88.5 27.5q-56 0 -87 -26.5t-31 -68.5h-78q0 36 12 67t36.5 53.5t62 35t85.5 12.5
q36 0 72 -8.5t64 -29t45.5 -53t17.5 -78.5v-357q-51 -38 -51 -68q0 -38 60 -38h39v-54h-56zM234 61q23 0 51.5 8t56 25.5t48.5 38.5v103h-129q-70 0 -101.5 -25t-31.5 -65q0 -20 10 -40.5t36 -32.5t60 -12z" />
    <glyph glyph-name="Cacute" unicode="&#x106;" horiz-adv-x="659" 
d="M341 -15q-126 0 -197 66.5t-71 185.5v226q0 119 71 185.5t197 66.5q51 0 91 -12.5t69 -32t50 -47.5t33 -65.5t12 -80.5v-10h-87v10q0 39 -14.5 69t-39.5 50t-56 29.5t-59 9.5q-87 0 -133.5 -43.5t-46.5 -122.5v-238q0 -79 46.5 -122.5t133.5 -43.5q28 0 59 9.5t56 29.5
t39.5 50t14.5 69v10h87v-10q0 -28 -7 -62t-25 -64.5t-49 -56.5t-77 -40.5t-97 -14.5zM468 883l-107 -121h-77l102 151h82v-30z" />
    <glyph glyph-name="cacute" unicode="&#x107;" horiz-adv-x="533" 
d="M270 -12q-97 0 -153.5 52.5t-56.5 138.5v156q0 86 56.5 138.5t153.5 52.5q95 0 151 -50t56 -134v-5h-80v6q0 49 -34 79.5t-93 30.5q-62 0 -96 -32t-34 -84v-160q0 -52 34 -84t96 -32q59 0 93 31.5t34 80.5v7h80v-6q0 -84 -56.5 -135t-150.5 -51zM396 702l-100 -112h-71
l95 140h76v-28z" />
    <glyph glyph-name="Ccaron" unicode="&#x10c;" horiz-adv-x="659" 
d="M341 -15q-126 0 -197 66.5t-71 185.5v226q0 119 71 185.5t197 66.5q51 0 91 -12.5t69 -32t50 -47.5t33 -65.5t12 -80.5v-10h-87v10q0 39 -14.5 69t-39.5 50t-56 29.5t-59 9.5q-87 0 -133.5 -43.5t-46.5 -122.5v-238q0 -79 46.5 -122.5t133.5 -43.5q28 0 59 9.5t56 29.5
t39.5 50t14.5 69v10h87v-10q0 -28 -7 -62t-25 -64.5t-49 -56.5t-77 -40.5t-97 -14.5zM485 884l-111 -121h-74l-111 121v29h71l78 -95l77 95h70v-29z" />
    <glyph glyph-name="ccaron" unicode="&#x10d;" horiz-adv-x="533" 
d="M270 -12q-97 0 -153.5 52.5t-56.5 138.5v156q0 86 56.5 138.5t153.5 52.5q95 0 151 -50t56 -134v-5h-80v6q0 49 -34 79.5t-93 30.5q-62 0 -96 -32t-34 -84v-160q0 -52 34 -84t96 -32q59 0 93 31.5t34 80.5v7h80v-6q0 -84 -56.5 -135t-150.5 -51zM414 703l-104 -113h-69
l-104 113v27h67l72 -89l72 89h66v-27z" />
    <glyph glyph-name="Dcaron" unicode="&#x10e;" horiz-adv-x="679" 
d="M180 77h157q85 0 133.5 45t48.5 120v216q0 75 -48.5 120t-133.5 45h-157v-546zM93 0v700h244q124 0 196.5 -64.5t72.5 -179.5v-212q0 -115 -72.5 -179.5t-196.5 -64.5h-244zM466 884l-111 -121h-74l-111 121v29h71l78 -95l77 95h70v-29z" />
    <glyph glyph-name="dcaron" unicode="&#x10f;" horiz-adv-x="686" 
d="M249 -12q-80 0 -130.5 50t-50.5 139v160q0 56 20.5 97t61.5 66.5t102 25.5q52 0 94.5 -22t68.5 -53v254h80v-705h-48l-28 68q-30 -34 -73.5 -57t-96.5 -23zM264 61q76 0 151 81v230q-75 81 -152 81q-51 0 -83 -34t-32 -88v-148q0 -54 32 -88t84 -34zM575 521l49 184h87
v-37l-73 -147h-63z" />
    <glyph glyph-name="Emacron" unicode="&#x112;" horiz-adv-x="584" 
d="M93 0v700h436v-77h-349v-232h302v-77h-302v-237h350v-77h-437zM158 792v71h306v-71h-306z" />
    <glyph glyph-name="emacron" unicode="&#x113;" horiz-adv-x="541" 
d="M274 -12q-99 0 -156.5 51t-57.5 138v158q0 86 57.5 138.5t156.5 52.5q97 0 152.5 -51.5t55.5 -137.5v-107h-342v-51q0 -51 34 -84.5t100 -33.5q27 0 54.5 8.5t46.5 31t24 53.5h80q-7 -77 -60.5 -121.5t-144.5 -44.5zM140 295h262v42q0 24 -11 51.5t-42 46t-78 18.5
q-48 0 -78.5 -19t-41.5 -46t-11 -51v-42zM132 617v66h285v-66h-285z" />
    <glyph glyph-name="Edotaccent" unicode="&#x116;" horiz-adv-x="584" 
d="M93 0v700h436v-77h-349v-232h302v-77h-302v-237h350v-77h-437zM266 774v118h85v-118h-85z" />
    <glyph glyph-name="edotaccent" unicode="&#x117;" horiz-adv-x="541" 
d="M274 -12q-99 0 -156.5 51t-57.5 138v158q0 86 57.5 138.5t156.5 52.5q97 0 152.5 -51.5t55.5 -137.5v-107h-342v-51q0 -51 34 -84.5t100 -33.5q27 0 54.5 8.5t46.5 31t24 53.5h80q-7 -77 -60.5 -121.5t-144.5 -44.5zM140 295h262v42q0 24 -11 51.5t-42 46t-78 18.5
q-48 0 -78.5 -19t-41.5 -46t-11 -51v-42zM235 600v110h80v-110h-80z" />
    <glyph glyph-name="Eogonek" unicode="&#x118;" horiz-adv-x="588" 
d="M93 0v700h436v-77h-349v-232h302v-77h-302v-237h350v-77q-51 -38 -51 -68q0 -38 60 -38h39v-54h-56q-46 0 -73 20t-27 54q0 41 52 86h-381z" />
    <glyph glyph-name="eogonek" unicode="&#x119;" horiz-adv-x="541" 
d="M381 -160q-47 0 -75 20t-28 53q0 36 41 78q-22 -3 -45 -3q-99 0 -156.5 51t-57.5 138v158q0 86 57.5 138.5t156.5 52.5q97 0 152.5 -51.5t55.5 -137.5v-107h-342v-51q0 -51 34 -84.5t100 -33.5q27 0 54.5 8.5t46.5 31t24 53.5h80q-4 -38 -19 -70t-55 -68q-54 -50 -54 -77
q0 -32 52 -32h34v-67h-56zM140 295h262v42q0 24 -11 51.5t-42 46t-78 18.5q-48 0 -78.5 -19t-41.5 -46t-11 -51v-42z" />
    <glyph glyph-name="Ecaron" unicode="&#x11a;" horiz-adv-x="584" 
d="M93 0v700h436v-77h-349v-232h302v-77h-302v-237h350v-77h-437zM463 884l-111 -121h-74l-111 121v29h71l78 -95l77 95h70v-29z" />
    <glyph glyph-name="ecaron" unicode="&#x11b;" horiz-adv-x="541" 
d="M274 -12q-99 0 -156.5 51t-57.5 138v158q0 86 57.5 138.5t156.5 52.5q97 0 152.5 -51.5t55.5 -137.5v-107h-342v-51q0 -51 34 -84.5t100 -33.5q27 0 54.5 8.5t46.5 31t24 53.5h80q-7 -77 -60.5 -121.5t-144.5 -44.5zM140 295h262v42q0 24 -11 51.5t-42 46t-78 18.5
q-48 0 -78.5 -19t-41.5 -46t-11 -51v-42zM411 703l-104 -113h-69l-104 113v27h67l72 -89l72 89h66v-27z" />
    <glyph glyph-name="Gcommaaccent" unicode="&#x122;" horiz-adv-x="693" 
d="M335 -15q-120 0 -191 68t-71 184v226q0 118 73 185t200 67q51 0 98 -14.5t83 -44t57.5 -74t21.5 -101.5v-6h-87v6q0 45 -21 78.5t-60 54.5t-94 21q-85 0 -134.5 -44.5t-49.5 -121.5v-232q0 -78 48 -125t132 -47q60 0 106 29t73 83v106h-160v74h247v-357h-49l-24 87
q-68 -102 -198 -102zM260 -251l49 184h87v-37l-73 -147h-63z" />
    <glyph glyph-name="gcommaaccent" unicode="&#x123;" horiz-adv-x="578" 
d="M288 -172q-45 0 -78.5 10t-60 27t-47.5 50t-22 81h80q2 -40 35.5 -67.5t92.5 -27.5q63 0 95 32t32 92v88q-26 -31 -68.5 -53t-94.5 -22q-61 0 -102 25.5t-61.5 66.5t-20.5 97v110q0 89 50.5 139t130.5 50q40 0 85.5 -18t83.5 -62l29 68h48v-487q0 -98 -55.5 -148.5
t-151.5 -50.5zM266 111q77 0 149 80v182q-72 80 -149 80q-25 0 -53 -11t-46.5 -40.5t-18.5 -69.5v-100q0 -40 18.5 -69.5t46.5 -40.5t53 -11zM378 770l-45 -184h-80v37l67 147h58z" />
    <glyph glyph-name="Imacron" unicode="&#x12a;" horiz-adv-x="273" 
d="M93 0v700h87v-700h-87zM-16 792v71h306v-71h-306z" />
    <glyph glyph-name="imacron" unicode="&#x12b;" horiz-adv-x="246" 
d="M-19 617v66h285v-66h-285zM83 0v514h80v-514h-80z" />
    <glyph glyph-name="Iogonek" unicode="&#x12e;" horiz-adv-x="273" 
d="M93 0v700h87v-700q-51 -38 -51 -68q0 -38 60 -38h39v-54h-56q-46 0 -73 20t-27 54q0 41 52 86h-31z" />
    <glyph glyph-name="iogonek" unicode="&#x12f;" horiz-adv-x="246" 
d="M83 0v514h80v-514q-51 -38 -51 -68q0 -38 60 -38h39v-54h-56q-46 0 -73 20t-27 54q0 41 52 86h-24zM83 595v110h80v-110h-80z" />
    <glyph glyph-name="dotlessi" unicode="&#x131;" horiz-adv-x="246" 
d="M83 0v514h80v-514h-80z" />
    <glyph glyph-name="Kcommaaccent" unicode="&#x136;" horiz-adv-x="612" 
d="M93 0v700h87v-310h112l203 310h81v-29l-208 -315l221 -327v-29h-86l-210 313h-113v-313h-87zM237 -251l49 184h87v-37l-73 -147h-63z" />
    <glyph glyph-name="kcommaaccent" unicode="&#x137;" horiz-adv-x="526" 
d="M83 0v705h80v-407h88l153 216h66v-38l-148 -209l162 -229v-38h-72l-161 228h-88v-228h-80zM192 -251l45 184h80v-37l-67 -147h-58z" />
    <glyph glyph-name="Lacute" unicode="&#x139;" horiz-adv-x="561" 
d="M93 0v700h87v-623h358v-77h-445zM285 883l-107 -121h-77l102 151h82v-30z" />
    <glyph glyph-name="lacute" unicode="&#x13a;" horiz-adv-x="246" 
d="M83 0v705h80v-705h-80zM260 868l-100 -112h-71l95 140h76v-28z" />
    <glyph glyph-name="Lcommaaccent" unicode="&#x13b;" horiz-adv-x="561" 
d="M93 0v700h87v-623h358v-77h-445zM231 -251l49 184h87v-37l-73 -147h-63z" />
    <glyph glyph-name="lcommaaccent" unicode="&#x13c;" horiz-adv-x="246" 
d="M83 0v705h80v-705h-80zM38 -251l45 184h80v-37l-67 -147h-58z" />
    <glyph glyph-name="Lcaron" unicode="&#x13d;" horiz-adv-x="563" 
d="M93 0v700h87v-623h358v-77h-445zM404 516l49 184h87v-37l-73 -147h-63z" />
    <glyph glyph-name="lcaron" unicode="&#x13e;" horiz-adv-x="354" 
d="M83 0v705h80v-705h-80zM243 521l49 184h87v-37l-73 -147h-63z" />
    <glyph glyph-name="Lslash" unicode="&#x141;" horiz-adv-x="601" 
d="M133 0v249l-78 -60h-31v71l109 83v357h87v-290l152 119h31v-72l-183 -142v-238h358v-77h-445z" />
    <glyph glyph-name="lslash" unicode="&#x142;" horiz-adv-x="393" 
d="M156 0v260l-117 -132h-39v60l156 176v341h80v-254l118 135h39v-60l-157 -178v-348h-80z" />
    <glyph glyph-name="Nacute" unicode="&#x143;" horiz-adv-x="701" 
d="M93 0v700h80l348 -539v539h87v-700h-80l-348 538v-538h-87zM467 883l-107 -121h-77l102 151h82v-30z" />
    <glyph glyph-name="nacute" unicode="&#x144;" horiz-adv-x="583" 
d="M83 0v514h48l28 -68q30 34 73.5 57t95.5 23q79 0 128.5 -51t49.5 -142v-333h-80v324q0 65 -32.5 97t-81.5 32q-22 0 -49 -9t-54 -29t-46 -43v-372h-80zM425 702l-100 -112h-71l95 140h76v-28z" />
    <glyph glyph-name="Ncommaaccent" unicode="&#x145;" horiz-adv-x="701" 
d="M93 0v700h80l348 -539v539h87v-700h-80l-348 538v-538h-87zM263 -251l49 184h87v-37l-73 -147h-63z" />
    <glyph glyph-name="ncommaaccent" unicode="&#x146;" horiz-adv-x="583" 
d="M83 0v514h48l28 -68q30 34 73.5 57t95.5 23q79 0 128.5 -51t49.5 -142v-333h-80v324q0 65 -32.5 97t-81.5 32q-22 0 -49 -9t-54 -29t-46 -43v-372h-80zM212 -251l45 184h80v-37l-67 -147h-58z" />
    <glyph glyph-name="Ncaron" unicode="&#x147;" horiz-adv-x="701" 
d="M93 0v700h80l348 -539v539h87v-700h-80l-348 538v-538h-87zM498 884l-111 -121h-74l-111 121v29h71l78 -95l77 95h70v-29z" />
    <glyph glyph-name="ncaron" unicode="&#x148;" horiz-adv-x="583" 
d="M83 0v514h48l28 -68q30 34 73.5 57t95.5 23q79 0 128.5 -51t49.5 -142v-333h-80v324q0 65 -32.5 97t-81.5 32q-22 0 -49 -9t-54 -29t-46 -43v-372h-80zM435 703l-104 -113h-69l-104 113v27h67l72 -89l72 89h66v-27z" />
    <glyph glyph-name="Omacron" unicode="&#x14c;" horiz-adv-x="684" 
d="M342 65q53 0 96.5 20.5t64.5 60.5t21 86v236q0 46 -21 86t-64.5 60.5t-96.5 20.5q-86 0 -134 -46t-48 -121v-236q0 -75 48 -121t134 -46zM342 -15q-60 0 -110.5 17t-85.5 49.5t-54 79.5t-19 105v228q0 58 19 105t54 79.5t85.5 49.5t110.5 17t110.5 -17t85.5 -49.5
t54 -79.5t19 -105v-228q0 -58 -19 -105t-54 -79.5t-85.5 -49.5t-110.5 -17zM189 792v71h306v-71h-306z" />
    <glyph glyph-name="omacron" unicode="&#x14d;" horiz-adv-x="547" 
d="M274 61q32 0 63 11.5t50.5 41.5t19.5 68v150q0 38 -19.5 68t-50.5 41.5t-63 11.5q-65 0 -99.5 -35t-34.5 -86v-150q0 -51 34.5 -86t99.5 -35zM274 -12q-102 0 -158 53.5t-56 137.5v156q0 84 56 137.5t158 53.5q38 0 76.5 -9.5t68.5 -33t49 -60.5t19 -88v-156
q0 -40 -13.5 -75t-40.5 -61t-67.5 -40.5t-91.5 -14.5zM131 617v66h285v-66h-285z" />
    <glyph glyph-name="obreve" unicode="&#x14f;" horiz-adv-x="547" 
d="M274 61q32 0 63 11.5t50.5 41.5t19.5 68v150q0 38 -19.5 68t-50.5 41.5t-63 11.5q-65 0 -99.5 -35t-34.5 -86v-150q0 -51 34.5 -86t99.5 -35zM274 -12q-102 0 -158 53.5t-56 137.5v156q0 84 56 137.5t158 53.5q38 0 76.5 -9.5t68.5 -33t49 -60.5t19 -88v-156
q0 -40 -13.5 -75t-40.5 -61t-67.5 -40.5t-91.5 -14.5zM273 585q-70 0 -113 36.5t-43 100.5v12h70v-11q0 -36 23 -56.5t63 -20.5t63.5 20.5t23.5 56.5v11h70v-12q0 -64 -43.5 -100.5t-113.5 -36.5z" />
    <glyph glyph-name="Ohungarumlaut" unicode="&#x150;" horiz-adv-x="684" 
d="M342 65q53 0 96.5 20.5t64.5 60.5t21 86v236q0 46 -21 86t-64.5 60.5t-96.5 20.5q-86 0 -134 -46t-48 -121v-236q0 -75 48 -121t134 -46zM342 -15q-60 0 -110.5 17t-85.5 49.5t-54 79.5t-19 105v228q0 58 19 105t54 79.5t85.5 49.5t110.5 17t110.5 -17t85.5 -49.5
t54 -79.5t19 -105v-228q0 -58 -19 -105t-54 -79.5t-85.5 -49.5t-110.5 -17zM385 883l-107 -120h-77l102 150h82v-30zM568 883l-107 -120h-76l102 150h81v-30z" />
    <glyph glyph-name="ohungarumlaut" unicode="&#x151;" horiz-adv-x="547" 
d="M274 61q32 0 63 11.5t50.5 41.5t19.5 68v150q0 38 -19.5 68t-50.5 41.5t-63 11.5q-65 0 -99.5 -35t-34.5 -86v-150q0 -51 34.5 -86t99.5 -35zM274 -12q-102 0 -158 53.5t-56 137.5v156q0 84 56 137.5t158 53.5q38 0 76.5 -9.5t68.5 -33t49 -60.5t19 -88v-156
q0 -40 -13.5 -75t-40.5 -61t-67.5 -40.5t-91.5 -14.5zM314 702l-100 -112h-71l95 140h76v-28zM485 702l-100 -112h-71l95 140h76v-28z" />
    <glyph glyph-name="OE" unicode="&#x152;" horiz-adv-x="1015" 
d="M342 -15q-60 0 -110.5 17t-85.5 49.5t-54 79.5t-19 105v228q0 58 19 105t54 79.5t85.5 49.5t110.5 17q58 0 105.5 -23t76.5 -64v72h436v-77h-350v-232h303v-77h-303v-237h351v-77h-437v72q-29 -41 -76.5 -64t-105.5 -23zM342 65q84 0 133 45t49 116v244q0 26 -8 54
t-29 52.5t-56.5 41.5t-88.5 17q-86 0 -134 -46t-48 -121v-236q0 -75 48 -121t134 -46z" />
    <glyph glyph-name="oe" unicode="&#x153;" horiz-adv-x="888" 
d="M274 -12q-102 0 -158 53.5t-56 137.5v156q0 84 56 137.5t158 53.5q60 0 104.5 -22t68.5 -59q25 38 70 59.5t104 21.5q97 0 152.5 -51.5t55.5 -137.5v-107h-342v-55q0 -37 20 -64.5t50.5 -38.5t63.5 -11q27 0 54.5 8.5t46.5 31t24 53.5h80q-7 -77 -60.5 -121.5
t-144.5 -44.5q-60 0 -105 21t-69 59q-25 -37 -69 -58.5t-104 -21.5zM274 61q24 0 48 6t44.5 22.5t30.5 42.5t10 50v151q0 50 -34 85t-99 35t-99.5 -35t-34.5 -86v-150q0 -51 34.5 -86t99.5 -35zM487 295h262v42q0 24 -11 51.5t-42 46t-78 18.5q-48 0 -78.5 -19t-41.5 -46
t-11 -51v-42z" />
    <glyph glyph-name="Racute" unicode="&#x154;" horiz-adv-x="651" 
d="M93 0v700h293q97 0 150 -56t53 -155q0 -80 -35 -129.5t-99 -71.5l145 -259v-29h-86l-155 277h-179v-277h-87zM180 354h191q62 0 95.5 34.5t33.5 100.5t-33.5 100t-95.5 34h-191v-269zM449 883l-107 -121h-77l102 151h82v-30z" />
    <glyph glyph-name="racute" unicode="&#x155;" horiz-adv-x="368" 
d="M83 0v514h42l29 -68q21 23 51.5 43t61.5 28.5t55 8.5h13v-78h-11q-101 0 -161 -72v-376h-80zM323 702l-100 -112h-71l95 140h76v-28z" />
    <glyph glyph-name="Rcommaaccent" unicode="&#x156;" horiz-adv-x="651" 
d="M93 0v700h293q97 0 150 -56t53 -155q0 -80 -35 -129.5t-99 -71.5l145 -259v-29h-86l-155 277h-179v-277h-87zM180 354h191q62 0 95.5 34.5t33.5 100.5t-33.5 100t-95.5 34h-191v-269zM251 -251l49 184h87v-37l-73 -147h-63z" />
    <glyph glyph-name="rcommaaccent" unicode="&#x157;" horiz-adv-x="368" 
d="M83 0v514h42l29 -68q21 23 51.5 43t61.5 28.5t55 8.5h13v-78h-11q-101 0 -161 -72v-376h-80zM38 -251l45 184h80v-37l-67 -147h-58z" />
    <glyph glyph-name="Rcaron" unicode="&#x158;" horiz-adv-x="651" 
d="M93 0v700h293q97 0 150 -56t53 -155q0 -80 -35 -129.5t-99 -71.5l145 -259v-29h-86l-155 277h-179v-277h-87zM180 354h191q62 0 95.5 34.5t33.5 100.5t-33.5 100t-95.5 34h-191v-269zM462 884l-111 -121h-74l-111 121v29h71l78 -95l77 95h70v-29z" />
    <glyph glyph-name="rcaron" unicode="&#x159;" horiz-adv-x="368" 
d="M83 0v514h42l29 -68q21 23 51.5 43t61.5 28.5t55 8.5h13v-78h-11q-101 0 -161 -72v-376h-80zM343 703l-104 -113h-69l-104 113v27h67l72 -89l72 89h66v-27z" />
    <glyph glyph-name="Sacute" unicode="&#x15a;" horiz-adv-x="633" 
d="M318 -15q-53 0 -102 15t-87 44.5t-59.5 76t-21.5 106.5h87q0 -32 11.5 -63t40 -55.5t67 -34t68.5 -9.5q47 0 84.5 14.5t54.5 41.5t17 57q0 29 -15 49.5t-47.5 38.5t-97.5 43l-50 18q-118 42 -158 85t-40 110q0 86 65 139.5t176 53.5q84 0 140 -29t85 -80.5t29 -126.5h-87
q0 51 -22.5 88t-62.5 52.5t-83 15.5q-69 0 -111 -30t-42 -77q0 -25 11.5 -46t43 -39t92.5 -40l47 -17q96 -35 139 -64t61.5 -64t18.5 -76t-16 -77.5t-48 -63t-79.5 -41.5t-108.5 -15zM443 883l-107 -121h-77l102 151h82v-30z" />
    <glyph glyph-name="sacute" unicode="&#x15b;" horiz-adv-x="546" 
d="M277 -12q-73 0 -123 24.5t-75.5 65t-25.5 96.5h80q0 -35 18 -59.5t52 -39t80 -14.5q26 0 54.5 7.5t47 26.5t18.5 44q0 27 -18.5 43.5t-61.5 27.5l-127 33q-42 11 -69 28t-40.5 42t-13.5 62q0 66 53.5 108.5t145.5 42.5q94 0 148.5 -46.5t54.5 -134.5h-80q0 53 -36 80.5
t-93 27.5q-41 0 -68 -12.5t-36 -29.5t-9 -31q0 -26 17 -42t56 -26l125 -31q64 -16 98 -47.5t34 -88.5q0 -70 -55.5 -113.5t-150.5 -43.5zM385 702l-100 -112h-71l95 140h76v-28z" />
    <glyph glyph-name="scircumflex" unicode="&#x15d;" horiz-adv-x="546" 
d="M277 -12q-73 0 -123 24.5t-75.5 65t-25.5 96.5h80q0 -35 18 -59.5t52 -39t80 -14.5q26 0 54.5 7.5t47 26.5t18.5 44q0 27 -18.5 43.5t-61.5 27.5l-127 33q-42 11 -69 28t-40.5 42t-13.5 62q0 66 53.5 108.5t145.5 42.5q94 0 148.5 -46.5t54.5 -134.5h-80q0 53 -36 80.5
t-93 27.5q-41 0 -68 -12.5t-36 -29.5t-9 -31q0 -26 17 -42t56 -26l125 -31q64 -16 98 -47.5t34 -88.5q0 -70 -55.5 -113.5t-150.5 -43.5zM311 730l104 -113v-27h-67l-72 84l-72 -84h-66v27l104 113h69z" />
    <glyph glyph-name="Scaron" unicode="&#x160;" horiz-adv-x="633" 
d="M318 -15q-53 0 -102 15t-87 44.5t-59.5 76t-21.5 106.5h87q0 -32 11.5 -63t40 -55.5t67 -34t68.5 -9.5q47 0 84.5 14.5t54.5 41.5t17 57q0 29 -15 49.5t-47.5 38.5t-97.5 43l-50 18q-118 42 -158 85t-40 110q0 86 65 139.5t176 53.5q84 0 140 -29t85 -80.5t29 -126.5h-87
q0 51 -22.5 88t-62.5 52.5t-83 15.5q-69 0 -111 -30t-42 -77q0 -25 11.5 -46t43 -39t92.5 -40l47 -17q96 -35 139 -64t61.5 -64t18.5 -76t-16 -77.5t-48 -63t-79.5 -41.5t-108.5 -15zM466 884l-111 -121h-74l-111 121v29h71l78 -95l77 95h70v-29z" />
    <glyph glyph-name="scaron" unicode="&#x161;" horiz-adv-x="540" 
d="M274 -12q-73 0 -123 24.5t-75.5 65t-25.5 96.5h80q0 -35 18 -59.5t52 -39t80 -14.5q26 0 54.5 7.5t47 26.5t18.5 44q0 27 -18.5 43.5t-61.5 27.5l-127 33q-42 11 -69 28t-40.5 42t-13.5 62q0 66 53.5 108.5t145.5 42.5q94 0 148.5 -46.5t54.5 -134.5h-80q0 53 -36 80.5
t-93 27.5q-41 0 -68 -12.5t-36 -29.5t-9 -31q0 -26 17 -42t56 -26l125 -31q64 -16 98 -47.5t34 -88.5q0 -70 -55.5 -113.5t-150.5 -43.5zM408 703l-104 -113h-69l-104 113v27h67l72 -89l72 89h66v-27z" />
    <glyph glyph-name="Tcaron" unicode="&#x164;" horiz-adv-x="558" 
d="M236 0v623h-213v77h512v-77h-212v-623h-87zM427 884l-111 -121h-74l-111 121v29h71l78 -95l77 95h70v-29z" />
    <glyph glyph-name="tcaron" unicode="&#x165;" horiz-adv-x="493" 
d="M271 0q-34 0 -65.5 9.5t-53.5 31t-33.5 53t-11.5 73.5v277h-84v70h84v107h80v-107h132v-70h-132v-275q0 -96 84 -96h48v-73h-48zM363 521l49 184h87v-37l-73 -147h-63z" />
    <glyph glyph-name="Umacron" unicode="&#x16a;" horiz-adv-x="681" 
d="M341 -15q-56 0 -103.5 16t-82 47t-53.5 77t-19 103v472h87v-475q0 -73 45.5 -116.5t125.5 -43.5q79 0 124.5 43t45.5 117v475h87v-472q0 -57 -19 -102.5t-53.5 -77t-82 -47.5t-102.5 -16zM188 792v71h306v-71h-306z" />
    <glyph glyph-name="umacron" unicode="&#x16b;" horiz-adv-x="582" 
d="M499 514v-514h-48l-29 68q-29 -34 -72.5 -57t-95.5 -23q-78 0 -127 51t-49 142v333h80v-324q0 -65 32 -97t80 -32q22 0 49 9t54 29t46 43v372h80zM146 617v66h285v-66h-285z" />
    <glyph glyph-name="Uring" unicode="&#x16e;" horiz-adv-x="681" 
d="M341 -15q-56 0 -103.5 16t-82 47t-53.5 77t-19 103v472h87v-475q0 -73 45.5 -116.5t125.5 -43.5q79 0 124.5 43t45.5 117v475h87v-472q0 -57 -19 -102.5t-53.5 -77t-82 -47.5t-102.5 -16zM233 846q0 20 11 45t38 43t59 18q21 0 46.5 -10.5t44 -37t18.5 -58.5
q0 -20 -11 -44t-38.5 -42t-59.5 -18q-20 0 -45.5 10.5t-44 36.5t-18.5 57zM285 846q0 -21 17 -37.5t39 -16.5q23 0 40 16.5t17 37.5q0 23 -17 39t-40 16q-22 0 -39 -16t-17 -39z" />
    <glyph glyph-name="uring" unicode="&#x16f;" horiz-adv-x="582" 
d="M499 514v-514h-48l-29 68q-29 -34 -72.5 -57t-95.5 -23q-78 0 -127 51t-49 142v333h80v-324q0 -65 32 -97t80 -32q22 0 49 9t54 29t46 43v372h80zM188 667q0 19 10 42t35.5 40t55.5 17q19 0 43 -10t41.5 -34.5t17.5 -54.5q0 -40 -30 -68.5t-72 -28.5q-41 0 -71 28.5
t-30 68.5zM237 667q0 -20 15.5 -35t36.5 -15t37 15t16 35q0 21 -15.5 36.5t-37.5 15.5q-21 0 -36.5 -15.5t-15.5 -36.5z" />
    <glyph glyph-name="Uhungarumlaut" unicode="&#x170;" horiz-adv-x="681" 
d="M341 -15q-56 0 -103.5 16t-82 47t-53.5 77t-19 103v472h87v-475q0 -73 45.5 -116.5t125.5 -43.5q79 0 124.5 43t45.5 117v475h87v-472q0 -57 -19 -102.5t-53.5 -77t-82 -47.5t-102.5 -16zM374 883l-107 -120h-77l102 150h82v-30zM557 883l-107 -120h-76l102 150h81v-30z
" />
    <glyph glyph-name="uhungarumlaut" unicode="&#x171;" horiz-adv-x="582" 
d="M499 514v-514h-48l-29 68q-29 -34 -72.5 -57t-95.5 -23q-78 0 -127 51t-49 142v333h80v-324q0 -65 32 -97t80 -32q22 0 49 9t54 29t46 43v372h80zM322 702l-100 -112h-71l95 140h76v-28zM493 702l-100 -112h-71l95 140h76v-28z" />
    <glyph glyph-name="Uogonek" unicode="&#x172;" horiz-adv-x="681" 
d="M466 -160q-47 0 -75 20t-28 53q0 37 41 78q-40 -6 -63 -6q-56 0 -103.5 16t-82 47t-53.5 77t-19 103v472h87v-475q0 -73 45.5 -116.5t125.5 -43.5q79 0 124.5 43t45.5 117v475h87v-472q0 -37 -9.5 -76.5t-37 -76.5t-73.5 -75q-42 -35 -42 -61q0 -32 52 -32h34v-67h-56z
" />
    <glyph glyph-name="uogonek" unicode="&#x173;" horiz-adv-x="582" 
d="M491 -160q-46 0 -73 20t-27 54q0 41 60 86l-29 68q-29 -34 -72.5 -57t-95.5 -23q-78 0 -127 51t-49 142v333h80v-324q0 -65 32 -97t80 -32q22 0 49 9t54 29t46 43v372h80v-514q-51 -38 -51 -68q0 -38 60 -38h39v-54h-56z" />
    <glyph glyph-name="Ydieresis" unicode="&#x178;" horiz-adv-x="609" 
d="M261 0v278l-248 393v29h86l206 -335l211 335h79v-29l-247 -390v-281h-87zM162 771v118h86v-118h-86zM364 771v118h86v-118h-86z" />
    <glyph glyph-name="Zacute" unicode="&#x179;" horiz-adv-x="577" 
d="M43 0v76l382 547h-368v77h468v-75l-382 -548h392v-77h-492zM408 883l-107 -121h-77l102 151h82v-30z" />
    <glyph glyph-name="zacute" unicode="&#x17a;" horiz-adv-x="520" 
d="M53 0v70l300 374h-288v70h385v-70l-302 -374h310v-70h-405zM360 702l-100 -112h-71l95 140h76v-28z" />
    <glyph glyph-name="Zdotaccent" unicode="&#x17b;" horiz-adv-x="577" 
d="M43 0v76l382 547h-368v77h468v-75l-382 -548h392v-77h-492zM242 774v118h85v-118h-85z" />
    <glyph glyph-name="zdotaccent" unicode="&#x17c;" horiz-adv-x="520" 
d="M53 0v70l300 374h-288v70h385v-70l-302 -374h310v-70h-405zM211 600v110h80v-110h-80z" />
    <glyph glyph-name="Zcaron" unicode="&#x17d;" horiz-adv-x="577" 
d="M43 0v76l382 547h-368v77h468v-75l-382 -548h392v-77h-492zM440 884l-111 -121h-74l-111 121v29h71l78 -95l77 95h70v-29z" />
    <glyph glyph-name="zcaron" unicode="&#x17e;" horiz-adv-x="520" 
d="M53 0v70l300 374h-288v70h385v-70l-302 -374h310v-70h-405zM400 703l-104 -113h-69l-104 113v27h67l72 -89l72 89h66v-27z" />
    <glyph glyph-name="florin" unicode="&#x192;" horiz-adv-x="374" 
d="M53 514h84l3 28q8 89 53 127t123 38l35 -2v-72l-26 1q-50 0 -75.5 -22.5t-29.5 -69.5l-3 -28h129v-70h-135l-35 -445q-2 -34 -13.5 -70.5t-36 -60t-53.5 -32t-60 -8.5l-36 2v72l13 -1q52 0 77 23.5t29 74.5l35 445h-78v70z" />
    <glyph glyph-name="scommaaccent" unicode="&#x219;" horiz-adv-x="546" 
d="M277 -12q-73 0 -123 24.5t-75.5 65t-25.5 96.5h80q0 -35 18 -59.5t52 -39t80 -14.5q26 0 54.5 7.5t47 26.5t18.5 44q0 27 -18.5 43.5t-61.5 27.5l-127 33q-42 11 -69 28t-40.5 42t-13.5 62q0 66 53.5 108.5t145.5 42.5q94 0 148.5 -46.5t54.5 -134.5h-80q0 53 -36 80.5
t-93 27.5q-41 0 -68 -12.5t-36 -29.5t-9 -31q0 -26 17 -42t56 -26l125 -31q64 -16 98 -47.5t34 -88.5q0 -70 -55.5 -113.5t-150.5 -43.5zM195 -251l45 184h80v-37l-67 -147h-58z" />
    <glyph glyph-name="circumflex" unicode="&#x2c6;" horiz-adv-x="404" 
d="M236 730l104 -113v-27h-67l-72 84l-72 -84h-66v27l104 113h69z" />
    <glyph glyph-name="caron" unicode="&#x2c7;" horiz-adv-x="404" 
d="M340 703l-104 -113h-69l-104 113v27h67l72 -89l72 89h66v-27z" />
    <glyph glyph-name="breve" unicode="&#x2d8;" horiz-adv-x="402" 
d="M201 571q-70 0 -113 36.5t-43 100.5v12h70v-11q0 -36 23 -56.5t63 -20.5t63.5 20.5t23.5 56.5v11h70v-12q0 -64 -43.5 -100.5t-113.5 -36.5z" />
    <glyph glyph-name="dotaccent" unicode="&#x2d9;" horiz-adv-x="206" 
d="M63 600v110h80v-110h-80z" />
    <glyph glyph-name="ring" unicode="&#x2da;" horiz-adv-x="336" 
d="M67 667q0 19 10 42t35.5 40t55.5 17q19 0 43 -10t41.5 -34.5t17.5 -54.5q0 -40 -30 -68.5t-72 -28.5q-41 0 -71 28.5t-30 68.5zM116 667q0 -20 15.5 -35t36.5 -15t37 15t16 35q0 21 -15.5 36.5t-37.5 15.5q-21 0 -36.5 -15.5t-15.5 -36.5z" />
    <glyph glyph-name="ogonek" unicode="&#x2db;" horiz-adv-x="276" 
d="M152 -160q-46 0 -73 20t-27 54q0 41 52 86h56q-51 -38 -51 -68q0 -38 60 -38h39v-54h-56z" />
    <glyph glyph-name="tilde" unicode="&#x2dc;" horiz-adv-x="486" 
d="M112 602l-48 32q28 47 53 70t54 23q30 0 68 -25l20 -13q32 -22 52 -22q10 0 22.5 8.5t40.5 48.5l48 -32q-27 -47 -52.5 -70t-55.5 -23q-32 0 -64 22l-19 13q-20 13 -31.5 19t-23.5 6q-11 0 -23 -8.5t-41 -48.5z" />
    <glyph glyph-name="hungarumlaut" unicode="&#x2dd;" horiz-adv-x="464" 
d="M232 702l-100 -112h-71l95 140h76v-28zM403 702l-100 -112h-71l95 140h76v-28z" />
    <glyph glyph-name="Omega" unicode="&#x3a9;" horiz-adv-x="720" 
d="M75 0v77h121q-105 54 -105 193v194q0 58 19 105t54 79.5t85.5 49.5t110.5 17t110.5 -17t85.5 -49.5t54 -79.5t19 -105v-194q0 -139 -106 -193h122v-77h-233v80q24 5 47.5 18t41.5 36.5t29.5 57t11.5 75.5v201q0 74 -48.5 120.5t-133.5 46.5t-133.5 -46.5t-48.5 -120.5
v-201q0 -42 11.5 -75.5t29.5 -57t41.5 -36.5t47.5 -18v-80h-233z" />
    <glyph glyph-name="pi" unicode="&#x3c0;" horiz-adv-x="673" 
d="M135 0v444h-102v70h607v-70h-102v-444h-80v444h-243v-444h-80z" />
    <glyph glyph-name="afii10023" unicode="&#x401;" horiz-adv-x="584" 
d="M93 0v700h436v-77h-349v-232h302v-77h-302v-237h350v-77h-437zM166 768v118h86v-118h-86zM368 768v118h86v-118h-86z" />
    <glyph glyph-name="afii10051" unicode="&#x402;" horiz-adv-x="743" 
d="M200 0v623h-177v77h507v-77h-243v-216q80 23 162 23q117 0 181.5 -61t64.5 -163q0 -94 -55.5 -150t-152.5 -56h-57v77h54q44 0 72.5 20.5t39 51t10.5 57.5q0 69 -44.5 106.5t-122.5 37.5q-79 0 -152 -23v-327h-87z" />
    <glyph glyph-name="afii10052" unicode="&#x403;" horiz-adv-x="563" 
d="M428 883l-107 -121h-77l102 151h82v-30zM93 0v700h427v-77h-340v-623h-87z" />
    <glyph glyph-name="afii10053" unicode="&#x404;" horiz-adv-x="659" 
d="M343 -15q-126 0 -198 66t-72 183v232q0 117 72 183t198 66q51 0 97 -14.5t81 -44.5t55 -76t20 -105h-82q0 29 -9.5 58t-35 54.5t-61.5 36.5t-65 11q-88 0 -135.5 -43t-47.5 -120v-82h274v-77h-274v-85q0 -77 47.5 -120t135.5 -43q29 0 60.5 9.5t56.5 30t39.5 51
t14.5 69.5h82q0 -59 -20 -105t-55 -76t-81 -44.5t-97 -14.5z" />
    <glyph glyph-name="afii10054" unicode="&#x405;" horiz-adv-x="633" 
d="M318 -15q-53 0 -102 15t-87 44.5t-59.5 76t-21.5 106.5h87q0 -32 11.5 -63t40 -55.5t67 -34t68.5 -9.5q47 0 84.5 14.5t54.5 41.5t17 57q0 29 -15 49.5t-47.5 38.5t-97.5 43l-50 18q-118 42 -158 85t-40 110q0 86 65 139.5t176 53.5q84 0 140 -29t85 -80.5t29 -126.5h-87
q0 51 -22.5 88t-62.5 52.5t-83 15.5q-69 0 -111 -30t-42 -77q0 -25 11.5 -46t43 -39t92.5 -40l47 -17q96 -35 139 -64t61.5 -64t18.5 -76t-16 -77.5t-48 -63t-79.5 -41.5t-108.5 -15z" />
    <glyph glyph-name="afii10055" unicode="&#x406;" horiz-adv-x="273" 
d="M93 0v700h87v-700h-87z" />
    <glyph glyph-name="afii10056" unicode="&#x407;" horiz-adv-x="273" 
d="M93 0v700h87v-700h-87zM-7 768v118h86v-118h-86zM195 768v118h86v-118h-86z" />
    <glyph glyph-name="afii10057" unicode="&#x408;" horiz-adv-x="572" 
d="M256 -15q-78 0 -129.5 27t-77.5 74.5t-26 117.5v29h87v-30q0 -68 39 -103t107 -35q39 0 74 15t53.5 49t18.5 77v494h87v-496q0 -68 -26.5 -116t-78 -75.5t-128.5 -27.5z" />
    <glyph glyph-name="afii10058" unicode="&#x409;" horiz-adv-x="1027" 
d="M235 623v-273q0 -98 -11.5 -157.5t-32 -100t-62 -66.5t-113.5 -26v80q50 0 78.5 20.5t43.5 77t15 181.5v341h426v-279h203q92 0 144 -56.5t52 -153.5t-52 -154t-144 -57h-290v623h-257zM579 77h193q54 0 85.5 35.5t31.5 98.5q0 45 -18.5 77.5t-46 44t-52.5 11.5h-193
v-267z" />
    <glyph glyph-name="afii10059" unicode="&#x40a;" horiz-adv-x="1055" 
d="M521 0v344h-338v-344h-87v700h87v-279h338v279h87v-279h203q92 0 144 -56.5t52 -153.5t-52 -154t-144 -57h-290zM608 77h193q54 0 85.5 35.5t31.5 98.5q0 45 -18.5 77.5t-46 44t-52.5 11.5h-193v-267z" />
    <glyph glyph-name="afii10060" unicode="&#x40b;" horiz-adv-x="756" 
d="M287 322v-322h-87v623h-177v77h507v-77h-243v-220q33 12 76.5 19.5t80.5 7.5q122 0 185 -53.5t63 -156.5v-220h-87v211q0 67 -42 103t-125 36q-37 0 -78 -7.5t-73 -20.5z" />
    <glyph glyph-name="afii10061" unicode="&#x40c;" horiz-adv-x="612" 
d="M93 0v700h87v-310h112l203 310h81v-29l-208 -315l221 -327v-29h-86l-210 313h-113v-313h-87zM452 883l-107 -121h-77l102 151h82v-30z" />
    <glyph glyph-name="afii10062" unicode="&#x40e;" horiz-adv-x="576" 
d="M183 29l77 160l-247 482v29h81l210 -414l182 414h77v-29l-297 -671h-83v29zM291 740q-70 0 -113 36.5t-43 100.5v12h70v-11q0 -36 23 -56.5t63 -20.5t63.5 20.5t23.5 56.5v11h70v-12q0 -64 -43.5 -100.5t-113.5 -36.5z" />
    <glyph glyph-name="afii10145" unicode="&#x40f;" horiz-adv-x="694" 
d="M307 -140v140h-214v700h87v-623h334v623h87v-700h-214v-140h-80z" />
    <glyph glyph-name="afii10017" unicode="&#x410;" horiz-adv-x="656" 
d="M23 0v29l261 671h87l262 -671v-29h-86l-70 186h-302l-72 -186h-80zM201 260h249l-124 324z" />
    <glyph glyph-name="afii10018" unicode="&#x411;" horiz-adv-x="653" 
d="M93 0v700h466v-77h-379v-202h228q90 0 141 -57t51 -153q0 -97 -51 -154t-141 -57h-315zM180 77h212q51 0 85 34.5t34 99.5q0 62 -33.5 97.5t-85.5 35.5h-212v-267z" />
    <glyph glyph-name="afii10019" unicode="&#x412;" horiz-adv-x="655" 
d="M93 0v700h294q89 0 138.5 -47.5t49.5 -136.5q0 -113 -91 -152q38 -11 64.5 -34.5t40 -57.5t13.5 -81q0 -92 -50.5 -141.5t-139.5 -49.5h-319zM180 77h217q57 0 87.5 31.5t30.5 87.5q0 42 -17.5 71t-45.5 39.5t-55 10.5h-217v-240zM180 391h194q54 0 84 31t30 85
q0 55 -30 85.5t-86 30.5h-192v-232z" />
    <glyph glyph-name="afii10020" unicode="&#x413;" horiz-adv-x="563" 
d="M93 0v700h427v-77h-340v-623h-87z" />
    <glyph glyph-name="afii10021" unicode="&#x414;" horiz-adv-x="708" 
d="M28 -143v220h53q49 64 70 137t21 187v299h412v-623h86v-220h-80v143h-482v-143h-80zM175 77h322v546h-245v-222q0 -97 -15 -172t-62 -152z" />
    <glyph glyph-name="afii10022" unicode="&#x415;" horiz-adv-x="584" 
d="M93 0v700h436v-77h-349v-232h302v-77h-302v-237h350v-77h-437z" />
    <glyph glyph-name="afii10024" unicode="&#x416;" horiz-adv-x="897" 
d="M405 0v313h-110l-175 -313h-87v29l189 326l-175 316v29h79l169 -310h110v310h87v-310h110l169 310h79v-29l-175 -316l189 -326v-29h-87l-175 313h-110v-313h-87z" />
    <glyph glyph-name="afii10025" unicode="&#x417;" horiz-adv-x="614" 
d="M316 -15q-54 0 -102 14.5t-84 44.5t-56.5 75.5t-20.5 103.5h87q0 -38 17.5 -75.5t61 -60t100.5 -22.5q73 0 114 35t41 98q0 57 -38.5 89t-106.5 32h-98v77h98q59 0 93 29.5t34 83.5q0 25 -12.5 55t-47 50.5t-85.5 20.5q-69 0 -112.5 -40.5t-43.5 -117.5h-87
q0 58 18.5 103.5t51.5 75.5t77.5 44.5t95.5 14.5q54 0 98 -14.5t74 -41.5t45.5 -63.5t15.5 -78.5q0 -44 -17.5 -78t-42.5 -52.5t-47 -26.5q54 -15 89 -57t35 -105q0 -97 -65 -155t-180 -58z" />
    <glyph glyph-name="afii10026" unicode="&#x418;" horiz-adv-x="704" 
d="M93 0v700h87v-549l351 549h80v-700h-87v549l-351 -549h-80z" />
    <glyph glyph-name="afii10027" unicode="&#x419;" horiz-adv-x="704" 
d="M93 0v700h87v-549l351 549h80v-700h-87v549l-351 -549h-80zM352 740q-70 0 -113 36.5t-43 100.5v12h70v-11q0 -36 23 -56.5t63 -20.5t63.5 20.5t23.5 56.5v11h70v-12q0 -64 -43.5 -100.5t-113.5 -36.5z" />
    <glyph glyph-name="afii10028" unicode="&#x41a;" horiz-adv-x="612" 
d="M93 0v700h87v-310h112l203 310h81v-29l-208 -315l221 -327v-29h-86l-210 313h-113v-313h-87z" />
    <glyph glyph-name="afii10029" unicode="&#x41b;" horiz-adv-x="672" 
d="M16 0v80q50 0 78.5 20.5t43.5 77t15 181.5v341h426v-700h-87v623h-257v-273q0 -98 -11.5 -157.5t-32 -100t-62 -66.5t-113.5 -26z" />
    <glyph glyph-name="afii10030" unicode="&#x41c;" horiz-adv-x="803" 
d="M93 0v700h84l226 -355l226 355h81v-700h-84v546l-196 -308h-57l-196 307v-545h-84z" />
    <glyph glyph-name="afii10031" unicode="&#x41d;" horiz-adv-x="701" 
d="M93 0v700h87v-310h341v310h87v-700h-87v313h-341v-313h-87z" />
    <glyph glyph-name="afii10032" unicode="&#x41e;" horiz-adv-x="684" 
d="M342 65q53 0 96.5 20.5t64.5 60.5t21 86v236q0 46 -21 86t-64.5 60.5t-96.5 20.5q-86 0 -134 -46t-48 -121v-236q0 -75 48 -121t134 -46zM342 -15q-60 0 -110.5 17t-85.5 49.5t-54 79.5t-19 105v228q0 58 19 105t54 79.5t85.5 49.5t110.5 17t110.5 -17t85.5 -49.5
t54 -79.5t19 -105v-228q0 -58 -19 -105t-54 -79.5t-85.5 -49.5t-110.5 -17z" />
    <glyph glyph-name="afii10033" unicode="&#x41f;" horiz-adv-x="695" 
d="M93 0v700h509v-700h-87v623h-335v-623h-87z" />
    <glyph glyph-name="afii10034" unicode="&#x420;" horiz-adv-x="627" 
d="M93 0v700h293q90 0 141.5 -57t51.5 -154q0 -96 -51.5 -153t-141.5 -57h-206v-279h-87zM180 356h191q54 0 86.5 35t32.5 98q0 32 -7.5 54t-21.5 40.5t-39.5 29t-50.5 10.5h-191v-267z" />
    <glyph glyph-name="afii10035" unicode="&#x421;" horiz-adv-x="659" 
d="M341 -15q-126 0 -197 66.5t-71 185.5v226q0 119 71 185.5t197 66.5q51 0 91 -12.5t69 -32t50 -47.5t33 -65.5t12 -80.5v-10h-87v10q0 39 -14.5 69t-39.5 50t-56 29.5t-59 9.5q-87 0 -133.5 -43.5t-46.5 -122.5v-238q0 -79 46.5 -122.5t133.5 -43.5q28 0 59 9.5t56 29.5
t39.5 50t14.5 69v10h87v-10q0 -28 -7 -62t-25 -64.5t-49 -56.5t-77 -40.5t-97 -14.5z" />
    <glyph glyph-name="afii10036" unicode="&#x422;" horiz-adv-x="558" 
d="M236 0v623h-213v77h512v-77h-212v-623h-87z" />
    <glyph glyph-name="afii10037" unicode="&#x423;" horiz-adv-x="576" 
d="M183 29l77 160l-247 482v29h81l210 -414l182 414h77v-29l-297 -671h-83v29z" />
    <glyph glyph-name="afii10038" unicode="&#x424;" horiz-adv-x="838" 
d="M375 -12v96h-52q-55 0 -104.5 15.5t-86.5 46t-58 75t-21 99.5v73q0 41 14 83t51.5 80t93.5 56t111 18h52v84h87v-84h53q56 0 105 -15.5t86 -46t57.5 -75.5t20.5 -100v-73q0 -55 -20.5 -99.5t-57.5 -75t-86 -46t-105 -15.5h-53v-96h-87zM319 161h56v392h-56
q-81 0 -130 -45t-49 -116v-69q0 -43 21.5 -82t64.5 -59.5t93 -20.5zM462 161h57q50 0 93 20.5t64.5 59.5t21.5 82v69q0 71 -49 116t-130 45h-57v-392z" />
    <glyph glyph-name="afii10039" unicode="&#x425;" horiz-adv-x="629" 
d="M33 0v29l227 330l-215 312v29h88l181 -273l187 273h82v-29l-216 -312l229 -330v-29h-88l-196 290l-196 -290h-83z" />
    <glyph glyph-name="afii10040" unicode="&#x426;" horiz-adv-x="721" 
d="M602 -143v143h-509v700h87v-623h329v623h87v-623h87v-220h-81z" />
    <glyph glyph-name="afii10041" unicode="&#x427;" horiz-adv-x="648" 
d="M468 0v297q-33 -12 -76.5 -19.5t-80.5 -7.5q-122 0 -185 53.5t-63 156.5v220h87v-211q0 -67 42 -103t125 -36q37 0 78 7.5t73 20.5v322h87v-700h-87z" />
    <glyph glyph-name="afii10042" unicode="&#x428;" horiz-adv-x="977" 
d="M93 0v700h87v-623h265v623h87v-623h265v623h87v-700h-791z" />
    <glyph glyph-name="afii10043" unicode="&#x429;" horiz-adv-x="1008" 
d="M890 -143v143h-797v700h87v-623h265v623h87v-623h265v623h87v-623h86v-220h-80z" />
    <glyph glyph-name="afii10044" unicode="&#x42a;" horiz-adv-x="715" 
d="M181 0v623h-168v77h255v-279h202q46 0 78.5 -13t57 -34.5t43 -62.5t18.5 -100q0 -97 -52 -154t-145 -57h-289zM268 77h192q39 0 68 20.5t39.5 51.5t10.5 62q0 62 -32 97.5t-86 35.5h-192v-267z" />
    <glyph glyph-name="afii10045" unicode="&#x42b;" horiz-adv-x="874" 
d="M694 0v700h87v-700h-87zM93 0v700h87v-279h203q92 0 144 -56.5t52 -153.5t-52 -154t-144 -57h-290zM180 77h193q54 0 85.5 35.5t31.5 98.5q0 45 -18.5 77.5t-46 44t-52.5 11.5h-193v-267z" />
    <glyph glyph-name="afii10046" unicode="&#x42c;" horiz-adv-x="627" 
d="M93 0v700h87v-279h203q92 0 144 -56.5t52 -153.5t-52 -154t-144 -57h-290zM180 77h193q54 0 85.5 35.5t31.5 98.5q0 45 -18.5 77.5t-46 44t-52.5 11.5h-193v-267z" />
    <glyph glyph-name="afii10047" unicode="&#x42d;" horiz-adv-x="660" 
d="M317 -15q-51 0 -97 14.5t-81 44.5t-55 76t-20 105h82q0 -29 9.5 -58t35 -54.5t61.5 -36.5t65 -11q88 0 135.5 43t47.5 120v85h-274v77h274v82q0 77 -47.5 120t-135.5 43q-29 0 -60.5 -9.5t-56.5 -30t-39.5 -51t-14.5 -69.5h-82q0 59 20 105t55 76t81 44.5t97 14.5
q126 0 198 -66t72 -183v-232q0 -117 -72 -183t-198 -66z" />
    <glyph glyph-name="afii10048" unicode="&#x42e;" horiz-adv-x="929" 
d="M598 -15q-119 0 -189 64.5t-70 179.5v82h-159v-311h-87v700h87v-312h159v83q0 114 70 179t189 65t188.5 -64.5t69.5 -179.5v-242q0 -114 -69.5 -179t-188.5 -65zM598 65q81 0 126 43.5t45 115.5v250q0 72 -45.5 116.5t-125.5 44.5q-81 0 -126.5 -43.5t-45.5 -115.5v-250
q0 -72 45.5 -116.5t126.5 -44.5z" />
    <glyph glyph-name="afii10049" unicode="&#x42f;" horiz-adv-x="644" 
d="M51 0v29l157 254q-67 17 -105 69t-38 135q0 100 52.5 156.5t148.5 56.5h285v-700h-87v273h-166l-164 -273h-83zM283 350h181v273h-181q-62 0 -95.5 -35t-33.5 -102q0 -68 33.5 -102t95.5 -34z" />
    <glyph glyph-name="afii10065" unicode="&#x430;" horiz-adv-x="547" 
d="M218 -12q-31 0 -63 9t-56 28t-37.5 47.5t-13.5 64.5q0 79 54.5 121.5t158.5 42.5h129v51q0 46 -30.5 73.5t-88.5 27.5q-56 0 -87 -26.5t-31 -68.5h-78q0 36 12 67t36.5 53.5t62 35t85.5 12.5q36 0 72 -8.5t64 -29t45.5 -53t17.5 -78.5v-357h-48l-30 65
q-27 -30 -73.5 -53.5t-100.5 -23.5zM234 61q23 0 51.5 8t56 25.5t48.5 38.5v103h-129q-70 0 -101.5 -25t-31.5 -65q0 -20 10 -40.5t36 -32.5t60 -12z" />
    <glyph glyph-name="afii10066" unicode="&#x431;" horiz-adv-x="555" 
d="M282 -12q-99 0 -156.5 51t-57.5 138v187q0 103 36 163t118 85l120 35q51 15 51 52v6h80v-6q0 -42 -15.5 -66.5t-43 -37t-58.5 -21.5l-100 -28q-60 -17 -87 -54t-27 -105v-14q19 25 48.5 46.5t62 30.5t58.5 9q83 0 133.5 -49.5t50.5 -139.5v-91q0 -86 -57 -138.5
t-156 -52.5zM282 61q32 0 63 11.5t50.5 41.5t19.5 68v82q0 25 -11 54t-40.5 48.5t-70.5 19.5q-75 0 -145 -78v-126q0 -51 34.5 -86t99.5 -35z" />
    <glyph glyph-name="afii10067" unicode="&#x432;" horiz-adv-x="556" 
d="M83 0v514h235q76 0 118.5 -34t42.5 -100q0 -43 -18 -72.5t-48 -44.5q41 -13 65 -43t24 -76q0 -144 -172 -144h-247zM163 70h169q41 0 62.5 21.5t21.5 57.5t-21.5 56.5t-64.5 20.5h-167v-156zM163 290h153q38 0 58.5 22t20.5 56q0 35 -20.5 55.5t-59.5 20.5h-152v-154z
" />
    <glyph glyph-name="afii10068" unicode="&#x433;" horiz-adv-x="462" 
d="M83 0v514h336v-70h-256v-444h-80z" />
    <glyph glyph-name="afii10069" unicode="&#x434;" horiz-adv-x="629" 
d="M32 -129v199h47q65 70 65 227v217h370v-444h77v-199h-79v129h-401v-129h-79zM167 70h267v374h-214v-159q0 -125 -53 -215z" />
    <glyph glyph-name="afii10070" unicode="&#x435;" horiz-adv-x="541" 
d="M274 -12q-99 0 -156.5 51t-57.5 138v158q0 86 57.5 138.5t156.5 52.5q97 0 152.5 -51.5t55.5 -137.5v-107h-342v-51q0 -51 34 -84.5t100 -33.5q27 0 54.5 8.5t46.5 31t24 53.5h80q-7 -77 -60.5 -121.5t-144.5 -44.5zM140 295h262v42q0 24 -11 51.5t-42 46t-78 18.5
q-48 0 -78.5 -19t-41.5 -46t-11 -51v-42z" />
    <glyph glyph-name="afii10072" unicode="&#x436;" horiz-adv-x="777" 
d="M43 0v38l148 224l-140 214v38h68l143 -221h87v221h80v-221h87l143 221h68v-38l-140 -214l148 -224v-38h-72l-144 223h-90v-223h-80v223h-90l-143 -223h-73z" />
    <glyph glyph-name="afii10073" unicode="&#x437;" horiz-adv-x="533" 
d="M274 -12q-101 0 -159.5 51t-58.5 138h78q0 -25 11.5 -53t44 -45.5t82.5 -17.5q56 0 87.5 24t31.5 64q0 35 -26 56.5t-71 21.5h-74v70h74q39 0 61.5 21t22.5 55q0 37 -29.5 58.5t-83.5 21.5q-59 0 -90.5 -31t-31.5 -83h-78q0 88 54.5 137.5t150.5 49.5q90 0 141.5 -40.5
t51.5 -107.5q0 -40 -21.5 -69.5t-56.5 -43.5q41 -12 66 -43t25 -76q0 -75 -53 -116.5t-149 -41.5z" />
    <glyph glyph-name="afii10074" unicode="&#x438;" horiz-adv-x="599" 
d="M83 0v514h80v-391l273 391h80v-514h-80v390l-273 -390h-80z" />
    <glyph glyph-name="afii10075" unicode="&#x439;" horiz-adv-x="599" 
d="M299 571q-70 0 -113 36.5t-43 100.5v12h70v-11q0 -36 23 -56.5t63 -20.5t63.5 20.5t23.5 56.5v11h70v-12q0 -64 -43.5 -100.5t-113.5 -36.5zM83 0v514h80v-391l273 391h80v-514h-80v390l-273 -390h-80z" />
    <glyph glyph-name="afii10076" unicode="&#x43a;" horiz-adv-x="533" 
d="M83 0v514h80v-221h88l165 221h67v-38l-161 -214l169 -224v-38h-72l-168 223h-88v-223h-80z" />
    <glyph glyph-name="afii10077" unicode="&#x43b;" horiz-adv-x="583" 
d="M27 0v73h8q53 0 75.5 43.5t22.5 131.5v266h367v-514h-80v444h-211v-195q0 -123 -44 -186t-119 -63h-19z" />
    <glyph glyph-name="afii10078" unicode="&#x43c;" horiz-adv-x="684" 
d="M83 0v514h80l181 -252l177 252h80v-514h-80v390l-159 -223h-39l-160 223v-390h-80z" />
    <glyph glyph-name="afii10079" unicode="&#x43d;" horiz-adv-x="589" 
d="M83 0v514h80v-222h263v222h80v-514h-80v222h-263v-222h-80z" />
    <glyph glyph-name="afii10080" unicode="&#x43e;" horiz-adv-x="547" 
d="M274 61q32 0 63 11.5t50.5 41.5t19.5 68v150q0 38 -19.5 68t-50.5 41.5t-63 11.5q-65 0 -99.5 -35t-34.5 -86v-150q0 -51 34.5 -86t99.5 -35zM274 -12q-102 0 -158 53.5t-56 137.5v156q0 84 56 137.5t158 53.5q38 0 76.5 -9.5t68.5 -33t49 -60.5t19 -88v-156
q0 -40 -13.5 -75t-40.5 -61t-67.5 -40.5t-91.5 -14.5z" />
    <glyph glyph-name="afii10081" unicode="&#x43f;" horiz-adv-x="584" 
d="M83 0v514h418v-514h-80v444h-258v-444h-80z" />
    <glyph glyph-name="afii10082" unicode="&#x440;" horiz-adv-x="578" 
d="M329 526q80 0 130.5 -50t50.5 -139v-160q0 -56 -20.5 -97t-61.5 -66.5t-102 -25.5q-52 0 -94.5 22t-68.5 53v-223h-80v674h48l28 -68q30 34 74 57t96 23zM314 61q52 0 84 34t32 88v148q0 54 -32 88t-83 34q-77 0 -152 -81v-230q75 -81 151 -81z" />
    <glyph glyph-name="afii10083" unicode="&#x441;" horiz-adv-x="533" 
d="M270 -12q-97 0 -153.5 52.5t-56.5 138.5v156q0 86 56.5 138.5t153.5 52.5q95 0 151 -50t56 -134v-5h-80v6q0 49 -34 79.5t-93 30.5q-62 0 -96 -32t-34 -84v-160q0 -52 34 -84t96 -32q59 0 93 31.5t34 80.5v7h80v-6q0 -84 -56.5 -135t-150.5 -51z" />
    <glyph glyph-name="afii10084" unicode="&#x442;" horiz-adv-x="477" 
d="M199 0v444h-176v70h431v-70h-175v-444h-80z" />
    <glyph glyph-name="afii10085" unicode="&#x443;" horiz-adv-x="505" 
d="M159 -160v30l57 130l-193 476v38h75l157 -406l154 406h73v-38l-256 -636h-67z" />
    <glyph glyph-name="afii10086" unicode="&#x444;" horiz-adv-x="789" 
d="M354 -160v210q-23 -26 -58 -44t-78 -18q-67 0 -108.5 44.5t-41.5 121.5v206q0 77 41.5 121.5t108.5 44.5q33 0 69 -14t67 -48v241h80v-241q58 62 137 62q67 0 108.5 -44.5t41.5 -121.5v-206q0 -77 -41.5 -121.5t-108.5 -44.5q-79 0 -137 62v-210h-80zM244 61q56 0 110 56
v280q-54 56 -110 56q-20 0 -43 -9.5t-38 -35.5t-15 -59v-184q0 -21 8.5 -45.5t32 -41.5t55.5 -17zM545 61q20 0 43 9.5t38 35.5t15 59v184q0 21 -8.5 45.5t-32 41.5t-55.5 17q-55 0 -111 -56v-280q56 -56 111 -56z" />
    <glyph glyph-name="afii10087" unicode="&#x445;" horiz-adv-x="517" 
d="M470 476l-162 -217l167 -221v-38h-72l-146 198l-142 -198h-72v38l165 221l-163 217v38h73l141 -192l138 192h73v-38z" />
    <glyph glyph-name="afii10088" unicode="&#x446;" horiz-adv-x="613" 
d="M496 -129v129h-413v514h80v-444h254v444h80v-444h78v-199h-79z" />
    <glyph glyph-name="afii10089" unicode="&#x447;" horiz-adv-x="551" 
d="M388 0v198q-63 -17 -133 -17q-94 0 -148 40.5t-54 123.5v169h80v-161q0 -52 37 -75.5t97 -23.5q62 0 121 16v244h80v-514h-80z" />
    <glyph glyph-name="afii10090" unicode="&#x448;" horiz-adv-x="788" 
d="M83 0v514h80v-444h191v444h80v-444h191v444h80v-514h-622z" />
    <glyph glyph-name="afii10091" unicode="&#x449;" horiz-adv-x="820" 
d="M703 -129v129h-620v514h80v-444h191v444h80v-444h191v444h80v-444h77v-199h-79z" />
    <glyph glyph-name="afii10092" unicode="&#x44a;" horiz-adv-x="589" 
d="M147 0v444h-144v70h224v-177h166q76 0 119.5 -45.5t43.5 -123.5t-43.5 -123t-119.5 -45h-246zM227 70h156q41 0 67 26.5t26 71.5q0 34 -15 58t-37 32.5t-41 8.5h-156v-197z" />
    <glyph glyph-name="afii10093" unicode="&#x44b;" horiz-adv-x="731" 
d="M83 0v514h80v-177h159q76 0 119.5 -45.5t43.5 -123.5t-43.5 -123t-119.5 -45h-239zM163 70h148q41 0 67.5 26.5t26.5 71.5q0 34 -15 58t-37 32.5t-41 8.5h-149v-197zM568 0v514h80v-514h-80z" />
    <glyph glyph-name="afii10094" unicode="&#x44c;" horiz-adv-x="528" 
d="M83 0v514h80v-177h169q76 0 119.5 -45.5t43.5 -123.5t-43.5 -123t-119.5 -45h-249zM163 70h158q41 0 67.5 26.5t26.5 71.5q0 34 -15 58t-37 32.5t-41 8.5h-159v-197z" />
    <glyph glyph-name="afii10095" unicode="&#x44d;" horiz-adv-x="539" 
d="M266 -12q-98 0 -154 52t-56 140h80q0 -52 32.5 -85.5t97.5 -33.5t99 33.5t34 84.5v43h-182v70h182v43q0 51 -33.5 84.5t-99.5 33.5q-31 0 -61.5 -10.5t-49.5 -39.5t-19 -66h-80q0 88 56.5 138.5t154.5 50.5t155 -52.5t57 -139.5v-154q0 -87 -57.5 -139.5t-155.5 -52.5z
" />
    <glyph glyph-name="afii10096" unicode="&#x44e;" horiz-adv-x="761" 
d="M492 -12q-100 0 -154.5 52.5t-54.5 135.5v46h-120v-222h-80v514h80v-222h120v46q0 83 54.5 135.5t154.5 52.5t154.5 -52.5t54.5 -135.5v-162q0 -83 -54.5 -135.5t-154.5 -52.5zM492 61q61 0 95 33.5t34 84.5v156q0 51 -34 84.5t-95 33.5t-95 -33.5t-34 -84.5v-156
q0 -51 34 -84.5t95 -33.5z" />
    <glyph glyph-name="afii10097" unicode="&#x44f;" horiz-adv-x="542" 
d="M53 0v38l115 167q-51 10 -81 49.5t-30 102.5q0 74 41 115.5t108 41.5h253v-514h-80v198h-121l-130 -198h-75zM228 268h151v176h-151q-43 0 -66.5 -24.5t-23.5 -63.5q0 -42 23.5 -65t66.5 -23z" />
    <glyph glyph-name="afii10071" unicode="&#x451;" horiz-adv-x="541" 
d="M274 -12q-99 0 -156.5 51t-57.5 138v158q0 86 57.5 138.5t156.5 52.5q97 0 152.5 -51.5t55.5 -137.5v-107h-342v-51q0 -51 34 -84.5t100 -33.5q27 0 54.5 8.5t46.5 31t24 53.5h80q-7 -77 -60.5 -121.5t-144.5 -44.5zM140 295h262v42q0 24 -11 51.5t-42 46t-78 18.5
q-48 0 -78.5 -19t-41.5 -46t-11 -51v-42zM138 595v110h80v-110h-80zM327 595v110h80v-110h-80z" />
    <glyph glyph-name="afii10099" unicode="&#x452;" horiz-adv-x="591" 
d="M441 17v231q0 65 -32.5 96.5t-80.5 31.5q-43 0 -83 -24.5t-67 -56.5v-295h-80v540h-77v64h77v101h80v-101h228v-64h-228v-167q29 33 72 54.5t94 21.5q77 0 127 -51.5t50 -142.5v-219q0 -79 -20 -124t-56 -64.5t-85 -19.5l-34 2v72l22 -1q43 0 68 28t25 88z" />
    <glyph glyph-name="afii10100" unicode="&#x453;" horiz-adv-x="462" 
d="M365 702l-100 -112h-71l95 140h76v-28zM83 0v514h336v-70h-256v-444h-80z" />
    <glyph glyph-name="afii10101" unicode="&#x454;" horiz-adv-x="539" 
d="M273 -12q-98 0 -155.5 52.5t-57.5 139.5v154q0 87 57 139.5t155 52.5t154.5 -50.5t56.5 -138.5h-80q0 37 -19 66t-49.5 39.5t-61.5 10.5q-66 0 -99.5 -33.5t-33.5 -84.5v-43h182v-70h-182v-43q0 -51 34 -84.5t99 -33.5t97.5 33.5t32.5 85.5h80q0 -88 -56 -140t-154 -52z
" />
    <glyph glyph-name="afii10102" unicode="&#x455;" horiz-adv-x="546" 
d="M277 -12q-73 0 -123 24.5t-75.5 65t-25.5 96.5h80q0 -35 18 -59.5t52 -39t80 -14.5q26 0 54.5 7.5t47 26.5t18.5 44q0 27 -18.5 43.5t-61.5 27.5l-127 33q-42 11 -69 28t-40.5 42t-13.5 62q0 66 53.5 108.5t145.5 42.5q94 0 148.5 -46.5t54.5 -134.5h-80q0 53 -36 80.5
t-93 27.5q-41 0 -68 -12.5t-36 -29.5t-9 -31q0 -26 17 -42t56 -26l125 -31q64 -16 98 -47.5t34 -88.5q0 -70 -55.5 -113.5t-150.5 -43.5z" />
    <glyph glyph-name="afii10103" unicode="&#x456;" horiz-adv-x="246" 
d="M83 0v514h80v-514h-80zM83 595v110h80v-110h-80z" />
    <glyph glyph-name="afii10104" unicode="&#x457;" horiz-adv-x="246" 
d="M-11 595v110h80v-110h-80zM178 595v110h80v-110h-80zM83 0v514h80v-514h-80z" />
    <glyph glyph-name="afii10105" unicode="&#x458;" horiz-adv-x="247" 
d="M12 -172l-34 2v71h25q41 0 61 25t20 78v510h80v-511q0 -32 -7.5 -64t-25 -57t-47.5 -39.5t-72 -14.5zM84 595v110h80v-110h-80z" />
    <glyph glyph-name="afii10106" unicode="&#x459;" horiz-adv-x="855" 
d="M27 0v73h8q53 0 75.5 43.5t22.5 131.5v266h363v-177h172q69 0 111.5 -44.5t42.5 -124.5t-42.5 -124t-111.5 -44h-252v444h-207v-195q0 -123 -44 -186t-119 -63h-19zM496 70h153q41 0 67 26.5t26 71.5q0 34 -15 58t-37 32.5t-41 8.5h-153v-197z" />
    <glyph glyph-name="afii10107" unicode="&#x45a;" horiz-adv-x="852" 
d="M417 0v222h-254v-222h-80v514h80v-222h254v222h80v-177h159q76 0 119.5 -45.5t43.5 -123.5t-43.5 -123t-119.5 -45h-239zM497 70h148q41 0 67.5 26.5t26.5 71.5q0 34 -15 58t-37 32.5t-41 8.5h-149v-197z" />
    <glyph glyph-name="afii10108" unicode="&#x45b;" horiz-adv-x="586" 
d="M437 0v224q0 152 -114 152q-22 0 -49 -9t-54 -29t-46 -43v-295h-80v540h-77v64h77v101h80v-101h228v-64h-228v-167q29 33 72 54.5t94 21.5q77 0 127 -51.5t50 -142.5v-255h-80z" />
    <glyph glyph-name="afii10109" unicode="&#x45c;" horiz-adv-x="533" 
d="M393 702l-100 -112h-71l95 140h76v-28zM83 0v514h80v-221h88l165 221h67v-38l-161 -214l169 -224v-38h-72l-168 223h-88v-223h-80z" />
    <glyph glyph-name="afii10110" unicode="&#x45e;" horiz-adv-x="505" 
d="M159 -160v30l57 130l-193 476v38h75l157 -406l154 406h73v-38l-256 -636h-67zM256 571q-70 0 -113 36.5t-43 100.5v12h70v-11q0 -36 23 -56.5t63 -20.5t63.5 20.5t23.5 56.5v11h70v-12q0 -64 -43.5 -100.5t-113.5 -36.5z" />
    <glyph glyph-name="afii10193" unicode="&#x45f;" horiz-adv-x="584" 
d="M253 -129v129h-170v514h80v-444h258v444h80v-514h-169v-129h-79z" />
    <glyph glyph-name="afii10050" unicode="&#x490;" horiz-adv-x="553" 
d="M93 0v700h337v130h80v-207h-330v-623h-87z" />
    <glyph glyph-name="afii10098" unicode="&#x491;" horiz-adv-x="457" 
d="M83 0v514h252v125h79v-195h-251v-444h-80z" />
    <glyph glyph-name="uni1E61" unicode="&#x1e61;" horiz-adv-x="546" 
d="M277 -12q-73 0 -123 24.5t-75.5 65t-25.5 96.5h80q0 -35 18 -59.5t52 -39t80 -14.5q26 0 54.5 7.5t47 26.5t18.5 44q0 27 -18.5 43.5t-61.5 27.5l-127 33q-42 11 -69 28t-40.5 42t-13.5 62q0 66 53.5 108.5t145.5 42.5q94 0 148.5 -46.5t54.5 -134.5h-80q0 53 -36 80.5
t-93 27.5q-41 0 -68 -12.5t-36 -29.5t-9 -31q0 -26 17 -42t56 -26l125 -31q64 -16 98 -47.5t34 -88.5q0 -70 -55.5 -113.5t-150.5 -43.5zM233 600v110h80v-110h-80z" />
    <glyph glyph-name="uni1E63" unicode="&#x1e63;" horiz-adv-x="546" 
d="M277 -12q-73 0 -123 24.5t-75.5 65t-25.5 96.5h80q0 -35 18 -59.5t52 -39t80 -14.5q26 0 54.5 7.5t47 26.5t18.5 44q0 27 -18.5 43.5t-61.5 27.5l-127 33q-42 11 -69 28t-40.5 42t-13.5 62q0 66 53.5 108.5t145.5 42.5q94 0 148.5 -46.5t54.5 -134.5h-80q0 53 -36 80.5
t-93 27.5q-41 0 -68 -12.5t-36 -29.5t-9 -31q0 -26 17 -42t56 -26l125 -31q64 -16 98 -47.5t34 -88.5q0 -70 -55.5 -113.5t-150.5 -43.5zM230 -177v110h80v-110h-80z" />
    <glyph glyph-name="endash" unicode="&#x2013;" horiz-adv-x="590" 
d="M63 276v74h464v-74h-464z" />
    <glyph glyph-name="emdash" unicode="&#x2014;" horiz-adv-x="830" 
d="M63 276v74h704v-74h-704z" />
    <glyph glyph-name="quoteleft" unicode="&#x2018;" horiz-adv-x="239" 
d="M200 705l-59 -236h-88v38l83 198h64z" />
    <glyph glyph-name="quoteright" unicode="&#x2019;" horiz-adv-x="239" 
d="M39 470l59 236h88v-38l-83 -198h-64z" />
    <glyph glyph-name="quotesinglbase" unicode="&#x201a;" horiz-adv-x="233" 
d="M34 -104l59 236h88v-38l-83 -198h-64z" />
    <glyph glyph-name="quotedblleft" unicode="&#x201c;" horiz-adv-x="415" 
d="M200 705l-59 -236h-88v38l83 198h64zM376 705l-59 -236h-88v38l83 198h64z" />
    <glyph glyph-name="quotedblright" unicode="&#x201d;" horiz-adv-x="415" 
d="M39 469l59 236h88v-38l-83 -198h-64zM215 469l59 236h88v-38l-83 -198h-64z" />
    <glyph glyph-name="quotedblbase" unicode="&#x201e;" horiz-adv-x="415" 
d="M34 -104l59 236h88v-38l-83 -198h-64zM210 -104l59 236h88v-38l-83 -198h-64z" />
    <glyph glyph-name="dagger" unicode="&#x2020;" horiz-adv-x="534" 
d="M227 -160v596h-194v71h194v198h80v-198h194v-71h-194v-596h-80z" />
    <glyph glyph-name="daggerdbl" unicode="&#x2021;" horiz-adv-x="534" 
d="M227 -160v306h-194v71h194v219h-194v71h194v198h80v-198h194v-71h-194v-219h194v-71h-194v-306h-80z" />
    <glyph glyph-name="bullet" unicode="&#x2022;" horiz-adv-x="394" 
d="M197 185q-63 0 -98.5 34.5t-35.5 97.5v6q0 63 35.5 97.5t98.5 34.5t98.5 -34.5t35.5 -97.5v-6q0 -63 -35.5 -97.5t-98.5 -34.5z" />
    <glyph glyph-name="ellipsis" unicode="&#x2026;" horiz-adv-x="664" 
d="M75 0v132h94v-132h-94zM286 0v132h94v-132h-94zM496 0v132h94v-132h-94z" />
    <glyph glyph-name="perthousand" unicode="&#x2030;" horiz-adv-x="1119" 
d="M193 413q28 0 47.5 13t26 31t6.5 33v87q0 34 -21 56t-59 22q-37 0 -58 -22t-21 -56v-87q0 -33 21 -55t58 -22zM193 353q-71 0 -110.5 39t-39.5 108v68q0 69 39.5 108t110.5 39t111 -39t40 -108v-68q0 -70 -39.5 -108.5t-111.5 -38.5zM156 0v29l398 671h65v-29l-399 -671
h-64zM583 44q38 0 59 22.5t21 55.5v87q0 33 -21 55.5t-59 22.5q-18 0 -36.5 -7.5t-30.5 -27t-12 -43.5v-87q0 -24 12 -43.5t30.5 -27t36.5 -7.5zM583 -15q-71 0 -110.5 38.5t-39.5 107.5v69q0 69 39.5 108t110.5 39t111 -39t40 -108v-69q0 -69 -39.5 -107.5t-111.5 -38.5z
M925 44q38 0 59 22.5t21 55.5v87q0 33 -21 55.5t-59 22.5q-18 0 -36.5 -7.5t-30.5 -27t-12 -43.5v-87q0 -24 12 -43.5t30.5 -27t36.5 -7.5zM925 -15q-71 0 -110.5 38.5t-39.5 107.5v69q0 69 39.5 108t110.5 39t111 -39t40 -108v-69q0 -69 -39.5 -107.5t-111.5 -38.5z" />
    <glyph glyph-name="guilsinglleft" unicode="&#x2039;" horiz-adv-x="326" 
d="M194 63l-156 209l156 208h70v-27l-137 -181l137 -182v-27h-70z" />
    <glyph glyph-name="guilsinglright" unicode="&#x203a;" horiz-adv-x="326" 
d="M288 272l-156 -209h-70v27l137 182l-137 181v27h70z" />
    <glyph glyph-name="fraction" unicode="&#x2044;" horiz-adv-x="370" 
d="M-47 0v29l399 671h64v-29l-399 -671h-64z" />
    <glyph glyph-name="uni2084" unicode="&#x2084;" horiz-adv-x="367" 
d="M162 700h55v-36l-103 -177h97v71h75v-71h52v-64h-52v-65h-75v65h-181v53z" />
    <glyph glyph-name="Euro" unicode="&#x20ac;" horiz-adv-x="671" 
d="M366 -15q-118 0 -183 64t-68 180h-85v73h85v96h-85v73h85q3 116 68 180t183 64q61 0 108 -20.5t77.5 -54t43.5 -77t13 -86.5v-10h-77v10q0 51 -20 87t-57.5 57t-88.5 21q-30 0 -60.5 -7.5t-57 -29.5t-39 -58t-13.5 -76h216v-73h-216v-96h216v-73h-216q1 -29 8 -59t26 -55
t52 -41t84 -16q45 0 84.5 17.5t60.5 57t21 90.5v10h77v-10q0 -73 -28 -125t-82 -82.5t-132 -30.5z" />
    <glyph glyph-name="uni20B4" unicode="&#x20b4;" horiz-adv-x="665" 
d="M331 -15q-106 0 -168 51t-62 129q0 49 17 81h-78v67h585v-67h-425q-19 -30 -19 -70q0 -54 39.5 -86t110.5 -32q45 0 81 17t55.5 46t21.5 68h80q-4 -96 -71 -150t-167 -54zM40 386v67h420q20 31 20 67q0 24 -10 47.5t-28.5 40t-46.5 25.5t-62 9q-30 0 -66.5 -11t-62.5 -42
t-29 -78h-80q2 60 30 104.5t81 72t127 27.5q104 0 165.5 -52t61.5 -135q0 -39 -19 -75h84v-67h-585z" />
    <glyph glyph-name="uni20BD" unicode="&#x20bd;" horiz-adv-x="636" 
d="M121 0v118h-89v73h89v96h-89v73h89v340h274q90 0 141.5 -55.5t51.5 -150.5q0 -94 -51.5 -150.5t-141.5 -56.5h-194v-96h195v-73h-195v-118h-80zM201 360h186q51 0 86 34t35 99q0 63 -34 98.5t-87 35.5h-186v-267z" />
    <glyph glyph-name="afii61352" unicode="&#x2116;" horiz-adv-x="998" 
d="M93 0v700h74l316 -542v542h80v-700h-74l-316 542v-542h-80zM796 411q38 0 59 22.5t21 55.5v90q0 33 -21 55.5t-59 22.5q-37 0 -58.5 -22t-21.5 -56v-90q0 -34 21.5 -56t58.5 -22zM796 353q-71 0 -111 39t-40 108v68q0 69 40 108t111 39t110.5 -39t39.5 -108v-68
q0 -69 -39.5 -108t-110.5 -39zM645 213v62h301v-62h-301z" />
    <glyph glyph-name="trademark" unicode="&#x2122;" horiz-adv-x="685" 
d="M319 373v327h51l101 -151l102 151h52v-327h-55v237l-81 -124h-36l-80 122v-235h-54zM109 373v278h-97v49h248v-49h-97v-278h-54z" />
    <glyph glyph-name="uni2126" unicode="&#x2126;" horiz-adv-x="720" 
d="M75 0v77h121q-105 54 -105 193v194q0 58 19 105t54 79.5t85.5 49.5t110.5 17t110.5 -17t85.5 -49.5t54 -79.5t19 -105v-194q0 -139 -106 -193h122v-77h-233v80q24 5 47.5 18t41.5 36.5t29.5 57t11.5 75.5v201q0 74 -48.5 120.5t-133.5 46.5t-133.5 -46.5t-48.5 -120.5
v-201q0 -42 11.5 -75.5t29.5 -57t41.5 -36.5t47.5 -18v-80h-233z" />
    <glyph glyph-name="partialdiff" unicode="&#x2202;" horiz-adv-x="554" 
d="M245 -12q-91 0 -144.5 45.5t-53.5 121.5q0 28 9 116q9 91 63 140t137 49q27 0 58.5 -9.5t58.5 -31t45 -47.5l3 76q-1 95 -47 140.5t-129 45.5q-54 0 -110 -14l5 72q53 15 125 15q55 0 98.5 -17.5t72.5 -50.5t44 -79t15 -102q0 -63 -21 -281q-7 -86 -68.5 -137.5
t-160.5 -51.5zM252 61q63 0 100 34t42 87l12 129q-60 76 -137 76q-26 0 -56 -11t-52 -41t-26 -70q-3 -19 -5.5 -52t-2.5 -43q0 -48 33 -78.5t92 -30.5z" />
    <glyph glyph-name="uni2206" unicode="&#x2206;" horiz-adv-x="656" 
d="M23 0v30l261 670h87l262 -670v-30h-610zM131 77h388l-193 507z" />
    <glyph glyph-name="product" unicode="&#x220f;" horiz-adv-x="678" 
d="M93 -75v775h492v-775h-80v702h-332v-702h-80z" />
    <glyph glyph-name="summation" unicode="&#x2211;" horiz-adv-x="558" 
d="M53 -73v73l178 316l-178 311v73h439v-73h-349l180 -311l-180 -316h362v-73h-452z" />
    <glyph glyph-name="minus" unicode="&#x2212;" horiz-adv-x="541" 
d="M57 279v68h427v-68h-427z" />
    <glyph glyph-name="radical" unicode="&#x221a;" horiz-adv-x="565" 
d="M265 -75l-161 421h-100v73h156l137 -371l185 749h73v-29l-209 -843h-81z" />
    <glyph glyph-name="infinity" unicode="&#x221e;" horiz-adv-x="878" 
d="M243 131q-81 0 -130.5 53.5t-49.5 134.5t49.5 134t130.5 53q25 0 55.5 -10t63.5 -37t69 -70l8 -10l9 10q50 59 93 88t94 29q30 0 61 -9.5t57.5 -32.5t44 -59.5t17.5 -85.5q0 -29 -8.5 -60.5t-32.5 -63t-61.5 -47.5t-77.5 -16q-52 0 -96.5 29.5t-91.5 88.5l-8 9l-7 -9
q-47 -59 -92 -89t-97 -30zM245 206q27 0 50.5 14.5t43 36.5t41.5 48l10 12l-10 12q-54 65 -81 82t-54 17q-32 0 -57.5 -18t-35 -44t-9.5 -49t9.5 -49t35 -44t57.5 -18zM634 206q32 0 57.5 18t35 44t9.5 49t-9.5 49t-35 44t-57.5 18q-27 0 -54 -17t-81 -82l-10 -12l10 -12
q34 -41 52.5 -59.5t39 -29t43.5 -10.5z" />
    <glyph glyph-name="integral" unicode="&#x222b;" horiz-adv-x="321" 
d="M-3 -160v70h32q44 0 68 24t24 69v535q0 75 43.5 118.5t116.5 43.5h43v-70h-32q-43 0 -67.5 -24t-24.5 -69v-535q0 -75 -43.5 -118.5t-115.5 -43.5h-44z" />
    <glyph glyph-name="approxequal" unicode="&#x2248;" horiz-adv-x="503" 
d="M110 144l-51 38q30 49 58 73t60 24q34 0 70 -26l21 -15q32 -23 55 -23q12 0 25.5 9t44.5 53l52 -37q-29 -50 -57.5 -74.5t-60.5 -24.5q-30 0 -64 22l-24 16q-32 21 -41.5 24t-14.5 3q-14 0 -28 -9t-45 -53zM110 343l-51 38q30 49 58 73t60 24q34 0 70 -26l21 -15
q32 -23 55 -23q12 0 25.5 9t44.5 53l52 -37q-29 -50 -57.5 -74.5t-60.5 -24.5q-30 0 -64 22l-24 16q-32 21 -41.5 24t-14.5 3q-14 0 -28 -9t-45 -53z" />
    <glyph glyph-name="notequal" unicode="&#x2260;" horiz-adv-x="559" 
d="M63 0v29l87 142h-87v68h129l91 149h-220v67h261l100 161h66v-29l-81 -132h81v-67h-122l-92 -149h214v-68h-256l-105 -171h-66z" />
    <glyph glyph-name="lessequal" unicode="&#x2264;" horiz-adv-x="502" 
d="M405 158l-348 171v66l348 172h40v-55l-301 -150l301 -150v-54h-40zM57 11v68h388v-68h-388z" />
    <glyph glyph-name="greaterequal" unicode="&#x2265;" horiz-adv-x="502" 
d="M57 158v54l301 150l-301 150v55h40l348 -172v-66l-348 -171h-40zM57 11v68h388v-68h-388z" />
    <glyph glyph-name="lozenge" unicode="&#x25ca;" horiz-adv-x="545" 
d="M242 0l-189 350l189 350h62l188 -350l-189 -350h-61zM272 99l135 251l-135 251l-133 -251z" />
    <glyph glyph-name="uniF64E" unicode="&#xf64e;" horiz-adv-x="568" 
d="M28 222h67v61h-67v64h67q4 81 60 130t150 49q95 0 151 -50t56 -134v-5h-80v6q0 49 -34 79.5t-93 30.5t-93 -29.5t-37 -76.5h170v-64h-170v-61h170v-64h-169q4 -32 24 -55.5t49 -32.5t56 -9q59 0 93 31.5t34 80.5v7h80v-6q0 -84 -56.5 -135t-150.5 -51q-92 0 -147 46
t-62 124h-68v64z" />
    <glyph glyph-name="uniF653" unicode="&#xf653;" horiz-adv-x="540" 
d="M311 523q76 -10 119.5 -55.5t43.5 -122.5h-80q0 53 -36.5 80.5t-94.5 27.5q-27 0 -54.5 -7.5t-44.5 -25.5t-17 -40q0 -26 17.5 -42t57.5 -26l123 -31q64 -16 98 -47.5t34 -88.5q0 -63 -44 -105t-122 -50v-79h-70v79q-85 8 -136.5 55t-51.5 129h80q0 -35 17 -59.5
t50.5 -39t79.5 -14.5q54 0 85.5 22t31.5 56q0 27 -18.5 43.5t-61.5 27.5l-125 32q-44 12 -71 28.5t-40.5 42t-13.5 62.5q0 61 47 102t127 48v79h70v-81z" />
    <glyph glyph-name="uniF6C3" unicode="&#xf6c3;" horiz-adv-x="536" 
d="M188 -251l49 184h87v-37l-73 -147h-63z" />
    <glyph glyph-name="uniF721" unicode="&#xf721;" horiz-adv-x="567" 
d="M281 -12q-87 0 -136.5 36.5t-49.5 97.5q0 31 14 57h-68v56h481v-56h-335q-15 -22 -15 -45q0 -32 29 -52.5t84 -20.5q37 0 65 11t39.5 29.5t12.5 37.5h79q-3 -70 -60 -110.5t-140 -40.5zM41 279v56h339q15 18 15 45q0 21 -15.5 39.5t-41.5 26t-51 7.5q-38 0 -65.5 -11
t-38.5 -29.5t-12 -37.5h-78q1 26 11.5 52.5t34.5 48.5t61.5 36t88.5 14q85 0 134.5 -37t49.5 -98q0 -34 -16 -56h65v-56h-481z" />
    <glyph glyph-name="uniF722" unicode="&#xf722;" horiz-adv-x="553" 
d="M111 0v68h-83v64h83v61h-83v64h83v257h255q70 0 112 -42t42 -119q0 -76 -42 -118t-112 -42h-175v-61h151v-64h-151v-68h-80zM191 257h156q41 0 67 25t26 68t-26 68.5t-67 25.5h-156v-187z" />
    <glyph glyph-name="uniF725" unicode="&#xf725;" horiz-adv-x="550" 
d="M35 0v70h71v145h-71v66h71v54q0 86 53 138.5t144 52.5q89 0 142 -50t53 -134v-5h-80v6q0 50 -30.5 80t-84.5 30q-56 0 -86.5 -32t-30.5 -84v-56h154v-66h-154v-145h312v-70h-463z" />
    <glyph glyph-name="uniF727" unicode="&#xf727;" horiz-adv-x="524" 
d="M224 0v68h-145v64h145v61h-145v64h108l-145 219v38h71l150 -234h2l150 234h68v-38l-146 -219h105v-64h-138v-61h138v-64h-138v-68h-80z" />
    <glyph glyph-name="glyph277" horiz-adv-x="631" 
d="M316 740q-70 0 -113 36.5t-43 100.5v12h70v-11q0 -36 23 -56.5t63 -20.5t63.5 20.5t23.5 56.5v11h70v-12q0 -64 -43.5 -100.5t-113.5 -36.5z" />
    <glyph glyph-name="zero.oldstyle" horiz-adv-x="579" 
d="M289 61q26 0 55 9t50 32.5t29.5 51.5t8.5 56v95q0 28 -11 63t-45.5 60t-86.5 25q-33 0 -60 -11.5t-45.5 -32t-27.5 -48.5t-9 -56v-95q0 -28 9 -56.5t27.5 -49t45.5 -32t60 -11.5zM289 -12q-104 0 -163 60.5t-59 164.5v88q0 104 59.5 164.5t162.5 60.5q51 0 93 -15.5
t71 -45t44 -71.5t15 -93v-88q0 -104 -59 -164.5t-164 -60.5z" />
    <glyph glyph-name="one.oldstyle" horiz-adv-x="277" 
d="M107 0v412h-68v42l98 60h50v-514h-80z" />
    <glyph glyph-name="two.oldstyle" horiz-adv-x="554" 
d="M56 0v64l217 143q2 1 5.5 3.5t35 22.5t50 38t28 38t9.5 44q0 41 -35 70.5t-93 29.5q-60 0 -99 -33t-39 -92h-80q0 91 58 144.5t160 53.5q48 0 87.5 -14t66 -38t40.5 -57t14 -69q0 -42 -19 -75.5t-49.5 -59t-79.5 -54.5l-143 -86h305v-73h-439z" />
    <glyph glyph-name="three.oldstyle" horiz-adv-x="566" 
d="M281 -172q-105 0 -165.5 57t-62.5 155h80q2 -63 40 -101t108 -38q42 0 76 16t50 48t16 68q0 38 -19.5 67t-49 40t-56.5 11h-64v73h60q53 0 83 29.5t30 82.5q0 36 -17 63t-45.5 40.5t-67.5 13.5q-62 0 -97.5 -38.5t-36.5 -97.5h-80q1 94 58.5 151.5t155.5 57.5
q38 0 75.5 -9.5t67 -32.5t48 -59t18.5 -85q0 -54 -25.5 -92t-69.5 -57q35 -11 62.5 -38.5t38.5 -61.5t11 -63q0 -43 -14.5 -80t-42.5 -64t-70 -41.5t-95 -14.5z" />
    <glyph glyph-name="four.oldstyle" horiz-adv-x="542" 
d="M350 -160v160h-314v64l258 450h71v-30l-236 -411h221v167h80v-167h89v-73h-89v-160h-80z" />
    <glyph glyph-name="five.oldstyle" horiz-adv-x="578" 
d="M291 -172q-95 0 -156 51.5t-70 139.5h81q6 -39 28.5 -67t53.5 -39.5t63 -11.5q67 0 105.5 43t38.5 123q0 40 -11 69.5t-30.5 48.5t-45 27.5t-50.5 8.5q-77 0 -126 -57h-79l30 350h350v-73h-284l-17 -201q24 23 61 35.5t76 12.5q41 0 78 -12.5t66 -39t45.5 -69.5
t16.5 -101q0 -52 -14.5 -96t-43 -75.5t-71 -49t-95.5 -17.5z" />
    <glyph glyph-name="six.oldstyle" horiz-adv-x="581" 
d="M294 -12q-109 0 -170.5 62t-61.5 171q0 33 12 75.5t55 110.5l185 293h74v-29l-168 -260q18 12 46.5 19.5t58.5 7.5q90 0 146 -58t56 -159q0 -108 -62.5 -170.5t-170.5 -62.5zM294 61q74 0 113.5 42.5t39.5 113.5q0 72 -38.5 113.5t-113.5 41.5q-72 0 -112.5 -41
t-40.5 -114q0 -71 39 -113.5t113 -42.5z" />
    <glyph glyph-name="seven.oldstyle" horiz-adv-x="533" 
d="M178 -160v29l222 571h-279v-122h-75v196h437v-68l-235 -606h-70z" />
    <glyph glyph-name="eight.oldstyle" horiz-adv-x="608" 
d="M304 -12q-114 0 -177.5 56t-63.5 152q0 64 37 110.5t90 62.5q-48 21 -77 59t-29 98q0 82 58.5 135.5t161.5 53.5t161.5 -53.5t58.5 -135.5q0 -110 -105 -157q52 -16 89 -62.5t37 -110.5q0 -96 -63.5 -152t-177.5 -56zM163 522q0 -28 12.5 -56.5t47.5 -48t81 -19.5
q30 0 60 10t48.5 30t25 41.5t6.5 42.5q0 34 -16 63.5t-49.5 44t-74.5 14.5q-66 0 -103.5 -33t-37.5 -89zM144 199q0 -63 42 -100.5t118 -37.5t118 37.5t42 100.5q0 61 -43 98.5t-117 37.5t-117 -37.5t-43 -98.5z" />
    <glyph glyph-name="nine.oldstyle" horiz-adv-x="581" 
d="M209 -160v29l154 235q-18 -13 -45.5 -20.5t-57.5 -7.5q-92 0 -149 59t-57 160q0 106 62.5 168.5t170.5 62.5t170 -62.5t62 -168.5q0 -33 -11.5 -76.5t-54.5 -111.5l-171 -267h-73zM286 142q72 0 112.5 41t40.5 114q0 70 -39.5 113t-112.5 43t-113 -43t-40 -113
q0 -71 38.5 -113t113.5 -42z" />
    <glyph glyph-name="zero.oldstyle.tnum" 
d="M303 -12q-104 0 -163 60.5t-59 164.5v88q0 104 59.5 164.5t162.5 60.5q51 0 93 -15.5t71 -45t44 -71.5t15 -93v-88q0 -104 -59 -164.5t-164 -60.5zM161 210q0 -35 11 -66l223 280q-17 13 -41.5 21t-50.5 8q-33 0 -60 -11.5t-45.5 -32t-27.5 -48.5t-9 -56v-95zM303 61
q26 0 55 9t50 32.5t29.5 51.5t8.5 56v95q0 35 -10 61l-221 -279q35 -26 88 -26z" />
    <glyph glyph-name="one.oldstyle.tnum" 
d="M104 0v73h162v339h-108v42l139 60h50v-441h162v-73h-405z" />
    <glyph glyph-name="two.oldstyle.tnum" 
d="M80 0v64l217 143q2 1 5.5 3.5t35 22.5t50 38t28 38t9.5 44q0 41 -35 70.5t-93 29.5q-60 0 -99 -33t-39 -92h-80q0 91 58 144.5t160 53.5q48 0 87.5 -14t66 -38t40.5 -57t14 -69q0 -42 -19 -75.5t-49.5 -59t-79.5 -54.5l-143 -86h305v-73h-439z" />
    <glyph glyph-name="three.oldstyle.tnum" 
d="M305 -172q-105 0 -165.5 57t-62.5 155h80q2 -63 40 -101t108 -38q42 0 76 16t50 48t16 68q0 38 -19.5 67t-49 40t-56.5 11h-64v73h60q53 0 83 29.5t30 82.5q0 36 -17 63t-45.5 40.5t-67.5 13.5q-62 0 -97.5 -38.5t-36.5 -97.5h-80q1 94 58.5 151.5t155.5 57.5
q38 0 75.5 -9.5t67 -32.5t48 -59t18.5 -85q0 -54 -25.5 -92t-69.5 -57q35 -11 62.5 -38.5t38.5 -61.5t11 -63q0 -43 -14.5 -80t-42.5 -64t-70 -41.5t-95 -14.5z" />
    <glyph glyph-name="four.oldstyle.tnum" 
d="M374 -160v160h-314v64l258 450h71v-30l-236 -411h221v167h80v-167h89v-73h-89v-160h-80z" />
    <glyph glyph-name="five.oldstyle.tnum" 
d="M301 -172q-95 0 -156 51.5t-70 139.5h81q6 -39 28.5 -67t53.5 -39.5t63 -11.5q67 0 105.5 43t38.5 123q0 40 -11 69.5t-30.5 48.5t-45 27.5t-50.5 8.5q-77 0 -126 -57h-79l30 350h350v-73h-284l-17 -201q24 23 61 35.5t76 12.5q41 0 78 -12.5t66 -39t45.5 -69.5
t16.5 -101q0 -52 -14.5 -96t-43 -75.5t-71 -49t-95.5 -17.5z" />
    <glyph glyph-name="six.oldstyle.tnum" 
d="M307 -12q-109 0 -170.5 62t-61.5 171q0 33 12 75.5t55 110.5l185 293h74v-29l-168 -260q18 12 46.5 19.5t58.5 7.5q90 0 146 -58t56 -159q0 -108 -62.5 -170.5t-170.5 -62.5zM307 61q74 0 113.5 42.5t39.5 113.5q0 72 -38.5 113.5t-113.5 41.5q-72 0 -112.5 -41
t-40.5 -114q0 -71 39 -113.5t113 -42.5z" />
    <glyph glyph-name="seven.oldstyle.tnum" 
d="M219 -160v29l222 571h-279v-122h-75v196h437v-68l-235 -606h-70z" />
    <glyph glyph-name="eight.oldstyle.tnum" 
d="M303 -12q-114 0 -177.5 56t-63.5 152q0 64 37 110.5t90 62.5q-48 21 -77 59t-29 98q0 82 58.5 135.5t161.5 53.5t161.5 -53.5t58.5 -135.5q0 -110 -105 -157q52 -16 89 -62.5t37 -110.5q0 -96 -63.5 -152t-177.5 -56zM162 522q0 -28 12.5 -56.5t47.5 -48t81 -19.5
q30 0 60 10t48.5 30t25 41.5t6.5 42.5q0 34 -16 63.5t-49.5 44t-74.5 14.5q-66 0 -103.5 -33t-37.5 -89zM143 199q0 -63 42 -100.5t118 -37.5t118 37.5t42 100.5q0 61 -43 98.5t-117 37.5t-117 -37.5t-43 -98.5z" />
    <glyph glyph-name="nine.oldstyle.tnum" 
d="M222 -160v29l154 235q-18 -13 -45.5 -20.5t-57.5 -7.5q-92 0 -149 59t-57 160q0 106 62.5 168.5t170.5 62.5t170 -62.5t62 -168.5q0 -33 -11.5 -76.5t-54.5 -111.5l-171 -267h-73zM299 142q72 0 112.5 41t40.5 114q0 70 -39.5 113t-112.5 43t-113 -43t-40 -113
q0 -71 38.5 -113t113.5 -42z" />
    <glyph glyph-name="uniF653.tnum" 
d="M343 523q76 -10 119.5 -55.5t43.5 -122.5h-80q0 53 -36.5 80.5t-94.5 27.5q-27 0 -54.5 -7.5t-44.5 -25.5t-17 -40q0 -26 17.5 -42t57.5 -26l123 -31q64 -16 98 -47.5t34 -88.5q0 -63 -44 -105t-122 -50v-79h-70v79q-85 8 -136.5 55t-51.5 129h80q0 -35 17 -59.5
t50.5 -39t79.5 -14.5q54 0 85.5 22t31.5 56q0 27 -18.5 43.5t-61.5 27.5l-125 32q-44 12 -71 28.5t-40.5 42t-13.5 62.5q0 61 47 102t127 48v79h70v-81z" />
    <glyph glyph-name="uniF64E.tnum" 
d="M49 222h67v61h-67v64h67q4 81 60 130t150 49q95 0 151 -50t56 -134v-5h-80v6q0 49 -34 79.5t-93 30.5t-93 -29.5t-37 -76.5h170v-64h-170v-61h170v-64h-169q4 -32 24 -55.5t49 -32.5t56 -9q59 0 93 31.5t34 80.5v7h80v-6q0 -84 -56.5 -135t-150.5 -51q-92 0 -147 46
t-62 124h-68v64z" />
    <glyph glyph-name="uniF725.tnum" 
d="M64 0v70h71v145h-71v66h71v54q0 86 53 138.5t144 52.5q89 0 142 -50t53 -134v-5h-80v6q0 50 -30.5 80t-84.5 30q-56 0 -86.5 -32t-30.5 -84v-56h154v-66h-154v-145h312v-70h-463z" />
    <glyph glyph-name="uniF727.tnum" 
d="M265 0v68h-145v64h145v61h-145v64h108l-145 219v38h71l150 -234h2l150 234h68v-38l-146 -219h105v-64h-138v-61h138v-64h-138v-68h-80z" />
    <glyph glyph-name="uniF722.tnum" 
d="M126 0v68h-83v64h83v61h-83v64h83v257h255q70 0 112 -42t42 -119q0 -76 -42 -118t-112 -42h-175v-61h151v-64h-151v-68h-80zM206 257h156q41 0 67 25t26 68t-26 68.5t-67 25.5h-156v-187z" />
    <glyph glyph-name="uniF721.tnum" 
d="M298 -12q-87 0 -136.5 36.5t-49.5 97.5q0 31 14 57h-68v56h481v-56h-335q-15 -22 -15 -45q0 -32 29 -52.5t84 -20.5q37 0 65 11t39.5 29.5t12.5 37.5h79q-3 -70 -60 -110.5t-140 -40.5zM58 279v56h339q15 18 15 45q0 21 -15.5 39.5t-41.5 26t-51 7.5q-38 0 -65.5 -11
t-38.5 -29.5t-12 -37.5h-78q1 26 11.5 52.5t34.5 48.5t61.5 36t88.5 14q85 0 134.5 -37t49.5 -98q0 -34 -16 -56h65v-56h-481z" />
    <glyph glyph-name="zero.tnum" 
d="M302 -15q-105 0 -166.5 61.5t-61.5 170.5v266q0 109 61.5 170.5t166.5 61.5q51 0 94 -15.5t73 -45.5t46 -73.5t16 -97.5v-266q0 -54 -16 -97.5t-46 -73.5t-73 -45.5t-94 -15.5zM154 212q0 -24 5 -47l247 439q-40 38 -104 38q-69 0 -108.5 -43t-39.5 -112v-275zM302 58
q70 0 109.5 43t39.5 111v275q0 22 -5 45l-247 -437q39 -37 103 -37z" />
    <glyph glyph-name="one.tnum" 
d="M104 0v73h162v525h-108v42l139 60h50v-627h162v-73h-405z" />
    <glyph glyph-name="two.tnum" 
d="M77 0v66l211 215q57 58 83 89t41 64t15 70q0 27 -7.5 50.5t-21 41.5t-39.5 32t-66 14q-66 0 -102 -42.5t-37 -114.5h-80q1 107 61.5 168.5t156.5 61.5q37 0 75 -10.5t69 -36t51 -66.5t20 -96q0 -49 -19 -92t-49.5 -80t-90.5 -98l-162 -163h330v-73h-439z" />
    <glyph glyph-name="three.tnum" 
d="M300 -15q-105 0 -168 60.5t-65 165.5h80q2 -51 23 -85t54.5 -51t78.5 -17q71 0 108.5 39.5t37.5 104.5q0 58 -37 92t-101 34h-55v73h50q57 0 91.5 31.5t34.5 86.5q0 22 -9 48t-29 43.5t-44 24.5t-48 7q-67 0 -103 -41t-37 -113h-80q1 107 60.5 167t159.5 60
q36 0 73.5 -10t67 -33t48.5 -60t19 -86q0 -58 -27 -97.5t-73 -60.5q51 -16 85 -61.5t34 -109.5q0 -99 -61 -155.5t-168 -56.5z" />
    <glyph glyph-name="four.tnum" 
d="M375 0v152h-322v62l262 486h71v-29l-241 -446h230v186h80v-186h89v-73h-89v-152h-80z" />
    <glyph glyph-name="five.tnum" 
d="M302 -15q-96 0 -157.5 53t-73.5 148h80q6 -42 31.5 -73.5t59 -43t62.5 -11.5q71 0 108.5 46t37.5 125q0 78 -39.5 121.5t-104.5 43.5q-32 0 -67 -14t-61 -48h-79l33 368h358v-73h-292l-19 -213q60 47 141 47q43 0 81.5 -13.5t67 -41.5t45 -72.5t16.5 -103.5
q0 -114 -61.5 -179.5t-166.5 -65.5z" />
    <glyph glyph-name="six.tnum" 
d="M307 -15q-109 0 -171 62.5t-62 171.5q0 33 12 75.5t55 110.5l185 295h74v-29l-168 -262q19 12 47.5 19.5t58.5 7.5q89 0 145 -58t56 -159q0 -109 -62 -171.5t-170 -62.5zM307 58q73 0 112.5 42.5t39.5 114.5q0 71 -38 113t-113 42q-72 0 -113 -41.5t-41 -113.5
t39.5 -114.5t113.5 -42.5z" />
    <glyph glyph-name="seven.tnum" 
d="M211 0v29l231 598h-282v-123h-75v196h440v-68l-242 -632h-72z" />
    <glyph glyph-name="eight.tnum" 
d="M303 -15q-114 0 -177.5 55.5t-63.5 151.5q0 65 37.5 112t89.5 63q-47 21 -70.5 51.5t-29.5 57t-6 49.5q0 39 14.5 74t42.5 61t70 40.5t93 14.5q38 0 77.5 -10t71 -33.5t51.5 -60.5t20 -86q0 -53 -25.5 -93.5t-79.5 -64.5q52 -16 89 -63t37 -112q0 -96 -63.5 -151.5
t-177.5 -55.5zM162 519q0 -27 12.5 -55.5t47.5 -48t81 -19.5q30 0 60 10t48.5 30t25 41.5t6.5 41.5q0 26 -12 55.5t-45.5 48.5t-82.5 19q-24 0 -49 -6t-47.5 -22t-33.5 -42.5t-11 -52.5zM143 195q0 -62 42 -99.5t118 -37.5t118 37.5t42 99.5q0 61 -43 99.5t-117 38.5
t-117 -38.5t-43 -99.5z" />
    <glyph glyph-name="nine.tnum" 
d="M213 0v29l165 263q-19 -12 -47 -20t-58 -8q-92 0 -149 58.5t-57 160.5q0 107 62 169.5t171 62.5t170.5 -62.5t61.5 -169.5q0 -44 -15.5 -88t-49.5 -100l-181 -295h-73zM300 642q-74 0 -113.5 -42t-39.5 -114t38.5 -114.5t112.5 -42.5q72 0 113 42t41 115
q0 71 -39.5 113.5t-112.5 42.5z" />
    <glyph glyph-name="dollar.tnum" 
d="M52 227h80q0 -56 23 -93t64 -56.5t96 -19.5q54 0 88.5 19t46.5 47t12 52q0 22 -10.5 44.5t-37.5 40.5t-71 36l-77 31q-68 27 -111 52.5t-62.5 61.5t-19.5 85q0 16 4 37t15.5 44t33.5 45.5t59 39.5t83 21v91h80v-94q90 -14 141.5 -75.5t51.5 -156.5h-81q0 54 -19.5 89.5
t-55.5 54.5t-88 19q-48 0 -82 -17.5t-47 -43t-13 -51.5t10.5 -47.5t38.5 -39t82 -39.5l78 -31q103 -41 142 -84t39 -107q0 -39 -11.5 -69t-31 -54.5t-58.5 -46t-96 -26.5v-101h-80v102q-101 11 -158.5 74t-57.5 166z" />
    <glyph glyph-name="Euro.tnum" 
d="M343 -15q-118 0 -183 64t-68 180h-85v73h85v96h-85v73h85q3 116 68 180t183 64q61 0 108 -20.5t77.5 -54t43.5 -77t13 -86.5v-10h-77v10q0 51 -20 87t-57.5 57t-88.5 21q-30 0 -60.5 -7.5t-57 -29.5t-39 -58t-13.5 -76h216v-73h-216v-96h216v-73h-216q1 -29 8 -59t26 -55
t52 -41t84 -16q45 0 84.5 17.5t60.5 57t21 90.5v10h77v-10q0 -73 -28 -125t-82 -82.5t-132 -30.5z" />
    <glyph glyph-name="sterling.tnum" 
d="M50 0v73h74v247h-74v73h74v131q0 86 56.5 138.5t153.5 52.5q95 0 151 -51t56 -140v-32h-80v32q0 40 -18.5 68t-48 39t-60.5 11q-62 0 -96 -32t-34 -84v-133h166v-73h-166v-247h337v-73h-491z" />
    <glyph glyph-name="yen.tnum" 
d="M263 0v111h-187v73h187v96h-187v73h144l-196 318v29h76l204 -341l204 341h75v-29l-197 -318h144v-73h-187v-96h187v-73h-187v-111h-80z" />
    <glyph glyph-name="uni20BD.tnum" 
d="M114 0v118h-89v73h89v96h-89v73h89v340h274q90 0 141.5 -55.5t51.5 -150.5q0 -94 -51.5 -150.5t-141.5 -56.5h-194v-96h195v-73h-195v-118h-80zM194 360h186q51 0 86 34t35 99q0 63 -34 98.5t-87 35.5h-186v-267z" />
    <glyph glyph-name="uni20B4.tnum" 
d="M301 -15q-106 0 -168 51t-62 129q0 49 17 81h-78v67h585v-67h-425q-19 -30 -19 -70q0 -54 39.5 -86t110.5 -32q45 0 81 17t55.5 46t21.5 68h80q-4 -96 -71 -150t-167 -54zM10 386v67h420q20 31 20 67q0 24 -10 47.5t-28.5 40t-46.5 25.5t-62 9q-30 0 -66.5 -11t-62.5 -42
t-29 -78h-80q2 60 30 104.5t81 72t127 27.5q104 0 165.5 -52t61.5 -135q0 -39 -19 -75h84v-67h-585z" />
    <glyph glyph-name="a.salt" horiz-adv-x="578" 
d="M495 0h-48l-28 68q-30 -34 -73.5 -57t-95.5 -23q-81 0 -131.5 50t-50.5 139v160q0 89 50.5 139t130.5 50q40 0 85.5 -18t84.5 -62l28 68h48v-514zM264 61q76 0 151 81v230q-75 81 -152 81q-51 0 -83 -34t-32 -88v-148q0 -54 32 -88t84 -34z" />
    <glyph glyph-name="agrave.salt" horiz-adv-x="578" 
d="M495 0h-48l-28 68q-30 -34 -73.5 -57t-95.5 -23q-81 0 -131.5 50t-50.5 139v160q0 89 50.5 139t130.5 50q40 0 85.5 -18t84.5 -62l28 68h48v-514zM264 61q76 0 151 81v230q-75 81 -152 81q-51 0 -83 -34t-32 -88v-148q0 -54 32 -88t84 -34zM286 590l-100 112v28h76
l95 -140h-71z" />
    <glyph glyph-name="aacute.salt" horiz-adv-x="578" 
d="M495 0h-48l-28 68q-30 -34 -73.5 -57t-95.5 -23q-81 0 -131.5 50t-50.5 139v160q0 89 50.5 139t130.5 50q40 0 85.5 -18t84.5 -62l28 68h48v-514zM264 61q76 0 151 81v230q-75 81 -152 81q-51 0 -83 -34t-32 -88v-148q0 -54 32 -88t84 -34zM407 702l-100 -112h-71l95 140
h76v-28z" />
    <glyph glyph-name="acircumflex.salt" horiz-adv-x="578" 
d="M495 0h-48l-28 68q-30 -34 -73.5 -57t-95.5 -23q-81 0 -131.5 50t-50.5 139v160q0 89 50.5 139t130.5 50q40 0 85.5 -18t84.5 -62l28 68h48v-514zM264 61q76 0 151 81v230q-75 81 -152 81q-51 0 -83 -34t-32 -88v-148q0 -54 32 -88t84 -34zM325 730l104 -113v-27h-67
l-72 84l-72 -84h-66v27l104 113h69z" />
    <glyph glyph-name="atilde.salt" horiz-adv-x="578" 
d="M495 0h-48l-28 68q-30 -34 -73.5 -57t-95.5 -23q-81 0 -131.5 50t-50.5 139v160q0 89 50.5 139t130.5 50q40 0 85.5 -18t84.5 -62l28 68h48v-514zM264 61q76 0 151 81v230q-75 81 -152 81q-51 0 -83 -34t-32 -88v-148q0 -54 32 -88t84 -34zM165 602l-48 32q28 47 53 70
t54 23q30 0 68 -25l20 -13q32 -22 52 -22q10 0 22.5 8.5t40.5 48.5l48 -32q-27 -47 -52.5 -70t-55.5 -23q-32 0 -64 22l-19 13q-20 13 -31.5 19t-23.5 6q-11 0 -23 -8.5t-41 -48.5z" />
    <glyph glyph-name="adieresis.salt" horiz-adv-x="578" 
d="M495 0h-48l-28 68q-30 -34 -73.5 -57t-95.5 -23q-81 0 -131.5 50t-50.5 139v160q0 89 50.5 139t130.5 50q40 0 85.5 -18t84.5 -62l28 68h48v-514zM264 61q76 0 151 81v230q-75 81 -152 81q-51 0 -83 -34t-32 -88v-148q0 -54 32 -88t84 -34zM154 595v110h80v-110h-80z
M343 595v110h80v-110h-80z" />
    <glyph glyph-name="aring.salt" horiz-adv-x="578" 
d="M495 0h-48l-28 68q-30 -34 -73.5 -57t-95.5 -23q-81 0 -131.5 50t-50.5 139v160q0 89 50.5 139t130.5 50q40 0 85.5 -18t84.5 -62l28 68h48v-514zM264 61q76 0 151 81v230q-75 81 -152 81q-51 0 -83 -34t-32 -88v-148q0 -54 32 -88t84 -34zM193 667q0 19 10 42t35.5 40
t55.5 17q19 0 43 -10t41.5 -34.5t17.5 -54.5q0 -40 -30 -68.5t-72 -28.5q-41 0 -71 28.5t-30 68.5zM242 667q0 -20 15.5 -35t36.5 -15t37 15t16 35q0 21 -15.5 36.5t-37.5 15.5q-21 0 -36.5 -15.5t-15.5 -36.5z" />
    <glyph glyph-name="amacron.salt" horiz-adv-x="578" 
d="M495 0h-48l-28 68q-30 -34 -73.5 -57t-95.5 -23q-81 0 -131.5 50t-50.5 139v160q0 89 50.5 139t130.5 50q40 0 85.5 -18t84.5 -62l28 68h48v-514zM264 61q76 0 151 81v230q-75 81 -152 81q-51 0 -83 -34t-32 -88v-148q0 -54 32 -88t84 -34zM150 617v66h285v-66h-285z" />
    <glyph glyph-name="aogonek.salt" horiz-adv-x="578" 
d="M495 0q-51 -38 -51 -68q0 -38 60 -38h39v-54h-56q-46 0 -73 20t-27 54q0 20 14 43.5t44 46.5l-26 64q-30 -34 -73.5 -57t-95.5 -23q-81 0 -131.5 50t-50.5 139v160q0 89 50.5 139t130.5 50q40 0 85.5 -18t84.5 -62l28 68h48v-514zM264 61q76 0 151 81v230q-75 81 -152 81
q-51 0 -83 -34t-32 -88v-148q0 -54 32 -88t84 -34z" />
    <glyph glyph-name="t.salt" horiz-adv-x="371" 
d="M146 0v444h-116v70h116v191h80v-191h115v-70h-115v-444h-80z" />
    <glyph glyph-name="tcaron.salt" horiz-adv-x="504" 
d="M146 0v444h-116v70h116v191h80v-191h115v-70h-115v-444h-80zM393 521l49 184h87v-37l-73 -147h-63z" />
    <glyph glyph-name="J.salt" horiz-adv-x="566" 
d="M256 -15q-78 0 -129.5 27t-77.5 74.5t-26 117.5v29h87v-29q0 -68 39 -103.5t107 -35.5q39 0 74 15.5t53.5 49.5t18.5 77v416h-244v77h331v-496q0 -68 -26.5 -116t-78 -75.5t-128.5 -27.5z" />
    <glyph glyph-name="ampersand.salt" horiz-adv-x="637" 
d="M379 233v70h251v-70h-86v-9q0 -108 -68.5 -172t-178.5 -64q-53 0 -98 14.5t-77.5 42.5t-50.5 68.5t-18 89.5q0 69 36 118t88 64q-42 14 -66 51.5t-24 91.5q0 38 12.5 67t33.5 52t62 41.5t98 18.5q95 0 150 -50t59 -138h-80q-4 53 -36.5 84t-92.5 31q-58 0 -90 -31.5
t-32 -79.5t29 -76.5t87 -28.5h36v-70h-42q-70 0 -109 -36.5t-39 -104.5q0 -66 44 -106t121 -40q79 0 122.5 44t43.5 115v13h-85z" />
    <glyph glyph-name="ampersand.ss05" horiz-adv-x="603" 
d="M261 0q-208 0 -208 196q0 44 13.5 78t40.5 60t64 36q-42 17 -67 55.5t-25 95.5q0 89 50 134t139 45h102v-70h-102q-49 0 -76.5 -31t-27.5 -83t26.5 -82t74.5 -30h155l32 116h48v-116h70v-70h-70v-334h-239zM276 70h144v264h-144q-138 0 -138 -131q0 -133 138 -133z" />
    <glyph glyph-name="at.salt" horiz-adv-x="757" 
d="M355 -160q-122 0 -197 67t-75 175v381q0 108 75 175t197 67h47q44 0 91 -11.5t91.5 -44t66.5 -83t22 -103.5v-353h-47l-30 65q-26 -29 -72.5 -53t-90.5 -24q-34 0 -60.5 8t-48.5 22.5t-40 44t-18 74.5q0 79 54 120.5t159 41.5h114v54q0 74 -50.5 121.5t-140.5 47.5h-47
q-90 0 -141 -47.5t-51 -121.5v-381q0 -74 51 -121.5t141 -47.5h98v-73h-98zM446 171q20 0 46.5 7.5t54 25.5t46.5 38v105h-114q-70 0 -101.5 -25.5t-31.5 -65.5q0 -20 10 -40.5t34.5 -32.5t55.5 -12z" />
    <glyph glyph-name="afii10065.salt" horiz-adv-x="578" 
d="M495 0h-48l-28 68q-30 -34 -73.5 -57t-95.5 -23q-81 0 -131.5 50t-50.5 139v160q0 89 50.5 139t130.5 50q40 0 85.5 -18t84.5 -62l28 68h48v-514zM264 61q76 0 151 81v230q-75 81 -152 81q-51 0 -83 -34t-32 -88v-148q0 -54 32 -88t84 -34z" />
    <glyph glyph-name="afii10037.salt" horiz-adv-x="576" 
d="M123 0v80h23q35 0 59.5 21t47.5 69l9 19l-249 482v29h81l209 -417l183 417h77v-29l-221 -498q-30 -67 -53.5 -102t-57 -53t-95.5 -18h-13z" />
    <glyph glyph-name="afii10062.salt" horiz-adv-x="576" 
d="M291 740q-70 0 -113 36.5t-43 100.5v12h70v-11q0 -36 23 -56.5t63 -20.5t63.5 20.5t23.5 56.5v11h70v-12q0 -64 -43.5 -100.5t-113.5 -36.5zM123 0v80h23q35 0 59.5 21t47.5 69l9 19l-249 482v29h81l209 -417l183 417h77v-29l-221 -498q-30 -67 -53.5 -102t-57 -53
t-95.5 -18h-13z" />
    </font>
</defs>
</svg>
