<?xml version="1.0" standalone="no"?>
<!DOCTYPE svg PUBLIC "-//W3C//DTD SVG 1.1//EN" "http://www.w3.org/Graphics/SVG/1.1/DTD/svg11.dtd">
<svg xmlns="http://www.w3.org/2000/svg">
<defs >
<font id="DroidSansMono" horiz-adv-x="1229" ><font-face
    font-family="Droid Sans Mono"
    units-per-em="2048"
    panose-1="2 11 6 9 3 8 4 2 2 4"
    ascent="2163"
    descent="-555"
    alphabetic="0" />
<glyph unicode=" " glyph-name="space" />
<glyph unicode="!" glyph-name="exclam" d="M676 414H555L504 1462H727L676 414ZM614 250Q741 250 741 111Q741 -29 614 -29Q487 -29 487 111Q487 250 614 250Z" />
<glyph unicode="&quot;" glyph-name="quotedbl" d="M522 1462L481 934H326L285 1462H522ZM944 1462L903 934H748L707 1462H944Z" />
<glyph unicode="#" glyph-name="numbersign" d="M936 893L872 565H1112V428H846L764 0H616L700 428H410L328 0H184L262 428H45V565H289L354 893H121V1030H379L461 1462H608L526 1030H819L903 1462H1047L963 1030H1184V893H936ZM436 565H727L791 893H500L436 565Z" />
<glyph unicode="$" glyph-name="dollar" d="M684 111V-119H547V102Q319 102 182 172V344Q378 252 547 252V686Q354 750 277 831T199 1051Q199 1182 291 1268T547 1374V1554H684V1378Q871 1369 1020 1300L954 1155Q814 1217 684 1227V805Q883 737 963 657T1044
446Q1044 166 684 111ZM547 854V1223Q375 1194 375 1049Q375 971 415 928T547 854ZM684 635V262Q868 290 868 446Q868 573 684 635Z" />
<glyph unicode="%" glyph-name="percent" d="M291 784Q160 784 80 878T0 1133Q0 1297 79 1388T295 1479Q424 1479 505 1386T586 1133Q586 971 508 878T291 784ZM293 903Q432 903 432 1133Q432 1358 293 1358Q152 1358 152 1133Q152 903 293 903ZM1057 1462L328
0H170L899 1462H1057ZM934 -18Q804 -18 724 76T643 330Q643 494 722 585T938 676Q1067 676 1148 583T1229 330Q1229 169 1151 76T934 -18ZM936 100Q1075 100 1075 330Q1075 555 936 555Q795 555 795 330Q795 100 936 100Z" />
<glyph unicode="&amp;" glyph-name="ampersand" d="M602 776L883 428Q954 549 987 694H1171Q1118 460 993 291L1227 0H1010L879 166Q705 -20 467 -20Q278 -20 170 87T61 381Q61 512 124 609T360 809Q197 1001 197 1165Q197 1313 292 1399T567 1485Q735 1485 827
1400T920 1165Q920 962 602 776ZM508 897Q642 976 691 1035T741 1169Q741 1243 692 1289T561 1335Q474 1335 425 1291T375 1165Q375 1047 508 897ZM778 287L455 688Q252 565 252 387Q252 282 319 212T479 141Q639 141 778 287Z" />
<glyph unicode="&apos;" glyph-name="quotesingle" d="M733 1462L692 934H537L496 1462H733Z" />
<glyph unicode="(" glyph-name="parenleft" d="M739 1462H932Q483 1086 483 569Q483 48 930 -324H739Q295 29 295 567Q295 1099 739 1462Z" />
<glyph unicode=")" glyph-name="parenright" d="M489 -324H299Q745 47 745 569Q745 1087 297 1462H489Q934 1101 934 567Q934 27 489 -324Z" />
<glyph unicode="*" glyph-name="asterisk" d="M715 1556L672 1163L1069 1274L1096 1081L717 1053L963 727L784 631L608 989L451 631L266 727L508 1053L133 1081L162 1274L553 1163L510 1556H715Z" />
<glyph unicode="+" glyph-name="plus" d="M539 647H152V797H539V1186H688V797H1075V647H688V262H539V647Z" />
<glyph unicode="," glyph-name="comma" d="M770 262L786 238Q729 14 592 -289H440Q516 34 551 262H770Z" />
<glyph unicode="-" glyph-name="hyphen" d="M285 465V633H944V465H285Z" />
<glyph unicode="." glyph-name="period" d="M614 301Q766 301 766 135Q766 -31 614 -31Q463 -31 463 135Q463 301 614 301Z" />
<glyph unicode="/" glyph-name="slash" d="M1016 1462L389 0H211L838 1462H1016Z" />
<glyph unicode="0" glyph-name="zero" d="M612 -20Q383 -20 265 173T147 733Q147 1485 612 1485Q844 1485 962 1292T1081 733Q1081 -20 612 -20ZM612 135Q759 135 828 275T897 733Q897 1048 828 1188T612 1329Q467 1329 400 1190T332 733Q332 415 399 275T612 135Z" />
<glyph unicode="1" glyph-name="one" d="M758 0H582V913Q582 1035 590 1274Q551 1231 469 1161L322 1040L225 1163L608 1462H758V0Z" />
<glyph unicode="2" glyph-name="two" d="M1069 0H158V156L508 537Q703 750 765 854T827 1085Q827 1198 764 1263T592 1329Q432 1329 274 1192L172 1311Q364 1483 594 1483Q788 1483 900 1377T1012 1092Q1012 973 953 848T662 473L381 174V166H1069V0Z" />
<glyph unicode="3" glyph-name="three" d="M694 770V764Q1055 717 1055 416Q1055 213 917 97T518 -20Q276 -20 131 59V229Q315 133 514 133Q868 133 868 422Q868 680 487 680H354V831H487Q647 831 735 907T823 1108Q823 1210 755 1269T573 1329Q395 1329 229 1208L137
1333Q324 1483 573 1483Q779 1483 894 1384T1010 1120Q1010 982 928 889T694 770Z" />
<glyph unicode="4" glyph-name="four" d="M1126 328H913V0H737V328H61V487L725 1470H913V494H1126V328ZM737 494V850Q737 1026 750 1282H741Q705 1180 651 1102L240 494H737Z" />
<glyph unicode="5" glyph-name="five" d="M172 59V231Q316 135 532 135Q868 135 868 449Q868 743 524 743Q435 743 293 717L203 774L258 1462H948V1296H416L377 877Q484 897 586 897Q796 897 925 783T1055 469Q1055 235 917 108T528 -20Q304 -20 172 59Z" />
<glyph unicode="6" glyph-name="six" d="M965 1464V1309Q894 1333 799 1333Q575 1333 463 1192T340 745H352Q447 915 659 915Q854 915 964 796T1075 471Q1075 243 955 112T631 -20Q413 -20 284 148T154 625Q154 1483 793 1483Q897 1483 965 1464ZM899 471Q899
616 831 694T635 772Q508 772 422 691T336 506Q336 354 417 244T629 133Q756 133 827 221T899 471Z" />
<glyph unicode="7" glyph-name="seven" d="M334 0L897 1296H143V1462H1083V1317L528 0H334Z" />
<glyph unicode="8" glyph-name="eight" d="M764 774Q1073 614 1073 381Q1073 200 947 90T614 -20Q398 -20 277 83T156 373Q156 630 438 766Q203 912 203 1135Q203 1296 319 1390T614 1485Q798 1485 912 1390T1026 1133Q1026 903 764 774ZM616 848Q848 951 848
1126Q848 1227 785 1280T612 1333Q506 1333 444 1280T381 1126Q381 1036 430 974T616 848ZM588 696Q334 575 334 371Q334 131 610 131Q746 131 820 196T895 379Q895 469 832 538T618 682L588 696Z" />
<glyph unicode="9" glyph-name="nine" d="M264 -2V154Q331 129 430 129Q654 129 766 270T889 717H877Q781 547 569 547Q375 547 265 665T154 991Q154 1219 274 1351T598 1483Q818 1483 946 1312T1075 838Q1075 -20 436 -20Q331 -20 264 -2ZM330 991Q330 846 398
768T594 690Q721 690 807 771T893 956Q893 1107 813 1218T600 1329Q472 1329 401 1242T330 991Z" />
<glyph unicode=":" glyph-name="colon" d="M614 1126Q741 1126 741 987Q741 848 614 848Q487 848 487 987Q487 1126 614 1126ZM614 250Q741 250 741 111Q741 -29 614 -29Q487 -29 487 111Q487 250 614 250Z" />
<glyph unicode=";" glyph-name="semicolon" d="M621 1126Q748 1126 748 987Q748 848 621 848Q494 848 494 987Q494 1126 621 1126ZM709 238L723 215Q672 18 547 -264H410Q472 -9 510 238H709Z" />
<glyph unicode="&lt;" glyph-name="less" d="M1075 221L152 672V774L1075 1225V1065L360 723L1075 381V221Z" />
<glyph unicode="=" glyph-name="equal" d="M152 852V1001H1075V852H152ZM152 442V592H1075V442H152Z" />
<glyph unicode="&gt;" glyph-name="greater" d="M152 381L866 723L152 1065V1225L1075 774V672L152 221V381Z" />
<glyph unicode="?" glyph-name="question" d="M465 414V451Q465 571 511 646T672 803Q802 900 843 958T885 1116Q885 1208 811 1265T604 1323Q430 1323 233 1233L168 1386Q377 1483 594 1483Q808 1483 933 1386T1059 1124Q1059 991 1006 908T809 717Q691 630 658
576T625 432V414H465ZM553 250Q680 250 680 111Q680 -29 553 -29Q426 -29 426 111Q426 250 553 250Z" />
<glyph unicode="@" glyph-name="at" d="M799 401H795Q721 221 565 221Q445 221 375 325T305 606Q305 812 402 938T657 1065Q794 1065 913 1018L891 602Q889 564 889 533V526Q889 350 961 350Q1061 350 1061 733Q1061 1011 950 1169T651 1327Q425 1327 299 1135T172
608Q172 296 301 126T670 -45Q851 -45 1016 33V-100Q858 -182 664 -182Q366 -182 199 25T31 602Q31 999 198 1230T653 1462Q901 1462 1049 1266T1198 731Q1198 500 1134 361T956 221Q828 221 799 401ZM752 915Q698 936 649 936Q560 936 513 843T465 602Q465 350
592 350Q723 350 737 662L752 915Z" />
<glyph unicode="A" glyph-name="A" d="M1004 0L860 453H369L223 0H33L516 1468H711L1196 0H1004ZM807 618L674 1042Q635 1166 612 1268Q592 1169 566 1085L422 618H807Z" />
<glyph unicode="B" glyph-name="B" d="M135 1462H575Q849 1462 972 1375T1096 1092Q1096 964 1018 879T805 776V766Q1137 712 1137 424Q1137 226 1010 113T662 0H135V1462ZM322 842H606Q762 842 833 897T905 1079Q905 1199 829 1251T586 1303H322V842ZM322 686V158H629Q940
158 940 432Q940 686 616 686H322Z" />
<glyph unicode="C" glyph-name="C" d="M1124 201V39Q978 -20 766 -20Q457 -20 293 176T129 733Q129 1079 308 1281T797 1483Q1017 1483 1180 1397L1102 1241Q948 1319 797 1319Q582 1319 454 1161T326 731Q326 444 446 294T797 143Q927 143 1124 201Z" />
<glyph unicode="D" glyph-name="D" d="M135 0V1462H477Q794 1462 970 1273T1147 745Q1147 384 964 192T436 0H135ZM322 1303V160H418Q950 160 950 739Q950 1303 457 1303H322Z" />
<glyph unicode="E" glyph-name="E" d="M1059 0H217V1462H1059V1298H403V846H1020V684H403V164H1059V0Z" />
<glyph unicode="F" glyph-name="F" d="M430 0H244V1462H1085V1298H430V782H1047V618H430V0Z" />
<glyph unicode="G" glyph-name="G" d="M672 772H1094V55Q899 -20 674 -20Q412 -20 265 179T117 733Q117 1084 279 1283T725 1483Q917 1483 1071 1397L999 1235Q853 1319 719 1319Q527 1319 420 1164T313 731Q313 143 707 143Q804 143 909 172V608H672V772Z" />
<glyph unicode="H" glyph-name="H" d="M1094 0H907V682H322V0H135V1462H322V846H907V1462H1094V0Z" />
<glyph unicode="I" glyph-name="I" d="M1001 0H225V123L520 143V1319L225 1339V1462H1001V1339L707 1319V143L1001 123V0Z" />
<glyph unicode="J" glyph-name="J" d="M137 39V205Q299 143 446 143Q607 143 700 222T793 449V1462H979V451Q979 235 839 108T461 -20Q244 -20 137 39Z" />
<glyph unicode="K" glyph-name="K" d="M1198 0H987L537 698L397 584V0H211V1462H397V731L518 899L971 1462H1180L659 825L1198 0Z" />
<glyph unicode="L" glyph-name="L" d="M233 0V1462H420V166H1055V0H233Z" />
<glyph unicode="M" glyph-name="M" d="M532 0L254 1280H246Q264 1014 264 874V0H113V1462H360L608 270H614L864 1462H1116V0H963V887Q963 989 977 1278H969L686 0H532Z" />
<glyph unicode="N" glyph-name="N" d="M1092 0H877L297 1210H289Q307 933 307 793V0H135V1462H348L926 258H932Q918 561 918 662V1462H1092V0Z" />
<glyph unicode="O" glyph-name="O" d="M616 -20Q84 -20 84 735Q84 1485 618 1485Q874 1485 1010 1290T1147 733Q1147 372 1009 176T616 -20ZM616 143Q789 143 869 288T950 733Q950 1036 869 1178T618 1321Q281 1321 281 733Q281 143 616 143Z" />
<glyph unicode="P" glyph-name="P" d="M362 569V0H176V1462H580Q1094 1462 1094 1034Q1094 815 956 692T553 569H362ZM362 727H532Q730 727 815 799T901 1024Q901 1303 563 1303H362V727Z" />
<glyph unicode="Q" glyph-name="Q" d="M862 39Q947 -141 1141 -272L1020 -414Q784 -243 692 -14Q656 -20 616 -20Q84 -20 84 735Q84 1485 618 1485Q874 1485 1010 1290T1147 733Q1147 207 862 39ZM616 143Q789 143 869 288T950 733Q950 1036 869 1178T618 1321Q281
1321 281 733Q281 143 616 143Z" />
<glyph unicode="R" glyph-name="R" d="M373 604V0H186V1462H543Q1063 1462 1063 1047Q1063 760 774 655L1171 0H952L602 604H373ZM373 762H537Q708 762 789 828T870 1038Q870 1179 790 1241T532 1303H373V762Z" />
<glyph unicode="S" glyph-name="S" d="M141 49V227Q352 141 555 141Q905 141 905 381Q905 485 835 541T549 674Q341 747 251 848T160 1112Q160 1286 288 1384T641 1483Q870 1483 1057 1405L993 1241Q800 1319 633 1319Q340 1319 340 1110Q340 1008 405 946T676
813Q922 725 1004 632T1087 391Q1087 199 949 90T555 -20Q290 -20 141 49Z" />
<glyph unicode="T" glyph-name="T" d="M707 0H520V1298H102V1462H1124V1298H707V0Z" />
<glyph unicode="U" glyph-name="U" d="M1104 1464V516Q1104 256 978 118T608 -20Q125 -20 125 520V1462H311V530Q311 143 618 143Q913 143 918 532V1464H1104Z" />
<glyph unicode="V" glyph-name="V" d="M997 1462H1196L707 0H520L33 1462H229L524 535Q565 408 612 201Q643 346 705 541L997 1462Z" />
<glyph unicode="W" glyph-name="W" d="M528 1008H705L850 487Q911 268 922 180Q924 233 987 799L1057 1462H1227L1040 0H850L682 580Q642 718 616 862Q584 689 551 578L395 0H205L2 1462H172L260 799Q283 623 300 421T317 180Q341 331 387 492L528 1008Z" />
<glyph unicode="X" glyph-name="X" d="M1174 0H963L608 635L242 0H53L506 764L84 1462H283L614 903L948 1462H1139L717 770L1174 0Z" />
<glyph unicode="Y" glyph-name="Y" d="M612 723L993 1462H1194L707 569V0H520V559L33 1462H236L612 723Z" />
<glyph unicode="Z" glyph-name="Z" d="M1124 0H102V145L895 1296H123V1462H1104V1317L311 166H1124V0Z" />
<glyph unicode="[" glyph-name="bracketleft" d="M940 -324H412V1462H940V1313H594V-174H940V-324Z" />
<glyph unicode="\" glyph-name="backslash" d="M389 1462L1016 0H838L211 1462H389Z" />
<glyph unicode="]" glyph-name="bracketright" d="M289 -174H635V1313H289V1462H817V-324H289V-174Z" />
<glyph unicode="^" glyph-name="asciicircum" d="M111 549L535 1473H637L1118 549H956L588 1284L270 549H111Z" />
<glyph unicode="_" glyph-name="underscore" d="M1243 -324H-16V-184H1243V-324Z" />
<glyph unicode="`" glyph-name="grave" d="M811 1241H690Q524 1383 418 1548V1569H637Q723 1391 811 1268V1241Z" />
<glyph unicode="a" glyph-name="a" d="M895 0L858 152H850Q773 55 692 18T483 -20Q320 -20 228 66T135 307Q135 639 645 655L848 662V731Q848 967 604 967Q457 967 276 885L213 1022Q409 1118 596 1118Q823 1118 924 1031T1026 752V0H895ZM846 537L684 530Q488
522 406 469T324 305Q324 127 524 127Q671 127 758 208T846 438V537Z" />
<glyph unicode="b" glyph-name="b" d="M340 139H328L291 0H158V1556H340V1180Q340 1099 332 954H340Q447 1118 662 1118Q863 1118 977 969T1092 551Q1092 281 977 131T662 -20Q455 -20 340 139ZM340 551Q340 324 409 228T631 131Q903 131 903 553Q903 967 629
967Q474 967 407 873T340 551Z" />
<glyph unicode="c" glyph-name="c" d="M1061 1059L999 901Q849 958 731 958Q360 958 360 545Q360 139 721 139Q878 139 1042 201V41Q908 -20 713 -20Q456 -20 314 125T172 543Q172 824 317 971T725 1118Q903 1118 1061 1059Z" />
<glyph unicode="d" glyph-name="d" d="M897 147H889Q776 -20 567 -20Q366 -20 252 129T137 547Q137 817 252 967T567 1118Q773 1118 889 958H901Q889 1087 889 1120V1556H1071V0H924L897 147ZM889 506V547Q889 774 820 870T598 967Q326 967 326 545Q326 131 600
131Q752 131 818 219T889 506Z" />
<glyph unicode="e" glyph-name="e" d="M1096 514H322Q330 139 666 139Q861 139 1036 215V55Q870 -20 672 -20Q427 -20 280 129T133 541Q133 807 268 962T631 1118Q843 1118 969 984T1096 627V514ZM326 662H899Q899 967 627 967Q352 967 326 662Z" />
<glyph unicode="f" glyph-name="f" d="M1044 961H655V0H473V961H156V1071L473 1104V1200Q473 1393 563 1480T862 1567Q991 1567 1114 1532L1073 1389Q969 1417 866 1417Q743 1417 699 1367T655 1202V1098H1044V961Z" />
<glyph unicode="g" glyph-name="g" d="M1126 1098V985L930 958Q995 873 995 745Q995 584 889 489T592 393Q537 393 506 399Q406 343 406 266Q406 182 567 182H754Q928 182 1020 105T1112 -115Q1112 -492 547 -492Q329 -492 216 -412T102 -186Q102 26 342 84Q246
131 246 238Q246 350 379 430Q290 467 239 552T188 739Q188 921 294 1019T598 1118Q684 1118 748 1098H1126ZM594 518Q817 518 817 748Q817 987 592 987Q367 987 367 745Q367 518 594 518ZM692 18H504Q274 18 274 -180Q274 -354 545 -354Q940 -354 940 -131Q940
-43 890 -13T692 18Z" />
<glyph unicode="h" glyph-name="h" d="M887 0V707Q887 967 649 967Q342 967 342 569V0H160V1556H342V1094L334 950H344Q447 1118 680 1118Q1069 1118 1069 717V0H887Z" />
<glyph unicode="i" glyph-name="i" d="M633 1550Q739 1550 739 1436Q739 1378 708 1350T633 1321Q526 1321 526 1436Q526 1550 633 1550ZM541 954L272 975V1098H723V143L1075 123V0H197V123L541 143V954Z" />
<glyph unicode="j" glyph-name="j" d="M743 1550Q850 1550 850 1436Q850 1321 743 1321Q637 1321 637 1436Q637 1550 743 1550ZM135 -457V-303Q269 -342 424 -342Q541 -342 606 -285T672 -127V954L252 975V1098H854V-117Q854 -297 741 -394T422 -492Q258 -492 135 -457Z" />
<glyph unicode="k" glyph-name="k" d="M383 553L518 705L913 1098H1135L641 623L1163 0H950L524 504L395 422V0H215V1556H395V842L379 553H383Z" />
<glyph unicode="l" glyph-name="l" d="M532 1413L264 1434V1556H715V143L1067 123V0H188V123L532 143V1413Z" />
<glyph unicode="m" glyph-name="m" d="M977 0V707Q977 853 951 910T862 967Q775 967 736 884T696 606V0H535V707Q535 967 410 967Q326 967 290 888T254 569V0H92V1098H219L246 950H256Q323 1118 457 1118Q620 1118 670 936H676Q752 1118 895 1118Q1023 1118 1081
1026T1139 717V0H977Z" />
<glyph unicode="n" glyph-name="n" d="M887 0V707Q887 967 649 967Q342 967 342 569V0H160V1098H307L334 950H344Q447 1118 680 1118Q1069 1118 1069 717V0H887Z" />
<glyph unicode="o" glyph-name="o" d="M610 -20Q394 -20 255 135T115 551Q115 814 250 966T616 1118Q834 1118 973 963T1112 551Q1112 286 975 133T610 -20ZM614 131Q924 131 924 551Q924 967 612 967Q303 967 303 551Q303 131 614 131Z" />
<glyph unicode="p" glyph-name="p" d="M340 139H328Q340 10 340 -23V-492H158V1098H305L332 950H340Q450 1118 662 1118Q863 1118 977 969T1092 551Q1092 281 977 131T662 -20Q455 -20 340 139ZM340 592V551Q340 324 409 228T631 131Q903 131 903 553Q903 967
629 967Q477 967 411 879T340 592Z" />
<glyph unicode="q" glyph-name="q" d="M889 950H897L924 1098H1071V-492H889V-23Q889 18 901 147H889Q776 -20 567 -20Q366 -20 252 129T137 547Q137 817 252 967T567 1118Q774 1118 889 950ZM889 506V547Q889 774 820 870T598 967Q326 967 326 545Q326 131 600
131Q752 131 818 219T889 506Z" />
<glyph unicode="r" glyph-name="r" d="M1059 1073L1010 907Q887 952 786 952Q623 952 535 860T446 592V0H264V1098H412L434 897H442Q518 1016 605 1067T819 1118Q937 1118 1059 1073Z" />
<glyph unicode="s" glyph-name="s" d="M203 49V215Q396 129 573 129Q848 129 848 291Q848 348 799 390T573 496Q340 583 280 655T219 827Q219 963 330 1040T639 1118Q837 1118 1008 1044L948 895Q766 967 629 967Q393 967 393 834Q393 773 443 737T676 635Q887
558 956 484T1026 301Q1026 151 909 66T578 -20Q330 -20 203 49Z" />
<glyph unicode="t" glyph-name="t" d="M1020 150V12Q890 -20 768 -20Q406 -20 406 324V961H139V1055L406 1104L483 1391H588V1098H1026V961H588V324Q588 129 780 129Q873 129 1020 150Z" />
<glyph unicode="u" glyph-name="u" d="M922 0L895 147H885Q780 -20 551 -20Q160 -20 160 381V1098H342V391Q342 131 578 131Q739 131 813 223T887 528V1098H1069V0H922Z" />
<glyph unicode="v" glyph-name="v" d="M498 0L82 1098H270L510 446Q595 215 610 121H616Q623 165 717 446L956 1098H1145L729 0H498Z" />
<glyph unicode="w" glyph-name="w" d="M813 0L682 596L614 926H608L543 592L408 0H219L-4 1098H158L256 555Q290 369 313 162H319Q350 347 387 520L520 1098H713L840 520Q883 325 907 162H913Q944 404 973 555L1075 1098H1233L1008 0H813Z" />
<glyph unicode="x" glyph-name="x" d="M510 563L117 1098H324L614 688L905 1098H1112L717 563L1130 0H924L614 436L303 0H96L510 563Z" />
<glyph unicode="y" glyph-name="y" d="M82 1098H270L532 444Q614 239 621 154H627Q650 266 717 446L956 1098H1145L670 -143Q603 -317 514 -404T268 -492Q182 -492 100 -475V-330Q162 -342 236 -342Q332 -342 385 -301T481 -160L539 -10L82 1098Z" />
<glyph unicode="z" glyph-name="z" d="M1044 0H182V125L842 961H215V1098H1026V952L379 137H1044V0Z" />
<glyph unicode="{" glyph-name="braceleft" d="M745 -16Q745 -97 801 -134T1001 -174V-324Q563 -318 563 -31V303Q563 492 225 492V647Q563 647 563 836V1169Q563 1456 1001 1462V1313Q857 1311 801 1274T745 1155V823Q745 616 512 575V563Q745 522 745 315V-16Z" />
<glyph unicode="|" glyph-name="bar" d="M539 1556H688V-492H539V1556Z" />
<glyph unicode="}" glyph-name="braceright" d="M483 315Q483 522 717 563V575Q483 616 483 823V1155Q483 1236 427 1274T227 1313V1462Q666 1456 666 1169V836Q666 647 1004 647V492Q666 492 666 303V-31Q666 -318 227 -324V-174Q370 -173 426 -135T483 -16V315Z" />
<glyph unicode="~" glyph-name="asciitilde" d="M152 586V748Q251 856 399 856Q499 856 647 793Q777 737 848 737Q956 737 1075 858V696Q976 588 827 588Q727 588 580 651Q449 707 379 707Q271 707 152 586Z" />
<glyph unicode="&#xa0;" glyph-name="nbspace" />
<glyph unicode="&#xa1;" glyph-name="exclamdown" d="M614 840Q487 840 487 979Q487 1118 614 1118Q741 1118 741 979Q741 840 614 840ZM553 676H674L725 -373H502L553 676Z" />
<glyph unicode="&#xa2;" glyph-name="cent" d="M743 1319Q905 1316 1061 1260L999 1102Q849 1159 731 1159Q360 1159 360 745Q360 340 721 340Q874 340 1042 401V242Q920 183 743 180V-20H606V186Q172 255 172 743Q172 1237 606 1311V1483H743V1319Z" />
<glyph unicode="&#xa3;" glyph-name="sterling" d="M1063 1401L997 1257Q856 1329 725 1329Q502 1329 502 1083V788H879V651H502V440Q502 244 362 166H1110V0H119V154Q319 203 319 438V651H121V788H319V1112Q319 1280 427 1380T717 1481Q909 1481 1063 1401Z" />
<glyph unicode="&#xa4;" glyph-name="currency" d="M303 936L174 1065L272 1163L399 1034Q500 1102 614 1102Q728 1102 827 1034L956 1163L1055 1067L926 938Q993 837 993 723Q993 603 926 508L1053 381L956 285L827 412Q728 346 614 346Q496 346 399 414L272
287L176 383L303 510Q238 605 238 723Q238 837 303 936ZM614 483Q714 483 786 553T858 723Q858 824 787 895T614 967Q515 967 445 896T375 723Q375 623 445 553T614 483Z" />
<glyph unicode="&#xa5;" glyph-name="yen" d="M612 723L958 1462H1149L764 694H1004V557H702V399H1004V262H702V0H524V262H223V399H524V557H223V694H457L78 1462H270L612 723Z" />
<glyph unicode="&#xa6;" glyph-name="brokenbar" d="M539 1556H688V776H539V1556ZM539 289H688V-492H539V289Z" />
<glyph unicode="&#xa7;" glyph-name="section" d="M420 1067Q260 1147 260 1303Q260 1423 364 1495T641 1567Q803 1567 967 1495L911 1356Q755 1423 635 1423Q434 1423 434 1307Q434 1253 483 1214T680 1114Q837 1052 911 975T985 784Q985 602 840 514Q985 434
985 289Q985 151 875 71T567 -10Q363 -10 244 55V213Q415 131 567 131Q807 131 807 272Q807 329 764 369T569 471Q372 555 316 630T260 809Q260 988 420 1067ZM713 573Q827 649 827 758Q827 847 754 902T547 1006Q414 958 414 831Q414 758 470 705T678 588L713
573Z" />
<glyph unicode="&#xa8;" glyph-name="dieresis" d="M426 1497Q522 1497 522 1395Q522 1292 426 1292Q330 1292 330 1395Q330 1497 426 1497ZM801 1497Q897 1497 897 1395Q897 1292 801 1292Q705 1292 705 1395Q705 1497 801 1497Z" />
<glyph unicode="&#xa9;" glyph-name="copyright" d="M614 1483Q900 1483 1061 1279T1223 731Q1223 386 1061 183T614 -20Q328 -20 167 183T6 731Q6 1074 166 1278T614 1483ZM614 88Q854 88 984 258T1114 731Q1114 1033 984 1203T614 1374Q374 1374 245 1203T115
731Q115 430 244 259T614 88ZM874 453V322Q767 272 653 272Q458 272 353 395T248 733Q248 942 358 1065T659 1188Q787 1188 913 1126L852 999Q742 1053 659 1053Q538 1053 473 968T408 731Q408 408 659 408Q753 408 874 453Z" />
<glyph unicode="&#xaa;" glyph-name="ordfeminine" d="M799 797L766 915Q662 784 498 784Q276 784 276 989Q276 1105 361 1156T637 1214L762 1219V1229Q762 1362 610 1362Q498 1362 365 1311L324 1421Q462 1479 618 1479Q909 1479 909 1241V797H799ZM662 1116Q548
1114 488 1088T428 987Q428 897 532 897Q637 897 699 952T762 1098V1118L662 1116Z" />
<glyph unicode="&#xab;" glyph-name="guillemotleft" d="M197 553L506 967L623 889L385 541L623 193L506 115L197 526V553ZM604 553L913 967L1030 889L793 541L1030 193L913 115L604 526V553Z" />
<glyph unicode="&#xac;" glyph-name="logicalnot" d="M1075 797V262H926V647H152V797H1075Z" />
<glyph unicode="&#xad;" glyph-name="uni00AD" d="M285 465V633H944V465H285Z" />
<glyph unicode="&#xae;" glyph-name="registered" d="M614 1483Q900 1483 1061 1279T1223 731Q1223 386 1061 183T614 -20Q328 -20 167 183T6 731Q6 1074 166 1278T614 1483ZM614 88Q854 88 984 258T1114 731Q1114 1033 984 1203T614 1374Q374 1374 245 1203T115
731Q115 430 244 259T614 88ZM748 680L985 285H807L600 637H506V285H348V1178H582Q907 1178 907 913Q907 750 748 680ZM506 768H578Q748 768 748 909Q748 983 706 1012T575 1042H506V768Z" />
<glyph unicode="&#xaf;" glyph-name="overscore" d="M1249 1556H-20V1696H1249V1556Z" />
<glyph unicode="&#xb0;" glyph-name="degree" d="M614 1483Q743 1483 836 1390T930 1167Q930 1038 837 946T614 854Q483 854 391 946T299 1167Q299 1296 391 1389T614 1483ZM614 977Q693 977 750 1033T807 1167Q807 1248 750 1305T614 1362Q535 1362 479 1305T422
1167Q422 1089 478 1033T614 977Z" />
<glyph unicode="&#xb1;" glyph-name="plusminus" d="M539 647H152V797H539V1186H688V797H1075V647H688V262H539V647ZM152 0V150H1075V0H152Z" />
<glyph unicode="&#xb2;" glyph-name="twosuperior" d="M879 672H348V774L535 973Q646 1091 676 1141T707 1249Q707 1364 596 1364Q515 1364 432 1288L354 1374Q471 1477 602 1477Q720 1477 785 1417T850 1253Q850 1187 815 1119T651 922L516 786H879V672Z" />
<glyph unicode="&#xb3;" glyph-name="threesuperior" d="M670 1085Q846 1046 846 899Q846 783 772 719T557 655Q426 655 342 705V829Q452 764 545 764Q694 764 694 901Q694 1026 547 1026H475V1130H545Q668 1130 668 1257Q668 1368 571 1368Q500 1368 410 1298L344
1384Q455 1477 582 1477Q691 1477 755 1423T819 1274Q819 1135 670 1085Z" />
<glyph unicode="&#xb4;" glyph-name="acute" d="M418 1268Q512 1401 592 1569H811V1548Q699 1375 539 1241H418V1268Z" />
<glyph unicode="&#xb5;" glyph-name="mu" d="M362 391Q362 131 580 131Q728 131 797 222T866 528V1098H1049V0H901L874 147H864Q768 -20 569 -20Q430 -20 356 68Q362 -85 362 -172V-492H180V1098H362V391Z" />
<glyph unicode="&#xb6;" glyph-name="paragraph" d="M1079 -260H958V1397H752V-260H631V559Q570 541 485 541Q66 541 66 1042Q66 1301 174 1428T516 1556H1079V-260Z" />
<glyph unicode="&#xb7;" glyph-name="middot" d="M614 862Q741 862 741 723Q741 584 614 584Q487 584 487 723Q487 862 614 862Z" />
<glyph unicode="&#xb8;" glyph-name="cedilla" d="M428 -483V-375Q461 -381 508 -381Q659 -381 659 -289Q659 -215 487 -176L578 0H698L641 -115Q801 -152 801 -287Q801 -492 510 -492Q476 -492 428 -483Z" />
<glyph unicode="&#xb9;" glyph-name="onesuperior" d="M586 1460H721V672H575V1137Q575 1206 584 1337Q543 1293 510 1272L440 1221L367 1309L586 1460Z" />
<glyph unicode="&#xba;" glyph-name="ordmasculine" d="M612 784Q468 784 375 877T281 1133Q281 1295 371 1387T616 1479Q761 1479 854 1387T948 1133Q948 968 856 876T612 784ZM614 903Q795 903 795 1133Q795 1358 614 1358Q432 1358 432 1133Q432 903 614 903Z" />
<glyph unicode="&#xbb;" glyph-name="guillemotright" d="M1030 526L721 115L604 193L842 541L604 889L721 967L1030 553V526ZM623 526L313 115L197 193L434 541L197 889L313 967L623 553V526Z" />
<glyph unicode="&#xbc;" glyph-name="onequarter" d="M241 1460H376V672H230V1137Q230 1206 239 1337Q198 1293 165 1272L95 1221L22 1309L241 1460ZM1057 1462L328 0H170L899 1462H1057ZM1208 175H1124V1H981V175H606V273L983 796H1124V288H1208V175ZM981 288V464Q981
546 987 636Q947 563 907 505L751 288H981Z" />
<glyph unicode="&#xbd;" glyph-name="onehalf" d="M222 1460H357V672H211V1137Q211 1206 220 1337Q179 1293 146 1272L76 1221L3 1309L222 1460ZM1248 1462L519 0H361L1090 1462H1248ZM1225 1H694V103L881 302Q992 420 1022 470T1053 578Q1053 693 942 693Q861
693 778 617L700 703Q817 806 948 806Q1066 806 1131 746T1196 582Q1196 516 1161 448T997 251L862 115H1225V1Z" />
<glyph unicode="&#xbe;" glyph-name="threequarters" d="M349 1085Q525 1046 525 899Q525 783 451 719T236 655Q105 655 21 705V829Q131 764 224 764Q373 764 373 901Q373 1026 226 1026H154V1130H224Q347 1130 347 1257Q347 1368 250 1368Q179 1368 89 1298L23
1384Q134 1477 261 1477Q370 1477 434 1423T498 1274Q498 1135 349 1085ZM1110 1462L381 0H223L952 1462H1110ZM1229 175H1145V1H1002V175H627V273L1004 796H1145V288H1229V175ZM1002 288V464Q1002 546 1008 636Q968 563 928 505L772 288H1002Z" />
<glyph unicode="&#xbf;" glyph-name="questiondown" d="M674 840Q547 840 547 979Q547 1118 674 1118Q801 1118 801 979Q801 840 674 840ZM762 676V639Q762 520 718 446T555 287Q426 190 384 132T342 -27Q342 -120 416 -176T623 -233Q804 -233 993 -143L1055 -287Q836
-393 633 -393Q416 -393 292 -296T168 -35Q168 99 221 182T418 373Q537 460 569 513T602 657V676H762Z" />
<glyph unicode="&#xc0;" glyph-name="Agrave" d="M1004 0L860 453H369L223 0H33L516 1468H711L1196 0H1004ZM807 618L674 1042Q635 1166 612 1268Q592 1169 566 1085L422 618H807ZM734 1579H613Q447 1721 341 1886V1907H560Q646 1729 734 1606V1579Z" />
<glyph unicode="&#xc1;" glyph-name="Aacute" d="M1004 0L860 453H369L223 0H33L516 1468H711L1196 0H1004ZM807 618L674 1042Q635 1166 612 1268Q592 1169 566 1085L422 618H807ZM520 1606Q614 1739 694 1907H913V1886Q801 1713 641 1579H520V1606Z" />
<glyph unicode="&#xc2;" glyph-name="Acircumflex" d="M1004 0L860 453H369L223 0H33L516 1468H711L1196 0H1004ZM807 618L674 1042Q635 1166 612 1268Q592 1169 566 1085L422 618H807ZM946 1579H825Q740 1635 614 1765Q481 1629 403 1579H283V1606Q308 1635 342
1673Q481 1828 518 1907H711Q748 1828 887 1673L946 1606V1579Z" />
<glyph unicode="&#xc3;" glyph-name="Atilde" d="M1004 0L860 453H369L223 0H33L516 1468H711L1196 0H1004ZM807 618L674 1042Q635 1166 612 1268Q592 1169 566 1085L422 618H807ZM357 1579H253Q278 1843 464 1843Q522 1843 625 1787Q727 1731 761 1731Q841 1731
867 1845H972Q945 1581 761 1581Q704 1581 604 1638Q504 1694 464 1694Q382 1694 357 1579Z" />
<glyph unicode="&#xc4;" glyph-name="Adieresis" d="M1004 0L860 453H369L223 0H33L516 1468H711L1196 0H1004ZM807 618L674 1042Q635 1166 612 1268Q592 1169 566 1085L422 618H807ZM426 1835Q522 1835 522 1733Q522 1630 426 1630Q330 1630 330 1733Q330 1835
426 1835ZM801 1835Q897 1835 897 1733Q897 1630 801 1630Q705 1630 705 1733Q705 1835 801 1835Z" />
<glyph unicode="&#xc5;" glyph-name="Aring" d="M1004 0L860 453H369L223 0H33L516 1468H711L1196 0H1004ZM807 618L674 1042Q635 1166 612 1268Q592 1169 566 1085L422 618H807ZM610 1366Q508 1366 448 1424T387 1581Q387 1680 447 1738T610 1796Q711 1796 775
1737T840 1583Q840 1485 777 1426T610 1366ZM610 1694Q561 1694 530 1664T498 1581Q498 1468 610 1468Q660 1468 691 1498T723 1581Q723 1634 692 1664T610 1694Z" />
<glyph unicode="&#xc6;" glyph-name="AE" d="M1210 0H557V453H268L172 0H0L338 1462H1210V1298H733V846H1171V684H733V164H1210V0ZM305 618H557V1298H451L305 618Z" />
<glyph unicode="&#xc7;" glyph-name="Ccedilla" d="M1124 201V39Q978 -20 766 -20Q457 -20 293 176T129 733Q129 1079 308 1281T797 1483Q1017 1483 1180 1397L1102 1241Q948 1319 797 1319Q582 1319 454 1161T326 731Q326 444 446 294T797 143Q927 143 1124 201ZM508
-483V-375Q541 -381 588 -381Q739 -381 739 -289Q739 -215 567 -176L658 0H778L721 -115Q881 -152 881 -287Q881 -492 590 -492Q556 -492 508 -483Z" />
<glyph unicode="&#xc8;" glyph-name="Egrave" d="M1059 0H217V1462H1059V1298H403V846H1020V684H403V164H1059V0ZM738 1579H617Q451 1721 345 1886V1907H564Q650 1729 738 1606V1579Z" />
<glyph unicode="&#xc9;" glyph-name="Eacute" d="M1059 0H217V1462H1059V1298H403V846H1020V684H403V164H1059V0ZM481 1606Q575 1739 655 1907H874V1886Q762 1713 602 1579H481V1606Z" />
<glyph unicode="&#xca;" glyph-name="Ecircumflex" d="M1059 0H217V1462H1059V1298H403V846H1020V684H403V164H1059V0ZM981 1579H860Q775 1635 649 1765Q516 1629 438 1579H318V1606Q343 1635 377 1673Q516 1828 553 1907H746Q783 1828 922 1673L981 1606V1579Z" />
<glyph unicode="&#xcb;" glyph-name="Edieresis" d="M1059 0H217V1462H1059V1298H403V846H1020V684H403V164H1059V0ZM451 1835Q547 1835 547 1733Q547 1630 451 1630Q355 1630 355 1733Q355 1835 451 1835ZM826 1835Q922 1835 922 1733Q922 1630 826 1630Q730
1630 730 1733Q730 1835 826 1835Z" />
<glyph unicode="&#xcc;" glyph-name="Igrave" d="M1001 0H225V123L520 143V1319L225 1339V1462H1001V1339L707 1319V143L1001 123V0ZM703 1579H582Q416 1721 310 1886V1907H529Q615 1729 703 1606V1579Z" />
<glyph unicode="&#xcd;" glyph-name="Iacute" d="M1001 0H225V123L520 143V1319L225 1339V1462H1001V1339L707 1319V143L1001 123V0ZM537 1606Q631 1739 711 1907H930V1886Q818 1713 658 1579H537V1606Z" />
<glyph unicode="&#xce;" glyph-name="Icircumflex" d="M1001 0H225V123L520 143V1319L225 1339V1462H1001V1339L707 1319V143L1001 123V0ZM946 1579H825Q740 1635 614 1765Q481 1629 403 1579H283V1606Q308 1635 342 1673Q481 1828 518 1907H711Q748 1828 887
1673L946 1606V1579Z" />
<glyph unicode="&#xcf;" glyph-name="Idieresis" d="M1001 0H225V123L520 143V1319L225 1339V1462H1001V1339L707 1319V143L1001 123V0ZM428 1835Q524 1835 524 1733Q524 1630 428 1630Q332 1630 332 1733Q332 1835 428 1835ZM803 1835Q899 1835 899 1733Q899
1630 803 1630Q707 1630 707 1733Q707 1835 803 1835Z" />
<glyph unicode="&#xd0;" glyph-name="Eth" d="M135 0V659H0V821H135V1462H477Q794 1462 970 1273T1147 745Q1147 384 964 192T436 0H135ZM322 1303V821H702V659H322V160H418Q950 160 950 739Q950 1303 457 1303H322Z" />
<glyph unicode="&#xd1;" glyph-name="Ntilde" d="M1092 0H877L297 1210H289Q307 933 307 793V0H135V1462H348L926 258H932Q918 561 918 662V1462H1092V0ZM362 1579H258Q283 1843 469 1843Q527 1843 630 1787Q732 1731 766 1731Q846 1731 872 1845H977Q950 1581
766 1581Q709 1581 609 1638Q509 1694 469 1694Q387 1694 362 1579Z" />
<glyph unicode="&#xd2;" glyph-name="Ograve" d="M616 -20Q84 -20 84 735Q84 1485 618 1485Q874 1485 1010 1290T1147 733Q1147 372 1009 176T616 -20ZM616 143Q789 143 869 288T950 733Q950 1036 869 1178T618 1321Q281 1321 281 733Q281 143 616 143ZM730 1579H609Q443
1721 337 1886V1907H556Q642 1729 730 1606V1579Z" />
<glyph unicode="&#xd3;" glyph-name="Oacute" d="M616 -20Q84 -20 84 735Q84 1485 618 1485Q874 1485 1010 1290T1147 733Q1147 372 1009 176T616 -20ZM616 143Q789 143 869 288T950 733Q950 1036 869 1178T618 1321Q281 1321 281 733Q281 143 616 143ZM508 1606Q602
1739 682 1907H901V1886Q789 1713 629 1579H508V1606Z" />
<glyph unicode="&#xd4;" glyph-name="Ocircumflex" d="M616 -20Q84 -20 84 735Q84 1485 618 1485Q874 1485 1010 1290T1147 733Q1147 372 1009 176T616 -20ZM616 143Q789 143 869 288T950 733Q950 1036 869 1178T618 1321Q281 1321 281 733Q281 143 616 143ZM946
1579H825Q740 1635 614 1765Q481 1629 403 1579H283V1606Q308 1635 342 1673Q481 1828 518 1907H711Q748 1828 887 1673L946 1606V1579Z" />
<glyph unicode="&#xd5;" glyph-name="Otilde" d="M616 -20Q84 -20 84 735Q84 1485 618 1485Q874 1485 1010 1290T1147 733Q1147 372 1009 176T616 -20ZM616 143Q789 143 869 288T950 733Q950 1036 869 1178T618 1321Q281 1321 281 733Q281 143 616 143ZM366 1579H262Q287
1843 473 1843Q531 1843 634 1787Q736 1731 770 1731Q850 1731 876 1845H981Q954 1581 770 1581Q713 1581 613 1638Q513 1694 473 1694Q391 1694 366 1579Z" />
<glyph unicode="&#xd6;" glyph-name="Odieresis" d="M616 -20Q84 -20 84 735Q84 1485 618 1485Q874 1485 1010 1290T1147 733Q1147 372 1009 176T616 -20ZM616 143Q789 143 869 288T950 733Q950 1036 869 1178T618 1321Q281 1321 281 733Q281 143 616 143ZM428
1835Q524 1835 524 1733Q524 1630 428 1630Q332 1630 332 1733Q332 1835 428 1835ZM803 1835Q899 1835 899 1733Q899 1630 803 1630Q707 1630 707 1733Q707 1835 803 1835Z" />
<glyph unicode="&#xd7;" glyph-name="multiply" d="M508 723L190 1042L295 1147L612 829L934 1147L1038 1044L717 723L1036 403L934 301L612 618L295 303L193 406L508 723Z" />
<glyph unicode="&#xd8;" glyph-name="Oslash" d="M309 74L217 -76L80 2L201 199Q84 383 84 735Q84 1485 618 1485Q804 1485 928 1380L1020 1532L1157 1454L1032 1253Q1147 1065 1147 733Q1147 372 1009 176T616 -20Q427 -20 309 74ZM319 391L834 1227Q754 1321
618 1321Q281 1321 281 733Q281 521 319 391ZM915 1061L403 229Q483 143 616 143Q789 143 869 288T950 733Q950 942 915 1061Z" />
<glyph unicode="&#xd9;" glyph-name="Ugrave" d="M1104 1464V516Q1104 256 978 118T608 -20Q125 -20 125 520V1462H311V530Q311 143 618 143Q913 143 918 532V1464H1104ZM742 1579H621Q455 1721 349 1886V1907H568Q654 1729 742 1606V1579Z" />
<glyph unicode="&#xda;" glyph-name="Uacute" d="M1104 1464V516Q1104 256 978 118T608 -20Q125 -20 125 520V1462H311V530Q311 143 618 143Q913 143 918 532V1464H1104ZM494 1606Q588 1739 668 1907H887V1886Q775 1713 615 1579H494V1606Z" />
<glyph unicode="&#xdb;" glyph-name="Ucircumflex" d="M1104 1464V516Q1104 256 978 118T608 -20Q125 -20 125 520V1462H311V530Q311 143 618 143Q913 143 918 532V1464H1104ZM946 1579H825Q740 1635 614 1765Q481 1629 403 1579H283V1606Q308 1635 342 1673Q481
1828 518 1907H711Q748 1828 887 1673L946 1606V1579Z" />
<glyph unicode="&#xdc;" glyph-name="Udieresis" d="M1104 1464V516Q1104 256 978 118T608 -20Q125 -20 125 520V1462H311V530Q311 143 618 143Q913 143 918 532V1464H1104ZM428 1835Q524 1835 524 1733Q524 1630 428 1630Q332 1630 332 1733Q332 1835 428 1835ZM803
1835Q899 1835 899 1733Q899 1630 803 1630Q707 1630 707 1733Q707 1835 803 1835Z" />
<glyph unicode="&#xdd;" glyph-name="Yacute" d="M612 723L993 1462H1194L707 569V0H520V559L33 1462H236L612 723ZM494 1606Q588 1739 668 1907H887V1886Q775 1713 615 1579H494V1606Z" />
<glyph unicode="&#xde;" glyph-name="Thorn" d="M362 317V0H176V1462H362V1210H580Q1094 1210 1094 782Q1094 563 956 440T553 317H362ZM362 475H532Q730 475 815 547T901 772Q901 1051 563 1051H362V475Z" />
<glyph unicode="&#xdf;" glyph-name="germandbls" d="M479 49V215Q622 129 756 129Q969 129 969 303Q969 384 924 435T780 547Q657 625 607 686T557 834Q557 951 686 1057Q815 1163 815 1253Q815 1417 588 1417Q346 1417 346 1202V0H164V1200Q164 1567 588 1567Q782
1567 890 1488T999 1260Q999 1128 866 1011Q782 937 758 906T733 842Q733 803 762 773T913 662Q1057 567 1104 489T1151 313Q1151 151 1051 66T768 -20Q586 -20 479 49Z" />
<glyph unicode="&#xe0;" glyph-name="agrave" d="M895 0L858 152H850Q773 55 692 18T483 -20Q320 -20 228 66T135 307Q135 639 645 655L848 662V731Q848 967 604 967Q457 967 276 885L213 1022Q409 1118 596 1118Q823 1118 924 1031T1026 752V0H895ZM846 537L684
530Q488 522 406 469T324 305Q324 127 524 127Q671 127 758 208T846 438V537ZM982 1241H861Q695 1383 589 1548V1569H808Q894 1391 982 1268V1241Z" />
<glyph unicode="&#xe1;" glyph-name="aacute" d="M895 0L858 152H850Q773 55 692 18T483 -20Q320 -20 228 66T135 307Q135 639 645 655L848 662V731Q848 967 604 967Q457 967 276 885L213 1022Q409 1118 596 1118Q823 1118 924 1031T1026 752V0H895ZM846 537L684
530Q488 522 406 469T324 305Q324 127 524 127Q671 127 758 208T846 438V537ZM502 1268Q596 1401 676 1569H895V1548Q783 1375 623 1241H502V1268Z" />
<glyph unicode="&#xe2;" glyph-name="acircumflex" d="M895 0L858 152H850Q773 55 692 18T483 -20Q320 -20 228 66T135 307Q135 639 645 655L848 662V731Q848 967 604 967Q457 967 276 885L213 1022Q409 1118 596 1118Q823 1118 924 1031T1026 752V0H895ZM846
537L684 530Q488 522 406 469T324 305Q324 127 524 127Q671 127 758 208T846 438V537ZM954 1241H833Q748 1297 622 1427Q489 1291 411 1241H291V1268Q316 1297 350 1335Q489 1490 526 1569H719Q756 1490 895 1335L954 1268V1241Z" />
<glyph unicode="&#xe3;" glyph-name="atilde" d="M895 0L858 152H850Q773 55 692 18T483 -20Q320 -20 228 66T135 307Q135 639 645 655L848 662V731Q848 967 604 967Q457 967 276 885L213 1022Q409 1118 596 1118Q823 1118 924 1031T1026 752V0H895ZM846 537L684
530Q488 522 406 469T324 305Q324 127 524 127Q671 127 758 208T846 438V537ZM368 1241H264Q289 1505 475 1505Q533 1505 636 1449Q738 1393 772 1393Q852 1393 878 1507H983Q956 1243 772 1243Q715 1243 615 1300Q515 1356 475 1356Q393 1356 368 1241Z" />
<glyph unicode="&#xe4;" glyph-name="adieresis" d="M895 0L858 152H850Q773 55 692 18T483 -20Q320 -20 228 66T135 307Q135 639 645 655L848 662V731Q848 967 604 967Q457 967 276 885L213 1022Q409 1118 596 1118Q823 1118 924 1031T1026 752V0H895ZM846 537L684
530Q488 522 406 469T324 305Q324 127 524 127Q671 127 758 208T846 438V537ZM438 1497Q534 1497 534 1395Q534 1292 438 1292Q342 1292 342 1395Q342 1497 438 1497ZM813 1497Q909 1497 909 1395Q909 1292 813 1292Q717 1292 717 1395Q717 1497 813 1497Z" />
<glyph unicode="&#xe5;" glyph-name="aring" d="M895 0L858 152H850Q773 55 692 18T483 -20Q320 -20 228 66T135 307Q135 639 645 655L848 662V731Q848 967 604 967Q457 967 276 885L213 1022Q409 1118 596 1118Q823 1118 924 1031T1026 752V0H895ZM846 537L684
530Q488 522 406 469T324 305Q324 127 524 127Q671 127 758 208T846 438V537ZM865 1241Q763 1241 703 1299T642 1456Q642 1555 702 1613T865 1671Q966 1671 1030 1612T1095 1458Q1095 1360 1032 1301T865 1241ZM865 1569Q816 1569 785 1539T753 1456Q753 1343 865
1343Q915 1343 946 1373T978 1456Q978 1509 947 1539T865 1569Z" />
<glyph unicode="&#xe6;" glyph-name="ae" d="M522 662V731Q522 967 383 967Q276 967 172 885L115 1022Q246 1118 391 1118Q579 1118 637 940Q715 1118 877 1118Q1014 1118 1100 983T1186 627V514H690Q693 322 757 231T926 139Q1037 139 1159 215V53Q1052 -20 918
-20Q696 -20 602 209Q497 -20 301 -20Q186 -20 116 66T45 307Q45 639 373 655L522 662ZM694 662H1010Q1010 803 970 885T858 967Q790 967 745 889T694 662ZM520 537L432 530Q215 513 215 305Q215 222 247 175T334 127Q416 127 468 209T520 438V537Z" />
<glyph unicode="&#xe7;" glyph-name="ccedilla" d="M1061 1059L999 901Q849 958 731 958Q360 958 360 545Q360 139 721 139Q878 139 1042 201V41Q908 -20 713 -20Q456 -20 314 125T172 543Q172 824 317 971T725 1118Q903 1118 1061 1059ZM477 -483V-375Q510 -381
557 -381Q708 -381 708 -289Q708 -215 536 -176L627 0H747L690 -115Q850 -152 850 -287Q850 -492 559 -492Q525 -492 477 -483Z" />
<glyph unicode="&#xe8;" glyph-name="egrave" d="M1096 514H322Q330 139 666 139Q861 139 1036 215V55Q870 -20 672 -20Q427 -20 280 129T133 541Q133 807 268 962T631 1118Q843 1118 969 984T1096 627V514ZM326 662H899Q899 967 627 967Q352 967 326 662ZM1023
1241H902Q736 1383 630 1548V1569H849Q935 1391 1023 1268V1241Z" />
<glyph unicode="&#xe9;" glyph-name="eacute" d="M1096 514H322Q330 139 666 139Q861 139 1036 215V55Q870 -20 672 -20Q427 -20 280 129T133 541Q133 807 268 962T631 1118Q843 1118 969 984T1096 627V514ZM326 662H899Q899 967 627 967Q352 967 326 662ZM500
1268Q594 1401 674 1569H893V1548Q781 1375 621 1241H500V1268Z" />
<glyph unicode="&#xea;" glyph-name="ecircumflex" d="M1096 514H322Q330 139 666 139Q861 139 1036 215V55Q870 -20 672 -20Q427 -20 280 129T133 541Q133 807 268 962T631 1118Q843 1118 969 984T1096 627V514ZM326 662H899Q899 967 627 967Q352 967 326 662ZM962
1241H841Q756 1297 630 1427Q497 1291 419 1241H299V1268Q324 1297 358 1335Q497 1490 534 1569H727Q764 1490 903 1335L962 1268V1241Z" />
<glyph unicode="&#xeb;" glyph-name="edieresis" d="M1096 514H322Q330 139 666 139Q861 139 1036 215V55Q870 -20 672 -20Q427 -20 280 129T133 541Q133 807 268 962T631 1118Q843 1118 969 984T1096 627V514ZM326 662H899Q899 967 627 967Q352 967 326 662ZM444
1497Q540 1497 540 1395Q540 1292 444 1292Q348 1292 348 1395Q348 1497 444 1497ZM819 1497Q915 1497 915 1395Q915 1292 819 1292Q723 1292 723 1395Q723 1497 819 1497Z" />
<glyph unicode="&#xec;" glyph-name="igrave" d="M541 954L272 975V1098H723V143L1075 123V0H197V123L541 143V954ZM982 1241H861Q695 1383 589 1548V1569H808Q894 1391 982 1268V1241Z" />
<glyph unicode="&#xed;" glyph-name="iacute" d="M541 954L272 975V1098H723V143L1075 123V0H197V123L541 143V954ZM531 1268Q625 1401 705 1569H924V1548Q812 1375 652 1241H531V1268Z" />
<glyph unicode="&#xee;" glyph-name="icircumflex" d="M541 954L272 975V1098H723V143L1075 123V0H197V123L541 143V954ZM946 1241H825Q740 1297 614 1427Q481 1291 403 1241H283V1268Q308 1297 342 1335Q481 1490 518 1569H711Q748 1490 887 1335L946 1268V1241Z" />
<glyph unicode="&#xef;" glyph-name="idieresis" d="M541 954L272 975V1098H723V143L1075 123V0H197V123L541 143V954ZM426 1497Q522 1497 522 1395Q522 1292 426 1292Q330 1292 330 1395Q330 1497 426 1497ZM801 1497Q897 1497 897 1395Q897 1292 801 1292Q705
1292 705 1395Q705 1497 801 1497Z" />
<glyph unicode="&#xf0;" glyph-name="eth" d="M889 852L897 856Q839 1082 655 1247L399 1094L326 1208L543 1339Q439 1410 371 1448L440 1571Q583 1501 686 1423L913 1561L987 1448L793 1331Q1094 1040 1094 573Q1094 296 966 138T612 -20Q399 -20 267 113T135
477Q135 711 255 841T590 971Q801 971 889 852ZM614 823Q328 823 328 471Q328 131 616 131Q770 131 837 230T905 526Q905 655 828 739T614 823Z" />
<glyph unicode="&#xf1;" glyph-name="ntilde" d="M887 0V707Q887 967 649 967Q342 967 342 569V0H160V1098H307L334 950H344Q447 1118 680 1118Q1069 1118 1069 717V0H887ZM364 1241H260Q285 1505 471 1505Q529 1505 632 1449Q734 1393 768 1393Q848 1393 874
1507H979Q952 1243 768 1243Q711 1243 611 1300Q511 1356 471 1356Q389 1356 364 1241Z" />
<glyph unicode="&#xf2;" glyph-name="ograve" d="M610 -20Q394 -20 255 135T115 551Q115 814 250 966T616 1118Q834 1118 973 963T1112 551Q1112 286 975 133T610 -20ZM614 131Q924 131 924 551Q924 967 612 967Q303 967 303 551Q303 131 614 131ZM1027 1241H906Q740
1383 634 1548V1569H853Q939 1391 1027 1268V1241Z" />
<glyph unicode="&#xf3;" glyph-name="oacute" d="M610 -20Q394 -20 255 135T115 551Q115 814 250 966T616 1118Q834 1118 973 963T1112 551Q1112 286 975 133T610 -20ZM614 131Q924 131 924 551Q924 967 612 967Q303 967 303 551Q303 131 614 131ZM498 1268Q592
1401 672 1569H891V1548Q779 1375 619 1241H498V1268Z" />
<glyph unicode="&#xf4;" glyph-name="ocircumflex" d="M610 -20Q394 -20 255 135T115 551Q115 814 250 966T616 1118Q834 1118 973 963T1112 551Q1112 286 975 133T610 -20ZM614 131Q924 131 924 551Q924 967 612 967Q303 967 303 551Q303 131 614 131ZM1197 1241H1076Q991
1297 865 1427Q732 1291 654 1241H534V1268Q559 1297 593 1335Q732 1490 769 1569H962Q999 1490 1138 1335L1197 1268V1241Z" />
<glyph unicode="&#xf5;" glyph-name="otilde" d="M610 -20Q394 -20 255 135T115 551Q115 814 250 966T616 1118Q834 1118 973 963T1112 551Q1112 286 975 133T610 -20ZM614 131Q924 131 924 551Q924 967 612 967Q303 967 303 551Q303 131 614 131ZM358 1241H254Q279
1505 465 1505Q523 1505 626 1449Q728 1393 762 1393Q842 1393 868 1507H973Q946 1243 762 1243Q705 1243 605 1300Q505 1356 465 1356Q383 1356 358 1241Z" />
<glyph unicode="&#xf6;" glyph-name="odieresis" d="M610 -20Q394 -20 255 135T115 551Q115 814 250 966T616 1118Q834 1118 973 963T1112 551Q1112 286 975 133T610 -20ZM614 131Q924 131 924 551Q924 967 612 967Q303 967 303 551Q303 131 614 131ZM675 1497Q771
1497 771 1395Q771 1292 675 1292Q579 1292 579 1395Q579 1497 675 1497ZM1050 1497Q1146 1497 1146 1395Q1146 1292 1050 1292Q954 1292 954 1395Q954 1497 1050 1497Z" />
<glyph unicode="&#xf7;" glyph-name="divide" d="M612 1196Q727 1196 727 1071Q727 946 612 946Q498 946 498 1071Q498 1196 612 1196ZM152 647V797H1075V647H152ZM612 498Q727 498 727 373Q727 248 612 248Q498 248 498 373Q498 498 612 498Z" />
<glyph unicode="&#xf8;" glyph-name="oslash" d="M377 33L301 -86L170 -2L254 129Q115 287 115 551Q115 817 248 967T616 1118Q744 1118 852 1061L928 1180L1059 1096L975 965Q1112 809 1112 551Q1112 280 978 130T610 -20Q481 -20 377 33ZM356 276L762 932Q696
967 606 967Q445 967 374 864T303 551Q303 371 356 276ZM872 817L467 164Q528 131 621 131Q782 131 853 236T924 551Q924 715 872 817Z" />
<glyph unicode="&#xf9;" glyph-name="ugrave" d="M922 0L895 147H885Q780 -20 551 -20Q160 -20 160 381V1098H342V391Q342 131 578 131Q739 131 813 223T887 528V1098H1069V0H922ZM990 1241H869Q703 1383 597 1548V1569H816Q902 1391 990 1268V1241Z" />
<glyph unicode="&#xfa;" glyph-name="uacute" d="M922 0L895 147H885Q780 -20 551 -20Q160 -20 160 381V1098H342V391Q342 131 578 131Q739 131 813 223T887 528V1098H1069V0H922ZM500 1268Q594 1401 674 1569H893V1548Q781 1375 621 1241H500V1268Z" />
<glyph unicode="&#xfb;" glyph-name="ucircumflex" d="M922 0L895 147H885Q780 -20 551 -20Q160 -20 160 381V1098H342V391Q342 131 578 131Q739 131 813 223T887 528V1098H1069V0H922ZM954 1241H833Q748 1297 622 1427Q489 1291 411 1241H291V1268Q316 1297 350
1335Q489 1490 526 1569H719Q756 1490 895 1335L954 1268V1241Z" />
<glyph unicode="&#xfc;" glyph-name="udieresis" d="M922 0L895 147H885Q780 -20 551 -20Q160 -20 160 381V1098H342V391Q342 131 578 131Q739 131 813 223T887 528V1098H1069V0H922ZM428 1497Q524 1497 524 1395Q524 1292 428 1292Q332 1292 332 1395Q332 1497
428 1497ZM803 1497Q899 1497 899 1395Q899 1292 803 1292Q707 1292 707 1395Q707 1497 803 1497Z" />
<glyph unicode="&#xfd;" glyph-name="yacute" d="M82 1098H270L532 444Q614 239 621 154H627Q650 266 717 446L956 1098H1145L670 -143Q603 -317 514 -404T268 -492Q182 -492 100 -475V-330Q162 -342 236 -342Q332 -342 385 -301T481 -160L539 -10L82 1098ZM494
1268Q588 1401 668 1569H887V1548Q775 1375 615 1241H494V1268Z" />
<glyph unicode="&#xfe;" glyph-name="thorn" d="M340 950Q450 1118 662 1118Q863 1118 977 969T1092 551Q1092 281 977 131T662 -20Q455 -20 340 139H328Q340 10 340 -23V-492H158V1556H340V1098L332 950H340ZM340 592V551Q340 324 409 228T631 131Q903 131 903
553Q903 967 629 967Q477 967 411 879T340 592Z" />
<glyph unicode="&#xff;" glyph-name="ydieresis" d="M82 1098H270L532 444Q614 239 621 154H627Q650 266 717 446L956 1098H1145L670 -143Q603 -317 514 -404T268 -492Q182 -492 100 -475V-330Q162 -342 236 -342Q332 -342 385 -301T481 -160L539 -10L82 1098ZM434
1497Q530 1497 530 1395Q530 1292 434 1292Q338 1292 338 1395Q338 1497 434 1497ZM809 1497Q905 1497 905 1395Q905 1292 809 1292Q713 1292 713 1395Q713 1497 809 1497Z" />
<glyph unicode="&#x2013;" glyph-name="endash" d="M184 465V633H1044V465H184Z" />
<glyph unicode="&#x2014;" glyph-name="emdash" d="M-6 465V633H1235V465H-6Z" />
<glyph unicode="&#x2018;" glyph-name="quoteleft" d="M461 961L446 983Q500 1189 623 1462H780Q718 1207 680 961H461Z" />
<glyph unicode="&#x2019;" glyph-name="quoteright" d="M766 1462L780 1440Q725 1227 604 961H446Q511 1227 547 1462H766Z" />
<glyph unicode="&#x201a;" glyph-name="quotesinglbase" d="M756 238L770 215Q715 2 594 -264H457Q528 28 557 238H756Z" />
<glyph unicode="&#x201c;" glyph-name="quotedblleft" d="M674 961L659 983Q713 1189 836 1462H993Q931 1207 893 961H674ZM248 961L233 983Q287 1189 410 1462H567Q505 1207 467 961H248Z" />
<glyph unicode="&#x201d;" glyph-name="quotedblright" d="M553 1462L567 1440Q512 1227 391 961H233Q298 1227 334 1462H553ZM979 1462L993 1440Q938 1227 817 961H659Q724 1227 760 1462H979Z" />
<glyph unicode="&#x201e;" glyph-name="quotedblbase" d="M543 238L557 215Q502 2 381 -264H244Q315 28 344 238H543ZM969 238L983 215Q932 18 807 -264H670Q741 28 770 238H969Z" />
<glyph unicode="&#x2022;" glyph-name="bullet" d="M614 1010Q850 1010 850 748Q850 620 787 553T614 485Q503 485 441 552T379 748Q379 1010 614 1010Z" />
<glyph unicode="&#x2039;" glyph-name="guilsinglleft" d="M401 553L711 967L827 889L590 541L827 193L711 115L401 526V553Z" />
<glyph unicode="&#x203a;" glyph-name="guilsinglright" d="M827 526L518 115L401 193L639 541L401 889L518 967L827 553V526Z" />
</font>
</defs>
</svg>
