<svg id="Layer_1" data-name="Layer 1" xmlns="http://www.w3.org/2000/svg" viewBox="0 0 435.35 143.45"><title>lsst-logo-dark</title><path d="M384.26,139.66c-.77,1.08-.76,2.94-1.75,3.79H.72c.54-1.31,1-2.67,1.46-4.08h376a43.57,43.57,0,0,1,5.83,0C384.2,139.4,384.25,139.41,384.26,139.66Z" style="fill:#db1f26;fill-rule:evenodd"/><path d="M355.93,29.33c.72-2,1.75-4,2.32-6-3.46-.31-79.2-.45-85.74-.33-4.58.08-10.35.21-12.95,4.76a5.85,5.85,0,0,0-.14,5.69,8.9,8.9,0,0,0,4.22,3.3c2.08.95,15.13,4.65,15.66,4.79,13.75,3.15,27.81,6,37.87,12.82,2.62,2.23,6.57,6.79,6.93,7.64a33.4,33.4,0,0,1,1.25,3.47,18.56,18.56,0,0,1,.61,7.45,23.33,23.33,0,0,1-6.11,13.27c-6.43,6.94-16,10.61-24.87,13.08a162.74,162.74,0,0,1-31.64,5c-5.6.42-11.2.55-16.81.85-5.87.32-11.75.11-17.63,0-.38.09-9.5-.49-13.26-.87-.68.2-19.47-2.92-19.95-2.91-7.77-1.45-15.33-3.58-23-5.54a5,5,0,0,0-3.46.75c-1.47.7-3,1.32-4.49,1.88a65.11,65.11,0,0,1-11,3l-6.12,1c-10.87,1.85-21.83.82-32.78.77-11.21-.05-34.61,0-34.95.11-18.18,0-57.14-.13-57.54,0H12.15Q30,53.24,48.13,3.32H74.2c-2,5.38-16.71,46.53-17.9,49.74-.55,1.49-10,27.94-10.94,30.53,8.53.25,27.18.17,27.39.29H85.67c2.34,0,19.09-.06,19.75-.06.36,0,16.82-.2,17.44-.22a52,52,0,0,0,9-.44c2.34-.27,4.66-1.36,7-2,2.72-1.71,6-4.17,5.91-7.75-.12-4-4.26-6.29-7.46-7.62a82.23,82.23,0,0,0-12-3.59c-2.44-.58-9.84-2.19-11.08-2.48-.83-.19-15.47-4.14-16.37-4.42-.64-.2-5.2-2.08-6.76-2.84a33.15,33.15,0,0,1-5.18-2.62C78.57,46.5,76.37,37.17,78,29.86c1.85-8.47,8.66-14.12,16-17.94a83.12,83.12,0,0,1,8.78-4.13c2.41-.76,8.36-2.14,8.85-2.14,4.13-.77,8.24-1.56,12.53-2.18a16.65,16.65,0,0,0,2-.29,244.16,244.16,0,0,1,37-1.6c6.38.12,12.77.29,19.13.8s12.68,1.39,19,2.44c4.64.77,9.26,1.64,13.88,2.53,2.38.46,4.77.82,7.16,1.23,2.14.37,7.68,1.57,8.24,1.69a3.23,3.23,0,0,0,1.94-.39A50.68,50.68,0,0,1,237.29,8a100.43,100.43,0,0,1,10.07-2.72,91.27,91.27,0,0,1,10.38-1.58c1.85-.18,3.7-.26,5.55-.38,1.5-.1,33.93,0,33.93,0,5.74,0,116.47,0,135.61,0,.34,0-5.75,16-7.28,19.81-13,0-27.26,0-41.08,0-4.16,11.14-29,79.05-29.57,80.27H328.83Z" style="stroke:#fff;stroke-width:3px;fill-rule:evenodd"/><g id="dmO4pr"><path d="M211.53,31.9c-.42,18.58,11.11,21.74,28.05,27.09,8.47,2.67,26,7,26.12,14.51.1,7.78-14.49,10.09-20.32,10.64-17.91,1.67-37.82-2-48.36-6.77-.54-17.89-10.78-24.85-27.09-30C160.82,44.51,142,43,141.88,34.8c-.18-10.48,26.59-10.42,37.73-9.67C194,26.09,202,28.73,211.53,31.9Z" style="fill:#fff;fill-rule:evenodd"/><path d="M227,24.16c2.92,4.12-2.07,7.2-1,12.58,5.79,12.1,22.38,12.55,38.69,16.44,13.14,3.13,34.09,7.3,34.82,20.32,1.09,19.17-35.33,22.38-53.2,23.21C219.17,98,196.82,93.4,181.54,85.1c1.66-15.58-3.6-22.83-17.41-28-13.64-5.16-55.12-5.45-58-20.31-3.67-18.68,26.39-23.21,39.66-24.19C176.88,10.26,208.33,15.11,227,24.16Zm-47.4,1c-11.14-.75-37.91-.81-37.73,9.67.15,8.17,18.94,9.71,28.05,12.58,16.31,5.14,26.55,12.1,27.09,30,10.54,4.75,30.45,8.44,48.36,6.77,5.83-.55,20.42-2.86,20.32-10.64C265.6,66,248.05,61.66,239.58,59c-16.94-5.35-28.47-8.51-28.05-27.09C202,28.73,194,26.09,179.61,25.13Z" style="fill:#3476bb;fill-rule:evenodd"/></g><g id="_252lNN" data-name="252lNN"><path d="M196.76,78.24c.31-23.95-19.86-27.69-39.44-33.43-7.07-2.07-18.1-5.36-18.24-11.14-.18-6.93,13.63-10.43,22.18-11.15,8.78-.73,19.35,0,29.09,1.52,7.36,1.13,20.79,2.3,23.67,7.09,1.57,2.62,1.37,9.45,2.46,12.16,5.45,13.57,22.46,14.8,38,19.76,7,2.24,16.13,5.67,16.27,12.15.2,8.54-12.71,11.49-21.19,12.16C230.25,88.88,207.33,87.4,196.76,78.24ZM167.18,35.69c4.31,4,18.34,6.76,26.13,12.16,7.95,5.51,12.65,12.75,14.3,24.82,4.91,3,10.54,3.92,18.73,5.06,5,.71,18.95,3.28,19.23-3,.25-5.64-14.19-7.57-19.72-10.14-10.92-5.06-20.79-14.71-22.19-27.35C202.43,33.62,164.91,26.52,167.18,35.69Z" style="fill:#bfdff1;fill-rule:evenodd"/></g><path d="M8.43,117.27h1.86L5.86,130.12H12l-.54,1.57h-8Z" style="fill:#fff"/><path d="M22.3,131.69l.3-1.31h-.07a5.58,5.58,0,0,1-3.69,1.54c-2.1,0-2.66-1.48-2.14-3,.86-2.5,3.55-3.87,7.54-3.85l.08-.21c.29-.86.59-2.4-1.53-2.4a6.69,6.69,0,0,0-3,.77V122a8.19,8.19,0,0,1,3.72-.92c3.16,0,3.19,2.16,2.47,4.24l-1.33,3.86a15.5,15.5,0,0,0-.68,2.49Zm1.54-5.29c-2,0-4.5.33-5.19,2.33-.42,1.22.2,1.8,1.16,1.8a3.93,3.93,0,0,0,3.1-1.73,2.86,2.86,0,0,0,.31-.6Z" style="fill:#fff"/><path d="M32.4,124.57c.42-1.22.76-2.27,1-3.23h1.64l-.63,2h.08a4.81,4.81,0,0,1,3.65-2.27,1.57,1.57,0,0,1,.51.07l-.61,1.77a2.71,2.71,0,0,0-.62-.06,4.11,4.11,0,0,0-3.36,2.41,7.26,7.26,0,0,0-.38.88l-1.9,5.52H30Z" style="fill:#fff"/><path d="M52.32,121.34c-.3.74-.63,1.58-1.06,2.84l-2.07,6c-.82,2.37-1.79,3.83-3.1,4.72a7.28,7.28,0,0,1-4.19,1.24,5.24,5.24,0,0,1-3.15-.85l1-1.43a4.52,4.52,0,0,0,2.76.81c1.92,0,3.68-1,4.58-3.61l.4-1.16H47.4a5.41,5.41,0,0,1-3.89,1.73c-2.56,0-3.65-2.18-2.66-5,1.21-3.51,4.18-5.5,6.55-5.5,1.8,0,2.46.94,2.61,1.8h0l.63-1.56ZM49,125.42a2.75,2.75,0,0,0,.19-.85,1.79,1.79,0,0,0-1.95-2c-1.79,0-3.6,1.52-4.42,3.91-.7,2-.26,3.72,1.77,3.72a4.2,4.2,0,0,0,3.27-1.92,4.31,4.31,0,0,0,.5-1Z" style="fill:#fff"/><path d="M57.58,126.85c-.83,2.55.43,3.59,2.31,3.59a8.2,8.2,0,0,0,3-.53l-.14,1.35a10.15,10.15,0,0,1-3.66.64c-3.19,0-4.37-2.1-3.29-5.22s3.75-5.58,6.77-5.58c3.38,0,3.25,3,2.6,4.88-.14.38-.28.68-.37.87Zm6-1.34c.44-1.2.56-3.06-1.55-3.06-1.91,0-3.34,1.75-3.94,3.06Z" style="fill:#fff"/><path d="M76.86,129.42a5,5,0,0,0,3,.94,3.88,3.88,0,0,0,3.86-2.46c.46-1.35,0-2.12-1.73-2.87-2.07-.83-3.1-2-2.4-4.08a6.29,6.29,0,0,1,6-3.91,5.22,5.22,0,0,1,2.94.7l-1,1.52a4.44,4.44,0,0,0-2.5-.68,3.52,3.52,0,0,0-3.46,2.16c-.46,1.34.19,2,1.91,2.78,2.12.94,3,2.11,2.22,4.23a6.54,6.54,0,0,1-6.47,4.15,5.78,5.78,0,0,1-3.36-.92Z" style="fill:#fff"/><path d="M94,121.34l.16,6.11c0,.69,0,1.5-.07,2.12h0c.4-.62.89-1.41,1.4-2.16l4.15-6.07h2l-5.36,7.37c-2.57,3.55-4.11,5.37-5.78,6.48a7.71,7.71,0,0,1-2.72,1.22l.07-1.58a7.58,7.58,0,0,0,2-.92,9.32,9.32,0,0,0,2.31-2.1,2,2,0,0,0,.3-.45,1.27,1.27,0,0,0,0-.49l-.54-9.53Z" style="fill:#fff"/><path d="M105.46,124.14c.37-1.07.65-2,.88-2.8H108l-.48,1.71h0a5.65,5.65,0,0,1,4.09-2c1.44,0,3.37.86,2.14,4.41l-2.12,6.18h-1.88l2-6c.57-1.67.43-3.06-1.34-3.06a4.12,4.12,0,0,0-3.19,1.93,3.71,3.71,0,0,0-.43.87l-2.14,6.23h-1.88Z" style="fill:#fff"/><path d="M129,126.43a7.72,7.72,0,0,1-7,5.49c-2.8,0-4.25-2-3.13-5.32a7.74,7.74,0,0,1,7-5.5C128.8,121.1,130.06,123.26,129,126.43Zm-8.24.1c-.78,2.27-.07,4,1.77,4s3.72-1.69,4.53-4c.6-1.75.49-4-1.73-4S121.4,124.57,120.73,126.53Z" style="fill:#fff"/><path d="M135,124.71c.46-1.32.78-2.39,1.08-3.37h1.69l-.53,1.77h.05a6,6,0,0,1,4.36-2c2.51,0,3.66,2.12,2.58,5.26-1.28,3.72-4.18,5.56-6.62,5.56A2.46,2.46,0,0,1,135,130.3h0L133,135.92h-1.86Zm.91,2.76a5.58,5.58,0,0,0-.18.77,1.92,1.92,0,0,0,2.07,2.2c2,0,3.7-1.62,4.52-4,.71-2.08.23-3.85-1.76-3.85a4.63,4.63,0,0,0-3.64,2.33,3.75,3.75,0,0,0-.4.77Z" style="fill:#fff"/><path d="M154.7,118.36l-1,3h2.7l-.5,1.43h-2.69l-1.92,5.58c-.44,1.28-.33,2,.72,2a4.42,4.42,0,0,0,1.13-.13l-.4,1.41a5.41,5.41,0,0,1-1.76.26,1.83,1.83,0,0,1-1.75-.79c-.35-.56-.22-1.48.2-2.7l1.94-5.64h-1.6l.49-1.43h1.6l.86-2.48Z" style="fill:#fff"/><path d="M158,131.69l3.57-10.35h1.88l-3.56,10.35Zm6.66-13.26a1.68,1.68,0,0,1-1.59,1.15c-.66,0-1-.51-.74-1.15a1.77,1.77,0,0,1,1.58-1.18C164.62,117.25,164.89,117.77,164.66,118.43Z" style="fill:#fff"/><path d="M173.59,131.3a8.43,8.43,0,0,1-3.18.6c-3.12,0-4.42-2.12-3.33-5.28a8,8,0,0,1,7.45-5.5,5.05,5.05,0,0,1,2.43.54l-.93,1.45a3.42,3.42,0,0,0-2-.49,5.48,5.48,0,0,0-5,3.91c-.82,2.4.21,3.87,2.26,3.87a6.79,6.79,0,0,0,2.49-.51Z" style="fill:#fff"/><path d="M186.94,129.42a5,5,0,0,0,3,.94,3.88,3.88,0,0,0,3.86-2.46c.46-1.35,0-2.12-1.73-2.87-2.06-.83-3.1-2-2.4-4.08a6.29,6.29,0,0,1,6-3.91,5.2,5.2,0,0,1,2.94.7l-1,1.52a4.44,4.44,0,0,0-2.5-.68,3.49,3.49,0,0,0-3.45,2.16c-.47,1.34.18,2,1.9,2.78,2.12.94,3,2.11,2.22,4.23a6.54,6.54,0,0,1-6.47,4.15,5.78,5.78,0,0,1-3.36-.92Z" style="fill:#fff"/><path d="M209.59,128.86c-.36,1.07-.67,2-.88,2.83H207l.47-1.69h0a5.81,5.81,0,0,1-4.08,1.92c-1.63,0-3.26-.9-2-4.53l2.08-6h1.88l-2,5.73c-.68,2-.53,3.29,1.18,3.29a4.14,4.14,0,0,0,3.06-1.71,3.68,3.68,0,0,0,.51-1l2.18-6.35h1.89Z" style="fill:#fff"/><path d="M217.27,124.57c.42-1.22.76-2.27,1-3.23h1.64l-.63,2h.09A4.77,4.77,0,0,1,223,121.1a1.53,1.53,0,0,1,.51.07l-.61,1.77a2.71,2.71,0,0,0-.62-.06,4.09,4.09,0,0,0-3.35,2.41,7.25,7.25,0,0,0-.39.88l-1.9,5.52h-1.86Z" style="fill:#fff"/><path d="M229.71,121.34l0,5.81a22.83,22.83,0,0,1-.08,2.65h.07c.52-.85,1.12-1.71,1.78-2.65l4-5.81h2l-7.62,10.35h-1.8l-.37-10.35Z" style="fill:#fff"/><path d="M241.28,126.85c-.83,2.55.43,3.59,2.31,3.59a8.2,8.2,0,0,0,3-.53l-.14,1.35a10.17,10.17,0,0,1-3.67.64c-3.18,0-4.36-2.1-3.29-5.22s3.76-5.58,6.78-5.58c3.37,0,3.25,3,2.59,4.88a8.1,8.1,0,0,1-.36.87Zm6-1.34c.43-1.2.56-3.06-1.56-3.06-1.9,0-3.34,1.75-3.94,3.06Z" style="fill:#fff"/><path d="M256.6,121.34l.16,6.11c0,.69,0,1.5-.06,2.12h0c.41-.62.89-1.41,1.41-2.16l4.14-6.07h2l-5.37,7.37c-2.56,3.55-4.11,5.37-5.77,6.48a7.66,7.66,0,0,1-2.73,1.22l.07-1.58a7.43,7.43,0,0,0,2-.92,9.32,9.32,0,0,0,2.31-2.1,1.71,1.71,0,0,0,.3-.45,1.27,1.27,0,0,0,0-.49l-.54-9.53Z" style="fill:#fff"/><path d="M279.45,118.86h-4.38l.54-1.59h10.67l-.54,1.59h-4.41l-4.42,12.83H275Z" style="fill:#fff"/><path d="M287.13,126.85c-.83,2.55.43,3.59,2.31,3.59a8.2,8.2,0,0,0,3.05-.53l-.14,1.35a10.17,10.17,0,0,1-3.67.64c-3.18,0-4.36-2.1-3.29-5.22s3.76-5.58,6.78-5.58c3.37,0,3.25,3,2.59,4.88-.13.38-.28.68-.36.87Zm6-1.34c.43-1.2.56-3.06-1.56-3.06-1.9,0-3.34,1.75-3.94,3.06Z" style="fill:#fff"/><path d="M303.43,116.5h1.88l-5.23,15.19H298.2Z" style="fill:#fff"/><path d="M309,126.85c-.84,2.55.43,3.59,2.31,3.59a8.2,8.2,0,0,0,3-.53l-.15,1.35a10.06,10.06,0,0,1-3.66.64c-3.18,0-4.36-2.1-3.29-5.22s3.76-5.58,6.77-5.58c3.38,0,3.26,3,2.6,4.88-.13.38-.28.68-.36.87Zm6-1.34c.43-1.2.56-3.06-1.56-3.06-1.9,0-3.34,1.75-3.94,3.06Z" style="fill:#fff"/><path d="M320.52,129.76a3.68,3.68,0,0,0,2.22.75,2.5,2.5,0,0,0,2.54-1.54c.31-.9,0-1.39-1.27-1.9-1.63-.67-2.15-1.69-1.73-2.93a4.86,4.86,0,0,1,4.62-3,4,4,0,0,1,2.32.64l-.94,1.37a3,3,0,0,0-1.91-.6,2.29,2.29,0,0,0-2.22,1.41c-.29.86.2,1.24,1.37,1.76,1.56.68,2.17,1.58,1.64,3.12a5,5,0,0,1-4.94,3.1,4.58,4.58,0,0,1-2.66-.71Z" style="fill:#fff"/><path d="M339.16,131.3a8.43,8.43,0,0,1-3.18.6c-3.12,0-4.42-2.12-3.33-5.28a8,8,0,0,1,7.45-5.5,5.05,5.05,0,0,1,2.43.54l-.93,1.45a3.42,3.42,0,0,0-2-.49,5.48,5.48,0,0,0-5,3.91c-.82,2.4.21,3.87,2.26,3.87a6.79,6.79,0,0,0,2.49-.51Z" style="fill:#fff"/><path d="M355.36,126.43a7.74,7.74,0,0,1-7.05,5.49c-2.8,0-4.25-2-3.12-5.32a7.72,7.72,0,0,1,7-5.5C355.18,121.1,356.45,123.26,355.36,126.43Zm-8.25.1c-.78,2.27-.06,4,1.77,4s3.73-1.69,4.53-4c.6-1.75.49-4-1.73-4S347.79,124.57,347.11,126.53Z" style="fill:#fff"/><path d="M361.4,124.71c.45-1.32.78-2.39,1.07-3.37h1.69l-.52,1.77h0a6,6,0,0,1,4.37-2c2.5,0,3.65,2.12,2.57,5.26-1.28,3.72-4.18,5.56-6.62,5.56a2.43,2.43,0,0,1-2.62-1.62h-.05l-1.93,5.62h-1.86Zm.9,2.76a4.33,4.33,0,0,0-.17.77,1.91,1.91,0,0,0,2.06,2.2c2,0,3.7-1.62,4.52-4,.71-2.08.23-3.85-1.76-3.85a4.63,4.63,0,0,0-3.64,2.33,3.75,3.75,0,0,0-.4.77Z" style="fill:#fff"/><path d="M377,126.85c-.84,2.55.43,3.59,2.31,3.59a8.24,8.24,0,0,0,3.05-.53l-.15,1.35a10.06,10.06,0,0,1-3.66.64c-3.19,0-4.37-2.1-3.29-5.22S379,121.1,382,121.1c3.38,0,3.25,3,2.6,4.88a7.76,7.76,0,0,1-.37.87Zm6-1.34c.44-1.2.57-3.06-1.55-3.06-1.9,0-3.34,1.75-3.94,3.06Z" style="fill:#fff"/></svg>