<svg id="Layer_1" data-name="Layer 1" xmlns="http://www.w3.org/2000/svg" viewBox="0 0 435.35 107.66"><title>lsst-logo-dark-no-text</title><path d="M355.93,29.33c.72-2,1.75-4,2.32-6-3.46-.31-79.2-.45-85.74-.33-4.58.08-10.35.21-12.95,4.76a5.85,5.85,0,0,0-.14,5.69,8.9,8.9,0,0,0,4.22,3.3c2.08.95,15.13,4.65,15.66,4.79,13.75,3.15,27.81,6,37.87,12.82,2.62,2.23,6.57,6.79,6.93,7.64a33.4,33.4,0,0,1,1.25,3.47,18.56,18.56,0,0,1,.61,7.45,23.33,23.33,0,0,1-6.11,13.27c-6.43,6.94-16,10.61-24.87,13.08a162.74,162.74,0,0,1-31.64,5c-5.6.42-11.2.55-16.81.85-5.87.32-11.75.11-17.63,0-.38.09-9.5-.49-13.26-.87-.68.2-19.47-2.92-19.95-2.91-7.77-1.45-15.33-3.58-23-5.54a5,5,0,0,0-3.46.75c-1.47.7-3,1.32-4.49,1.88a65.11,65.11,0,0,1-11,3l-6.12,1c-10.87,1.85-21.83.82-32.78.77-11.21-.05-34.61,0-34.95.11-18.18,0-57.14-.13-57.54,0H12.15Q30,53.24,48.13,3.32H74.2c-2,5.38-16.71,46.53-17.9,49.74-.55,1.49-10,27.94-10.94,30.53,8.53.25,27.18.17,27.39.29H85.67c2.34,0,19.09-.06,19.75-.06.36,0,16.82-.2,17.44-.22a52,52,0,0,0,9-.44c2.34-.27,4.66-1.36,7-2,2.72-1.71,6-4.17,5.91-7.75-.12-4-4.26-6.29-7.46-7.62a82.23,82.23,0,0,0-12-3.59c-2.44-.58-9.84-2.19-11.08-2.48-.83-.19-15.47-4.14-16.37-4.42-.64-.2-5.2-2.08-6.76-2.84a33.15,33.15,0,0,1-5.18-2.62C78.57,46.5,76.37,37.17,78,29.86c1.85-8.47,8.66-14.12,16-17.94a83.12,83.12,0,0,1,8.78-4.13c2.41-.76,8.36-2.14,8.85-2.14,4.13-.77,8.24-1.56,12.53-2.18a16.65,16.65,0,0,0,2-.29,244.16,244.16,0,0,1,37-1.6c6.38.12,12.77.29,19.13.8s12.68,1.39,19,2.44c4.64.77,9.26,1.64,13.88,2.53,2.38.46,4.77.82,7.16,1.23,2.14.37,7.68,1.57,8.24,1.69a3.23,3.23,0,0,0,1.94-.39A50.68,50.68,0,0,1,237.29,8a100.43,100.43,0,0,1,10.07-2.72,91.27,91.27,0,0,1,10.38-1.58c1.85-.18,3.7-.26,5.55-.38,1.5-.1,33.93,0,33.93,0,5.74,0,116.47,0,135.61,0,.34,0-5.75,16-7.28,19.81-13,0-27.26,0-41.08,0-4.16,11.14-29,79.05-29.57,80.27H328.83Z" style="stroke:#fff;stroke-width:3px;fill-rule:evenodd"/><g id="dmO4pr"><path d="M211.53,31.9c-.42,18.58,11.11,21.74,28.05,27.09,8.47,2.67,26,7,26.12,14.51.1,7.78-14.49,10.09-20.32,10.64-17.91,1.67-37.82-2-48.36-6.77-.54-17.89-10.78-24.85-27.09-30C160.82,44.51,142,43,141.88,34.8c-.18-10.48,26.59-10.42,37.73-9.67C194,26.09,202,28.73,211.53,31.9Z" style="fill:#fff;fill-rule:evenodd"/><path d="M227,24.16c2.92,4.12-2.07,7.2-1,12.58,5.79,12.1,22.38,12.55,38.69,16.44,13.14,3.13,34.09,7.3,34.82,20.32,1.09,19.17-35.33,22.38-53.2,23.21C219.17,98,196.82,93.4,181.54,85.1c1.66-15.58-3.6-22.83-17.41-28-13.64-5.16-55.12-5.45-58-20.31-3.67-18.68,26.39-23.21,39.66-24.19C176.88,10.26,208.33,15.11,227,24.16Zm-47.4,1c-11.14-.75-37.91-.81-37.73,9.67.15,8.17,18.94,9.71,28.05,12.58,16.31,5.14,26.55,12.1,27.09,30,10.54,4.75,30.45,8.44,48.36,6.77,5.83-.55,20.42-2.86,20.32-10.64C265.6,66,248.05,61.66,239.58,59c-16.94-5.35-28.47-8.51-28.05-27.09C202,28.73,194,26.09,179.61,25.13Z" style="fill:#3476bb;fill-rule:evenodd"/></g><g id="_252lNN" data-name="252lNN"><path d="M196.76,78.24c.31-23.95-19.86-27.69-39.44-33.43-7.07-2.07-18.1-5.36-18.24-11.14-.18-6.93,13.63-10.43,22.18-11.15,8.78-.73,19.35,0,29.09,1.52,7.36,1.13,20.79,2.3,23.67,7.09,1.57,2.62,1.37,9.45,2.46,12.16,5.45,13.57,22.46,14.8,38,19.76,7,2.24,16.13,5.67,16.27,12.15.2,8.54-12.71,11.49-21.19,12.16C230.25,88.88,207.33,87.4,196.76,78.24ZM167.18,35.69c4.31,4,18.34,6.76,26.13,12.16,7.95,5.51,12.65,12.75,14.3,24.82,4.91,3,10.54,3.92,18.73,5.06,5,.71,18.95,3.28,19.23-3,.25-5.64-14.19-7.57-19.72-10.14-10.92-5.06-20.79-14.71-22.19-27.35C202.43,33.62,164.91,26.52,167.18,35.69Z" style="fill:#bfdff1;fill-rule:evenodd"/></g></svg>