<?xml version="1.0" encoding="UTF-8" standalone="no"?>
<svg
   xmlns:dc="http://purl.org/dc/elements/1.1/"
   xmlns:cc="http://creativecommons.org/ns#"
   xmlns:rdf="http://www.w3.org/1999/02/22-rdf-syntax-ns#"
   xmlns:svg="http://www.w3.org/2000/svg"
   xmlns="http://www.w3.org/2000/svg"
   xmlns:sodipodi="http://sodipodi.sourceforge.net/DTD/sodipodi-0.dtd"
   xmlns:inkscape="http://www.inkscape.org/namespaces/inkscape"
   inkscape:export-ydpi="125.25714"
   inkscape:export-xdpi="125.25714"
   inkscape:export-filename="/Users/acroz/bitmap.png"
   inkscape:version="1.0beta2 (2b71d25, 2019-12-03)"
   height="50"
   width="210"
   sodipodi:docname="faculty.svg"
   id="svg8610"
   xml:space="preserve"
   viewBox="0 0 210 50"
   y="0px"
   x="0px"
   version="1.1"><metadata
   id="metadata8616"><rdf:RDF><cc:Work
       rdf:about=""><dc:format>image/svg+xml</dc:format><dc:type
         rdf:resource="http://purl.org/dc/dcmitype/StillImage" /><dc:title></dc:title></cc:Work></rdf:RDF></metadata><defs
   id="defs8614">
	
	

		
		
	</defs><sodipodi:namedview
   inkscape:current-layer="svg8610"
   inkscape:window-maximized="0"
   inkscape:window-y="23"
   inkscape:window-x="0"
   inkscape:cy="69.192243"
   inkscape:cx="106.305"
   inkscape:zoom="4.402427"
   units="in"
   showguides="false"
   showgrid="false"
   id="namedview8612"
   inkscape:window-height="839"
   inkscape:window-width="1440"
   inkscape:pageshadow="2"
   inkscape:pageopacity="0"
   guidetolerance="10"
   gridtolerance="10"
   objecttolerance="10"
   borderopacity="1"
   inkscape:document-rotation="0"
   bordercolor="#666666"
   pagecolor="#ffffff" />
<style
   id="style4340"
   type="text/css">
	.st0{fill:#FFFFFF;}
</style>
<g
   id="Layer_1">
	<rect
   id="rect4342"
   height="867.56"
   width="1367.91"
   y="6244.29"
   x="-3562.8501" />
	<g
   id="g4358">
		<path
   inkscape:connector-curvature="0"
   id="path4344"
   d="m -3028.61,6511.9 v 20.73 h -26.72 v 18.89 h 26.72 v 96.27 h 25.34 v -96.27 h 26.76 v -18.89 h -26.76 v -16.12 c 0,-7.83 2.07,-9.9 10.13,-9.9 h 16.63 v -20.04 h -24.23 c -18.65,0 -27.87,9.21 -27.87,25.33 z"
   class="st0" />
		<path
   inkscape:connector-curvature="0"
   id="path4346"
   d="m -2365.01,6529.18 c -7.37,0 -11.18,7.13 -11.18,14.27 0,6.66 2.85,10.7 2.85,19.5 0,20.69 -15.93,45.42 -25.92,63.25 -4.75,-22.83 -4.28,-97.02 -37.81,-97.02 -19.26,0 -25.68,20.21 -25.68,35.9 0,4.36 1.45,8.28 5.17,7.79 3.42,-0.45 3.45,-3.73 2.49,-6.71 -1.19,-3.09 -1.67,-5.87 -1.48,-8.66 0.43,-6.4 4.76,-10.73 11.41,-10.73 15.46,0 24.73,41.85 27.82,69.2 l 2.14,19.73 0.71,12.37 -12.84,14.98 c -7.85,9.04 -14.98,11.41 -20.21,11.41 -3.8,0 -6.9,-1.66 -9.99,-1.66 -5.71,0 -8.56,4.52 -8.56,9.75 0,5.23 4.76,9.51 9.75,9.51 19.02,0 35.19,-24.26 45.42,-37.33 16.64,-21.4 55.17,-86.79 55.17,-112.95 0.02,-6.18 -2.36,-12.6 -9.26,-12.6 z"
   class="st0" />
		<path
   inkscape:connector-curvature="0"
   id="path4348"
   d="m -2645.83,6594.82 c 0,28.1 -10.36,37.54 -27.64,37.54 -13.13,0 -22.11,-5.07 -22.11,-29.48 v -70.25 h -25.33 v 75.54 c 0,31.55 15.43,43.07 40.07,43.07 15.43,0 29.25,-5.3 36.85,-19.12 v 15.66 h 23.49 v -115.16 h -25.33 z"
   class="st0" />
		<rect
   id="rect4350"
   height="161.22"
   width="25.34"
   class="st0"
   y="6486.5698"
   x="-2591.95" />
		<path
   inkscape:connector-curvature="0"
   id="path4352"
   d="m -2789.55,6632.36 c -17.5,0 -27.41,-10.13 -27.41,-42.15 0,-6.74 0.44,-12.5 1.3,-17.41 3.21,-18.41 12.29,-24.74 26.11,-24.74 15.82,0 21.31,8.75 22.02,24.74 h 25.79 c -1.14,-24.65 -13.63,-43.63 -47.81,-43.63 -34.56,0 -48.85,19.8 -52.73,43.63 -0.8,4.91 -1.17,9.99 -1.17,15.11 v 4.61 c 0,29.94 12.21,58.73 53.89,58.73 35.93,0 47.91,-20.96 47.91,-47.44 h -25.8 c 0.01,18.42 -5.05,28.55 -22.1,28.55 z"
   class="st0" />
		<path
   inkscape:connector-curvature="0"
   id="path4354"
   d="m -2501.21,6617.39 v -65.87 h 0.03 26.72 v -18.89 h -26.72 -0.03 v -46.06 h -25.34 v 46.06 h -0.01 -26.47 -0.24 v 18.89 h 0.24 26.47 0.01 v 70.94 c 0,16.12 9.21,25.33 25.34,25.33 h 30.86 v -20.04 h -20.5 c -7.59,0 -10.36,-2.76 -10.36,-10.36 z"
   class="st0" />
		<path
   inkscape:connector-curvature="0"
   id="path4356"
   d="m -2867.62,6616.24 v -43.43 -7.23 c 0,-25.1 -15.2,-36.39 -46.52,-36.39 -38.29,0 -47.74,20.23 -48.33,43.63 h 25.76 v -1.02 c 0,-17.5 6.91,-23.72 22.57,-23.72 15.43,0 21.19,5.53 21.19,18.66 v 6.08 1.29 c -1.15,1.15 -2.99,1.84 -11.06,3.45 l -27.87,5.53 c -26.49,5.07 -34.09,17.96 -34.09,32.94 v 2.3 c 0,14.97 9.9,32.24 38.69,32.24 20.96,0 33.17,-8.52 40.08,-21.19 1.15,11.52 9.21,18.43 23.03,18.43 h 12.44 v -20.04 h -5.53 c -8.05,-0.02 -10.36,-3.47 -10.36,-11.53 z m -24.18,-16.35 c 0,20.5 -13.13,32.01 -30.17,32.01 -12.44,0 -17.5,-6.91 -17.5,-16.58 0,-7.83 2.3,-14.51 16.35,-17.5 l 20.27,-3.92 c 8.06,-1.61 9.9,-2.3 11.06,-3.45 v 9.44 z"
   class="st0" />
	</g>
	
		<text
   id="text4360"
   style="font-size:104.999px;font-family:SabonLTPro-Italic"
   class="st0"
   transform="translate(-2779.5779,6751.2085)">Safety</text>
</g>
<g
   transform="translate(-24.385,-33.912884)"
   id="g4377">
			<path
   inkscape:connector-curvature="0"
   id="path4363"
   d="m 70.58,46.46 v 3.77 h -4.86 v 3.44 h 4.86 v 17.52 h 4.61 V 53.67 h 4.87 V 50.23 H 75.19 V 47.3 c 0,-1.43 0.38,-1.8 1.84,-1.8 h 3.03 v -3.65 h -4.41 c -3.4,0 -5.07,1.67 -5.07,4.61 z"
   class="st0" />
			<path
   inkscape:connector-curvature="0"
   id="path4365"
   d="m 191.37,49.6 c -1.34,0 -2.03,1.3 -2.03,2.6 0,1.21 0.52,1.95 0.52,3.55 0,3.77 -2.9,8.27 -4.72,11.51 -0.87,-4.16 -0.78,-17.66 -6.88,-17.66 -3.51,0 -4.67,3.68 -4.67,6.54 0,0.79 0.26,1.51 0.94,1.42 0.62,-0.08 0.63,-0.68 0.45,-1.22 -0.22,-0.56 -0.3,-1.07 -0.27,-1.58 0.08,-1.17 0.87,-1.95 2.08,-1.95 2.81,0 4.5,7.62 5.06,12.59 l 0.39,3.59 0.13,2.25 -2.34,2.73 c -1.43,1.64 -2.73,2.08 -3.68,2.08 -0.69,0 -1.26,-0.3 -1.82,-0.3 -1.04,0 -1.56,0.82 -1.56,1.77 0,0.95 0.87,1.73 1.77,1.73 3.46,0 6.41,-4.41 8.27,-6.8 3.03,-3.9 10.04,-15.8 10.04,-20.56 0,-1.12 -0.43,-2.29 -1.68,-2.29 z"
   class="st0" />
			<path
   inkscape:connector-curvature="0"
   id="path4367"
   d="m 140.25,61.55 c 0,5.11 -1.89,6.83 -5.03,6.83 -2.39,0 -4.02,-0.92 -4.02,-5.37 V 50.23 h -4.61 v 13.75 c 0,5.74 2.81,7.84 7.29,7.84 2.81,0 5.32,-0.96 6.71,-3.48 v 2.85 h 4.28 V 50.23 h -4.61 v 11.32 z"
   class="st0" />
			<rect
   id="rect4369"
   height="29.35"
   width="4.6100001"
   class="st0"
   y="41.849998"
   x="150.06" />
			<path
   inkscape:connector-curvature="0"
   id="path4371"
   d="m 114.09,68.38 c -3.19,0 -4.99,-1.84 -4.99,-7.67 0,-1.23 0.08,-2.27 0.24,-3.17 0.58,-3.35 2.24,-4.5 4.75,-4.5 2.88,0 3.88,1.59 4.01,4.5 h 4.69 c -0.21,-4.49 -2.48,-7.94 -8.7,-7.94 -6.29,0 -8.89,3.6 -9.6,7.94 -0.15,0.89 -0.21,1.82 -0.21,2.75 v 0.84 c 0,5.45 2.22,10.69 9.81,10.69 6.54,0 8.72,-3.81 8.72,-8.64 h -4.7 c 0,3.36 -0.92,5.2 -4.02,5.2 z"
   class="st0" />
			<path
   inkscape:connector-curvature="0"
   id="path4373"
   d="M 166.57,65.66 V 53.67 h 0.01 4.86 v -3.44 h -4.86 -0.01 v -8.38 h -4.61 v 8.38 0 h -4.82 -0.04 v 3.44 h 0.04 4.82 v 0 12.91 c 0,2.93 1.68,4.61 4.61,4.61 h 5.62 v -3.65 h -3.73 c -1.38,0.01 -1.89,-0.5 -1.89,-1.88 z"
   class="st0" />
			<path
   inkscape:connector-curvature="0"
   id="path4375"
   d="m 99.88,65.45 v -7.91 -1.32 c 0,-4.57 -2.77,-6.62 -8.47,-6.62 -6.97,0 -8.69,3.68 -8.8,7.94 h 4.69 v -0.19 c 0,-3.19 1.26,-4.32 4.11,-4.32 2.81,0 3.86,1.01 3.86,3.4 v 1.11 0.23 c -0.21,0.21 -0.54,0.34 -2.01,0.63 l -5.07,1.01 c -4.82,0.92 -6.2,3.27 -6.2,5.99 v 0.42 c 0,2.72 1.8,5.87 7.04,5.87 3.82,0 6.04,-1.55 7.29,-3.86 0.21,2.1 1.68,3.35 4.19,3.35 h 2.26 v -3.65 h -1.01 c -1.46,0.02 -1.88,-0.61 -1.88,-2.08 z m -4.4,-2.98 c 0,3.73 -2.39,5.83 -5.49,5.83 -2.26,0 -3.19,-1.26 -3.19,-3.02 0,-1.43 0.42,-2.64 2.98,-3.19 l 3.69,-0.71 c 1.47,-0.29 1.8,-0.42 2.01,-0.63 z"
   class="st0" />
		</g>
</svg>
