<?xml version="1.0" encoding="UTF-8"?>
<svg width="560px" height="430px" viewBox="0 0 560 430" version="1.1" xmlns="http://www.w3.org/2000/svg" xmlns:xlink="http://www.w3.org/1999/xlink">
    <title>Guillotina</title>
    <desc>REST Resource Database</desc>
    <defs></defs>
    <g id="Page-1" stroke="none" stroke-width="1" fill="none" fill-rule="evenodd">
        <g id="guillotina-logo">
            <g id="Logo" transform="translate(180.000000, 54.000000)" fill="#FF4400">
                <polygon id="Fill-1" points="180 109.4933 180 180.0003 20 180.0003 20 152.3643 0 157.7243 0 200.0003 200 200.0003 200 104.1343"></polygon>
                <path d="M0,0.0002 L0,137.0192 L200,83.5582 L200,0.0002 L0,0.0002 Z M20,20.0002 L180,20.0002 L180,68.2112 L20,111.0832 L20,20.0002 Z" id="Fill-2"></path>
                <circle id="Oval" cx="150" cy="150" r="12"></circle>
                <circle id="Oval" cx="110" cy="150" r="12"></circle>
            </g>
            <g id="Guillotina" transform="translate(49.000000, 305.000000)" fill="#242424">
                <path d="M37.0894,39.0236981 L72.0994,39.0236981 C72.0994,42.6463396 71.9494,45.9384151 71.6494,48.8969057 C71.3494,51.8538868 70.7494,54.6010566 69.8494,57.1369057 C68.5894,60.7006792 66.8794,63.8553962 64.7194,66.602566 C62.5594,69.3497358 60.0244,71.6440755 57.1144,73.4840755 C54.2044,75.3270943 51.0079,76.7293585 47.5309,77.6953962 C44.0509,78.661434 40.3879,79.1444528 36.5509,79.1444528 C31.2694,79.1444528 26.4544,78.2689811 22.1044,76.5180377 C17.7529,74.7686038 14.0179,72.3082264 10.8994,69.1369057 C7.7794,65.9670943 5.3494,62.1633208 3.6094,57.7270943 C1.8694,53.2878491 0.9994,48.3836981 0.9994,43.0101132 C0.9994,37.6969057 1.8544,32.821434 3.5644,28.3821887 C5.2744,23.9444528 7.7044,20.1557736 10.8544,17.0161509 C14.0044,13.8780377 17.7994,11.4327547 22.2394,9.68181132 C26.6809,7.92935849 31.6279,7.05388679 37.0894,7.05388679 C44.1694,7.05388679 50.3779,8.59350943 55.7194,11.6742642 C61.0594,14.752 65.2894,19.5218113 68.4109,25.9821887 L51.6709,32.9557736 C50.1094,29.2123774 48.0844,26.5270943 45.5944,24.8969057 C43.1044,23.266717 40.2694,22.4516226 37.0894,22.4516226 C34.4494,22.4516226 32.0509,22.9482264 29.8894,23.9444528 C27.7294,24.9406792 25.8844,26.3610566 24.3544,28.2010566 C22.8244,30.0440755 21.6229,32.2629434 20.7544,34.8576604 C19.8829,37.4553962 19.4494,40.3535094 19.4494,43.552 C19.4494,46.4501132 19.8244,49.1384151 20.5744,51.6123774 C21.3244,54.0878491 22.4494,56.2312453 23.9494,58.042566 C25.4494,59.8553962 27.3094,61.2576604 29.5309,62.2553962 C31.7479,63.2516226 34.3294,63.7497358 37.2694,63.7497358 C39.0079,63.7497358 40.6894,63.5535094 42.3094,63.1595472 C43.9309,62.7670943 45.3829,62.1346415 46.6759,61.2576604 C47.9644,60.3821887 49.0279,59.2501132 49.8694,57.861434 C50.7094,56.4742642 51.2779,54.7821887 51.5794,52.7897358 L37.0894,52.7897358 L37.0894,39.0236981 Z" id="Fill-1"></path>
                <path d="M98.01805,30.7836981 L98.01805,56.957283 C98.01805,62.6946415 100.77805,65.5595472 106.29955,65.5595472 C111.81805,65.5595472 114.57955,62.6946415 114.57955,56.957283 L114.57955,30.7836981 L130.86805,30.7836981 L130.86805,60.1255849 C130.86805,66.4063396 128.81155,71.1157736 124.70455,74.2538868 C120.59455,77.3935094 114.45805,78.9648302 106.29955,78.9648302 C98.13805,78.9648302 92.00305,77.3935094 87.89305,74.2538868 C83.78305,71.1157736 81.72955,66.4063396 81.72955,60.1255849 L81.72955,30.7836981 L98.01805,30.7836981 Z" id="Fill-4"></path>
                <path d="M140.85895,12.9417358 C140.85895,11.6738113 141.09595,10.4813585 141.57745,9.36286792 C142.05745,8.24890566 142.71595,7.26626415 143.55745,6.42098113 C144.39745,5.57569811 145.37245,4.91154717 146.48395,4.42701887 C147.59245,3.94550943 148.77745,3.70249057 150.03745,3.70249057 C151.29745,3.70249057 152.48245,3.94550943 153.59395,4.42701887 C154.70245,4.91154717 155.67745,5.57569811 156.51745,6.42098113 C157.35745,7.26626415 158.01745,8.24890566 158.49895,9.36286792 C158.97745,10.4813585 159.21895,11.6738113 159.21895,12.9417358 C159.21895,14.2096604 158.97745,15.4021132 158.49895,16.5175849 C158.01745,17.6360755 157.35745,18.6172075 156.51745,19.4624906 C155.67745,20.309283 154.70245,20.9719245 153.59395,21.4549434 C152.48245,21.9394717 151.29745,22.1779623 150.03745,22.1779623 C148.77745,22.1779623 147.59245,21.9394717 146.48395,21.4549434 C145.37245,20.9719245 144.39745,20.309283 143.55745,19.4624906 C142.71595,18.6172075 142.05745,17.6360755 141.57745,16.5175849 C141.09595,15.4021132 140.85895,14.2096604 140.85895,12.9417358" id="Fill-6"></path>
                <path d="M239.6758,53.7864151 C239.6758,55.3562264 239.9593,56.7901887 240.5293,58.0898113 C241.1008,59.3864151 241.8493,60.5184906 242.7793,61.4860377 C243.7108,62.450566 244.8193,63.205283 246.1108,63.7501887 C247.3993,64.2920755 248.7658,64.5637736 250.2073,64.5637736 C251.6443,64.5637736 253.0108,64.2920755 254.3008,63.7501887 C255.5908,63.205283 256.7008,62.450566 257.6308,61.4860377 C258.5608,60.5184906 259.3093,59.3864151 259.8808,58.0898113 C260.4508,56.7901887 260.7358,55.3879245 260.7358,53.8769811 C260.7358,52.429434 260.4508,51.0543396 259.8808,49.7562264 C259.3093,48.4581132 258.5608,47.3260377 257.6308,46.36 C256.7008,45.3939623 255.5908,44.6392453 254.3008,44.0958491 C253.0108,43.5524528 251.6443,43.2807547 250.2073,43.2807547 C248.7658,43.2807547 247.3993,43.5524528 246.1108,44.0958491 C244.8193,44.6392453 243.7108,45.3939623 242.7793,46.36 C241.8493,47.3260377 241.1008,48.4430189 240.5293,49.7109434 C239.9593,50.9788679 239.6758,52.3373585 239.6758,53.7864151 M222.4858,53.605283 C222.4858,50.165283 223.1743,46.9486792 224.5558,43.96 C225.9358,40.9728302 227.8558,38.3750943 230.3173,36.1713208 C232.7743,33.9675472 235.7008,32.2316981 239.0908,30.9637736 C242.4808,29.6958491 246.1858,29.0618868 250.2073,29.0618868 C254.1658,29.0618868 257.8408,29.6807547 261.2308,30.92 C264.6208,32.1577358 267.5608,33.8784906 270.0508,36.0822642 C272.5393,38.2845283 274.4743,40.9124528 275.8558,43.96 C277.2358,47.010566 277.9258,50.3766038 277.9258,54.0596226 C277.9258,57.7411321 277.2193,61.1086792 275.8108,64.1562264 C274.3993,67.205283 272.4658,69.8316981 270.0058,72.0354717 C267.5443,74.2407547 264.5908,75.9464151 261.1408,77.1509434 C257.6893,78.36 253.9558,78.965283 249.9358,78.965283 C245.9758,78.965283 242.3158,78.36 238.9573,77.1509434 C235.5943,75.9464151 232.7023,74.2241509 230.2693,71.9901887 C227.8408,69.7577358 225.9358,67.0860377 224.5558,63.9750943 C223.1743,60.8656604 222.4858,57.4075472 222.4858,53.605283" id="Fill-8"></path>
                <polygon id="Fill-10" points="305.7343 44.4570566 305.7343 77.2434717 289.4443 77.2434717 289.4443 44.4570566 284.0443 44.4570566 284.0443 30.7830943 289.4443 30.7830943 289.4443 16.8359245 305.7343 16.8359245 305.7343 30.7830943 315.0058 30.7830943 315.0058 44.4570566"></polygon>
                <path d="M322.3825,77.242717 L338.6725,77.242717 L338.6725,30.7838491 L322.3825,30.7838491 L322.3825,77.242717 Z M321.3025,12.9423396 C321.3025,11.6744151 321.541,10.4819623 322.0225,9.3634717 C322.5025,8.248 323.161,7.26686792 324.0025,6.42007547 C324.844,5.57630189 325.816,4.91064151 326.9275,4.42762264 C328.036,3.94611321 329.2225,3.70309434 330.4825,3.70309434 C331.7425,3.70309434 332.926,3.94611321 334.0375,4.42762264 C335.1475,4.91064151 336.1225,5.57630189 336.964,6.42007547 C337.801,7.26686792 338.4625,8.248 338.9425,9.3634717 C339.421,10.4819623 339.6625,11.6744151 339.6625,12.9423396 C339.6625,14.2087547 339.421,15.402717 338.9425,16.5181887 C338.4625,17.6366792 337.801,18.6163019 336.964,19.4630943 C336.1225,20.3083774 335.1475,20.9725283 334.0375,21.4540377 C332.926,21.9400755 331.7425,22.178566 330.4825,22.178566 C329.2225,22.178566 328.036,21.9400755 326.9275,21.4540377 C325.816,20.9725283 324.844,20.3083774 324.0025,19.4630943 C323.161,18.6163019 322.5025,17.6366792 322.0225,16.5181887 C321.541,15.402717 321.3025,14.2087547 321.3025,12.9423396 L321.3025,12.9423396 Z" id="Fill-12"></path>
                <path d="M349.83355,30.7836981 L366.12205,30.7836981 L366.12205,36.6689811 C368.34205,33.9535094 370.59205,32.1286038 372.87205,31.1912453 C375.15205,30.2538868 377.82205,29.7874717 380.88205,29.7874717 C384.12205,29.7874717 386.89705,30.3142642 389.20855,31.3708679 C391.51705,32.4289811 393.48355,33.9233208 395.10355,35.8538868 C396.42205,37.4252075 397.32055,39.1761509 397.80205,41.1082264 C398.28205,43.0403019 398.52205,45.2440755 398.52205,47.7180377 L398.52205,77.242566 L382.23355,77.242566 L382.23355,53.7859623 C382.23355,51.4931321 382.06555,49.6365283 381.73855,48.2161509 C381.40705,46.797283 380.82205,45.6652075 379.98355,44.8199245 C379.26205,44.0953962 378.45205,43.5836981 377.55205,43.2803019 C376.65205,42.9799245 375.69055,42.8274717 374.67205,42.8274717 C371.91205,42.8274717 369.79705,43.6576604 368.32705,45.3180377 C366.85705,46.9799245 366.12205,49.3482264 366.12205,52.4289811 L366.12205,77.242566 L349.83355,77.242566 L349.83355,30.7836981 Z" id="Fill-14"></path>
                <path d="M424.7104,53.8763774 C424.7104,55.3873208 424.9804,56.7910943 425.5204,58.0892075 C426.0604,59.3858113 426.7954,60.5178868 427.7254,61.485434 C428.6554,62.4514717 429.7639,63.2061887 431.0554,63.7495849 C432.3454,64.2914717 433.7404,64.5631698 435.2404,64.5631698 C436.6804,64.5631698 438.0454,64.2914717 439.3354,63.7495849 C440.6239,63.2061887 441.7354,62.4514717 442.6669,61.485434 C443.5954,60.5178868 444.3454,59.4009057 444.9169,58.1329811 C445.4854,56.8650566 445.7704,55.506566 445.7704,54.0590189 C445.7704,52.6084528 445.4854,51.2363774 444.9169,49.9382642 C444.3454,48.6401509 443.5954,47.5080755 442.6669,46.5420377 C441.7354,45.576 440.6239,44.8197736 439.3354,44.2778868 C438.0454,43.7329811 436.6804,43.4627925 435.2404,43.4627925 C433.7404,43.4627925 432.3454,43.7329811 431.0554,44.2778868 C429.7639,44.8197736 428.6554,45.576 427.7254,46.5420377 C426.7954,47.5080755 426.0604,48.6114717 425.5204,49.8461887 C424.9804,51.0839245 424.7104,52.4288302 424.7104,53.8763774 L424.7104,53.8763774 Z M445.2304,30.7835472 L461.6104,30.7835472 L461.6104,77.2424151 L445.2304,77.2424151 L445.2304,72.0816604 C441.7489,76.4876981 437.0419,78.6914717 431.1004,78.6914717 C427.7404,78.6914717 424.6504,78.0710943 421.8304,76.8363774 C419.0089,75.5986415 416.5519,73.861283 414.4504,71.6273208 C412.3504,69.3948679 410.7154,66.7684528 409.5469,63.7495849 C408.3754,60.730717 407.7919,57.4401509 407.7919,53.8763774 C407.7919,50.5571321 408.3604,47.4024151 409.5004,44.4122264 C410.6389,41.4235472 412.2304,38.8137358 414.2704,36.5797736 C416.3089,34.3458113 418.7404,32.5797736 421.5604,31.2801509 C424.3789,29.9835472 427.5004,29.3329811 430.9219,29.3329811 C436.6804,29.3329811 441.4504,31.3571321 445.2304,35.4009057 L445.2304,30.7835472 Z" id="Fill-15"></path>
                <polygon id="Fill-16" points="169.3882 11.7933585 169.3882 77.2424151 185.6767 77.2424151 185.6767 7.40090566"></polygon>
                <polygon id="Fill-17" points="196.8364 4.39245283 196.8364 77.2437736 213.1264 77.2437736 213.1264 0"></polygon>
                <polygon id="Fill-18" points="141.9385 34.8418113 141.9385 77.2433208 158.2285 77.2433208 158.2285 30.7844528 156.988 30.7844528"></polygon>
            </g>
        </g>
    </g>
</svg>