<svg id="Layer_1" data-name="Layer 1" xmlns="http://www.w3.org/2000/svg" viewBox="0 0 433.35 142.45"><title>lsst-logo-dark</title><path d="M384.26,138.66c-.76,1.08-.75,2.94-1.75,3.79H.72c.54-1.3,1-2.67,1.46-4.08h376a43.24,43.24,0,0,1,5.83,0C384.2,138.4,384.25,138.41,384.26,138.66Z" style="fill:#db1f26;fill-rule:evenodd"/><path d="M355.93,28.33c.72-2,1.75-4,2.33-6-3.46-.31-79.21-.45-85.74-.33-4.58.08-10.36.21-12.95,4.77a5.83,5.83,0,0,0-.14,5.69,8.9,8.9,0,0,0,4.22,3.3c2.07.95,15.13,4.65,15.66,4.79,13.75,3.15,27.81,6,37.87,12.82a46.24,46.24,0,0,1,6.93,7.64,33.18,33.18,0,0,1,1.26,3.47,18.53,18.53,0,0,1,.6,7.45,23.34,23.34,0,0,1-6.11,13.27c-6.42,6.94-16,10.61-24.87,13.08a163.26,163.26,0,0,1-31.63,5c-5.6.41-11.2.54-16.81.85-5.87.32-11.76.11-17.63,0-.38.09-9.5-.49-13.26-.87-.69.2-19.47-2.92-20-2.91-7.77-1.45-15.33-3.58-23-5.54a5,5,0,0,0-3.46.76c-1.47.7-3,1.31-4.49,1.88a65.08,65.08,0,0,1-11,3l-6.12,1c-10.87,1.85-21.83.82-32.78.77-11.21,0-34.61,0-35,.11-18.18,0-57.13-.13-57.54,0H12.15Q30,52.24,48.13,2.32H74.2c-2,5.38-16.71,46.52-17.9,49.74-.55,1.49-10,27.94-10.94,30.53,8.53.26,27.17.17,27.38.29H85.67l19.75-.06c.36,0,16.82-.21,17.43-.23a51.77,51.77,0,0,0,9-.44c2.35-.26,4.66-1.36,7-2,2.72-1.71,6-4.17,5.91-7.75-.12-4-4.26-6.29-7.46-7.61a81.34,81.34,0,0,0-12-3.59c-2.44-.59-9.83-2.19-11.07-2.48-.83-.19-15.47-4.14-16.37-4.42-.64-.2-5.2-2.08-6.76-2.84a33.61,33.61,0,0,1-5.19-2.63C78.57,45.5,76.37,36.17,78,28.86c1.86-8.47,8.67-14.12,16-17.94a84.6,84.6,0,0,1,8.78-4.13c2.41-.76,8.36-2.13,8.85-2.13,4.13-.78,8.24-1.56,12.53-2.18a15.9,15.9,0,0,0,2-.29,245.37,245.37,0,0,1,37-1.6c6.38.12,12.77.29,19.13.8s12.68,1.39,19,2.44c4.64.78,9.26,1.65,13.88,2.53,2.38.46,4.77.82,7.16,1.23,2.14.37,7.68,1.57,8.24,1.69a3.16,3.16,0,0,0,1.93-.39A51.44,51.44,0,0,1,237.29,7a98.47,98.47,0,0,1,10.08-2.72,90.09,90.09,0,0,1,10.38-1.59c1.85-.18,3.7-.26,5.55-.38,1.5-.1,33.93,0,33.93,0,5.74,0,116.47,0,135.62,0,.34,0-5.75,16-7.28,19.81-13,0-27.26,0-41.08,0-4.16,11.14-29,79-29.57,80.26H328.83Z" style="stroke:#fff;fill-rule:evenodd"/><g id="dmO4pr"><path d="M211.53,30.9c-.42,18.58,11.11,21.74,28.05,27.09,8.47,2.67,26,7,26.12,14.51.1,7.79-14.49,10.1-20.31,10.64-17.92,1.67-37.82-2-48.37-6.77-.54-17.88-10.78-24.85-27.08-30C160.82,43.51,142,42,141.88,33.8c-.19-10.49,26.59-10.42,37.73-9.67C194,25.09,202,27.73,211.53,30.9Z" style="fill:#fff;fill-rule:evenodd"/><path d="M227,23.16c2.92,4.12-2.07,7.2-1,12.58,5.79,12.1,22.38,12.56,38.69,16.44,13.13,3.13,34.09,7.3,34.82,20.32,1.08,19.18-35.33,22.38-53.2,23.21C219.17,97,196.82,92.4,181.54,84.1c1.66-15.58-3.6-22.83-17.41-28.05-13.64-5.16-55.12-5.45-58-20.31-3.67-18.68,26.38-23.21,39.66-24.18C176.88,9.26,208.33,14.11,227,23.16Zm-47.4,1c-11.14-.75-37.91-.81-37.73,9.67.14,8.16,18.94,9.7,28.05,12.58,16.31,5.14,26.55,12.1,27.08,30,10.54,4.75,30.45,8.44,48.37,6.77,5.82-.54,20.41-2.85,20.31-10.64C265.6,65,248.05,60.66,239.58,58c-16.94-5.35-28.47-8.51-28.05-27.09C202,27.73,194,25.09,179.61,24.13Z" style="fill:#3476bb;fill-rule:evenodd"/></g><g id="_252lNN" data-name="252lNN"><path d="M196.76,77.24c.31-24-19.86-27.69-39.44-33.43-7.07-2.07-18.1-5.36-18.24-11.14-.17-6.93,13.63-10.43,22.19-11.14,8.78-.74,19.34,0,29.09,1.52,7.36,1.12,20.79,2.3,23.67,7.09,1.57,2.62,1.38,9.45,2.46,12.16,5.45,13.57,22.46,14.8,38,19.75,7,2.24,16.12,5.68,16.27,12.16.19,8.54-12.72,11.48-21.2,12.16C230.25,87.88,207.33,86.4,196.76,77.24ZM167.18,34.69c4.31,4,18.35,6.76,26.13,12.16,7.95,5.52,12.65,12.75,14.3,24.82,4.92,3,10.55,3.92,18.73,5.06,5,.71,18.95,3.27,19.23-3,.25-5.63-14.19-7.57-19.72-10.13-10.92-5.06-20.79-14.71-22.19-27.35C202.43,32.62,164.91,25.52,167.18,34.69Z" style="fill:#bfdff1;fill-rule:evenodd"/></g><path d="M8.43,116.27h1.86L5.86,129.13H12l-.54,1.56h-8Z" style="fill:#fff"/><path d="M22.3,130.69l.3-1.3h-.06a5.58,5.58,0,0,1-3.69,1.54c-2.09,0-2.66-1.47-2.14-3,.86-2.5,3.56-3.87,7.55-3.85l.07-.21c.29-.85.59-2.39-1.53-2.39a6.68,6.68,0,0,0-3,.77V121a8.24,8.24,0,0,1,3.72-.92c3.16,0,3.19,2.16,2.48,4.23l-1.33,3.87a16.16,16.16,0,0,0-.68,2.48Zm1.54-5.28c-2,0-4.49.32-5.18,2.33-.42,1.22.19,1.8,1.15,1.8a3.92,3.92,0,0,0,3.1-1.73,2.72,2.72,0,0,0,.31-.6Z" style="fill:#fff"/><path d="M32.4,123.57c.42-1.22.76-2.27,1-3.23h1.65l-.63,2h.08a4.79,4.79,0,0,1,3.65-2.27,1.78,1.78,0,0,1,.51.06l-.61,1.77a2.64,2.64,0,0,0-.62-.06,4.1,4.1,0,0,0-3.35,2.41,6.87,6.87,0,0,0-.39.88l-1.9,5.52H29.95Z" style="fill:#fff"/><path d="M52.32,120.34c-.3.75-.63,1.58-1.06,2.84l-2.07,6c-.82,2.37-1.79,3.83-3.1,4.73a7.27,7.27,0,0,1-4.19,1.24,5.21,5.21,0,0,1-3.15-.86l1-1.43a4.44,4.44,0,0,0,2.76.81c1.92,0,3.68-1,4.58-3.61l.4-1.15h0a5.41,5.41,0,0,1-3.89,1.73c-2.57,0-3.65-2.18-2.67-5,1.21-3.51,4.18-5.49,6.55-5.49,1.8,0,2.46.94,2.61,1.8h0l.62-1.56ZM49,124.42a2.81,2.81,0,0,0,.19-.86,1.79,1.79,0,0,0-1.94-2c-1.79,0-3.6,1.52-4.43,3.91-.7,2-.25,3.72,1.78,3.72a4.2,4.2,0,0,0,3.27-1.92,4.35,4.35,0,0,0,.5-1Z" style="fill:#fff"/><path d="M57.58,125.85c-.83,2.54.43,3.59,2.31,3.59a8.21,8.21,0,0,0,3-.54l-.14,1.35a10.14,10.14,0,0,1-3.66.64c-3.19,0-4.37-2.1-3.29-5.22s3.76-5.58,6.77-5.58c3.38,0,3.25,3,2.6,4.88a9,9,0,0,1-.37.88Zm6-1.35c.43-1.2.56-3.06-1.55-3.06-1.9,0-3.34,1.75-3.94,3.06Z" style="fill:#fff"/><path d="M76.86,128.42a5,5,0,0,0,3,.94,3.89,3.89,0,0,0,3.86-2.46c.46-1.35,0-2.12-1.73-2.87-2.06-.83-3.1-2.05-2.4-4.08a6.28,6.28,0,0,1,6-3.91,5.18,5.18,0,0,1,2.94.71l-1,1.52a4.41,4.41,0,0,0-2.5-.68,3.52,3.52,0,0,0-3.46,2.16c-.46,1.35.18,2,1.91,2.78,2.11.94,2.95,2.12,2.22,4.23a6.55,6.55,0,0,1-6.47,4.15,5.78,5.78,0,0,1-3.36-.92Z" style="fill:#fff"/><path d="M94,120.34l.16,6.12c0,.68,0,1.5-.07,2.12h0c.41-.62.89-1.41,1.41-2.16l4.14-6.07h2l-5.36,7.38c-2.57,3.55-4.11,5.37-5.78,6.48a7.52,7.52,0,0,1-2.73,1.22l.07-1.58a7.53,7.53,0,0,0,2-.92,9.47,9.47,0,0,0,2.3-2.1,2,2,0,0,0,.3-.45,1.51,1.51,0,0,0,0-.49l-.54-9.54Z" style="fill:#fff"/><path d="M105.46,123.14c.37-1.07.65-1.95.88-2.8H108l-.48,1.71h0a5.66,5.66,0,0,1,4.09-1.95c1.43,0,3.36.86,2.14,4.4l-2.13,6.18h-1.88l2.05-6c.57-1.67.43-3.06-1.34-3.06a4.12,4.12,0,0,0-3.19,1.92,3.65,3.65,0,0,0-.43.88l-2.14,6.22h-1.88Z" style="fill:#fff"/><path d="M129,125.43a7.72,7.72,0,0,1-7,5.49c-2.8,0-4.25-2.05-3.13-5.32a7.73,7.73,0,0,1,7-5.49C128.8,120.1,130.06,122.26,129,125.43Zm-8.25.11c-.78,2.27-.07,4,1.77,4s3.72-1.69,4.53-4c.6-1.75.49-4-1.73-4S121.4,123.57,120.73,125.53Z" style="fill:#fff"/><path d="M135,123.72c.46-1.33.78-2.39,1.08-3.38h1.69l-.53,1.78h0a6,6,0,0,1,4.37-2c2.5,0,3.65,2.12,2.57,5.26-1.28,3.72-4.18,5.56-6.62,5.56A2.44,2.44,0,0,1,135,129.3h0L133,134.92h-1.86Zm.91,2.76a4.49,4.49,0,0,0-.18.77,1.92,1.92,0,0,0,2.06,2.2c2,0,3.7-1.63,4.52-4,.71-2.07.23-3.85-1.75-3.85a4.64,4.64,0,0,0-3.65,2.33,4.13,4.13,0,0,0-.39.77Z" style="fill:#fff"/><path d="M154.7,117.37l-1,3h2.69l-.49,1.43h-2.69l-1.92,5.58c-.44,1.28-.33,2,.72,2a4.72,4.72,0,0,0,1.14-.13l-.4,1.41a5.37,5.37,0,0,1-1.76.26,1.84,1.84,0,0,1-1.76-.79c-.34-.55-.22-1.47.2-2.69l1.94-5.64h-1.6l.49-1.43h1.6l.85-2.48Z" style="fill:#fff"/><path d="M158,130.69l3.56-10.35h1.88l-3.56,10.35Zm6.66-13.26a1.69,1.69,0,0,1-1.59,1.16c-.66,0-1-.51-.74-1.16a1.76,1.76,0,0,1,1.58-1.17C164.62,116.25,164.89,116.77,164.66,117.43Z" style="fill:#fff"/><path d="M173.59,130.3a8.51,8.51,0,0,1-3.18.6c-3.12,0-4.42-2.12-3.33-5.28a8,8,0,0,1,7.45-5.49,5,5,0,0,1,2.42.54l-.93,1.45a3.42,3.42,0,0,0-2-.49,5.48,5.48,0,0,0-5,3.91c-.82,2.4.21,3.87,2.26,3.87a6.62,6.62,0,0,0,2.49-.51Z" style="fill:#fff"/><path d="M186.94,128.42a5,5,0,0,0,3,.94,3.89,3.89,0,0,0,3.86-2.46c.46-1.35,0-2.12-1.73-2.87-2.06-.83-3.1-2.05-2.4-4.08a6.28,6.28,0,0,1,6-3.91,5.18,5.18,0,0,1,2.94.71l-1,1.52a4.41,4.41,0,0,0-2.5-.68,3.52,3.52,0,0,0-3.46,2.16c-.46,1.35.18,2,1.91,2.78,2.11.94,2.95,2.12,2.22,4.23a6.55,6.55,0,0,1-6.47,4.15,5.78,5.78,0,0,1-3.36-.92Z" style="fill:#fff"/><path d="M209.59,127.86c-.37,1.07-.67,2-.89,2.82H207l.47-1.69h0a5.81,5.81,0,0,1-4.08,1.92c-1.62,0-3.26-.9-2-4.53l2.08-6.05h1.88l-2,5.73c-.68,2-.54,3.29,1.17,3.29a4.16,4.16,0,0,0,3.07-1.71,3.75,3.75,0,0,0,.5-1l2.19-6.35h1.88Z" style="fill:#fff"/><path d="M217.27,123.57c.42-1.22.76-2.27,1-3.23h1.65l-.63,2h.09A4.79,4.79,0,0,1,223,120.1a1.78,1.78,0,0,1,.51.06l-.61,1.77a2.64,2.64,0,0,0-.62-.06,4.1,4.1,0,0,0-3.35,2.41,7,7,0,0,0-.39.88l-1.9,5.52h-1.86Z" style="fill:#fff"/><path d="M229.71,120.34l0,5.82a23.16,23.16,0,0,1-.08,2.65h.06c.53-.85,1.12-1.71,1.79-2.65l4-5.82h2l-7.62,10.35h-1.79l-.37-10.35Z" style="fill:#fff"/><path d="M241.28,125.85c-.83,2.54.43,3.59,2.31,3.59a8.21,8.21,0,0,0,3-.54l-.14,1.35a10.15,10.15,0,0,1-3.66.64c-3.19,0-4.37-2.1-3.29-5.22s3.76-5.58,6.77-5.58c3.38,0,3.25,3,2.6,4.88a8.86,8.86,0,0,1-.37.88Zm6-1.35c.43-1.2.56-3.06-1.55-3.06-1.9,0-3.34,1.75-3.94,3.06Z" style="fill:#fff"/><path d="M256.6,120.34l.16,6.12c0,.68,0,1.5-.07,2.12h0c.41-.62.89-1.41,1.41-2.16l4.14-6.07h2l-5.36,7.38c-2.57,3.55-4.11,5.37-5.78,6.48a7.52,7.52,0,0,1-2.73,1.22l.07-1.58a7.53,7.53,0,0,0,2-.92,9.48,9.48,0,0,0,2.3-2.1,2,2,0,0,0,.3-.45,1.51,1.51,0,0,0,0-.49l-.54-9.54Z" style="fill:#fff"/><path d="M279.45,117.86h-4.38l.54-1.58h10.67l-.54,1.58h-4.4l-4.42,12.83H275Z" style="fill:#fff"/><path d="M287.13,125.85c-.83,2.54.43,3.59,2.31,3.59a8.21,8.21,0,0,0,3-.54l-.14,1.35a10.15,10.15,0,0,1-3.66.64c-3.19,0-4.37-2.1-3.29-5.22s3.76-5.58,6.77-5.58c3.38,0,3.25,3,2.6,4.88a8.86,8.86,0,0,1-.37.88Zm6-1.35c.43-1.2.56-3.06-1.55-3.06-1.9,0-3.34,1.75-3.94,3.06Z" style="fill:#fff"/><path d="M303.43,115.5h1.88l-5.23,15.18H298.2Z" style="fill:#fff"/><path d="M309,125.85c-.83,2.54.43,3.59,2.31,3.59a8.22,8.22,0,0,0,3.05-.54l-.14,1.35a10.14,10.14,0,0,1-3.66.64c-3.19,0-4.37-2.1-3.29-5.22s3.76-5.58,6.77-5.58c3.38,0,3.25,3,2.6,4.88a9.06,9.06,0,0,1-.37.88Zm6-1.35c.43-1.2.56-3.06-1.55-3.06-1.9,0-3.34,1.75-3.94,3.06Z" style="fill:#fff"/><path d="M320.52,128.76a3.67,3.67,0,0,0,2.22.75,2.5,2.5,0,0,0,2.54-1.54c.31-.9-.06-1.39-1.27-1.9-1.63-.66-2.15-1.69-1.73-2.93a4.84,4.84,0,0,1,4.62-3,4,4,0,0,1,2.32.64l-.94,1.37a3,3,0,0,0-1.91-.6,2.28,2.28,0,0,0-2.22,1.41c-.29.86.19,1.24,1.36,1.75,1.56.68,2.17,1.58,1.64,3.12a5,5,0,0,1-4.94,3.1,4.61,4.61,0,0,1-2.66-.71Z" style="fill:#fff"/><path d="M339.16,130.3a8.51,8.51,0,0,1-3.18.6c-3.12,0-4.42-2.12-3.33-5.28a8,8,0,0,1,7.45-5.49,5,5,0,0,1,2.42.54l-.93,1.45a3.42,3.42,0,0,0-2-.49,5.48,5.48,0,0,0-5,3.91c-.83,2.4.21,3.87,2.26,3.87a6.62,6.62,0,0,0,2.49-.51Z" style="fill:#fff"/><path d="M355.36,125.43a7.72,7.72,0,0,1-7,5.49c-2.8,0-4.25-2.05-3.12-5.32a7.73,7.73,0,0,1,7-5.49C355.18,120.1,356.45,122.26,355.36,125.43Zm-8.25.11c-.78,2.27-.06,4,1.77,4s3.72-1.69,4.53-4c.6-1.75.49-4-1.73-4S347.79,123.57,347.11,125.53Z" style="fill:#fff"/><path d="M361.4,123.72c.46-1.33.78-2.39,1.08-3.38h1.69l-.53,1.78h0a6,6,0,0,1,4.37-2c2.5,0,3.65,2.12,2.57,5.26-1.28,3.72-4.18,5.56-6.62,5.56a2.44,2.44,0,0,1-2.62-1.62h0l-1.94,5.62h-1.86Zm.91,2.76a4.38,4.38,0,0,0-.18.77,1.92,1.92,0,0,0,2.06,2.2c2,0,3.7-1.63,4.52-4,.71-2.07.23-3.85-1.75-3.85a4.64,4.64,0,0,0-3.64,2.33,4.14,4.14,0,0,0-.39.77Z" style="fill:#fff"/><path d="M376.95,125.85c-.83,2.54.43,3.59,2.31,3.59a8.22,8.22,0,0,0,3.05-.54l-.14,1.35a10.14,10.14,0,0,1-3.66.64c-3.19,0-4.37-2.1-3.29-5.22S379,120.1,382,120.1c3.38,0,3.25,3,2.6,4.88a9.06,9.06,0,0,1-.37.88Zm6-1.35c.43-1.2.56-3.06-1.55-3.06-1.9,0-3.34,1.75-3.94,3.06Z" style="fill:#fff"/></svg>