<?xml version="1.0" encoding="UTF-8"?><svg version="1.1" xmlns="http://www.w3.org/2000/svg" xmlns:xlink="http://www.w3.org/1999/xlink" x="0px" y="0px" viewBox="0 0 1600 1200" style="enable-background:new 0 0 1600 1200;" xml:space="preserve" width="1600px" height="1200px">

<g id="background">
	<g>
		<g>
			<path d="M1361.6,969.1c-6.8-8.5-11.9-18.1-16.2-28c-2.1-4.9-4.1-10-6-15c-0.9-2.4-1.9-4.7-2.6-7.1
				c-0.8-2.5-1.1-3.8,0.1-6.2c0-1.7,0.7-2.4,2-2.2c1.1-0.3,1.8,0.2,2.2,1.5c1-0.1,2-0.3,2.9-0.4c-6-18.1-9.9-36.8-11.6-55.7
				c-0.8-9.2-1.1-18.5-0.9-27.8c0.1-4.3,0.3-8.6,0.7-13c0.1-1.7-0.1-6.5,0.9-7.9c1.1-0.3,2.1-0.6,3.2-0.8c1.8-1.5,3.2-1.5,4.1,0.1
				c1.1,0.9,1.8,2.5,2.5,3.7c18.3,30.4,30.5,64.7,36.4,99.6c3.4,20.1,4.7,40.4,3.8,60.8c-0.1,1.9,2.9,1.9,3,0
				c1.6-40.5-5.1-81.2-19.8-119c-3.7-9.4-7.8-18.6-12.4-27.6c-2.1-4.2-4.4-8.3-6.7-12.3c-1.9-3.3-3.8-7.3-7-9.5
				c-6.2-4.2-9.8,1.8-10.5,7.3c-1.3,10.4-1.5,21-1.2,31.5c0.7,24.3,4.9,48.3,12.5,71.3c0.5,1.6,3,1.4,2.9-0.4c0-4-4.5-5.7-7.9-4
				c-6,2.9-2.6,11.2-1,15.6c6.2,16.8,12.9,33.4,24.2,47.5C1360.7,972.8,1362.8,970.6,1361.6,969.1L1361.6,969.1z" style="fill:#E8E8E8;"/>
		</g>
	</g>
	<g>
		<g>
			<path d="M1379.2,894.3c0.8-13.3,2.5-26.5,5.4-39.6c1.4-6.1,2.9-12.2,4.8-18.2c0.9-3,1.9-6,2.9-8.9
				c0.5-1.5,1-3,1.6-4.4c0.2-0.6,0.4-1.2,0.7-1.8c0.4-2.1,1.8-3.3,4.1-3.7c-0.2,1.7,2.5,2,2.9,0.4c2-6.6,18.2-49.1,28.1-41.8
				c2.9,2.1,3.7,7,4.2,10.3c0.8,4.6,1.5,9.3,2,13.9c0.9,7.9,1.5,15.8,1.7,23.8c0.9,32.5-4,65.2-14.4,96.1
				c-6,17.7-13.8,34.6-23.2,50.7c-1,1.7,1.6,3.2,2.6,1.5c18.9-32.2,31-68,35.8-104.9c2.4-18.6,3-37.4,1.6-56.1
				c-0.7-8.9-1.7-17.8-3.3-26.6c-0.9-4.8-3.1-11.9-8.8-12.8c-7.5-1.2-13.3,11.2-16.3,16.2c-5.5,9.1-9.7,18.8-12.8,28.9
				c1,0.1,2,0.3,2.9,0.4c0.6-4.8-5.4-5.1-7.8-2c-1.8,2.3-2.6,5.7-3.5,8.4c-1.7,4.7-3.2,9.5-4.6,14.3c-5.3,18.2-8.4,36.9-9.5,55.8
				C1376.1,896.2,1379.1,896.2,1379.2,894.3L1379.2,894.3z" style="fill:#E8E8E8;"/>
		</g>
	</g>
	<g>
		<g>
			<path d="M1332.2,806.2c21.8,50.9,35.5,105,40.5,160.1c0.2,1.9,3.2,1.9,3,0c-5.1-55.7-18.9-110.2-40.9-161.7
				C1334,802.9,1331.4,804.5,1332.2,806.2L1332.2,806.2z" style="fill:#E8E8E8;"/>
		</g>
	</g>
	<g>
		<g>
			<path d="M1331.6,872.1c10.4,5.2,20,11.7,28.7,19.3c1.4,1.3,3.6-0.8,2.1-2.1c-9-7.8-18.7-14.4-29.4-19.8
				C1331.4,868.7,1329.8,871.3,1331.6,872.1L1331.6,872.1z" style="fill:#E8E8E8;"/>
		</g>
	</g>
	<g>
		<g>
			<path d="M1359.4,842.8c-2.8,5.5-4.9,11.3-6.2,17.4c-0.4,1.9,2.5,2.7,2.9,0.8c1.3-5.8,3.2-11.4,5.9-16.7
				C1362.9,842.6,1360.3,841.1,1359.4,842.8L1359.4,842.8z" style="fill:#E8E8E8;"/>
		</g>
	</g>
	<g>
		<g>
			<path d="M1424.8,778.6c-6.5,58.1-13.6,118.1-41.9,170.3c-0.9,1.7,1.7,3.2,2.6,1.5c28.6-52.7,35.7-113.1,42.3-171.8
				C1428,776.7,1425,776.7,1424.8,778.6L1424.8,778.6z" style="fill:#E8E8E8;"/>
		</g>
	</g>
	<g>
		<g>
			<path d="M1387.4,835.5c8,18.8,13.9,38.3,17.8,58.3c0.4,1.9,3.3,1.1,2.9-0.8c-4-20.3-10.1-40-18.1-59
				C1389.2,832.2,1386.7,833.7,1387.4,835.5L1387.4,835.5z" style="fill:#E8E8E8;"/>
		</g>
	</g>
	<g>
		<g>
			<path d="M1417.5,850.6c7.5-9.5,15-19,22.5-28.4c1.2-1.5-0.9-3.6-2.1-2.1c-7.5,9.5-15,19-22.5,28.4
				C1414.2,849.9,1416.3,852.1,1417.5,850.6L1417.5,850.6z" style="fill:#E8E8E8;"/>
		</g>
	</g>
	<g>
		<g>
			<path d="M174.8,955.8c-6.5-7-13.1-14.2-18.4-22.2c-2.5-3.9-4.8-7.9-6.6-12.2c-1-2.4-5.7-15.2,0.8-12.6
				c1.6,0.6,2.3-1.5,1.5-2.5c-6.6-8.4-11-18.2-14.8-28.1c-3.6-9.4-7.1-18.9-10.4-28.4c-3.6-10.4-6.7-21.1-7.9-32
				c-0.9-8.6-1.8-20.4,4.4-27.5c9.1-10.3,18.3,6.7,22.6,13.1c5.8,8.6,11.5,17.4,17,26.2c10.9,17.9,20.8,36.5,28.1,56.3
				c8.3,22.6,12.9,46.5,11.8,70.6c-0.1,1.9,2.9,1.9,3,0c2.2-48.8-18.7-94.3-44.2-134.7c-6.3-9.9-12.6-19.9-19.5-29.4
				c-3.9-5.3-10.1-10.8-17.1-7.3c-6.4,3.1-8.8,11.4-9.4,17.9c-1.1,11.8,1.2,23.8,4.4,35.1c3.6,12.8,8.5,25.2,13.1,37.6
				c4.3,11.6,9.1,22.9,16.8,32.7c0.5-0.8,1-1.7,1.5-2.5c-2.6-1-4.9-0.7-7.1,0.9c-0.4,0.3-0.8,0.8-0.7,1.3
				c2.2,20.2,15.9,35.7,29.1,49.9C174,959.4,176.1,957.3,174.8,955.8L174.8,955.8z" style="fill:#E8E8E8;"/>
		</g>
	</g>
	<g>
		<g>
			<path d="M183,860.7c-3.1-28,0.6-56.1,10.8-82.4c-0.8,0.2-1.7,0.4-2.5,0.7c3.1,2.8,5.2,6,6.4,10
				c0.4,1.4,2.5,1.5,2.9,0c6.8-23.6,16.7-46.1,29.7-67c-0.9-0.1-1.8-0.2-2.7-0.4c7.8,19.9,12.7,40.9,14.3,62.3
				c1.4,19.2,1.9,41.3-9.8,57.6c-0.6,0.8,0,2,0.9,2.2c9,2.1,6.3,16.3,5.5,22.7c-1.2,10.6-3,21.2-5.3,31.6
				c-4.4,20.1-10.8,39.8-18.9,58.7c-0.8,1.8,1.8,3.3,2.6,1.5c9.5-22,16.6-45,21.1-68.5c2-10.8,4.3-22.2,4.5-33.2
				c0.1-6.3-1.5-14.2-8.6-15.8c0.3,0.7,0.6,1.5,0.9,2.2c11.7-16.3,11.5-38.1,10.3-57.3c-1.4-22.3-6.4-44.2-14.5-64.9
				c-0.5-1.2-2-1.5-2.7-0.4c-13.1,21.1-23.1,43.8-30,67.7c1,0,1.9,0,2.9,0c-1.4-4.5-3.7-8.1-7.2-11.3c-0.9-0.8-2.1-0.4-2.5,0.7
				c-10.3,26.5-14,55-10.9,83.2C180.2,862.6,183.2,862.6,183,860.7L183,860.7z" style="fill:#E8E8E8;"/>
		</g>
	</g>
	<g>
		<g>
			<path d="M124.5,789.8c13.9,27.5,28.1,54.9,41.4,82.7c13,27.4,24.5,55.7,30.7,85.5c0.4,1.9,3.3,1.1,2.9-0.8
				c-6.2-29.5-17.4-57.4-30.3-84.6c-13.4-28.4-28-56.3-42.2-84.4C126.2,786.6,123.6,788.1,124.5,789.8L124.5,789.8z" style="fill:#E8E8E8;"/>
		</g>
	</g>
	<g>
		<g>
			<path d="M228.2,725.8c-2.1,29.7-11.3,58.1-18.1,86.9c-6.8,28.8-11.5,58.1-14.1,87.6c-0.2,1.9,2.8,1.9,3,0
				c2.7-30.5,7.7-60.8,14.9-90.5c6.8-27.8,15.2-55.3,17.3-84C231.3,723.8,228.3,723.8,228.2,725.8L228.2,725.8z" style="fill:#E8E8E8;"/>
		</g>
	</g>
	<g>
		<g>
			<path d="M122.9,847.1c15.1,5.1,28.9,12.9,41.2,23.1c1.5,1.2,3.6-0.9,2.1-2.1c-12.7-10.5-26.9-18.5-42.5-23.9
				C121.8,843.5,121,846.4,122.9,847.1L122.9,847.1z" style="fill:#E8E8E8;"/>
		</g>
	</g>
	<g>
		<g>
			<path d="M190.4,780.7c3.4,18.1,8.4,35.9,14.9,53.1c0.7,1.8,3.6,1,2.9-0.8c-6.5-17.3-11.4-35-14.9-53.1
				C192.9,778,190.1,778.8,190.4,780.7L190.4,780.7z" style="fill:#E8E8E8;"/>
		</g>
	</g>
	<g>
		<g>
			<path d="M201.2,906.9c10.8-14.2,21.9-28.5,37.7-37.4c1.7-0.9,0.2-3.5-1.5-2.6c-16.2,9.2-27.7,23.9-38.8,38.5
				C197.5,906.9,200.1,908.4,201.2,906.9L201.2,906.9z" style="fill:#E8E8E8;"/>
		</g>
	</g>
	<g>
		<g>
			<path d="M1241.2,974.5c84.1,0,168.3,0,252.4,0c3.9,0,3.9-6,0-6c-84.1,0-168.3,0-252.4,0C1237.3,968.5,1237.3,974.5,1241.2,974.5
				L1241.2,974.5z"/>
		</g>
	</g>
	<g>
		<g>
			<path d="M327.7,954.5c-66,0-132,0-198,0c-3.9,0-3.9,6,0,6c66,0,132,0,198,0C331.5,960.5,331.5,954.5,327.7,954.5L327.7,954.5z"/>
		</g>
	</g>
	<g>
		<g>
			<path d="M999.9,1023.3c91.2,0,182.4,0,273.6,0c26,0,51.9,0,77.9,0c3.9,0,3.9-6,0-6c-91.2,0-182.4,0-273.6,0c-26,0-51.9,0-77.9,0
				C996.1,1017.3,996,1023.3,999.9,1023.3L999.9,1023.3z"/>
		</g>
	</g>
</g>
<g id="banner">
	<path d="M1215.8,976.1c-291-5.8-582-11.6-873-17.4c-52.1-1-88.5-51.9-72.7-101.5l179.7-565.4
		c10.2-32.1,40-54.1,73.7-54.3c269.3-1.9,538.6-3.9,807.9-5.8c49.2-0.4,86.5,44.5,77,92.8l-114.7,588.6
		C1286.6,950.3,1253.7,976.9,1215.8,976.1z" style="fill:#EC615B;stroke:#000000;stroke-width:6;stroke-miterlimit:10;"/>
	<path d="M1210.2,971.2c-291-5.5-582-10.9-873-16.4c-52.1-1-88.5-49-72.7-95.8l179.7-533.7c10.2-30.3,40-51,73.7-51.3
		c269.3-1.8,538.6-3.7,807.9-5.5c49.2-0.3,86.5,42,77,87.6l-114.7,555.7C1281,946.8,1248.1,971.9,1210.2,971.2z" style="fill:#FFFFFF;stroke:#000000;stroke-width:6;stroke-miterlimit:10;"/>
	<g>
		<g>
			<path d="M1284.8,926.7c-9.6,21.1-28.1,37-50.4,43.2c-1.9,0.5-1.1,3.4,0.8,2.9c23-6.4,42.3-22.9,52.2-44.6
				C1288.1,926.5,1285.6,924.9,1284.8,926.7L1284.8,926.7z"/>
		</g>
	</g>
	<g>
		<g>
			<path d="M531.2,259.6c-3-0.3-4.1-3.5-3.3-6.1c1.1-3.3,4.3-4,7.3-2.5c2.1,1.1,3.2,3.7,2.3,6c-1,2.5-3.9,3.3-6.3,2.4
				c-1.8-0.7-2.6,2.2-0.8,2.9c3.9,1.5,8.7-0.5,10.1-4.6c1.4-4.4-1.4-8.7-5.6-10c-4.7-1.4-8.8,0.8-10,5.7c-1,4.5,1.8,8.7,6.3,9.2
				C533.1,262.8,533.1,259.8,531.2,259.6L531.2,259.6z"/>
		</g>
	</g>
	<path d="M527.7,257.2c1.2,3.1,5.6,4.1,8.2,2.2c1.7-1.3,2.5-3.8,1.7-6c-0.9-2.4-3.5-3.8-5.8-3.4
		C528.6,250.6,526.5,254.3,527.7,257.2z" style="fill:#FFFFFF;"/>
	<g>
		<g>
			<path d="M565,258.7c-3-0.3-4.1-3.5-3.3-6.1c1.1-3.3,4.3-4,7.3-2.5c2.1,1.1,3.2,3.7,2.3,6c-1,2.5-3.9,3.3-6.3,2.4
				c-1.8-0.7-2.6,2.2-0.8,2.9c3.9,1.5,8.7-0.5,10.1-4.6c1.4-4.4-1.4-8.7-5.6-10c-4.7-1.4-8.8,0.8-10,5.7c-1,4.5,1.8,8.7,6.3,9.2
				C566.9,261.9,566.9,258.9,565,258.7L565,258.7z"/>
		</g>
	</g>
	<path d="M561.5,256.3c1.2,3.1,5.6,4.1,8.2,2.2c1.7-1.3,2.5-3.8,1.7-6c-0.9-2.4-3.5-3.8-5.8-3.4
		C562.4,249.7,560.3,253.4,561.5,256.3z" style="fill:none;stroke:#000000;stroke-miterlimit:10;"/>
	<g>
		<g>
			<path d="M529.2,251c1.4,3.1,3,6.1,4.9,9c1,1.6,3.6,0.1,2.6-1.5c-1.8-2.9-3.4-5.9-4.9-9C531,247.8,528.4,249.3,529.2,251
				L529.2,251z"/>
		</g>
	</g>
	<g>
		<g>
			<path d="M529.5,260c1.4-1.2,2.7-2.5,4.1-3.7c1.2-1.1,2.4-2.4,3.9-3.2c1.7-0.9,0.2-3.5-1.5-2.6c-1.5,0.8-2.7,2.1-4,3.3
				c-1.5,1.4-3.1,2.8-4.6,4.2C526,259.2,528.1,261.3,529.5,260L529.5,260z"/>
		</g>
	</g>
	<path d="M900.9,327.5c-8.9,28.6-17.9,57.3-26.8,85.9c-5.5,17.8,7.6,35.8,26.2,36.1c124.1,1.5,248.1,2.9,372.2,4.4
		c13.6,0.2,25.3-9.6,27.7-23c5.3-30.4,10.7-60.8,16-91.2c3-17-10.1-32.6-27.4-32.6c-120.5,0.3-241,0.6-361.4,0.9
		C915.3,308,904.5,315.9,900.9,327.5z" style="fill:#FFFFFF;stroke:#000000;stroke-width:3;stroke-miterlimit:10;"/>
	<path d="M424.7,726.2c-17.3,49.7-34.6,99.4-51.9,149.1c-10.7,30.8,14.7,62.2,50.7,62.6c240.2,2.5,480.5,5.1,720.7,7.6
		c26.4,0.3,49.1-16.6,53.6-39.9c10.4-52.7,20.7-105.5,31.1-158.2c5.8-29.6-19.6-56.6-53.1-56.6c-233.3,0.5-466.6,1-699.9,1.5
		C452.4,692.4,431.7,706.1,424.7,726.2z" style="fill:#FFFFFF;stroke:#000000;stroke-width:3;stroke-miterlimit:10;"/>
	<g>
		<g>
			<path d="M938.5,498.8c-16.1,48.2-32.2,96.4-48.3,144.6c-0.6,1.8,2.3,2.6,2.9,0.8c16.1-48.2,32.2-96.4,48.3-144.6
				C942,497.7,939.1,496.9,938.5,498.8L938.5,498.8z" style="fill:#E8E8E8;"/>
		</g>
	</g>
	<g>
		<g>
			<path d="M940.4,499.1c41.8-2.2,83.8-5.6,125.7-5.6c41.7,0,83.3,3.6,124.8,7.2c1.9,0.2,1.9-2.8,0-3
				c-41.5-3.6-83.1-7.1-124.8-7.2c-41.9,0-83.9,3.4-125.7,5.6C938.5,496.2,938.4,499.2,940.4,499.1L940.4,499.1z" style="fill:#E8E8E8;"/>
		</g>
	</g>
	<g>
		<g>
			<path d="M1190.4,500.6c-11.2,47.8-22.5,95.5-33.7,143.3c-0.4,1.9,2.5,2.7,2.9,0.8c11.2-47.8,22.5-95.5,33.7-143.3
				C1193.7,499.6,1190.8,498.8,1190.4,500.6L1190.4,500.6z" style="fill:#E8E8E8;"/>
		</g>
	</g>
	<g>
		<g>
			<path d="M892,648.6c68.6-3.7,137.3-4.6,206-2.5c19.6,0.6,39.1,1.4,58.7,2.5c1.9,0.1,1.9-2.9,0-3
				c-68.6-3.8-137.3-4.6-206-2.5c-19.6,0.6-39.1,1.4-58.7,2.5C890.1,645.7,890,648.7,892,648.6L892,648.6z" style="fill:#E8E8E8;"/>
		</g>
	</g>
	<g>
		<g>
			<path d="M1025.2,643.5c42.8-22.3,91.7-25.6,139-28.5c1.9-0.1,1.9-3.1,0-3c-47.8,3-97.2,6.4-140.5,28.9
				C1021.9,641.8,1023.4,644.4,1025.2,643.5L1025.2,643.5z" style="fill:#E8E8E8;"/>
		</g>
	</g>
	<g>
		<g>
			<path d="M1093.5,548.3c4.7,22.9,7.1,46.2,7.2,69.6c0,1.9,3,1.9,3,0c-0.2-23.7-2.6-47.2-7.3-70.4
				C1096,545.6,1093.1,546.4,1093.5,548.3L1093.5,548.3z" style="fill:#E8E8E8;"/>
		</g>
	</g>
	<g>
		<g>
			<path d="M1092.4,547.8c-6.1,8.9-12.1,17.9-18.2,26.8c0.9,0.3,1.9,0.5,2.8,0.8c-0.5-9,1.8-17.4,6.9-24.8
				c1.1-1.6-1.5-3.1-2.6-1.5c-5.4,7.8-7.9,16.9-7.4,26.3c0.1,1.5,1.9,2,2.8,0.8c6.1-8.9,12.1-17.9,18.2-26.8
				C1096.1,547.7,1093.5,546.2,1092.4,547.8L1092.4,547.8z" style="fill:#E8E8E8;"/>
		</g>
	</g>
	<g>
		<g>
			<path d="M1082.3,547c-3.4-1.5-6.8-2.2-10.5-2c-2.2,0.1-11.1,2.8-9.8-0.5c0.5-1.3,3.3-3,4.4-3.9
				c2.1-1.7,4.3-3.3,6.6-4.6c5.1-2.9,10.8-4.3,16.6-3.4c1.9,0.3,2.7-2.6,0.8-2.9c-11.6-1.8-23.7,4.5-31.2,13.2
				c-2,2.3-1.7,5.5,1.6,6.5c1.8,0.5,3.8-0.2,5.5-0.6c4.9-1.1,9.7-1.5,14.5,0.6C1082.5,550.4,1084,547.8,1082.3,547L1082.3,547z" style="fill:#E8E8E8;"/>
		</g>
	</g>
	<g>
		<g>
			<path d="M1092.3,529.5c3.8-9,11.3-15.6,20.6-18.4c-0.5-0.8-1-1.7-1.5-2.5c-3.4,4.4-5.4,9.2-6.1,14.7
				c-0.2,1.9,2.8,1.9,3,0c0.6-4.7,2.4-8.9,5.2-12.6c0.8-1.1,0.1-3-1.5-2.5c-10.4,3.1-18.5,10.5-22.7,20.5
				C1088.7,530.5,1091.6,531.3,1092.3,529.5L1092.3,529.5z" style="fill:#E8E8E8;"/>
		</g>
	</g>
	<g>
		<g>
			<path d="M1107.5,525.1c7.8-4.5,17-4.6,24.9-0.3c0-0.9,0-1.7,0-2.6c-6.3,3-12.3,6.6-18,10.6c-1.6,1.1-0.1,3.7,1.5,2.6
				c5.7-4,11.7-7.6,18-10.6c1-0.5,0.9-2.1,0-2.6c-8.9-4.9-19.2-4.8-27.9,0.3C1104.3,523.5,1105.8,526.1,1107.5,525.1L1107.5,525.1z" style="fill:#E8E8E8;"/>
		</g>
	</g>
	<g>
		<g>
			<path d="M1113.3,535.6c6.5,3.6,12.8,9.5,11,17.7c0.9-0.1,1.8-0.2,2.7-0.4c-4.2-6.7-11.4-10.5-19.3-10.2
				c-1.9,0.1-1.9,3.1,0,3c6.9-0.3,13.1,2.9,16.7,8.7c0.6,1,2.5,1,2.7-0.4c2-9.5-4.6-16.8-12.4-21.1
				C1113.1,532.1,1111.6,534.7,1113.3,535.6L1113.3,535.6z" style="fill:#E8E8E8;"/>
		</g>
	</g>
	<g>
		<g>
			<path d="M1105.1,545.2c4.6,24,6.3,48.3,5,72.7c-0.1,1.9,2.9,1.9,3,0c1.3-24.6-0.4-49.3-5.1-73.5
				C1107.6,542.5,1104.7,543.3,1105.1,545.2L1105.1,545.2z" style="fill:#E8E8E8;"/>
		</g>
	</g>
	<g>
		<g>
			<path d="M1101.8,592.3c3.3,0.4,6.4-0.2,9.4-1.5c1.8-0.8,0.2-3.4-1.5-2.6c-2.5,1.2-5.2,1.5-7.9,1.1
				C1099.9,589,1099.9,592,1101.8,592.3L1101.8,592.3z" style="fill:#E8E8E8;"/>
		</g>
	</g>
	<g>
		<g>
			<path d="M905,607.7c16.4,1,33,1.3,49.3,3.2c8,0.9,15.7,3.3,23.6,4.5c7.7,1.1,15.2,0,22.9-1.4
				c33.7-5.9,67.6-2.7,101.3,0.9c1.9,0.2,1.9-2.8,0-3c-32.6-3.5-65.7-6.9-98.3-1.5c-9.2,1.5-17.9,3.3-27.2,1.7
				c-7.5-1.3-14.7-3.3-22.2-4.2c-16.3-1.9-32.9-2.2-49.3-3.2C903.1,604.5,903.1,607.5,905,607.7L905,607.7z" style="fill:#E8E8E8;"/>
		</g>
	</g>
	<g>
		<g>
			<path d="M1098.3,571.6c0.4,1.7,2.1,2.1,3.7,1.8c3.1-0.5,6.3-1.6,9.3-2.5c1.9-0.5,1.1-3.4-0.8-2.9
				c-1.8,0.5-3.6,1-5.4,1.4c-0.8,0.2-1.7,0.4-2.5,0.7c-0.4,0.1-0.8,0.2-1.2,0.3c-0.7-0.1-0.7,0-0.2,0.3
				C1100.8,568.9,1097.9,569.7,1098.3,571.6L1098.3,571.6z" style="fill:#E8E8E8;"/>
		</g>
	</g>
	<g>
		<g>
			<path d="M971.6,533.4c-9.9-3.2,3-20.2,9.9-12.6c2.5,2.7,2.4,7.4,0.1,10.2c-2.6,3.2-7.1,3.7-10.6,1.7
				c-1.7-1-3.2,1.6-1.5,2.6c5.1,2.9,12,1.8,15.2-3.3c2.9-4.7,2.1-12-3-14.9c-11.1-6.2-24.4,14.9-10.8,19.3
				C972.7,536.9,973.5,534,971.6,533.4L971.6,533.4z" style="fill:#E8E8E8;"/>
		</g>
	</g>
	<g>
		<g>
			<path d="M1202.8,509.3c32.3,1.7,64.3,5.5,96.1,11.5c1.9,0.4,2.7-2.5,0.8-2.9c-32-6.1-64.3-10-96.9-11.7
				C1200.9,506.2,1200.9,509.2,1202.8,509.3L1202.8,509.3z" style="fill:#E8E8E8;"/>
		</g>
	</g>
	<g>
		<g>
			<path d="M1202.3,518c30.8,3.3,61.7,6.8,92.4,10.5c1.9,0.2,1.9-2.8,0-3c-30.8-3.7-61.6-7.2-92.4-10.5
				C1200.4,514.8,1200.4,517.8,1202.3,518L1202.3,518z" style="fill:#E8E8E8;"/>
		</g>
	</g>
	<g>
		<g>
			<path d="M1201.3,527c18.6,3.1,37.3,5.1,56.1,5.7c1.9,0.1,1.9-2.9,0-3c-18.5-0.7-37-2.5-55.3-5.6
				C1200.2,523.8,1199.4,526.7,1201.3,527L1201.3,527z" style="fill:#E8E8E8;"/>
		</g>
	</g>
	<g>
		<g>
			<path d="M1190.1,580.9c25.3,3.6,50.7,6.6,76.1,9c1.9,0.2,1.9-2.8,0-3c-25.2-2.4-50.3-5.4-75.3-8.9
				C1189,577.7,1188.2,580.6,1190.1,580.9L1190.1,580.9z" style="fill:#E8E8E8;"/>
		</g>
	</g>
	<g>
		<g>
			<path d="M1188.2,589.5c20.1,3.5,40.2,6.4,60.4,8.8c1.9,0.2,1.9-2.8,0-3c-20-2.3-39.8-5.2-59.6-8.7
				C1187.1,586.2,1186.3,589.1,1188.2,589.5L1188.2,589.5z" style="fill:#E8E8E8;"/>
		</g>
	</g>
	<g>
		<g>
			<path d="M1186.1,602.2c25.2,5,50.6,8.4,76.2,10c1.9,0.1,1.9-2.9,0-3c-25.3-1.7-50.5-5-75.4-9.9
				C1185,598.9,1184.2,601.8,1186.1,602.2L1186.1,602.2z" style="fill:#E8E8E8;"/>
		</g>
	</g>
	<g>
		<g>
			<path d="M468,730.9c46,2.3,92.2-0.1,138.2-0.8c46-0.7,91.9-0.9,137.9-0.8c92.3,0.2,184.5,1.9,276.8,4
				c52,1.2,103.9,2.6,155.9,3.9c1.9,0.1,1.9-2.9,0-3c-92.2-2.4-184.5-4.9-276.8-6.4c-92.3-1.5-184.5-2.2-276.8-1
				c-51.7,0.6-103.6,3.7-155.2,1C466,727.8,466,730.8,468,730.9L468,730.9z" style="fill:#E8E8E8;"/>
		</g>
	</g>
	<path d="M466.2,378.7c6,0.9,10.2-3.2,22.1-12c17.9-13.3,21.7-13.7,24.4-13.5c1.3,0.1,3.7,0.5,15,9
		c16.5,12.4,17.5,16.2,22.9,16.5c9.8,0.4,11.2-12,22.9-13.1c10.6-1,13.9,8.7,27,8.2c10.1-0.3,16-6.5,16.9-5.2
		c1.1,1.7-8.4,14.8-22.1,16.9c-10.1,1.5-12.3-4.4-22.1-3c-13.6,2-16.2,14.4-26.2,13.5c-5.9-0.6-6.7-5-16.9-12
		c-5.4-3.7-14.8-10.1-25.1-10.9c-18.9-1.4-28.7,16.9-40.1,11.6c-5.5-2.5-8.6-9.3-7.9-10.1C457.5,373.8,461,377.9,466.2,378.7z" style="fill:#5222D0;"/>
	<g>
		<g>
			<path d="M934.7,327.4c-6.1,27.7-13.6,55.1-22.4,82.1c-0.6,1.8,2.3,2.6,2.9,0.8c8.8-27,16.3-54.4,22.4-82.1
				C938,326.3,935.1,325.5,934.7,327.4L934.7,327.4z" style="fill:#E8E8E8;"/>
		</g>
	</g>
	<g>
		<g>
			<path d="M914.1,411.8c10.3,1.2,20.6,0.7,31,0.5c10.8-0.3,21.6-0.5,32.5-0.8c21.6-0.5,43.3-1.1,64.9-1.6
				c1.9,0,1.9-3,0-3c-21.6,0.5-43.3,1.1-64.9,1.6c-10.5,0.3-21,0.5-31.5,0.8c-10.7,0.3-21.3,0.8-32-0.4
				C912.2,408.6,912.2,411.6,914.1,411.8L914.1,411.8z" style="fill:#E8E8E8;"/>
		</g>
	</g>
	<g>
		<g>
			<path d="M951.3,355.3c-3.8,17.8-7,35.7-9.7,53.7c-0.3,1.9,2.6,2.7,2.9,0.8c2.7-18,5.9-35.9,9.7-53.7
				C954.6,354.2,951.7,353.4,951.3,355.3L951.3,355.3z" style="fill:#E8E8E8;"/>
		</g>
	</g>
	<g>
		<g>
			<path d="M953.6,356.9c5.3,0.3,10.5,0.8,15.7,1.8c-0.3-0.6-0.7-1.2-1-1.8c-4.7,16.9-8.7,34-12,51.2
				c-0.4,1.9,2.5,2.7,2.9,0.8c3.3-17.2,7.3-34.3,12-51.2c0.2-0.7-0.2-1.7-1-1.8c-5.5-1-10.9-1.6-16.5-1.9
				C951.6,353.8,951.6,356.8,953.6,356.9L953.6,356.9z" style="fill:#E8E8E8;"/>
		</g>
	</g>
	<g>
		<g>
			<path d="M979.4,372.3c-1.5,12.2-3.5,24.2-6,36.2c-0.4,1.9,2.5,2.7,2.9,0.8c2.6-12.2,4.6-24.6,6.1-37
				C982.6,370.4,979.6,370.4,979.4,372.3L979.4,372.3z" style="fill:#E8E8E8;"/>
		</g>
	</g>
	<g>
		<g>
			<path d="M980.9,372.5c5.6-0.2,11.3-0.1,16.9,0.3c-0.5-0.6-1-1.3-1.4-1.9c-2.2,11.9-4.1,23.8-5.7,35.8
				c-0.3,1.9,2.7,1.9,3,0c1.6-11.7,3.4-23.3,5.6-35c0.2-1-0.4-1.8-1.4-1.9c-5.6-0.4-11.3-0.4-16.9-0.3
				C978.9,369.5,978.9,372.5,980.9,372.5L980.9,372.5z" style="fill:#E8E8E8;"/>
		</g>
	</g>
	<g>
		<g>
			<path d="M1015.9,345.1c-3.5,20.9-7.6,41.8-12.1,62.5c-0.4,1.9,2.5,2.7,2.9,0.8c4.5-20.7,8.6-41.6,12.1-62.5
				C1019.2,344,1016.3,343.2,1015.9,345.1L1015.9,345.1z" style="fill:#E8E8E8;"/>
		</g>
	</g>
	<g>
		<g>
			<path d="M1018.3,343.6c0,0.2,0,0.3,0,0.5c0,0.8,0.7,1.5,1.5,1.5c0.8,0,1.5-0.7,1.5-1.5c0-0.2,0-0.3,0-0.5
				c0-0.8-0.7-1.5-1.5-1.5C1019,342.2,1018.3,342.8,1018.3,343.6L1018.3,343.6z" style="fill:#E8E8E8;"/>
		</g>
	</g>
	<g>
		<g>
			<path d="M1019,346.1c4.6,1,9,1.5,13.7,1.4c-0.5-0.6-1-1.3-1.4-1.9c-3.9,20.9-7.5,41.9-10.9,62.9
				c-0.3,1.9,2.6,2.7,2.9,0.8c3.4-21,7-42,10.9-62.9c0.2-0.9-0.4-1.9-1.4-1.9c-4.4,0-8.6-0.4-12.9-1.3
				C1017.9,342.8,1017.1,345.6,1019,346.1L1019,346.1z" style="fill:#E8E8E8;"/>
		</g>
	</g>
	<g>
		<g>
			<path d="M1064.7,339.3c34-0.4,67.9-0.2,101.9,0.7c1.9,0,1.9-3,0-3c-34-0.8-67.9-1-101.9-0.7
				C1062.8,336.3,1062.8,339.3,1064.7,339.3L1064.7,339.3z" style="fill:#E8E8E8;"/>
		</g>
	</g>
	<g>
		<g>
			<path d="M1067,351.5c21.1,1.4,42.3,1.1,63.4-0.9c1.9-0.2,1.9-3.2,0-3c-21.1,2-42.3,2.3-63.4,0.9
				C1065.1,348.4,1065.1,351.4,1067,351.5L1067,351.5z" style="fill:#E8E8E8;"/>
		</g>
	</g>
	<g>
		<g>
			<path d="M1062.4,366.6c29-0.5,58,0,87,1.5c1.9,0.1,1.9-2.9,0-3c-29-1.6-58-2.1-87-1.5
				C1060.5,363.6,1060.5,366.6,1062.4,366.6L1062.4,366.6z" style="fill:#E8E8E8;"/>
		</g>
	</g>
	<g>
		<g>
			<path d="M1218,413c-10.2-1.3-15.1-11.5-18-20.2c-2.7-8.2-3.7-16.8-0.6-25c5.4-14.4,20.1-26,34.9-29.3
				c15.4-3.5,31,4.7,38.4,18.4c7.8,14.4,5.1,32.9-4,46c-11.2,16.1-34.8,17.9-51.2,9.4c-1.7-0.9-3.2,1.7-1.5,2.6
				c15.7,8.1,37.4,7.7,50.7-5c13-12.4,17.2-34.5,10.4-50.9c-6.5-15.5-22.9-26.3-39.9-24.1c-16.8,2.2-33.7,15-40.1,30.7
				c-4.3,10.7-2.5,21.9,1.7,32.3c3.6,8.8,9.3,16.8,19.3,18.1C1219.9,416.2,1219.9,413.2,1218,413L1218,413z" style="fill:#E8E8E8;"/>
		</g>
	</g>
	<g>
		<g>
			<path d="M1222.2,342.5c4.7,12.1,9,24.4,13.1,36.8c0.6,1.8,3.5,1,2.9-0.8c-4.1-12.4-8.4-24.6-13.1-36.8
				C1224.4,340,1221.5,340.7,1222.2,342.5L1222.2,342.5z" style="fill:#E8E8E8;"/>
		</g>
	</g>
	<g>
		<g>
			<path d="M1238.4,381c11.8-8.2,23.5-16.7,34.9-25.4c1.5-1.2,0-3.8-1.5-2.6c-11.5,8.7-23.1,17.2-34.9,25.4
				C1235.3,379.5,1236.8,382.1,1238.4,381L1238.4,381z" style="fill:#E8E8E8;"/>
		</g>
	</g>
	<g>
		<g>
			<path d="M1237.9,381.1c13.4-0.6,26.6-2.8,39.5-6.6c1.8-0.5,1.1-3.4-0.8-2.9c-12.6,3.7-25.5,5.9-38.7,6.4
				C1236,378.2,1236,381.2,1237.9,381.1L1237.9,381.1z" style="fill:#E8E8E8;"/>
		</g>
	</g>
	<g>
		<g>
			<path d="M1235.5,380.1c-8,10.3-15.9,20.6-23.9,30.9c-1.2,1.5,1.4,3,2.6,1.5c8-10.3,15.9-20.6,23.9-30.9
				C1239.3,380.1,1236.7,378.6,1235.5,380.1L1235.5,380.1z" style="fill:#E8E8E8;"/>
		</g>
	</g>
	<g>
		<g>
			<path d="M470,725.8c-2.5-0.7-1-4,0.1-5.1c1.2-1.2,4.2-1.1,5.8-1.1c2.9-0.1,5.8,0,8.8-0.1c6,0,12-0.1,18-0.1
				c12-0.1,24-0.1,36-0.2c23.7-0.1,47.3-0.3,71-0.4c47.7-0.3,95.3-0.5,143-0.6c95-0.3,189.9-0.3,284.9,0.2c26,0.2,52.1,0.2,78.1,1.3
				c12.9,0.5,25.8,1.3,38.7,2.5c6.4,0.6,12.9,1.3,19.3,2.1c2.1,0.3,4.2,0.5,6.3,0.9c1.7,0.3,2.7,0,3.3,1.6c1.6,3.8-3.5,7.7-6.6,7.9
				c-1.9,0.1-1.9,3.1,0,3c6.7-0.5,11.4-7.3,8.9-13.7c-0.2-0.5-0.5-1-1-1c-47.7-7.1-96-7.1-144.1-7.4c-49.7-0.3-99.3-0.4-149-0.5
				c-99.6,0-199.3,0.4-298.9,0.9c-28,0.2-56,0.3-84,0.5c-6.7,0-13.3,0.1-20,0.1c-5.6,0-12.2-0.9-17.6,0.7c-5.2,1.5-8.6,9.7-1.8,11.6
				C471,729.2,471.8,726.3,470,725.8L470,725.8z" style="fill:#E8E8E8;"/>
		</g>
	</g>
	<g>
		<g>
			<path d="M462.6,743.4c-10,36.1-22.2,71.6-36.7,106.2c-0.7,1.8,2.2,2.6,2.9,0.8c14.5-34.6,26.7-70.1,36.7-106.2
				C466,742.3,463.1,741.5,462.6,743.4L462.6,743.4z" style="fill:#E8E8E8;"/>
		</g>
	</g>
	<g>
		<g>
			<path d="M463.6,746.4c25.7,3.1,52.2,1,78,0.7c1.9,0,1.9-3,0-3c-25.8,0.4-52.3,2.4-78-0.7
				C461.6,743.2,461.7,746.2,463.6,746.4L463.6,746.4z" style="fill:#E8E8E8;"/>
		</g>
	</g>
	<g>
		<g>
			<path d="M538.4,746.9c-8.5,31.4-17.5,62.6-27,93.8c-0.6,1.9,2.3,2.6,2.9,0.8c9.5-31.1,18.5-62.4,27-93.8
				C541.8,745.8,538.9,745,538.4,746.9L538.4,746.9z" style="fill:#E8E8E8;"/>
		</g>
	</g>
	<g>
		<g>
			<path d="M427.3,851.1c14.1-0.1,28.1-0.2,42.2-0.3c6.9,0,13.7-0.1,20.6-0.1c6.1,0,12.2,0.2,18.2-1.2
				c1.9-0.4,1.1-3.3-0.8-2.9c-6.3,1.5-12.9,1.1-19.4,1.1c-6.9,0-13.7,0.1-20.6,0.1c-13.4,0.1-26.8,0.2-40.2,0.2
				C425.4,848.1,425.4,851.1,427.3,851.1L427.3,851.1z" style="fill:#E8E8E8;"/>
		</g>
	</g>
	<g>
		<g>
			<path d="M554.1,747.6c67.6-1.9,135.3-1.8,202.9,0.4c1.9,0.1,1.9-2.9,0-3c-67.6-2.2-135.3-2.4-202.9-0.4
				C552.2,744.6,552.2,747.6,554.1,747.6L554.1,747.6z" style="fill:#E8E8E8;"/>
		</g>
	</g>
	<g>
		<g>
			<path d="M551.3,765.2c39.2-0.1,78.4-0.1,117.7-0.2c1.9,0,1.9-3,0-3c-39.2,0.1-78.4,0.1-117.7,0.2
				C549.3,762.2,549.3,765.2,551.3,765.2L551.3,765.2z" style="fill:#E8E8E8;"/>
		</g>
	</g>
	<g>
		<g>
			<path d="M511,847.6c1.8-3,3.1-6.2,3.8-9.5c0.4-1.9-2.5-2.7-2.9-0.8c-0.7,3.1-1.8,6.1-3.5,8.8
				C507.4,847.7,510,849.2,511,847.6L511,847.6z" style="fill:#E8E8E8;"/>
		</g>
	</g>
	<g>
		<g>
			<path d="M886.2,756.4c-8,38.2-15.7,76.4-23.2,114.6c-0.4,1.9,2.5,2.7,2.9,0.8c7.5-38.2,15.2-76.4,23.2-114.6
				C889.5,755.3,886.6,754.5,886.2,756.4L886.2,756.4z" style="fill:#E8E8E8;"/>
		</g>
	</g>
	<g>
		<g>
			<path d="M863.6,873.5c41.1,1.1,82.1,2.2,123.2,3.3c40.6,1.1,81.2,2.8,121.8,2.8c1.9,0,1.9-3,0-3
				c-40.6,0-81.2-1.8-121.8-2.8c-41.1-1.1-82.1-2.2-123.2-3.3C861.7,870.4,861.7,873.4,863.6,873.5L863.6,873.5z" style="fill:#E8E8E8;"/>
		</g>
	</g>
	<g>
		<g>
			<path d="M866.6,873.2c12.4-13.4,24.8-26.9,37.2-40.3c-0.7,0-1.4,0-2.1,0c4.1,5.1,8.9,9.3,14.5,12.7
				c1.7,1,3.2-1.6,1.5-2.6c-5.4-3.2-10-7.3-13.9-12.2c-0.5-0.6-1.6-0.5-2.1,0c-12.4,13.4-24.8,26.9-37.2,40.3
				C863.2,872.5,865.3,874.6,866.6,873.2L866.6,873.2z" style="fill:#E8E8E8;"/>
		</g>
	</g>
	<g>
		<g>
			<path d="M917,844.6c13.3-15.7,26.7-31.3,40-47c1.2-1.5-0.9-3.6-2.1-2.1c-13.3,15.7-26.7,31.3-40,47
				C913.6,843.9,915.7,846,917,844.6L917,844.6z" style="fill:#E8E8E8;"/>
		</g>
	</g>
	<g>
		<g>
			<path d="M954.9,796.1c2.7,3.6,5.4,7.1,8.1,10.7c0.6,0.8,1.5,1,2.4,0.3c12.2-10,24.1-20.5,35.6-31.3
				c1.4-1.3-0.7-3.4-2.1-2.1c-11.5,10.8-23.4,21.3-35.6,31.3c0.8,0.1,1.6,0.2,2.4,0.3c-2.7-3.6-5.4-7.1-8.1-10.7
				C956.3,793,953.7,794.5,954.9,796.1L954.9,796.1z" style="fill:#E8E8E8;"/>
		</g>
	</g>
	<g>
		<g>
			<path d="M997.8,777.1c16.7,13.2,32.8,27.1,48.4,41.5c1.4,1.3,3.5-0.8,2.1-2.1c-15.6-14.5-31.7-28.3-48.4-41.5
				C998.4,773.8,996.3,775.9,997.8,777.1L997.8,777.1z" style="fill:#E8E8E8;"/>
		</g>
	</g>
	<g>
		<g>
			<path d="M1048,818.2c20.6-13.1,35.4-33.3,55.5-47.1c1.6-1.1,0.1-3.7-1.5-2.6c-20.1,13.8-34.9,34-55.5,47.1
				C1044.9,816.6,1046.4,819.2,1048,818.2L1048,818.2z" style="fill:#E8E8E8;"/>
		</g>
	</g>
	<g>
		<g>
			<path d="M1086,774.2c6.3-1.1,12.4-2.7,18.5-4.6c-0.6-0.6-1.2-1.2-1.8-1.8c-1.1,5-2.1,10-3.2,15
				c-0.4,1.9,2.5,2.7,2.9,0.8c1.1-5,2.1-10,3.2-15c0.2-1.1-0.7-2.2-1.8-1.8c-6.1,1.9-12.2,3.5-18.5,4.6
				C1083.4,771.7,1084.2,774.6,1086,774.2L1086,774.2z" style="fill:#E8E8E8;"/>
		</g>
	</g>
	<g>
		<g>
			<path d="M923,764.3c-3.5,35.7-7.1,71.4-10.6,107.1c-0.2,1.9,2.8,1.9,3,0c3.5-35.7,7.1-71.4,10.6-107.1
				C926.1,762.4,923.1,762.4,923,764.3L923,764.3z" style="fill:#E8E8E8;"/>
		</g>
	</g>
	<g>
		<g>
			<path d="M967.4,758c-3.7,38.3-6.7,76.7-8.9,115.1c-0.1,1.9,2.9,1.9,3,0c2.2-38.4,5.2-76.8,8.9-115.1
				C970.5,756,967.5,756.1,967.4,758L967.4,758z" style="fill:#E8E8E8;"/>
		</g>
	</g>
	<g>
		<g>
			<path d="M1051.2,756.9c-3.9,40-6.7,80-8.4,120.2c-0.1,1.9,2.9,1.9,3,0c1.7-40.1,4.5-80.2,8.4-120.2
				C1054.4,755,1051.4,755,1051.2,756.9L1051.2,756.9z" style="fill:#E8E8E8;"/>
		</g>
	</g>
	<g>
		<g>
			<path d="M1001.1,742.3c-2.6,44.6-5.2,89.1-7.8,133.7c-0.1,1.9,2.9,1.9,3,0c2.6-44.6,5.2-89.1,7.8-133.7
				C1004.2,740.3,1001.2,740.3,1001.1,742.3L1001.1,742.3z" style="fill:#E8E8E8;"/>
		</g>
	</g>
	<g>
		<g>
			<path d="M689.4,764.7c20.3,1.8,40.6-2.7,60.9-0.2c1.9,0.2,1.9-2.8,0-3c-20.3-2.5-40.6,2-60.9,0.2
				C687.4,761.6,687.5,764.6,689.4,764.7L689.4,764.7z" style="fill:#E8E8E8;"/>
		</g>
	</g>
	<g>
		<g>
			<path d="M374.5,584.3c35.4-5.2,69.5,9,100.9,23.8c29.1,13.8,57.9,27.9,90.2,32c69,8.6,135.1-20.4,200-38.7
				c38.1-10.7,77.6-18.2,117.3-13.2c1.9,0.2,1.9-2.8,0-3c-70.3-8.9-136.7,20.7-202.9,39c-33.6,9.3-68.4,16.3-103.4,14
				c-35.1-2.3-66-16.5-97.3-31.4c-32.9-15.7-68.3-30.8-105.6-25.3C371.8,581.7,372.7,584.6,374.5,584.3L374.5,584.3z" style="fill:#E8E8E8;"/>
		</g>
	</g>
	<g>
		<g>
			<path d="M563.9,611.6c88.1,4.7,169.7-34.6,254-53.5c24.3-5.4,49-9.2,74-9.7c1.9,0,1.9-3,0-3
				c-88,2-168.5,42.5-254.1,58c-24.4,4.4-49.1,6.6-73.9,5.3C562,608.4,562,611.4,563.9,611.6L563.9,611.6z" style="fill:#E8E8E8;"/>
		</g>
	</g>
	<g>
		<g>
			<path d="M394.4,509.3c39.9,2.8,76.3,20.6,113.1,34.5c37.4,14.1,76.4,22,116.4,21c22.9-0.6,45.7-3.9,67.9-9.7
				c1.9-0.5,1.1-3.4-0.8-2.9c-40.3,10.6-82.6,12.6-123.7,5.5c-39.2-6.8-74.5-23.9-111.6-37.2c-19.8-7.1-40.2-12.7-61.3-14.1
				C392.4,506.2,392.5,509.2,394.4,509.3L394.4,509.3z" style="fill:#E8E8E8;"/>
		</g>
	</g>
	<g>
		<g>
			<path d="M665.7,317c-0.8,5-2.1,9.9-3.9,14.7c-0.4,1,0.6,1.9,1.4,1.9c63.7,2.8,127.4,3.4,191.1,1.7
				c1.9-0.1,1.9-3.1,0-3c-63.7,1.7-127.5,1.2-191.1-1.7c0.5,0.6,1,1.3,1.4,1.9c1.8-4.8,3.1-9.6,3.9-14.7
				C668.9,315.9,666,315.1,665.7,317L665.7,317z" style="fill:#E8E8E8;"/>
		</g>
	</g>
	<g>
		<g>
			<path d="M667.7,318.1c64.1,0.8,128.1,1.6,192.2,2.4c1.9,0,1.9-3,0-3c-64.1-0.8-128.1-1.6-192.2-2.4
				C665.8,315,665.8,318,667.7,318.1L667.7,318.1z" style="fill:#E8E8E8;"/>
		</g>
	</g>
	<g>
		<g>
			<path d="M859.6,318.7c-2,4.7-3.5,9.6-4.3,14.7c-0.3,1.9,2.6,2.7,2.9,0.8c0.8-4.8,2.1-9.5,4-14
				C862.9,318.4,860.3,316.9,859.6,318.7L859.6,318.7z" style="fill:#E8E8E8;"/>
		</g>
	</g>
</g>
<g id="girl">
	<g id="leg_left">
		<path d="M151.2,892.6c-17.1,4.1-34.3,8.2-51.4,12.3c8.9,56.2,15.9,84.2,20.8,83.8c4.2-0.3,6.9-21.3,8.1-63
			c9.5-3.3,19-6.5,28.5-9.8C155.2,908.2,153.2,900.4,151.2,892.6z" style="fill:#161616;stroke:#161616;stroke-width:3;stroke-miterlimit:10;"/>
		<path d="M268.1,683.1c-2.2,6.6-5.5,17.1-8.9,30.4c-7.1,27.7-7.4,39.5-14.6,74.7c-8.6,41.9-13,49.1-15.8,53.2
			c-12.7,18.2-30.3,26.5-39.9,31c-23.2,10.9-44.8,11.9-57.6,11.4c-0.5,5.9-1,20.3,7.6,34.8c4.3,7.2,9.4,12.1,13.3,15.2
			c12.9,0.7,35.1,0.2,60.1-9.5c10.7-4.1,38-15.1,58.8-42.4c16-21,20.4-41.5,25.3-64.5c9.5-44.3-2.3-51,9.5-88.6
			c7.1-22.8,15.3-34,9.5-42.4C308.5,676.1,286.8,678.8,268.1,683.1z" style="fill:#EC615B;"/>
		<path d="M269.3,683.2c-1,10.7-2.5,25.5-4.6,43.1c-1.9,15.5-4,32.3-7.4,51.9c-5.9,33.6-8.9,50.4-15.3,64.4
			c-5.6,12.2-16.4,34.8-41.2,51.9c-25.8,17.7-52.5,19.4-64.4,19.5c-1.4-3.2-2.8-7.3-3.7-12c-1.3-6.8-1.3-12.7-0.9-17.1
			c7.7,0.1,18.3-0.5,30.6-3.2c21.4-4.8,35.7-13.5,39.4-15.8c9.1-5.7,18.6-11.6,26.4-23.2c5.3-7.8,7.5-14.9,11.1-29.7
			c5.3-21.8,8-32.6,10.2-48.6C251.9,745.9,257.2,718.9,269.3,683.2z" style="opacity:9.000000e-002;fill:#3D3D3D;"/>
		<path d="M132,884.6c-0.4,4.4-0.6,10.4,0.8,17.3c1,5.1,2.5,9.3,3.9,12.6c13.7-2.9,56.8-13.9,83.5-53.3
			c7.9-11.7,12.6-23.2,15.5-33.1c-2.7,6.3-7.4,15.5-15.7,24.4c-14.3,15.3-30.7,20.9-42.5,24.9C167.5,880.9,151.9,884.9,132,884.6z" style="opacity:0.12;fill:#3D3D3D;"/>
	</g>
	<g id="leg_right">
		<path d="M260.8,984.4c-7.8,21.5-15.6,43-23.4,64.6c54.8,6.4,82.7,7.3,83.7,2.5c0.8-3.7-15.4-11-48.4-21.7
			c4.5-13.3,9.1-26.6,13.6-39.9C277.8,988.1,269.3,986.2,260.8,984.4z" style="fill:#161616;stroke:#161616;stroke-width:3;stroke-miterlimit:10;"/>
		<path d="M342.1,694.5c1.1,14.8,2.1,35,1.9,58.8c-0.5,65.7-9.4,115-12,128.4c-6.7,35.1-18.3,80.4-39.2,131
			c-6.6,0.3-22.9,0.1-39.2-10.1c-10-6.3-16.2-13.9-19.6-19c6.1-11.6,13.6-26.9,20.9-45.6c12.9-33,18.5-59.3,22.1-76.6
			c8.1-38.9,12.2-58.3,8.9-79.1c-3.2-19.7-8.4-23.1-7.6-39.9c0.2-3.7,2.7-46.8,29.7-55C321.9,683.3,335.7,690.5,342.1,694.5z" style="fill:#EC615B;"/>
		<path d="M318.4,687c8.9,3.8,6,28.8,5.2,35.4c-10.7,94.2,4,43.5-8.9,101.6c-17.7,79.8-41.6,156.5-50,182.9
			c-2,0-4.8-0.2-7.8-1.6c-2.8-1.3-3.4-3-6.8-5.7c-3.7-2.9-5-2.7-7.8-4.7c-2.5-1.8-5.6-5-7.8-10.9c5.2-10.2,11.4-23.3,17.7-39.1
			c8-20,12.4-35.2,17.2-51.6c0,0,15-51.7,17.7-91.2c0.5-7.9,0.1-13.3-0.5-17.2c-0.9-6.2-2.2-9.3-4.2-16.7
			c-0.5-1.9-3.3-12.7-4.2-20.8c-2.5-23.9,10.2-43.1,16.2-50c2.1-2.5,4.9-5.2,8.9-7.3C304.8,689.4,313.5,684.9,318.4,687z" style="opacity:0.14;fill:#3D3D3D;"/>
		<path d="M295.5,849.7c-1.7,24.3-7.4,31.5-24,91.2c-7.3,26.2-12.7,47.7-16.2,61.5c-2.8-1.1-6.3-2.9-9.9-5.7
			c-5.4-4.2-8.6-8.8-10.4-12c5-10.3,11.7-25,18.2-43.3c2.6-7.2,4.3-12.7,5.9-17.7c22.8-73.1,26.4-95.3,27.5-110.5
			c0.9-12.9,0.2-23.3,0-26.6c-1-13.8-3.4-23.3-3.4-23.3C283.2,763.3,298.8,802.5,295.5,849.7z" style="opacity:0.11;fill:#3D3D3D;"/>
	</g>
	<g id="hand_left">
		<path d="M169.1,649.8c0.2-0.3,1.2-0.2,3.2,0c3.4,0.3,4.5,0.8,6.7,1c2.1,0.1,4.9,0.3,5.7-1c1.1-1.7-2.4-5-7.3-12.1
			c-8.4-12-8-16.2-7.3-18.1c0.2-0.5,0.8-2.4,2.1-2.7c1.7-0.4,3.6,1.9,5.4,4.2c3,3.7,4.2,6.6,4.5,6.4c0.6-0.2-2.9-7.7-2.1-16.9
			c0.2-2.5,0.6-6.1,2.4-6.6c1.6-0.5,4,1.5,5.9,4.7c0-0.4,0.5-5.9,2.4-6.3c1.5-0.3,3.2,2.6,4.9,5.4c1.4,2.3,2.3,4.4,2.8,5.8
			c-0.1-2.8,1.4-5.1,3.5-5.8c2.3-0.7,4.4,1.1,4.5,1.2c2.3,2.1,2.1,5.8,2.1,7.1c-0.2,5.7,0.4,15.3,1.7,29.3c2.6-1,6.4-2.8,10.6-5.6
			c4.3-2.9,8.8-6.7,19.9-20c4.3-5.2,6.5-7.8,10.3-12.9c13.7-18.3,21.8-29.1,30-44.4c2.6-4.9,6.8-13.2,15.5-20.6
			c2.8-2.4,8.3-6.9,11.5-5.2c2.3,1.2,2.5,5,2.4,10.6c-0.1,12.2-0.2,18.2-2.3,26.5c-4.8,19.2-13.7,32.6-15.7,35.6
			c-7.9,11.6-15.8,18.3-26,27c-10.6,9-19.4,16.4-33.3,22c-9.1,3.6-16.3,4.9-23.9,6.3c-12.6,2.2-19.1,3.3-25.6,0.5
			C174.3,661.2,168,651.3,169.1,649.8z" style="fill:#FFFFFF;"/>
		<g>
			<g>
				<path d="M307.6,535.3c-10.8,1.5-17.2,11.6-23,19.9c-7.4,10.6-14.4,21.5-21.6,32.2c-7.2,10.8-14.7,21.4-23.2,31.3
					c-4.1,4.7-8.3,9.3-12.9,13.5c-5.1,4.8-10.7,10.3-17.4,12.6c-1.8,0.6-1,3.5,0.8,2.9c10.5-3.5,19.4-13.5,26.7-21.4
					c8.4-9.1,15.9-19,23-29.2c7.2-10.4,14.1-21.1,21.1-31.6c6.6-9.8,14.4-25.5,27.3-27.3C310.3,537.9,309.5,535.1,307.6,535.3
					L307.6,535.3z"/>
			</g>
		</g>
		<g>
			<g>
				<path d="M213,666.3c12.8-1.2,23.6-7.1,34.3-13.9c10.6-6.7,20.7-14.4,29.7-23.2c11.6-11.2,21.4-24.5,27.9-39.4
					c6.4-14.9,9.4-31.2,7.3-47.4c-0.2-1.9-3.2-1.9-3,0c3.4,27.1-7.4,54-24.8,74.6c-7.8,9.2-16.9,17.3-26.5,24.5
					c-13.2,9.8-28.2,20.3-45,21.9C211.1,663.5,211.1,666.5,213,666.3L213,666.3z"/>
			</g>
		</g>
		<g>
			<g>
				<path d="M213,663.2c-5.9-0.1-11.6,1.3-17.4,1.7c-6.7,0.5-12.3-1.5-17.8-5.2c-2.2-1.5-4.6-3.3-6-5.7c-2.9-5.1,3.1-2.1,5.2-1.5
					c3.4,1,6.5,0.6,9.1-1.7c1.5-1.3-0.7-3.4-2.1-2.1c-4.5,4-12.9-4.9-15.9,0.2c-2.3,3.9,3,9.5,5.6,11.6c4.5,3.7,10,6.7,15.9,7.4
					c7.8,0.9,15.6-1.8,23.4-1.6C214.9,666.2,214.9,663.2,213,663.2L213,663.2z"/>
			</g>
		</g>
		<g>
			<g>
				<path d="M186.3,649.1c-2-6.7-6.5-11.9-10.1-17.8c-0.5-0.8-6.5-11.7-4.5-12.6c3.5-1.6,8.5,8.5,9.2,10.5c0.6,1.8,3.5,1,2.9-0.8
					c-1.6-4.6-4.4-8.9-8.6-11.7c-2.2-1.5-5.4-2.6-6.4,0.8c-1.3,4.6,2.1,10.8,4.4,14.6c3.6,5.9,8.3,11,10.3,17.8
					C184,651.8,186.9,651,186.3,649.1L186.3,649.1z"/>
			</g>
		</g>
		<g>
			<g>
				<path d="M184.7,628.3c-0.9-3.7-2.1-7.5-2.7-11.3c-0.4-2.3-0.5-4.6-0.3-6.9c0.3-3,0.9-6,3.3-2.5c3.7,5.5,4.9,13,6.7,19.2
					c0.5,1.9,3.4,1.1,2.9-0.8c-1.5-5.3-2.7-10.9-4.9-16c-1.1-2.5-3.6-8.1-7.1-8.1c-3.6,0-3.7,5.6-3.9,8.1
					c-0.5,6.5,1.5,12.7,3.1,18.9C182.2,631,185.1,630.2,184.7,628.3L184.7,628.3z"/>
			</g>
		</g>
		<g>
			<g>
				<path d="M191.7,614.1c-0.5-2.1-1.5-5.6-0.7-7.7c1.5-3.9,3.7,3.1,4.3,4.6c2.2,5.3,3.4,10.9,3.7,16.6c0.1,1.9,3.1,1.9,3,0
					c-0.4-5.5-1.3-10.8-3.2-15.9c-1.1-3.1-2.7-8.6-5.7-10.3c-6.8-3.9-4.9,11.1-4.4,13.6C189.2,616.8,192.1,616,191.7,614.1
					L191.7,614.1z"/>
			</g>
		</g>
		<g>
			<g>
				<path d="M201.8,617.6c-0.1-1-0.8-6.4,0.4-7.4c3.3-2.9,4.2,2.4,4.6,4c0.7,3.4,0.6,7.2,0.9,10.7c0.5,7.2,1,14.3,1.5,21.5
					c0.1,1.9,3.1,1.9,3,0c-0.5-7.2-1-14.3-1.5-21.5c-0.3-5,0.1-11.6-2.5-16.1c-1.4-2.4-3.8-4.6-6.6-2.8c-3.6,2.4-3.1,8.8-2.6,12.4
					C199.2,620.3,202.1,619.5,201.8,617.6L201.8,617.6z"/>
			</g>
		</g>
		<path d="M308.7,538.8c-0.5,0-0.1,7.9-3.2,18.9c-2.4,8.4-6.3,16.4-18.9,33c-11.6,15.3-20,26.4-34.6,39.4
			c-16,14.3-24,21.4-35,24.1c-23.8,5.9-45.7-7.8-47.8-3.2c-1.1,2.5,4.9,7.5,7.2,9.2c2.9,2.1,8.5,5.4,21.7,5.6
			c14.1,0.2,24.9-3.2,27.3-4c25.4-8.4,42.1-25,51-34.2c11.8-12,21.4-21.8,27.7-38.2C314.2,563.9,309.7,538.8,308.7,538.8z" style="opacity:9.000000e-002;fill:#3D3D3D;"/>
		<path d="M306.7,577.4c-0.7-0.4-4.9,6.6-10.9,14.9c0,0-14.4,20-33,37c-10.2,9.3-28.8,23.7-58.3,35
			c6.1,0.4,15.2,0.2,25.3-3.2c3.2-1.1,11.2-4.1,30.5-20.9c15.4-13.4,24-20.8,32.6-33.8C302.2,592.5,307.7,577.9,306.7,577.4z" style="opacity:0.13;fill:#3D3D3D;"/>
	</g>
	<g id="torso">
		<path d="M319.2,524.3c-6.3,2.2-10.2,6.1-14.3,10.2c-11.4,11.5-15.5,24.5-18.7,35c-9.6,31.6-14.5,47.3-16.7,61.1
			c-2.6,15.7-4.8,36.5-4.1,61.1c5.2,3.6,12.6,8.2,22,12.2c10.8,4.6,20.5,8.7,33,7.7c5-0.4,13.6-1.8,23.2-7.7
			c0.5-6.5,1.6-16.6,4.5-28.5c5-21.1,10.4-27.2,19.2-53.4c6.9-20.7,10.3-31.3,9.8-44c-0.4-8.9-1.2-26.3-14.3-39.9
			C352.8,527.8,334.9,518.8,319.2,524.3z" style="fill:#FFFFFF;"/>
		<g>
			<g>
				<path d="M314.7,525c-12,7.2-19.3,19.2-25.3,31.5c-6.4,13.3-11.2,27.3-14.7,41.7c-7.3,30-9.1,61.1-10.3,91.9
					c-0.1,1.9,2.9,1.9,3,0c1.1-29.4,2.8-58.9,9.4-87.7c3.2-14.1,7.6-28,13.7-41.2c5.9-12.9,13.2-26.2,25.7-33.6
					C317.8,526.6,316.3,524,314.7,525L314.7,525z"/>
			</g>
		</g>
		<g>
			<g>
				<path d="M353.4,531.5c11.3,8.8,19.1,21.2,21.6,35.3c2.8,16.1-1.1,32.5-6.5,47.6c-5.2,14.6-12,28.5-16.7,43.3
					c-4.7,14.5-7.6,29.6-8.8,44.8c-0.2,1.9,2.8,1.9,3,0c1.4-17.1,5-34,10.8-50.1c5.5-15.4,12.8-30.1,17.5-45.8
					c4.2-14.1,6.4-29.4,2.9-44c-3.1-13.2-10.9-24.9-21.6-33.1C354,528.2,351.9,530.3,353.4,531.5L353.4,531.5z"/>
			</g>
		</g>
		<g>
			<g>
				<path d="M265,692.1c12.1,10.8,27.1,17.9,43.2,20.2c12.8,1.8,29.3,1.9,37.7-9.6c1.1-1.6-1.5-3.1-2.6-1.5
					c-8.4,11.4-27,9.9-39.2,7.4c-13.8-2.8-26.5-9.3-37-18.6C265.7,688.7,263.6,690.8,265,692.1L265,692.1z"/>
			</g>
		</g>
		<path d="M332.1,524.7c3.4,5.9-9.2,16.8-18.9,33.8c-6.2,10.8-8.6,20.2-13.3,39c-11,44-8.9,94-8,108.5
			c-8.6-4.6-17.1-9.1-25.7-13.7c0.4-9.8,1.2-23.8,2.8-40.6c2.6-26.6,4.1-41.1,9.2-59.9c4.5-16.3,8.9-31.5,20.9-47.8
			c7.8-10.6,16.1-17.9,22.1-22.5C325,521.3,330.3,521.6,332.1,524.7z" style="opacity:0.11;fill:#3D3D3D;"/>
		<path d="M293.9,554.9c1.3,0.4-4,21.3-12.5,67.5c-5.6,30.3-6.9,41.2-2.4,54.7c5.8,17.3,17.5,27.8,15.3,30.1
			c-1.4,1.4-7.4-0.6-28.1-16.1c-0.5-21.8,0.9-51.9,9.6-86.4C282.7,577.4,292.5,554.4,293.9,554.9z" style="opacity:0.15;fill:#3D3D3D;"/>
	</g>
	<g id="head">
		<path d="M387.2,483.5c4.7,4.3,4.1,12.7,3.2,24.9c-0.6,8.5-0.9,12.8-3.8,16.9c-6,8.5-19.6,12.4-30.3,7.6
			c-1.3-0.6-7.9-3.7-11.5-11.2c-5.2-10.8,0.2-21.6,1.3-23.6C354.5,482.4,378.8,475.7,387.2,483.5z" style="fill:#5222D0;"/>
		<path d="M387.4,428.2c3.8,0.8,6.1,6.1,10.7,16.8c3.9,9.1,5.7,16.5,6.5,20c1.3,6.1,2,11.3,2.3,15.2
			c-2.7,0.8-5.4,1.5-8.1,2.3c-0.6,3.5-1.9,8.7-4.5,14.5c-3.6,8-6.6,14.9-13.6,18.1c-8.1,3.7-16.8,0.4-19.7-1c-1.1,2.8-2.7,6-4.8,9.4
			c-1.5,2.4-3.1,4.4-4.5,6.1c-9.1,2.3-13.3-0.1-14.9-1.3c-8.4-6.2-7.7-26.2,5.2-48.8c-0.7-1.1-1.8-2.7-3.2-4.5
			c-2.9-3.6-3.9-3.7-5.2-5.8c-0.4-0.6-3.5-5.9-1-10.7c1.2-2.3,3.7-4.3,6.5-4.5c3.4-0.3,4.5,2.4,7.4,3.2c5,1.5,10.5-3.9,24.2-16.8
			C382.2,429.6,384.5,427.6,387.4,428.2z" style="fill:#FFFFFF;"/>
		<g>
			<g>
				<path d="M397,444.6c4.7,11.8,7.7,24.1,8.8,36.8c0.1,1.4,2.4,1.4,2.3,0c-1.1-12.9-4.1-25.4-8.9-37.4
					C398.7,442.6,396.5,443.2,397,444.6L397,444.6z"/>
			</g>
		</g>
		<g>
			<g>
				<path d="M406.4,480.4c-2.7,0.3-5.4,0.7-8.1,1c-1.4,0.2-1.4,2.4,0,2.3c2.7-0.3,5.4-0.7,8.1-1
					C407.8,482.4,407.8,480.2,406.4,480.4L406.4,480.4z"/>
			</g>
		</g>
		<g>
			<g>
				<path d="M397.7,482.4c-1.8,10-5.9,19.7-12.6,27.4c-8,9.4-20.7,4.5-30.5,0.5c-1.3-0.6-1.9,1.6-0.6,2.2c9.2,3.8,22.4,9,30.7,1
					c8.2-7.8,13.1-19.5,15.1-30.5C400.1,481.6,398,481,397.7,482.4L397.7,482.4z"/>
			</g>
		</g>
		<g>
			<g>
				<path d="M359.5,514.6c-2.1,4.8-4.7,9.3-7.7,13.6c-0.8,1.2,1.1,2.3,1.9,1.1c3-4.3,5.6-8.9,7.7-13.6
					C362,514.4,360.1,513.3,359.5,514.6L359.5,514.6z"/>
			</g>
		</g>
		<g>
			<g>
				<path d="M353.8,512.8c1.5,1.6,3.2,3,5.1,4c1.3,0.7,2.4-1.2,1.1-1.9c-1.8-1-3.3-2.2-4.7-3.7C354.4,510.1,352.8,511.7,353.8,512.8
					L353.8,512.8z"/>
			</g>
		</g>
		<g>
			<g>
				<path d="M388.6,460.9c-0.6-1.2-0.5-2.7,0.3-3.7c-0.6-0.2-1.3-0.3-1.9-0.5c0.3,1.7,0.3,3.3,0.2,5c0.4-0.4,0.8-0.8,1.1-1.1
					c0.1,0.2,0.2,0.4,0.4,0.6c0.3-1.4-1.9-2-2.2-0.6c-0.3,1.2,0.5,2.3,1.8,2.3c0.7,0,1.1-0.5,1.1-1.1c0.2-1.9,0.1-3.7-0.2-5.6
					c-0.1-0.8-1.4-1.1-1.9-0.5c-1.5,1.9-1.8,4.3-0.6,6.4C387.3,463.3,389.3,462.2,388.6,460.9L388.6,460.9z"/>
			</g>
		</g>
		<g>
			<g>
				<path d="M382.6,447.4c1.4-3.5,5.4-4.5,8.5-2.5c1.2,0.8,2.3-1.2,1.1-1.9c-4.4-2.9-9.8-1-11.8,3.8
					C379.9,448.2,382.1,448.8,382.6,447.4L382.6,447.4z"/>
			</g>
		</g>
		<g>
			<g>
				<path d="M378,465.4c-0.4,0-0.9,0-1.3,0c-0.1-0.2-0.1-0.4-0.2-0.6c0.2-0.7,0.5-0.9,1.1-0.7c0.1,0.1,0.3,0.3,0.4,0.4
					c0,0,0,0,0-0.1c-0.3-0.5-1-0.7-1.5-0.4c-0.5,0.3-0.7,1-0.4,1.5c0.4,0.5,1,0.8,1.6,0.7c0.6-0.2,1.1-0.7,1.1-1.4
					c0-1.5-2.1-1.9-2.8-0.7c-0.3,0.5-0.1,1.2,0.4,1.5C377,466.1,377.7,465.9,378,465.4L378,465.4z"/>
			</g>
		</g>
		<g>
			<g>
				<path d="M383,470C383,470,383,470,383,470c-0.2,0.2-0.5,0.5-0.8,0.7c0,0,0,0,0.1,0c-0.2,0-0.4,0-0.6,0c0,0-0.1,0-0.1-0.1
					c-0.1-0.1-0.3-0.3-0.4-0.4c0,0,0,0.1,0,0.1c0-0.3-0.1-0.6-0.1-0.9c0.1-0.1,0.2-0.2,0.3-0.3c-0.5,0.4-0.7,1-0.4,1.5
					c0.3,0.5,1.1,0.8,1.5,0.4c0.7-0.5,1.2-1.5,0.4-2.2c-0.3-0.3-0.8-0.5-1.3-0.3c-0.5,0.1-0.7,0.4-0.9,0.9c-0.2,0.6,0.2,1.2,0.8,1.4
					C382.2,471,382.8,470.6,383,470L383,470z"/>
			</g>
		</g>
		<g>
			<g>
				<path d="M375.1,470.1c-0.1,0-0.1,0-0.2,0c-1.4,0-1.5,2.3,0,2.3c0.1,0,0.1,0,0.2,0C376.6,472.4,376.6,470.1,375.1,470.1
					L375.1,470.1z"/>
			</g>
		</g>
		<g>
			<g>
				<path d="M384.1,484.9c1.6,4.9,4.1,9.3,9.1,11.2c1.3,0.5,1.9-1.6,0.6-2.2c-4.1-1.6-6.2-5.7-7.5-9.7
					C385.8,482.9,383.7,483.5,384.1,484.9L384.1,484.9z"/>
			</g>
		</g>
		<g>
			<g>
				<path d="M383.8,486.1c0.6-0.9,1.6-1.4,2.8-1.6c0.6-0.1,0.9-0.9,0.8-1.4c-0.2-0.7-0.8-0.9-1.4-0.8c-1.7,0.2-3.1,1.2-4.1,2.6
					C381,486.1,382.9,487.3,383.8,486.1L383.8,486.1z"/>
			</g>
		</g>
		<g>
			<g>
				<path d="M341.3,473.1c-6.1,2.2-9.4-7.2-8.3-11.6c0.6-2.3,2.2-5,4.6-5.7c3.3-1,6.3,1.6,8.4,3.6c1,1,2.6-0.6,1.6-1.6
					c-2.7-2.6-6-5.1-10-4.3c-3.6,0.7-5.8,4.1-6.7,7.4c-1.6,6.1,3.3,17.1,11,14.4C343.3,474.8,342.7,472.6,341.3,473.1L341.3,473.1z"/>
			</g>
		</g>
		<path d="M379.5,430.4c-1.2,1.4-3,3.7-5.1,6.7c-7.6,11.1-6.9,15.6-12.2,18.8c-4.1,2.5-10.4,3.3-15.2,1.3
			c-3.6-1.5-4.6-3.8-7.7-3.7c-3.4,0.1-6.6,2.9-7.9,6.2c-1.6,3.9,0,7.5,1.1,9.8c1,2.1,2.4,5.2,5.4,5.9c1.9,0.4,3.6-0.3,4.5-0.8
			c-0.1,1.1-0.3,2.8-0.4,4.9c-0.5,8.7,0.5,14.7,0.9,18.6c1,9.4,1.9,16.9-0.9,24c-4.3,10.6-15,15.3-18.9,17
			c-16.6,7.3-32,1.2-34.1,0.3c-3.3-1.4-19.1-7.9-23-22.7c-2.4-8.9,0.3-17.9,1.4-21.7c0.5-1.6,1.8-5.6,4.4-10.2
			c5.7-10.2,13.9-16.4,19.6-19.9c1.9-6.9,5.1-16.8,10.7-28.1c6.3-12.8,9.8-19.9,17.8-26.5c12.7-10.5,27.1-11.8,31.8-12.1
			c2.4-0.2,14.2-0.9,28.2,4.8c9.9,4,21.5,8.8,26.3,20.7c5.5,13.9-2.3,27.7-3.8,30.3c-0.4-1.7-1.2-4.3-2.9-6.8
			c-2.5-3.7-5.3-5.2-9.5-8.1C387.3,437,383.7,434.3,379.5,430.4z" style="fill:#5222D0;"/>
		<g>
			<g>
				<path d="M338.3,529.2c4.3,2.5,9.3,3.1,14.1,1.5c1.8-0.6,1-3.5-0.8-2.9c-4,1.3-8.1,0.9-11.8-1.2
					C338.1,525.7,336.6,528.3,338.3,529.2L338.3,529.2z"/>
			</g>
		</g>
		<path d="M333.6,469.4c0.8,2.3,2.9,3.9,5.2,4.2c2.5,0.3,5-0.9,6.3-3.1c-0.5,3.3-1,10,2.1,17.4
			c4.2,10.2,12.4,15,16,17.1c8.8,5,17.2,5.3,21.3,5.2c-0.9,1.6-2.9,4.2-6.3,5.9c-8.1,4-16.6-1.4-17.1-1.7c-2.2,4.8-4.5,8.3-6.3,10.8
			c-2.5,3.4-3.5,4.2-4.2,4.5c-4.8,2.8-11.1-0.1-12.9-1c-2,1.9-4.9,4.3-8.7,6.6c-3.2,1.9-11.8,6.9-23.7,7c0,0-16,0-28.9-10.8
			c-5-4.2-7.1-7.9-7.7-9.1c-0.5-1-2.6-5-3.1-11.5c-1.1-12.5,4.3-23.1,7.3-27.9c5.4-8.6,12.3-13.7,16.7-16.4
			c-0.3,1.1-4,16.6,4.2,24.1c10.3,9.3,33.6,0.5,38.7-12.9C333.8,474.5,333.8,471.4,333.6,469.4z" style="opacity:0.14;fill:#3D3D3D;"/>
		<path d="M345.8,497.1c-0.8,0.4,1.1,5.6,2.9,9.3c2.9,6.1,6.5,10.6,9.1,13.3c0.7-1.8,1.4-3.6,2.1-5.3
			c2.3,1,6.6,2.4,12,2.1c3.6-0.2,6.5-1.1,8.5-1.9c-15.4-0.3-23.2-5-27.5-9.3C349.4,501.8,346.6,496.7,345.8,497.1z" style="opacity:7.000000e-002;fill:#3D3D3D;"/>
	</g>
	<g id="hand_right">
		<path d="M594.2,404.8c-1.4-0.8-1.7-2.7-1.9-4c-0.7-4.7,2.8-8.5,3.4-9.3c3.7-4.1,5.8-2,9.3-5.8
			c2.6-2.8,2.4-5.1,6.4-8.8c2.6-2.5,3.5-2.2,3.7-2.1c1.4,0.6,0.2,3.7,1.6,8.5c1.2,4,2.7,4,3.2,7.4c0.1,0.9,0.8,5.4-1.9,8
			c-1.2,1.2-2.8,1.5-6.1,2.1c-3.8,0.7-4.3,0.3-6.9,0.8C598.7,402.8,596.5,406.1,594.2,404.8z" style="fill:#FFFFFF;"/>
		<path d="M593.9,400.6c-15.1,15.6-30.2,31.3-45.3,46.9c-1.9,2.2-2,5.5-0.3,7.7c1.9,2.4,5.3,3,8,1.3c15.5-18,30.9-36.1,46.4-54.1
			C599.8,401.8,596.9,401.2,593.9,400.6z"/>
		<path d="M539.3,486c0.5,1.3-1.1,4-9.8,9.8c-2.5-0.5-4.6-1.9-5-3.7c-0.6-3,3.7-5.5,5.6-6.4C533.6,484.1,538.6,484.2,539.3,486z"/>
		<path d="M363.4,527.2c-5.4,1.2-14.9,3.5-19.3,11.3c-2.9,5.1-2.3,10.5-2.1,12.4c1,8.5,6.9,15.6,13.6,18.7
			c8.2,3.7,16.7,0.9,21-0.6c37.4-12.9,56.1-19.3,63.7-23.1c22-11.1,46.5-23.6,74.4-46.8c7.2-6,12.9-11.3,16.9-15.1
			c1.6,0.9,5.2,2.6,9.5,2.1c3.5-0.4,5.8-2,9.2-4.4c2.4-1.7,5.2-3.7,7.7-7.4c2.4-3.5,3.2-6.6,3.9-9.2c0.7-2.9,2.1-8.1,0.3-9.2
			c-1.3-0.8-2.7,1.4-6.2,1.5c-0.3,0-4.6,0-6.5-2.7c-1.8-2.5,0.1-4.8-1.5-6.8c-1.7-2.2-6.1-2-8.9-1.2c-6.5,2-9.6,9.2-11.6,13
			c-5.5,10.9-13.4,16.8-28.1,27.9c-11.4,8.6-21.6,12.6-35.3,18.1c-5.4,2.2-15.7,6.2-29.3,9.5C411.9,520.6,393.8,520.4,363.4,527.2z" style="fill:#FFFFFF;"/>
		<g>
			<g>
				<path d="M347,537.5c10.3-10.3,26.5-10.7,40.1-12.6c15.9-2.2,31.8-4.6,47.4-8.3c27.7-6.4,55.2-17.1,76.9-35.9
					c5.7-5,11-10.5,15.4-16.8c4-5.7,11.6-22.5,21-14.5c1.5,1.2,3.6-0.9,2.1-2.1c-3.6-3.1-8.4-3.3-12.6-1.2c-5.9,3-8.6,9.6-12.1,14.9
					c-9.1,13.8-22.9,24.4-37.1,32.5c-29.9,17-64.3,23.1-97.9,28c-15.2,2.2-33.6,2.4-45.2,13.9C343.5,536.7,345.6,538.8,347,537.5
					L347,537.5z"/>
			</g>
		</g>
		<g>
			<g>
				<path d="M344.8,533.9c-6.7,11.4-5.4,26.5,5.8,34.6c13.4,9.7,32.2,0.5,45.9-4.2c32.3-11.2,63.1-26.4,91.7-45.2
					c15.9-10.4,31-22,45.3-34.5c1.5-1.3-0.7-3.4-2.1-2.1c-44.9,39.2-99.4,70.2-157.2,85.7c-9.9,2.7-20.2,2.1-26.6-6.9
					c-5.6-7.7-4.9-17.9-0.2-25.8C348.4,533.8,345.8,532.3,344.8,533.9L344.8,533.9z"/>
			</g>
		</g>
		<g>
			<g>
				<path d="M560.3,453.8c0.5,2.3,1,4.8,0.8,7.2c-0.4,3.3-2,4.4-3.2,7.1c-0.5,1.2-0.6,2.4-1,3.6c-0.8,2.7-1.9,3.3-3.8,4.9
					c-2.1,1.7-3.3,3.7-5.1,5.6c-2.9,3.1-4.6,2.1-8.2,1.7c-2.6-0.3-5.3-0.7-7.9-1c-1.9-0.2-1.9,2.8,0,3c4.3,0.6,11.6,3.1,15.6,1
					c1.6-0.8,2.5-2.3,3.5-3.7c1.3-1.8,2.5-3.3,4.5-4.3c1-0.5,1.5-0.1,2.4-0.9c1.1-0.9,1.4-2.4,1.7-3.7c0.7-3.2,1.7-5.3,3.1-8.1
					c2.1-4.1,1.4-8.7,0.5-13C562.8,451.1,559.9,451.9,560.3,453.8L560.3,453.8z"/>
			</g>
		</g>
		<g>
			<g>
				<path d="M548,448.2c-2.3,3.4-0.5,8.3,3.1,9.9c4.2,1.9,8.9-0.9,11-4.6c1-1.7-1.6-3.2-2.6-1.5c-1.3,2.3-4,4.4-6.7,3.5
					c-2.4-0.7-3.7-3.7-2.2-5.8C551.6,448.1,549,446.6,548,448.2L548,448.2z"/>
			</g>
		</g>
		<g>
			<g>
				<path d="M549.9,449.6c15.1-15.7,30-31.6,44.7-47.7c1.3-1.4-0.8-3.6-2.1-2.1c-14.7,16.1-29.6,32-44.7,47.7
					C546.4,448.8,548.5,451,549.9,449.6L549.9,449.6z"/>
			</g>
		</g>
		<g>
			<g>
				<path d="M562,452.8c14.4-16.6,28.7-33.2,43.1-49.8c1.3-1.5-0.9-3.6-2.1-2.1c-14.4,16.6-28.7,33.2-43.1,49.8
					C558.6,452.2,560.7,454.3,562,452.8L562,452.8z"/>
			</g>
		</g>
		<g>
			<g>
				<path d="M538.1,485.6c-1.9,1.9-3.8,3.9-5.7,5.8c-0.6,0.6-1.5,1.9-2.2,2.3c-2.5,1.3-3.8-1.2-4.7-2.8c-1-1.7-3.6-0.2-2.6,1.5
					c1.5,2.5,4,5.7,7.3,4.7c1.8-0.5,3.1-2.3,4.3-3.6c1.9-1.9,3.8-3.9,5.7-5.8C541.6,486.3,539.4,484.2,538.1,485.6L538.1,485.6z"/>
			</g>
		</g>
		<g>
			<g>
				<path d="M604.3,402.6c6,2.7,13.3,1.1,16.4-5.1c1.5-3,1.6-6.6,0.5-9.7c-1.9-5-8.8-9.4-2.7-14.6c1.5-1.3-0.7-3.4-2.1-2.1
					c-3.5,3-4.5,7.6-2.2,11.6c2.2,3.9,5.7,6.1,4.6,11.2c-1.2,6-7.6,8.5-12.9,6.1C604,399.2,602.5,401.8,604.3,402.6L604.3,402.6z"/>
			</g>
		</g>
		<g>
			<g>
				<path d="M594.4,399.3c0.6-4.4,2.2-7.3,6.1-9.5c2-1.1,4.1-2,5.9-3.4c3.7-3,4.8-8.5,9.2-10.7c1.7-0.9,0.2-3.4-1.5-2.6
					c-2.5,1.2-4,3.1-5.4,5.5c-2.2,3.5-4.2,5.8-7.9,7.7c-6,3.1-8.5,6.2-9.4,13C591.2,401.2,594.2,401.2,594.4,399.3L594.4,399.3z"/>
			</g>
		</g>
		<g>
			<g>
				<path d="M593.9,402.2c2.8-1.1,5.7-0.7,8.1,1.1c1.5,1.2,3-1.4,1.5-2.6c-3-2.3-7-2.8-10.5-1.4C591.3,400,592.1,402.9,593.9,402.2
					L593.9,402.2z"/>
			</g>
		</g>
		<g>
			<g>
				<path d="M603.8,388.4c3.9-1.3,7.9-1.4,11.9-0.4c1.9,0.5,2.7-2.4,0.8-2.9c-4.5-1.1-9.1-1-13.5,0.4
					C601.2,386.1,602,389,603.8,388.4L603.8,388.4z" style="fill:#5222D0;"/>
			</g>
		</g>
		<g>
			<g>
				<path d="M602.1,388.4c7.3-3.1,9.5-11.6,16.3-15.4c-0.6-0.8-1.2-1.6-1.8-2.4c-5.2,4.7-0.6,11.1,0.7,16.3
					c0.7-0.6,1.5-1.1,2.2-1.7c-3.8-1.6-7.6-2.3-11.7-2c0.4,0.8,0.9,1.5,1.3,2.3c1.4-2.7,3.1-5.1,5-7.5c-0.8-0.5-1.7-1-2.5-1.5
					c-0.8,2.1-1.8,4.7-1.4,6.9c0.1,0.6,0.8,1.1,1.4,1.1c2.4-0.1,3-3.4,3.8-5.2c-0.9-0.3-1.9-0.5-2.8-0.8c0.2,1.5,0.7,3.3,0.5,4.9
					c0.2-0.4,0.5-0.9,0.7-1.3c-0.7,0.4-3.4,0.1-4.6,0.4c-2,0.4-3.7,1.1-5.5,2.1c-1.3,0.7-0.7,2.9,0.8,2.8c2.5-0.2,5-0.5,7.5-0.7
					c1.9-0.2,1.9-3.2,0-3c-2.5,0.2-5,0.5-7.5,0.7c0.3,0.9,0.5,1.9,0.8,2.8c2.1-1.1,4.4-1.9,6.8-2c0.9-0.1,2.3,0.3,3.1-0.3
					c1.8-1.3,0.6-4.4,0.4-6.3c-0.2-1.3-2.1-2.3-2.8-0.8c-0.1,0.3-1.7,3.7-1.2,3.7c0.5,0.4,1,0.7,1.4,1.1c-0.3-1.5,0.9-4,1.4-5.3
					c0.5-1.4-1.6-2.6-2.5-1.5c-2.1,2.5-3.9,5.2-5.5,8.1c-0.5,0.9,0.1,2.4,1.3,2.3c3.6-0.3,6.9,0.2,10.2,1.6c1.2,0.5,2.6-0.3,2.2-1.7
					c-1-4-5.4-9.9-1.5-13.4c1.3-1.2-0.4-3.2-1.8-2.4c-6.7,3.8-9.1,12.3-16.3,15.4C598.8,386.6,600.4,389.1,602.1,388.4L602.1,388.4z
					" style="fill:#5222D0;"/>
			</g>
		</g>
		<g>
			<g>
				<path d="M616.7,369.9c-4.2,2.6-6.8,6.5-9.9,10.2c-1.9,2.3-4,3.7-6.1,5.7c-0.8,0.7-1.5,1.1-1.5,2.2
					c0,0.2,0.1,0.5,0.4,0.6c6.3,2.7,13.3-4.5,19.5,0.6c0.4,0.3,0.9,0.3,1.2-0.2c1.8-2.6-2.2-5.1-3.7-6.7c-0.5-0.5-1.5,0-1.3,0.7
					c0.3,1,0.2,0.9,0.9,1.7c0.6,0.8,1.9,0,1.3-0.8c-0.2-0.5-0.5-0.9-0.7-1.4c-0.4,0.2-0.8,0.5-1.3,0.7c0.7,0.7,4.4,3.6,3.5,4.9
					c0.4-0.1,0.8-0.1,1.2-0.2c-2.1-1.7-4.5-2.5-7.3-2.4c-1.6,0.1-3.2,0.4-4.8,0.7c-1.3,0.3-2.5,0.6-3.8,0.7c-1.4,0.2-3.1,1-2-0.9
					c0.6-1,2.4-1.9,3.2-2.7c1.2-1.2,2.3-2.5,3.3-3.9c2.6-3.2,5-6.4,8.5-8.6C618.3,370.7,617.5,369.4,616.7,369.9L616.7,369.9z" style="fill:#5222D0;"/>
			</g>
		</g>
		<g>
			<g>
				<path d="M601.3,389.1c3,0.4,5.9-0.6,8.9-1c2.5-0.3,4.5,0.1,6.8,0.9c1.3,0.5,2.1,0.8,3.5,0.6
					c0.5-0.1,0.8-0.4,0.7-0.9c-0.2-1.3-0.5-2-1.2-3.1c-0.5-0.8-1.8,0-1.3,0.8c0.7,0.8,1,1.7,1.1,2.7c0.2-0.3,0.5-0.6,0.7-0.9
					c-2.8,0.3-5.6-1.7-8.5-1.7c-3.4,0.1-6.9,1.7-10.3,1.2C600.7,387.5,600.3,388.9,601.3,389.1L601.3,389.1z" style="fill:#5222D0;"/>
			</g>
		</g>
		<g>
			<g>
				<path d="M615.5,372.5c0.5-0.7,1.1-1.3,1.9-1.7c0.2-0.1,0.9-0.6,1.1-0.4c0.3,0.2-0.5,0.8-0.7,0.9
					c-1.2,1-2,2.3-2.6,3.7c-0.4,0.9,1.1,1.3,1.4,0.4c0.6-1.4,1.6-2.3,2.7-3.4c0.7-0.6,1.1-1.5,0.4-2.4c-1.5-2-4.4,0.6-5.4,1.9
					C613.8,372.2,614.9,373.3,615.5,372.5L615.5,372.5z" style="fill:#5222D0;"/>
			</g>
		</g>
		<g>
			<g>
				<path d="M618.9,369.2c-1.7,1.1-2.9,2.8-3.4,4.8c-0.2,0.9,1.2,1.3,1.4,0.4c0.4-1.6,1.3-2.9,2.7-3.9
					C620.5,369.9,619.7,368.6,618.9,369.2L618.9,369.2z" style="fill:#5222D0;"/>
			</g>
		</g>
		<g>
			<g>
				<path d="M346,537.3c3.2-6.3,14.8-8.7,21.2-9.5c1.9-0.3,1.1-3.2-0.8-2.9c-7.2,1-19.3,3.8-23,10.9
					C342.6,537.5,345.2,539.1,346,537.3L346,537.3z"/>
			</g>
		</g>
		<path d="M342.6,551.8c9-0.6,22.1-1.8,37.6-4.8c44.4-8.5,76-25,95.3-35.2c16-8.5,37.2-21.2,60.5-39.5
			c10.2-3.3,16.5-7.8,20.5-11.4c2.7-2.4,4.7-4.8,5.7-4.3c1.6,0.9-0.9,9.2-4.3,15.2c-3,5.4-6.5,8.5-7.6,9.5c-2.8,2.4-4.4,4.1-7.1,4.8
			c-5,1.3-9.5-1.4-11-2.4c-3.7,2.9-9.1,7.2-15.8,12.3c-27,20.5-40.6,30.8-58.5,40.6c-16.5,9-30.3,14.4-57.2,24.8
			c-2.5,1-5.8,2.1-12.4,4.3c-17.6,5.9-21.8,6.6-26.7,5.7c-2-0.4-6.9-1.3-11.4-5.2C344.3,560.9,343,554.1,342.6,551.8z" style="opacity:0.13;fill:#3D3D3D;"/>
		<path d="M421.9,552.5c-0.2-0.3,1.5-1.7,39-25.5c49.4-31.4,45.9-28.6,51.1-32.4c21.6-16,31.2-26.8,36.2-23.6
			c3.4,2.2,4,10.2,0.3,13.7c-3.2,3.1-9.9,2.8-15.9-1.6c-12.1,10.8-30.1,25.5-53.8,40.4C450.8,540.8,422.6,553.7,421.9,552.5z" style="opacity:0.19;fill:#3D3D3D;"/>
	</g>
</g>
</svg>