<?xml version="1.0" standalone="no"?>
<!DOCTYPE svg PUBLIC "-//W3C//DTD SVG 1.1//EN" "http://www.w3.org/Graphics/SVG/1.1/DTD/svg11.dtd" >
<svg xmlns="http://www.w3.org/2000/svg">
<metadata>
This is a custom SVG webfont generated by Font Squirrel.
Copyright   : Copyright c 20072010 by vernon adams All rights reserved
</metadata>
<defs>
<font id="webfontg7NPy4Pa" horiz-adv-x="1093" >
<font-face units-per-em="2048" ascent="1638" descent="-410" />
<missing-glyph horiz-adv-x="466" />
<glyph unicode=" "  horiz-adv-x="466" />
<glyph unicode="&#x09;" horiz-adv-x="466" />
<glyph unicode="&#xa0;" horiz-adv-x="466" />
<glyph unicode="!" horiz-adv-x="589" d="M113 86q0 57 41 104q39 45 94 46q43 0 69 -31q27 -29 27 -76q0 -57 -41 -104q-39 -45 -90 -45q-45 0 -74 30q-26 29 -26 76zM213 399l90 979l27 201h211l-29 -203l-199 -977h-100z" />
<glyph unicode="&#x22;" horiz-adv-x="733" d="M188 1059l13 475l6 41h211l-6 -41l-121 -475h-103zM506 1059l10 475l4 41h213l-6 -41l-123 -475h-98z" />
<glyph unicode="#" horiz-adv-x="1206" d="M139 430l19 94h184l88 348h-186l20 95h189l96 366h131l-98 -366h254l96 364h131l-96 -364h178l-25 -95h-174l-88 -348h184l-18 -94h-186l-90 -367h-132l93 367h-254l-93 -367h-131l93 367h-185zM473 524h252l90 348h-250z" />
<glyph unicode="$" horiz-adv-x="1116" d="M92 61l66 132l27 -18l10 -5q39 -20 108 -43q72 -23 123 -23l90 496q-77 34 -135 68q-55 33 -107 80q-49 46 -73 104q-25 57 -25 127q0 133 119 229.5t336 96.5l24 151h84l-24 -153q25 0 90 -9q49 -6 86 -18l31.5 -10.5t38.5 -12.5l49 -16l16 -6l-49 -119l-47 16 q-46 15 -117 31q-66 14 -121 15l-74 -447q108 -46 172.5 -80t110.5 -80q41 -43 62 -100q18 -55 18 -133q0 -119 -70 -207q-66 -84 -176 -125q-104 -39 -241 -39l-25 -151h-90l24 155q-29 0 -45 2q-20 2 -47 11q-29 8 -45 12q-29 6 -45 14l-20.5 7t-20.5 10l-35 14 q-10 4 -26 12l-19 8zM317 985q0 -61 15 -92q16 -37 61 -68q53 -37 144 -71l71 422q-131 -4 -211 -50t-80 -141zM520 102q158 0 240 54q80 53 80 178q0 49 -9 76q-8 29 -34 61q-27 35 -74 57q-51 25 -125 47z" />
<glyph unicode="%" horiz-adv-x="1701" d="M182 1071q0 37 6.5 80t18.5 104.5t38.5 114.5t63.5 103q39 51 99 77q63 29 135 29q68 0 121 -25q52 -25 79 -67q29 -45 41.5 -94.5t12.5 -112.5q0 -61 -9 -119q-6 -43 -36 -135q-23 -72 -64 -129q-37 -55 -104 -96q-63 -39 -150 -39q-72 0 -123 26q-47 25 -78 76 q-27 43 -38 99q-13 53 -13 108zM301 1065q0 -199 148 -199q184 0 227 310q8 49 8 108q0 102 -39 147.5t-110 45.5q-180 0 -224 -301q-10 -72 -10 -111zM362 -51l863 1710l98 -45l-866 -1706zM899 279q0 16 4 65q4 39 12 90q6 31 27 98q15 49 43 99q29 51 64 86q39 39 90 59 q57 23 118 23q70 0 121 -25q52 -25 80 -67q27 -41 39 -93q12 -49 12 -112q0 -98 -20 -183q-23 -96 -64 -167q-43 -78 -110 -127q-66 -47 -152 -48q-74 0 -129 25q-51 23 -82 70q-27 43 -41 96q-12 50 -12 111zM1018 279q0 -190 139 -191q53 0 96 25q45 25 68 65q29 51 41 84 q16 47 22 94q14 88 15 154q0 88 -33 135q-34 49 -117 49q-57 0 -94 -22q-43 -27 -65 -70q-29 -51 -41 -94q-10 -35 -23 -117q-8 -63 -8 -112z" />
<glyph unicode="&#x26;" horiz-adv-x="1540" d="M111 317q0 106 41 197q45 100 135 178t223 119q-10 10 -18 16q-16 12 -43 39q-35 35 -54 62q-23 31 -41 76q-18 43 -18 83q0 39 10 76q14 47 41 94q29 47 74 91q45 41 123 69q80 29 172 29q158 0 245 -78q84 -76 84 -201q0 -20 -4 -53q-18 -137 -100 -217t-256 -135 l387 -397q104 190 164 389l133 -2q-35 -125 -86 -244q-49 -111 -86 -176l-35 -60l195 -178l-94 -100l-173 176q-72 -123 -194.5 -166t-337.5 -43q-223 0 -354 94q-133 96 -133 262zM264 354q0 -131 96.5 -196.5t255.5 -65.5q88 0 140 6q61 8 106 21q51 14 94 51t82 86 l-454 461q-137 -31 -230 -131q-90 -101 -90 -232zM489 1094q0 -20 7 -41q4 -14 16 -39q8 -16 20.5 -34.5t26.5 -33.5l29 -28q6 -4 13 -12.5t11 -10.5q16 -12 23 -16q4 -2 8 -6.5t6 -6.5l6 -4q98 29 162 68q55 35 80 76q29 51 37 112q2 8 2 33q0 76 -55 119q-53 41 -146 41 q-65 0 -110 -19q-45 -18 -72 -45q-25 -27 -41 -59q-15 -34 -18 -55q-5 -29 -5 -39z" />
<glyph unicode="'" horiz-adv-x="514" d="M248 1030h96l172 543h-240z" />
<glyph unicode="(" horiz-adv-x="792" d="M256 471q0 100 16 225q18 131 56 256q33 109 82 211q33 68 94 164q49 78 94 125q47 49 84 84q41 37 57 49l23 14l72 -100q-14 -10 -33 -26q-16 -14 -78 -89q-55 -66 -107 -153q-47 -80 -98 -229.5t-72 -307.5q-18 -117 -18 -227q0 -104 21 -217q18 -102 43 -164 q25 -59 53 -109q29 -47 45 -63l18 -20l-100 -99q-14 14 -27 25q-18 15 -61 74q-41 55 -76 129q-34 71 -61 190q-27 115 -27 258z" />
<glyph unicode=")" horiz-adv-x="792" d="M76 -106l18 14l43 43q31 31 66 76q33 43 71 108q43 72 76 148q31 70 64 184q29 104 49 227q16 106 16 232q0 76 -10 161q-10 78 -25 134q-12 45 -34 104q-14 41 -39 80q-27 45 -33 53q-14 20 -27 33l-10 8l100 100q2 -2 27 -22q14 -12 61 -76q41 -55 76 -129 q29 -61 60 -192q27 -115 26 -258q0 -117 -14 -226q-16 -119 -57 -256q-37 -121 -80 -211q-39 -82 -94 -163q-51 -78 -95 -123q-45 -49 -82 -82q-33 -31 -59 -49l-23 -17z" />
<glyph unicode="*" horiz-adv-x="862" d="M141 1137l17 110l288 -10l-110 272l106 58l90 -275l183 279l88 -58l-205 -276l295 10l-16 -110l-289 8l112 -273l-114 -57l-94 248l-170 -248l-89 57l199 273z" />
<glyph unicode="+" horiz-adv-x="985" d="M154 518l18 133h291l49 344h129l-47 -344h293l-21 -133h-291l-47 -344h-135l51 344h-290z" />
<glyph unicode="," horiz-adv-x="571" d="M72 -160q70 23 104 62q29 33 39 98h-121l41 293h246l-21 -291q-2 -53 -22 -98q-14 -35 -55 -72q-31 -29 -76 -49q-35 -16 -101 -37z" />
<glyph unicode="-" horiz-adv-x="794" d="M158 508l18 131h547l-18 -131h-547z" />
<glyph unicode="." horiz-adv-x="491" d="M96 86q0 57 41 104q39 45 94 46q43 0 70 -31q27 -29 27 -76q0 -57 -41 -104q-39 -45 -90 -45q-45 0 -72 30q-29 33 -29 76z" />
<glyph unicode="/" horiz-adv-x="944" d="M96 -96l836 1827l143 -60l-850 -1833z" />
<glyph unicode="0" horiz-adv-x="1302" d="M109 469q0 66 8 121q12 82 41 174q29 90 78 168q51 82 118 143q70 63 164 99q98 37 211 36q96 0 178 -28q76 -27 129 -74q52 -46 86 -111q31 -57 47 -135q14 -66 15 -147q0 -57 -10 -125q-12 -98 -41 -176q-33 -94 -82 -168q-51 -78 -121 -142q-66 -59 -166 -98 q-96 -37 -209 -37q-92 0 -172 29q-78 29 -127 74q-53 49 -86 112q-31 57 -47 135q-14 66 -14 150zM279 459q0 -78 14 -133q18 -68 47 -111q35 -51 92 -78q55 -27 141 -26q82 0 152 28q66 27 113 74q46 46 80 111q35 66 53 131q20 72 28 137q10 76 11 131q0 346 -299 346 q-80 0 -146 -25q-61 -23 -110 -69q-51 -47 -82 -105q-27 -49 -54 -131q-16 -49 -30 -147q-10 -82 -10 -133z" />
<glyph unicode="1" horiz-adv-x="829" d="M203 1083l231 86h197l-164 -1169h-164l148 1057l-220 -90z" />
<glyph unicode="2" horiz-adv-x="1101" d="M100 0l19 141l155 121l318 246q102 80 172 174q72 96 72 197q0 86 -63.5 133t-176.5 47q-57 0 -133 -17q-57 -12 -107 -32l-39 -17l-38 123q2 0 8 3l10 5l49 21q35 14 78 24q68 16 98 21q51 8 117 8q170 0 256 -86q84 -84 84 -233q0 -238 -305 -467l-350 -262l522 2 l-21 -152h-725z" />
<glyph unicode="3" horiz-adv-x="1071" d="M82 -102l63 122q16 -8 47 -20t117 -30.5t160 -18.5q88 0 147 26q66 29 95 70q33 45 47 90q12 37 12 96q0 205 -274 238l18 143q76 0 137.5 18.5t96.5 47.5q33 27 55 65q27 45 31 72q8 45 8 72q0 88 -60 129q-57 39 -184 39q-63 0 -139 -17q-63 -14 -109 -32l-37 -17 l-28 133q20 10 51 23q49 18 121 37q94 23 168 22q37 0 98 -8q49 -6 100 -24q47 -16 88 -52q37 -31 62 -82q25 -52 24 -116q0 -92 -32 -164q-37 -80 -80 -121q-47 -45 -105 -70q-55 -25 -100 -24q45 -10 82 -27q35 -16 80 -51t69 -94q27 -63 27 -135q0 -80 -31 -162 q-29 -76 -76 -123q-53 -53 -112 -84q-70 -37 -133 -51q-72 -16 -142 -17q-53 0 -118 11q-59 10 -103 24q-49 18 -73 29l-28 11t-24 11z" />
<glyph unicode="4" horiz-adv-x="1218" d="M127 205l778 1003l150 -39l-135 -970h167l-20 -131h-168l-45 -326l-158 -29l54 355h-615zM295 197h473l115 768z" />
<glyph unicode="5" horiz-adv-x="1218" d="M109 -131l14 139l10 -5t14.5 -6t16.5 -7q20 -8 112 -29q86 -18 183 -18q174 0 274.5 100t100.5 268q0 229 -250 230q-74 0 -160 -21q-77 -18 -111 -37l-94 80l115 608h678l-19 -149h-549l-84 -410q4 0 48 19q16 8 41.5 17l31.5 11q14 6 82 23q41 10 92 10q162 0 242 -94 q82 -98 82 -268q0 -242 -151.5 -389.5t-391.5 -147.5q-92 0 -174 19q-74 16 -119 38z" />
<glyph unicode="6" horiz-adv-x="1198" d="M145 285q0 -209 101 -324q102 -117 299 -117q109 0 200 37q90 37 152 94q61 58 104 136q45 82 64 155q18 77 18 154q0 169 -98 270q-98 102 -276 103q-201 0 -336 -144q27 92 80 176q45 70 114 138q66 63 131 102q76 47 138 70q53 20 131 39l-21 145q-102 -25 -213 -78 q-113 -53 -201 -127q-95 -80 -172 -178q-70 -88 -129 -231q-55 -131 -75 -279q-11 -78 -11 -141zM309 285q0 47 10 129q8 66 23 108q43 43 135 86q104 49 213 49q100 0 164 -61q66 -61 66 -188q0 -74 -21 -142q-22 -71 -61 -135q-39 -63 -113 -104q-72 -41 -162 -41 q-254 0 -254 299z" />
<glyph unicode="7" horiz-adv-x="1118" d="M158 -160l579 957l135 223h-206h-443l19 149h778l35 -122l-752 -1283z" />
<glyph unicode="8" horiz-adv-x="1316" d="M145 178q0 23 5 60q8 63 32 129q18 51 51 98q23 33 62 72q37 37 63 53q31 18 56 31q20 10 41 18l14 2l-6 2l-19 8l-13 6.5l-13 6.5q-12 4 -29 18q-31 25 -33 27q-8 8 -28 36q-14 18 -27 46q-8 18 -16 55q-6 31 -6 67q0 66 18 127q20 70 55 117q41 57 94 98q51 39 136 66 q74 23 176 22q176 0 276 -81q102 -84 103 -232q0 -59 -17 -119q-14 -51 -41 -94q-23 -37 -55 -69q-37 -35 -61 -52q-51 -31 -56 -32l-41 -17l-14 -6q2 0 9 -2t13 -4q12 -4 52 -31q41 -27 65 -57q33 -41 51 -92q23 -63 23 -136q0 -119 -43 -206q-43 -90 -114.5 -143.5 t-164.5 -82.5q-86 -27 -194 -26q-83 0 -153.5 18.5t-129.5 54.5q-53 33 -88 101q-33 63 -33 143zM319 201q0 -104 62 -148q63 -45 184 -45q66 0 131 15q55 12 103 47q51 37 73 96q25 63 25 156q0 227 -246 260q-70 -10 -114 -29q-49 -20 -86 -47q-31 -23 -57.5 -59.5 t-39.5 -67.5q-14 -37 -22 -68q-6 -23 -10 -59q-3 -16 -3 -51zM434 909q0 -104 57.5 -149t180.5 -62q111 16 168 47q141 80 141 273q0 190 -240 190q-72 0 -127 -18q-51 -16 -88 -47q-34 -28 -55 -68q-16 -31 -29 -82q-8 -35 -8 -84z" />
<glyph unicode="9" horiz-adv-x="1161" d="M156 739q0 -170 98 -272t276 -102q205 0 338 145q-27 -92 -80 -176q-47 -76 -114 -139q-57 -53 -133 -101q-86 -51 -138 -71q-57 -23 -129 -39l21 -146q102 25 213 78q106 51 200.5 129t170.5 176q74 94 131 232q51 123 73 280q10 78 11 139q0 209 -101 324 q-102 119 -297 119q-109 0 -200 -37q-90 -37 -154 -96q-61 -58 -104 -135t-62 -154q-20 -86 -20 -154zM319 750q0 53 12.5 110.5t41.5 114.5q31 59 67.5 100t102.5 70q59 27 133 26q256 0 256 -297q0 -31 -12 -129q-10 -78 -21 -110q-39 -39 -135 -84q-104 -49 -213 -49 q-100 0 -166 61.5t-66 186.5z" />
<glyph unicode=":" horiz-adv-x="708" d="M156 0l43 264h258l-43 -264h-258zM246 612l43 265h258l-43 -265h-258z" />
<glyph unicode=";" horiz-adv-x="739" d="M162 -160q70 23 104 62q29 33 39 98h-121l41 293h244l-18 -291q-2 -47 -25 -98q-16 -39 -53 -72q-31 -29 -76 -49q-35 -16 -100 -37zM246 612l43 265h258l-43 -265h-258z" />
<glyph unicode="&#x3c;" horiz-adv-x="980" d="M240 481l26 185l621 383l-31 -195l-453 -276l377 -281l-28 -199z" />
<glyph unicode="=" horiz-adv-x="915" d="M166 281l16 131h547l-16 -131h-547zM197 508l18 131h547l-19 -131h-546z" />
<glyph unicode="&#x3e;" horiz-adv-x="911" d="M176 98l621 383l24 185l-512 383l-28 -207l358 -267l-434 -270z" />
<glyph unicode="?" horiz-adv-x="1044" d="M201 59q0 49 32 84q33 37 78 37q41 0 64 -26q20 -23 20 -62q0 -47 -30.5 -84t-79.5 -37q-33 0 -60 27q-24 24 -24 61zM264 1423l58 -141l67 31q111 51 236 51q129 0 186 -43t57 -129q0 -2 -4 -47q-10 -57 -43 -112.5t-82 -100.5q-37 -35 -106 -86q-51 -37 -112.5 -72 t-102.5 -53l-38 -18.5t-36 -16.5l-29 -12l-47 -371h148l47 277l20 10q8 4 25.5 12t28.5 12q37 16 75 39q72 41 90 54q43 29 95 69q39 31 90 86q39 43 76 99q37 57 53 114q18 65 18 129q0 70 -18 121q-18 53 -64 98q-43 43 -120.5 68t-188.5 25q-63 0 -149 -17 q-80 -15 -136 -37z" />
<glyph unicode="@" horiz-adv-x="1843" d="M137 469q0 66 8 123q25 186 111 346q88 164 209 272q125 113 276.5 176.5t315.5 63.5q199 0 344 -64q150 -66 233 -194q86 -131 86 -315q0 -63 -8 -121q-18 -135 -67 -240q-49 -102 -105 -162q-49 -51 -127 -94q-68 -37 -121 -49q-43 -10 -98 -10t-76 24q-20 23 -20 68 q0 23 2 37q3 22 43 166l-10 2q-4 -8 -7 -17q0 -4 -20 -43q-14 -29 -34.5 -59.5t-51.5 -61.5q-41 -41 -71.5 -61t-92.5 -41q-49 -16 -117 -16q-133 0 -208.5 81.5t-75.5 229.5q0 37 6 80q12 104 65 194q55 95 136 172q86 82 184 125q111 47 217 47q41 0 151 -16l56.5 -8 t39 -6t13.5 -2l37 -111l-154 -668q39 0 72 9q35 8 82 36q51 31 84 72q39 49 72 129q33 82 49 195q8 47 8 112q0 223 -139 334q-141 113 -390 113q-145 0 -280 -60q-133 -59 -229 -161q-92 -98 -158 -232q-61 -127 -84 -276q-8 -51 -8 -105q0 -223 145 -350 q147 -129 418 -129q88 0 176 16q72 12 137 39q39 14 94 45q43 23 60 37l16 17q33 -49 64 -90l-21 -21q-10 -10 -63.5 -47t-110.5 -59q-68 -27 -162 -47q-106 -23 -217 -23q-309 0 -497 160q-187 159 -187 438zM598 512q0 -182 180 -182q281 0 387 420l58 237q-2 0 -29 6 q-10 2 -33.5 5t-32.5 6q-25 4 -65 4q-168 0 -301 -125q-135 -127 -160 -310q-4 -36 -4 -61z" />
<glyph unicode="A" horiz-adv-x="1466" d="M2 0l705 1575h288l269 -1575h-177l-57 387h-670l-163 -387h-195zM403 492h611l-131 780l-41 250l-103 -258z" />
<glyph unicode="B" horiz-adv-x="1347" d="M100 0l224 1575h364q315 0 451 -70q133 -68 133 -235q0 -61 -15 -125q-12 -57 -32 -94q-25 -45 -51 -72q-35 -37 -62 -51q-25 -14 -68 -33q-31 -12 -65 -21q-28 -6 -61 -12q29 -4 81 -16q41 -10 88 -35q43 -23 80 -59q33 -33 55.5 -94.5t22.5 -129.5q0 -119 -39 -217 q-37 -92 -102 -151q-68 -61 -158 -97q-82 -33 -196 -49q-94 -14 -228 -14h-422zM301 143h242q49 0 119 4q49 2 108 13q63 10 102 26q47 20 82 47q43 33 66 70q27 43 41 98q16 61 16 131q0 143 -98 198.5t-309 55.5h-279zM410 915h272q57 0 139 9q57 6 117 28q61 25 94 52 q41 35 61.5 84t20.5 120v35q0 109 -94 152q-90 41 -344 41h-193z" />
<glyph unicode="C" horiz-adv-x="1230" d="M104 557q0 78 11 184q8 94 37 199q31 115 65 199q43 104 102 182q68 90 144 152q80 63 188 100q111 37 238 37q152 0 262 -68l135 -84l-78 -127l-125 80q-51 31 -94 39t-115 8q-100 0 -186 -37t-143.5 -94t-104.5 -139q-45 -78 -73 -164q-27 -78 -45 -170 q-18 -89 -25 -160q-6 -72 -6 -133q0 -129 26 -215q31 -96 76 -139q57 -53 117 -74q68 -23 149 -22q119 0 199 39l164 79l55 -129l-180 -80q-52 -25 -129 -43q-76 -18 -150 -18q-111 0 -204 35q-92 35 -162 100q-68 63 -109 187q-39 114 -39 276z" />
<glyph unicode="D" horiz-adv-x="1476" d="M102 0l226 1575h512q518 0 518 -565q0 -51 -8 -158q-6 -74 -29 -182q-20 -98 -55 -193q-35 -96 -90 -180q-57 -86 -134 -154q-72 -63 -186 -104q-109 -39 -240 -39h-514zM305 150h334q96 0 174 32.5t133 88t96 128.5q39 68 66 154q23 68 39 164t22 157q4 47 5 138 q0 221 -89 315q-90 96 -268 96h-334z" />
<glyph unicode="E" horiz-adv-x="1183" d="M113 0l225 1575h899l-20 -139h-719l-76 -545h627l-15 -115h-628l-91 -633h732l-19 -143h-915z" />
<glyph unicode="F" horiz-adv-x="1099" d="M127 0l225 1575h899l-20 -139h-717l-78 -557h639l-16 -117h-639l-111 -762h-182z" />
<glyph unicode="G" horiz-adv-x="1363" d="M102 553q0 78 11 184q8 94 37 199q29 106 67 201q43 104 102 182q68 90 144 151q84 68 188 103q111 37 238 37q129 0 241 -58l156 -75l-65 -136l-148 74q-82 43 -199 43q-96 0 -184 -35q-84 -33 -143 -92q-63 -63 -107 -135q-47 -80 -73 -158q-31 -90 -48 -172 q-18 -86 -24 -166q-6 -74 -6 -145q0 -233 96 -340q94 -104 272 -104q188 0 285 77q100 82 115 199l39 297h-162h-223l20 127h547l-115 -811h-96v170q-2 -2 -7 -9t-9 -14q-2 -4 -47 -49q-37 -37 -84.5 -65.5t-124.5 -48.5q-92 -25 -170 -25q-252 0 -387.5 145.5t-135.5 448.5 z" />
<glyph unicode="H" horiz-adv-x="1562" d="M106 0l224 1575h176l-98 -696h780l98 696h176l-223 -1575h-176l108 764h-780l-108 -764h-177z" />
<glyph unicode="I" horiz-adv-x="831" d="M92 0l14 102h193l193 1381h-191l14 92h551l-12 -92h-192l-193 -1381h190l-14 -102h-553z" />
<glyph unicode="J" horiz-adv-x="833" d="M2 -70l115 25l37 6q131 31 182 133q37 72 57 238q2 6 8 53l166 1190h176l-161 -1155q-2 -10 -5.5 -39t-5.5 -41t-8 -40t-8 -40q-8 -45 -18 -82q-10 -35 -27 -78q-20 -49 -37 -77q-18 -31 -47 -66q-31 -39 -61 -57q-47 -29 -78 -43q-47 -20 -94 -29l-46 -8l-118 -25z" />
<glyph unicode="K" horiz-adv-x="1271" d="M127 0l225 1575h180l-102 -729h188l574 729h203l-604 -762l-23 -29l16 -28l443 -756h-199l-428 739h-186l-105 -739h-182z" />
<glyph unicode="L" horiz-adv-x="1064" d="M113 0l225 1575h178l-201 -1432h695l-21 -143h-876z" />
<glyph unicode="M" horiz-adv-x="1955" d="M113 0l254 1575h297l213 -1296l20 -138l57 129l584 1305h289l-191 -1575h-176l152 1227l33 239l-95 -206l-567 -1260h-215l-199 1188l-45 266l-43 -254l-190 -1200h-178z" />
<glyph unicode="N" horiz-adv-x="1564" d="M94 0h156l201 1427l540 -1427h250l227 1575h-163l-199 -1409l-531 1409h-258z" />
<glyph unicode="O" horiz-adv-x="1503" d="M145 553q0 102 9 184q8 88 34 199q25 106 62 201q31 78 98 182q53 82 133 151q74 66 181 103q104 37 227 37q119 0 205 -33q92 -35 159 -102q72 -72 109 -187q37 -117 37 -274q0 -82 -10.5 -184.5t-32.5 -198.5q-25 -102 -62 -199q-37 -94 -96 -182q-55 -82 -135 -152 q-72 -63 -178 -100q-111 -39 -228 -39q-119 0 -208 33q-86 31 -160 102q-70 66 -107 185q-37 116 -37 274zM332 557q0 -233 88 -339.5t260 -106.5q88 0 162 32q82 37 129 86q55 59 96 131q41 74 70 156q23 68 45 172q18 88 24 170q6 80 6 160q0 231 -86 335.5t-258 104.5 q-82 0 -163 -33q-74 -29 -132 -84q-47 -45 -96 -129q-39 -66 -69 -155q-25 -72 -46 -170q-18 -88 -24 -170q-6 -80 -6 -160z" />
<glyph unicode="P" horiz-adv-x="1271" d="M113 0l225 1575h367q317 0 456 -84q137 -82 137 -277q0 -139 -38 -237q-41 -104 -103 -166q-59 -59 -164 -102q-98 -39 -207 -56q-100 -14 -243 -14h-160l-88 -639h-182zM406 784h159q106 0 203 11q88 10 157.5 36.5t114.5 75.5q41 43 66 119q23 68 22 174q0 86 -36 135 q-39 51 -131 76q-95 25 -265 25h-198z" />
<glyph unicode="Q" horiz-adv-x="1562" d="M123 555q0 80 10 182q8 88 35 199q25 102 61 199q37 95 99 184q61 90 135 151q80 68 182 103q109 37 229 37q88 0 164 -19q68 -16 142 -65q66 -43 112 -113q43 -61 72 -170q27 -98 27 -233q0 -76 -7 -156q-4 -63 -26 -176q-18 -95 -49 -184q-33 -94 -78 -177 q-47 -86 -113 -157q-63 -70 -151 -119q-94 -51 -197 -70l293 -282l-109 -113l-317 307l-86 82q-94 12 -170 51t-135.5 109t-89.5 178q-33 119 -33 252zM309 557q0 -229 90 -337.5t267 -108.5q89 0 165 30q76 31 131.5 86.5t98.5 128.5q39 66 69 156q25 72 46 170 q18 88 24 170q6 80 6 160q0 231 -88 338q-90 109 -264 108q-86 0 -168 -33q-74 -29 -131 -84q-51 -49 -98 -129q-43 -76 -72 -155q-20 -55 -43 -170q-23 -104 -27 -170q-6 -80 -6 -160z" />
<glyph unicode="R" horiz-adv-x="1349" d="M113 0l225 1575h348q31 0 78 -1t63 -1q8 0 127 -10q55 -4 115 -21q39 -10 92 -37q45 -23 76 -59q27 -33 45 -84q16 -47 16 -119q0 -102 -30 -182q-29 -76 -82 -129q-51 -51 -109 -80q-59 -29 -116 -43q-51 -12 -103 -12q174 -23 252 -95q82 -76 82 -217q0 -2 -4 -43 q-2 -20 -2 -45l-45 -397h-168l45 412q0 14 2 32q4 37 4 39q0 139 -106 197q-100 53 -351 53h-168l-104 -733h-182zM418 862h139q98 0 137 2q55 2 121 13q76 10 111 22q43 14 88 43t67 64q29 45 43 90q14 49 15 121q0 51 -13 88q-12 35 -45 61q-20 16 -65 37q-37 16 -96 22 q-43 4 -113 9q-37 2 -139 2h-170z" />
<glyph unicode="S" horiz-adv-x="1267" d="M113 74l57 151l192 -78q98 -37 199 -36q106 0 170 18q135 37 199 147q47 76 47 181q0 174 -203 250l-299 106q-119 43 -190 127q-70 82 -70 211q0 203 160 332q158 127 409 127q145 0 236 -45l154 -78l-68 -137l-145 71q-74 37 -191 37q-172 0 -276 -78 q-109 -80 -109 -206q0 -132 166 -191l295 -102q127 -47 213 -136q43 -43 67 -108q25 -74 25 -150q0 -94 -27 -172q-78 -264 -368 -333q-94 -23 -229.5 -23t-247.5 45z" />
<glyph unicode="T" horiz-adv-x="1044" d="M156 1436l18 139h1030l-18 -139h-424l-203 -1436h-178l205 1436h-430z" />
<glyph unicode="U" horiz-adv-x="1562" d="M186 489q0 100 19 226l121 860h178l-119 -864q-23 -180 -23 -242q0 -203 80 -287q80 -82 258 -82q117 0 189 29q76 31 137 100q59 68 100 189q39 111 64 293l125 864h178l-121 -860q-25 -178 -74 -309q-53 -143 -110 -218q-65 -83 -148 -135q-82 -51 -170 -73 q-82 -20 -190 -21q-84 0 -160 16q-74 16 -135 51t-106 97q-41 57 -68 153q-25 92 -25 213z" />
<glyph unicode="V" horiz-adv-x="1255" d="M207 1575h164l172 -1159l43 -305l125 303l499 1161h164l-678 -1575h-252z" />
<glyph unicode="W" horiz-adv-x="1951" d="M190 1575h162l76 -1419l2 -88l33 92l455 1415h296l66 -1331l6 -121l41 125l465 1327h162l-553 -1575h-258l-80 1522l-502 -1522h-280z" />
<glyph unicode="X" horiz-adv-x="1267" d="M29 0l561 791l-340 784h186l271 -645l436 645h200l-563 -784l342 -791h-190l-264 633l-447 -633h-192z" />
<glyph unicode="Y" horiz-adv-x="1171" d="M193 1575h161l213 -703l62 -206l106 206l404 703h176l-631 -1090l-68 -485h-178l74 516z" />
<glyph unicode="Z" horiz-adv-x="1126" d="M45 0l25 180l790 1047l164 209h-227h-551l20 139h959l-23 -156l-774 -1030l-192 -246h237h551l-20 -143h-959z" />
<glyph unicode="[" horiz-adv-x="1187" d="M281 0l223 1579h616l-20 -143h-438l-181 -1293h439l-21 -143h-618z" />
<glyph unicode="\" horiz-adv-x="815" d="M135 1706l150 25l319 -1870l-145 -29z" />
<glyph unicode="]" horiz-adv-x="1130" d="M113 0l22 143h438l183 1293h-439l21 143h614l-219 -1579h-620z" />
<glyph unicode="^" horiz-adv-x="1323" d="M430 358l203 330l123 201h112l45 -201l68 -330h-137l-45 234l-19 84l-55 -94l-137 -224h-158z" />
<glyph unicode="_" horiz-adv-x="1167" d="M100 -111l21 144h874l-20 -144h-875z" />
<glyph unicode="`" horiz-adv-x="712" d="M231 977h242l6 -621h-73z" />
<glyph unicode="a" d="M100 399q0 94 29 199q28 101 80 197q51 92 125 170q72 74 168 120q92 45 198 45q68 0 164 -26q74 -20 140 -51l53 -27l-148 -1026h-129l6 197q-55 -104 -145 -160q-92 -57 -192 -57q-92 0 -162 34.5t-109 92t-57 131.5q-21 81 -21 161zM262 406q0 -158 57 -228 q55 -68 168 -67q53 0 101 20q45 20 86 51q35 27 67 64q27 29 45 57l97 658q-8 4 -23 10q-31 12 -65 20q-47 10 -84 10q-117 0 -219 -81q-100 -80 -166 -220q-64 -134 -64 -294z" />
<glyph unicode="b" horiz-adv-x="1132" d="M72 0l231 1638l170 15l-119 -824q43 109 158 205t223 96q72 0 127.5 -24.5t87.5 -63.5q31 -35 54 -98q23 -61 28 -119q6 -59 6 -131q0 -80 -12 -159q-10 -72 -39 -162q-25 -82 -67 -152q-43 -72 -95 -125q-49 -51 -126.5 -83.5t-157.5 -32.5q-193 0 -299 202l-54 -182 h-116zM276 281q0 -2 5.5 -8.5t7.5 -10.5q6 -10 33 -41q20 -23 57 -51q31 -25 74 -41q47 -18 96 -18q68 0 121 32q51 31 88 93q35 57 59 120q25 65 37 136q18 106 20 122q4 35 5 93v61q0 12 -5 57q-2 29 -10 56q-10 33 -16 47q-12 25 -31 37q-31 20 -41 24q-23 8 -59 8 q-51 0 -110.5 -32.5t-112.5 -85.5q-59 -59 -93 -103q-45 -57 -67 -94z" />
<glyph unicode="c" horiz-adv-x="976" d="M129 408q0 37 8 118q6 63 25 133q20 76 45 136q33 76 69 129q41 59 99 106q51 43 131 71.5t166 28.5q164 0 274 -110l55 -55l-86 -93l-57 56q-25 25 -43 37q-20 14 -55 22q-41 10 -92 10q-86 0 -152 -39q-68 -39 -106 -100q-45 -70 -70 -139q-27 -80 -37 -158 q-10 -86 -10 -151q0 -299 242 -299q96 0 165 41l95 57l63 -109l-125 -73q-80 -49 -221 -50q-180 0 -281 111q-102 113 -102 320z" />
<glyph unicode="d" horiz-adv-x="1122" d="M100 416q0 95 19 190q18 100 57 191q37 90 96 168q57 78 140 120q84 45 186 45q52 0 98 -18q49 -20 78 -45q39 -35 55 -53l35 -45l10 -19l95 688l170 15l-236 -1653h-112v182q-74 -90 -164 -145q-94 -57 -191 -57q-90 0 -157 36q-70 39 -105 99q-37 66 -55 137 q-19 74 -19 164zM260 408q0 -53 10 -109q10 -51 29 -92q23 -47 61 -72q40 -25 99 -24q57 0 100 16q53 20 88 43l70 51q33 27 47 43l14 19l80 555q-6 12 -10 18l-7 7l-13.5 13.5t-14.5 16.5q-25 28 -55 49q-29 20 -76 39q-41 16 -94 16q-76 0 -133 -45q-63 -51 -95 -110 q-37 -74 -59 -150q-18 -63 -31 -155q-10 -78 -10 -129z" />
<glyph unicode="e" horiz-adv-x="1011" d="M90 412q0 -197 96 -316q96 -117 275 -116q53 0 96 6q39 6 80 22q33 14 51 25l47 28l135 86l-65 103l-107 -70q-106 -70 -206 -69q-137 0 -199 96q-43 67 -43 199q0 50 6 110h205q111 0 198 21q98 23 164 61q70 41 115 117q41 70 41 176q0 96 -80 168q-82 72 -213 71 q-113 0 -223 -57q-106 -55 -191 -151q-82 -94 -131 -230q-51 -141 -51 -280zM274 616q47 150 168 267q117 115 242 116q82 0 117 -34q37 -37 37 -95q0 -61 -29 -112q-28 -49 -80 -80q-45 -27 -115 -43q-63 -14 -139 -19h-201z" />
<glyph unicode="f" horiz-adv-x="620" d="M84 -410l199 1411h-158l8 78h162l10 84q18 123 53 213q33 84 84 129q45 39 103 60q47 16 121 16q49 0 92 -20.5t71 -44.5q25 -20 25 -25l-72 -125q-61 74 -135 74q-51 0 -81.5 -18.5t-55.5 -80.5q-23 -57 -39 -174l-12 -88h307l-10 -78h-307l-201 -1413z" />
<glyph unicode="g" horiz-adv-x="1161" d="M41 -172q6 98 57 162q45 57 99 90q49 31 86 49l-50 23q-92 39 -92 152q0 130 201 179l111 27q-100 18 -168 80q-66 59 -66 166q0 100 47 182q61 119 207 168q86 29 170 29q154 -2 240 -64l26 -18l78 37q92 43 207 55h18v-156h-254l33 -43q41 -63 41 -129q0 -133 -94 -233 q-104 -111 -299 -150l-270 -53q-104 -20 -105 -76q0 -45 43 -63q39 -16 94 -23l314 -35q184 -23 256 -121q39 -53 45 -141q1 -12 1 -24q0 -69 -30 -131q-49 -104 -207 -152q-154 -45 -315 -45q-184 0 -305 72q-119 69 -119 186zM182 -137q0 -82 80 -119q84 -39 236 -39 q250 0 336 92q41 45 40 105q0 39 -26 88q-37 68 -238 86l-237 22q-191 -118 -191 -235zM373 759.5q0 -100.5 57 -145.5q59 -47 139 -47h11q203 0 270 109q37 58 37 147q0 88 -68 138q-66 47 -155 47q-168 0 -234 -84q-57 -64 -57 -164.5z" />
<glyph unicode="h" horiz-adv-x="1142" d="M72 0l231 1638l168 15l-113 -799q170 276 435 276q117 0 182 -77q63 -76 63 -215q0 -49 -20 -201l-92 -637h-164l90 637q12 84 12 154q0 113 -26 159q-27 49 -101 49q-186 0 -403 -315l-96 -684h-166z" />
<glyph unicode="i" horiz-adv-x="643" d="M160 0l155 1110h162l-155 -1110h-162zM340 1409q0 61 41 104q43 45 94 46q41 0 70 -31q27 -29 26 -76q0 -57 -41 -104q-39 -45 -92 -45q-45 0 -71 30q-27 29 -27 76z" />
<glyph unicode="j" horiz-adv-x="612" d="M18 -258q55 39 97 82q37 39 61 96q20 45 35 109q12 53 25 143l133 938h168l-138 -954q-31 -217 -129 -355q-100 -141 -227 -174zM393 1409q0 61 41 104q43 45 94 46q41 0 70 -31q27 -29 27 -76q0 -57 -41 -104q-39 -45 -90 -45q-43 0 -72 30q-29 33 -29 76z" />
<glyph unicode="k" horiz-adv-x="1007" d="M72 0h166l61 428l121 96l336 -524h157l-389 602l547 508h-190l-557 -514l147 1057l-168 -15z" />
<glyph unicode="l" horiz-adv-x="587" d="M168 0l231 1638l168 15l-233 -1653h-166z" />
<glyph unicode="m" horiz-adv-x="1730" d="M72 0l157 1110h123v-260q70 141 176 211q109 70 217 69q244 0 248 -290q33 86 78 139q49 59 103 90q55 33 104 47t100 14q121 0 187 -77q61 -74 61 -222q0 -63 -6 -100l-107 -731h-163l102 727q8 55 8 107q0 84 -26 122q-29 41 -97 41q-96 0 -192 -73q-90 -70 -164 -242 l-98 -682h-162l104 725q8 55 9 106q0 84 -27 125t-98 41q-96 0 -197 -82q-94 -78 -178 -231l-96 -684h-166z" />
<glyph unicode="n" horiz-adv-x="1142" d="M72 0l157 1110h123v-260q172 281 445 280q119 0 180 -77.5t61 -214.5q0 -25 -22 -201l-90 -637h-164l90 637q12 84 12 154q0 113 -26 159q-27 49 -101 49q-182 0 -401 -315l-98 -684h-166z" />
<glyph unicode="o" horiz-adv-x="1124" d="M100 426q0 70 13 143q12 78 37 156q25 82 67 152q41 68 102 129q55 55 143.5 89.5t184.5 34.5q101 0 178 -36q78 -37 119 -99q47 -70 66 -141q20 -76 20 -174q0 -109 -20 -203q-23 -100 -66 -190q-43 -88 -108.5 -158t-153.5 -109q-92 -41 -197 -40q-96 0 -176 34 q-78 35 -121 97q-45 63 -65 141q-23 84 -23 174zM262 426q0 -151 62 -233q61 -82 182 -82q68 0 129 28q57 27 96 76q37 45 66 107q29 59 43 124q18 78 22 125q6 58 6 111q0 315 -229 315q-70 0 -131 -28q-63 -31 -100 -76q-29 -37 -68 -109q-29 -53 -45 -125 q-20 -88 -25 -122q-8 -78 -8 -111z" />
<glyph unicode="p" horiz-adv-x="1132" d="M4 -410l215 1520h123l-2 -281q63 129 176 215q115 86 217 86q72 0 127 -24.5t88 -63t51 -98.5q20 -68 27 -117q6 -57 6 -131q0 -94 -18 -190q-20 -109 -56 -191q-39 -94 -96 -170q-55 -74 -139 -118q-88 -47 -184 -47q-88 0 -166 53q-74 49 -121 129l-82 -572h-166z M266 272q8 -8 15 -16q12 -16 36 -41q20 -20 62 -49q27 -18 80 -39q43 -16 96 -16q104 0 176 90q76 94 108.5 223t32.5 283v61q0 14 -4 59q-2 29 -10 56q-6 25 -18 47q-12 27 -29 37q-23 14 -43 22q-23 8 -59 8q-53 0 -111 -32q-61 -35 -111 -82q-45 -43 -92 -101 q-35 -43 -71 -98z" />
<glyph unicode="q" horiz-adv-x="1107" d="M100 418q0 84 17 182q14 80 55 188q39 102 92 173q59 80 142 122q88 47 186 47q55 0 110 -22q47 -18 84 -53t60 -62q27 -33 35 -53l10 -22l57 192h119l-225 -1589l-168 -23l94 664q-68 -80 -154 -131q-88 -51 -178 -51q-72 0 -131 24.5t-96 65.5q-37 40 -62 98 q-29 70 -36 119q-11 68 -11 131zM260 408q0 -46 6 -86t19 -80q12 -37 37 -70q18 -25 57 -45q31 -16 80 -16q53 0 100 16q55 20 90 41q35 23 70 49q41 33 49 41l16 18l76 545l-14 21q-6 8 -39 41q-45 45 -59 55q-31 20 -80 41q-45 18 -95 18q-240 0 -301 -442 q-12 -92 -12 -147z" />
<glyph unicode="r" horiz-adv-x="741" d="M104 0l158 1110h125v-260q59 115 166 201q98 80 176 79q18 0 47 -4q22 -3 31 -6l6 -2l-22 -155q-33 8 -56 8q-53 0 -108 -25q-53 -23 -99 -59q-12 -10 -79 -72q-27 -25 -58 -59l-18 -25l-103 -731h-166z" />
<glyph unicode="s" horiz-adv-x="917" d="M55 96l80 113l74 -43q94 -55 213 -55q55 0 104 16q43 14 70 41q29 29 41 55q18 41 20 58q4 33 5 53q0 53 -31 84q-31 35 -113 67l-137 58q-70 29 -115 61q-43 33 -65 70q-25 41 -29 65q-8 41 -8 66q0 156 104 242q102 84 267 83q145 0 241 -59l96 -59l-79 -115l-80 51 q-74 49 -176 49q-119 0 -172 -53q-55 -55 -56 -123q0 -45 27 -71q28 -22 98 -56l129 -59q63 -31 111 -60q41 -25 75.5 -57.5t51.5 -73.5q14 -37 14 -96q0 -57 -10 -98q-12 -49 -41 -100q-27 -47 -72 -87q-43 -37 -116.5 -61.5t-165.5 -24.5q-82 0 -140 15q-51 10 -123 51z " />
<glyph unicode="t" horiz-adv-x="778" d="M125 1001h154l-97 -651q-12 -84 -12 -127q0 -111 59 -176q57 -63 154 -63q63 0 104 14q57 20 111 53l94 60l-71 102l-89 -55q-41 -27 -65 -33q-29 -6 -66 -6q-31 0 -49 26.5t-18 65.5q0 57 10 121l98 669h256l13 78h-258l73 523l-170 -46l-67 -477h-156z" />
<glyph unicode="u" horiz-adv-x="1118" d="M100 305q0 47 11 109l100 696h164l-99 -682q-8 -59 -8 -109q0 -100 49 -155q47 -53 136 -53q66 0 112 18q57 23 97 49q25 16 73 58q29 25 49 47l17 20l114 807h164l-157 -1110h-129l6 213q-135 -233 -373 -233q-150 0 -238 81.5t-88 243.5z" />
<glyph unicode="v" horiz-adv-x="942" d="M106 1110h158l139 -852l9 -51l20 47l377 856h172l-496 -1110h-192z" />
<glyph unicode="w" horiz-adv-x="1415" d="M113 1110h153l74 -903l4 -72l27 72l319 903h174l68 -911l6 -64l20 62l338 913h164l-444 -1110h-199l-55 891l-4 63l-19 -51l-323 -903h-189z" />
<glyph unicode="x" horiz-adv-x="974" d="M-16 0l409 532l19 23l-19 37l-256 518h166l178 -397l19 -45l26 41l285 401h178l-399 -524l-25 -31l19 -35l258 -520h-176l-174 408l-11 24h-4l-18 -29l-293 -403h-182z" />
<glyph unicode="y" horiz-adv-x="976" d="M6 -334l111 31q74 23 114 84q49 76 111 219l-233 1110h174l129 -639q12 -59 23 -119.5t16.5 -84t5.5 -25.5l67 166l297 702h174l-506 -1110q-6 -12 -26 -63l-33 -82q-15 -37 -43 -86q-27 -47 -57 -84q-33 -39 -76 -68q-47 -31 -96 -43l-123 -33z" />
<glyph unicode="z" horiz-adv-x="892" d="M41 0l20 164l371 457l287 354h-170h-348l20 135h660l-23 -164l-336 -414l-313 -387h166h370l-20 -145h-684z" />
<glyph unicode="{" horiz-adv-x="913" d="M203 551q129 0 88 -289q-10 -82 -10 -135q0 -66 8 -107q8 -39 26 -83q14 -35 39 -60q27 -27 51.5 -43t61.5 -27q45 -12 65 -14q45 -4 72 -4l25 170q-49 0 -66 2q-29 4 -53 14q-27 12 -39 33q-14 25 -22.5 57.5t-8.5 90.5q0 53 13 131q23 162 -17 243q-41 88 -102 115 q176 66 219 356q16 106 22 132q8 37 35 90q14 29 39 57q16 20 49 33q29 12 56 14q18 2 67 2l23 170q-59 0 -117 -10q-47 -8 -106 -41q-61 -35 -99 -82q-41 -53 -73 -137q-37 -94 -52 -203q-39 -287 -168 -287z" />
<glyph unicode="|" horiz-adv-x="546" d="M152 -111l254 1807h165l-254 -1807h-165z" />
<glyph unicode="}" horiz-adv-x="903" d="M123 -211l24 170q45 0 62 2q29 4 53 14q31 14 47 33q20 23 37 58q18 35 33 90q14 47 27 131q12 86 36 149q27 68 56 107q33 43 61 65q33 27 59 37q-147 66 -102 356q14 84 14 152q0 66 -8 96q-10 35 -35 54q-27 20 -53 22q-37 4 -74 4l27 170q43 0 76 -6q49 -8 69 -18 q45 -20 62 -35q20 -18 45 -60q25 -43 33 -84q10 -55 10 -116q0 -57 -14 -154q-45 -287 73 -287l-28 -188q-119 0 -164 -289q-18 -113 -53 -203t-72 -137q-35 -45 -94 -80q-55 -33 -101 -41q-65 -12 -106 -12z" />
<glyph unicode="~" horiz-adv-x="706" d="M59 1274v6q33 254 226 254q43 0 88 -18q27 -10 78 -43q53 -33 71 -43q41 -20 64 -21q34 0 49 31q14 29 20 80h148q-2 0 -2 -2v-5q-31 -229 -191 -243h-12q-4 0 -8 -1l-4 -1q-53 0 -119 30q-72 35 -115 60q-53 31 -76 31q-34 0 -49 -31q-14 -29 -20 -84h-148z" />
<glyph unicode="&#xa1;" horiz-adv-x="768" d="M221 0l31 203l197 977h100l-90 -979l-27 -201h-211zM420 1450q0 57 41 104q39 45 90 45q43 0 72 -30q29 -33 28 -76q0 -57 -41 -104q-39 -45 -96 -46q-40 0 -68 31q-26 29 -26 76z" />
<glyph unicode="&#xa2;" horiz-adv-x="1048" d="M139 440q0 59 11 138q20 154 77 276q55 121 131 190.5t164 106.5q86 35 191 39l14 108h100l-16 -114q55 -6 113 -23q55 -16 73 -26l23 -13l4 -143l-29 14l-77 25q-61 18 -127 24l-129 -919q72 6 129 20q63 14 94 31l28 14l-45 -149q-86 -41 -227 -57l-16 -117h-99l17 115 q-188 6 -295 124q-109 121 -109 336zM309 436q0 -152 66 -229q63 -76 188 -84l129 924q-154 -6 -246 -119q-94 -115 -127 -350q-10 -60 -10 -142z" />
<glyph unicode="&#xa3;" horiz-adv-x="1138" d="M127 0h743l19 133h-590q8 8 14 17q2 2 8.5 10l14.5 18t16 23q23 33 51 86q23 43 50 125q25 76 36 163h398l16 111h-416q-2 4 -5 8t-7 11.5t-6 13.5q-12 20 -33 78q-20 55 -20 110.5t14 98.5q16 47 47 88q31 39 88 63q53 23 135 23q45 0 91 -13q49 -12 83 -30 q57 -29 68 -35q16 -10 45 -33l19 -10l63 131l-12 12q-4 4 -45 33q-27 18 -74 39q-45 20 -113 35q-63 14 -143 14q-106 0 -207 -59q-96 -57 -156 -154q-57 -94 -57 -199q0 -12 4 -41q2 -14 6 -39q4 -20 9 -34l12 -31l12 -29q2 -4 5 -11t5 -11q8 -12 11 -15l6 -10l4 -4h-162 l-14 -111h182q-12 -84 -36.5 -157.5t-47.5 -118.5q-25 -49 -51 -84l-41 -53q-4 -4 -12.5 -11.5t-12.5 -11.5l-2 -2z" />
<glyph unicode="&#xa4;" horiz-adv-x="1314" d="M170 555l201 186q-35 76 -35 164q0 166 106 303l-153 195l133 123l153 -193q113 76 236 76q115 0 201 -68l198 185l99 -123l-201 -189q31 -68 31 -149q0 -164 -109 -307l160 -203l-133 -125l-160 203q-117 -76 -235 -76q-109 0 -193 61l-201 -188zM469 936 q0 -100 66 -170q65 -68 153 -68q74 0 150 47q74 45 120 125q45 76 46 162q0 102 -63.5 168t-156.5 66q-117 0 -215 -103q-100 -104 -100 -227z" />
<glyph unicode="&#xa5;" horiz-adv-x="1142" d="M195 354l18 131h283l16 131h-281l19 132h260l-299 831h162l256 -731l473 731h162l-535 -831h254l-18 -132h-277l-16 -131h274l-18 -131h-275l-51 -354h-176l49 354h-280z" />
<glyph unicode="&#xa6;" horiz-adv-x="546" d="M158 0l98 688l174 2l-96 -690h-176zM283 889l96 686l176 4l-96 -690h-176z" />
<glyph unicode="&#xa7;" horiz-adv-x="1046" d="M102 16l76 140q51 -53 121 -80q76 -29 135 -29q55 0 113 14q53 12 78 33q31 23 47 49q18 27 24 54q6 25 6 53q0 57 -36 92q-33 29 -109 59l-141 56q-125 49 -174 104q-47 53 -47 139q0 70 20 119q20 51 49 82q27 29 68 51q31 16 71 29q20 6 64 10q-113 49 -158 107 q-43 55 -43 127q0 145 106.5 243.5t289.5 98.5q94 0 192 -41q94 -39 127 -76l-72 -137q-115 109 -258 108q-68 0 -121 -16q-49 -15 -73 -43q-27 -29 -35 -55q-8 -25 -8 -56q0 -35 26 -59q33 -29 101 -55l137 -58q147 -61 201 -123q55 -65 55 -147q0 -70 -21 -119 q-23 -55 -49 -82q-29 -31 -69 -51q-33 -18 -70 -29q-20 -6 -59 -10q195 -78 194 -244q0 -172 -117 -272q-115 -100 -317 -100q-90 0 -186 37q-103 38 -138 77zM338 725q0 -127 199 -127q78 0 125 16q55 18 77 45q23 25 33 58q10 31 10 59q0 37 -14 60q-16 27 -35 36 q-27 16 -51 21q-41 8 -51 8q-6 0 -23.5 1t-27.5 1q-242 0 -242 -178z" />
<glyph unicode="&#xa8;" horiz-adv-x="950" d="M129 453q0 55 41 102q39 45 96 45q40 0 68 -31q29 -33 28 -73q0 -57 -40.5 -104.5t-92.5 -47.5q-43 0 -71.5 33t-28.5 76zM547 451q0 55 41 102q39 45 94 45q40 0 68 -31q29 -33 28 -73q0 -57 -41 -104.5t-92 -47.5q-43 0 -72 33q-26 29 -26 76z" />
<glyph unicode="&#xa9;" horiz-adv-x="1853" d="M158 666q0 72 8 129q25 174 106 321q86 154 203 260q115 104 270 170q147 63 310 64q152 0 280 -56q127 -53 213 -153q86 -98 131 -221t45 -267q0 -63 -8 -118q-25 -184 -112 -336q-94 -162 -211 -258q-123 -101 -271 -160q-150 -59 -297 -59q-188 0 -346 88 q-150 84 -237 243q-84 154 -84 353zM289 678q0 -252 153 -416q154 -162 404 -162q131 0 254 50q121 49 223 141q100 90 170 221q68 127 90 283q8 51 8 108q0 123 -35 221q-37 106 -104 189q-63 78 -174 129q-106 49 -238 49q-133 0 -262 -55.5t-227 -147.5t-166 -221 q-66 -127 -88 -272q-8 -47 -8 -117zM514 682q0 57 8 113q31 231 162 370q133 143 340 144q53 0 115 -17q70 -18 90 -26q16 -6 37 -21l-9 -110q-16 8 -30 14q-22 9 -86 25q-70 16 -127 16q-80 0 -146 -31q-65 -31 -104 -86q-45 -61 -68 -125q-25 -68 -37 -153q-8 -55 -8 -117 q0 -279 250 -279q123 0 262 70l-22 -117q-147 -72 -260 -71q-98 0 -172 30q-63 27 -113 90q-37 49 -61 127q-21 68 -21 154z" />
<glyph unicode="&#xaa;" d="M219 395l19 129h636l-18 -129h-637zM238 901q0 160 104 258t276 98q63 0 117 -10q70 -12 101 -28l4 36q12 80 12 125q0 76 -35 104.5t-125 28.5q-65 0 -135 -24q-80 -29 -106 -41q-33 -16 -41 -25l-35 109l10 6l25 14q25 12 39 21q6 4 53 22l59 21q37 10 70 16q37 6 71 6 q156 0 223.5 -61t67.5 -205q0 -53 -12 -137l-76 -549h-108v141q-129 -160 -301 -159q-125 0 -191 59q-67 61 -67 174zM389 924q0 -143 158 -144q63 0 121 33q55 31 123 90l32 238q-84 16 -166 16q-268 0 -268 -233z" />
<glyph unicode="&#xab;" horiz-adv-x="1525" d="M180 481l27 185l618 383l-28 -207l-453 -264l379 -273l-31 -207zM745 481l25 185l621 383l-29 -207l-453 -264l377 -273l-29 -207z" />
<glyph unicode="&#xac;" horiz-adv-x="1593" d="M229 1024h1096l-96 -686h164l116 836h-1257z" />
<glyph unicode="&#xad;" horiz-adv-x="794" d="M158 508l18 131h547l-18 -131h-547z" />
<glyph unicode="&#xae;" horiz-adv-x="1261" d="M211 1032q0 55 4 76q23 150 104 264q86 119 213 191q125 70 265 69q193 0 315 -127q123 -126 123 -319q0 -57 -4 -78q-22 -144 -105 -264t-208 -191q-125 -70 -269 -69q-186 0 -313 129q-125 126 -125 319zM305 1038q0 -160 101 -260q102 -102 256 -102q117 0 217 55 q104 57 171.5 155.5t86.5 219.5q4 25 4 65q0 162 -100.5 264.5t-258.5 102.5q-174 0 -311 -125t-162 -307q-4 -25 -4 -68zM518 829l82 574h102q123 0 183 -33q57 -33 57 -98q0 -16 -2 -29q-10 -70 -55 -106.5t-121 -55.5q2 -2 10 -13t17 -21q4 -6 9 -14.5t8 -12.5l3 -4 l86 -160l-94 -47q0 2 -6 15.5l-18.5 41t-24.5 58.5q-29 74 -64 147h-45l-35 -242h-92zM657 1147h52q70 0 100.5 22.5t40.5 75.5q0 2 1 8.5t1 10.5q0 39 -37 51t-133 12z" />
<glyph unicode="&#xaf;" horiz-adv-x="923" d="M92 0l19 143h651l-19 -143h-651z" />
<glyph unicode="&#xb0;" horiz-adv-x="624" d="M164 921.5q12 90.5 74 145.5q66 59 149 59q86 0 129 -57q43 -58 31 -147t-74 -148q-59 -57 -143 -57q-88 0 -133 57t-33 147.5zM231 922q-8 -57 23 -98.5t84 -41.5q51 0 92 41q37 37 47 99q9 58 -18 98q-27 39 -82 39t-96 -41q-40 -39 -50 -96z" />
<glyph unicode="&#xb1;" horiz-adv-x="1030" d="M154 -55l20 143h651l-18 -143h-653zM205 518l16 133h291l49 344h131l-49 -344h293l-21 -133h-288l-49 -344h-134l50 344h-289z" />
<glyph unicode="&#xb2;" horiz-adv-x="1101" d="M100 0l19 141l155 121l318 246q102 80 172 174q72 96 72 197q0 86 -63.5 133t-176.5 47q-57 0 -133 -17q-57 -12 -107 -32l-39 -17l-38 123q2 0 8 3l10 5l49 21q35 14 78 24q68 16 98 21q51 8 117 8q170 0 256 -86q84 -84 84 -233q0 -238 -305 -467l-350 -262l522 2 l-21 -152h-725z" />
<glyph unicode="&#xb3;" horiz-adv-x="1071" d="M82 -102l63 122q16 -8 47 -20t117 -30.5t160 -18.5q88 0 147 26q66 29 95 70q33 45 47 90q12 37 12 96q0 205 -274 238l18 143q76 0 137.5 18.5t96.5 47.5q33 27 55 65q27 45 31 72q8 45 8 72q0 88 -60 129q-57 39 -184 39q-63 0 -139 -17q-63 -14 -109 -32l-37 -17 l-28 133q20 10 51 23q49 18 121 37q94 23 168 22q37 0 98 -8q49 -6 100 -24q47 -16 88 -52q37 -31 62 -82q25 -52 24 -116q0 -92 -32 -164q-37 -80 -80 -121q-47 -45 -105 -70q-55 -25 -100 -24q45 -10 82 -27q35 -16 80 -51t69 -94q27 -63 27 -135q0 -80 -31 -162 q-29 -76 -76 -123q-53 -53 -112 -84q-70 -37 -133 -51q-72 -16 -142 -17q-53 0 -118 11q-59 10 -103 24q-49 18 -73 29l-28 11t-24 11z" />
<glyph unicode="&#xb4;" horiz-adv-x="737" d="M233 352l193 623h240l-299 -623h-134z" />
<glyph unicode="&#xb5;" horiz-adv-x="1144" d="M72 -270l188 1380h146l-97 -694q-8 -55 -8 -109q0 -98 41 -149q39 -47 125 -47q49 0 108 16q51 14 95 41q47 29 69 47q33 27 45 41l17 16l114 838h172l-155 -1106l-129 -16l2 168q-178 -188 -361 -189q-39 0 -79.5 10.5t-55.5 22.5q-23 20 -30 29l-17 22l-4 10l-47 -352z " />
<glyph unicode="&#xb6;" horiz-adv-x="1128" d="M133 1190q0 -61 23 -113q20 -49 61 -82q39 -33 90 -53q45 -18 111 -29q51 -8 127 -8l-127 -905h176l201 1427h125l-201 -1427h174l221 1579l-434 -2q-88 0 -156 -6q-63 -6 -139 -29q-66 -20 -117 -55q-45 -31 -84 -96q-35 -57 -47 -142q-4 -36 -4 -59z" />
<glyph unicode="&#xb7;" horiz-adv-x="516" d="M197 639q0 55 41 102q39 45 94 45q41 0 69 -30q27 -29 27 -74q0 -57 -41 -104.5t-90 -47.5q-47 0 -74 31q-26 29 -26 78z" />
<glyph unicode="&#xb8;" horiz-adv-x="534" d="M31 -479l4 110q96 -47 184 -47q68 0 98 33q33 35 35 68q0 2 1 7t1 9q0 18 -8 39q-4 12 -27 27q-20 14 -34 18q-20 6 -54 12q-12 2 -61 8l-74 9h-10l78 262h112q-59 -139 -69 -174q23 0 67 -4q29 -2 70 -17q43 -14 68 -31q31 -20 47 -51q18 -33 18 -78q0 -16 -2 -30 q-14 -102 -90 -161.5t-176 -59.5q-53 0 -96 12q-41 12 -64 26z" />
<glyph unicode="&#xb9;" horiz-adv-x="829" d="M203 1083l231 86h197l-164 -1169h-164l148 1057l-220 -90z" />
<glyph unicode="&#xba;" horiz-adv-x="1177" d="M213 385l18 129h637l-18 -129h-637zM236 1044q0 76 14 148q16 78 49 158q33 78 86 143q52 65 135 104q86 41 185 41q168 0 251 -104q84 -106 84 -277q0 -90 -16 -161q-20 -86 -55 -160q-33 -70 -92 -135q-49 -55 -134 -94q-80 -37 -174 -37q-168 0 -250 102 q-83 106 -83 272zM381 1051q0 -121 49 -188.5t158 -67.5q72 0 125 32q55 33 88 82t55.5 115t30.5 121q8 51 8 110q0 119 -51 189q-49 68 -156 67q-74 0 -127 -32q-55 -33 -88 -82t-55 -115q-22 -65 -31 -123q-6 -38 -6 -108z" />
<glyph unicode="&#xbb;" horiz-adv-x="1517" d="M137 98l619 383l26 185l-512 383l-28 -207l376 -264l-452 -273zM702 98l619 383l27 185l-512 383l-29 -207l377 -264l-453 -273z" />
<glyph unicode="&#xc0;" horiz-adv-x="1466" d="M2 0l705 1575h288l269 -1575h-177l-57 387h-670l-163 -387h-195zM403 492h611l-131 780l-41 250l-103 -258zM672 2351h241l7 -618h-74z" />
<glyph unicode="&#xc1;" horiz-adv-x="1466" d="M2 0l705 1575h288l269 -1575h-177l-57 387h-670l-163 -387h-195zM403 492h611l-131 780l-41 250l-103 -258zM825 1733l193 620h239l-299 -620h-133z" />
<glyph unicode="&#xc2;" horiz-adv-x="1466" d="M2 0l705 1575h288l269 -1575h-177l-57 387h-670l-163 -387h-195zM403 492h611l-131 780l-41 250l-103 -258zM588 1733l200 329l125 199h113l43 -199l68 -329h-136l-47 233l-16 84l-55 -94l-138 -223h-157z" />
<glyph unicode="&#xc3;" horiz-adv-x="1466" d="M2 0l705 1575h288l269 -1575h-177l-57 387h-670l-163 -387h-195zM403 492h611l-131 780l-41 250l-103 -258zM510 1739v6q33 254 223 254q37 0 88 -21q33 -12 80 -43q45 -29 70 -41q41 -20 63 -20q35 0 49 29q16 33 23 82h145q-2 -2 -2 -5v-2q-35 -244 -190 -243l-4 -1 q-4 -1 -8 -1h-13q-59 0 -119 28q-53 25 -114 62q-49 29 -76 28q-33 0 -47 -28q-16 -35 -23 -84h-145z" />
<glyph unicode="&#xc4;" horiz-adv-x="1466" d="M2 0l705 1575h288l269 -1575h-177l-57 387h-670l-163 -387h-195zM403 492h611l-131 780l-41 250l-103 -258zM555 1841q0 53 43 103q41 47 94 47q40 0 68 -31q29 -33 28 -76q0 -57 -40 -104q-39 -45 -93 -45q-45 0 -71 30q-29 33 -29 76zM973 1839q0 55 41 102.5t94 47.5 q40 0 68 -31q29 -33 28 -76q0 -57 -41 -104q-39 -45 -92 -45q-43 0 -72 30q-26 29 -26 76z" />
<glyph unicode="&#xc5;" horiz-adv-x="1466" d="M2 0l703 1569q-41 59 -29 139q12 92 74 147q66 59 149 60q82 0 129 -60q43 -58 31 -147q-12 -82 -64 -135l269 -1573h-177l-57 387h-670l-163 -387h-195zM403 492h611l-131 780l-41 250l-103 -258zM743 1708q-8 -55 23 -96t84 -41q51 0 92 41q37 39 47 96q9 58 -18 98 q-29 41 -82 41q-55 0 -96 -41q-40 -39 -50 -98z" />
<glyph unicode="&#xc6;" horiz-adv-x="1949" d="M18 0l1045 1575h983l-21 -139h-735l-76 -545h644l-15 -115h-645l-90 -633h747l-18 -143h-915l53 383h-520l-246 -383h-191zM539 485h450l127 930z" />
<glyph unicode="&#xc7;" horiz-adv-x="1230" d="M104 557q0 78 11 184q8 94 37 199q31 115 65 199q43 104 102 182q68 90 144 152q80 63 188 100q111 37 238 37q152 0 262 -68l135 -84l-78 -127l-125 80q-51 31 -94 39t-115 8q-100 0 -186 -37t-143.5 -94t-104.5 -139q-45 -78 -73 -164q-27 -78 -45 -170 q-18 -89 -25 -160q-6 -72 -6 -133q0 -129 26 -215q31 -96 76 -139q57 -53 117 -74q68 -23 149 -22q119 0 199 39l164 79l55 -129l-180 -80q-52 -25 -129 -43q-76 -18 -150 -18h-10q-55 -132 -61 -154q20 0 65 -4q39 -4 72 -14t66 -33q31 -20 47 -51q18 -35 18 -78 q0 -16 -2 -31q-14 -104 -88 -161q-76 -59 -176 -60q-55 0 -98 13q-37 10 -62 26l-18 13l4 110q96 -47 182 -47q70 0 100 33q33 35 35 67v17q0 23 -6 39q-4 12 -27 26q-18 12 -36 19q-20 6 -54 12q-18 4 -59 8l-76 8h-10l76 252q-46 9 -86 25q-92 35 -162 100 q-68 63 -109 187q-39 114 -39 276z" />
<glyph unicode="&#xc8;" horiz-adv-x="1183" d="M113 0l225 1575h899l-20 -139h-719l-76 -545h627l-15 -115h-628l-91 -633h732l-19 -143h-915zM598 2351h242l6 -618h-74z" />
<glyph unicode="&#xc9;" horiz-adv-x="1183" d="M113 0l225 1575h899l-20 -139h-719l-76 -545h627l-15 -115h-628l-91 -633h732l-19 -143h-915zM743 1733l191 620h240l-349 -620h-82z" />
<glyph unicode="&#xca;" horiz-adv-x="1183" d="M113 0l225 1575h899l-20 -139h-719l-76 -545h627l-15 -115h-628l-91 -633h732l-19 -143h-915zM535 1733l200 329l125 199h113l45 -199l65 -329h-135l-47 233l-16 84l-56 -94l-137 -223h-157z" />
<glyph unicode="&#xcb;" horiz-adv-x="1183" d="M113 0l225 1575h899l-20 -139h-719l-76 -545h627l-15 -115h-628l-91 -633h732l-19 -143h-915zM504 1841q0 55 41 102.5t94 47.5q41 0 70 -31q27 -29 26 -76q0 -57 -41 -104q-39 -45 -90 -45q-43 0 -72 30q-28 33 -28 76zM920 1839q0 55 40.5 102.5t96.5 47.5q40 0 67 -31 q27 -29 27 -76q0 -57 -41 -104q-39 -45 -90 -45q-45 0 -72 30q-28 33 -28 76z" />
<glyph unicode="&#xcc;" horiz-adv-x="831" d="M92 0l14 102h193l193 1381h-191l14 92h551l-12 -92h-192l-193 -1381h190l-14 -102h-553zM401 2351h242l6 -618h-74z" />
<glyph unicode="&#xcd;" horiz-adv-x="831" d="M92 0l14 102h193l193 1381h-191l14 92h551l-12 -92h-192l-193 -1381h190l-14 -102h-553zM584 1733l190 620h240l-348 -620h-82z" />
<glyph unicode="&#xce;" horiz-adv-x="831" d="M92 0l14 102h193l193 1381h-191l14 92h551l-12 -92h-192l-193 -1381h190l-14 -102h-553zM338 1733l203 329l123 199h112l45 -199l68 -329h-137l-45 233l-19 84l-55 -94l-137 -223h-158z" />
<glyph unicode="&#xcf;" horiz-adv-x="831" d="M92 0l14 102h193l193 1381h-191l14 92h551l-12 -92h-192l-193 -1381h190l-14 -102h-553zM307 1841q0 55 41 102.5t96 47.5q40 0 68 -31q29 -33 29 -76q0 -57 -41 -104q-39 -45 -92 -45q-43 0 -72 30q-29 33 -29 76zM725 1839q0 55 41 102.5t94 47.5q40 0 68 -31 q29 -33 28 -76q0 -57 -41 -104q-39 -45 -92 -45q-45 0 -71 30q-27 29 -27 76z" />
<glyph unicode="&#xd0;" horiz-adv-x="1513" d="M102 0l107 737h-103l19 144h102l101 694h512q518 0 518 -565q0 -51 -8 -158q-6 -74 -29 -182q-20 -98 -55 -193q-35 -96 -90 -180q-57 -86 -134 -154q-72 -63 -186 -104q-109 -39 -240 -39h-514zM305 150h334q96 0 174 32.5t133 88t96 128.5q39 68 66 154q23 68 39 164 t22 157q4 47 5 138q0 221 -89 315q-90 96 -268 96h-334l-75 -542h368l-16 -144h-373z" />
<glyph unicode="&#xd1;" horiz-adv-x="1564" d="M94 0h156l201 1427l540 -1427h250l227 1575h-163l-199 -1409l-531 1409h-258zM532 1739v6q33 254 224 254q37 0 88 -21q33 -12 80 -43q45 -29 69 -41q41 -20 66 -20q33 0 47 29q16 33 22 82h146v-5l-2 -2q-35 -244 -191 -243l-4 -1q-4 -1 -8 -1h-10q-61 0 -121 28 q-53 25 -115 62q-49 29 -75 28q-33 0 -48 -28q-16 -35 -22 -84h-146z" />
<glyph unicode="&#xd2;" horiz-adv-x="1503" d="M145 553q0 102 9 184q8 88 34 199q25 106 62 201q31 78 98 182q53 82 133 151q74 66 181 103q104 37 227 37q119 0 205 -33q92 -35 159 -102q72 -72 109 -187q37 -117 37 -274q0 -82 -10.5 -184.5t-32.5 -198.5q-25 -102 -62 -199q-37 -94 -96 -182q-55 -82 -135 -152 q-72 -63 -178 -100q-111 -39 -228 -39q-119 0 -208 33q-86 31 -160 102q-70 66 -107 185q-37 116 -37 274zM332 557q0 -233 88 -339.5t260 -106.5q88 0 162 32q82 37 129 86q55 59 96 131q41 74 70 156q23 68 45 172q18 88 24 170q6 80 6 160q0 231 -86 335.5t-258 104.5 q-82 0 -163 -33q-74 -29 -132 -84q-47 -45 -96 -129q-39 -66 -69 -155q-25 -72 -46 -170q-18 -88 -24 -170q-6 -80 -6 -160zM674 2351h241l7 -618h-74z" />
<glyph unicode="&#xd3;" horiz-adv-x="1503" d="M145 553q0 102 9 184q8 88 34 199q25 106 62 201q31 78 98 182q53 82 133 151q74 66 181 103q104 37 227 37q119 0 205 -33q92 -35 159 -102q72 -72 109 -187q37 -117 37 -274q0 -82 -10.5 -184.5t-32.5 -198.5q-25 -102 -62 -199q-37 -94 -96 -182q-55 -82 -135 -152 q-72 -63 -178 -100q-111 -39 -228 -39q-119 0 -208 33q-86 31 -160 102q-70 66 -107 185q-37 116 -37 274zM332 557q0 -233 88 -339.5t260 -106.5q88 0 162 32q82 37 129 86q55 59 96 131q41 74 70 156q23 68 45 172q18 88 24 170q6 80 6 160q0 231 -86 335.5t-258 104.5 q-82 0 -163 -33q-74 -29 -132 -84q-47 -45 -96 -129q-39 -66 -69 -155q-25 -72 -46 -170q-18 -88 -24 -170q-6 -80 -6 -160zM903 1733l191 620h239l-348 -620h-82z" />
<glyph unicode="&#xd4;" horiz-adv-x="1503" d="M145 553q0 102 9 184q8 88 34 199q25 106 62 201q31 78 98 182q53 82 133 151q74 66 181 103q104 37 227 37q119 0 205 -33q92 -35 159 -102q72 -72 109 -187q37 -117 37 -274q0 -82 -10.5 -184.5t-32.5 -198.5q-25 -102 -62 -199q-37 -94 -96 -182q-55 -82 -135 -152 q-72 -63 -178 -100q-111 -39 -228 -39q-119 0 -208 33q-86 31 -160 102q-70 66 -107 185q-37 116 -37 274zM332 557q0 -233 88 -339.5t260 -106.5q88 0 162 32q82 37 129 86q55 59 96 131q41 74 70 156q23 68 45 172q18 88 24 170q6 80 6 160q0 231 -86 335.5t-258 104.5 q-82 0 -163 -33q-74 -29 -132 -84q-47 -45 -96 -129q-39 -66 -69 -155q-25 -72 -46 -170q-18 -88 -24 -170q-6 -80 -6 -160zM608 1733l203 329l125 199h113l43 -199l67 -329h-135l-47 233l-16 84l-58 -94l-135 -223h-160z" />
<glyph unicode="&#xd5;" horiz-adv-x="1503" d="M145 553q0 102 9 184q8 88 34 199q25 106 62 201q31 78 98 182q53 82 133 151q74 66 181 103q104 37 227 37q119 0 205 -33q92 -35 159 -102q72 -72 109 -187q37 -117 37 -274q0 -82 -10.5 -184.5t-32.5 -198.5q-25 -102 -62 -199q-37 -94 -96 -182q-55 -82 -135 -152 q-72 -63 -178 -100q-111 -39 -228 -39q-119 0 -208 33q-86 31 -160 102q-70 66 -107 185q-37 116 -37 274zM332 557q0 -233 88 -339.5t260 -106.5q88 0 162 32q82 37 129 86q55 59 96 131q41 74 70 156q23 68 45 172q18 88 24 170q6 80 6 160q0 231 -86 335.5t-258 104.5 q-82 0 -163 -33q-74 -29 -132 -84q-47 -45 -96 -129q-39 -66 -69 -155q-25 -72 -46 -170q-18 -88 -24 -170q-6 -80 -6 -160zM532 1739v6q33 254 224 254q37 0 88 -21q33 -12 80 -43q45 -29 69 -41q41 -20 66 -20q33 0 47 29q16 33 22 82h146v-5l-2 -2q-31 -229 -191 -243 l-4 -1q-4 -1 -8 -1h-10q-61 0 -121 28q-53 25 -115 62q-49 29 -75 28q-33 0 -48 -28q-16 -35 -22 -84h-146z" />
<glyph unicode="&#xd6;" horiz-adv-x="1503" d="M145 553q0 102 9 184q8 88 34 199q25 106 62 201q31 78 98 182q53 82 133 151q74 66 181 103q104 37 227 37q119 0 205 -33q92 -35 159 -102q72 -72 109 -187q37 -117 37 -274q0 -82 -10.5 -184.5t-32.5 -198.5q-25 -102 -62 -199q-37 -94 -96 -182q-55 -82 -135 -152 q-72 -63 -178 -100q-111 -39 -228 -39q-119 0 -208 33q-86 31 -160 102q-70 66 -107 185q-37 116 -37 274zM332 557q0 -233 88 -339.5t260 -106.5q88 0 162 32q82 37 129 86q55 59 96 131q41 74 70 156q23 68 45 172q18 88 24 170q6 80 6 160q0 231 -86 335.5t-258 104.5 q-82 0 -163 -33q-74 -29 -132 -84q-47 -45 -96 -129q-39 -66 -69 -155q-25 -72 -46 -170q-18 -88 -24 -170q-6 -80 -6 -160zM580 1841q0 55 41 102.5t94 47.5q43 0 69 -31q27 -29 27 -76q0 -57 -41 -104q-39 -45 -90 -45q-45 0 -74 30q-26 29 -26 76zM995 1839 q0 55 41 102.5t94 47.5q41 0 70 -31q27 -29 27 -76q0 -57 -41 -104q-39 -45 -90 -45q-43 0 -72 30q-29 33 -29 76z" />
<glyph unicode="&#xd7;" horiz-adv-x="1165" d="M195 229l340 318l-250 315l108 103l250 -318l338 318l82 -103l-340 -315l250 -318l-109 -102l-250 317l-340 -317z" />
<glyph unicode="&#xd8;" horiz-adv-x="1415" d="M123 553q0 82 10 184.5t33 198.5q23 94 63 201q33 86 97 182q53 82 133 151q74 66 180 103q104 37 227 37q115 0 205 -33q25 -8 37 -14l66 147l102 -43l-76 -164q20 -16 33 -28q70 -70 106.5 -187t36.5 -274q0 -102 -8 -185q-8 -88 -35 -198q-25 -102 -61 -199 q-37 -94 -96 -182q-59 -86 -134 -152q-70 -61 -180 -100t-227 -39q-66 0 -125 12l-59 -131l-103 47l53 115q-68 29 -135 92q-70 70 -106 185q-37 116 -37 274zM309 557q0 -233 88 -340q29 -35 72 -61l569 1255q-78 47 -190 47q-84 0 -166 -33q-70 -29 -129 -84 q-51 -49 -98 -129q-39 -66 -70 -155q-25 -72 -45 -170q-18 -88 -25 -170q-6 -80 -6 -160zM575 117q37 -6 82 -6q90 0 164 32q82 37 129 86q51 53 94 131q41 74 70 156q23 68 45 172q18 88 25 170q8 106 8 160q0 203 -70 311z" />
<glyph unicode="&#xd9;" horiz-adv-x="1562" d="M186 489q0 100 19 226l121 860h178l-119 -864q-23 -180 -23 -242q0 -203 80 -287q80 -82 258 -82q117 0 189 29q76 31 137 100q59 68 100 189q39 111 64 293l125 864h178l-121 -860q-25 -178 -74 -309q-53 -143 -110 -218q-65 -83 -148 -135q-82 -51 -170 -73 q-82 -20 -190 -21q-84 0 -160 16q-74 16 -135 51t-106 97q-41 57 -68 153q-25 92 -25 213zM688 2351h244l6 -618h-76z" />
<glyph unicode="&#xda;" horiz-adv-x="1562" d="M186 489q0 100 19 226l121 860h178l-119 -864q-23 -180 -23 -242q0 -203 80 -287q80 -82 258 -82q117 0 189 29q76 31 137 100q59 68 100 189q39 111 64 293l125 864h178l-121 -860q-25 -178 -74 -309q-53 -143 -110 -218q-65 -83 -148 -135q-82 -51 -170 -73 q-82 -20 -190 -21q-84 0 -160 16q-74 16 -135 51t-106 97q-41 57 -68 153q-25 92 -25 213zM883 1733l190 620h240l-348 -620h-82z" />
<glyph unicode="&#xdb;" horiz-adv-x="1562" d="M186 489q0 100 19 226l121 860h178l-119 -864q-23 -180 -23 -242q0 -203 80 -287q80 -82 258 -82q117 0 189 29q76 31 137 100q59 68 100 189q39 111 64 293l125 864h178l-121 -860q-25 -178 -74 -309q-53 -143 -110 -218q-65 -83 -148 -135q-82 -51 -170 -73 q-82 -20 -190 -21q-84 0 -160 16q-74 16 -135 51t-106 97q-41 57 -68 153q-25 92 -25 213zM655 1733l201 329l125 199h113l45 -199l65 -329h-135l-45 233l-18 84l-56 -94l-137 -223h-158z" />
<glyph unicode="&#xdc;" horiz-adv-x="1562" d="M186 489q0 100 19 226l121 860h178l-119 -864q-23 -180 -23 -242q0 -203 80 -287q80 -82 258 -82q117 0 189 29q76 31 137 100q59 68 100 189q39 111 64 293l125 864h178l-121 -860q-25 -178 -74 -309q-53 -143 -110 -218q-65 -83 -148 -135q-82 -51 -170 -73 q-82 -20 -190 -21q-84 0 -160 16q-74 16 -135 51t-106 97q-41 57 -68 153q-25 92 -25 213zM625 1841q0 55 41 102.5t96 47.5q40 0 67 -31q27 -29 27 -76q0 -57 -41 -104q-39 -45 -90 -45q-45 0 -72 30q-28 33 -28 76zM1040 1839q0 55 41 102.5t97 47.5q40 0 67 -31 q29 -33 29 -76q0 -57 -41 -104q-39 -45 -92 -45q-43 0 -72 30q-29 33 -29 76z" />
<glyph unicode="&#xdd;" horiz-adv-x="1171" d="M193 1575h161l213 -703l62 -206l106 206l404 703h176l-631 -1090l-68 -485h-178l74 516zM692 1733l193 620h239l-350 -620h-82z" />
<glyph unicode="&#xde;" horiz-adv-x="1343" d="M141 0l224 1579h180l-19 -135h183q315 0 452 -86q139 -86 139 -279q0 -305 -190 -440t-565 -135h-152l-69 -504h-183zM414 649h149q307 0 438 90q127 88 127 320q0 86 -38 137q-41 55 -136 78q-106 27 -266 26h-182z" />
<glyph unicode="&#xdf;" horiz-adv-x="1296" d="M135 0l139 991q29 201 66 301q95 252 344 283q25 4 80 4q377 0 377 -313q0 -90 -27 -185q-27 -90 -88 -155q-68 -70 -154 -82q158 -16 240 -109q82 -94 82 -248q0 -41 -6 -88v-4q-14 -109 -62 -194q-45 -84 -110 -144q-63 -57 -158 -98q-84 -37 -192 -59 q-86 -18 -226 -29l23 156q137 12 225 32q94 20 156 56q61 33 100 82q41 51 60 104q20 61 28 131q4 37 4 57q0 145 -112.5 215t-339.5 70h-45l18 131h21q147 0 233 29t123 86t51 164q6 37 6 63q0 102 -59.5 145.5t-188.5 43.5q-51 0 -94 -13q-41 -12 -71 -39q-20 -18 -50 -59 q-16 -23 -34 -86q-14 -47 -25 -100q-8 -45 -18 -121l-144 -1018h-172z" />
<glyph unicode="&#xe0;" d="M100 399q0 94 29 199q28 101 80 197q51 92 125 170q72 74 168 120q92 45 198 45q68 0 164 -26q74 -20 140 -51l53 -27l-148 -1026h-129l6 197q-55 -104 -145 -160q-92 -57 -192 -57q-92 0 -162 34.5t-109 92t-57 131.5q-21 81 -21 161zM262 406q0 -158 57 -228 q55 -68 168 -67q53 0 101 20q45 20 86 51q35 27 67 64q27 29 45 57l97 658q-8 4 -23 10q-31 12 -65 20q-47 10 -84 10q-117 0 -219 -81q-100 -80 -166 -220q-64 -134 -64 -294zM477 1872h244l4 -621h-74z" />
<glyph unicode="&#xe1;" d="M100 399q0 94 29 199q28 101 80 197q51 92 125 170q72 74 168 120q92 45 198 45q68 0 164 -26q74 -20 140 -51l53 -27l-148 -1026h-129l6 197q-55 -104 -145 -160q-92 -57 -192 -57q-92 0 -162 34.5t-109 92t-57 131.5q-21 81 -21 161zM262 406q0 -158 57 -228 q55 -68 168 -67q53 0 101 20q45 20 86 51q35 27 67 64q27 29 45 57l97 658q-8 4 -23 10q-31 12 -65 20q-47 10 -84 10q-117 0 -219 -81q-100 -80 -166 -220q-64 -134 -64 -294zM651 1251l193 623h239l-350 -623h-82z" />
<glyph unicode="&#xe2;" d="M100 399q0 94 29 199q28 101 80 197q51 92 125 170q72 74 168 120q92 45 198 45q68 0 164 -26q74 -20 140 -51l53 -27l-148 -1026h-129l6 197q-55 -104 -145 -160q-92 -57 -192 -57q-92 0 -162 34.5t-109 92t-57 131.5q-21 81 -21 161zM262 406q0 -158 57 -228 q55 -68 168 -67q53 0 101 20q45 20 86 51q35 27 67 64q27 29 45 57l97 658q-8 4 -23 10q-31 12 -65 20q-47 10 -84 10q-117 0 -219 -81q-100 -80 -166 -220q-64 -134 -64 -294zM424 1251l203 330l123 201h112l45 -201l68 -330h-137l-45 236l-19 84l-55 -96l-137 -224h-158z " />
<glyph unicode="&#xe3;" d="M100 399q0 94 29 199q28 101 80 197q51 92 125 170q72 74 168 120q92 45 198 45q68 0 164 -26q74 -20 140 -51l53 -27l-148 -1026h-129l6 197q-55 -104 -145 -160q-92 -57 -192 -57q-92 0 -162 34.5t-109 92t-57 131.5q-21 81 -21 161zM262 406q0 -158 57 -228 q55 -68 168 -67q53 0 101 20q45 20 86 51q35 27 67 64q27 29 45 57l97 658q-8 4 -23 10q-31 12 -65 20q-47 10 -84 10q-117 0 -219 -81q-100 -80 -166 -220q-64 -134 -64 -294zM367 1257v7q33 254 225 254q43 0 88 -19q27 -10 78 -43q53 -33 71 -43q37 -18 64 -18 q33 0 47 28q16 35 23 80h147q-2 0 -2 -2v-4q-35 -244 -190 -244h-13q-4 0 -8 -1l-4 -1q-53 0 -119 31q-72 35 -115 59q-53 31 -75 31q-35 0 -49 -29q-16 -33 -23 -86h-145z" />
<glyph unicode="&#xe4;" d="M100 399q0 94 29 199q28 101 80 197q51 92 125 170q72 74 168 120q92 45 198 45q68 0 164 -26q74 -20 140 -51l53 -27l-148 -1026h-129l6 197q-55 -104 -145 -160q-92 -57 -192 -57q-92 0 -162 34.5t-109 92t-57 131.5q-21 81 -21 161zM262 406q0 -158 57 -228 q55 -68 168 -67q53 0 101 20q45 20 86 51q35 27 67 64q27 29 45 57l97 658q-8 4 -23 10q-31 12 -65 20q-47 10 -84 10q-117 0 -219 -81q-100 -80 -166 -220q-64 -134 -64 -294zM385 1362q0 55 41 102q39 45 94 45q40 0 68 -30q29 -33 28 -74q0 -57 -40.5 -104.5t-92.5 -47.5 q-45 0 -71 31q-27 29 -27 78zM801 1360q0 55 41 102q39 45 94 45q40 0 68 -30q29 -33 28 -74q0 -57 -41 -104.5t-92 -47.5q-43 0 -72 31q-26 29 -26 78z" />
<glyph unicode="&#xe5;" d="M100 399q0 94 29 199q28 101 80 197q51 92 125 170q72 74 168 120q92 45 198 45q68 0 164 -26q74 -20 140 -51l53 -27l-148 -1026h-129l6 197q-55 -104 -145 -160q-92 -57 -192 -57q-92 0 -162 34.5t-109 92t-57 131.5q-21 81 -21 161zM262 406q0 -158 57 -228 q55 -68 168 -67q53 0 101 20q45 20 86 51q35 27 67 64q27 29 45 57l97 658q-8 4 -23 10q-31 12 -65 20q-47 10 -84 10q-117 0 -219 -81q-100 -80 -166 -220q-64 -134 -64 -294zM555 1456q12 90 76 148q66 59 149 59q86 0 129 -59q43 -58 31 -148q-12 -86 -74 -145 q-63 -59 -143 -60q-86 0 -133 59.5t-35 145.5zM625 1456q-8 -55 22.5 -96t83.5 -41q51 0 92 41q37 37 47 96q9 58 -18 98q-29 41 -84 41q-53 0 -94 -41q-39 -39 -49 -98z" />
<glyph unicode="&#xe6;" horiz-adv-x="1667" d="M100 250q0 51 4 74v4q25 170 144 262q120 92 295 92q66 0 135 -14q80 -16 117 -35l6 45q12 96 12 145q0 94 -39 131q-41 37 -145 37q-100 0 -192.5 -36.5t-135.5 -67.5l-43 114q61 53 180 95q111 39 203 39q139 0 213 -50q72 -49 88 -165q63 111 162 161q102 53 211 54 q158 0 239.5 -100.5t81.5 -274.5q0 -100 -30 -225h-656q-12 -74 -12 -134q0 -133 59 -204q57 -70 193 -70q145 0 278 109l35 -138q-63 -51 -176 -88q-98 -33 -170 -33q-260 0 -342 224q-70 -90 -186 -158q-113 -66 -232 -66q-145 0 -221 70t-76 203zM272 279q0 -86 45 -123 q46 -37 142 -37q126 0 282 141l39 277q-102 20 -192 20q-82 0 -125 -10q-52 -12 -98 -43q-45 -31 -70 -86q-23 -51 -23 -139zM967 649h514l4 33q6 47 6 90q0 70 -18 119q-18 47 -50 70q-35 25 -63 32q-27 8 -66 8q-41 0 -73 -8q-39 -10 -76 -30q-45 -27 -78 -62 q-35 -37 -61 -100q-27 -60 -39 -152z" />
<glyph unicode="&#xe7;" horiz-adv-x="976" d="M129 408q0 37 8 118q6 63 25 133q20 76 45 136q33 76 69 129q41 59 99 106q51 43 131 71.5t166 28.5q164 0 274 -110l55 -55l-86 -93l-57 56q-25 25 -43 37q-20 14 -55 22q-41 10 -92 10q-86 0 -152 -39q-68 -39 -106 -100q-45 -70 -70 -139q-27 -80 -37 -158 q-10 -86 -10 -151q0 -299 242 -299q96 0 165 41l95 57l63 -109l-125 -73q-80 -49 -221 -50q-4 0 -14.5 1.5t-14.5 1.5q-55 -137 -61 -156q23 0 67 -4q29 -2 70 -17q43 -14 68 -30q31 -20 47 -52q18 -33 18 -77q0 -16 -2 -31q-16 -104 -90 -164q-72 -57 -176 -57 q-53 0 -96 12q-41 12 -64 27l-18 12l4 111q96 -47 184 -48q68 0 98 31q29 29 35 70q0 2 1 7t1 9q0 16 -8 37q-6 14 -26.5 28.5t-34.5 18.5q-16 6 -54 12l-61 9l-74 8h-12l80 262q-88 29 -148 90q-102 113 -102 320z" />
<glyph unicode="&#xe8;" horiz-adv-x="1011" d="M90 412q0 -197 96 -316q96 -117 275 -116q53 0 96 6q39 6 80 22q33 14 51 25l47 28l135 86l-65 103l-107 -70q-106 -70 -206 -69q-137 0 -199 96q-59 92 -37 309h205q111 0 198 21q98 23 164 61q70 41 115 117q41 70 41 176q0 96 -80 168q-82 72 -213 71q-113 0 -223 -57 q-106 -55 -191 -151q-82 -94 -131 -230q-51 -141 -51 -280zM274 616q47 150 168 267q117 115 242 116q82 0 117 -34q37 -37 37 -95q0 -61 -29 -112q-28 -49 -80 -80q-45 -27 -115 -43q-63 -14 -139 -19h-201zM502 1872h241l7 -621h-74z" />
<glyph unicode="&#xe9;" horiz-adv-x="1011" d="M90 412q0 -197 96 -316q96 -117 275 -116q53 0 96 6q39 6 80 22q33 14 51 25l47 28l135 86l-65 103l-107 -70q-106 -70 -206 -69q-137 0 -199 96q-59 92 -37 309h205q111 0 198 21q98 23 164 61q70 41 115 117q41 70 41 176q0 96 -80 168q-82 72 -213 71q-113 0 -223 -57 q-106 -55 -191 -151q-82 -94 -131 -230q-51 -141 -51 -280zM274 616q47 150 168 267q117 115 242 116q82 0 117 -34q37 -37 37 -95q0 -61 -29 -112q-28 -49 -80 -80q-45 -27 -115 -43q-63 -14 -139 -19h-201zM651 1251l193 623h239l-350 -623h-82z" />
<glyph unicode="&#xea;" horiz-adv-x="1011" d="M90 412q0 -197 96 -316q96 -117 275 -116q53 0 96 6q39 6 80 22q33 14 51 25l47 28l135 86l-65 103l-107 -70q-106 -70 -206 -69q-137 0 -199 96q-59 92 -37 309h205q111 0 198 21q98 23 164 61q70 41 115 117q41 70 41 176q0 96 -80 168q-82 72 -213 71q-113 0 -223 -57 q-106 -55 -191 -151q-82 -94 -131 -230q-51 -141 -51 -280zM274 616q47 150 168 267q117 115 242 116q82 0 117 -34q37 -37 37 -95q0 -61 -29 -112q-28 -49 -80 -80q-45 -27 -115 -43q-63 -14 -139 -19h-201zM438 1251l201 330l125 201h113l45 -201l65 -330h-135l-45 236 l-19 84l-55 -96l-137 -224h-158z" />
<glyph unicode="&#xeb;" horiz-adv-x="1011" d="M90 412q0 -197 96 -316q96 -117 275 -116q53 0 96 6q39 6 80 22q33 14 51 25l47 28l135 86l-65 103l-107 -70q-106 -70 -206 -69q-137 0 -199 96q-59 92 -37 309h205q111 0 198 21q98 23 164 61q70 41 115 117q41 70 41 176q0 96 -80 168q-82 72 -213 71q-113 0 -223 -57 q-106 -55 -191 -151q-82 -94 -131 -230q-51 -141 -51 -280zM274 616q47 150 168 267q117 115 242 116q82 0 117 -34q37 -37 37 -95q0 -61 -29 -112q-28 -49 -80 -80q-45 -27 -115 -43q-63 -14 -139 -19h-201zM408 1362q0 55 41 102q39 45 94 45q43 0 69 -30q27 -29 27 -74 q0 -57 -41 -104.5t-90 -47.5q-45 0 -74 31q-26 29 -26 78zM823 1360q0 55 41 102q39 45 94 45q41 0 70 -30q27 -29 27 -74q0 -57 -41 -104.5t-90 -47.5q-43 0 -72 31q-29 33 -29 78z" />
<glyph unicode="&#xec;" horiz-adv-x="466" d="M90 0l158 1110h162l-156 -1110h-164zM127 1872h244l6 -621h-76z" />
<glyph unicode="&#xed;" horiz-adv-x="538" d="M111 0l155 1110h162l-156 -1110h-161zM313 1251l193 623h239l-350 -623h-82z" />
<glyph unicode="&#xee;" horiz-adv-x="538" d="M94 1253l203 330l125 201h113l43 -201l67 -330h-135l-47 236l-17 84l-57 -96l-135 -224h-160zM111 0l155 1110h162l-156 -1110h-161z" />
<glyph unicode="&#xef;" horiz-adv-x="466" d="M41 1352q0 55 41 102q39 45 94 45q40 0 68 -31q29 -33 28 -75q0 -57 -41 -105q-39 -45 -92 -45q-45 0 -71 31q-27 29 -27 78zM90 0l158 1110h162l-156 -1110h-164zM457 1350q0 55 41 102q39 45 94 45q43 0 70 -31q27 -29 26 -75q0 -57 -41 -105q-39 -45 -92 -45 q-43 0 -72 31q-26 29 -26 78z" />
<glyph unicode="&#xf0;" horiz-adv-x="1095" d="M94 412q0 109 21 209q23 109 63 196q45 98 100.5 164t137.5 111q80 43 170 43q94 0 178 -52q78 -47 113 -108q-23 188 -119 371l-219 -78l-23 98l189 68q-77 117 -166 196l88 113q131 -92 227 -254l252 90l22 -100l-225 -80q115 -240 115 -525q0 -100 -17 -219 q-96 -676 -557 -675q-72 0 -133 22.5t-100 61t-65.5 92t-39 119t-12.5 137.5zM256 408q0 -285 205 -285q100 0 172 47q70 45 123 162q57 123 80 301q6 47 6 84q0 59 -17 112q-14 43 -41 78q-27 33 -57 51q-35 20 -61 27q-31 6 -62 6q-47 0 -80 -8q-39 -10 -78 -35 q-49 -31 -75 -71q-33 -49 -60 -127q-31 -90 -45 -191q-10 -75 -10 -151z" />
<glyph unicode="&#xf1;" horiz-adv-x="1142" d="M72 0l157 1110h123v-260q172 281 445 280q119 0 180 -77.5t61 -214.5q0 -25 -22 -201l-90 -637h-164l90 637q12 84 12 154q0 113 -26 159q-27 49 -101 49q-182 0 -401 -315l-98 -684h-166zM324 1257v7q33 254 223 254q43 0 88 -19q33 -12 80 -43q59 -39 69 -43 q37 -18 66 -18q33 0 47 28q16 35 23 80h145v-2l-2 -4q-31 -229 -191 -244h-12q-4 0 -7 -1l-3 -1q-55 0 -121 31q-72 35 -115 59q-53 31 -75 31q-33 0 -47 -29q-16 -33 -23 -86h-145z" />
<glyph unicode="&#xf2;" horiz-adv-x="1124" d="M100 426q0 70 13 143q12 78 37 156q25 82 67 152q41 68 102 129q55 55 143.5 89.5t184.5 34.5q101 0 178 -36q78 -37 119 -99q47 -70 66 -141q20 -76 20 -174q0 -109 -20 -203q-23 -100 -66 -190q-43 -88 -108.5 -158t-153.5 -109q-92 -41 -197 -40q-96 0 -176 34 q-78 35 -121 97q-45 63 -65 141q-23 84 -23 174zM262 426q0 -151 62 -233q61 -82 182 -82q68 0 129 28q57 27 96 76q37 45 66 107q29 59 43 124q18 78 22 125q6 58 6 111q0 315 -229 315q-70 0 -131 -28q-63 -31 -100 -76q-29 -37 -68 -109q-29 -53 -45 -125 q-20 -88 -25 -122q-8 -78 -8 -111zM453 1872h241l6 -621h-73z" />
<glyph unicode="&#xf3;" horiz-adv-x="1124" d="M100 426q0 70 13 143q12 78 37 156q25 82 67 152q41 68 102 129q55 55 143.5 89.5t184.5 34.5q101 0 178 -36q78 -37 119 -99q47 -70 66 -141q20 -76 20 -174q0 -109 -20 -203q-23 -100 -66 -190q-43 -88 -108.5 -158t-153.5 -109q-92 -41 -197 -40q-96 0 -176 34 q-78 35 -121 97q-45 63 -65 141q-23 84 -23 174zM262 426q0 -151 62 -233q61 -82 182 -82q68 0 129 28q57 27 96 76q37 45 66 107q29 59 43 124q18 78 22 125q6 58 6 111q0 315 -229 315q-70 0 -131 -28q-63 -31 -100 -76q-29 -37 -68 -109q-29 -53 -45 -125 q-20 -88 -25 -122q-8 -78 -8 -111zM602 1251l191 623h239l-348 -623h-82z" />
<glyph unicode="&#xf4;" horiz-adv-x="1124" d="M100 426q0 70 13 143q12 78 37 156q25 82 67 152q41 68 102 129q55 55 143.5 89.5t184.5 34.5q101 0 178 -36q78 -37 119 -99q47 -70 66 -141q20 -76 20 -174q0 -109 -20 -203q-23 -100 -66 -190q-43 -88 -108.5 -158t-153.5 -109q-92 -41 -197 -40q-96 0 -176 34 q-78 35 -121 97q-45 63 -65 141q-23 84 -23 174zM262 426q0 -151 62 -233q61 -82 182 -82q68 0 129 28q57 27 96 76q37 45 66 107q29 59 43 124q18 78 22 125q6 58 6 111q0 315 -229 315q-70 0 -131 -28q-63 -31 -100 -76q-29 -37 -68 -109q-29 -53 -45 -125 q-20 -88 -25 -122q-8 -78 -8 -111zM389 1251l203 330l123 201h112l45 -201l66 -330h-135l-45 236l-19 84l-55 -96l-137 -224h-158z" />
<glyph unicode="&#xf5;" horiz-adv-x="1124" d="M100 426q0 70 13 143q12 78 37 156q25 82 67 152q41 68 102 129q55 55 143.5 89.5t184.5 34.5q101 0 178 -36q78 -37 119 -99q47 -70 66 -141q20 -76 20 -174q0 -109 -20 -203q-23 -100 -66 -190q-43 -88 -108.5 -158t-153.5 -109q-92 -41 -197 -40q-96 0 -176 34 q-78 35 -121 97q-45 63 -65 141q-23 84 -23 174zM262 426q0 -151 62 -233q61 -82 182 -82q68 0 129 28q57 27 96 76q37 45 66 107q29 59 43 124q18 78 22 125q6 58 6 111q0 315 -229 315q-70 0 -131 -28q-63 -31 -100 -76q-29 -37 -68 -109q-29 -53 -45 -125 q-20 -88 -25 -122q-8 -78 -8 -111zM311 1257v7q33 254 226 254q41 0 88 -19q33 -12 80 -43q59 -39 69 -43q37 -18 64 -18q35 0 49 28.5t20 79.5h148q-2 0 -2 -2v-4q-31 -229 -191 -244h-12q-4 0 -8 -1l-4 -1q-55 0 -119 31q-72 35 -115 59q-51 31 -76 31q-35 0 -49 -28.5 t-20 -86.5h-148z" />
<glyph unicode="&#xf6;" horiz-adv-x="1124" d="M100 426q0 70 13 143q12 78 37 156q25 82 67 152q41 68 102 129q55 55 143.5 89.5t184.5 34.5q101 0 178 -36q78 -37 119 -99q47 -70 66 -141q20 -76 20 -174q0 -109 -20 -203q-23 -100 -66 -190q-43 -88 -108.5 -158t-153.5 -109q-92 -41 -197 -40q-96 0 -176 34 q-78 35 -121 97q-45 63 -65 141q-23 84 -23 174zM262 426q0 -151 62 -233q61 -82 182 -82q68 0 129 28q57 27 96 76q37 45 66 107q29 59 43 124q18 78 22 125q6 58 6 111q0 315 -229 315q-70 0 -131 -28q-63 -31 -100 -76q-29 -37 -68 -109q-29 -53 -45 -125 q-20 -88 -25 -122q-8 -78 -8 -111zM358 1362q0 55 41 102q39 45 97 45q40 0 67 -30q29 -33 29 -74q0 -57 -41 -104.5t-92 -47.5q-45 0 -72 31q-29 33 -29 78zM774 1360q0 55 41 102q39 45 96 45q40 0 68 -30q29 -33 29 -74q0 -57 -41 -104.5t-93 -47.5q-43 0 -71 31 q-29 33 -29 78z" />
<glyph unicode="&#xf7;" horiz-adv-x="862" d="M160 508l16 131h647l-16 -131h-647zM336 250q0 55 41 102q39 45 94 45q40 0 68 -30q29 -33 28 -76q0 -57 -41 -105q-39 -45 -92 -45q-45 0 -72 31q-26 29 -26 78zM406 854q0 55 40 102q39 45 95 45q41 0 69 -30q27 -29 27 -74q0 -57 -41 -104.5t-90 -47.5q-47 0 -74 31 q-26 29 -26 78z" />
<glyph unicode="&#xf8;" horiz-adv-x="1124" d="M100 426q0 70 13 143q12 78 37 156q25 82 67 152q41 68 102 129q55 55 143.5 89.5t184.5 34.5q86 0 150 -24l69 154l70 -33l-70 -156q49 -33 78 -76q45 -61 66 -141q20 -76 20 -174q0 -109 -20 -203q-23 -100 -66 -190q-43 -88 -108.5 -158t-153.5 -109q-92 -41 -197 -40 q-66 0 -106 10l-78 -170l-72 35l74 161q-72 35 -115 97q-45 66 -65 139q-23 84 -23 174zM262 426q0 -151 62 -233q12 -16 41 -41l374 827q-37 18 -100 18q-70 0 -131 -28q-63 -31 -100 -76q-29 -37 -68 -109q-29 -53 -45 -125q-20 -88 -25 -122q-8 -78 -8 -111zM436 119 q27 -8 70 -8q68 0 129 28q57 27 96 76q37 45 66 107q29 59 43 124q18 78 22 125q6 58 6 111q0 172 -65 250z" />
<glyph unicode="&#xf9;" horiz-adv-x="1118" d="M100 305q0 47 11 109l100 696h164l-99 -682q-8 -59 -8 -109q0 -100 49 -155q47 -53 136 -53q66 0 112 18q57 23 97 49q25 16 73 58q29 25 49 47l17 20l114 807h164l-157 -1110h-129l6 213q-135 -233 -373 -233q-150 0 -238 81.5t-88 243.5zM455 1872h241l6 -621h-73z" />
<glyph unicode="&#xfa;" horiz-adv-x="1118" d="M100 305q0 47 11 109l100 696h164l-99 -682q-8 -59 -8 -109q0 -100 49 -155q47 -53 136 -53q66 0 112 18q57 23 97 49q25 16 73 58q29 25 49 47l17 20l114 807h164l-157 -1110h-129l6 213q-135 -233 -373 -233q-150 0 -238 81.5t-88 243.5zM602 1251l191 623h239 l-348 -623h-82z" />
<glyph unicode="&#xfb;" horiz-adv-x="1118" d="M100 305q0 47 11 109l100 696h164l-99 -682q-8 -59 -8 -109q0 -100 49 -155q47 -53 136 -53q66 0 112 18q57 23 97 49q25 16 73 58q29 25 49 47l17 20l114 807h164l-157 -1110h-129l6 213q-135 -233 -373 -233q-150 0 -238 81.5t-88 243.5zM399 1251l203 330l123 201h115 l43 -201l67 -330h-137l-45 236l-16 84l-58 -96l-137 -224h-158z" />
<glyph unicode="&#xfc;" horiz-adv-x="1118" d="M100 305q0 47 11 109l100 696h164l-99 -682q-8 -59 -8 -109q0 -100 49 -155q47 -53 136 -53q66 0 112 18q57 23 97 49q25 16 73 58q29 25 49 47l17 20l114 807h164l-157 -1110h-129l6 213q-135 -233 -373 -233q-150 0 -238 81.5t-88 243.5zM360 1362q0 55 41 102 q39 45 95 45q41 0 69 -30q27 -29 27 -74q0 -57 -41 -104.5t-90 -47.5q-47 0 -74 31q-27 29 -27 78zM776 1360q0 55 41 102q39 45 94 45q43 0 70 -30q27 -29 27 -74q0 -57 -41 -104.5t-90 -47.5q-45 0 -72 31q-29 33 -29 78z" />
<glyph unicode="&#xfd;" horiz-adv-x="976" d="M6 -334l111 31q74 23 114 84q49 76 111 219l-233 1110h174l129 -639q12 -59 23 -119.5t16.5 -84t5.5 -25.5l67 166l297 702h174l-506 -1110q-6 -12 -26 -63l-33 -82q-15 -37 -43 -86q-27 -47 -57 -84q-33 -39 -76 -68q-47 -31 -96 -43l-123 -33zM526 1251l191 623h239 l-348 -623h-82z" />
<glyph unicode="&#xfe;" horiz-adv-x="1191" d="M43 -487l289 2052h164l-86 -617q72 84 159 133q89 49 179 49t157.5 -36.5t104.5 -98.5q33 -53 53 -137q16 -66 16 -162q0 -102 -16 -190q-18 -100 -57 -193q-37 -90 -97 -168q-57 -78 -139 -120q-84 -45 -186 -45q-211 0 -289 137l-82 -582zM317 250q2 -4 13 -14 q9 -9 37 -31q33 -27 59 -39q25 -12 80 -31q37 -12 96 -12q244 0 305 432q12 84 13 150q0 283 -197 282q-45 0 -100 -16q-57 -16 -91 -39q-37 -25 -67 -49q-41 -33 -49 -41l-17 -17z" />
<glyph unicode="&#xff;" horiz-adv-x="976" d="M6 -334l111 31q74 23 114 84q49 76 111 219l-233 1110h174l129 -639q12 -59 23 -119.5t16.5 -84t5.5 -25.5l67 166l297 702h174l-506 -1110q-6 -12 -26 -63l-33 -82q-15 -37 -43 -86q-27 -47 -57 -84q-33 -39 -76 -68q-47 -31 -96 -43l-123 -33zM266 1362q0 55 41 102 q39 45 94 45q41 0 70 -30q27 -29 27 -74q0 -57 -41 -104.5t-90 -47.5q-43 0 -72 31q-29 33 -29 78zM682 1360q0 55 41 102q39 45 94 45q43 0 70 -30q27 -29 26 -74q0 -57 -41 -104.5t-90 -47.5q-45 0 -71 31q-29 33 -29 78z" />
<glyph unicode="&#x152;" horiz-adv-x="2686" d="M145 553q0 102 9 184q8 88 34 199q25 106 62 201q31 78 98 182q53 82 133 151q74 66 181 103q104 37 227 37q119 0 205 -33q92 -35 159 -102q72 -72 109 -187q37 -117 37 -274q0 -82 -10.5 -184.5t-32.5 -198.5q-25 -102 -62 -199q-37 -94 -96 -182q-55 -82 -135 -152 q-72 -63 -178 -100q-111 -39 -228 -39q-119 0 -208 33q-86 31 -160 102q-70 66 -107 185q-37 116 -37 274zM332 557q0 -233 88 -339.5t260 -106.5q88 0 162 32q82 37 129 86q55 59 96 131q41 74 70 156q23 68 45 172q18 88 24 170q6 80 6 160q0 231 -86 335.5t-258 104.5 q-82 0 -163 -33q-74 -29 -132 -84q-47 -45 -96 -129q-39 -66 -69 -155q-25 -72 -46 -170q-18 -88 -24 -170q-6 -80 -6 -160zM1618 0l223 1575h899l-18 -139h-721l-76 -545h629l-14 -115h-631l-90 -633h733l-19 -143h-915z" />
<glyph unicode="&#x153;" horiz-adv-x="2138" d="M100 426q0 70 13 143q12 78 37 156q25 82 67 152q41 68 102 129q55 55 143.5 89.5t184.5 34.5q101 0 178 -36q78 -37 119 -99q47 -70 66 -141q20 -76 20 -174q0 -109 -20 -203q-23 -100 -66 -190q-43 -88 -108.5 -158t-153.5 -109q-92 -41 -197 -40q-96 0 -176 34 q-78 35 -121 97q-45 63 -65 141q-23 84 -23 174zM262 426q0 -151 62 -233q61 -82 182 -82q68 0 129 28q57 27 96 76q37 45 66 107q29 59 43 124q18 78 22 125q6 58 6 111q0 315 -229 315q-70 0 -131 -28q-63 -31 -100 -76q-29 -37 -68 -109q-29 -53 -45 -125 q-20 -88 -25 -122q-8 -78 -8 -111zM1217 412q0 -197 96 -316q96 -117 274 -116q53 0 96 6q37 6 78 22q33 14 51 25l18 10q17 10 32 18l135 86l-68 103l-104 -70q-106 -70 -207 -69q-137 0 -199 96q-61 94 -39 309h205q113 0 201 21q98 23 164 61q70 41 114 117q41 70 41 176 q0 96 -80 168q-82 72 -213 71q-113 0 -223 -57q-106 -55 -190 -151q-82 -94 -131 -230q-51 -141 -51 -280zM1401 616q47 150 168 267q117 115 241 116q80 0 115 -34q37 -37 37 -95q0 -66 -27 -112q-28 -49 -80 -80q-45 -27 -114 -43q-63 -14 -139 -19h-201z" />
<glyph unicode="&#x178;" horiz-adv-x="1171" d="M193 1575h161l213 -703l62 -206l106 206l404 703h176l-631 -1090l-68 -485h-178l74 516zM471 1841q0 55 41 102.5t94 47.5q41 0 70 -31q27 -29 26 -76q0 -57 -40 -104q-39 -45 -91 -45q-43 0 -71 30q-29 33 -29 76zM887 1839q0 55 41 102.5t96 47.5q40 0 68 -31 q27 -29 26 -76q0 -57 -41 -104q-39 -45 -90 -45q-45 0 -72 30q-28 33 -28 76z" />
<glyph unicode="&#x2c6;" horiz-adv-x="1323" d="M430 358l203 330l123 201h112l45 -201l68 -330h-137l-45 234l-19 84l-55 -94l-137 -224h-158z" />
<glyph unicode="&#x2dc;" horiz-adv-x="466" d="M-336 127v6q33 254 225 254q41 0 88 -18q33 -12 80 -43q59 -39 70 -43q37 -18 63 -19q35 0 49.5 29t20.5 82h148q-2 -2 -2 -4v-2q-31 -229 -191 -244l-4 -1q-4 -1 -8 -1h-13q-59 0 -118 29q-53 25 -115 61q-49 29 -76 29q-35 0 -49 -29t-20 -86h-148z" />
<glyph unicode="&#x2000;" horiz-adv-x="1175" />
<glyph unicode="&#x2001;" horiz-adv-x="2353" />
<glyph unicode="&#x2002;" horiz-adv-x="1175" />
<glyph unicode="&#x2003;" horiz-adv-x="2353" />
<glyph unicode="&#x2004;" horiz-adv-x="782" />
<glyph unicode="&#x2005;" horiz-adv-x="587" />
<glyph unicode="&#x2006;" horiz-adv-x="391" />
<glyph unicode="&#x2007;" horiz-adv-x="391" />
<glyph unicode="&#x2008;" horiz-adv-x="292" />
<glyph unicode="&#x2009;" horiz-adv-x="468" />
<glyph unicode="&#x200a;" horiz-adv-x="129" />
<glyph unicode="&#x2010;" horiz-adv-x="794" d="M158 508l18 131h547l-18 -131h-547z" />
<glyph unicode="&#x2011;" horiz-adv-x="794" d="M158 508l18 131h547l-18 -131h-547z" />
<glyph unicode="&#x2012;" horiz-adv-x="794" d="M158 508l18 131h547l-18 -131h-547z" />
<glyph unicode="&#x2013;" horiz-adv-x="1024" d="M158 508v131h792v-131h-792z" />
<glyph unicode="&#x2014;" horiz-adv-x="2048" d="M158 508v131h1816v-131h-1816z" />
<glyph unicode="&#x2018;" horiz-adv-x="712" d="M231 977h242l6 -621h-73z" />
<glyph unicode="&#x2019;" horiz-adv-x="514" d="M248 1030h96l172 543h-240z" />
<glyph unicode="&#x201a;" horiz-adv-x="485" d="M61 -160q70 23 105 62q29 33 39 98h-121l41 293h246l-21 -291q-2 -53 -22 -98q-14 -35 -56 -72q-31 -29 -75 -49q-35 -16 -101 -37z" />
<glyph unicode="&#x201c;" horiz-adv-x="874" d="M211 1100l18 291q2 47 25 98q16 39 53 72q31 29 76 49q35 16 100 37l35 -95q-70 -23 -104 -61q-29 -33 -39 -98h121l-41 -293h-244zM563 1100l21 291q2 53 22 98q14 35 56 72q31 29 75 49q35 16 101 37l34 -95q-70 -23 -104 -61q-29 -33 -39 -98h121l-41 -293h-246z" />
<glyph unicode="&#x201d;" horiz-adv-x="841" d="M211 1130q70 23 102 60q29 33 39 98h-121l41 293h246l-20 -291q-2 -51 -23 -96q-16 -39 -53 -72q-29 -27 -78 -49q-40 -18 -98 -37zM563 1130q72 25 105 60q29 33 39 98h-121l41 293h245l-20 -291q-2 -51 -23 -96q-14 -35 -55 -72q-31 -29 -76 -49q-35 -16 -100 -37z" />
<glyph unicode="&#x201e;" horiz-adv-x="841" d="M61 -158q70 23 103 60q33 35 41 98h-121l41 295h244l-21 -293q-2 -51 -22 -96q-16 -39 -54 -72q-31 -29 -75 -49q-35 -16 -101 -37zM416 -158q70 23 102 60q29 33 39 98h-121l41 295h246l-21 -293q-2 -51 -22 -96q-16 -39 -53 -72q-31 -29 -76 -49q-35 -16 -100 -37z" />
<glyph unicode="&#x2022;" horiz-adv-x="1208" d="M328 643q0 100 51 188q53 92 139 144q88 53 184 53q121 0 201 -82t80 -205q0 -154 -112.5 -268.5t-262.5 -114.5q-123 0 -202 82q-78 80 -78 203z" />
<glyph unicode="&#x2026;" horiz-adv-x="1421" d="M96 86q0 57 41 104q39 45 94 46q43 0 70 -31q27 -29 27 -76q0 -57 -41 -104q-39 -45 -90 -45q-45 0 -72 30q-29 33 -29 76zM569 86q0 57 41 104q39 45 97 46q40 0 67 -31q29 -33 29 -76q0 -57 -41 -104q-39 -45 -92 -45q-43 0 -72 30q-29 33 -29 76zM1044 86q0 57 41 104 q39 45 95 46q41 0 69 -31q27 -29 27 -76q0 -57 -41 -104q-39 -45 -90 -45q-47 0 -74 30q-27 29 -27 76z" />
<glyph unicode="&#x202f;" horiz-adv-x="468" />
<glyph unicode="&#x2039;" horiz-adv-x="954" d="M190 481l25 185l621 383l-29 -195l-453 -276l377 -281l-29 -199z" />
<glyph unicode="&#x203a;" horiz-adv-x="962" d="M197 98l618 383l27 185l-512 383l-29 -207l358 -267l-434 -270z" />
<glyph unicode="&#x205f;" horiz-adv-x="587" />
<glyph unicode="&#x20ac;" horiz-adv-x="1105" d="M119 573l18 123h148q0 2 1 8.5t3 18.5l4 25q2 16 7 37.5t5 23.5h-168l19 123h188q45 233 182.5 370.5t356.5 137.5q72 0 143.5 -16.5t99.5 -30.5l29 -17l-55 -123l-33 17q-8 4 -84 22q-66 16 -123 17q-151 0 -246 -99q-94 -98 -118 -278h366l-18 -123h-375l-23 -113h328 l-16 -123h-330q-18 -111 -10 -188q10 -88 28 -135q20 -51 58 -86q33 -31 74 -47q35 -14 81 -15q68 0 136 19q59 16 104 39l37 18l31 -123l-2 -2q-10 -6 -35 -18t-66 -29q-45 -18 -112 -31q-76 -14 -140 -14q-61 0 -116 25q-59 27 -103 71q-47 51 -78 123q-31 74 -43 172.5 t0 220.5h-153z" />
<glyph unicode="&#x2122;" horiz-adv-x="1597" d="M139 1311l15 102h516l-15 -102h-194l-96 -686h-125l96 686h-197zM662 625l110 788h213l80 -655l262 655h213l-110 -788h-119l94 663l-277 -663h-165l-91 663l-92 -663h-118z" />
<glyph unicode="&#xe000;" horiz-adv-x="1110" d="M0 1110h1110v-1110h-1110v1110z" />
<glyph unicode="&#xfb01;" horiz-adv-x="1265" d="M783 0l155 1110h162l-155 -1110h-162zM963 1409q0 61 41 104q43 45 94 46q41 0 70 -31q27 -29 26 -76q0 -57 -41 -104q-39 -45 -92 -45q-45 0 -71 30q-27 29 -27 76zM84 -410l199 1411h-158l8 78h162l10 84q18 123 53 213q33 84 84 129q45 39 103 60q47 16 121 16 q49 0 92 -20.5t71 -44.5q25 -20 25 -25l-72 -125q-61 74 -135 74q-51 0 -81.5 -18.5t-55.5 -80.5q-23 -57 -39 -174l-12 -88h307l-10 -78h-307l-201 -1413z" />
<glyph unicode="&#xfb02;" horiz-adv-x="1208" d="M791 0l231 1638l168 15l-233 -1653h-166zM84 -410l199 1411h-158l8 78h162l10 84q18 123 53 213q33 84 84 129q45 39 103 60q47 16 121 16q49 0 92 -20.5t71 -44.5q25 -20 25 -25l-72 -125q-61 74 -135 74q-51 0 -81.5 -18.5t-55.5 -80.5q-23 -57 -39 -174l-12 -88h307 l-10 -78h-307l-201 -1413z" />
<glyph unicode="&#xfb03;" horiz-adv-x="1888" d="M1403 0l155 1110h162l-155 -1110h-162zM1583 1409q0 61 41 104q43 45 94 46q41 0 70 -31q27 -29 26 -76q0 -57 -41 -104q-39 -45 -92 -45q-45 0 -71 30q-27 29 -27 76zM707 -410l199 1411h-158l8 78h162l10 84q18 123 53 213q33 84 84 129q45 39 103 60q47 16 121 16 q49 0 92 -20.5t71 -44.5q25 -20 25 -25l-72 -125q-61 74 -135 74q-51 0 -81.5 -18.5t-55.5 -80.5q-23 -57 -39 -174l-12 -88h307l-10 -78h-307l-201 -1413zM84 -410l199 1411h-158l8 78h162l10 84q18 123 53 213q33 84 84 129q45 39 103 60q47 16 121 16q49 0 92 -20.5 t71 -44.5q25 -20 25 -25l-72 -125q-61 74 -135 74q-51 0 -81.5 -18.5t-55.5 -80.5q-23 -57 -39 -174l-12 -88h307l-10 -78h-307l-201 -1413z" />
<glyph unicode="&#xfb04;" horiz-adv-x="1830" d="M1411 0l231 1638l168 15l-233 -1653h-166zM707 -410l199 1411h-158l8 78h162l10 84q18 123 53 213q33 84 84 129q45 39 103 60q47 16 121 16q49 0 92 -20.5t71 -44.5q25 -20 25 -25l-72 -125q-61 74 -135 74q-51 0 -81.5 -18.5t-55.5 -80.5q-23 -57 -39 -174l-12 -88h307 l-10 -78h-307l-201 -1413zM84 -410l199 1411h-158l8 78h162l10 84q18 123 53 213q33 84 84 129q45 39 103 60q47 16 121 16q49 0 92 -20.5t71 -44.5q25 -20 25 -25l-72 -125q-61 74 -135 74q-51 0 -81.5 -18.5t-55.5 -80.5q-23 -57 -39 -174l-12 -88h307l-10 -78h-307 l-201 -1413z" />
</font>
</defs>
</svg>
