<?xml version="1.0" standalone="no"?>
<!DOCTYPE svg PUBLIC "-//W3C//DTD SVG 1.1//EN" "http://www.w3.org/Graphics/SVG/1.1/DTD/svg11.dtd" >
<svg xmlns="http://www.w3.org/2000/svg">
<metadata>
Created by FontPrep 20130207 at Fri Jun 20 09:23:34 2014
 By Jo De Baerdemaeker
Copyright (c) 2014 by Jo De Baerdemaeker. All rights reserved.
</metadata>
<defs>
<font id="5999c311efabb8ef8bfd93d30f0ab8ab" horiz-adv-x='1024' >
  <font-face 
    font-family="FlandersArtSans-Regular"
    font-weight="400"
    font-stretch="normal"
    units-per-em="2048"
    panose-1="0 0 5 0 0 0 0 0 0 0"
    ascent="1536"
    descent="-512"
    x-height="1038"
    cap-height="1318"
    bbox="-230 -660 5529 1927"
    underline-thickness="50"
    underline-position="-130"
    unicode-range="U+000D-FB02"
  />
<missing-glyph horiz-adv-x="600" 
 />
    <glyph glyph-name="fi" unicode="fi" horiz-adv-x="1145" 
d="M831 895h-468v-895h-155v895h-168v143h168v4q0 224 84 315t224 91q142 0 250 -31t150 -46t66 -22l-42 -136q-10 3 -40 14q-216 78 -356 78q-91 0 -136 -57t-45 -206v-4h622v-1038h-154v895z" />
    <glyph glyph-name="fl" unicode="fl" horiz-adv-x="1140" 
d="M40 1038h168v12q0 235 99 325q81 73 256 73q115 0 263 -20l144 20h10v-1449h-154v1290q-124 17 -232 17t-169 -53q-62 -53 -62 -203v-12h234v-144h-234v-895h-155v895h-168v144z" />
    <glyph glyph-name="f_f_i" unicode="ffi" horiz-adv-x="1786" 
d="M549 1305q-96 0 -141 -57t-45 -206v-4h486v4q0 114 23 194q-227 69 -323 69zM208 1042q0 224 84 315t246 91q163 0 401 -84q79 84 219 84t248 -31t152 -46q42 -15 65 -22l-42 -136q-11 3 -93 33t-176 44q-94 15 -127 15q-91 0 -136 -57t-45 -206v-4h622v-1038h-154v895
h-468v-895h-155v895h-486v-895h-155v895h-168v143h168v4z" />
    <glyph glyph-name="f_f_l" unicode="ffl" horiz-adv-x="1758" 
d="M546 1305q-93 0 -138 -57t-45 -206v-4h463v12q0 113 23 193q-210 62 -303 62zM208 1042q0 224 84 315t241 91q158 0 387 -78q81 78 261 78q115 0 263 -20l144 20h10v-1449h-154v1290q-124 17 -232 17t-169 -53q-62 -53 -62 -203v-12h234v-144h-234v-895h-155v896h-463
v-895h-155v895h-168v143h168v4z" />
    <glyph glyph-name="LOGOFL" unicode="fl&#x2a;" horiz-adv-x="5545" 
d="M2451 -77q72 0 72 64v22q-65 0 -84 -5q-31 -6 -31 -34t15 -38t28 -9zM4458 49q0 75 -54 75q-57 0 -71 -75h125zM3253 26q0 -41 22 -74q24 -29 62 -29t61 28q19 28 19 72q0 45 -21 73q-20 28 -60 28t-62 -28t-21 -70zM2933 124q-61 0 -72 -75h125q-4 40 -13 54
q-9 21 -40 21zM5004 -108v265h27l9 -31q30 36 60 36t48 -9l-12 -35q-20 6 -44 6t-49 -34v-198h-39zM4292 22q0 140 114 140q91 0 91 -113v-36h-166q3 -45 29 -67t57 -23q32 0 72 20l1 -1v-36q-38 -19 -83 -19q-45 -1 -80 35t-35 100zM3214 24q0 56 36 97t88 41t84 -40
q34 -40 34 -100t-34 -97q-34 -38 -86 -38t-88 40q-34 41 -34 97zM2934 162q91 0 91 -113v-36h-166q3 -44 29 -67t58 -23q34 0 71 20l1 -1v-36q-38 -19 -83 -19q-45 -1 -80 35t-35 102t29 102t85 36zM2536 -76q-24 -37 -84 -37q-28 0 -54 15q-30 26 -30 68q0 75 102 75l53 -2
v31q0 50 -50 50q-40 0 -80 -18l-9 34q44 22 97 22q81 0 81 -88v-84q0 -53 36 -66l-22 -37q-25 8 -40 37zM4814 185l-61 -178h123zM5237 -10q0 -67 49 -67q20 0 48 15l11 -36q-37 -15 -69 -15t-56 25q-23 25 -23 78v130h-29v37h29v47l39 6h1v-53h74v-37h-74v-130zM3875 -10
q0 -67 47 -67q20 0 50 15l11 -36q-37 -15 -68 -15t-56 23q-23 24 -23 80v130h-30v37h30v47l36 6h3v-53h72v-37h-72v-130zM2731 -113q-83 0 -83 103v130h-28v37h28v47l38 6h3v-53h73v-37h-73v-130q0 -67 48 -67q19 0 49 15l11 -36q-37 -15 -66 -15zM2237 -10q0 -67 49 -67
q20 0 48 15l11 -36q-37 -15 -69 -15t-55 24t-23 79v130h-28v37h28v47l38 6h1v-53h74v-37h-74v-130zM4915 -108l-26 78h-149l-26 -78h-41l116 336h51l118 -336h-43zM2043 196q-57 0 -57 -49q0 -27 12 -36t42 -26q65 -26 80 -48q14 -21 14 -61t-37 -64q-33 -25 -75 -25t-75 14
v36l34 -10l41 -4q76 0 76 56q0 31 -30 47q-7 5 -44 25t-57 35q-19 15 -19 59q0 43 28 65t71 22q42 0 65 -8v-34q-51 6 -69 6zM4233 62v-170h-40v168q0 64 -59 64q-22 0 -43 -10t-26 -13v-209h-39v364l36 6h3v-127q86 56 141 3q27 -24 27 -76zM3531 157q0 105 80 105
q26 0 62 -13l-12 -34q-27 9 -48 9q-43 0 -43 -67h61v-37h-61v-228h-39v228h-42v37h42zM570 638q79 -79 23 -321q-37 -155 11 -282q18 -48 53 -85q73 -79 92 -129t10 -69q-19 25 -83 70q-64 44 -99 76q-69 62 -96 178q-27 115 35 293t56 247zM2698 582q31 0 47 13
q31 16 31 61v26h-28q-51 0 -73 -6q-36 -9 -36 -41q0 -53 59 -53zM4090 849q-32 1 -59 -23q-26 -24 -30 -64h169q-4 45 -26 66t-54 21zM3644 853q-40 -1 -74 -35q-33 -34 -33 -91t27 -95t74 -37q47 0 88 25v223q-42 10 -82 10zM542 893q35 -123 -25 -212q-106 -147 -120 -269
q-8 -58 -2 -118q15 -153 -34 -198q-9 -4 -11 -4q-5 6 -1 14q3 8 1 44q-2 35 -22 84q-47 114 -28 226q23 110 101 208q33 42 62 76q75 90 79 149zM4808 854q-68 0 -68 -39q0 -18 28 -31q7 -5 29 -11l25 -9q25 -10 37 -18q56 -30 56 -101q1 -71 -45 -106t-115 -35t-110 28v88
l3 3q62 -28 105 -28q70 0 70 48q0 34 -58 54t-64 23q-56 26 -56 91q-1 63 43 97t96 34t102 -18v-86l-7 -1q-41 17 -71 17zM4512 849q-38 0 -83 -31v-308h-93v422h79l10 -34q51 44 101 44t91 -18l-30 -96q-37 21 -75 21zM3898 722q0 102 58 160q58 60 133 60q88 0 137 -70
q32 -46 32 -123v-62h-257q23 -92 125 -92q58 0 105 26l5 -1v-92q-57 -24 -135 -24q-79 0 -141 58t-62 160zM3210 942q64 0 108 -36q46 -43 46 -114v-282h-94v252q0 42 -30 69q-26 18 -70 18t-87 -26v-313h-96v422h81l10 -33q68 43 132 43zM2543 641q0 113 130 113
q67 0 103 -3v22q0 80 -81 80q-52 0 -112 -30l-24 83q74 36 147 36q72 0 118 -34t46 -107v-155q0 -28 17 -45q15 -10 46 -19l-44 -78q-54 0 -94 42q-39 -26 -55 -34t-53 -8q-144 0 -144 137zM868 954q0 14 17 14t20 4q3 2 5 10t-2 10q-15 3 -28 3t-33 -27q-3 -2 -9 -2t-5 -3
q-7 -27 12 -43t43 -17q24 0 38 13t13 40h-2l-56 -16q-13 0 -13 14zM846 1017q54 1 94 -25q60 -39 60 -133q0 -56 -11 -56q-17 0 -23 19t7 29q-8 20 -52 26q-45 5 -65 11q-41 11 -71 64q-29 52 -45 52q52 13 106 13zM2311 954h-236v-131h226v-92h-226v-221h-94v536h330v-92z
M517 1059q37 -82 -125 -214q-97 -81 -115 -145q-18 -65 -2 -101q-59 29 -73 96q-19 86 88 174q106 89 148 142t37 67l-5 14zM3820 510h-72l-17 33q-49 -39 -125 -39t-122 59t-45 157q0 98 63 160t162 62q24 0 62 -5v155l80 6h14v-588zM2464 510h-96v582l83 6h13v-588z
M1183 -182v-120q-99 0 -193 78t-112 130q-14 28 -14 58t-4 72q-4 40 -4 68q-2 28 -20 68q-18 42 -46 88t-34 60t-18 48t-24 64q-12 31 -64 305q-53 274 -84 360l-8 23h1q33 0 78 -120t55 -162q10 -40 30 -121t50 -222q10 -40 51 -116q41 -75 51 -127t69 -93q23 -16 63 -16
t84 30t52 67q7 20 3 38q-8 59 -52 79q-18 6 -60 28q-13 9 -31 32q-47 62 -12 84q2 2 10 2q8 1 32 -19t38 -22h2l32 8q22 9 36 9t43 -19v-382q-13 0 -55 8t-75 9l-22 -2q-111 -9 -137 -167q-2 -16 0 -19q2 -4 41 -25q39 -20 111 -42t137 -22zM439 1263q29 -71 -14 -139
q-17 -26 -47 -46q-76 -46 -119 -127q-25 119 37 181q35 35 62 52q74 45 81 79zM1890 -615l-7 -4l-735 2114l10 4z" />
    <glyph glyph-name="LOGOVL" unicode="vl&#x2a;" horiz-adv-x="5729" 
d="M4039 -60q0 35 -85 35h-25q-18 -23 -18 -46q0 -46 53 -46q31 1 53 17t22 40zM4696 88q0 63 -45 63q-21 -1 -37 -17t-22 -46h104zM3087 151q-23 1 -40 -17t-21 -46h105q-5 36 -13 50t-31 13zM2929 88q0 63 -43 63q-23 0 -41 -18q-16 -20 -19 -45h103zM2725 69q0 82 -68 82
q-33 0 -53 -24v-137q27 -8 52 -8t47 24t22 63zM2320 88q0 63 -42 63q-47 0 -63 -63h105zM4014 106q0 20 -14 33t-36 13t-36 -14t-14 -32t13 -32t39 -14t35 14q13 12 13 32zM3326 68q0 -86 66 -86q34 0 53 25v136q-37 9 -57 9t-41 -22t-21 -62zM4504 177h30l-69 -220h-40
l-49 167l-50 -167h-40l-71 220h33l58 -184l55 184h29l55 -184zM3551 -43v220h33v-220h-33zM2126 177h35l-77 -220h-44l-76 220h34l63 -186zM4787 -43v220h22l8 -25q25 28 51 28t39 -8l-11 -28q-24 8 -31 8q-27 0 -45 -31v-164h-33zM4653 180q76 0 76 -92v-30h-139
q3 -35 24 -56q22 -20 50 -20t59 17v-31q-33 -16 -71 -16t-66 32t-29 85q0 111 96 111zM3750 152q-16 0 -58 -22v-173h-33v220h22l6 -20q46 23 74 23t46 -19q24 -17 24 -64v-140h-33v139q0 56 -48 56zM2992 69q0 111 95 111q58 0 70 -50q4 -12 4 -42v-30h-136q1 -32 23 -56
q23 -20 50 -20t59 17v-31q-33 -16 -71 -16t-65 28q-29 36 -29 89zM2886 180q76 0 76 -92v-30h-137q1 -32 23 -54t50 -22t58 17h1v-31q-33 -16 -71 -16t-66 30t-28 87q0 111 94 111zM2412 -43v220h22l8 -25q22 28 53 28t36 -8l-11 -28q-21 8 -39 8t-36 -31v-164h-33zM2184 68
q0 112 86 112q40 0 54 -11q29 -23 29 -81v-30h-138q3 -36 25 -56t50 -20t58 17v-31q-32 -16 -70 -16t-66 28q-28 35 -28 88zM3884 104q0 34 22 56q24 20 54 20t47 -9q2 1 30 17q15 5 28 5l8 -27q-13 -1 -41 -15q13 -17 13 -45q-1 -28 -23 -52q-22 -22 -54 -22t-45 8
q-8 -7 -8 -18q0 -20 27 -20h42q87 0 87 -61q0 -34 -35 -61q-38 -26 -75 -26t-61 21q-22 23 -22 53t26 52l-14 17l-4 19q0 17 17 39q-19 15 -19 49zM5221 -48q-68 0 -68 86v108h-22v31h22v39l31 6h5v-45h59v-31h-59v-108q0 -56 39 -56q17 0 40 15l10 -31q-33 -14 -57 -14z
M3567 215q-21 1 -21 23t21 22q13 0 17 -8q8 -4 8 -14t-8 -16q-4 -7 -17 -7zM4981 69v-112h-33v301l31 5h2v-191l87 105h43l-91 -106q1 -8 33 -44t62 -47l-14 -28q-29 5 -75 55q-26 33 -29 37t-5 8q-2 2 -5 8q-6 6 -6 9zM3478 263v-306h-22l-5 20q-34 -25 -69 -25t-64 36
q-26 38 -26 86t29 73q27 33 83 33q20 0 41 -3v83l31 3h2zM3209 -43v303l31 3h2v-306h-33zM2604 263v-102q30 19 66 19t61 -33q26 -25 26 -79t-26 -80q-29 -36 -77 -36t-83 16v292l32 3h1zM575 649q52 -52 45 -192q-2 -61 -22 -141t-14 -155q11 -135 82 -212t91 -128t10 -69
q-19 24 -83 70q-65 46 -101 78q-69 60 -97 177t34 300q62 182 56 249zM3107 676q-71 0 -93 -7q-35 -5 -35 -37q0 -22 16 -36t42 -14t48 15t22 55v24zM2654 582q71 0 71 70v24q-71 0 -93 -7q-34 -5 -34 -37q0 -22 16 -36t40 -14zM5040 749q-12 81 -73 81q-29 0 -54 -22
t-29 -59h156zM4318 830q-67 0 -84 -81h156q-2 37 -22 59t-50 22zM3921 832q-112 0 -112 -121q0 -45 24 -81q25 -36 67 -36t81 25v205q-27 8 -60 8zM545 905q38 -123 -25 -214q-105 -154 -120 -270q-7 -46 -3 -141q5 -96 -3 -130t-30 -51q-11 -7 -13 -5t0 11q11 55 -10 104
q-30 72 -41 127q-23 118 56 275q16 27 65 87q121 146 124 207zM5384 913q145 0 145 -137v-257h-86v230q0 81 -89 81q-45 0 -84 -25v-286h-88v386h74l9 -29q53 37 119 37zM4790 712q0 94 50 148t125 53q79 -1 125 -61q30 -38 30 -114v-59h-236q9 -44 45 -64q29 -21 74 -21
t93 25h4v-86q-56 -22 -127 -22t-127 53q-56 54 -56 148zM4698 829q-37 0 -77 -27v-283h-87v386h73l10 -29q45 37 85 37q60 0 91 -14l-28 -89q-30 19 -67 19zM4236 679q20 -85 118 -85q42 0 94 25h3v-86q-55 -22 -125 -22t-128 53t-58 148t52 148t123 53q35 0 67 -11t61 -51
q28 -40 28 -113v-59h-235zM3564 749q0 81 -94 81q-42 0 -78 -25v-286h-89v386h73l10 -29q52 37 119 37q146 0 146 -137v-257h-87v230zM2893 636q0 107 121 107q59 0 93 -3v18q0 74 -76 74q-57 0 -102 -27l-22 75q68 35 135 35q151 0 151 -129v-145q0 -48 58 -58l-39 -72
q-54 0 -87 41q-39 -26 -56 -34t-49 -7q-78 0 -105 46q-22 25 -22 79zM2728 758q0 74 -89 74q-44 0 -91 -27l-22 75q68 35 135 35t109 -31t42 -98v-145q0 -48 58 -58l-41 -72q-51 0 -86 41q-55 -41 -104 -41q-127 0 -127 122q0 110 121 110q59 0 95 -3v18zM848 980
q-4 0 -6 -3q-12 -35 24 -53t60 -2q24 15 20 47q-6 1 -16 -3q-25 -9 -38 -12q-14 -3 -16 15q0 13 18 13t21 3q1 2 3 11t-1 11q-26 9 -37 0t-17 -16l-9 -9t-6 -2zM2200 1010h92l-172 -499h-102l-173 499h94l129 -380zM746 1019q148 36 220 -28q50 -45 46 -127q-2 -28 -9 -48
q-19 -6 -27 16t10 31q-10 21 -56 27t-66 12q-41 12 -71 64q-30 51 -47 53zM4070 1058v-539h-67l-16 28q-44 -36 -114 -36q-71 -1 -113 53t-42 146t58 151q56 52 149 52q37 0 56 -3v142l75 6h14zM2353 519v533l75 6h11v-539h-86zM268 656q0 -31 7 -45q-89 55 -71 147
q12 62 99 133q5 4 9 8q169 144 165 198l-4 10h8q25 0 39 -31q47 -76 -125 -219q-127 -104 -127 -201zM1195 80q-11 0 -61 10t-91 6q-109 -4 -137 -148q-6 -32 -4 -39q2 -6 42 -27t112 -42t139 -21v-120q-52 0 -108 25t-121 82t-78 93t-14 74t-6 100q-6 62 -24 104
q-18 41 -46 87t-34 60t-17 46q-12 34 -20 54t-21 79q-14 59 -24 115q-73 388 -110 495l-8 23q4 0 10 -2t47 -68t69 -182q28 -117 44 -181t28 -119q11 -55 19 -89q8 -33 50 -109q41 -76 53 -131t66 -90t123 -3q70 32 83 84q10 87 -53 117l-20 10q-49 23 -72 53q-47 62 -10 82
q13 6 39 -16t39 -22q14 -1 48 12t68 -14v-388zM261 966q-37 142 83 224l57 36q35 26 41 56q39 -127 -61 -188q-80 -52 -120 -128zM1964 -656l-11 -4l-763 2242l11 4z" />
    <glyph glyph-name="leeuw" unicode="vll&#x2a;" horiz-adv-x="1595" 
d="M674 664q52 -51 46 -191q-2 -61 -22 -142t-14 -155q12 -133 83 -211t90 -129t10 -69q-26 33 -77 66q-50 33 -82 60t-58 57q-56 64 -70 175q-14 112 44 282t52 235zM454 153q0 13 -3 34t-16 54q-21 51 -33 105q-28 129 54 281q16 28 65 87q121 146 124 207
q41 -122 -25 -214q-105 -156 -121 -272q-6 -44 -2 -140q5 -95 -4 -129t-25 -46t-17 -10q-2 2 0 16q3 14 3 27zM948 996q-4 0 -6 -3q-11 -35 25 -53q37 -18 61 -3t19 47q-6 1 -25 -5q-18 -7 -26 -9q-17 -4 -19 14q0 13 18 14q19 2 21 4t3 10q3 20 -33 12q-11 -5 -22 -16
q-12 -12 -16 -12zM847 1034q142 28 198 -11q75 -52 66 -153q-2 -23 -8 -39q-18 -5 -27 17t9 30q-10 23 -55 28q-46 4 -66 10q-43 12 -71 64q-30 52 -46 54zM368 672q0 -32 7 -46q-89 54 -71 147q13 62 99 133l9 8q169 144 166 199l-4 10l8 -1q24 0 38 -32q45 -77 -126 -217
q-126 -105 -126 -201zM1295 95q-11 -1 -61 9t-91 7q-119 -5 -140 -167q-2 -16 0 -20q1 -4 41 -26q40 -20 112 -42t139 -22v-121q-69 0 -141 43t-114 90q-42 48 -54 76q-11 28 -12 61t-6 100q-6 67 -24 109t-46 88t-34 60t-18 48t-20 52q-19 47 -71 324q-53 278 -83 365
l-9 23q3 0 9 -2t32 -41q59 -94 102 -270q6 -35 26 -111t31 -132q11 -54 19 -86t49 -109q42 -76 53 -130t65 -90t124 -4q93 43 85 121q-9 58 -55 80l-23 11q-47 23 -68 51q-48 63 -11 83q12 7 39 -15q26 -22 38 -23q15 -1 48 12q32 13 69 -14v-388zM361 981q-23 99 19 158
q28 38 45 52q32 25 49 33q61 33 67 74q29 -79 -13 -143q-18 -26 -48 -45q-81 -54 -119 -129z" />
    <glyph glyph-name=".notdef" horiz-adv-x="600" 
 />
    <glyph glyph-name=".null" horiz-adv-x="0" 
 />
    <glyph glyph-name="nonmarkingreturn" horiz-adv-x="682" 
 />
    <glyph glyph-name="CR" unicode="&#xd;" horiz-adv-x="0" 
 />
    <glyph glyph-name="space" unicode=" " horiz-adv-x="600" 
 />
    <glyph glyph-name="exclam" unicode="!" horiz-adv-x="467" 
d="M120 92q0 48 34 80t79 32q46 0 80 -33t34 -79t-34 -79t-80 -33q-45 0 -79 32t-34 80zM319 1428q0 -752 -27 -1022h-112q-9 61 -17 351t-8 671h164z" />
    <glyph glyph-name="quotedbl" unicode="&#x22;" horiz-adv-x="718" 
d="M456 1228q0 48 -44 108q0 46 33 79t77 33t80 -30t36 -102q0 -70 -59 -151t-129 -120l-43 54q49 81 49 129zM129 1228q0 46 -45 108q0 46 33 79t77 33t80 -30t37 -102t-59 -152t-130 -119l-42 54q49 83 49 129z" />
    <glyph glyph-name="numbersign" unicode="#" horiz-adv-x="1153" 
d="M412 530h276l70 261h-276zM1113 935l-53 -144h-144l-70 -261h221l5 -6l-53 -144h-213l-79 -299l-4 -2l-141 52l66 249h-276l-79 -299l-4 -2l-141 52l66 249h-168l-6 6l53 144h161l70 261h-237l-6 6l53 144h230l75 280l6 3l139 -51l-62 -232h276l75 280l6 3l139 -51
l-62 -232h152z" />
    <glyph glyph-name="dollar" unicode="$" horiz-adv-x="919" 
d="M93 179q123 -55 317 -55q102 0 188 51t87 166q-1 114 -107 181q-50 32 -195 106q-146 74 -182 103q-104 83 -104 242q-1 159 77 243t208 110v122h154v-111q103 -4 201 -34v-132l-3 -2q-135 27 -229 27q-267 0 -267 -201q0 -87 57 -138q37 -32 173 -100t209 -116t113 -107
t39 -159q1 -143 -81 -237t-212 -133v-154h-154v130q-4 -1 -12 -1h-11q-150 0 -269 58v140z" />
    <glyph glyph-name="percent" unicode="%" horiz-adv-x="1638" 
d="M1232 507q-84 0 -136 -57t-52 -136t51 -135t135 -56t136 57t52 136t-51 135t-135 56zM1234 650q144 0 234 -97t90 -238t-92 -238t-237 -97t-235 96t-90 238t94 238q94 98 236 98zM432 241l646 924l126 -88l-646 -924zM408 1195q-84 0 -136 -57t-52 -136t51 -135t135 -56
t136 57t52 136t-51 135t-135 56zM410 1338q144 0 234 -97t90 -238t-92 -238t-237 -97t-235 96t-90 238t94 238q94 98 236 98z" />
    <glyph glyph-name="ampersand" unicode="&#x26;" horiz-adv-x="1252" 
d="M234 362q0 -108 70 -173t195 -65q172 0 289 132l-379 379q-175 -109 -175 -273zM680 1048q0 146 -155 146q-87 0 -131 -44t-44 -121q0 -124 109 -228q4 0 8 4q90 34 152 90q61 56 61 153zM502 -20q-186 0 -304 104t-118 281q0 115 56 201t178 159q-118 123 -118 281
t88 244q88 88 230 88t230 -74t88 -211q0 -136 -91 -224q-59 -58 -189 -120l322 -323q67 133 104 344h8l134 -54q-41 -242 -134 -401l186 -186l-107 -109l-171 170q-156 -170 -392 -170z" />
    <glyph glyph-name="quotesingle" unicode="'" horiz-adv-x="391" 
d="M129 1228q0 46 -45 108q0 46 33 79t77 33t80 -30t37 -102t-59 -152t-130 -119l-42 54q49 83 49 129z" />
    <glyph glyph-name="parenleft" unicode="(" horiz-adv-x="570" 
d="M120 684q0 388 215 764h4l111 -98q-161 -330 -161 -662t161 -607l-114 -101h-4q-212 316 -212 704z" />
    <glyph glyph-name="parenright" unicode=")" horiz-adv-x="570" 
d="M281 688q0 332 -161 662l111 98h4q215 -376 215 -764t-212 -704h-4l-114 101q161 275 161 607z" />
    <glyph glyph-name="asterisk" unicode="*" horiz-adv-x="909" 
d="M371 505l84 -59l85 60l-2 104l-85 58l-82 -59v-104zM50 475v164q146 0 311 -26q-115 120 -199 241l134 94q89 -128 159 -269q75 152 158 269l134 -94q-87 -125 -197 -240q164 25 309 25v-164q-155 0 -306 23q110 -116 194 -238l-134 -94q-84 120 -158 268
q-76 -150 -159 -268l-134 94q80 116 197 238q-151 -23 -309 -23z" />
    <glyph glyph-name="plus" unicode="+" horiz-adv-x="1030" 
d="M592 910v-318h318v-154h-318v-318h-154v318h-318v154h318v318h154z" />
    <glyph glyph-name="comma" unicode="," horiz-adv-x="392" 
d="M130 -16q0 46 -45 108q0 46 33 79t77 33q45 0 81 -30t36 -102t-60 -152t-129 -119l-43 54q50 83 50 129z" />
    <glyph glyph-name="hyphen" unicode="-" horiz-adv-x="600" 
d="M50 618h500v-144h-500v144z" />
    <glyph glyph-name="period" unicode="." horiz-adv-x="387" 
d="M80 92q0 48 34 80t79 32q46 0 80 -33t34 -79t-34 -79t-80 -33q-45 0 -79 32t-34 80z" />
    <glyph glyph-name="slash" unicode="/" horiz-adv-x="971" 
d="M708 1448l144 -53l-588 -1616l-144 53z" />
    <glyph glyph-name="zero" unicode="0" horiz-adv-x="1112" 
d="M553 1194q-318 0 -318 -535t318 -535q164 0 244 122t80 410q-1 288 -83 414q-82 124 -241 124zM552 -20q-170 0 -276 102q-196 187 -196 581q0 327 128 501t345 174q219 0 349 -177t128 -513t-130 -502t-348 -166z" />
    <glyph glyph-name="one" unicode="1" horiz-adv-x="618" 
d="M40 1224q100 0 164 22t141 72h113v-1318h-154v1125q-129 -46 -264 -46v145z" />
    <glyph glyph-name="two" unicode="2" horiz-adv-x="1008" 
d="M736 949q0 113 -80 179t-218 65q-139 0 -278 -83l-9 7l-42 115q69 46 176 76t203 30q164 0 276 -96t113 -288q0 -192 -157 -387t-466 -423h674v-144h-898v144q706 498 706 805z" />
    <glyph glyph-name="three" unicode="3" horiz-adv-x="973" 
d="M675 987q1 210 -271 210q-128 0 -272 -85l-8 7l-32 115q80 52 178 78t182 26t169 -30q87 -30 147 -105q60 -74 60 -195q0 -200 -166 -306q242 -87 242 -338q0 -134 -69 -220t-173 -125t-202 -39q-96 0 -216 29t-199 82l32 120l8 7q71 -44 169 -70t178 -26q134 0 226 72
t92 188q0 115 -124 180q-104 55 -270 55h-132v140h156q111 0 203 61t92 169z" />
    <glyph glyph-name="four" unicode="4" horiz-adv-x="970" 
d="M635 443v634l-432 -634h432zM789 1318v-875h152v-143h-152v-300h-154v300h-615v143l593 875h176z" />
    <glyph glyph-name="five" unicode="5" horiz-adv-x="973" 
d="M202 1318h645v-142h-517l-40 -369q168 -1 300 -25t223 -110t91 -257q0 -212 -140 -332q-120 -103 -291 -103q-97 0 -209 28t-194 83l32 120l8 7q66 -44 166 -70t177 -26q133 0 215 84t81 216q1 132 -113 188t-363 56h-140l69 625v27z" />
    <glyph glyph-name="six" unicode="6" horiz-adv-x="968" 
d="M228 458q0 -158 79 -246t192 -87q113 -1 175 83t61 199q0 115 -71 185q-72 70 -174 70t-257 -100q-5 -47 -5 -104zM834 1194q-329 0 -489 -263q-57 -93 -87 -217q120 93 268 93q148 -1 256 -113t107 -270q-1 -94 -41 -196t-132 -176q-92 -72 -239 -72q-199 0 -302 142
q-95 126 -95 342t78 417t247 329t429 128v-144z" />
    <glyph glyph-name="seven" unicode="7" horiz-adv-x="838" 
d="M50 1318h768l-532 -1318h-154l473 1174h-555v144z" />
    <glyph glyph-name="eight" unicode="8" horiz-adv-x="988" 
d="M214 333q0 -97 82 -153t198 -56q114 0 198 56t83 152q0 96 -88 167q-50 41 -193 109q-145 -71 -194 -110q-86 -69 -86 -165zM715 1005q1 89 -65 139t-156 50t-155 -50t-65 -139t58 -145t162 -102q108 47 164 103t57 144zM870 1001q0 -107 -54 -181t-159 -132
q123 -57 197 -138t75 -211q0 -171 -129 -265q-128 -94 -306 -94t-306 95t-128 264q0 132 89 228q65 68 183 121q-103 58 -158 132t-55 181q-1 157 109 247t264 90t266 -89t112 -248z" />
    <glyph glyph-name="nine" unicode="9" horiz-adv-x="968" 
d="M741 860q-1 158 -79 246t-192 87q-114 1 -174 -83q-62 -84 -62 -200t70 -184q70 -70 176 -70q105 0 256 100q5 56 5 104zM135 124q332 0 489 263q57 94 87 216q-119 -92 -267 -92t-256 113t-108 270q0 92 41 196t133 176t238 72q198 0 298 -135t99 -350q0 -215 -78 -416
t-247 -329t-429 -128v144z" />
    <glyph glyph-name="colon" unicode=":" horiz-adv-x="387" 
d="M80 92q0 48 34 80t79 32q46 0 80 -33t34 -79t-34 -79t-80 -33q-45 0 -79 32t-34 80zM80 946q0 48 34 80t79 32q46 0 80 -33t34 -79t-34 -79t-80 -33q-45 0 -79 32t-34 80z" />
    <glyph glyph-name="semicolon" unicode=";" horiz-adv-x="392" 
d="M130 -16q0 46 -45 108q0 46 33 79t77 33q45 0 81 -30t36 -102t-60 -152t-129 -119l-43 54q50 83 50 129zM84 946q0 48 34 80t79 32q46 0 80 -33t34 -79t-34 -79t-80 -33q-45 0 -79 32t-34 80z" />
    <glyph glyph-name="less" unicode="&#x3c;" horiz-adv-x="918" 
d="M710 931l88 -125l-411 -288l411 -288l-88 -125l-590 413z" />
    <glyph glyph-name="equal" unicode="=" horiz-adv-x="1030" 
d="M910 284h-790v154h790v-154zM910 592h-790v154h790v-154z" />
    <glyph glyph-name="greater" unicode="&#x3e;" horiz-adv-x="918" 
d="M208 105l-88 125l411 288l-411 288l88 125l590 -413z" />
    <glyph glyph-name="question" unicode="?" horiz-adv-x="975" 
d="M285 92q-1 48 33 80t80 32t80 -33t34 -79t-34 -79t-80 -33t-80 32t-33 80zM465 1448q161 0 276 -88t115 -246t-121 -268q-9 -10 -33 -32q-74 -71 -107 -110q-121 -142 -121 -370h-154q0 174 52 284t141 200q25 26 87 80q106 94 106 193t-66 155t-170 55q-104 0 -184 -30
t-115 -80h-9l-42 115q50 64 145 103t200 39z" />
    <glyph glyph-name="at" unicode="@" horiz-adv-x="1422" 
d="M1025 667q-36 0 -53 1h-50q-191 0 -258 -25q-91 -33 -91 -126q1 -93 55 -138t124 -45q153 0 224 87q49 60 49 162v84zM1166 -6q-155 -147 -443 -147q-287 -1 -465 193t-178 495q0 223 98 372t256 221t354 73q196 -1 294 -75t97 -266v-263q0 -103 23 -157q32 -78 120 -105
l-88 -145q-103 34 -157 145q-127 -145 -320 -145q-132 0 -220 63q-117 83 -117 245t95 236q95 76 301 76q71 0 209 -12v62q1 110 -61 154t-193 44q-249 0 -393 -134t-144 -378q0 -243 136 -399t361 -156q226 0 331 97z" />
    <glyph glyph-name="A" unicode="A" horiz-adv-x="1164" 
d="M340 451h484l-242 701zM873 307h-582l-106 -307h-160l453 1318h207l454 -1318h-160z" />
    <glyph glyph-name="B" unicode="B" horiz-adv-x="1106" 
d="M315 605v-459h101q264 0 340 29t106 74q29 45 29 121q0 144 -110 194q-91 41 -318 41h-148zM315 1174v-423h57q132 1 205 5t126 23q106 38 106 177t-111 184q-83 34 -318 34h-65zM1046 384q0 -170 -87 -253t-225 -107t-348 -24h-226v1318h200q320 0 462 -78t141 -271
q0 -192 -118 -275q201 -82 201 -310z" />
    <glyph glyph-name="C" unicode="C" horiz-adv-x="1081" 
d="M737 1338q158 0 304 -41v-142l-7 -4q-132 42 -289 42q-249 0 -380 -144q-131 -143 -131 -387t131 -390t380 -147q157 0 289 42l7 -4v-142q-146 -41 -304 -41q-321 0 -489 192t-168 508q6 294 172 476t485 182z" />
    <glyph glyph-name="D" unicode="D" horiz-adv-x="1298" 
d="M315 1174v-1030h234q235 0 375 138t139 366q0 228 -155 377t-375 149h-218zM160 0v1318h373q292 0 489 -187q196 -187 196 -474t-191 -472t-478 -185h-389z" />
    <glyph glyph-name="E" unicode="E" horiz-adv-x="1004" 
d="M160 1318h794v-144h-639v-443h639v-144h-639v-443h639v-144h-794v1318z" />
    <glyph glyph-name="F" unicode="F" horiz-adv-x="1016" 
d="M160 1318h806v-144h-651v-438h651v-154h-651v-582h-155v1318z" />
    <glyph glyph-name="G" unicode="G" horiz-adv-x="1268" 
d="M745 1193q-247 0 -379 -145t-131 -376q0 -232 133 -390t321 -158t288 114v331h-285v155h436v-726h-59l-92 71q-128 -89 -291 -89q-270 0 -438 194t-168 490t167 485t486 189q171 0 309 -41v-142l-8 -4q-132 42 -289 42z" />
    <glyph glyph-name="H" unicode="H" horiz-adv-x="1273" 
d="M958 582h-643v-582h-155v1318h155v-582h643v582h155v-1318h-155v582z" />
    <glyph glyph-name="I" unicode="I" horiz-adv-x="474" 
d="M314 1318v-1318h-154v1318h154z" />
    <glyph glyph-name="J" unicode="J" horiz-adv-x="731" 
d="M167 123h5q86 1 136 65t51 196v934h155v-934q0 -179 -75 -282q-89 -122 -272 -122v143z" />
    <glyph glyph-name="K" unicode="K" horiz-adv-x="1101" 
d="M315 0h-155v1318h155v-618l519 618h190v-9l-518 -615l16 -24l-2 -1q80 -135 259 -305t288 -230q-57 -98 -89 -134q-2 0 -6 2q-101 47 -244 177t-259 272t-154 231v-682z" />
    <glyph glyph-name="L" unicode="L" horiz-adv-x="974" 
d="M150 1318h155v-1174h619v-144h-774v1318z" />
    <glyph glyph-name="M" unicode="M" horiz-adv-x="1413" 
d="M1263 1318v-1318h-160v1103l-372 -723h-36l-380 732v-1112h-150v1318h209l337 -664h4l337 664h211z" />
    <glyph glyph-name="N" unicode="N" horiz-adv-x="1263" 
d="M315 0h-155v1318h161l637 -1019v1019h155v-1318h-155l-643 1028v-1028z" />
    <glyph glyph-name="O" unicode="O" horiz-adv-x="1383" 
d="M234 668q0 -236 124 -390t338 -154t334 146t119 382q0 236 -120 390q-120 152 -333 152q-214 0 -338 -146t-124 -380zM1136 1146q167 -192 167 -484q0 -291 -172 -487q-172 -195 -444 -195q-271 0 -439 194t-168 485t173 485t444 194q272 0 439 -192z" />
    <glyph glyph-name="P" unicode="P" horiz-adv-x="1130" 
d="M315 1172v-602h124q232 0 354 67t122 231q0 304 -476 304h-124zM160 0v1318h259q327 0 489 -102t162 -326q0 -172 -90 -276q-165 -190 -570 -190h-95v-424h-155z" />
    <glyph glyph-name="Q" unicode="Q" horiz-adv-x="1383" 
d="M232 667q0 -235 126 -389t339 -154t333 146t121 382q-1 236 -121 389t-334 153t-339 -146t-125 -381zM687 -20q-271 0 -439 194t-168 485t173 485t444 194t439 -192q167 -192 167 -486q0 -222 -105 -393t-280 -243q49 -66 118 -112t126 -65l-70 -129q-80 12 -178 90
t-149 177q-45 -5 -78 -5z" />
    <glyph glyph-name="R" unicode="R" horiz-adv-x="1233" 
d="M315 1173v-597h133q230 0 350 68t120 234t-113 230t-332 65h-158zM1070 887q0 -283 -223 -385q27 -66 83 -151t124 -153t129 -92l-85 -126q-74 15 -152 99q-140 150 -248 375q-115 -23 -287 -23h-96v-431h-155v1318h323q323 0 455 -103t132 -328z" />
    <glyph glyph-name="S" unicode="S" horiz-adv-x="919" 
d="M378 124q128 0 218 50q89 50 89 167q0 114 -97 175q-40 25 -198 107t-189 108q-104 83 -104 252q0 263 246 334q73 21 173 21t221 -35v-132l-3 -2q-135 27 -229 27q-267 0 -267 -201q0 -82 57 -133q34 -30 178 -104t191 -108q85 -60 125 -114t40 -171q0 -115 -66 -207
q-128 -177 -404 -178q-150 0 -269 58v140l3 1q52 -23 136 -39t149 -16z" />
    <glyph glyph-name="T" unicode="T" horiz-adv-x="1060" 
d="M45 1318h970v-144h-408v-1174h-154v1174h-408v144z" />
    <glyph glyph-name="U" unicode="U" horiz-adv-x="1403" 
d="M1036 1318h154v-828q0 -388 -265 -478q-93 -32 -227 -32t-240 36t-178 150q-72 113 -71 324v828h154v-778q0 -186 46 -276t130 -121q53 -21 159 -21t165 23q81 29 127 121t46 274v778z" />
    <glyph glyph-name="V" unicode="V" horiz-adv-x="1164" 
d="M25 1318h160l397 -1153l397 1153h160l-454 -1318h-207z" />
    <glyph glyph-name="W" unicode="W" horiz-adv-x="1716" 
d="M858 1045l-299 -1045h-156l-378 1318h157l298 -1046l300 1046h156l299 -1046l299 1046h157l-378 -1318h-156z" />
    <glyph glyph-name="X" unicode="X" horiz-adv-x="1138" 
d="M569 837l312 481h180l-402 -619l454 -699h-180l-364 560l-364 -560h-180l454 699l-402 619h180z" />
    <glyph glyph-name="Y" unicode="Y" horiz-adv-x="1010" 
d="M582 0h-154v492l-403 826h154l326 -668l326 668h154l-403 -826v-492z" />
    <glyph glyph-name="Z" unicode="Z" horiz-adv-x="950" 
d="M87 1174v144h793l4 -5l-596 -1169h597v-144h-816l-4 5l593 1169h-571z" />
    <glyph glyph-name="bracketleft" unicode="[" horiz-adv-x="580" 
d="M120 1448h340v-144h-186v-1160h186v-144h-340v1448z" />
    <glyph glyph-name="backslash" unicode="\" horiz-adv-x="971" 
d="M852 -168l-144 -53l-588 1616l144 53z" />
    <glyph glyph-name="bracketright" unicode="]" horiz-adv-x="580" 
d="M460 0h-340v144h186v1160h-186v144h340v-1448z" />
    <glyph glyph-name="underscore" unicode="_" horiz-adv-x="800" 
d="M0 144h800v-144h-800v144z" />
    <glyph glyph-name="grave" unicode="`" horiz-adv-x="667" 
d="M182 1558q192 -165 391 -253q-5 -33 -18 -69t-24 -46q-117 24 -259 106t-178 137q6 39 30 73t58 52z" />
    <glyph glyph-name="a" unicode="a" horiz-adv-x="1022" 
d="M402 124q284 0 283 249v84q-74 1 -133 1q-230 2 -290 -66q-30 -33 -29 -102q0 -70 52 -118q53 -48 117 -48zM417 -20q-132 0 -220 63q-117 83 -117 249t101 238q101 70 295 70q71 0 209 -12v129q-1 104 -49 151t-147 47q-165 0 -312 -74l-40 135q115 46 191 64t188 18
q323 0 323 -341v-330q1 -165 69 -223q30 -25 74 -39l-88 -145q-103 34 -157 145q-126 -145 -320 -145z" />
    <glyph glyph-name="b" unicode="b" horiz-adv-x="1110" 
d="M518 122q165 0 261 115t96 293t-79 280q-78 104 -240 104t-241 -113v-647q81 -32 203 -32zM315 1448v-481q119 91 261 91t246 -73t156 -193t52 -267q0 -245 -138 -395t-385 -150q-169 0 -347 74v1374l145 20h10z" />
    <glyph glyph-name="c" unicode="c" horiz-adv-x="914" 
d="M562 -20q-205 0 -334 128q-148 146 -148 417t136 402t346 131q148 0 297 -74v-136l-7 -5q-140 71 -284 71t-239 -92q-96 -92 -96 -292q-1 -198 97 -302t240 -104t282 71l7 -5v-136q-149 -74 -297 -74z" />
    <glyph glyph-name="d" unicode="d" horiz-adv-x="1110" 
d="M592 916q-162 0 -260 -102t-97 -282q-1 -180 79 -294t240 -114t241 113v638q-106 41 -203 41zM950 -1h-98l-32 92q-129 -111 -292 -111q-200 0 -324 160t-124 392t133 380q133 146 390 146q85 0 192 -21v391l145 20h10v-1449z" />
    <glyph glyph-name="e" unicode="e" horiz-adv-x="956" 
d="M523 914q-117 0 -189 -82t-93 -212h488q-3 216 -106 272q-41 22 -100 22zM881 480h-647q11 -164 103 -260t233 -96t287 74l3 -1v-143q-151 -74 -298 -74q-226 0 -354 148t-128 392q0 243 110 391q110 147 334 147t308 -180q48 -103 49 -258v-140z" />
    <glyph glyph-name="f" unicode="f" horiz-adv-x="646" 
d="M536 1305q-168 0 -168 -263v-4h235v-143h-235v-895h-155v895h-168v143h168v4q0 406 310 406q104 0 243 -44l-42 -136q-110 37 -188 37z" />
    <glyph glyph-name="g" unicode="g" horiz-adv-x="1034" 
d="M222 -133q0 -210 252 -210q148 0 252 79t104 181t-117 141q-83 26 -282 26h-117q-92 -105 -92 -217zM478 920q-108 0 -172 -66t-64 -150t64 -151q64 -66 174 -66t171 64q62 63 62 149t-63 153q-64 67 -172 67zM569 217q207 0 313 -84t106 -208q0 -165 -166 -284
t-354 -119t-293 94t-105 237q0 65 32 135t92 129q-40 23 -62 73t-23 94q0 88 75 181q-42 43 -64 112t-22 135q0 150 108 248t276 98q114 0 201 -48q65 49 137 77t128 28l46 -131q-103 -17 -195 -75q60 -86 60 -193q0 -150 -110 -258t-277 -108q-100 0 -192 45
q-35 -44 -35 -85t34 -67t94 -26h196z" />
    <glyph glyph-name="h" unicode="h" 
d="M816 656q0 259 -227 259q-67 -1 -131 -27t-143 -73v-815h-155v1428l145 20h10v-492q167 102 289 102q163 0 265 -94t102 -300v-664h-155v656z" />
    <glyph glyph-name="i" unicode="i" horiz-adv-x="535" 
d="M190 1038h154v-1038h-154v1038zM160 1322q0 44 31 75t76 31t77 -31t31 -75q0 -44 -32 -76t-75 -31q-44 0 -76 32q-32 31 -32 75z" />
    <glyph glyph-name="j" unicode="j" horiz-adv-x="530" 
d="M194 1038h155v-1112q0 -208 -89 -306t-220 -98t-270 63l42 142q107 -62 194 -62q88 1 138 65t50 196v1112zM165 1321q-1 43 31 75t76 32t76 -31q32 -32 32 -76t-32 -75t-76 -31t-76 31q-31 31 -31 75z" />
    <glyph glyph-name="k" unicode="k" horiz-adv-x="975" 
d="M315 0h-155v1421l145 27h10v-902l412 492h198l-422 -502q8 -36 89 -131q82 -95 180 -180t174 -108l-64 -137q-73 4 -167 78t-209 205q-115 132 -170 227q-18 29 -21 37v-527z" />
    <glyph glyph-name="l" unicode="l" horiz-adv-x="474" 
d="M314 1448v-1448h-154v1428l144 20h10z" />
    <glyph glyph-name="m" unicode="m" horiz-adv-x="1648" 
d="M1343 655q0 260 -227 260q-95 0 -234 -77q24 -77 24 -173v-665h-154v656q0 259 -191 259q-118 0 -246 -98v-817h-155v1038h98l35 -95q177 115 311 115t222 -112q181 112 305 112q163 0 265 -94t102 -300v-665h-155v656z" />
    <glyph glyph-name="n" unicode="n" 
d="M589 915q-106 0 -274 -100v-815h-155v1038h104l29 -96q180 116 327 116t249 -94t102 -300v-664h-155v655q0 260 -227 260z" />
    <glyph glyph-name="o" unicode="o" horiz-adv-x="1112" 
d="M235 522q0 -172 86 -285q87 -113 239 -113t234 108t83 280q0 174 -83 288q-82 114 -236 114t-238 -110t-85 -282zM1032 520q0 -228 -135 -384t-344 -156t-341 155t-132 382t135 384t345 157t341 -156t131 -382z" />
    <glyph glyph-name="p" unicode="p" horiz-adv-x="1110" 
d="M518 122q158 0 258 112t99 291t-79 284t-240 105t-241 -112v-640q97 -40 203 -40zM160 1038h104l28 -90q128 110 290 110q200 0 324 -151t124 -383t-134 -388t-389 -156q-95 0 -192 21v-459h-155v1496z" />
    <glyph glyph-name="q" unicode="q" horiz-adv-x="1110" 
d="M592 916q-162 0 -260 -102t-97 -281q-1 -180 79 -295t240 -115t241 113v648q-88 32 -203 32zM950 -458h-155v529q-117 -91 -267 -91q-200 0 -324 161t-124 393t133 378t390 146q169 0 347 -74v-1442z" />
    <glyph glyph-name="r" unicode="r" horiz-adv-x="752" 
d="M160 1038h104l36 -118q119 138 255 138q92 0 172 -36l-54 -139q-66 32 -143 32q-124 0 -215 -139v-776h-155v1038z" />
    <glyph glyph-name="s" unicode="s" horiz-adv-x="821" 
d="M301 125q83 1 141 17t100 56q44 40 44 104t-78 111q-32 20 -126 58t-139 63q-159 85 -159 251q0 95 50 158q91 115 303 115q107 0 211 -29v-140l-6 -3q-121 33 -229 33q-176 0 -176 -121q0 -75 81 -126q34 -24 140 -66t166 -73t88 -83t29 -137q0 -157 -128 -245
q-127 -88 -275 -88t-258 47v145l6 5q132 -52 215 -52z" />
    <glyph glyph-name="t" unicode="t" horiz-adv-x="744" 
d="M40 1038h115v186l145 27h10v-213h288v-144h-288v-510q0 -132 50 -196t138 -65q86 0 194 62l42 -142q-139 -63 -270 -63t-220 98t-89 306v510h-115v144z" />
    <glyph glyph-name="u" unicode="u" 
d="M532 123q108 0 274 99v816h155v-1038h-98l-31 99q-183 -119 -330 -119q-148 0 -250 94t-102 300v664h155v-655q0 -260 227 -260z" />
    <glyph glyph-name="v" unicode="v" horiz-adv-x="979" 
d="M950 1038l-357 -1038h-207l-356 1038h160l300 -873l300 873h160z" />
    <glyph glyph-name="w" unicode="w" horiz-adv-x="1564" 
d="M1534 1038l-329 -1038h-192l-231 790l-231 -790h-193l-328 1038h150l274 -867l257 867h142l257 -867l275 867h149z" />
    <glyph glyph-name="x" unicode="x" horiz-adv-x="1023" 
d="M516 682l249 356h185l-342 -489l385 -549h-185l-297 424l-296 -424h-185l389 556l-337 482h185z" />
    <glyph glyph-name="y" unicode="y" horiz-adv-x="971" 
d="M196 -478q-115 0 -256 63l42 142q107 -62 180 -62q143 0 185 112l77 223h-48l-357 1038h160l301 -873l301 873h160l-445 -1290q-79 -226 -300 -226z" />
    <glyph glyph-name="z" unicode="z" horiz-adv-x="882" 
d="M81 894v144h790l5 -6l-546 -888h543v-144h-803l-5 5l546 889h-530z" />
    <glyph glyph-name="braceleft" unicode="{" horiz-adv-x="810" 
d="M482 321q0 -198 196 -198h12v-142h-19q-6 -1 -20 -1q-323 0 -323 341v124q0 106 -50 151t-138 47h-20v142h12q196 0 196 198v124q0 341 323 341h20q6 -1 19 -1v-142h-12q-196 0 -196 -198v-124q0 -186 -96 -269q96 -83 96 -269v-124z" />
    <glyph glyph-name="bar" unicode="|" horiz-adv-x="314" 
d="M80 1448h154v-1718h-154v1718z" />
    <glyph glyph-name="braceright" unicode="}" horiz-adv-x="810" 
d="M482 321q0 -341 -323 -341q-14 0 -20 1h-19v142h12q196 0 196 198v124q0 186 96 269q-96 83 -96 269v124q0 109 -52 153t-144 45h-12v142q13 0 19 1h20q323 0 323 -341v-124q0 -198 196 -198h12v-142h-20q-188 -4 -188 -198v-124z" />
    <glyph glyph-name="asciitilde" unicode="~" horiz-adv-x="1031" 
d="M644 408q-60 0 -94 18t-77 48t-88 30q-43 0 -73 -23t-30 -66v-7q-54 -8 -92 -3t-70 34q12 98 88 160t174 62q60 0 114 -33t82 -48t69 -15q42 -1 72 23t30 66v7q111 15 162 -31q-12 -98 -88 -160t-179 -62z" />
    <glyph glyph-name="exclamdown" unicode="&#xa1;" horiz-adv-x="467" 
d="M312 -389h-164q0 311 8 620t19 402h112q25 -239 25 -1022zM347 947q0 -46 -34 -79t-80 -33q-45 1 -79 33t-34 79t34 79t79 33q46 0 80 -33t34 -79z" />
    <glyph glyph-name="cent" unicode="&#xa2;" horiz-adv-x="899" 
d="M637 -150h-154v136q-179 24 -291 160t-112 379t110 373t293 155v155h154v-155q104 -12 222 -69v-136l-7 -5q-140 71 -284 71t-239 -92q-96 -92 -96 -292q-1 -198 97 -302t240 -104t282 71l7 -5v-136q-118 -57 -222 -69v-135z" />
    <glyph glyph-name="sterling" unicode="&#xa3;" horiz-adv-x="1002" 
d="M40 609v144h189q-19 105 -19 189q0 202 100 299t260 97t318 -68l-46 -127q-110 50 -228 50t-184 -70t-65 -193q0 -61 20 -177h357v-144h-329q28 -144 28 -203q0 -141 -111 -262h632v-144h-920v144q86 0 164 76t78 207q0 66 -26 182h-218z" />
    <glyph glyph-name="yen" unicode="&#xa5;" horiz-adv-x="1010" 
d="M897 150h-315v-150h-154v150h-321v154h321v154h-321v154h262l-344 706h154l326 -668l326 668h154l-345 -706h257v-154h-315v-154h315v-154z" />
    <glyph glyph-name="brokenbar" unicode="&#xa6;" horiz-adv-x="314" 
d="M234 430v-700h-154v700h154zM80 748v700h154v-700h-154z" />
    <glyph glyph-name="section" unicode="&#xa7;" horiz-adv-x="930" 
d="M223 775q0 -141 79 -240q56 -70 244 -186q107 -66 148 -153q13 76 13 130q0 141 -79 240q-50 63 -132 114t-127 80q-95 61 -133 144q-13 -68 -13 -129zM363 -204q232 0 232 202q1 78 -43 127q-47 53 -93 84q-91 62 -113 75q-132 84 -185 159q-81 114 -81 305
q0 132 38 268t109 233q41 103 131 151t196 48t214 -35v-132l-7 -6q-106 30 -194 30q-232 0 -232 -202q0 -83 55 -141q54 -58 142 -112q175 -105 237 -192q81 -114 81 -305q0 -133 -36 -265t-111 -236q-40 -103 -130 -151t-197 -48t-214 35v132l7 6q106 -30 194 -30z" />
    <glyph glyph-name="dieresis" unicode="&#xa8;" horiz-adv-x="791" 
d="M465 1302q-1 48 33 80t80 32t80 -33t34 -79t-34 -79t-80 -33t-80 32t-33 80zM99 1302q-1 48 33 80t80 32t80 -33t34 -79t-34 -79t-80 -33t-80 32t-33 80z" />
    <glyph glyph-name="copyright" unicode="&#xa9;" horiz-adv-x="1604" 
d="M823 288q-159 0 -267 106t-107 316q1 209 105 312t269 103q119 0 231 -58v-140l-5 -4q-113 51 -213 51t-166 -62t-67 -198q0 -134 68 -204q69 -70 171 -70t207 50l5 -3v-141q-112 -58 -231 -58zM806 1303q-166 1 -300 -79t-208 -216t-75 -276q0 -268 162 -439
q162 -170 414 -170q253 0 417 171t164 419q0 249 -160 419q-160 171 -414 171zM80 710q0 152 53 287t151 237t232 158t292 56q317 0 519 -214q93 -100 145 -234t52 -285t-53 -286t-151 -237t-232 -158t-292 -56q-317 0 -516 212q-200 212 -200 520z" />
    <glyph glyph-name="guillemotleft" unicode="&#xab;" horiz-adv-x="1188" 
d="M936 1449l132 -77l-381 -658l381 -658l-132 -77l-424 735zM544 1449l132 -77l-381 -658l381 -658l-132 -77l-424 735z" />
    <glyph glyph-name="registered" unicode="&#xae;" horiz-adv-x="1218" 
d="M506 1095v-181h68q77 0 115 18t38 72q-1 54 -37 72t-109 19h-75zM571 812h-65v-186h-108v570h180q140 0 198 -44t57 -154q0 -109 -96 -155q15 -41 55 -93t81 -73l3 -7l-80 -52q-79 36 -158 198q-28 -4 -67 -4zM612 1325q-180 0 -296 -121q-116 -120 -115 -296t113 -296
t292 -119t295 121t115 296t-112 295q-112 120 -292 120zM612 1448q232 0 379 -155t147 -382t-149 -384t-382 -157t-380 154t-147 383t150 385t382 156z" />
    <glyph glyph-name="macron" unicode="&#xaf;" horiz-adv-x="842" 
d="M120 1338h602v-144h-602v144z" />
    <glyph glyph-name="degree" unicode="&#xb0;" horiz-adv-x="814" 
d="M408 1195q-84 0 -136 -57t-52 -136t51 -135t135 -56t136 57t52 136t-51 135t-135 56zM410 1338q144 0 234 -97t90 -238t-92 -238t-237 -97t-235 96t-90 238t94 238q94 98 236 98z" />
    <glyph glyph-name="plusminus" unicode="&#xb1;" horiz-adv-x="1030" 
d="M910 0h-790v154h790v-154zM592 1038v-318h318v-154h-318v-318h-154v318h-318v154h318v318h154z" />
    <glyph glyph-name="acute" unicode="&#xb4;" horiz-adv-x="662" 
d="M94 1305q199 89 391 253q33 -18 57 -52t31 -73q-35 -55 -177 -138q-141 -82 -260 -105q-13 12 -27 50t-15 65z" />
    <glyph glyph-name="paragraph" unicode="&#xb6;" horiz-adv-x="1334" 
d="M224 892q0 -108 78 -156q78 -46 216 -48v493q-152 -27 -223 -104t-71 -185zM672 0h-154v536q-122 0 -216 24t-158 103t-64 245t101 274q143 155 461 155q205 0 366 -64t226 -165l-102 -106h-4q-69 79 -164 126v-1128h-161v1181q-74 12 -131 12v-1193z" />
    <glyph glyph-name="periodcentered" unicode="&#xb7;" horiz-adv-x="387" 
d="M80 518q0 48 34 80t79 32q46 0 80 -33t34 -79t-34 -79t-80 -33q-45 0 -79 32t-34 80z" />
    <glyph glyph-name="cedilla" unicode="&#xb8;" horiz-adv-x="543" 
d="M240 -353q116 1 116 89q0 44 -50 74t-109 31v159h159v-80q60 -18 96 -70t37 -134q-1 -80 -71 -137t-173 -57t-179 51q8 78 47 107q75 -33 127 -33z" />
    <glyph glyph-name="guillemotright" unicode="&#xbb;" horiz-adv-x="1188" 
d="M644 -21l-132 77l380 658l-380 658l132 77l424 -735zM252 -21l-132 77l380 658l-380 658l132 77l424 -735z" />
    <glyph glyph-name="questiondown" unicode="&#xbf;" horiz-adv-x="975" 
d="M511 -410q-161 0 -276 88t-115 245t114 265t147 146q121 144 121 370h154q0 -174 -52 -284t-141 -200q-25 -24 -85 -78q-108 -95 -108 -195q0 -99 66 -155t171 -55q104 0 183 30t115 80h9l42 -115q-47 -64 -143 -103t-202 -39zM691 946q0 -46 -34 -79t-80 -33
q-45 0 -79 32t-34 80t34 80t79 32q46 0 80 -33t34 -79z" />
    <glyph glyph-name="Agrave" unicode="&#xc0;" horiz-adv-x="1164" 
d="M340 451h484l-242 701zM873 307h-582l-106 -307h-160l453 1318h207l454 -1318h-160zM430 1838q192 -165 391 -253q-5 -33 -18 -69t-24 -46q-117 24 -259 106t-178 137q6 39 30 73t58 52z" />
    <glyph glyph-name="Aacute" unicode="&#xc1;" horiz-adv-x="1164" 
d="M340 451h484l-242 701zM873 307h-582l-106 -307h-160l453 1318h207l454 -1318h-160zM342 1585q199 89 391 253q33 -18 57 -52t31 -73q-35 -55 -177 -138q-141 -82 -260 -105q-13 12 -27 50t-15 65z" />
    <glyph glyph-name="Acircumflex" unicode="&#xc2;" horiz-adv-x="1164" 
d="M340 451h484l-242 701zM873 307h-582l-106 -307h-160l453 1318h207l454 -1318h-160zM579 1666q-119 -109 -296 -196q-13 12 -27 52t-16 63q178 95 338 249h8q165 -157 338 -249q-13 -90 -43 -115q-173 83 -297 196h-5z" />
    <glyph glyph-name="Atilde" unicode="&#xc3;" horiz-adv-x="1164" 
d="M340 451h484l-242 701zM873 307h-582l-106 -307h-160l453 1318h207l454 -1318h-160zM706 1507q-77 0 -139 42q-6 6 -32 21q-25 14 -39 18t-40 3q-26 1 -53 -19q-26 -20 -26 -59v-6q-96 -16 -141 27q10 86 76 140t136 54t138 -42t107 -42q41 0 67 20t26 58v6
q96 16 141 -27q-10 -86 -77 -140t-144 -54z" />
    <glyph glyph-name="Adieresis" unicode="&#xc4;" horiz-adv-x="1164" 
d="M340 451h484l-242 701zM873 307h-582l-106 -307h-160l453 1318h207l454 -1318h-160zM651 1582q-1 48 33 80t80 32t80 -33t34 -79t-34 -79t-80 -33t-80 32t-33 80zM285 1582q-1 48 33 80t80 32t80 -33t34 -79t-34 -79t-80 -33t-80 32t-33 80z" />
    <glyph glyph-name="Aring" unicode="&#xc5;" horiz-adv-x="1164" 
d="M340 451h484l-242 701zM580 1567q-32 0 -56 -25t-24 -57t24 -56t57 -24t57 24t25 56q0 32 -24 58q-27 24 -59 24zM477 1317q-96 59 -96 183q1 66 59 124t140 59q82 0 142 -58t60 -139q0 -107 -97 -169l454 -1317h-160l-106 307h-582l-106 -307h-160z" />
    <glyph glyph-name="AE" unicode="&#xc6;" horiz-adv-x="1421" 
d="M340 451h484l-242 701zM1376 1318v-144h-642l153 -443h489v-144h-440l153 -443h287v-144h-397l-106 307h-582l-106 -307h-160l453 1318h898z" />
    <glyph glyph-name="Ccedilla" unicode="&#xc7;" horiz-adv-x="1081" 
d="M680 -353q116 1 116 89q0 44 -50 74t-109 31v145q-272 29 -418 221q-139 179 -139 473q6 294 172 476t485 182q158 0 304 -41v-142l-7 -4q-132 42 -289 42q-249 0 -380 -144q-131 -143 -131 -387t131 -390t380 -147q157 0 289 42l7 -4v-142q-112 -33 -245 -39v-62
q60 -18 96 -70t37 -134q-1 -80 -71 -137t-173 -57t-179 51q8 78 47 107q75 -33 127 -33z" />
    <glyph glyph-name="Egrave" unicode="&#xc8;" horiz-adv-x="998" 
d="M160 1318h794v-144h-639v-443h639v-144h-639v-443h639v-144h-794v1318zM429 1838q192 -165 391 -253q-5 -33 -18 -69t-24 -46q-118 24 -260 106t-177 137q7 39 31 73t57 52z" />
    <glyph glyph-name="Eacute" unicode="&#xc9;" horiz-adv-x="998" 
d="M160 1318h794v-144h-639v-443h639v-144h-639v-443h639v-144h-794v1318zM306 1585q199 89 391 253q33 -18 57 -52t31 -73q-35 -55 -177 -138q-141 -82 -260 -105q-13 12 -27 50t-15 65z" />
    <glyph glyph-name="Ecircumflex" unicode="&#xca;" horiz-adv-x="998" 
d="M160 1318h794v-144h-639v-443h639v-144h-639v-443h639v-144h-794v1318zM565 1666q-119 -109 -296 -196q-13 12 -27 52t-16 63q178 95 338 249h8q165 -157 338 -249q-13 -90 -43 -115q-173 83 -297 196h-5z" />
    <glyph glyph-name="Edieresis" unicode="&#xcb;" horiz-adv-x="998" 
d="M160 1318h794v-144h-639v-443h639v-144h-639v-443h639v-144h-794v1318zM653 1582q-1 48 33 80t80 32t80 -33t34 -79t-34 -79t-80 -33t-80 32t-33 80zM287 1582q-1 48 33 80t80 32t80 -33t34 -79t-34 -79t-80 -33t-80 32t-33 80z" />
    <glyph glyph-name="Igrave" unicode="&#xcc;" horiz-adv-x="474" 
d="M160 1318h154v-1318h-154v1318zM86 1838q192 -165 391 -253q-5 -33 -18 -69t-24 -46q-117 24 -259 106t-178 137q6 39 30 73t58 52z" />
    <glyph glyph-name="Iacute" unicode="&#xcd;" horiz-adv-x="474" 
d="M160 1318h154v-1318h-154v1318zM-2 1585q199 89 391 253q33 -18 57 -52t31 -73q-35 -55 -177 -138q-141 -82 -260 -105q-13 12 -27 50t-15 65z" />
    <glyph glyph-name="Icircumflex" unicode="&#xce;" horiz-adv-x="474" 
d="M160 1318h154v-1318h-154v1318zM234 1666q-119 -109 -296 -196q-14 12 -28 52t-15 63q178 95 338 249h8q165 -157 338 -249q-13 -90 -43 -115q-173 83 -297 196h-5z" />
    <glyph glyph-name="Idieresis" unicode="&#xcf;" horiz-adv-x="474" 
d="M160 1318h154v-1318h-154v1318zM307 1582q-1 48 33 80t80 32t80 -33t34 -79t-34 -79t-80 -33t-80 32t-33 80zM-59 1582q-1 48 33 80t80 32t80 -33t34 -79t-34 -79t-80 -33t-80 32t-33 80z" />
    <glyph glyph-name="Eth" unicode="&#xd0;" horiz-adv-x="1350" 
d="M367 1174v-445h173v-144h-173v-441h234q235 0 375 138t139 366q0 228 -155 377t-375 149h-218zM40 729h172v589h373q292 0 489 -187q196 -187 196 -474t-191 -472t-478 -185h-389v585h-172v144z" />
    <glyph glyph-name="Ntilde" unicode="&#xd1;" horiz-adv-x="1263" 
d="M315 0h-155v1318h161l637 -1019v1019h155v-1318h-155l-643 1028v-1028zM756 1507q-77 0 -139 42q-6 6 -32 21q-25 14 -39 18t-40 3q-26 1 -53 -19q-26 -20 -26 -59v-6q-96 -16 -141 27q10 86 76 140t136 54t138 -42t107 -42q41 0 67 20t26 58v6q96 16 141 -27
q-10 -86 -77 -140t-144 -54z" />
    <glyph glyph-name="Ograve" unicode="&#xd2;" horiz-adv-x="1383" 
d="M234 668q0 -236 124 -390t338 -154t334 146t119 382q0 236 -120 390q-120 152 -333 152q-214 0 -338 -146t-124 -380zM1136 1146q167 -192 167 -484q0 -291 -172 -487q-172 -195 -444 -195q-271 0 -439 194t-168 485t173 485t444 194q272 0 439 -192zM540 1838
q192 -165 391 -253q-5 -33 -18 -69t-24 -46q-117 24 -259 106t-178 137q6 39 30 73t58 52z" />
    <glyph glyph-name="Oacute" unicode="&#xd3;" horiz-adv-x="1383" 
d="M234 668q0 -236 124 -390t338 -154t334 146t119 382q0 236 -120 390q-120 152 -333 152q-214 0 -338 -146t-124 -380zM1136 1146q167 -192 167 -484q0 -291 -172 -487q-172 -195 -444 -195q-271 0 -439 194t-168 485t173 485t444 194q272 0 439 -192zM452 1585
q199 89 391 253q33 -18 57 -52t31 -73q-35 -55 -177 -138q-141 -82 -260 -105q-13 12 -27 50t-15 65z" />
    <glyph glyph-name="Ocircumflex" unicode="&#xd4;" horiz-adv-x="1383" 
d="M234 668q0 -236 124 -390t338 -154t334 146t119 382q0 236 -120 390q-120 152 -333 152q-214 0 -338 -146t-124 -380zM1136 1146q167 -192 167 -484q0 -291 -172 -487q-172 -195 -444 -195q-271 0 -439 194t-168 485t173 485t444 194q272 0 439 -192zM688 1666
q-119 -109 -296 -196q-14 12 -28 52t-15 63q178 95 338 249h8q165 -157 338 -249q-13 -90 -43 -115q-173 83 -297 196h-5z" />
    <glyph glyph-name="Otilde" unicode="&#xd5;" horiz-adv-x="1383" 
d="M234 668q0 -236 124 -390t338 -154t334 146t119 382q0 236 -120 390q-120 152 -333 152q-214 0 -338 -146t-124 -380zM1136 1146q167 -192 167 -484q0 -291 -172 -487q-172 -195 -444 -195q-271 0 -439 194t-168 485t173 485t444 194q272 0 439 -192zM816 1507
q-77 0 -139 42q-6 6 -32 21q-25 14 -39 18t-40 3q-26 1 -53 -19q-26 -20 -26 -59v-6q-96 -16 -141 27q10 86 76 140t136 54t138 -42t107 -42q41 0 67 20t26 58v6q96 16 141 -27q-10 -86 -77 -140t-144 -54z" />
    <glyph glyph-name="Odieresis" unicode="&#xd6;" horiz-adv-x="1383" 
d="M234 668q0 -236 124 -390t338 -154t334 146t119 382q0 236 -120 390q-120 152 -333 152q-214 0 -338 -146t-124 -380zM1136 1146q167 -192 167 -484q0 -291 -172 -487q-172 -195 -444 -195q-271 0 -439 194t-168 485t173 485t444 194q272 0 439 -192zM761 1582
q-1 48 33 80t80 32t80 -33t34 -79t-34 -79t-80 -33t-80 32t-33 80zM395 1582q-1 48 33 80t80 32t80 -33t34 -79t-34 -79t-80 -33t-80 32t-33 80z" />
    <glyph glyph-name="multiply" unicode="&#xd7;" horiz-adv-x="908" 
d="M120 290l225 225l-225 225l109 109l225 -225l225 225l109 -109l-225 -225l225 -225l-109 -109l-225 225l-225 -225z" />
    <glyph glyph-name="Oslash" unicode="&#xd8;" horiz-adv-x="1383" 
d="M699 124q211 0 331 146t119 378q0 146 -47 264t-135 191l-353 -972q35 -7 85 -7zM694 1194q-212 0 -336 -146t-124 -376q0 -165 60 -294t175 -195l361 991q-65 20 -136 20zM80 660q0 290 173 484t445 194q91 0 182 -27l50 137l144 -53l-55 -150q135 -89 209 -243t75 -319
q0 -312 -172 -508q-172 -195 -444 -195q-64 0 -124 12l-77 -213l-144 53l76 210q-158 78 -248 244t-90 374z" />
    <glyph glyph-name="Ugrave" unicode="&#xd9;" horiz-adv-x="1403" 
d="M1036 1318h154v-828q0 -388 -265 -478q-93 -32 -227 -32t-240 36t-178 150q-72 113 -71 324v828h154v-778q0 -186 46 -276t130 -121q53 -21 159 -21t165 23q81 29 127 121t46 274v778zM550 1838q192 -165 391 -253q-5 -33 -18 -69t-24 -46q-117 24 -259 106t-178 137
q6 39 30 73t58 52z" />
    <glyph glyph-name="Uacute" unicode="&#xda;" horiz-adv-x="1403" 
d="M1036 1318h154v-828q0 -388 -265 -478q-93 -32 -227 -32t-240 36t-178 150q-72 113 -71 324v828h154v-778q0 -186 46 -276t130 -121q53 -21 159 -21t165 23q81 29 127 121t46 274v778zM462 1585q199 89 391 253q33 -18 57 -52t31 -73q-35 -55 -177 -138
q-141 -82 -260 -105q-13 12 -27 50t-15 65z" />
    <glyph glyph-name="Ucircumflex" unicode="&#xdb;" horiz-adv-x="1403" 
d="M1036 1318h154v-828q0 -388 -265 -478q-93 -32 -227 -32t-240 36t-178 150q-72 113 -71 324v828h154v-778q0 -186 46 -276t130 -121q53 -21 159 -21t165 23q81 29 127 121t46 274v778zM698 1666q-119 -109 -296 -196q-14 12 -28 52t-15 63q178 95 338 249h8
q165 -157 338 -249q-13 -90 -43 -115q-173 83 -297 196h-5z" />
    <glyph glyph-name="Udieresis" unicode="&#xdc;" horiz-adv-x="1403" 
d="M1036 1318h154v-828q0 -388 -265 -478q-93 -32 -227 -32t-240 36t-178 150q-72 113 -71 324v828h154v-778q0 -186 46 -276t130 -121q53 -21 159 -21t165 23q81 29 127 121t46 274v778zM771 1582q-1 48 33 80t80 32t80 -33t34 -79t-34 -79t-80 -33t-80 32t-33 80z
M405 1582q-1 48 33 80t80 32t80 -33t34 -79t-34 -79t-80 -33t-80 32t-33 80z" />
    <glyph glyph-name="Yacute" unicode="&#xdd;" horiz-adv-x="1010" 
d="M582 0h-154v492l-403 826h154l326 -668l326 668h154l-403 -826v-492zM265 1585q199 89 391 253q34 -18 58 -52t30 -73q-35 -55 -177 -138q-141 -82 -260 -105q-13 12 -27 50t-15 65z" />
    <glyph glyph-name="Thorn" unicode="&#xde;" horiz-adv-x="1130" 
d="M439 353q232 0 354 67q122 68 122 232q0 304 -476 303h-124v-602h124zM1070 673q0 -171 -90 -275q-165 -190 -570 -191h-95v-207h-155v1318h155v-217h104q327 -1 489 -103t162 -325z" />
    <glyph glyph-name="germandbls" unicode="&#xdf;" horiz-adv-x="1161" 
d="M936 286q0 78 -71 122q-35 20 -113 49t-130 55q-145 73 -145 233q0 159 79 236q33 31 72 51q100 46 126 71t25 66q0 67 -60 101t-146 34q-133 0 -195 -80t-63 -198v-1026h-155v1026q0 422 413 422q162 0 256 -62q112 -74 112 -231q0 -98 -38 -146t-113 -83l-57 -27
q-60 -28 -86 -75q-16 -26 -17 -66q6 -100 150 -149q124 -43 168 -64q143 -69 143 -231t-109 -248t-254 -86t-255 47v145l6 5q134 -52 227 -52q94 -1 162 41t68 120z" />
    <glyph glyph-name="agrave" unicode="&#xe0;" horiz-adv-x="1022" 
d="M685 457q-74 1 -133 1q-230 2 -290 -66q-30 -33 -29 -92q0 -98 75 -145q48 -31 97 -31q114 0 181 43q99 62 99 206v84zM80 287q0 161 94 237t302 76q71 0 209 -12v129q-1 109 -53 153t-143 45q-162 0 -312 -74l-40 135q111 46 185 64t194 18q323 0 323 -341v-330
q0 -103 23 -157q32 -78 120 -105l-88 -145q-103 34 -157 145q-127 -145 -320 -145q-132 0 -220 63q-117 83 -117 244zM359 1558q192 -165 391 -253q-5 -33 -18 -69t-24 -46q-118 24 -260 106t-177 137q7 39 31 73t57 52z" />
    <glyph glyph-name="aacute" unicode="&#xe1;" horiz-adv-x="1022" 
d="M685 457q-74 1 -133 1q-230 2 -290 -66q-30 -33 -29 -92q0 -98 75 -145q48 -31 97 -31q114 0 181 43q99 62 99 206v84zM80 287q0 161 94 237t302 76q71 0 209 -12v129q-1 109 -53 153t-143 45q-162 0 -312 -74l-40 135q111 46 185 64t194 18q323 0 323 -341v-330
q0 -103 23 -157q32 -78 120 -105l-88 -145q-103 34 -157 145q-127 -145 -320 -145q-132 0 -220 63q-117 83 -117 244zM271 1305q199 89 391 253q34 -18 58 -52t30 -73q-35 -55 -177 -138q-141 -82 -260 -105q-13 12 -27 50t-15 65z" />
    <glyph glyph-name="acircumflex" unicode="&#xe2;" horiz-adv-x="1022" 
d="M685 457q-74 1 -133 1q-230 2 -290 -66q-30 -33 -29 -92q0 -98 75 -145q48 -31 97 -31q114 0 181 43q99 62 99 206v84zM80 287q0 161 94 237t302 76q71 0 209 -12v129q-1 109 -53 153t-143 45q-162 0 -312 -74l-40 135q111 46 185 64t194 18q323 0 323 -341v-330
q0 -103 23 -157q32 -78 120 -105l-88 -145q-103 34 -157 145q-127 -145 -320 -145q-132 0 -220 63q-117 83 -117 244zM508 1386q-119 -109 -296 -196q-14 12 -28 52t-15 63q178 95 338 249h8q165 -157 338 -249q-13 -90 -43 -115q-173 83 -297 196h-5z" />
    <glyph glyph-name="atilde" unicode="&#xe3;" horiz-adv-x="1022" 
d="M685 457q-74 1 -133 1q-230 2 -290 -66q-30 -33 -29 -92q0 -98 75 -145q48 -31 97 -31q114 0 181 43q99 62 99 206v84zM80 287q0 161 94 237t302 76q71 0 209 -12v129q-1 109 -53 153t-143 45q-162 0 -312 -74l-40 135q111 46 185 64t194 18q323 0 323 -341v-330
q0 -103 23 -157q32 -78 120 -105l-88 -145q-103 34 -157 145q-127 -145 -320 -145q-132 0 -220 63q-117 83 -117 244zM635 1227q-77 0 -139 42q-6 6 -32 21q-25 14 -39 18q-15 4 -41 3q-26 1 -52 -19t-26 -59v-6q-96 -16 -141 27q9 86 75 140t136 54t139 -42q68 -42 107 -42
q40 0 66 20t27 58v6q96 16 141 -27q-10 -86 -77 -140t-144 -54z" />
    <glyph glyph-name="adieresis" unicode="&#xe4;" horiz-adv-x="1022" 
d="M685 457q-74 1 -133 1q-230 2 -290 -66q-30 -33 -29 -92q0 -98 75 -145q48 -31 97 -31q114 0 181 43q99 62 99 206v84zM80 287q0 161 94 237t302 76q71 0 209 -12v129q-1 109 -53 153t-143 45q-162 0 -312 -74l-40 135q111 46 185 64t194 18q323 0 323 -341v-330
q0 -103 23 -157q32 -78 120 -105l-88 -145q-103 34 -157 145q-127 -145 -320 -145q-132 0 -220 63q-117 83 -117 244zM580 1302q0 48 34 80t79 32q46 0 80 -33t34 -79t-34 -79t-80 -33q-45 0 -79 32t-34 80zM214 1302q0 48 34 80t79 32q46 0 80 -33t34 -79t-34 -79t-80 -33
q-45 0 -79 32t-34 80z" />
    <glyph glyph-name="aring" unicode="&#xe5;" horiz-adv-x="1022" 
d="M685 457q-74 1 -133 1q-230 2 -290 -66q-30 -33 -29 -92q0 -98 75 -145q48 -31 97 -31q114 0 181 43q99 62 99 206v84zM80 287q0 161 94 237t302 76q71 0 209 -12v129q-1 109 -53 153t-143 45q-162 0 -312 -74l-40 135q111 46 185 64t194 18q323 0 323 -341v-330
q0 -103 23 -157q32 -78 120 -105l-88 -145q-103 34 -157 145q-127 -145 -320 -145q-132 0 -220 63q-117 83 -117 244zM516 1448q-32 0 -57 -25q-24 -25 -24 -57t24 -56t57 -24q34 0 58 24t24 56t-24 58q-26 24 -58 24zM316 1367q0 81 58 139t141 58q82 0 142 -58t60 -139
t-60 -140t-142 -59q-83 0 -141 60t-58 139z" />
    <glyph glyph-name="ae" unicode="&#xe6;" horiz-adv-x="1535" 
d="M685 457q-74 1 -133 1q-230 2 -290 -66q-30 -33 -29 -92q0 -98 75 -145q48 -31 97 -31q114 0 181 43q99 62 99 206v84zM1127 914q-113 0 -187 -80t-95 -214h488q-1 134 -47 214t-159 80zM516 1058q205 0 281 -143q117 143 333 143q273 0 334 -237q21 -80 21 -201v-140
h-647q10 -172 106 -264t234 -92t283 74l3 -1v-143q-152 -74 -286 -74q-272 0 -402 197q-32 -56 -100 -110q-110 -87 -251 -87q-140 0 -228 63q-117 83 -117 244t94 237t302 76q71 0 209 -12v129q-1 109 -53 153t-143 45q-162 0 -312 -74l-40 135q111 46 185 64t194 18z" />
    <glyph glyph-name="ccedilla" unicode="&#xe7;" horiz-adv-x="899" 
d="M502 -353q116 1 116 89q0 44 -50 74t-109 31v149q-169 32 -274 166t-105 386q0 254 136 385t346 131q148 0 297 -74v-136l-7 -5q-140 71 -284 71t-239 -92q-96 -92 -96 -292q-1 -198 97 -302t240 -104t282 71l7 -5v-136q-122 -60 -241 -71v-63q60 -18 96 -70t37 -134
q-1 -80 -71 -137t-173 -57t-179 51q8 78 47 107q75 -33 127 -33z" />
    <glyph glyph-name="egrave" unicode="&#xe8;" horiz-adv-x="931" 
d="M523 914q-113 0 -187 -80t-95 -214h488q-1 134 -47 214t-159 80zM881 480h-647q10 -172 106 -264t234 -92t283 74l3 -1v-143q-151 -74 -298 -74q-208 0 -345 140t-137 394t112 400q112 144 334 144q273 0 334 -237q21 -80 21 -201v-140zM391 1558q192 -165 391 -253
q-5 -33 -18 -69t-24 -46q-118 24 -260 106t-177 137q7 39 31 73t57 52z" />
    <glyph glyph-name="eacute" unicode="&#xe9;" horiz-adv-x="931" 
d="M523 914q-113 0 -187 -80t-95 -214h488q-1 134 -47 214t-159 80zM881 480h-647q10 -172 106 -264t234 -92t283 74l3 -1v-143q-151 -74 -298 -74q-208 0 -345 140t-137 394t112 400q112 144 334 144q273 0 334 -237q21 -80 21 -201v-140zM290 1305q199 89 391 253
q33 -18 57 -52t31 -73q-35 -55 -177 -138q-141 -82 -260 -105q-13 12 -27 50t-15 65z" />
    <glyph glyph-name="ecircumflex" unicode="&#xea;" horiz-adv-x="931" 
d="M523 914q-113 0 -187 -80t-95 -214h488q-1 134 -47 214t-159 80zM881 480h-647q10 -172 106 -264t234 -92t283 74l3 -1v-143q-151 -74 -298 -74q-208 0 -345 140t-137 394t112 400q112 144 334 144q273 0 334 -237q21 -80 21 -201v-140zM523 1386q-119 -109 -296 -196
q-13 12 -27 52t-16 63q178 95 338 249h8q165 -157 338 -249q-13 -90 -43 -115q-173 83 -297 196h-5z" />
    <glyph glyph-name="edieresis" unicode="&#xeb;" horiz-adv-x="931" 
d="M523 914q-113 0 -187 -80t-95 -214h488q-1 134 -47 214t-159 80zM881 480h-647q10 -172 106 -264t234 -92t283 74l3 -1v-143q-151 -74 -298 -74q-208 0 -345 140t-137 394t112 400q112 144 334 144q273 0 334 -237q21 -80 21 -201v-140zM584 1302q0 48 34 80t79 32
q46 0 80 -33t34 -79t-34 -79t-80 -33q-45 0 -79 32t-34 80zM218 1302q0 48 34 80t79 32q46 0 80 -33t34 -79t-34 -79t-80 -33q-45 0 -79 32t-34 80z" />
    <glyph glyph-name="igrave" unicode="&#xec;" horiz-adv-x="535" 
d="M190 1038h154v-1038h-154v1038zM116 1558q192 -165 391 -253q-5 -33 -18 -69t-24 -46q-117 24 -259 106t-178 137q6 39 30 73t58 52z" />
    <glyph glyph-name="iacute" unicode="&#xed;" horiz-adv-x="535" 
d="M190 1038h154v-1038h-154v1038zM28 1305q199 89 391 253q33 -18 57 -52t31 -73q-35 -55 -177 -138q-141 -82 -260 -105q-13 12 -27 50t-15 65z" />
    <glyph glyph-name="icircumflex" unicode="&#xee;" horiz-adv-x="535" 
d="M190 1038h154v-1038h-154v1038zM265 1386q-119 -109 -296 -196q-13 12 -27 52t-16 63q178 95 338 249h8q165 -157 338 -249q-13 -90 -43 -115q-173 83 -297 196h-5z" />
    <glyph glyph-name="idieresis" unicode="&#xef;" horiz-adv-x="535" 
d="M190 1038h154v-1038h-154v1038zM337 1302q-1 48 33 80t80 32t80 -33t34 -79t-34 -79t-80 -33t-80 32t-33 80zM-29 1302q-1 48 33 80t80 32t80 -33t34 -79t-34 -79t-80 -33t-80 32t-33 80z" />
    <glyph glyph-name="eth" unicode="&#xf0;" horiz-adv-x="1092" 
d="M235 494q0 -170 80 -270t234 -100t231 94t77 265t-78 271t-232 100t-233 -95t-79 -265zM1012 521q0 -259 -126 -400t-340 -141t-340 140t-126 365t130 369t341 144q95 0 171 -30q-56 95 -155 177l-295 -108l-43 115l216 79q-88 56 -205 108l80 110q135 -46 285 -159
l276 101l43 -115l-211 -78q299 -285 299 -677z" />
    <glyph glyph-name="ntilde" unicode="&#xf1;" 
d="M589 915q-106 0 -274 -100v-815h-155v1038h104l29 -96q180 116 327 116t249 -94t102 -300v-664h-155v655q0 260 -227 260zM685 1227q-77 0 -139 42q-6 6 -32 21q-25 14 -39 18q-15 4 -41 3q-26 1 -52 -19t-26 -59v-6q-96 -16 -141 27q9 86 75 140t136 54t139 -42
q68 -42 107 -42q40 0 66 20t27 58v6q96 16 141 -27q-10 -86 -77 -140t-144 -54z" />
    <glyph glyph-name="ograve" unicode="&#xf2;" horiz-adv-x="1112" 
d="M235 522q0 -172 86 -285q87 -113 239 -113t234 108t83 280q0 174 -83 288q-82 114 -236 114t-238 -110t-85 -282zM1032 520q0 -228 -135 -384t-344 -156t-341 155t-132 382t135 384t345 157t341 -156t131 -382zM421 1558q192 -165 391 -253q-5 -33 -18 -69t-24 -46
q-118 24 -260 106t-177 137q7 39 31 73t57 52z" />
    <glyph glyph-name="oacute" unicode="&#xf3;" horiz-adv-x="1112" 
d="M235 522q0 -172 86 -285q87 -113 239 -113t234 108t83 280q0 174 -83 288q-82 114 -236 114t-238 -110t-85 -282zM1032 520q0 -228 -135 -384t-344 -156t-341 155t-132 382t135 384t345 157t341 -156t131 -382zM316 1305q199 89 391 253q33 -18 57 -52t31 -73
q-35 -55 -177 -138q-141 -82 -260 -105q-13 12 -27 50t-15 65z" />
    <glyph glyph-name="ocircumflex" unicode="&#xf4;" horiz-adv-x="1112" 
d="M235 522q0 -172 86 -285q87 -113 239 -113t234 108t83 280q0 174 -83 288q-82 114 -236 114t-238 -110t-85 -282zM1032 520q0 -228 -135 -384t-344 -156t-341 155t-132 382t135 384t345 157t341 -156t131 -382zM553 1386q-119 -109 -296 -196q-13 12 -27 52t-16 63
q178 95 338 249h8q165 -157 338 -249q-13 -90 -43 -115q-173 83 -297 196h-5z" />
    <glyph glyph-name="otilde" unicode="&#xf5;" horiz-adv-x="1112" 
d="M235 522q0 -172 86 -285q87 -113 239 -113t234 108t83 280q0 174 -83 288q-82 114 -236 114t-238 -110t-85 -282zM1032 520q0 -228 -135 -384t-344 -156t-341 155t-132 382t135 384t345 157t341 -156t131 -382zM680 1227q-77 0 -139 42q-6 6 -32 21q-25 14 -39 18t-40 3
q-26 1 -53 -19q-26 -20 -26 -59v-6q-96 -16 -141 27q10 86 76 140t136 54t138 -42t107 -42q41 0 67 20t26 58v6q96 16 141 -27q-10 -86 -77 -140t-144 -54z" />
    <glyph glyph-name="odieresis" unicode="&#xf6;" horiz-adv-x="1112" 
d="M235 522q0 -172 86 -285q87 -113 239 -113t234 108t83 280q0 174 -83 288q-82 114 -236 114t-238 -110t-85 -282zM1032 520q0 -228 -135 -384t-344 -156t-341 155t-132 382t135 384t345 157t341 -156t131 -382zM625 1302q-1 48 33 80t80 32t80 -33t34 -79t-34 -79
t-80 -33t-80 32t-33 80zM259 1302q-1 48 33 80t80 32t80 -33t34 -79t-34 -79t-80 -33t-80 32t-33 80z" />
    <glyph glyph-name="divide" unicode="&#xf7;" horiz-adv-x="1030" 
d="M401 92q-1 48 33 80t80 32t80 -33t34 -79t-34 -79t-80 -33t-80 32t-33 80zM910 438h-790v154h790v-154zM401 946q-1 48 33 80t80 32t80 -33t34 -79t-34 -79t-80 -33t-80 32t-33 80z" />
    <glyph glyph-name="oslash" unicode="&#xf8;" horiz-adv-x="1112" 
d="M561 124q151 0 233 108t83 298q0 191 -110 301l-256 -704q24 -3 50 -3zM556 914q-152 0 -236 -110t-85 -280q0 -227 134 -336l262 718q-40 8 -75 8zM80 516q0 228 135 385t345 157q63 0 120 -16l73 199l143 -54l-77 -211q101 -72 157 -192t56 -263q0 -229 -135 -385
t-345 -156q-48 0 -92 9l-76 -210l-144 53l77 212q-109 66 -173 192t-64 280z" />
    <glyph glyph-name="ugrave" unicode="&#xf9;" 
d="M532 123q108 0 274 99v816h155v-1038h-98l-31 99q-183 -119 -330 -119q-148 0 -250 94t-102 300v664h155v-655q0 -260 227 -260zM409 1558q192 -165 391 -253q-5 -33 -18 -69t-24 -46q-118 24 -260 106t-177 137q7 39 31 73t57 52z" />
    <glyph glyph-name="uacute" unicode="&#xfa;" 
d="M532 123q108 0 274 99v816h155v-1038h-98l-31 99q-183 -119 -330 -119q-148 0 -250 94t-102 300v664h155v-655q0 -260 227 -260zM321 1305q199 89 391 253q34 -18 58 -52t30 -73q-35 -55 -177 -138q-141 -82 -260 -105q-13 12 -27 50t-15 65z" />
    <glyph glyph-name="ucircumflex" unicode="&#xfb;" 
d="M532 123q108 0 274 99v816h155v-1038h-98l-31 99q-183 -119 -330 -119q-148 0 -250 94t-102 300v664h155v-655q0 -260 227 -260zM557 1386q-119 -109 -296 -196q-13 12 -27 52t-16 63q178 95 338 249h8q165 -157 338 -249q-13 -90 -43 -115q-173 83 -297 196h-5z" />
    <glyph glyph-name="udieresis" unicode="&#xfc;" 
d="M532 123q108 0 274 99v816h155v-1038h-98l-31 99q-183 -119 -330 -119q-148 0 -250 94t-102 300v664h155v-655q0 -260 227 -260zM630 1302q0 48 34 80t79 32q46 0 80 -33t34 -79t-34 -79t-80 -33q-45 0 -79 32t-34 80zM264 1302q0 48 34 80t79 32q46 0 80 -33t34 -79
t-34 -79t-80 -33q-45 0 -79 32t-34 80z" />
    <glyph glyph-name="yacute" unicode="&#xfd;" horiz-adv-x="970" 
d="M196 -478q-115 0 -256 63l42 142q107 -62 180 -62q143 0 185 112l77 223h-48l-357 1038h160l301 -873l301 873h160l-445 -1290q-79 -226 -300 -226zM246 1305q199 89 391 253q33 -18 57 -52t31 -73q-35 -55 -177 -138q-141 -82 -260 -105q-13 12 -27 50t-15 65z" />
    <glyph glyph-name="thorn" unicode="&#xfe;" horiz-adv-x="1110" 
d="M518 122q158 0 258 112t99 291t-79 284t-240 105t-241 -112v-640q97 -40 203 -40zM315 1448v-481q119 91 267 91q200 0 324 -152t124 -384q0 -233 -127 -379q-140 -163 -396 -163q-100 0 -192 23v-461h-155v1886l145 20h10z" />
    <glyph glyph-name="ydieresis" unicode="&#xff;" horiz-adv-x="970" 
d="M196 -478q-115 0 -256 63l42 142q107 -62 180 -62q143 0 185 112l77 223h-48l-357 1038h160l301 -873l301 873h160l-445 -1290q-79 -226 -300 -226zM555 1302q-1 48 33 80t80 32t80 -33t34 -79t-34 -79t-80 -33t-80 32t-33 80zM189 1302q-1 48 33 80t80 32t80 -33t34 -79
t-34 -79t-80 -33t-80 32t-33 80z" />
    <glyph glyph-name="Amacron" unicode="&#x100;" horiz-adv-x="1164" 
d="M340 451h484l-242 701zM873 307h-582l-106 -307h-160l453 1318h207l454 -1318h-160zM281 1618h602v-144h-602v144z" />
    <glyph glyph-name="amacron" unicode="&#x101;" horiz-adv-x="1022" 
d="M685 457q-74 1 -133 1q-230 2 -290 -66q-30 -33 -29 -92q0 -98 75 -145q48 -31 97 -31q114 0 181 43q99 62 99 206v84zM80 287q0 161 94 237t302 76q71 0 209 -12v129q-1 109 -53 153t-143 45q-162 0 -312 -74l-40 135q111 46 185 64t194 18q323 0 323 -341v-330
q0 -103 23 -157q32 -78 120 -105l-88 -145q-103 34 -157 145q-127 -145 -320 -145q-132 0 -220 63q-117 83 -117 244zM210 1338h602v-144h-602v144z" />
    <glyph glyph-name="Abreve" unicode="&#x102;" horiz-adv-x="1164" 
d="M340 451h484l-242 701zM873 307h-582l-106 -307h-160l453 1318h207l454 -1318h-160zM577 1610q174 0 269 114q26 -16 50 -50t25 -62q-53 -68 -145 -105t-192 -37t-191 36t-150 106q1 28 25 62t50 50q85 -114 259 -114z" />
    <glyph glyph-name="abreve" unicode="&#x103;" horiz-adv-x="1022" 
d="M685 457q-74 1 -133 1q-230 2 -290 -66q-30 -33 -29 -92q0 -98 75 -145q48 -31 97 -31q114 0 181 43q99 62 99 206v84zM80 287q0 161 94 237t302 76q71 0 209 -12v129q-1 109 -53 153t-143 45q-162 0 -312 -74l-40 135q111 46 185 64t194 18q323 0 323 -341v-330
q0 -103 23 -157q32 -78 120 -105l-88 -145q-103 34 -157 145q-127 -145 -320 -145q-132 0 -220 63q-117 83 -117 244zM506 1331q174 0 269 114q27 -17 51 -51t24 -61q-54 -68 -146 -105t-192 -37t-190 36q-91 36 -150 106q0 27 24 61t51 51q85 -114 259 -114z" />
    <glyph glyph-name="Aogonek" unicode="&#x104;" horiz-adv-x="1164" 
d="M340 451h484l-242 701zM818 -231q0 137 154 251l-99 287h-582l-106 -307h-160l453 1318h207l454 -1318q-90 -42 -132 -106t-42 -127q0 -104 91 -104q64 0 152 46l7 -5v-131q-72 -51 -163 -51q-90 0 -162 72t-72 175z" />
    <glyph glyph-name="aogonek" unicode="&#x105;" horiz-adv-x="1022" 
d="M685 457q-74 1 -133 1q-230 2 -290 -66q-30 -33 -29 -92q0 -98 75 -145q48 -31 97 -31q114 0 181 43q99 62 99 206v84zM516 1058q323 0 323 -341v-330q0 -103 23 -157q32 -78 120 -105l-88 -145q-70 -43 -103 -101t-33 -112q0 -104 91 -104q64 0 152 46l7 -5v-131
q-72 -51 -163 -51t-163 72t-71 175q0 152 184 272q-36 36 -58 84q-127 -145 -320 -145q-132 0 -220 63q-117 83 -117 244t94 237t302 76q71 0 209 -12v129q-1 109 -53 153t-143 45q-162 0 -312 -74l-40 135q111 46 185 64t194 18z" />
    <glyph glyph-name="Cacute" unicode="&#x106;" horiz-adv-x="1081" 
d="M737 1338q158 0 304 -41v-142l-7 -4q-132 42 -289 42q-249 0 -380 -144q-131 -143 -131 -387t131 -390t380 -147q157 0 289 42l7 -4v-142q-146 -41 -304 -41q-321 0 -489 192t-168 508q6 294 172 476t485 182zM460 1585q199 89 391 253q33 -18 57 -52t31 -73
q-35 -55 -177 -138q-141 -82 -260 -105q-13 12 -27 50t-15 65z" />
    <glyph glyph-name="cacute" unicode="&#x107;" horiz-adv-x="899" 
d="M562 -20q-205 0 -334 128q-148 146 -148 417t136 402t346 131q148 0 297 -74v-136l-7 -5q-140 71 -284 71t-239 -92q-96 -92 -96 -292q-1 -198 97 -302t240 -104t282 71l7 -5v-136q-149 -74 -297 -74zM210 1305q199 89 391 253q33 -18 57 -52t31 -73q-35 -55 -177 -138
q-141 -82 -260 -105q-13 12 -27 50t-15 65z" />
    <glyph glyph-name="Ccircumflex" unicode="&#x108;" horiz-adv-x="1081" 
d="M737 1338q158 0 304 -41v-142l-7 -4q-132 42 -289 42q-249 0 -380 -144q-131 -143 -131 -387t131 -390t380 -147q157 0 289 42l7 -4v-142q-146 -41 -304 -41q-321 0 -489 192t-168 508q6 294 172 476t485 182zM672 1666q-119 -109 -296 -196q-14 12 -28 52t-15 63
q178 95 338 249h8q165 -157 338 -249q-13 -90 -43 -115q-173 83 -297 196h-5z" />
    <glyph glyph-name="ccircumflex" unicode="&#x109;" horiz-adv-x="899" 
d="M562 -20q-205 0 -334 128q-148 146 -148 417t136 402t346 131q148 0 297 -74v-136l-7 -5q-140 71 -284 71t-239 -92q-96 -92 -96 -292q-1 -198 97 -302t240 -104t282 71l7 -5v-136q-149 -74 -297 -74zM553 1386q-119 -109 -296 -196q-13 12 -27 52t-16 63q178 95 338 249
h8q165 -157 338 -249q-13 -90 -43 -115q-173 83 -297 196h-5z" />
    <glyph glyph-name="Ccaron" unicode="&#x10c;" horiz-adv-x="1081" 
d="M737 1338q158 0 304 -41v-142l-7 -4q-132 42 -289 42q-249 0 -380 -144q-131 -143 -131 -387t131 -390t380 -147q157 0 289 42l7 -4v-142q-146 -41 -304 -41q-321 0 -489 192t-168 508q6 294 172 476t485 182zM740 1638q117 107 297 196q31 -26 43 -115
q-173 -92 -338 -249h-8q-160 154 -338 249q2 25 16 65t27 50q178 -88 296 -196h5z" />
    <glyph glyph-name="ccaron" unicode="&#x10d;" horiz-adv-x="899" 
d="M562 -20q-205 0 -334 128q-148 146 -148 417t136 402t346 131q148 0 297 -74v-136l-7 -5q-140 71 -284 71t-239 -92q-96 -92 -96 -292q-1 -198 97 -302t240 -104t282 71l7 -5v-136q-149 -74 -297 -74zM561 1358q117 107 297 196q31 -26 43 -115q-173 -92 -338 -249h-8
q-160 154 -338 249q1 25 15 65t28 50q178 -88 296 -196h5z" />
    <glyph glyph-name="Dcaron" unicode="&#x10e;" horiz-adv-x="1298" 
d="M315 1174v-1030h234q235 0 375 138t139 366q0 228 -155 377t-375 149h-218zM160 0v1318h373q292 0 489 -187q196 -187 196 -474t-191 -472t-478 -185h-389zM538 1638q117 107 297 196q31 -26 43 -115q-173 -92 -338 -249h-8q-160 154 -338 249q2 25 16 65t27 50
q178 -88 296 -196h5z" />
    <glyph glyph-name="dcaron" unicode="&#x10f;" horiz-adv-x="1501" 
d="M592 916q-162 0 -260 -102t-97 -282q-1 -180 79 -294t240 -113q160 0 241 113v637q-106 41 -203 41zM1239 1228q0 46 -45 108q0 46 33 79t77 33t80 -30t37 -102t-59 -152t-130 -119l-42 54q49 83 49 129zM950 0h-98l-32 92q-129 -111 -292 -111q-200 0 -324 160t-124 392
q0 233 133 379t390 146q85 0 192 -21v391l145 20h10v-1448z" />
    <glyph glyph-name="dcroat" unicode="&#x111;" horiz-adv-x="1110" 
d="M592 916q-162 0 -260 -102t-97 -282q-1 -180 79 -294t240 -114t241 113v638q-106 41 -203 41zM1091 1174h-141v-1175h-98l-32 92q-129 -111 -292 -111q-200 0 -324 160t-124 392t133 380q133 146 390 146q85 0 192 -21v137h-195v144h195v110l145 20h10v-130h141v-144z
" />
    <glyph glyph-name="Emacron" unicode="&#x112;" horiz-adv-x="998" 
d="M160 1318h794v-144h-639v-443h639v-144h-639v-443h639v-144h-794v1318zM269 1618h602v-144h-602v144z" />
    <glyph glyph-name="emacron" unicode="&#x113;" horiz-adv-x="946" 
d="M523 914q-113 0 -187 -80t-95 -214h488q-1 134 -47 214t-159 80zM881 480h-647q10 -172 106 -264t234 -92t283 74l3 -1v-143q-151 -74 -298 -74q-208 0 -345 140t-137 394t112 400q112 144 334 144q273 0 334 -237q21 -80 21 -201v-140zM209 1338h602v-144h-602v144z" />
    <glyph glyph-name="Edotaccent" unicode="&#x116;" horiz-adv-x="998" 
d="M160 1318h794v-144h-639v-443h639v-144h-639v-443h639v-144h-794v1318zM478 1582q0 48 34 80t79 32q46 0 80 -33t34 -79t-34 -79t-80 -33q-45 0 -79 32t-34 80z" />
    <glyph glyph-name="edotaccent" unicode="&#x117;" horiz-adv-x="931" 
d="M523 914q-113 0 -187 -80t-95 -214h488q-1 134 -47 214t-159 80zM881 480h-647q10 -172 106 -264t234 -92t283 74l3 -1v-143q-151 -74 -298 -74q-208 0 -345 140t-137 394t112 400q112 144 334 144q273 0 334 -237q21 -80 21 -201v-140zM427 1302q-1 48 33 80t80 32
t80 -33t34 -79t-34 -79t-80 -33t-80 32t-33 80z" />
    <glyph glyph-name="Eogonek" unicode="&#x118;" horiz-adv-x="998" 
d="M780 -233q0 -104 91 -104q64 0 152 46l7 -5v-131q-72 -51 -163 -51t-163 72t-71 185q0 114 129 221h-602v1318h794v-144h-639v-443h639v-144h-639v-443h639v-144q-90 -42 -132 -106t-42 -127z" />
    <glyph glyph-name="eogonek" unicode="&#x119;" horiz-adv-x="946" 
d="M523 914q-113 0 -187 -80t-95 -214h488q-1 134 -47 214t-159 80zM544 -233q0 -104 91 -104q64 0 152 46l7 -5v-131q-72 -51 -163 -51t-163 72t-71 179q0 108 109 210q-190 19 -308 157t-118 384t112 390t334 144q273 0 334 -237q21 -80 21 -201v-140h-647
q10 -172 106 -264t234 -92t283 74l3 -1v-143q-72 -35 -142 -54q-90 -42 -132 -106t-42 -127z" />
    <glyph glyph-name="Ecaron" unicode="&#x11a;" horiz-adv-x="998" 
d="M160 1318h794v-144h-639v-443h639v-144h-639v-443h639v-144h-794v1318zM567 1638q117 107 297 196q31 -26 43 -115q-173 -92 -338 -249h-8q-160 154 -338 249q1 25 15 65t28 50q178 -88 296 -196h5z" />
    <glyph glyph-name="ecaron" unicode="&#x11b;" horiz-adv-x="946" 
d="M523 914q-113 0 -187 -80t-95 -214h488q-1 134 -47 214t-159 80zM881 480h-647q10 -172 106 -264t234 -92t283 74l3 -1v-143q-151 -74 -298 -74q-208 0 -345 140t-137 394t112 400q112 144 334 144q273 0 334 -237q21 -80 21 -201v-140zM533 1358q117 107 297 196
q31 -26 43 -115q-173 -92 -338 -249h-8q-160 154 -338 249q1 25 15 65t28 50q178 -88 296 -196h5z" />
    <glyph glyph-name="Gcircumflex" unicode="&#x11c;" horiz-adv-x="1268" 
d="M745 1193q-247 0 -379 -145t-131 -376q0 -232 133 -390t321 -158t288 114v331h-285v155h436v-726h-59l-92 71q-128 -89 -291 -89q-270 0 -438 194t-168 490t167 485t486 189q171 0 309 -41v-142l-8 -4q-132 42 -289 42zM681 1666q-119 -109 -296 -196q-13 12 -27 52
t-16 63q178 95 338 249h8q165 -157 338 -249q-13 -90 -43 -115q-173 83 -297 196h-5z" />
    <glyph glyph-name="gcircumflex" unicode="&#x11d;" horiz-adv-x="1034" 
d="M222 -133q0 -210 252 -210q148 0 252 79t104 181t-117 141q-83 26 -282 26h-117q-92 -105 -92 -217zM478 920q-108 0 -172 -66t-64 -150t64 -151q64 -66 174 -66t171 64q62 63 62 149t-63 153q-64 67 -172 67zM569 217q207 0 313 -84t106 -208q0 -165 -166 -284
t-354 -119t-293 94t-105 237q0 65 32 135t92 129q-40 23 -62 73t-23 94q0 88 75 181q-42 43 -64 112t-22 135q0 150 108 248t276 98q114 0 201 -48q65 49 137 77t128 28l46 -131q-103 -17 -195 -75q60 -86 60 -193q0 -150 -110 -258t-277 -108q-100 0 -192 45
q-35 -44 -35 -85t34 -67t94 -26h196zM479 1386q-119 -109 -296 -196q-13 12 -27 52t-16 63q178 95 338 249h8q165 -157 338 -249q-13 -90 -43 -115q-173 83 -297 196h-5z" />
    <glyph glyph-name="Gbreve" unicode="&#x11e;" horiz-adv-x="1268" 
d="M745 1193q-247 0 -379 -145t-131 -376q0 -232 133 -390t321 -158t288 114v331h-285v155h436v-726h-59l-92 71q-128 -89 -291 -89q-270 0 -438 194t-168 490t167 485t486 189q171 0 309 -41v-142l-8 -4q-132 42 -289 42zM711 1590q174 0 269 114q26 -16 50 -50t25 -62
q-53 -68 -145 -105t-192 -37t-191 36t-150 106q1 28 25 62t50 50q85 -114 259 -114z" />
    <glyph glyph-name="gbreve" unicode="&#x11f;" horiz-adv-x="1034" 
d="M222 -133q0 -210 252 -210q148 0 252 79t104 181t-117 141q-83 26 -282 26h-117q-92 -105 -92 -217zM478 920q-108 0 -172 -66t-64 -150t64 -151q64 -66 174 -66t171 64q62 63 62 149t-63 153q-64 67 -172 67zM569 217q207 0 313 -84t106 -208q0 -165 -166 -284
t-354 -119t-293 94t-105 237q0 65 32 135t92 129q-40 23 -62 73t-23 94q0 88 75 181q-42 43 -64 112t-22 135q0 150 108 248t276 98q114 0 201 -48q65 49 137 77t128 28l46 -131q-103 -17 -195 -75q60 -86 60 -193q0 -150 -110 -258t-277 -108q-100 0 -192 45
q-35 -44 -35 -85t34 -67t94 -26h196zM492 1333q174 0 269 114q27 -17 51 -51t24 -61q-54 -68 -146 -105t-192 -37t-190 36q-91 36 -150 106q0 27 24 61t51 51q85 -114 259 -114z" />
    <glyph glyph-name="Gdotaccent" unicode="&#x120;" horiz-adv-x="1268" 
d="M745 1193q-247 0 -379 -145t-131 -376q0 -232 133 -390t321 -158t288 114v331h-285v155h436v-726h-59l-92 71q-128 -89 -291 -89q-270 0 -438 194t-168 490t167 485t486 189q171 0 309 -41v-142l-8 -4q-132 42 -289 42zM577 1560q-1 48 33 80t80 32t80 -33t34 -79
t-34 -79t-80 -33t-80 32t-33 80z" />
    <glyph glyph-name="gdotaccent" unicode="&#x121;" horiz-adv-x="1034" 
d="M222 -133q0 -210 252 -210q148 0 252 79t104 181t-117 141q-83 26 -282 26h-117q-92 -105 -92 -217zM478 920q-108 0 -172 -66t-64 -150t64 -151q64 -66 174 -66t171 64q62 63 62 149t-63 153q-64 67 -172 67zM569 217q207 0 313 -84t106 -208q0 -165 -166 -284
t-354 -119t-293 94t-105 237q0 65 32 135t92 129q-40 23 -62 73t-23 94q0 88 75 181q-42 43 -64 112t-22 135q0 150 108 248t276 98q114 0 201 -48q65 49 137 77t128 28l46 -131q-103 -17 -195 -75q60 -86 60 -193q0 -150 -110 -258t-277 -108q-100 0 -192 45
q-35 -44 -35 -85t34 -67t94 -26h196zM379 1334q-1 48 33 80t80 32t80 -33t34 -79t-34 -79t-80 -33t-80 32t-33 80z" />
    <glyph glyph-name="Gcommaaccent" unicode="&#x122;" horiz-adv-x="1268" 
d="M624 -294q0 46 -45 107q0 46 33 79t77 33q45 -1 81 -31t36 -101t-60 -151t-129 -120l-42 54q49 84 49 130zM745 1193q-247 0 -379 -145t-131 -376q0 -232 133 -390t321 -158t288 114v331h-285v155h436v-726h-59l-92 71q-128 -89 -291 -89q-270 0 -438 194t-168 490
t167 485t486 189q171 0 309 -41v-142l-8 -4q-132 42 -289 42z" />
    <glyph glyph-name="gcommaaccent" unicode="&#x123;" horiz-adv-x="1034" 
d="M222 -133q0 -210 252 -210q148 0 252 79t104 181t-117 141q-83 26 -282 26h-117q-92 -105 -92 -217zM478 920q-108 0 -172 -66t-64 -150t64 -151q64 -66 174 -66t171 64q62 63 62 149t-63 153q-64 67 -172 67zM569 217q207 0 313 -84t106 -208q0 -165 -166 -284
t-354 -119t-293 94t-105 237q0 65 32 135t92 129q-40 23 -62 73t-23 94q0 88 75 181q-42 43 -64 112t-22 135q0 150 108 248t276 98q114 0 201 -48q65 49 137 77t128 28l46 -131q-103 -17 -195 -75q60 -86 60 -193q0 -150 -110 -258t-277 -108q-100 0 -192 45
q-35 -44 -35 -85t34 -67t94 -26h196zM557 1408q0 -48 44 -108q0 -46 -33 -79q-34 -33 -78 -33t-80 30t-35 102q0 72 59 153t129 118l43 -54q-49 -81 -49 -129z" />
    <glyph glyph-name="Hcircumflex" unicode="&#x124;" horiz-adv-x="1273" 
d="M958 582h-643v-582h-155v1318h155v-582h643v582h155v-1318h-155v582zM633 1666q-119 -109 -296 -196q-13 12 -27 52t-16 63q178 95 338 249h8q165 -157 338 -249q-13 -90 -43 -115q-173 83 -297 196h-5z" />
    <glyph glyph-name="hcircumflex" unicode="&#x125;" 
d="M816 656q0 259 -227 259q-67 -1 -131 -27t-143 -73v-815h-155v1428l145 20h10v-492q167 102 289 102q163 0 265 -94t102 -300v-664h-155v656zM246 1644q-119 -109 -296 -196q-14 12 -28 52t-15 63q178 95 338 249h8q165 -157 338 -249q-13 -90 -43 -115q-173 83 -297 196
h-5z" />
    <glyph glyph-name="Hbar" unicode="&#x126;" horiz-adv-x="1273" 
d="M958 736v146h-643v-146h643zM958 582h-643v-582h-155v1318h155v-280h643v280h155v-1318h-155v582z" />
    <glyph glyph-name="hbar" unicode="&#x127;" 
d="M816 656q0 259 -227 259q-67 -1 -131 -27t-143 -73v-815h-155v1174h-120v144h120v110l145 20h10v-130h283v-144h-283v-218q167 102 289 102q163 0 265 -94t102 -300v-664h-155v656z" />
    <glyph glyph-name="Itilde" unicode="&#x128;" horiz-adv-x="474" 
d="M160 1318h154v-1318h-154v1318zM362 1507q-77 0 -139 42q-6 6 -32 21q-25 14 -39 18t-40 3q-26 1 -53 -19q-26 -20 -26 -59v-6q-96 -16 -141 27q10 86 76 140t136 54t138 -42t107 -42q41 0 67 20t26 58v6q96 16 141 -27q-10 -86 -77 -140t-144 -54z" />
    <glyph glyph-name="Imacron" unicode="&#x12a;" horiz-adv-x="474" 
d="M160 1318h154v-1318h-154v1318zM-64 1618h602v-144h-602v144z" />
    <glyph glyph-name="imacron" unicode="&#x12b;" horiz-adv-x="535" 
d="M190 1038h154v-1038h-154v1038zM-33 1338h602v-144h-602v144z" />
    <glyph glyph-name="Ibreve" unicode="&#x12c;" horiz-adv-x="474" 
d="M160 1318h154v-1318h-154v1318zM232 1625q174 0 269 114q27 -17 51 -51t24 -61q-54 -68 -146 -105t-192 -37t-190 36q-91 36 -150 106q0 27 24 61t51 51q85 -114 259 -114z" />
    <glyph glyph-name="ibreve" unicode="&#x12d;" horiz-adv-x="535" 
d="M190 1038h154v-1038h-154v1038zM263 1334q174 0 269 114q26 -16 50 -50t25 -62q-53 -68 -145 -105t-192 -37t-191 36t-150 106q1 28 25 62t50 50q85 -114 259 -114z" />
    <glyph glyph-name="Iogonek" unicode="&#x12e;" horiz-adv-x="474" 
d="M230 -233q0 -104 91 -104q64 0 152 46l7 -5v-131q-72 -51 -163 -51t-163 72t-71 185q0 114 129 221h-52v1318h154v-1249q47 25 66 32l24 -101q-90 -42 -132 -106t-42 -127z" />
    <glyph glyph-name="iogonek" unicode="&#x12f;" horiz-adv-x="535" 
d="M170 -233q0 -104 91 -104q64 0 152 46l7 -5v-131q-72 -51 -163 -51t-163 72t-71 160q0 163 167 275v1009h154v-1038q-90 -42 -132 -106t-42 -127zM160 1321q0 43 32 75t74 32q44 0 77 -31q32 -32 32 -76t-32 -75q-33 -31 -77 -31t-75 31t-31 75z" />
    <glyph glyph-name="Idotaccent" unicode="&#x130;" horiz-adv-x="474" 
d="M160 1318h154v-1318h-154v1318zM123 1582q-1 48 33 80t80 32t80 -33t34 -79t-34 -79t-80 -33t-80 32t-33 80z" />
    <glyph glyph-name="dotlessi" unicode="&#x131;" horiz-adv-x="474" 
d="M160 1038h154v-1038h-154v1038z" />
    <glyph glyph-name="IJ" unicode="&#x132;" horiz-adv-x="1124" 
d="M502 122q102 0 161 23q81 29 127 121t46 274v778h154v-828q0 -388 -265 -478q-93 -32 -223 -32t-214 26l60 133q52 -17 154 -17zM129 431v887h154v-887h-154zM806 1581q0 43 32 75t74 32q44 0 77 -31q32 -32 32 -76t-32 -75q-33 -31 -77 -31t-75 31t-31 75zM99 1581
q-1 43 31 75t76 32t76 -31q32 -32 32 -76t-32 -75t-76 -31t-76 31q-31 31 -31 75z" />
    <glyph glyph-name="ij" unicode="&#x133;" horiz-adv-x="1181" 
d="M845 82q-163 -102 -307 -102t-246 94t-103 300v664h155v-655q0 -260 227 -260q108 0 274 99v816h155v-1112q0 -208 -89 -306t-220 -98t-270 63l42 142q107 -62 194 -62q87 1 137 65t51 196v156zM816 1321q0 43 32 75t74 32q44 0 77 -31q32 -32 32 -76t-32 -75
q-33 -31 -77 -31t-75 31t-31 75zM160 1321q0 43 32 75t74 32q44 0 77 -31q32 -32 32 -76t-32 -75q-33 -31 -77 -31t-75 31t-31 75z" />
    <glyph glyph-name="Jcircumflex" unicode="&#x134;" horiz-adv-x="731" 
d="M167 123h5q86 1 136 65t51 196v934h155v-934q0 -179 -75 -282q-89 -122 -272 -122v143zM432 1666q-119 -109 -296 -196q-14 12 -28 52t-15 63q178 95 338 249h8q165 -157 338 -249q-13 -90 -43 -115q-173 83 -297 196h-5z" />
    <glyph glyph-name="jcircumflex" unicode="&#x135;" horiz-adv-x="530" 
d="M194 1038h155v-1112q0 -208 -89 -306t-220 -98t-270 63l42 142q107 -62 194 -62q88 1 138 65t50 196v1112zM262 1386q-119 -109 -296 -196q-14 12 -28 52t-15 63q178 95 338 249h8q165 -157 338 -249q-13 -90 -43 -115q-173 83 -297 196h-5z" />
    <glyph glyph-name="Kcommaaccent" unicode="&#x136;" horiz-adv-x="1101" 
d="M498 -294q0 46 -45 107q0 46 33 79t77 33q45 -1 81 -31t36 -101t-60 -151t-129 -120l-42 54q49 84 49 130zM315 0h-155v1318h155v-618l519 618h190v-9l-518 -615l16 -24l-2 -1q80 -135 259 -305t288 -230q-57 -98 -89 -134q-2 0 -6 2q-101 47 -244 177t-259 272t-154 231
v-682z" />
    <glyph glyph-name="kcommaaccent" unicode="&#x137;" horiz-adv-x="975" 
d="M413 -294q0 46 -45 107q0 46 33 79t77 33q44 -1 80 -31t37 -101t-59 -151t-130 -120l-42 54q49 84 49 130zM315 0h-155v1421l145 27h10v-902l412 492h198l-422 -502q8 -36 89 -131q82 -95 180 -180t174 -108l-64 -137q-73 4 -167 78t-209 205q-115 132 -170 227
q-18 29 -21 37v-527z" />
    <glyph glyph-name="Lacute" unicode="&#x139;" horiz-adv-x="968" 
d="M150 1318h155v-1174h619v-144h-774v1318zM-9 1585q199 89 391 253q34 -18 58 -52t30 -73q-35 -55 -177 -138q-141 -82 -260 -105q-13 12 -27 50t-15 65z" />
    <glyph glyph-name="lacute" unicode="&#x13a;" horiz-adv-x="474" 
d="M314 1448v-1448h-154v1428l144 20h10zM-2 1563q199 89 391 253q33 -18 57 -52t31 -73q-35 -55 -177 -138q-141 -82 -260 -105q-13 12 -27 50t-15 65z" />
    <glyph glyph-name="Lcommaaccent" unicode="&#x13b;" horiz-adv-x="968" 
d="M493 -294q0 46 -45 107q0 46 33 79t77 33q44 -1 80 -31t37 -101t-59 -151t-130 -120l-42 54q49 84 49 130zM150 1318h155v-1174h619v-144h-774v1318z" />
    <glyph glyph-name="lcommaaccent" unicode="&#x13c;" horiz-adv-x="474" 
d="M170 -294q0 46 -45 107q0 46 33 79t77 33q45 -1 81 -31t36 -101t-60 -151t-129 -120l-42 54q49 84 49 130zM314 1448v-1448h-154v1428l144 20h10z" />
    <glyph glyph-name="Lcaron" unicode="&#x13d;" horiz-adv-x="968" 
d="M150 1318h155v-1174h619v-144h-774v1318zM619 1228q0 46 -45 108q0 46 33 79t77 33t80 -30t37 -102t-59 -152t-130 -119l-42 54q49 83 49 129z" />
    <glyph glyph-name="lcaron" unicode="&#x13e;" horiz-adv-x="865" 
d="M603 1228q0 46 -45 108q0 46 33 79t77 33t80 -30t37 -102t-59 -152t-130 -119l-42 54q49 83 49 129zM314 1448v-1448h-154v1428l144 20h10z" />
    <glyph glyph-name="Ldot" unicode="&#x13f;" horiz-adv-x="968" 
d="M675 729q-1 47 33 79t80 33q46 0 80 -33t34 -79t-34 -79t-80 -33q-46 1 -80 33t-33 79zM150 1318h155v-1174h619v-144h-774v1318z" />
    <glyph glyph-name="ldot" unicode="&#x140;" horiz-adv-x="800" 
d="M436 729q0 47 34 79t79 33q46 0 80 -33t34 -79t-34 -79t-80 -33q-45 1 -79 33t-34 79zM314 1448v-1448h-154v1428l144 20h10z" />
    <glyph glyph-name="Lslash" unicode="&#x141;" horiz-adv-x="1058" 
d="M240 1318h155v-527l182 66l47 -127l-229 -83v-503h619v-144h-774v591l-153 -55l-47 127l200 72v583z" />
    <glyph glyph-name="lslash" unicode="&#x142;" horiz-adv-x="634" 
d="M404 1448v-446l173 63l47 -127l-220 -80v-858h-154v803l-163 -59l-47 127l210 76v481l144 20h10z" />
    <glyph glyph-name="Nacute" unicode="&#x143;" horiz-adv-x="1263" 
d="M315 0h-155v1318h161l637 -1019v1019h155v-1318h-155l-643 1028v-1028zM392 1585q199 89 391 253q33 -18 57 -52t31 -73q-35 -55 -177 -138q-141 -82 -260 -105q-13 12 -27 50t-15 65z" />
    <glyph glyph-name="nacute" unicode="&#x144;" 
d="M589 915q-106 0 -274 -100v-815h-155v1038h104l29 -96q180 116 327 116t249 -94t102 -300v-664h-155v655q0 260 -227 260zM347 1305q199 89 391 253q34 -18 58 -52t30 -73q-35 -55 -177 -138q-141 -82 -260 -105q-13 12 -27 50t-15 65z" />
    <glyph glyph-name="Ncommaaccent" unicode="&#x145;" horiz-adv-x="1263" 
d="M569 -294q0 46 -45 107q0 46 33 79t77 33q44 -1 80 -31t37 -101t-59 -151t-130 -120l-42 54q49 84 49 130zM315 0h-155v1318h161l637 -1019v1019h155v-1318h-155l-643 1028v-1028z" />
    <glyph glyph-name="ncommaaccent" unicode="&#x146;" 
d="M487 -294q0 46 -45 107q0 46 33 79t77 33q44 -1 80 -31t37 -101t-59 -151t-130 -120l-42 54q49 84 49 130zM589 915q-106 0 -274 -100v-815h-155v1038h104l29 -96q180 116 327 116t249 -94t102 -300v-664h-155v655q0 260 -227 260z" />
    <glyph glyph-name="Ncaron" unicode="&#x147;" horiz-adv-x="1263" 
d="M315 0h-155v1318h161l637 -1019v1019h155v-1318h-155l-643 1028v-1028zM673 1614q117 107 297 196q31 -26 43 -115q-173 -92 -338 -249h-8q-160 154 -338 249q1 25 15 65t28 50q178 -88 296 -196h5z" />
    <glyph glyph-name="ncaron" unicode="&#x148;" 
d="M589 915q-106 0 -274 -100v-815h-155v1038h104l29 -96q180 116 327 116t249 -94t102 -300v-664h-155v655q0 260 -227 260zM562 1358q117 107 297 196q31 -26 43 -115q-173 -92 -338 -249h-8q-160 154 -338 249q2 25 16 65t27 50q178 -88 296 -196h5z" />
    <glyph glyph-name="Eng" unicode="&#x14a;" horiz-adv-x="1263" 
d="M766 -334h5q87 0 137 64t50 197v73l-643 1028v-1028h-155v1318h161l637 -1019v1019h155v-1391q0 -179 -75 -282q-89 -122 -272 -122v143z" />
    <glyph glyph-name="eng" unicode="&#x14b;" 
d="M620 1058q147 0 249 -94t102 -300v-738q0 -208 -89 -306t-220 -98t-270 63l42 142q107 -62 194 -62q88 1 138 65t50 196v729q0 260 -227 260q-106 0 -274 -100v-815h-155v1038h104l29 -96q180 116 327 116z" />
    <glyph glyph-name="Omacron" unicode="&#x14c;" horiz-adv-x="1383" 
d="M234 668q0 -236 124 -390t338 -154t334 146t119 382q0 236 -120 390q-120 152 -333 152q-214 0 -338 -146t-124 -380zM1136 1146q167 -192 167 -484q0 -291 -172 -487q-172 -195 -444 -195q-271 0 -439 194t-168 485t173 485t444 194q272 0 439 -192zM404 1618h602v-144
h-602v144z" />
    <glyph glyph-name="omacron" unicode="&#x14d;" horiz-adv-x="1112" 
d="M235 522q0 -172 86 -285q87 -113 239 -113t234 108t83 280q0 174 -83 288q-82 114 -236 114t-238 -110t-85 -282zM1032 520q0 -228 -135 -384t-344 -156t-341 155t-132 382t135 384t345 157t341 -156t131 -382zM255 1338h602v-144h-602v144z" />
    <glyph glyph-name="Ohungarumlaut" unicode="&#x150;" horiz-adv-x="1383" 
d="M234 668q0 -236 124 -390t338 -154t334 146t119 382q0 236 -120 390q-120 152 -333 152q-214 0 -338 -146t-124 -380zM1136 1146q167 -192 167 -484q0 -291 -172 -487q-172 -195 -444 -195q-271 0 -439 194t-168 485t173 485t444 194q272 0 439 -192zM1084 1927
q37 -7 71 -31t52 -61q-15 -41 -65 -109t-128 -144q-78 -74 -149 -112q-15 7 -41 42t-34 53q104 95 168 179t126 183zM429 1565q174 158 294 362q37 -7 71 -32t52 -60q-20 -65 -127 -185t-214 -180q-15 7 -41 39t-35 56z" />
    <glyph glyph-name="ohungarumlaut" unicode="&#x151;" horiz-adv-x="1112" 
d="M235 522q0 -172 86 -285q87 -113 239 -113t234 108t83 280q0 174 -83 288q-82 114 -236 114t-238 -110t-85 -282zM1032 520q0 -228 -135 -384t-344 -156t-341 155t-132 382t135 384t345 157t341 -156t131 -382zM897 1647q37 -7 71 -31t52 -61q-14 -41 -64 -109t-130 -144
q-78 -74 -148 -112q-16 7 -42 42t-33 53q105 95 169 179t125 183zM242 1285q174 158 294 362q38 -7 72 -32t51 -60q-20 -65 -127 -185t-214 -180q-14 7 -40 39t-36 56z" />
    <glyph glyph-name="OE" unicode="&#x152;" horiz-adv-x="1696" 
d="M694 1194q-212 0 -336 -146t-124 -380q0 -236 124 -390t341 -154q85 0 158 26v1016q-72 28 -163 28zM1651 0h-794v3q-81 -23 -193 -23t-224 51t-192 144q-168 194 -168 484q0 291 173 485t445 194q81 0 159 -20h794v-144h-639v-443h639v-144h-639v-443h639v-144z" />
    <glyph glyph-name="oe" unicode="&#x153;" horiz-adv-x="1728" 
d="M1320 914q-114 0 -188 -80t-94 -214h488q-2 134 -48 214t-158 80zM235 522q0 -172 86 -285q87 -113 239 -113t234 108t83 280q0 174 -83 288q-82 114 -236 114t-238 -110t-85 -282zM943 843q117 215 385 215t329 -237q21 -80 21 -201v-140h-647q11 -172 107 -264t232 -92
q138 0 284 74l3 -1v-143q-151 -74 -291 -74t-248 59t-168 169q-63 -106 -166 -167t-232 -61q-208 0 -340 155t-132 382t135 384t345 157q123 0 221 -57t162 -158z" />
    <glyph glyph-name="Racute" unicode="&#x154;" horiz-adv-x="1233" 
d="M315 1173v-597h133q230 0 350 68t120 234t-113 230t-332 65h-158zM1070 887q0 -283 -223 -385q27 -66 83 -151t124 -153t129 -92l-85 -126q-74 15 -152 99q-140 150 -248 375q-115 -23 -287 -23h-96v-431h-155v1318h323q323 0 455 -103t132 -328zM308 1585
q199 89 391 253q33 -18 57 -52t31 -73q-35 -55 -177 -138q-141 -82 -260 -105q-13 12 -27 50t-15 65z" />
    <glyph glyph-name="racute" unicode="&#x155;" horiz-adv-x="813" 
d="M212 1038h104l36 -118q119 138 255 138q92 0 172 -36l-54 -139q-66 32 -143 32q-124 0 -215 -139v-776h-155v1038zM167 1305q199 89 391 253q34 -18 58 -52t30 -73q-35 -55 -177 -138q-141 -82 -260 -105q-13 12 -27 50t-15 65z" />
    <glyph glyph-name="Rcommaaccent" unicode="&#x156;" horiz-adv-x="1233" 
d="M557 -294q0 46 -45 107q0 46 33 79t77 33q44 -1 80 -31t37 -101t-59 -151t-130 -120l-42 54q49 84 49 130zM315 1173v-597h133q230 0 350 68t120 234t-113 230t-332 65h-158zM1070 887q0 -283 -223 -385q27 -66 83 -151t124 -153t129 -92l-85 -126q-74 15 -152 99
q-140 150 -248 375q-115 -23 -287 -23h-96v-431h-155v1318h323q323 0 455 -103t132 -328z" />
    <glyph glyph-name="rcommaaccent" unicode="&#x157;" horiz-adv-x="813" 
d="M227 -294q0 46 -45 107q0 46 33 79t77 33q44 -1 80 -31t37 -101t-59 -151t-130 -120l-42 54q49 84 49 130zM212 1038h104l36 -118q119 138 255 138q92 0 172 -36l-54 -139q-66 32 -143 32q-124 0 -215 -139v-776h-155v1038z" />
    <glyph glyph-name="Rcaron" unicode="&#x158;" horiz-adv-x="1233" 
d="M315 1173v-597h133q230 0 350 68t120 234t-113 230t-332 65h-158zM1070 887q0 -283 -223 -385q27 -66 83 -151t124 -153t129 -92l-85 -126q-74 15 -152 99q-140 150 -248 375q-115 -23 -287 -23h-96v-431h-155v1318h323q323 0 455 -103t132 -328zM555 1614
q117 107 297 196q31 -26 43 -115q-173 -92 -338 -249h-8q-160 154 -338 249q1 25 15 65t28 50q178 -88 296 -196h5z" />
    <glyph glyph-name="rcaron" unicode="&#x159;" horiz-adv-x="813" 
d="M212 1038h104l36 -118q119 138 255 138q92 0 172 -36l-54 -139q-66 32 -143 32q-124 0 -215 -139v-776h-155v1038zM467 1358q117 107 297 196q31 -26 43 -115q-173 -92 -338 -249h-8q-160 154 -338 249q1 25 15 65t28 50q178 -88 296 -196h5z" />
    <glyph glyph-name="Sacute" unicode="&#x15a;" horiz-adv-x="919" 
d="M378 124q128 0 218 50q89 50 89 167q0 114 -97 175q-40 25 -198 107t-189 108q-104 83 -104 252q0 263 246 334q73 21 173 21t221 -35v-132l-3 -2q-135 27 -229 27q-267 0 -267 -201q0 -82 57 -133q34 -30 178 -104t191 -108q85 -60 125 -114t40 -171q0 -115 -66 -207
q-128 -177 -404 -178q-150 0 -269 58v140l3 1q52 -23 136 -39t149 -16zM220 1585q199 89 391 253q33 -18 57 -52t31 -73q-35 -55 -177 -138q-141 -82 -260 -105q-13 12 -27 50t-15 65z" />
    <glyph glyph-name="sacute" unicode="&#x15b;" horiz-adv-x="771" 
d="M294 125q99 0 172 37q95 48 95 126t-78 125q-34 21 -122 56t-143 65q-99 53 -137 139q-22 45 -22 112q0 142 111 214q91 59 220 59t233 -29v-140l-6 -3q-129 33 -229 33q-176 0 -176 -121q0 -75 79 -124q37 -25 133 -62t133 -56q98 -51 138 -133q21 -47 21 -110
q0 -157 -128 -245t-276 -88t-257 47v145l6 5q134 -52 233 -52zM146 1305q199 89 391 253q33 -18 57 -52t31 -73q-35 -55 -177 -138q-141 -82 -260 -105q-13 12 -27 50t-15 65z" />
    <glyph glyph-name="Scircumflex" unicode="&#x15c;" horiz-adv-x="919" 
d="M378 124q128 0 218 50q89 50 89 167q0 114 -97 175q-40 25 -198 107t-189 108q-104 83 -104 252q0 263 246 334q73 21 173 21t221 -35v-132l-3 -2q-135 27 -229 27q-267 0 -267 -201q0 -82 57 -133q34 -30 178 -104t191 -108q85 -60 125 -114t40 -171q0 -115 -66 -207
q-128 -177 -404 -178q-150 0 -269 58v140l3 1q52 -23 136 -39t149 -16zM456 1666q-119 -109 -296 -196q-14 12 -28 52t-15 63q178 95 338 249h8q165 -157 338 -249q-13 -90 -43 -115q-173 83 -297 196h-5z" />
    <glyph glyph-name="scircumflex" unicode="&#x15d;" horiz-adv-x="771" 
d="M294 125q99 0 172 37q95 48 95 126t-78 125q-34 21 -122 56t-143 65q-99 53 -137 139q-22 45 -22 112q0 142 111 214q91 59 220 59t233 -29v-140l-6 -3q-129 33 -229 33q-176 0 -176 -121q0 -75 79 -124q37 -25 133 -62t133 -56q98 -51 138 -133q21 -47 21 -110
q0 -157 -128 -245t-276 -88t-257 47v145l6 5q134 -52 233 -52zM372 1386q-119 -109 -296 -196q-14 12 -28 52t-15 63q178 95 338 249h8q165 -157 338 -249q-13 -90 -43 -115q-173 83 -297 196h-5z" />
    <glyph glyph-name="Scedilla" unicode="&#x15e;" horiz-adv-x="919" 
d="M395 -294q0 46 -45 107q0 46 33 79t77 33q44 -1 80 -31t37 -101t-59 -151t-130 -120l-42 54q49 84 49 130zM378 124q128 0 218 50q89 50 89 167q0 114 -97 175q-40 25 -198 107t-189 108q-104 83 -104 252q0 263 246 334q73 21 173 21t221 -35v-132l-3 -2
q-135 27 -229 27q-267 0 -267 -201q0 -82 57 -133q34 -30 178 -104t191 -108q85 -60 125 -114t40 -171q0 -115 -66 -207q-128 -177 -404 -178q-150 0 -269 58v140l3 1q52 -23 136 -39t149 -16z" />
    <glyph glyph-name="scedilla" unicode="&#x15f;" horiz-adv-x="801" 
d="M345 -294q0 46 -45 107q0 46 33 79t77 33q44 -1 80 -31t37 -101t-59 -151t-130 -120l-42 54q49 84 49 130zM576 288q0 78 -78 125q-34 21 -122 56t-143 65q-99 53 -137 139q-22 45 -22 112q0 142 111 214q91 59 220 59t233 -29v-140l-6 -3q-129 33 -229 33
q-176 0 -176 -121q0 -75 79 -124q38 -25 134 -62t132 -56q98 -51 138 -133q21 -47 21 -110q0 -157 -128 -245q-127 -88 -275 -88t-258 47v145l6 5q134 -52 233 -52t172 37q95 48 95 126z" />
    <glyph glyph-name="Scaron" unicode="&#x160;" horiz-adv-x="919" 
d="M378 124q128 0 218 50q89 50 89 167q0 114 -97 175q-40 25 -198 107t-189 108q-104 83 -104 252q0 263 246 334q73 21 173 21t221 -35v-132l-3 -2q-135 27 -229 27q-267 0 -267 -201q0 -82 57 -133q34 -30 178 -104t191 -108q85 -60 125 -114t40 -171q0 -115 -66 -207
q-128 -177 -404 -178q-150 0 -269 58v140l3 1q52 -23 136 -39t149 -16zM481 1614q117 107 297 196q31 -26 43 -115q-173 -92 -338 -249h-8q-160 154 -338 249q1 25 15 65t28 50q178 -88 296 -196h5z" />
    <glyph glyph-name="scaron" unicode="&#x161;" horiz-adv-x="801" 
d="M576 288q0 78 -78 125q-34 21 -122 56t-143 65q-99 53 -137 139q-22 45 -22 112q0 142 111 214q91 59 220 59t233 -29v-140l-6 -3q-129 33 -229 33q-176 0 -176 -121q0 -75 79 -124q38 -25 134 -62t132 -56q98 -51 138 -133q21 -47 21 -110q0 -157 -128 -245
q-127 -88 -275 -88t-258 47v145l6 5q134 -52 233 -52t172 37q95 48 95 126zM413 1358q117 107 297 196q31 -26 43 -115q-173 -92 -338 -249h-8q-160 154 -338 249q1 25 15 65t28 50q178 -88 296 -196h5z" />
    <glyph glyph-name="Tcedilla" unicode="&#x162;" horiz-adv-x="1060" 
d="M455 -294q0 46 -45 107q0 46 33 79t77 33q44 -1 80 -31t37 -101t-59 -151t-130 -120l-42 54q49 84 49 130zM45 1318h970v-144h-408v-1174h-154v1174h-408v144z" />
    <glyph glyph-name="tcedilla" unicode="&#x163;" horiz-adv-x="744" 
d="M379 -294q0 46 -45 107q0 46 33 79t77 33q44 -1 80 -31t37 -101t-59 -151t-130 -120l-42 54q49 84 49 130zM40 1038h115v186l145 27h10v-213h288v-144h-288v-510q0 -132 50 -196t138 -65q86 0 194 62l42 -142q-139 -63 -270 -63t-220 98t-89 306v510h-115v144z" />
    <glyph glyph-name="Tcaron" unicode="&#x164;" horiz-adv-x="1060" 
d="M45 1318h970v-144h-408v-1174h-154v1174h-408v144zM532 1614q117 107 297 196q31 -26 43 -115q-173 -92 -338 -249h-8q-160 154 -338 249q2 25 16 65t27 50q178 -88 296 -196h5z" />
    <glyph glyph-name="tcaron" unicode="&#x165;" horiz-adv-x="1135" 
d="M40 1038h115v186l145 27h10v-213h288v-144h-288v-510q0 -132 50 -196t138 -65q86 0 194 62l42 -142q-139 -63 -270 -63t-220 98t-89 306v510h-115v144zM873 1228q0 46 -45 108q0 46 33 79t77 33t80 -30t37 -102t-59 -152t-130 -119l-42 54q49 83 49 129z" />
    <glyph glyph-name="Tbar" unicode="&#x166;" horiz-adv-x="1060" 
d="M247 755h206v419h-408v144h970v-144h-408v-419h198v-144h-198v-611h-154v611h-206v144z" />
    <glyph glyph-name="tbar" unicode="&#x167;" horiz-adv-x="744" 
d="M40 1038h115v186l145 27h10v-213h288v-144h-288v-139h288v-144h-288v-227q0 -132 50 -196t138 -65q86 0 194 62l42 -142q-139 -63 -270 -63t-220 98t-89 306v227h-115v144h115v139h-115v144z" />
    <glyph glyph-name="Utilde" unicode="&#x168;" horiz-adv-x="1403" 
d="M1036 1318h154v-828q0 -388 -265 -478q-93 -32 -227 -32t-240 36t-178 150q-72 113 -71 324v828h154v-778q0 -186 46 -276t130 -121q53 -21 159 -21t165 23q81 29 127 121t46 274v778zM826 1507q-77 0 -139 42q-6 6 -32 21q-25 14 -39 18t-40 3q-26 1 -53 -19
q-26 -20 -26 -59v-6q-96 -16 -141 27q10 86 76 140t136 54t138 -42t107 -42q41 0 67 20t26 58v6q96 16 141 -27q-10 -86 -77 -140t-144 -54z" />
    <glyph glyph-name="utilde" unicode="&#x169;" 
d="M532 123q108 0 274 99v816h155v-1038h-98l-31 99q-183 -119 -330 -119q-148 0 -250 94t-102 300v664h155v-655q0 -260 227 -260zM685 1227q-77 0 -139 42q-6 6 -32 21q-25 14 -39 18q-15 4 -41 3q-26 1 -52 -19t-26 -59v-6q-96 -16 -141 27q9 86 75 140t136 54t139 -42
q68 -42 107 -42q40 0 66 20t27 58v6q96 16 141 -27q-10 -86 -77 -140t-144 -54z" />
    <glyph glyph-name="Umacron" unicode="&#x16a;" horiz-adv-x="1403" 
d="M1036 1318h154v-828q0 -388 -265 -478q-93 -32 -227 -32t-240 36t-178 150q-72 113 -71 324v828h154v-778q0 -186 46 -276t130 -121q53 -21 159 -21t165 23q81 29 127 121t46 274v778zM400 1618h602v-144h-602v144z" />
    <glyph glyph-name="umacron" unicode="&#x16b;" 
d="M532 123q108 0 274 99v816h155v-1038h-98l-31 99q-183 -119 -330 -119q-148 0 -250 94t-102 300v664h155v-655q0 -260 227 -260zM259 1341h602v-144h-602v144z" />
    <glyph glyph-name="Uring" unicode="&#x16e;" horiz-adv-x="1403" 
d="M1036 1318h154v-828q0 -388 -265 -478q-93 -32 -227 -32t-240 36t-178 150q-72 113 -71 324v828h154v-778q0 -186 46 -276t130 -121q53 -21 159 -21t165 23q81 29 127 121t46 274v778zM700 1530q-32 0 -56 -25t-24 -57t24 -56t57 -24t57 24t25 56q0 32 -24 58
q-27 24 -59 24zM501 1449q1 81 59 139t140 58t142 -58t60 -139t-60 -140t-142 -59t-140 60t-59 139z" />
    <glyph glyph-name="uring" unicode="&#x16f;" 
d="M532 123q108 0 274 99v816h155v-1038h-98l-31 99q-183 -119 -330 -119q-148 0 -250 94t-102 300v664h155v-655q0 -260 227 -260zM568 1492q-32 0 -57 -25q-24 -25 -24 -57t24 -56t57 -24q34 0 58 24t24 56t-24 58q-26 24 -58 24zM368 1411q0 81 58 139t141 58
q82 0 142 -58t60 -139t-60 -140t-142 -59q-83 0 -141 60t-58 139z" />
    <glyph glyph-name="Uhungarumlaut" unicode="&#x170;" horiz-adv-x="1403" 
d="M1036 1318h154v-828q0 -388 -265 -478q-93 -32 -227 -32t-240 36t-178 150q-72 113 -71 324v828h154v-778q0 -186 46 -276t130 -121q53 -21 159 -21t165 23q81 29 127 121t46 274v778zM1060 1927q37 -7 71 -31t52 -61q-11 -38 -63 -108q-52 -71 -130 -145t-149 -112
q-15 7 -41 42t-34 53q104 95 168 179t126 183zM405 1565q174 158 294 362q37 -7 71 -32t52 -60q-20 -65 -127 -185t-214 -180q-15 7 -41 39t-35 56z" />
    <glyph glyph-name="uhungarumlaut" unicode="&#x171;" 
d="M532 123q108 0 274 99v816h155v-1038h-98l-31 99q-183 -119 -330 -119q-148 0 -250 94t-102 300v664h155v-655q0 -260 227 -260zM915 1647q37 -7 71 -31t52 -61q-14 -41 -64 -109t-130 -144q-78 -74 -148 -112q-16 7 -42 42t-33 53q105 95 169 179t125 183zM260 1285
q174 158 294 362q38 -7 72 -32t51 -60q-20 -65 -127 -185t-214 -180q-14 7 -40 39t-36 56z" />
    <glyph glyph-name="Uogonek" unicode="&#x172;" horiz-adv-x="1403" 
d="M709 -233q0 -104 91 -104q64 0 152 46l7 -5v-131q-72 -51 -163 -51q-90 0 -162 72t-72 179q0 108 107 208q-129 3 -229 43t-166 152t-65 314v828h154v-778q0 -186 46 -276t130 -121q53 -21 159 -21t165 23q81 29 127 121t46 274v778h154v-828q0 -229 -92 -354
q-77 -102 -217 -136q-90 -43 -131 -107t-41 -126z" />
    <glyph glyph-name="uogonek" unicode="&#x173;" 
d="M532 123q108 0 274 99v816h155v-1038q-90 -42 -132 -106t-42 -127q0 -104 91 -104q64 0 152 46l7 -5v-131q-72 -51 -163 -51q-90 0 -162 72t-72 165t60 169t146 127l-14 44q-183 -119 -330 -119q-148 0 -250 94t-102 300v664h155v-655q0 -260 227 -260z" />
    <glyph glyph-name="Wcircumflex" unicode="&#x174;" horiz-adv-x="1716" 
d="M858 1045l-299 -1045h-156l-378 1318h157l298 -1046l300 1046h156l299 -1046l299 1046h157l-378 -1318h-156zM855 1666q-119 -109 -296 -196q-13 12 -27 52t-16 63q178 95 338 249h8q165 -157 338 -249q-13 -90 -43 -115q-173 83 -297 196h-5z" />
    <glyph glyph-name="wcircumflex" unicode="&#x175;" horiz-adv-x="1564" 
d="M1534 1038l-329 -1038h-192l-231 790l-231 -790h-193l-328 1038h150l274 -867l257 867h142l257 -867l275 867h149zM779 1386q-119 -109 -296 -196q-13 12 -27 52t-16 63q178 95 338 249h8q165 -157 338 -249q-13 -90 -43 -115q-173 83 -297 196h-5z" />
    <glyph glyph-name="Ycircumflex" unicode="&#x176;" horiz-adv-x="1010" 
d="M582 0h-154v492l-403 826h154l326 -668l326 668h154l-403 -826v-492zM502 1666q-119 -109 -296 -196q-14 12 -28 52t-15 63q178 95 338 249h8q165 -157 338 -249q-13 -90 -43 -115q-173 83 -297 196h-5z" />
    <glyph glyph-name="ycircumflex" unicode="&#x177;" horiz-adv-x="970" 
d="M196 -478q-115 0 -256 63l42 142q107 -62 180 -62q143 0 185 112l77 223h-48l-357 1038h160l301 -873l301 873h160l-445 -1290q-79 -226 -300 -226zM482 1386q-119 -109 -296 -196q-14 12 -28 52t-15 63q178 95 338 249h8q165 -157 338 -249q-13 -90 -43 -115
q-173 83 -297 196h-5z" />
    <glyph glyph-name="Ydieresis" unicode="&#x178;" horiz-adv-x="1010" 
d="M582 0h-154v492l-403 826h154l326 -668l326 668h154l-403 -826v-492zM574 1582q0 48 34 80t79 32q46 0 80 -33t34 -79t-34 -79t-80 -33q-45 0 -79 32t-34 80zM208 1582q0 48 34 80t79 32q46 0 80 -33t34 -79t-34 -79t-80 -33q-45 0 -79 32t-34 80z" />
    <glyph glyph-name="Zacute" unicode="&#x179;" horiz-adv-x="950" 
d="M87 1174v144h793l4 -5l-596 -1169h597v-144h-816l-4 5l593 1169h-571zM235 1585q199 89 391 253q34 -18 58 -52t30 -73q-35 -55 -177 -138q-141 -82 -260 -105q-13 12 -27 50t-15 65z" />
    <glyph glyph-name="zacute" unicode="&#x17a;" horiz-adv-x="911" 
d="M66 894v144h790l5 -6l-546 -888h543v-144h-803l-5 5l546 889h-530zM256 1305q199 89 391 253q33 -18 57 -52t31 -73q-35 -55 -177 -138q-141 -82 -260 -105q-13 12 -27 50t-15 65z" />
    <glyph glyph-name="Zdotaccent" unicode="&#x17b;" horiz-adv-x="950" 
d="M87 1174v144h793l4 -5l-596 -1169h597v-144h-816l-4 5l593 1169h-571zM396 1560q0 48 34 80t79 32q46 0 80 -33t34 -79t-34 -79t-80 -33q-45 0 -79 32t-34 80z" />
    <glyph glyph-name="zdotaccent" unicode="&#x17c;" horiz-adv-x="911" 
d="M66 894v144h790l5 -6l-546 -888h543v-144h-803l-5 5l546 889h-530zM355 1302q-1 48 33 80t80 32t80 -33t34 -79t-34 -79t-80 -33t-80 32t-33 80z" />
    <glyph glyph-name="Zcaron" unicode="&#x17d;" horiz-adv-x="950" 
d="M87 1174v144h793l4 -5l-596 -1169h597v-144h-816l-4 5l593 1169h-571zM477 1638q117 107 297 196q31 -26 43 -115q-173 -92 -338 -249h-8q-160 154 -338 249q1 25 15 65t28 50q178 -88 296 -196h5z" />
    <glyph glyph-name="zcaron" unicode="&#x17e;" horiz-adv-x="911" 
d="M66 894v144h790l5 -6l-546 -888h543v-144h-803l-5 5l546 889h-530zM457 1358q117 107 297 196q31 -26 43 -115q-173 -92 -338 -249h-8q-160 154 -338 249q1 25 15 65t28 50q178 -88 296 -196h5z" />
    <glyph glyph-name="florin" unicode="&#x192;" horiz-adv-x="627" 
d="M518 1305q-168 0 -169 -263v-4h235v-143h-235v-969q0 -208 -89 -306t-220 -98t-270 63l42 142q107 -62 194 -62q88 1 138 65t50 196v969h-168v143h168v4q0 406 310 406q104 0 243 -44l-42 -136q-109 37 -187 37z" />
    <glyph glyph-name="Ezh" unicode="&#x1b7;" horiz-adv-x="970" 
d="M70 1172v146h832l8 -10l-530 -547q257 -1 411 -135q111 -97 111 -253q0 -230 -209 -338q-112 -58 -224 -58q-111 0 -228 30t-196 83l34 118l5 10q70 -44 168 -70t178 -27q136 0 228 73t91 183q0 72 -58 129q-117 115 -335 115h-168v140l400 411h-518z" />
    <glyph glyph-name="Gstroke" unicode="&#x1e4;" horiz-adv-x="1268" 
d="M745 1193q-247 0 -379 -145t-131 -376q0 -232 133 -390t321 -158t288 114v82h-162v144h162v105h-285v155h436v-260h162v-144h-162v-322h-59l-92 71q-128 -89 -291 -89q-270 0 -438 194t-168 490t167 485t486 189q171 0 309 -41v-142l-8 -4q-132 42 -289 42z" />
    <glyph glyph-name="gstroke" unicode="&#x1e5;" horiz-adv-x="1099" 
d="M245 -192q34 -151 246 -151q149 0 257 83q38 28 65 68h-568zM448 84h-117q-54 -62 -77 -132h589q-16 74 -106 103t-289 29zM259 704q0 -84 64 -151q63 -66 173 -66t172 64q62 63 62 149t-63 153t-171 67t-173 -66q-64 -66 -64 -150zM1059 -192h-79q-43 -97 -145 -169
q-162 -117 -350 -117t-295 97q-85 75 -100 189h-70v144h85q31 89 106 165q-41 23 -63 73t-22 94q0 88 75 181q-42 43 -64 112t-22 135q0 150 108 248t276 98q114 0 201 -48q65 49 137 77t128 28l46 -131q-103 -17 -195 -75q60 -86 60 -193q0 -150 -110 -258t-277 -108
q-100 0 -192 45q-35 -44 -35 -85t34 -67t94 -26h196q206 0 317 -87q90 -72 101 -178h55v-144z" />
    <glyph glyph-name="Gcaron" unicode="&#x1e6;" horiz-adv-x="1268" 
d="M745 1193q-247 0 -379 -145t-131 -376q0 -232 133 -390t321 -158t288 114v331h-285v155h436v-726h-59l-92 71q-128 -89 -291 -89q-270 0 -438 194t-168 490t167 485t486 189q171 0 309 -41v-142l-8 -4q-132 42 -289 42zM668 1558q117 107 297 196q31 -26 43 -115
q-173 -92 -338 -249h-8q-160 154 -338 249q2 25 16 65t27 50q178 -88 296 -196h5z" />
    <glyph glyph-name="gcaron" unicode="&#x1e7;" horiz-adv-x="1034" 
d="M222 -133q0 -210 252 -210q148 0 252 79t104 181t-117 141q-83 26 -282 26h-117q-92 -105 -92 -217zM478 920q-108 0 -172 -66t-64 -150t64 -151q64 -66 174 -66t171 64q62 63 62 149t-63 153q-64 67 -172 67zM569 217q207 0 313 -84t106 -208q0 -165 -166 -284
t-354 -119t-293 94t-105 237q0 65 32 135t92 129q-40 23 -62 73t-23 94q0 88 75 181q-42 43 -64 112t-22 135q0 150 108 248t276 98q114 0 201 -48q65 49 137 77t128 28l46 -131q-103 -17 -195 -75q60 -86 60 -193q0 -150 -110 -258t-277 -108q-100 0 -192 45
q-35 -44 -35 -85t34 -67t94 -26h196zM488 1328q117 107 297 196q31 -26 43 -115q-173 -92 -338 -249h-8q-160 154 -338 249q2 25 16 65t27 50q178 -88 296 -196h5z" />
    <glyph glyph-name="Kcaron" unicode="&#x1e8;" horiz-adv-x="1101" 
d="M315 0h-155v1318h155v-618l519 618h190v-9l-518 -615l16 -24l-2 -1q80 -135 259 -305t288 -230q-57 -98 -89 -134q-2 0 -6 2q-101 47 -244 177t-259 272t-154 231v-682zM532 1558q117 107 297 196q31 -26 43 -115q-173 -92 -338 -249h-8q-160 154 -338 249q2 25 16 65
t27 50q178 -88 296 -196h5z" />
    <glyph glyph-name="kcaron" unicode="&#x1e9;" horiz-adv-x="975" 
d="M315 0h-155v1421l145 27h10v-902l412 492h198l-422 -502q8 -36 89 -131q82 -95 180 -180t174 -108l-64 -137q-73 4 -167 78t-209 205q-115 132 -170 227q-18 29 -21 37v-527zM245 1668q117 107 297 196q31 -26 43 -115q-173 -92 -338 -249h-8q-160 154 -338 249
q1 25 15 65t28 50q178 -88 296 -196h5z" />
    <glyph glyph-name="Ezhcaron" unicode="&#x1ee;" horiz-adv-x="970" 
d="M70 1172v146h832l8 -10l-530 -547q257 -1 411 -135q111 -97 111 -253q0 -230 -209 -338q-112 -58 -224 -58q-111 0 -228 30t-196 83l34 118l5 10q70 -44 168 -70t178 -27q136 0 228 73t91 183q0 72 -58 129q-117 115 -335 115h-168v140l400 411h-518zM468 1558
q117 107 297 196q31 -26 43 -115q-173 -92 -338 -249h-8q-160 154 -338 249q2 25 16 65t27 50q178 -88 296 -196h5z" />
    <glyph glyph-name="ezhcaron" unicode="&#x1ef;" horiz-adv-x="971" 
d="M70 892v146h798l8 -10l-496 -523q259 0 411 -140q111 -102 111 -272q0 -230 -209 -338q-112 -58 -224 -58q-111 0 -228 30t-196 83l34 118l5 10q70 -44 168 -70t178 -27q136 0 228 73q92 74 91 170q0 96 -58 158q-114 122 -335 123h-168v140l366 387h-484zM468 1328
q117 107 297 196q31 -26 43 -115q-173 -92 -338 -249h-8q-160 154 -338 249q2 25 16 65t27 50q178 -88 296 -196h5z" />
    <glyph glyph-name="AEacute" unicode="&#x1fc;" horiz-adv-x="1421" 
d="M340 451h484l-242 701zM1376 1318v-144h-642l153 -443h489v-144h-440l153 -443h287v-144h-397l-106 307h-582l-106 -307h-160l453 1318h898zM538 1564q199 89 391 253q33 -17 57 -51t31 -74q-35 -55 -177 -138q-141 -82 -260 -105q-13 11 -27 49t-15 66z" />
    <glyph glyph-name="Oslashacute" unicode="&#x1fe;" horiz-adv-x="1383" 
d="M699 124q211 0 331 146t119 378q1 154 -49 274t-146 191l-356 -979q44 -10 101 -10zM694 1194q-212 0 -336 -146t-124 -376q0 -158 58 -284t163 -197l360 988q-65 15 -121 15zM80 660q0 290 173 484t445 194q86 0 167 -23l48 133l144 -53l-51 -141q140 -86 218 -243
t79 -325q0 -315 -172 -511q-172 -195 -444 -195q-75 0 -139 16l-79 -217l-144 53l79 217q-152 81 -238 243t-86 368zM452 1585q199 89 391 253q33 -18 57 -52t31 -73q-35 -55 -177 -138q-141 -82 -260 -105q-13 12 -27 50t-15 65z" />
    <glyph glyph-name="oslashacute" unicode="&#x1ff;" horiz-adv-x="1112" 
d="M561 124q151 0 233 108t83 298q0 191 -110 301l-256 -704q24 -3 50 -3zM556 914q-152 0 -236 -110t-85 -280q0 -227 134 -336l262 718q-40 8 -75 8zM80 516q0 228 135 385t345 157q63 0 120 -16l73 199l143 -54l-77 -211q101 -72 157 -192t56 -263q0 -229 -135 -385
t-345 -156q-48 0 -92 9l-76 -210l-144 53l77 212q-109 66 -173 192t-64 280zM316 1305q199 89 391 253q33 -18 57 -52t31 -73q-35 -55 -177 -138q-141 -82 -260 -105q-13 12 -27 50t-15 65z" />
    <glyph glyph-name="ezh" unicode="&#x292;" horiz-adv-x="971" 
d="M70 892v146h798l8 -10l-496 -523q259 0 411 -140q111 -102 111 -272q0 -230 -209 -338q-112 -58 -224 -58q-111 0 -228 30t-196 83l34 118l5 10q70 -44 168 -70t178 -27q136 0 228 73q92 74 91 170q0 96 -58 158q-114 122 -335 123h-168v140l366 387h-484z" />
    <glyph glyph-name="circumflex" unicode="&#x2c6;" horiz-adv-x="892" 
d="M443 1386q-119 -109 -296 -196q-13 12 -27 52t-16 63q178 95 338 249h8q165 -157 338 -249q-13 -90 -43 -115q-173 83 -297 196h-5z" />
    <glyph glyph-name="caron" unicode="&#x2c7;" horiz-adv-x="892" 
d="M448 1358q117 107 297 196q31 -26 43 -115q-173 -92 -338 -249h-8q-160 154 -338 249q2 25 16 65t27 50q178 -88 296 -196h5z" />
    <glyph glyph-name="breve" unicode="&#x2d8;" horiz-adv-x="918" 
d="M454 1466q174 0 269 114q27 -16 51 -50t24 -62q-54 -68 -146 -105t-192 -37t-190 36q-91 36 -150 106q0 28 24 62t51 50q85 -114 259 -114z" />
    <glyph glyph-name="dotaccent" unicode="&#x2d9;" horiz-adv-x="347" 
d="M60 1302q0 48 34 80t79 32q46 0 80 -33t34 -79t-34 -79t-80 -33q-45 0 -79 32t-34 80z" />
    <glyph glyph-name="ring" unicode="&#x2da;" horiz-adv-x="603" 
d="M300 1492q-32 0 -56 -25t-24 -57t24 -56t57 -24t57 24t25 56q0 32 -24 58q-27 24 -59 24zM101 1411q1 81 59 139t140 58t142 -58t60 -139t-60 -140t-142 -59t-140 60t-59 139z" />
    <glyph glyph-name="ogonek" unicode="&#x2db;" horiz-adv-x="554" 
d="M224 -233q0 -104 91 -104q64 0 152 46l7 -5v-131q-72 -51 -163 -51t-163 72t-71 174q0 104 87 192t210 141l24 -101q-90 -42 -132 -106t-42 -127z" />
    <glyph glyph-name="tilde" unicode="&#x2dc;" horiz-adv-x="892" 
d="M571 1227q-77 0 -139 42q-6 6 -32 21q-25 14 -39 18q-15 4 -41 3q-26 1 -52 -19t-26 -59v-6q-96 -16 -141 27q9 86 75 140t136 54t139 -42q68 -42 107 -42q40 0 66 20t27 58v6q96 16 141 -27q-10 -86 -77 -140t-144 -54z" />
    <glyph glyph-name="hungarumlaut" unicode="&#x2dd;" horiz-adv-x="993" 
d="M763 1647q37 -7 71 -31t52 -61q-11 -38 -63 -108q-53 -71 -131 -145t-148 -112q-16 7 -42 42t-33 53q105 95 169 179t125 183zM108 1285q174 158 294 362q38 -7 72 -32t51 -60q-20 -65 -127 -185t-214 -180q-14 7 -40 39t-36 56z" />
    <glyph glyph-name="Ygrave" unicode="&#x1ef2;" horiz-adv-x="1010" 
d="M582 0h-154v492l-403 826h154l326 -668l326 668h154l-403 -826v-492zM353 1838q192 -165 391 -253q-5 -33 -18 -69t-24 -46q-118 24 -260 106t-177 137q7 39 31 73t57 52z" />
    <glyph glyph-name="ygrave" unicode="&#x1ef3;" horiz-adv-x="970" 
d="M196 -478q-115 0 -256 63l42 142q107 -62 180 -62q143 0 185 112l77 223h-48l-357 1038h160l301 -873l301 873h160l-445 -1290q-79 -226 -300 -226zM334 1558q192 -165 391 -253q-5 -33 -18 -69t-24 -46q-117 24 -259 106t-178 137q6 39 30 73t58 52z" />
    <glyph glyph-name="endash" unicode="&#x2013;" horiz-adv-x="1052" 
d="M50 618h952v-144h-952v144z" />
    <glyph glyph-name="emdash" unicode="&#x2014;" horiz-adv-x="1201" 
d="M50 618h1101v-144h-1101v144z" />
    <glyph glyph-name="quoteleft" unicode="&#x2018;" horiz-adv-x="391" 
d="M262 1266q0 -48 44 -109q0 -46 -33 -79t-77 -33t-80 30t-36 102t59 153t129 118l43 -54q-49 -80 -49 -128z" />
    <glyph glyph-name="quoteright" unicode="&#x2019;" horiz-adv-x="391" 
d="M129 1228q0 46 -45 108q0 46 33 79t77 33t80 -30t37 -102t-59 -152t-130 -119l-42 54q49 83 49 129z" />
    <glyph glyph-name="quotesinglbase" unicode="&#x201a;" horiz-adv-x="392" 
d="M130 -16q0 46 -45 108q0 46 33 79t77 33q45 0 81 -30t36 -102t-60 -152t-129 -119l-43 54q50 83 50 129z" />
    <glyph glyph-name="quotedblleft" unicode="&#x201c;" horiz-adv-x="718" 
d="M589 1264q0 -46 45 -107q0 -46 -33 -79t-77 -33t-81 30q-36 30 -36 102t60 153t129 118l42 -54q-49 -84 -49 -130zM262 1266q0 -48 44 -109q0 -46 -33 -79t-77 -33t-80 30t-36 102t59 153t129 118l43 -54q-49 -80 -49 -128z" />
    <glyph glyph-name="quotedblright" unicode="&#x201d;" horiz-adv-x="718" 
d="M456 1228q0 48 -44 108q0 46 33 79t77 33t80 -30t36 -102q0 -70 -59 -151t-129 -120l-43 54q49 81 49 129zM129 1228q0 46 -45 108q0 46 33 79t77 33t80 -30t37 -102t-59 -152t-130 -119l-42 54q49 83 49 129z" />
    <glyph glyph-name="quotedblbase" unicode="&#x201e;" horiz-adv-x="718" 
d="M456 -16q0 48 -44 108q0 46 33 79t77 33t80 -30t36 -102t-59 -153t-129 -118l-43 54q49 81 49 129zM129 -16q0 46 -45 108q0 46 33 79t77 33t81 -30q36 -30 36 -102t-60 -153t-129 -118l-42 54q49 83 49 129z" />
    <glyph glyph-name="dagger" unicode="&#x2020;" horiz-adv-x="890" 
d="M522 804q0 -817 -27 -1072h-112q-25 230 -25 1072h164zM840 884h-790v154h790v-154zM522 1128h-164q0 152 27 320h112q25 -164 25 -320z" />
    <glyph glyph-name="daggerdbl" unicode="&#x2021;" horiz-adv-x="890" 
d="M363 -90h164q0 -156 -25 -320h-112q-27 168 -27 320zM840 0h-790v154h790v-154zM527 839q0 -156 -25 -320q25 -164 25 -320h-164q0 152 27 320q-27 168 -27 320h164zM840 884h-790v154h790v-154zM527 1128h-164q0 152 27 320h112q25 -164 25 -320z" />
    <glyph glyph-name="bullet" unicode="&#x2022;" horiz-adv-x="771" 
d="M80 518q0 124 89 214t215 90t216 -90t91 -214q-1 -124 -91 -214t-216 -90t-215 90t-89 214z" />
    <glyph glyph-name="ellipsis" unicode="&#x2026;" horiz-adv-x="1161" 
d="M854 92q0 48 34 80t79 32q46 0 80 -33t34 -79t-34 -79t-80 -33q-45 0 -79 32t-34 80zM467 92q-1 48 33 80t80 32t80 -33t34 -79t-34 -79t-80 -33t-80 32t-33 80zM80 92q0 48 34 80t79 32q46 0 80 -33t34 -79t-34 -79t-80 -33q-45 0 -79 32t-34 80z" />
    <glyph glyph-name="perthousand" unicode="&#x2030;" horiz-adv-x="2382" 
d="M1976 507q-84 0 -136 -57t-52 -136t51 -135t135 -56t136 57t52 136t-51 135t-135 56zM1232 507q-84 0 -136 -57t-52 -136t51 -135t135 -56t136 57t52 136t-51 135t-135 56zM1978 650q144 0 234 -97t90 -238t-92 -238t-237 -97t-235 96t-90 238t94 238q94 98 236 98z
M1234 650q144 0 234 -97t90 -238t-92 -238t-237 -97t-235 96t-90 238t94 238q94 98 236 98zM432 241l646 924l126 -88l-646 -924zM408 1195q-84 0 -136 -57t-52 -136t51 -135t135 -56t136 57t52 136t-51 135t-135 56zM410 1338q144 0 234 -97t90 -238t-92 -238t-237 -97
t-235 96t-90 238t94 238q94 98 236 98z" />
    <glyph glyph-name="guilsinglleft" unicode="&#x2039;" horiz-adv-x="796" 
d="M544 1449l132 -77l-381 -658l381 -658l-132 -77l-424 735z" />
    <glyph glyph-name="guilsinglright" unicode="&#x203a;" horiz-adv-x="796" 
d="M252 -21l-132 77l380 658l-380 658l132 77l424 -735z" />
    <glyph glyph-name="fraction" unicode="&#x2044;" horiz-adv-x="1012" 
d="M120 241l646 924l126 -88l-646 -924z" />
    <glyph glyph-name="uni2063" unicode="&#x2063;" horiz-adv-x="600" 
 />
    <glyph glyph-name="Euro" unicode="&#x20ac;" horiz-adv-x="1189" 
d="M185 630v63q0 11 2 33h-143l-4 4l52 140h118q58 224 238 346t432 122q151 0 269 -41l-50 -139q-121 35 -235 35q-180 1 -310 -83t-183 -240h634l4 -4l-52 -140h-615q-3 -33 -3 -68v-29q0 -10 2 -28h566l4 -11l-52 -140h-487q52 -154 178 -239t280 -85t302 65l7 -4v-142
q-158 -65 -313 -65q-223 0 -390 125t-225 345h-167l-4 4l52 147h95q-2 18 -2 29z" />
    <glyph glyph-name="trademark" unicode="&#x2122;" horiz-adv-x="1404" 
d="M1294 1337v-659h-120v488l-153 -298h-85l-156 300v-490h-115v659h145l168 -332h2l169 332h145zM45 1337h525v-112h-204v-547h-117v547h-204v112z" />
    <glyph glyph-name="estimated" unicode="&#x212e;" horiz-adv-x="1712" 
d="M410 713h904v338q-110 111 -210 157t-246 47q-146 -3 -244 -49t-204 -155v-338zM410 627v-366q174 -196 460 -196q146 0 254 48t197 155h153v-55q-222 -233 -619 -233q-211 0 -385 84t-277 240t-103 358q0 200 102 356t280 238q176 82 396 83q220 -1 391 -89t267 -250
t96 -373h-1212z" />
    <glyph glyph-name="minus" unicode="&#x2212;" horiz-adv-x="1030" 
d="M910 438h-790v154h790v-154z" />
    <glyph glyph-name="approxequal" unicode="&#x2248;" horiz-adv-x="1033" 
d="M644 253q-60 -1 -94 17t-77 48t-88 31q-43 0 -73 -23t-30 -66v-7q-54 -7 -92 -3t-70 34q12 98 88 160t174 62q60 0 114 -33t82 -48t69 -15q42 0 72 24t30 65v7q111 15 162 -31q-12 -98 -88 -160t-179 -62zM644 561q-60 -1 -94 17t-77 48t-88 31q-43 0 -73 -23t-30 -66v-7
q-52 -7 -91 -3t-71 34q12 98 88 160t174 62q60 0 114 -33t82 -48t69 -15q42 0 72 24t30 65v7q111 15 162 -31q-12 -98 -88 -160t-179 -62z" />
    <glyph glyph-name="notequal" unicode="&#x2260;" horiz-adv-x="1030" 
d="M910 284h-399l-86 -237l-144 53l67 184h-228v154h284l56 154h-340v154h396l75 206l144 -53l-56 -153h231v-154h-287l-56 -154h343v-154z" />
    <glyph glyph-name="lessequal" unicode="&#x2264;" horiz-adv-x="1030" 
d="M910 0h-790v154h790v-154zM766 1058l88 -125l-411 -288l411 -288l-88 -125l-590 413z" />
    <glyph glyph-name="greaterequal" unicode="&#x2265;" horiz-adv-x="1030" 
d="M910 0h-790v154h790v-154zM264 232l-88 125l411 288l-411 288l88 125l590 -413z" />
    <glyph glyph-name="Ncaron.001" horiz-adv-x="600" 
 />
    <glyph glyph-name="Ncaron.002" horiz-adv-x="600" 
 />
    <glyph glyph-name="f.ss01" horiz-adv-x="818" 
d="M202 -450q55 220 55 427v917h-168v144h168v13q0 215 82 306t228 91q108 0 243 -43l-42 -137q-112 38 -190 38t-122 -57t-44 -198v-13h235v-144h-235v-917q0 -206 -47 -435h-154z" />
    <glyph glyph-name="g.ss01" horiz-adv-x="1110" 
d="M592 916q-162 0 -260 -102t-97 -281q-1 -180 79 -295t240 -115t241 113v639q-101 41 -203 41zM176 -230q168 -103 370 -103q104 1 176 61t73 198v145q-117 -91 -267 -91q-200 0 -324 161t-124 393t133 378t390 146q116 0 233 -31l103 31h11v-1132q0 -212 -123 -315
q-104 -89 -295 -89t-398 106z" />
    <glyph glyph-name="g.ss02" horiz-adv-x="1149" 
d="M253 -164q-1 -80 81 -125q82 -44 214 -44q132 -1 210 67q76 68 76 202v135q-74 -54 -124 -69t-170 -23t-181 -28q-106 -35 -106 -115zM632 916q-162 0 -260 -102t-98 -282q0 -181 74 -286q84 -123 244 -123t242 113v639q-101 41 -202 41zM989 1058v-1122
q1 -210 -115 -312t-315 -102t-339 88t-140 222q0 76 52 142t161 105q-81 71 -127 194t-47 262q0 231 133 377t390 146q116 0 233 -31l103 31h11z" />
    <glyph glyph-name="lslash.001" horiz-adv-x="617" 
d="M391 1448v-453l173 63l43 -115l-216 -78v-865h-154v809l-154 -56l-43 115l197 71v489l144 20h10z" />
    <glyph glyph-name="zero.osf" horiz-adv-x="1168" 
d="M237 524q-1 -172 93 -286t258 -114t254 110t89 280q0 170 -91 286q-90 114 -254 114t-256 -109t-93 -281zM1088 520q0 -228 -142 -384t-364 -156t-362 154t-140 382t143 385t364 157t361 -156t140 -382z" />
    <glyph glyph-name="one.osf" horiz-adv-x="636" 
d="M58 944q100 0 164 22t141 72h113v-1038h-154v845q-129 -46 -264 -46v145z" />
    <glyph glyph-name="two.osf" horiz-adv-x="911" 
d="M434 918q-145 0 -292 -90l-8 7l-43 116q166 107 352 107t272 -105q65 -83 65 -204t-72 -243t-180 -216q-106 -94 -214 -140v-6h517v-144h-801v144q348 168 506 360q88 108 89 208q0 100 -56 153t-135 53z" />
    <glyph glyph-name="three.osf" horiz-adv-x="973" 
d="M675 707q1 210 -271 210q-128 0 -272 -85l-8 7l-32 115q80 52 178 78t182 26t169 -30q87 -30 147 -105q60 -74 60 -195q0 -200 -166 -306q242 -87 242 -338q0 -134 -69 -220t-173 -125t-202 -39q-96 0 -216 29t-199 82l32 120l8 7q71 -44 169 -70t178 -26q134 0 226 72
t92 188q0 115 -124 180q-104 55 -270 55h-132v140h156q111 0 203 61t92 169z" />
    <glyph glyph-name="four.osf" horiz-adv-x="970" 
d="M635 143v654l-432 -654h432zM789 1038v-895h152v-143h-152v-300h-154v300h-615v143l593 895h176z" />
    <glyph glyph-name="five.osf" horiz-adv-x="973" 
d="M202 1038h645v-142h-517l-40 -369q168 -1 300 -25t223 -110t91 -257q0 -212 -140 -332q-120 -103 -291 -103q-97 0 -209 28t-194 83l32 120l8 7q66 -44 166 -70t177 -26q133 0 215 84t81 216q1 132 -113 188t-363 56h-140l69 625v27z" />
    <glyph glyph-name="six.osf" horiz-adv-x="968" 
d="M228 458q0 -158 79 -246t192 -87q113 -1 175 83t61 199q0 115 -71 185q-72 70 -174 70t-257 -100q-5 -47 -5 -104zM834 1194q-329 0 -489 -263q-57 -93 -87 -217q120 93 268 93q148 -1 256 -113t107 -270q-1 -94 -41 -196t-132 -176q-92 -72 -239 -72q-199 0 -302 142
q-95 126 -95 342t78 417t247 329t429 128v-144z" />
    <glyph glyph-name="seven.osf" horiz-adv-x="838" 
d="M50 1038h768l-532 -1318h-154l473 1174h-555v144z" />
    <glyph glyph-name="eight.osf" horiz-adv-x="988" 
d="M214 333q0 -97 82 -153t198 -56q114 0 198 56t83 152q0 96 -88 167q-50 41 -193 109q-145 -71 -194 -110q-86 -69 -86 -165zM715 1005q1 89 -65 139t-156 50t-155 -50t-65 -139t58 -145t162 -102q108 47 164 103t57 144zM870 1001q0 -107 -54 -181t-159 -132
q123 -57 197 -138t75 -211q0 -171 -129 -265q-128 -94 -306 -94t-306 95t-128 264q0 132 89 228q65 68 183 121q-103 58 -158 132t-55 181q-1 157 109 247t264 90t266 -89t112 -248z" />
    <glyph glyph-name="nine.osf" horiz-adv-x="968" 
d="M741 580q-1 158 -79 246t-192 87q-114 1 -174 -83q-62 -84 -62 -200t70 -184q70 -70 176 -70q105 0 256 100q5 56 5 104zM135 -156q332 0 489 263q57 94 87 216q-119 -92 -267 -92t-256 113t-108 270q0 92 41 196t133 176t238 72q198 0 298 -135t99 -350q0 -215 -78 -416
t-247 -329t-429 -128v144z" />
    <glyph glyph-name="zero.tf" horiz-adv-x="1192" 
d="M593 1194q-318 0 -318 -535t318 -535q164 0 244 122t80 410q-1 288 -83 414q-82 124 -241 124zM592 -20q-170 0 -276 102q-196 187 -196 581q0 327 128 501t345 174q219 0 349 -177t128 -513t-130 -502t-348 -166z" />
    <glyph glyph-name="one.tf" horiz-adv-x="658" 
d="M120 1224q100 0 164 22t141 72h113v-1318h-154v1125q-129 -46 -264 -46v145z" />
    <glyph glyph-name="two.tf" horiz-adv-x="1138" 
d="M826 949q0 113 -80 179t-218 65q-139 0 -278 -83l-9 7l-42 115q69 46 176 76t203 30q164 0 276 -96t113 -288q0 -192 -157 -387t-466 -423h674v-144h-898v144q706 498 706 805z" />
    <glyph glyph-name="three.tf" horiz-adv-x="1099" 
d="M750 987q0 210 -272 210q-128 0 -271 -85l-8 7l-32 115q81 52 179 78t180 26q84 0 170 -30t146 -105q60 -74 61 -195q0 -200 -166 -306q242 -87 242 -338q0 -134 -69 -220q-70 -86 -174 -125t-200 -39t-216 29t-200 82l32 120l8 7q71 -44 169 -70t178 -26q135 0 227 72
t91 188q0 115 -124 180q-104 55 -270 55h-132v140h156q111 0 203 61t92 169z" />
    <glyph glyph-name="four.tf" horiz-adv-x="1161" 
d="M735 443v634l-432 -634h432zM889 1318v-875h152v-143h-152v-300h-154v300h-615v143l593 875h176z" />
    <glyph glyph-name="five.tf" horiz-adv-x="1074" 
d="M252 1318h645v-142h-517l-40 -369q168 -1 300 -25t223 -110t91 -257q0 -212 -140 -332q-120 -103 -291 -103q-97 0 -209 28t-194 83l32 120l8 7q66 -44 166 -70t177 -26q133 0 215 84t81 216q1 132 -113 188t-363 56h-140l69 625v27z" />
    <glyph glyph-name="six.tf" horiz-adv-x="1049" 
d="M268 458q0 -158 79 -246t192 -87q113 -1 175 83t61 199q0 115 -71 185q-72 70 -174 70t-257 -100q-5 -47 -5 -104zM874 1194q-329 0 -489 -263q-57 -93 -87 -217q120 93 268 93q148 -1 256 -113t107 -270q-1 -94 -41 -196t-132 -176q-92 -72 -239 -72q-199 0 -302 142
q-95 126 -95 342t78 417t247 329t429 128v-144z" />
    <glyph glyph-name="seven.tf" horiz-adv-x="1008" 
d="M120 1318h768l-532 -1318h-154l473 1174h-555v144z" />
    <glyph glyph-name="eight.tf" horiz-adv-x="1109" 
d="M274 333q0 -97 82 -153t198 -56q114 0 198 56t83 152q0 96 -88 167q-50 41 -193 109q-145 -71 -194 -110q-86 -69 -86 -165zM775 1005q1 89 -65 139t-156 50t-155 -50t-65 -139t58 -145t162 -102q108 47 164 103t57 144zM930 1001q0 -107 -54 -181t-159 -132
q123 -57 197 -138t75 -211q0 -171 -129 -265t-306 -94q-178 0 -306 95t-128 264q0 132 89 228q65 68 183 121q-103 58 -158 132t-55 181q-1 157 109 247t264 90t266 -89t112 -248z" />
    <glyph glyph-name="nine.tf" horiz-adv-x="1049" 
d="M781 860q-1 158 -79 246t-192 87q-114 1 -174 -83q-62 -84 -62 -200t70 -184q70 -70 176 -70q105 0 256 100q5 56 5 104zM175 124q332 0 489 263q57 94 87 216q-119 -92 -267 -92t-256 113t-108 270q0 92 41 196t133 176t238 72q198 0 298 -135t99 -350q0 -215 -78 -416
t-247 -329t-429 -128v144z" />
    <glyph glyph-name="zero.tosf" horiz-adv-x="1248" 
d="M277 524q-1 -172 93 -286t258 -114t254 110t89 280q0 170 -91 286q-90 114 -254 114t-256 -109t-93 -281zM1128 520q0 -228 -142 -384t-364 -156t-362 154t-140 382t143 385t364 157t361 -156t140 -382z" />
    <glyph glyph-name="one.tosf" horiz-adv-x="658" 
d="M120 944q100 0 164 22t141 72h113v-1038h-154v845q-129 -46 -264 -46v145z" />
    <glyph glyph-name="two.tosf" horiz-adv-x="1041" 
d="M524 918q-145 0 -292 -90l-8 7l-43 116q166 107 352 107t272 -105q65 -83 65 -204t-72 -243t-180 -216q-106 -94 -214 -140v-6h517v-144h-801v144q348 168 506 360q88 108 89 208q0 100 -56 153t-135 53z" />
    <glyph glyph-name="three.tosf" horiz-adv-x="1099" 
d="M750 707q0 210 -272 210q-128 0 -271 -85l-8 7l-32 115q81 52 179 78t180 26q84 0 170 -30t146 -105q60 -74 61 -195q0 -200 -166 -306q242 -87 242 -338q0 -134 -69 -220q-70 -86 -174 -125t-200 -39t-216 29t-200 82l32 120l8 7q71 -44 169 -70t178 -26q135 0 227 72
t91 188q0 115 -124 180q-104 55 -270 55h-132v140h156q111 0 203 61t92 169z" />
    <glyph glyph-name="four.tosf" horiz-adv-x="1161" 
d="M735 143v654l-432 -654h432zM889 1038v-895h152v-143h-152v-300h-154v300h-615v143l593 895h176z" />
    <glyph glyph-name="five.tosf" horiz-adv-x="1074" 
d="M252 1038h645v-142h-517l-40 -369q168 -1 300 -25t223 -110t91 -257q0 -212 -140 -332q-120 -103 -291 -103q-97 0 -209 28t-194 83l32 120l8 7q66 -44 166 -70t177 -26q133 0 215 84t81 216q1 132 -113 188t-363 56h-140l69 625v27z" />
    <glyph glyph-name="six.tosf" horiz-adv-x="1049" 
d="M268 458q0 -158 79 -246t192 -87q113 -1 175 83t61 199q0 115 -71 185q-72 70 -174 70t-257 -100q-5 -47 -5 -104zM874 1194q-329 0 -489 -263q-57 -93 -87 -217q120 93 268 93q148 -1 256 -113t107 -270q-1 -94 -41 -196t-132 -176q-92 -72 -239 -72q-199 0 -302 142
q-95 126 -95 342t78 417t247 329t429 128v-144z" />
    <glyph glyph-name="seven.tosf" horiz-adv-x="1008" 
d="M120 1038h768l-532 -1318h-154l473 1174h-555v144z" />
    <glyph glyph-name="eight.tosf" horiz-adv-x="1109" 
d="M274 333q0 -97 82 -153t198 -56q114 0 198 56t83 152q0 96 -88 167q-50 41 -193 109q-145 -71 -194 -110q-86 -69 -86 -165zM775 1005q1 89 -65 139t-156 50t-155 -50t-65 -139t58 -145t162 -102q108 47 164 103t57 144zM930 1001q0 -107 -54 -181t-159 -132
q123 -57 197 -138t75 -211q0 -171 -129 -265t-306 -94q-178 0 -306 95t-128 264q0 132 89 228q65 68 183 121q-103 58 -158 132t-55 181q-1 157 109 247t264 90t266 -89t112 -248z" />
    <glyph glyph-name="nine.tosf" horiz-adv-x="1049" 
d="M781 580q-1 158 -79 246t-192 87q-114 1 -174 -83q-62 -84 -62 -200t70 -184q70 -70 176 -70q105 0 256 100q5 56 5 104zM175 -156q332 0 489 263q57 94 87 216q-119 -92 -267 -92t-256 113t-108 270q0 92 41 196t133 176t238 72q198 0 298 -135t99 -350q0 -215 -78 -416
t-247 -329t-429 -128v144z" />
    <glyph glyph-name="null" horiz-adv-x="600" 
 />
    </font>
</defs>
</svg>
