<?xml version="1.0" standalone="no"?>
<!DOCTYPE svg PUBLIC "-//W3C//DTD SVG 1.1//EN" "http://www.w3.org/Graphics/SVG/1.1/DTD/svg11.dtd" >
<svg xmlns="http://www.w3.org/2000/svg">
<metadata>
Created by FontPrep 20130207 at Fri Jun 20 09:23:31 2014
 By Jo De Baerdemaeker
Copyright (c) 2014 by Jo De Baerdemaeker. All rights reserved.
</metadata>
<defs>
<font id="7ebdc43021fbf6b8f40b21819190e2b4" horiz-adv-x='1024' >
  <font-face 
    font-family="FlandersArtSans-Medium"
    font-weight="500"
    font-stretch="normal"
    units-per-em="2048"
    panose-1="0 0 6 0 0 0 0 0 0 0"
    ascent="1536"
    descent="-512"
    x-height="1038"
    cap-height="1318"
    bbox="-270 -660 5529 1950"
    underline-thickness="50"
    underline-position="-130"
    unicode-range="U+000D-FB02"
  />
<missing-glyph horiz-adv-x="600" 
 />
    <glyph glyph-name="fi" unicode="fi" horiz-adv-x="1082" 
d="M40 1038h130v4q0 212 119 318q101 88 285 88q183 0 408 -99l-66 -217q-126 51 -194 71t-142 20q-74 -1 -118 -35t-55 -150h553v-1038h-234v813h-322v-813h-234v813h-130v225z" />
    <glyph glyph-name="fl" unicode="fl" horiz-adv-x="1121" 
d="M40 1038h130v4q0 210 119 316q100 90 267 90q88 0 201 -20l204 20h30v-1448h-234v1201q-89 22 -181 22q-92 1 -129 -45t-42 -140h215v-225h-216v-813h-234v813h-130v225z" />
    <glyph glyph-name="f_f_i" unicode="ffi" horiz-adv-x="1638" 
d="M726 1038v4q0 86 18 150q-105 31 -177 31q-71 0 -111 -44t-49 -141h319zM547 1448q158 0 336 -60q95 60 212 60q218 0 443 -99l-66 -217q-126 51 -194 71t-142 20q-74 -1 -118 -35t-55 -150h553v-1038h-234v813h-322v-813h-234v813h-322v-813h-234v813h-130v225h130v4
q0 210 119 316q100 90 258 90z" />
    <glyph glyph-name="f_f_l" unicode="ffl" horiz-adv-x="1737" 
d="M786 1038v4q0 69 14 133q-147 48 -226 48q-78 0 -118 -44t-49 -141h379zM546 1448q156 0 378 -74q98 74 248 74q88 0 201 -20l204 20h30v-1448h-234v1201q-89 22 -181 22q-92 1 -129 -45t-42 -140h215v-225h-216v-813h-234v813h-382v-813h-234v813h-130v225h130v4
q0 210 119 316q101 90 257 90z" />
    <glyph glyph-name="LOGOFL" unicode="fl&#x2a;" horiz-adv-x="5545" 
d="M2451 -77q72 0 72 64v22q-65 0 -84 -5q-31 -6 -31 -34t15 -38t28 -9zM4458 49q0 75 -54 75q-57 0 -71 -75h125zM3253 26q0 -41 22 -74q24 -29 62 -29t61 28q19 28 19 72q0 45 -21 73q-20 28 -60 28t-62 -28t-21 -70zM2933 124q-61 0 -72 -75h125q-4 40 -13 54
q-9 21 -40 21zM5004 -108v265h27l9 -31q30 36 60 36t48 -9l-12 -35q-20 6 -44 6t-49 -34v-198h-39zM4292 22q0 140 114 140q91 0 91 -113v-36h-166q3 -45 29 -67t57 -23q32 0 72 20l1 -1v-36q-38 -19 -83 -19q-45 -1 -80 35t-35 100zM3214 24q0 56 36 97t88 41t84 -40
q34 -40 34 -100t-34 -97q-34 -38 -86 -38t-88 40q-34 41 -34 97zM2934 162q91 0 91 -113v-36h-166q3 -44 29 -67t58 -23q34 0 71 20l1 -1v-36q-38 -19 -83 -19q-45 -1 -80 35t-35 102t29 102t85 36zM2536 -76q-24 -37 -84 -37q-28 0 -54 15q-30 26 -30 68q0 75 102 75l53 -2
v31q0 50 -50 50q-40 0 -80 -18l-9 34q44 22 97 22q81 0 81 -88v-84q0 -53 36 -66l-22 -37q-25 8 -40 37zM4814 185l-61 -178h123zM5237 -10q0 -67 49 -67q20 0 48 15l11 -36q-37 -15 -69 -15t-56 25q-23 25 -23 78v130h-29v37h29v47l39 6h1v-53h74v-37h-74v-130zM3875 -10
q0 -67 47 -67q20 0 50 15l11 -36q-37 -15 -68 -15t-56 23q-23 24 -23 80v130h-30v37h30v47l36 6h3v-53h72v-37h-72v-130zM2731 -113q-83 0 -83 103v130h-28v37h28v47l38 6h3v-53h73v-37h-73v-130q0 -67 48 -67q19 0 49 15l11 -36q-37 -15 -66 -15zM2237 -10q0 -67 49 -67
q20 0 48 15l11 -36q-37 -15 -69 -15t-55 24t-23 79v130h-28v37h28v47l38 6h1v-53h74v-37h-74v-130zM4915 -108l-26 78h-149l-26 -78h-41l116 336h51l118 -336h-43zM2043 196q-57 0 -57 -49q0 -27 12 -36t42 -26q65 -26 80 -48q14 -21 14 -61t-37 -64q-33 -25 -75 -25t-75 14
v36l34 -10l41 -4q76 0 76 56q0 31 -30 47q-7 5 -44 25t-57 35q-19 15 -19 59q0 43 28 65t71 22q42 0 65 -8v-34q-51 6 -69 6zM4233 62v-170h-40v168q0 64 -59 64q-22 0 -43 -10t-26 -13v-209h-39v364l36 6h3v-127q86 56 141 3q27 -24 27 -76zM3531 157q0 105 80 105
q26 0 62 -13l-12 -34q-27 9 -48 9q-43 0 -43 -67h61v-37h-61v-228h-39v228h-42v37h42zM570 638q79 -79 23 -321q-37 -155 11 -282q18 -48 53 -85q73 -79 92 -129t10 -69q-19 25 -83 70q-64 44 -99 76q-69 62 -96 178q-27 115 35 293t56 247zM2698 582q31 0 47 13
q31 16 31 61v26h-28q-51 0 -73 -6q-36 -9 -36 -41q0 -53 59 -53zM4090 849q-32 1 -59 -23q-26 -24 -30 -64h169q-4 45 -26 66t-54 21zM3644 853q-40 -1 -74 -35q-33 -34 -33 -91t27 -95t74 -37q47 0 88 25v223q-42 10 -82 10zM542 893q35 -123 -25 -212q-106 -147 -120 -269
q-8 -58 -2 -118q15 -153 -34 -198q-9 -4 -11 -4q-5 6 -1 14q3 8 1 44q-2 35 -22 84q-47 114 -28 226q23 110 101 208q33 42 62 76q75 90 79 149zM4808 854q-68 0 -68 -39q0 -18 28 -31q7 -5 29 -11l25 -9q25 -10 37 -18q56 -30 56 -101q1 -71 -45 -106t-115 -35t-110 28v88
l3 3q62 -28 105 -28q70 0 70 48q0 34 -58 54t-64 23q-56 26 -56 91q-1 63 43 97t96 34t102 -18v-86l-7 -1q-41 17 -71 17zM4512 849q-38 0 -83 -31v-308h-93v422h79l10 -34q51 44 101 44t91 -18l-30 -96q-37 21 -75 21zM3898 722q0 102 58 160q58 60 133 60q88 0 137 -70
q32 -46 32 -123v-62h-257q23 -92 125 -92q58 0 105 26l5 -1v-92q-57 -24 -135 -24q-79 0 -141 58t-62 160zM3210 942q64 0 108 -36q46 -43 46 -114v-282h-94v252q0 42 -30 69q-26 18 -70 18t-87 -26v-313h-96v422h81l10 -33q68 43 132 43zM2543 641q0 113 130 113
q67 0 103 -3v22q0 80 -81 80q-52 0 -112 -30l-24 83q74 36 147 36q72 0 118 -34t46 -107v-155q0 -28 17 -45q15 -10 46 -19l-44 -78q-54 0 -94 42q-39 -26 -55 -34t-53 -8q-144 0 -144 137zM868 954q0 14 17 14t20 4q3 2 5 10t-2 10q-15 3 -28 3t-33 -27q-3 -2 -9 -2t-5 -3
q-7 -27 12 -43t43 -17q24 0 38 13t13 40h-2l-56 -16q-13 0 -13 14zM846 1017q54 1 94 -25q60 -39 60 -133q0 -56 -11 -56q-17 0 -23 19t7 29q-8 20 -52 26q-45 5 -65 11q-41 11 -71 64q-29 52 -45 52q52 13 106 13zM2311 954h-236v-131h226v-92h-226v-221h-94v536h330v-92z
M517 1059q37 -82 -125 -214q-97 -81 -115 -145q-18 -65 -2 -101q-59 29 -73 96q-19 86 88 174q106 89 148 142t37 67l-5 14zM3820 510h-72l-17 33q-49 -39 -125 -39t-122 59t-45 157q0 98 63 160t162 62q24 0 62 -5v155l80 6h14v-588zM2464 510h-96v582l83 6h13v-588z
M1183 -182v-120q-99 0 -193 78t-112 130q-14 28 -14 58t-4 72q-4 40 -4 68q-2 28 -20 68q-18 42 -46 88t-34 60t-18 48t-24 64q-12 31 -64 305q-53 274 -84 360l-8 23h1q33 0 78 -120t55 -162q10 -40 30 -121t50 -222q10 -40 51 -116q41 -75 51 -127t69 -93q23 -16 63 -16
t84 30t52 67q7 20 3 38q-8 59 -52 79q-18 6 -60 28q-13 9 -31 32q-47 62 -12 84q2 2 10 2q8 1 32 -19t38 -22h2l32 8q22 9 36 9t43 -19v-382q-13 0 -55 8t-75 9l-22 -2q-111 -9 -137 -167q-2 -16 0 -19q2 -4 41 -25q39 -20 111 -42t137 -22zM439 1263q29 -71 -14 -139
q-17 -26 -47 -46q-76 -46 -119 -127q-25 119 37 181q35 35 62 52q74 45 81 79zM1890 -615l-7 -4l-735 2114l10 4z" />
    <glyph glyph-name="LOGOVL" unicode="vl&#x2a;" horiz-adv-x="5729" 
d="M4039 -60q0 35 -85 35h-25q-18 -23 -18 -46q0 -46 53 -46q31 1 53 17t22 40zM4696 88q0 63 -45 63q-21 -1 -37 -17t-22 -46h104zM3087 151q-23 1 -40 -17t-21 -46h105q-5 36 -13 50t-31 13zM2929 88q0 63 -43 63q-23 0 -41 -18q-16 -20 -19 -45h103zM2725 69q0 82 -68 82
q-33 0 -53 -24v-137q27 -8 52 -8t47 24t22 63zM2320 88q0 63 -42 63q-47 0 -63 -63h105zM4014 106q0 20 -14 33t-36 13t-36 -14t-14 -32t13 -32t39 -14t35 14q13 12 13 32zM3326 68q0 -86 66 -86q34 0 53 25v136q-37 9 -57 9t-41 -22t-21 -62zM4504 177h30l-69 -220h-40
l-49 167l-50 -167h-40l-71 220h33l58 -184l55 184h29l55 -184zM3551 -43v220h33v-220h-33zM2126 177h35l-77 -220h-44l-76 220h34l63 -186zM4787 -43v220h22l8 -25q25 28 51 28t39 -8l-11 -28q-24 8 -31 8q-27 0 -45 -31v-164h-33zM4653 180q76 0 76 -92v-30h-139
q3 -35 24 -56q22 -20 50 -20t59 17v-31q-33 -16 -71 -16t-66 32t-29 85q0 111 96 111zM3750 152q-16 0 -58 -22v-173h-33v220h22l6 -20q46 23 74 23t46 -19q24 -17 24 -64v-140h-33v139q0 56 -48 56zM2992 69q0 111 95 111q58 0 70 -50q4 -12 4 -42v-30h-136q1 -32 23 -56
q23 -20 50 -20t59 17v-31q-33 -16 -71 -16t-65 28q-29 36 -29 89zM2886 180q76 0 76 -92v-30h-137q1 -32 23 -54t50 -22t58 17h1v-31q-33 -16 -71 -16t-66 30t-28 87q0 111 94 111zM2412 -43v220h22l8 -25q22 28 53 28t36 -8l-11 -28q-21 8 -39 8t-36 -31v-164h-33zM2184 68
q0 112 86 112q40 0 54 -11q29 -23 29 -81v-30h-138q3 -36 25 -56t50 -20t58 17v-31q-32 -16 -70 -16t-66 28q-28 35 -28 88zM3884 104q0 34 22 56q24 20 54 20t47 -9q2 1 30 17q15 5 28 5l8 -27q-13 -1 -41 -15q13 -17 13 -45q-1 -28 -23 -52q-22 -22 -54 -22t-45 8
q-8 -7 -8 -18q0 -20 27 -20h42q87 0 87 -61q0 -34 -35 -61q-38 -26 -75 -26t-61 21q-22 23 -22 53t26 52l-14 17l-4 19q0 17 17 39q-19 15 -19 49zM5221 -48q-68 0 -68 86v108h-22v31h22v39l31 6h5v-45h59v-31h-59v-108q0 -56 39 -56q17 0 40 15l10 -31q-33 -14 -57 -14z
M3567 215q-21 1 -21 23t21 22q13 0 17 -8q8 -4 8 -14t-8 -16q-4 -7 -17 -7zM4981 69v-112h-33v301l31 5h2v-191l87 105h43l-91 -106q1 -8 33 -44t62 -47l-14 -28q-29 5 -75 55q-26 33 -29 37t-5 8q-2 2 -5 8q-6 6 -6 9zM3478 263v-306h-22l-5 20q-34 -25 -69 -25t-64 36
q-26 38 -26 86t29 73q27 33 83 33q20 0 41 -3v83l31 3h2zM3209 -43v303l31 3h2v-306h-33zM2604 263v-102q30 19 66 19t61 -33q26 -25 26 -79t-26 -80q-29 -36 -77 -36t-83 16v292l32 3h1zM575 649q52 -52 45 -192q-2 -61 -22 -141t-14 -155q11 -135 82 -212t91 -128t10 -69
q-19 24 -83 70q-65 46 -101 78q-69 60 -97 177t34 300q62 182 56 249zM3107 676q-71 0 -93 -7q-35 -5 -35 -37q0 -22 16 -36t42 -14t48 15t22 55v24zM2654 582q71 0 71 70v24q-71 0 -93 -7q-34 -5 -34 -37q0 -22 16 -36t40 -14zM5040 749q-12 81 -73 81q-29 0 -54 -22
t-29 -59h156zM4318 830q-67 0 -84 -81h156q-2 37 -22 59t-50 22zM3921 832q-112 0 -112 -121q0 -45 24 -81q25 -36 67 -36t81 25v205q-27 8 -60 8zM545 905q38 -123 -25 -214q-105 -154 -120 -270q-7 -46 -3 -141q5 -96 -3 -130t-30 -51q-11 -7 -13 -5t0 11q11 55 -10 104
q-30 72 -41 127q-23 118 56 275q16 27 65 87q121 146 124 207zM5384 913q145 0 145 -137v-257h-86v230q0 81 -89 81q-45 0 -84 -25v-286h-88v386h74l9 -29q53 37 119 37zM4790 712q0 94 50 148t125 53q79 -1 125 -61q30 -38 30 -114v-59h-236q9 -44 45 -64q29 -21 74 -21
t93 25h4v-86q-56 -22 -127 -22t-127 53q-56 54 -56 148zM4698 829q-37 0 -77 -27v-283h-87v386h73l10 -29q45 37 85 37q60 0 91 -14l-28 -89q-30 19 -67 19zM4236 679q20 -85 118 -85q42 0 94 25h3v-86q-55 -22 -125 -22t-128 53t-58 148t52 148t123 53q35 0 67 -11t61 -51
q28 -40 28 -113v-59h-235zM3564 749q0 81 -94 81q-42 0 -78 -25v-286h-89v386h73l10 -29q52 37 119 37q146 0 146 -137v-257h-87v230zM2893 636q0 107 121 107q59 0 93 -3v18q0 74 -76 74q-57 0 -102 -27l-22 75q68 35 135 35q151 0 151 -129v-145q0 -48 58 -58l-39 -72
q-54 0 -87 41q-39 -26 -56 -34t-49 -7q-78 0 -105 46q-22 25 -22 79zM2728 758q0 74 -89 74q-44 0 -91 -27l-22 75q68 35 135 35t109 -31t42 -98v-145q0 -48 58 -58l-41 -72q-51 0 -86 41q-55 -41 -104 -41q-127 0 -127 122q0 110 121 110q59 0 95 -3v18zM848 980
q-4 0 -6 -3q-12 -35 24 -53t60 -2q24 15 20 47q-6 1 -16 -3q-25 -9 -38 -12q-14 -3 -16 15q0 13 18 13t21 3q1 2 3 11t-1 11q-26 9 -37 0t-17 -16l-9 -9t-6 -2zM2200 1010h92l-172 -499h-102l-173 499h94l129 -380zM746 1019q148 36 220 -28q50 -45 46 -127q-2 -28 -9 -48
q-19 -6 -27 16t10 31q-10 21 -56 27t-66 12q-41 12 -71 64q-30 51 -47 53zM4070 1058v-539h-67l-16 28q-44 -36 -114 -36q-71 -1 -113 53t-42 146t58 151q56 52 149 52q37 0 56 -3v142l75 6h14zM2353 519v533l75 6h11v-539h-86zM268 656q0 -31 7 -45q-89 55 -71 147
q12 62 99 133q5 4 9 8q169 144 165 198l-4 10h8q25 0 39 -31q47 -76 -125 -219q-127 -104 -127 -201zM1195 80q-11 0 -61 10t-91 6q-109 -4 -137 -148q-6 -32 -4 -39q2 -6 42 -27t112 -42t139 -21v-120q-52 0 -108 25t-121 82t-78 93t-14 74t-6 100q-6 62 -24 104
q-18 41 -46 87t-34 60t-17 46q-12 34 -20 54t-21 79q-14 59 -24 115q-73 388 -110 495l-8 23q4 0 10 -2t47 -68t69 -182q28 -117 44 -181t28 -119q11 -55 19 -89q8 -33 50 -109q41 -76 53 -131t66 -90t123 -3q70 32 83 84q10 87 -53 117l-20 10q-49 23 -72 53q-47 62 -10 82
q13 6 39 -16t39 -22q14 -1 48 12t68 -14v-388zM261 966q-37 142 83 224l57 36q35 26 41 56q39 -127 -61 -188q-80 -52 -120 -128zM1964 -656l-11 -4l-763 2242l11 4z" />
    <glyph glyph-name="leeuw" unicode="vll&#x2a;" horiz-adv-x="1595" 
d="M674 664q52 -51 46 -191q-2 -61 -22 -142t-14 -155q12 -133 83 -211t90 -129t10 -69q-26 33 -77 66q-50 33 -82 60t-58 57q-56 64 -70 175q-14 112 44 282t52 235zM454 153q0 13 -3 34t-16 54q-21 51 -33 105q-28 129 54 281q16 28 65 87q121 146 124 207
q41 -122 -25 -214q-105 -156 -121 -272q-6 -44 -2 -140q5 -95 -4 -129t-25 -46t-17 -10q-2 2 0 16q3 14 3 27zM948 996q-4 0 -6 -3q-11 -35 25 -53q37 -18 61 -3t19 47q-6 1 -25 -5q-18 -7 -26 -9q-17 -4 -19 14q0 13 18 14q19 2 21 4t3 10q3 20 -33 12q-11 -5 -22 -16
q-12 -12 -16 -12zM847 1034q142 28 198 -11q75 -52 66 -153q-2 -23 -8 -39q-18 -5 -27 17t9 30q-10 23 -55 28q-46 4 -66 10q-43 12 -71 64q-30 52 -46 54zM368 672q0 -32 7 -46q-89 54 -71 147q13 62 99 133l9 8q169 144 166 199l-4 10l8 -1q24 0 38 -32q45 -77 -126 -217
q-126 -105 -126 -201zM1295 95q-11 -1 -61 9t-91 7q-119 -5 -140 -167q-2 -16 0 -20q1 -4 41 -26q40 -20 112 -42t139 -22v-121q-69 0 -141 43t-114 90q-42 48 -54 76q-11 28 -12 61t-6 100q-6 67 -24 109t-46 88t-34 60t-18 48t-20 52q-19 47 -71 324q-53 278 -83 365
l-9 23q3 0 9 -2t32 -41q59 -94 102 -270q6 -35 26 -111t31 -132q11 -54 19 -86t49 -109q42 -76 53 -130t65 -90t124 -4q93 43 85 121q-9 58 -55 80l-23 11q-47 23 -68 51q-48 63 -11 83q12 7 39 -15q26 -22 38 -23q15 -1 48 12q32 13 69 -14v-388zM361 981q-23 99 19 158
q28 38 45 52q32 25 49 33q61 33 67 74q29 -79 -13 -143q-18 -26 -48 -45q-81 -54 -119 -129z" />
    <glyph glyph-name=".notdef" horiz-adv-x="600" 
 />
    <glyph glyph-name=".null" horiz-adv-x="0" 
 />
    <glyph glyph-name="nonmarkingreturn" horiz-adv-x="682" 
 />
    <glyph glyph-name="CR" unicode="&#xd;" horiz-adv-x="0" 
 />
    <glyph glyph-name="space" unicode=" " horiz-adv-x="550" 
 />
    <glyph glyph-name="exclam" unicode="!" horiz-adv-x="437" 
d="M218 -20q-58 0 -98 39t-40 97t40 98t98 40t99 -41q40 -41 40 -97t-40 -96q-41 -40 -99 -40zM97 1428h244q-1 -287 -11 -608t-17 -379h-189q-14 112 -20 521q-7 408 -7 466z" />
    <glyph glyph-name="quotedbl" unicode="&#x22;" horiz-adv-x="855" 
d="M553 1180q0 55 -53 132q0 56 40 96t94 40t98 -38t43 -124t-73 -184t-157 -145l-52 65q60 103 60 158zM140 1180q0 55 -53 132q0 56 40 96t94 40q53 0 97 -38t44 -124t-72 -184t-158 -145l-52 65q60 103 60 158z" />
    <glyph glyph-name="numbersign" unicode="#" horiz-adv-x="1313" 
d="M547 582h199l49 183h-199zM125 774l76 206h203l89 330l9 5l220 -80l-69 -255h200l89 330l9 5l220 -80l-69 -255h123l8 -8l-77 -207h-111l-49 -183h184l8 -8l-77 -207h-173l-88 -331l-10 -4l-220 80l68 255h-199l-88 -331l-10 -4l-220 80l68 255h-150l-9 9l76 206h141
l49 183h-212z" />
    <glyph glyph-name="dollar" unicode="$" horiz-adv-x="964" 
d="M71 259q144 -59 335 -59q108 0 192 48t85 118q0 70 -64 120t-167 93q-10 3 -97 37t-171 92t-122 159q-22 53 -22 120q0 129 82 211t217 116v134h234v-111q105 -4 203 -30v-211q-103 22 -236 22t-196 -28t-63 -94q1 -66 67 -116q66 -51 167 -93q19 -9 103 -41t164 -91
q80 -58 122 -160q20 -54 20 -116q0 -139 -100 -235t-251 -136v-157h-234v129q-147 5 -271 58v220z" />
    <glyph glyph-name="percent" unicode="%" horiz-adv-x="1707" 
d="M1157 314q0 -50 33 -86q32 -36 86 -36t88 36t33 88q0 50 -33 86q-32 36 -86 36t-88 -36t-33 -88zM1280 650q144 0 234 -97t90 -238t-92 -238t-237 -97t-235 96t-90 238t94 238q94 98 236 98zM287 1002q0 -50 33 -86q32 -36 86 -36t88 36t33 88q0 50 -33 86q-32 36 -86 36
t-88 -36t-33 -88zM411 255l686 979l192 -135l-686 -977zM410 1338q144 0 234 -97t90 -238t-92 -238t-237 -97t-235 96t-90 238t94 238q94 98 236 98z" />
    <glyph glyph-name="ampersand" unicode="&#x26;" horiz-adv-x="1205" 
d="M290 367q0 -79 52 -127t143 -48q129 0 213 97l-279 278q-129 -78 -129 -200zM457 846q163 64 163 173t-139 109q-58 0 -81 -34t-23 -76q0 -77 80 -172zM835 1050q0 -239 -232 -358l223 -224q54 127 81 292h8l188 -84q-35 -209 -113 -362l180 -180l-160 -154l-152 151
q-153 -151 -374 -151q-184 0 -302 104t-117 281q0 231 201 370q-42 49 -74 123t-32 161q0 139 86 229t231 90q144 0 251 -76t107 -212z" />
    <glyph glyph-name="quotesingle" unicode="'" horiz-adv-x="442" 
d="M140 1181q0 55 -53 132q0 56 40 96q41 40 95 40q54 1 97 -37t43 -124t-72 -185q-72 -98 -158 -145l-52 65q60 103 60 158z" />
    <glyph glyph-name="parenleft" unicode="(" horiz-adv-x="594" 
d="M100 684q0 388 215 764h4l175 -98q-161 -330 -161 -662t161 -607l-178 -101h-4q-212 316 -212 704z" />
    <glyph glyph-name="parenright" unicode=")" horiz-adv-x="594" 
d="M261 688q0 332 -161 662l175 98h4q215 -376 215 -764t-212 -704h-4l-178 101q161 275 161 607z" />
    <glyph glyph-name="asterisk" unicode="*" horiz-adv-x="967" 
d="M400 517l83 -54l84 54v90l-84 54l-83 -54v-90zM887 445q-102 0 -209 12q77 -96 123 -170l-196 -127q-67 103 -122 217q-58 -120 -121 -217l-196 127q50 79 122 170q-107 -12 -208 -12v234q110 0 209 -11q-80 100 -123 169l196 127q64 -99 121 -215q53 109 122 215
l196 -127q-43 -69 -123 -169q98 11 209 11v-234z" />
    <glyph glyph-name="plus" unicode="+" horiz-adv-x="1011" 
d="M80 630h318v318h215v-318h318v-215h-318v-318h-215v318h-318v215z" />
    <glyph glyph-name="comma" unicode="," horiz-adv-x="442" 
d="M140 -14q0 55 -53 132q0 56 40 96t94 40q53 0 97 -38t44 -124t-72 -184t-158 -145l-52 65q60 103 60 158z" />
    <glyph glyph-name="hyphen" unicode="-" horiz-adv-x="855" 
d="M80 630h695v-215h-695v215z" />
    <glyph glyph-name="period" unicode="." horiz-adv-x="437" 
d="M218 -20q-58 0 -98 39t-40 97t40 98t98 40t99 -41q40 -41 40 -97t-40 -96q-41 -40 -99 -40z" />
    <glyph glyph-name="slash" unicode="/" horiz-adv-x="1048" 
d="M708 1448l220 -80l-588 -1614l-220 80z" />
    <glyph glyph-name="zero" unicode="0" horiz-adv-x="1076" 
d="M304 667q0 -461 237 -461q115 0 173 108t58 349t-58 345t-177 104q-117 0 -175 -107t-58 -338zM537 -19q-172 1 -280 99q-197 180 -197 600q0 330 127 494t349 163q222 1 350 -167q130 -168 128 -511t-130 -511t-347 -167z" />
    <glyph glyph-name="one" unicode="1" horiz-adv-x="628" 
d="M30 1224q198 0 338 94h160v-1318h-234v1050q-129 -46 -264 -46v220z" />
    <glyph glyph-name="two" unicode="2" horiz-adv-x="993" 
d="M673 942q0 172 -187 173q-90 1 -177 -29t-136 -66l-9 7l-64 196q78 49 196 82t214 33q166 0 287 -98t121 -281t-132 -362t-381 -372h540v-225h-900v225q269 188 408 325q139 136 179 220t41 172z" />
    <glyph glyph-name="three" unicode="3" horiz-adv-x="967" 
d="M675 386q0 186 -318 186h-119v225h158q117 -1 174 51t57 120q1 68 -43 106q-44 39 -132 39q-157 0 -313 -92l-8 7l-52 191q89 57 194 88t193 31t180 -31t160 -105t68 -196q0 -193 -170 -304q214 -77 214 -325q0 -140 -68 -230q-68 -91 -171 -129q-102 -38 -206 -38
t-230 32t-203 90l48 204l8 7q170 -107 343 -107q113 0 175 50t61 130z" />
    <glyph glyph-name="four" unicode="4" horiz-adv-x="1033" 
d="M618 492v416l-292 -416h292zM618 267h-578v225l578 826h234v-826h141v-225h-141v-267h-234v267z" />
    <glyph glyph-name="five" unicode="5" horiz-adv-x="1082" 
d="M960 1318v-225h-567l-29 -269q182 -2 316 -30t218 -111q104 -101 104 -297t-133 -301t-334 -105q-125 0 -255 38t-230 107l59 201l8 7q74 -47 196 -87t223 -39q102 0 160 50t58 142q0 121 -112 169t-362 48h-180l79 702h781z" />
    <glyph glyph-name="six" unicode="6" horiz-adv-x="1030" 
d="M325 440q1 -113 59 -177t144 -64t132 62t46 144q0 83 -53 133t-131 50t-194 -73q-3 -48 -3 -75zM870 1116q-220 0 -348 -106t-156 -241q92 38 194 38q160 0 275 -113t115 -272q0 -94 -44 -196t-144 -174t-255 -72q-211 0 -319 136t-108 354t80 414t258 325t452 129v-222z
" />
    <glyph glyph-name="seven" unicode="7" horiz-adv-x="914" 
d="M40 1093v225h844l-532 -1318h-253l441 1093h-500z" />
    <glyph glyph-name="eight" unicode="8" horiz-adv-x="1059" 
d="M309 354q-1 -74 65 -118t155 -44t155 44t65 118q0 74 -69 130q-44 35 -151 84q-109 -51 -149 -83q-71 -56 -71 -131zM683 997q0 61 -45 95t-108 34t-109 -33t-46 -95q-1 -62 39 -101q40 -38 115 -71q75 32 115 71t39 100zM928 1001q0 -107 -58 -181t-168 -132
q132 -58 212 -139t80 -210q0 -169 -138 -264t-328 -95q-188 0 -326 94t-137 265q0 132 96 228q69 68 196 121q-107 57 -167 131t-60 182q0 157 118 247t280 90q164 0 282 -89t118 -248z" />
    <glyph glyph-name="nine" unicode="9" horiz-adv-x="1030" 
d="M501 1119q-87 0 -132 -62t-45 -144q0 -83 53 -133t131 -50t194 73q3 48 3 75q-1 112 -59 176t-145 65zM160 202q220 0 358 114q113 93 146 233q-92 -38 -194 -38q-158 -1 -274 113t-116 272q0 94 44 196t144 174t255 72q209 0 318 -136t109 -354t-81 -414t-258 -325
t-451 -129v222z" />
    <glyph glyph-name="colon" unicode=":" horiz-adv-x="437" 
d="M218 -20q-58 0 -98 39t-40 97t40 98t98 40t99 -41q40 -41 40 -97t-40 -96q-41 -40 -99 -40zM218 784q-58 0 -98 39t-40 97t40 98t98 40t99 -41q40 -41 40 -97t-40 -96q-41 -40 -99 -40z" />
    <glyph glyph-name="semicolon" unicode=";" horiz-adv-x="442" 
d="M140 -14q0 55 -53 132q0 56 40 96t94 40q53 0 97 -38t44 -124t-72 -184t-158 -145l-52 65q60 103 60 158zM224 784q-58 0 -99 39q-40 39 -40 97t40 98q41 40 99 40t98 -41t40 -97t-40 -96t-98 -40z" />
    <glyph glyph-name="less" unicode="&#x3c;" horiz-adv-x="1031" 
d="M778 977l133 -188l-387 -271l386 -271l-133 -189l-657 460z" />
    <glyph glyph-name="equal" unicode="=" horiz-adv-x="1031" 
d="M90 429h851v-215h-851v215zM90 816h851v-215h-851v215z" />
    <glyph glyph-name="greater" unicode="&#x3e;" horiz-adv-x="1031" 
d="M911 518l-657 -460l-133 189l386 271l-387 271l133 188z" />
    <glyph glyph-name="question" unicode="?" horiz-adv-x="907" 
d="M354 -20q-58 0 -99 39q-40 39 -40 97t40 98q41 40 99 40t98 -41t40 -97t-40 -96t-98 -40zM462 1448q152 0 266 -84t114 -250q0 -132 -96 -242q-36 -43 -89 -94q-110 -105 -157 -246q-28 -80 -28 -198h-235q1 287 163 469q31 35 63 67q33 32 59 60q74 76 74 151t-52 110
t-123 35t-153 -34t-131 -82h-9l-78 168q54 72 157 121t255 49z" />
    <glyph glyph-name="at" unicode="@" horiz-adv-x="1413" 
d="M998 624h-72q-132 0 -180 -12q-90 -22 -90 -105q0 -62 40 -97t108 -35q66 0 118 32q76 47 76 154v63zM999 848q0 194 -203 194q-238 0 -359 -109q-143 -129 -143 -409q0 -205 125 -347t287 -142t299 106l164 -149q-205 -182 -449 -182q-130 0 -250 53t-212 149t-145 228
q-53 130 -53 308t71 344t233 268t420 103q179 0 299 -76q146 -93 146 -266v-386q0 -125 154 -155l-106 -196q-134 0 -233 109q-76 -57 -133 -83t-171 -26t-200 62q-118 83 -118 269q0 145 82 217t282 72q121 0 213 -8v52z" />
    <glyph glyph-name="A" unicode="A" horiz-adv-x="1256" 
d="M449 498h357l-178 518zM30 0l461 1338h274l461 -1338h-248l-94 273h-512l-94 -273h-248z" />
    <glyph glyph-name="B" unicode="B" horiz-adv-x="1119" 
d="M364 568v-369h67q211 -1 297 35t86 146t-83 148q-83 40 -262 40h-105zM364 1118v-325h15q199 0 264 23q88 32 88 140t-90 140q-65 22 -255 22h-22zM130 0v1318h344q238 0 355 -65q147 -84 147 -280t-118 -279q104 -42 152 -117t49 -196q-1 -167 -87 -249t-226 -108
q-140 -24 -347 -24h-269z" />
    <glyph glyph-name="C" unicode="C" horiz-adv-x="1149" 
d="M759 -20q-339 0 -519 192t-180 508q6 291 177 466q186 192 523 192q182 0 329 -41v-222l-8 -4q-139 41 -288 41q-242 0 -375 -141q-115 -123 -115 -313t115 -311q131 -141 374 -141q150 0 289 41l8 -4v-222q-147 -41 -330 -41z" />
    <glyph glyph-name="D" unicode="D" horiz-adv-x="1328" 
d="M364 1093v-869h175q251 0 382 147q103 117 103 292t-134 302q-134 128 -369 128h-157zM130 0v1318h437q313 0 507 -189t194 -463q0 -275 -169 -458q-191 -208 -521 -208h-448z" />
    <glyph glyph-name="E" unicode="E" horiz-adv-x="993" 
d="M130 1318h783v-225h-549v-325h534v-225h-534v-318h549v-225h-783v1318z" />
    <glyph glyph-name="F" unicode="F" horiz-adv-x="992" 
d="M130 1318h813v-225h-579v-325h559v-225h-559v-543h-234v1318z" />
    <glyph glyph-name="G" unicode="G" horiz-adv-x="1280" 
d="M750 1117q-174 1 -315 -115t-141 -330t113 -340q113 -127 281 -127t270 95v229h-243v217h457l8 -8v-738h-121l-62 59q-141 -79 -295 -79q-295 0 -474 194q-178 194 -178 480q0 287 163 472q189 212 542 212q155 0 308 -42v-216l-8 -4q-131 41 -305 41z" />
    <glyph glyph-name="H" unicode="H" horiz-adv-x="1277" 
d="M130 1318h234v-550h549v550h234v-1318h-234v543h-549v-543h-234v1318z" />
    <glyph glyph-name="I" unicode="I" horiz-adv-x="494" 
d="M364 1318v-1318h-234v1318h234z" />
    <glyph glyph-name="J" unicode="J" horiz-adv-x="696" 
d="M30 -20v225h23q161 0 225 58q84 76 84 288v767h234v-834q0 -388 -303 -476q-93 -28 -229 -28h-34z" />
    <glyph glyph-name="K" unicode="K" horiz-adv-x="1229" 
d="M364 0h-234v1318h234v-494l414 494h304l-471 -562q30 -82 139 -210t242 -234t223 -126l4 -10l-121 -196q-84 0 -220 98t-265 241q-128 142 -165 243l-84 -101v-461z" />
    <glyph glyph-name="L" unicode="L" horiz-adv-x="953" 
d="M130 1318h234v-1093h549v-225h-783v1318z" />
    <glyph glyph-name="M" unicode="M" horiz-adv-x="1376" 
d="M1246 0h-234v817l-213 -400h-222l-213 400v-817h-234v1318h234l324 -611l324 611h234v-1318z" />
    <glyph glyph-name="N" unicode="N" horiz-adv-x="1276" 
d="M364 0h-234v1318h234l548 -877v877h234v-1318h-234l-548 876v-876z" />
    <glyph glyph-name="O" unicode="O" horiz-adv-x="1379" 
d="M294 670q0 -206 105 -336t295 -129q190 0 290 123t101 330q-1 208 -121 332t-280 124t-275 -118q-115 -120 -115 -326zM1319 660q0 -291 -178 -486t-457 -194q-278 0 -451 195t-173 485t179 484t457 194q279 0 451 -194t172 -484z" />
    <glyph glyph-name="P" unicode="P" horiz-adv-x="1148" 
d="M364 1093v-444h148q194 -1 272 57t79 165q-1 107 -79 165t-272 57h-148zM130 0v1318h378q342 0 495 -173q95 -109 95 -282q0 -220 -182 -337q-158 -102 -408 -102h-144v-424h-234z" />
    <glyph glyph-name="Q" unicode="Q" horiz-adv-x="1379" 
d="M294 670q0 -206 105 -336t295 -129q190 0 290 123t101 330q-1 208 -121 332t-280 124t-275 -118q-115 -120 -115 -326zM685 -20q-279 0 -452 195t-173 485t179 484t457 194q279 0 451 -194t172 -484q-1 -206 -93 -368t-253 -245q43 -38 129 -90t139 -72l4 -10l-104 -195
q-93 20 -201 103t-191 200q-31 -3 -64 -3z" />
    <glyph glyph-name="R" unicode="R" horiz-adv-x="1224" 
d="M364 1093v-474h148q193 1 272 59t79 174t-79 178q-79 63 -272 63h-148zM1098 843q0 -255 -226 -372q40 -93 142 -193t190 -131v-11l-104 -156q-92 0 -188 68t-168 168q-72 99 -103 186q-49 -8 -133 -8h-144v-394h-234v1318h378q341 0 501 -192q89 -106 89 -283z" />
    <glyph glyph-name="S" unicode="S" horiz-adv-x="964" 
d="M71 259q144 -59 335 -59q108 0 192 48t85 118q0 70 -64 120t-167 93q-10 3 -97 37t-171 92t-122 159q-22 53 -22 120q0 176 159 271q134 80 339 80q120 0 237 -31l-3 -211q-103 22 -234 22t-194 -28t-63 -94q1 -66 67 -116q66 -51 167 -93q19 -9 103 -41t164 -91
q80 -58 122 -160q20 -54 20 -116q0 -188 -184 -300q-162 -99 -352 -99t-320 58v220z" />
    <glyph glyph-name="T" unicode="T" horiz-adv-x="1114" 
d="M40 1318h1034v-225h-400v-1093h-234v1093h-400v225z" />
    <glyph glyph-name="U" unicode="U" horiz-adv-x="1286" 
d="M100 1318h234v-742q0 -214 77 -292t232 -79q155 1 232 79t77 292v742h234v-809q0 -214 -92 -344q-134 -185 -440 -185h-22q-309 0 -439 185q-93 129 -93 344v809z" />
    <glyph glyph-name="V" unicode="V" horiz-adv-x="1256" 
d="M1226 1318l-461 -1338h-274l-461 1338h248l350 -1016l350 1016h248z" />
    <glyph glyph-name="W" unicode="W" horiz-adv-x="1874" 
d="M1844 1318l-391 -1338h-259l-257 902l-257 -902h-259l-391 1338h248l271 -927l264 927h248l264 -927l271 927h248z" />
    <glyph glyph-name="X" unicode="X" horiz-adv-x="1254" 
d="M30 0l446 686l-411 632h283l269 -415l269 415h280l-400 -614l458 -704h-285l-315 485l-315 -485h-279z" />
    <glyph glyph-name="Y" unicode="Y" horiz-adv-x="1149" 
d="M692 0h-234v477l-428 841h262l282 -555l283 555h262l-427 -839v-479z" />
    <glyph glyph-name="Z" unicode="Z" horiz-adv-x="1008" 
d="M70 1318h871l15 -28l-543 -1065h545v-225h-881l-27 27l543 1066h-523v225z" />
    <glyph glyph-name="bracketleft" unicode="[" horiz-adv-x="680" 
d="M120 1448h440v-225h-206v-998h206v-225h-440v1448z" />
    <glyph glyph-name="backslash" unicode="\" horiz-adv-x="1048" 
d="M928 -166l-220 -80l-588 1614l220 80z" />
    <glyph glyph-name="bracketright" unicode="]" horiz-adv-x="680" 
d="M560 0h-440v225h206v998h-206v225h440v-1448z" />
    <glyph glyph-name="underscore" unicode="_" horiz-adv-x="872" 
d="M0 225h872v-225h-872v225z" />
    <glyph glyph-name="grave" unicode="`" horiz-adv-x="767" 
d="M192 1664q222 -197 495 -319q-5 -39 -21 -85t-32 -60q-214 43 -434 199q-94 67 -120 108q8 50 40 93t72 64z" />
    <glyph glyph-name="a" unicode="a" horiz-adv-x="1051" 
d="M636 420h-72q-132 0 -180 -12q-90 -22 -90 -105q0 -62 40 -97t108 -35q66 0 118 32q76 47 76 154v63zM867 331q0 -125 154 -155l-106 -196q-134 0 -233 109q-76 -57 -133 -83t-171 -26t-200 62q-118 83 -118 269q0 145 82 217t282 72q121 0 213 -8v52q0 194 -203 194
q-125 0 -278 -71l-55 204q185 88 367 88t290 -82t109 -260v-386z" />
    <glyph glyph-name="b" unicode="b" horiz-adv-x="1130" 
d="M552 203q114 0 185 94q71 93 71 221t-66 222t-182 93q-114 0 -216 -65v-535q94 -30 208 -30zM531 -20q-206 0 -421 89v1339l198 40h36v-478q125 88 264 88q212 0 327 -144t115 -352q0 -254 -136 -418t-383 -164z" />
    <glyph glyph-name="c" unicode="c" horiz-adv-x="965" 
d="M604 1058q179 0 301 -62v-234l-9 -4q-140 75 -270 75q-130 1 -218 -75q-86 -76 -86 -236t90 -239t224 -79q133 0 260 68l9 -3v-227q-127 -62 -295 -62q-230 0 -380 141t-150 397t150 398t374 142z" />
    <glyph glyph-name="d" unicode="d" horiz-adv-x="1130" 
d="M620 840q-138 0 -218 -82t-80 -224q0 -141 67 -235t181 -94t216 64v549q-87 22 -166 22zM1020 0h-177l-42 78q-131 -98 -279 -98q-212 0 -327 144t-115 352q0 284 152 433t401 149q74 0 153 -10v380l198 20h36v-1448z" />
    <glyph glyph-name="e" unicode="e" horiz-adv-x="1038" 
d="M552 833q-78 -1 -139 -55q-62 -54 -83 -161h419q-7 105 -63 161t-134 55zM615 -20q-227 0 -381 140t-154 393t139 399t328 146q80 0 153 -25q112 -38 178 -130q85 -117 85 -315v-156h-630q27 -118 111 -173t208 -55q122 0 249 68l9 -3v-227q-127 -62 -295 -62z" />
    <glyph glyph-name="f" unicode="f" horiz-adv-x="616" 
d="M589 1223q-105 1 -142 -45t-42 -140h215v-225h-216v-813h-234v813h-130v225h130v4q0 210 119 316q100 90 267 90q62 0 148 -12t132 -27l-41 -219q-101 33 -206 33z" />
    <glyph glyph-name="g" unicode="g" horiz-adv-x="1053" 
d="M319 -108q-1 -68 49 -108t148 -39q98 0 170 51t71 120q0 69 -76 95q-54 18 -190 18h-110q-62 -69 -62 -137zM326 703q0 -59 44 -103t120 -45q76 1 118 45t41 102q0 58 -44 104q-43 46 -117 46t-118 -45t-44 -104zM108 709q0 153 108 251t276 98q114 0 201 -48
q65 49 137 77t128 28l65 -184l-5 -19q-92 -20 -174 -67q25 -60 25 -129q0 -150 -110 -258t-277 -108q-67 0 -119 16q-20 -28 -20 -58t31 -50q31 -19 85 -19h120q205 0 312 -87t107 -227q0 -165 -166 -284t-354 -119t-293 94t-105 237q0 65 32 135t92 129q-40 23 -62 73
t-23 94q0 88 75 181q-86 92 -86 244z" />
    <glyph glyph-name="h" unicode="h" 
d="M344 1448v-483q144 92 312 92q168 -1 276 -93t107 -275v-689h-234v620q0 109 -66 161q-65 52 -179 52t-216 -64v-769h-234v1428l198 20h36z" />
    <glyph glyph-name="i" unicode="i" horiz-adv-x="453" 
d="M110 1038h234v-1038h-234v1038zM226 1174q-58 0 -98 39t-40 97t40 98t98 40t99 -41q40 -41 40 -97t-40 -96q-41 -40 -99 -40z" />
    <glyph glyph-name="j" unicode="j" horiz-adv-x="515" 
d="M-24 -253q110 0 148 69q26 48 26 185v1037h234v-1110q0 -210 -129 -316q-110 -90 -286 -90q-125 0 -239 38l65 222q71 -35 181 -35zM266 1174q-58 0 -98 39t-40 97t40 98t98 40t99 -41q40 -41 40 -97t-40 -96q-41 -40 -99 -40z" />
    <glyph glyph-name="k" unicode="k" horiz-adv-x="1040" 
d="M344 1448v-856l377 446h275l-402 -478q62 -94 194 -217t222 -150l-99 -213q-102 5 -257 146q-118 104 -233 255l-77 -94v-287h-234v1428l204 20h30z" />
    <glyph glyph-name="l" unicode="l" horiz-adv-x="494" 
d="M364 1448v-1448h-234v1428l204 20h30z" />
    <glyph glyph-name="m" unicode="m" horiz-adv-x="1600" 
d="M1156 1058q158 0 251 -93t93 -276v-689h-234v626q0 106 -50 156t-131 51q-82 0 -170 -53q7 -47 7 -85v-695h-234v626q0 107 -48 157t-126 50t-170 -59v-774h-234v1038h198l21 -73q129 93 285 93t243 -122q141 122 299 122z" />
    <glyph glyph-name="n" unicode="n" 
d="M110 1038h198l23 -81q151 101 323 101t278 -93q107 -93 107 -276v-689h-234v620q0 109 -66 161q-65 52 -179 52t-216 -64v-769h-234v1038z" />
    <glyph glyph-name="o" unicode="o" horiz-adv-x="1178" 
d="M319 524q0 -136 71 -228t202 -91q130 1 198 85t68 224t-68 230t-200 89q-131 -1 -201 -87t-70 -222zM586 -20q-226 0 -366 152t-140 385t145 387t369 154t364 -154t140 -385t-144 -385t-368 -154z" />
    <glyph glyph-name="p" unicode="p" horiz-adv-x="1130" 
d="M537 203q129 0 200 94q71 93 71 221t-66 222t-182 93q-114 0 -216 -65v-529q96 -36 193 -36zM110 1038h198l22 -78q131 98 278 98q212 0 327 -144t115 -352q0 -254 -136 -418t-383 -164q-110 0 -187 29v-467h-234v1496z" />
    <glyph glyph-name="q" unicode="q" horiz-adv-x="1130" 
d="M620 840q-138 0 -218 -82t-80 -224q0 -141 67 -235t181 -94t216 64v549q-87 22 -166 22zM80 476q0 284 152 433t385 149q234 0 403 -68v-1448h-234v525q-127 -87 -264 -87q-212 0 -327 144t-115 352z" />
    <glyph glyph-name="r" unicode="r" horiz-adv-x="833" 
d="M544 832q-100 0 -200 -76v-756h-234v1038h198l24 -85q124 105 261 105t210 -41l-74 -237q-85 52 -185 52z" />
    <glyph glyph-name="s" unicode="s" horiz-adv-x="771" 
d="M492 316q0 54 -36 88t-173 73q-137 40 -195 133q-33 51 -33 139q0 153 102 231q101 78 243 78t245 -39v-210l-12 -9q-87 42 -169 42t-128 -24q-47 -24 -47 -62q1 -40 29 -62t83 -41l104 -36q216 -75 216 -290q1 -171 -115 -259t-278 -88t-273 71v219l8 6q134 -73 257 -73
q72 -1 122 29t50 84z" />
    <glyph glyph-name="t" unicode="t" horiz-adv-x="866" 
d="M580 205q114 0 215 33l41 -219q-46 -15 -132 -27t-148 -12q-167 0 -267 90q-119 106 -119 316v427h-130v225h130v260l204 20h30v-280h309v-225h-309v-354q0 -136 26 -184q36 -70 150 -70z" />
    <glyph glyph-name="u" unicode="u" 
d="M1029 0h-198l-24 81q-151 -101 -322 -101t-278 93t-107 276v689h234v-620q0 -108 67 -161t178 -53t216 64v770h234v-1038z" />
    <glyph glyph-name="v" unicode="v" horiz-adv-x="1040" 
d="M387 0l-357 1038h254l233 -678h6l233 678h254l-357 -1038h-266z" />
    <glyph glyph-name="w" unicode="w" horiz-adv-x="1649" 
d="M1023 0l-199 656l-198 -656h-257l-349 1038h254l225 -678h5l205 678h231l204 -678h6l225 678h254l-349 -1038h-257z" />
    <glyph glyph-name="x" unicode="x" horiz-adv-x="1115" 
d="M30 0l367 519l-367 519h304l215 -304l215 304h280l-348 -493l389 -545h-301l-237 334l-236 -334h-281z" />
    <glyph glyph-name="y" unicode="y" horiz-adv-x="1047" 
d="M184 -478q-142 0 -274 71l59 196q89 -41 165 -41t148 70t103 183l-356 1037h254l233 -678h6l241 678h254l-351 -1020q-76 -220 -208 -358t-274 -138z" />
    <glyph glyph-name="z" unicode="z" horiz-adv-x="1058" 
d="M80 813v225h881l16 -16l-498 -797h504v-225h-881l-27 17l496 796h-491z" />
    <glyph glyph-name="braceleft" unicode="{" horiz-adv-x="799" 
d="M100 602v224h10q96 1 134 45t38 132v39q0 210 119 316q100 90 267 90h31v-225q-105 0 -143 -50t-39 -147v-23q0 -187 -94 -289q94 -102 94 -289v-23q1 -97 39 -147t143 -50v-225h-31q-167 0 -267 90q-119 106 -119 316v39q0 86 -38 131t-134 46h-10z" />
    <glyph glyph-name="bar" unicode="|" horiz-adv-x="494" 
d="M130 1448h234v-1718h-234v1718z" />
    <glyph glyph-name="braceright" unicode="}" horiz-adv-x="799" 
d="M699 826v-224h-10q-95 -1 -133 -47t-39 -130v-39q1 -210 -109 -308t-277 -98h-31v225q106 0 144 50t38 147v23q0 187 94 289q-94 102 -94 289v23q0 97 -38 147t-144 50v225h31q167 0 277 -98t109 -308v-39q0 -85 39 -131t133 -46h10z" />
    <glyph glyph-name="asciitilde" unicode="~" 
d="M436 463q-28 -1 -59 -25q-32 -24 -32 -70q-77 0 -146 25t-109 64q13 109 93 201t181 91q101 0 190 -49t130 -49q42 0 76 25t35 71q165 0 254 -98q-18 -135 -107 -208q-88 -73 -182 -73t-182 48q-4 2 -25 13t-27 14t-23 9q-15 6 -27 9q-12 2 -40 2z" />
    <glyph glyph-name="exclamdown" unicode="&#xa1;" horiz-adv-x="437" 
d="M341 -410h-244q0 356 10 643q10 286 17 344h189q11 -92 20 -466q8 -374 8 -521zM80 902q0 58 40 97t98 39t99 -39q40 -41 40 -97t-40 -97q-41 -41 -99 -41t-98 40t-40 98z" />
    <glyph glyph-name="cent" unicode="&#xa2;" horiz-adv-x="965" 
d="M726 -150h-234v141q-184 33 -298 170t-114 357t116 358t296 172v160h234v-160q107 -15 179 -52v-234l-9 -4q-140 75 -270 75q-130 1 -218 -75q-86 -76 -86 -236t90 -239t224 -79q133 0 260 68l9 -3v-227q-79 -38 -179 -53v-139z" />
    <glyph glyph-name="sterling" unicode="&#xa3;" horiz-adv-x="1036" 
d="M644 1123q-202 0 -202 -198q0 -54 14 -135h332v-215h-292q22 -119 22 -167q0 -103 -44 -183h522v-225h-956v225q107 0 160 31q82 46 82 171q0 56 -19 148h-215v215h173q-13 80 -13 152q0 202 100 299t267 97q81 0 179 -19t166 -49l-67 -198q-115 51 -209 51z" />
    <glyph glyph-name="yen" unicode="&#xa5;" horiz-adv-x="1149" 
d="M149 672h210l-329 646h262l282 -555l283 555h262l-329 -646h210v-215h-308v-92h308v-215h-308v-150h-234v150h-309v215h309v92h-309v215z" />
    <glyph glyph-name="brokenbar" unicode="&#xa6;" horiz-adv-x="494" 
d="M364 430v-700h-234v700h234zM130 748v700h234v-700h-234z" />
    <glyph glyph-name="section" unicode="&#xa7;" horiz-adv-x="1012" 
d="M759 358q1 136 -153 243q-30 21 -69 46q-38 25 -50 33q-134 85 -194 151q-40 -61 -40 -120q0 -103 84 -185q47 -48 185 -136t197 -152q40 59 40 120zM383 -160q214 0 214 123q0 99 -176 203q-127 74 -219 150t-138 206q-24 70 -24 162t42 184t113 164q-5 33 -5 65
q0 178 140 271q119 80 301 80q108 0 206 -31v-211q-102 23 -208 23q-214 0 -214 -123q0 -99 176 -203q127 -74 219 -150t138 -206q24 -69 24 -159q0 -190 -155 -351q5 -35 5 -65q0 -177 -130 -264t-311 -87q-108 0 -206 31v211q102 -23 208 -23z" />
    <glyph glyph-name="dieresis" unicode="&#xa8;" horiz-adv-x="855" 
d="M636 1200q-58 0 -98 39t-40 97t40 98t98 40t99 -41q40 -41 40 -97t-40 -96q-41 -40 -99 -40zM218 1200q-58 0 -98 39t-40 97t40 98t98 40t99 -41q40 -41 40 -97t-40 -96q-41 -40 -99 -40z" />
    <glyph glyph-name="copyright" unicode="&#xa9;" horiz-adv-x="1604" 
d="M882 941q-125 1 -190 -69t-65 -164t65 -164t190 -71q76 0 168 23l4 -1v-184q-92 -23 -192 -23q-210 0 -321 118t-110 305t113 301t319 114q99 0 191 -23v-184l-4 -3q-100 25 -168 25zM806 1269q-238 0 -394 -161q-155 -161 -155 -397q-1 -237 151 -395q152 -159 392 -159
t392 161q154 161 154 395q0 235 -151 396q-151 160 -389 160zM80 710q0 152 53 287t151 237t232 158t292 56q317 0 519 -214q93 -100 145 -234t52 -285t-53 -286t-151 -237t-232 -158t-292 -56q-317 0 -516 212q-200 212 -200 520z" />
    <glyph glyph-name="guillemotleft" unicode="&#xab;" horiz-adv-x="1371" 
d="M621 714l423 746l203 -119l-361 -627l365 -628l-201 -119zM120 714l423 746l203 -119l-361 -627l365 -628l-201 -119z" />
    <glyph glyph-name="registered" unicode="&#xae;" horiz-adv-x="1262" 
d="M547 1103v-185h28q111 0 147 18t37 69q0 52 -38 75t-146 23h-28zM414 604v613h159q141 0 215 -35q104 -48 104 -176t-118 -174q22 -42 66 -89t82 -69l4 -8l-109 -70q-57 27 -107 91t-71 119q-22 -2 -33 -2h-59v-200h-133zM634 1325q-180 0 -296 -121q-116 -120 -115 -296
t113 -296t292 -119t295 121t115 296t-112 295q-112 120 -292 120zM628 348q-242 0 -395 161t-153 398t157 400t398 163t394 -161t153 -400t-156 -400t-398 -161z" />
    <glyph glyph-name="macron" unicode="&#xaf;" horiz-adv-x="842" 
d="M100 1338h642v-215h-642v215z" />
    <glyph glyph-name="degree" unicode="&#xb0;" horiz-adv-x="814" 
d="M271 1002q-1 -59 37 -99t98 -40q60 -1 98 41t39 100t-37 99q-38 40 -98 40t-99 -41q-38 -41 -38 -100zM410 1338q144 0 234 -97t90 -238t-92 -238t-237 -97t-235 96t-90 238t94 238q94 98 236 98z" />
    <glyph glyph-name="plusminus" unicode="&#xb1;" horiz-adv-x="1011" 
d="M80 720h318v318h215v-318h318v-215h-318v-290h318v-215h-851v215h318v290h-318v215z" />
    <glyph glyph-name="acute" unicode="&#xb4;" horiz-adv-x="767" 
d="M80 1346q271 121 495 320q41 -22 73 -65t39 -93q-21 -32 -79 -78t-133 -89q-186 -109 -342 -141q-13 12 -31 60t-22 86z" />
    <glyph glyph-name="paragraph" unicode="&#xb6;" horiz-adv-x="1339" 
d="M296 909q0 -116 164 -120v289q-84 -17 -124 -62t-40 -107zM460 537q-380 21 -380 349q0 186 104 297q145 154 471 154q206 -1 366 -65t238 -180l-139 -145h-4q-32 33 -91 74v-1021h-234v1082q-47 8 -97 9v-1091h-234v537z" />
    <glyph glyph-name="periodcentered" unicode="&#xb7;" horiz-adv-x="437" 
d="M218 592q-58 0 -98 39t-40 97t40 98t98 40t99 -41q40 -41 40 -97t-40 -96q-41 -40 -99 -40z" />
    <glyph glyph-name="cedilla" unicode="&#xb8;" horiz-adv-x="623" 
d="M405 -80q133 -47 133 -204q0 -80 -68 -137t-177 -57q-111 0 -193 51q5 35 24 75t35 54q73 -26 121 -26q77 0 77 57q-1 37 -55 59t-97 22v186h200v-80z" />
    <glyph glyph-name="guillemotright" unicode="&#xbb;" horiz-adv-x="1371" 
d="M822 -33l-201 119l364 628l-360 627l203 119l423 -746zM321 -33l-201 119l364 628l-360 627l203 119l423 -746z" />
    <glyph glyph-name="questiondown" unicode="&#xbf;" horiz-adv-x="907" 
d="M446 -478q-150 0 -266 84t-115 250q0 130 96 243q38 43 89 93q109 104 158 246q27 81 27 198h235q0 -290 -162 -468q-34 -37 -65 -68q-31 -30 -58 -58q-74 -77 -74 -152q0 -74 52 -110q53 -36 125 -36t152 32t130 84h9l78 -168q-54 -72 -157 -121q-104 -49 -254 -49z
M692 854q0 -58 -40 -98t-99 -40t-99 40t-39 98q0 56 40 96t98 40t99 -39q40 -39 40 -97z" />
    <glyph glyph-name="Agrave" unicode="&#xc0;" horiz-adv-x="1256" 
d="M449 498h357l-178 518zM30 0l461 1338h274l461 -1338h-248l-94 273h-512l-94 -273h-248zM436 1872q222 -197 495 -319q-5 -39 -21 -85t-32 -60q-214 43 -434 199q-94 67 -120 108q8 50 40 93t72 64z" />
    <glyph glyph-name="Aacute" unicode="&#xc1;" horiz-adv-x="1256" 
d="M449 498h357l-178 518zM30 0l461 1338h274l461 -1338h-248l-94 273h-512l-94 -273h-248zM324 1554q271 121 495 320q41 -22 73 -65t39 -93q-21 -32 -79 -78t-133 -89q-186 -109 -342 -141q-13 12 -31 60t-22 86z" />
    <glyph glyph-name="Acircumflex" unicode="&#xc2;" horiz-adv-x="1256" 
d="M449 498h357l-178 518zM30 0l461 1338h274l461 -1338h-248l-94 273h-512l-94 -273h-248zM625 1586q-144 -134 -375 -248q-15 12 -32 68t-22 100q224 119 426 315h11q206 -198 427 -315q-2 -35 -20 -95t-34 -73q-221 107 -376 248h-5z" />
    <glyph glyph-name="Atilde" unicode="&#xc3;" horiz-adv-x="1256" 
d="M449 498h357l-178 518zM30 0l461 1338h274l461 -1338h-248l-94 273h-512l-94 -273h-248zM902 1720q26 0 71 -14t73 -40q-14 -106 -88 -182t-197 -76q-75 0 -146 49q-2 2 -14 10q-11 9 -15 11t-14 8q-35 20 -74 20t-69 -24t-30 -72q-18 -2 -31 -2q-101 0 -158 51
q13 107 88 184t185 77q51 0 80 -16t59 -34t55 -32q26 -16 70 -16t77 24t33 72q19 2 45 2z" />
    <glyph glyph-name="Adieresis" unicode="&#xc4;" horiz-adv-x="1256" 
d="M449 498h357l-178 518zM30 0l461 1338h274l461 -1338h-248l-94 273h-512l-94 -273h-248zM836 1408q-58 0 -98 39t-40 97t40 98t98 40t99 -41q40 -41 40 -97t-40 -96q-41 -40 -99 -40zM418 1408q-58 0 -98 39t-40 97t40 98t98 40t99 -41q40 -41 40 -97t-40 -96
q-41 -40 -99 -40z" />
    <glyph glyph-name="Aring" unicode="&#xc5;" horiz-adv-x="1256" 
d="M449 498h357l-178 518zM562 1507q0 -25 20 -45t45 -20q26 0 46 20t20 45t-20 45t-46 20q-25 0 -45 -20t-20 -45zM407 1499q0 96 65 161q66 64 155 64t155 -65t66 -161t-83 -160l461 -1338h-248l-94 273h-512l-94 -273h-248l460 1336q-83 67 -83 163z" />
    <glyph glyph-name="AE" unicode="&#xc6;" horiz-adv-x="1650" 
d="M449 498h357l-178 518zM1570 1318v-225h-721l112 -325h594v-225h-516l109 -318h422v-225h-592l-94 273h-512l-94 -273h-248l454 1318h1086z" />
    <glyph glyph-name="Ccedilla" unicode="&#xc7;" horiz-adv-x="1134" 
d="M863 -80q133 -47 133 -204q0 -80 -68 -137t-177 -57q-111 0 -193 51q5 35 24 75t35 54q73 -26 121 -26q77 0 77 57q-1 37 -55 59t-97 22v171q-295 27 -449 215t-154 480q6 291 177 466q186 192 523 192q182 0 329 -41v-222l-8 -4q-139 41 -288 41q-242 0 -375 -141
q-115 -123 -115 -313t115 -311q131 -141 374 -141q150 0 289 41l8 -4v-222q-89 -25 -226 -37v-64z" />
    <glyph glyph-name="Egrave" unicode="&#xc8;" horiz-adv-x="992" 
d="M130 1318h783v-225h-549v-325h534v-225h-534v-318h549v-225h-783v1318zM305 1872q222 -197 495 -319q-6 -39 -22 -85t-31 -60q-214 43 -434 199q-94 67 -120 108q7 50 39 93t73 64z" />
    <glyph glyph-name="Eacute" unicode="&#xc9;" horiz-adv-x="992" 
d="M130 1318h783v-225h-549v-325h534v-225h-534v-318h549v-225h-783v1318zM193 1554q271 121 495 320q40 -22 72 -65t40 -93q-21 -32 -79 -78t-133 -89q-186 -109 -342 -141q-14 12 -32 60t-21 86z" />
    <glyph glyph-name="Ecircumflex" unicode="&#xca;" horiz-adv-x="992" 
d="M130 1318h783v-225h-549v-325h534v-225h-534v-318h549v-225h-783v1318zM494 1656q-144 -134 -375 -248q-15 12 -32 68t-22 100q224 119 426 315h11q206 -198 427 -315q-1 -35 -19 -95t-35 -73q-221 107 -376 248h-5z" />
    <glyph glyph-name="Edieresis" unicode="&#xcb;" horiz-adv-x="992" 
d="M130 1318h783v-225h-549v-325h534v-225h-534v-318h549v-225h-783v1318zM706 1408q-58 0 -99 39q-40 39 -40 97t40 98q41 40 99 40t98 -41t40 -97t-40 -96t-98 -40zM288 1408q-58 0 -99 39q-40 39 -40 97t40 98q41 40 99 40t98 -41t40 -97t-40 -96t-98 -40z" />
    <glyph glyph-name="Igrave" unicode="&#xcc;" horiz-adv-x="494" 
d="M130 1318h234v-1318h-234v1318zM56 1802q222 -197 495 -319q-5 -39 -21 -85t-32 -60q-214 43 -434 199q-94 67 -120 108q8 50 40 93t72 64z" />
    <glyph glyph-name="Iacute" unicode="&#xcd;" horiz-adv-x="494" 
d="M130 1318h234v-1318h-234v1318zM-56 1484q271 121 495 320q41 -22 73 -65t39 -93q-21 -32 -79 -78t-133 -89q-186 -109 -342 -141q-13 9 -31 59t-22 87z" />
    <glyph glyph-name="Icircumflex" unicode="&#xce;" horiz-adv-x="494" 
d="M130 1318h234v-1318h-234v1318zM244 1586q-144 -134 -375 -248q-15 12 -34 74t-20 94q224 119 426 315h11q206 -198 427 -315q-1 -35 -19 -95t-35 -73q-221 107 -376 248h-5z" />
    <glyph glyph-name="Idieresis" unicode="&#xcf;" horiz-adv-x="494" 
d="M130 1318h234v-1318h-234v1318zM456 1408q-58 0 -98 39t-40 97t40 98t98 40t99 -41q40 -41 40 -97t-40 -96q-41 -40 -99 -40zM38 1408q-58 0 -98 39t-40 97t40 98t98 40t99 -41q40 -41 40 -97t-40 -96q-41 -40 -99 -40z" />
    <glyph glyph-name="Eth" unicode="&#xd0;" horiz-adv-x="1408" 
d="M444 1093v-328h173v-215h-173v-326h175q251 0 382 147q103 117 103 292t-134 302q-134 128 -369 128h-157zM40 765h170v553h437q313 0 507 -189t194 -463q0 -275 -169 -458q-191 -208 -521 -208h-448v550h-170v215z" />
    <glyph glyph-name="Ntilde" unicode="&#xd1;" horiz-adv-x="1276" 
d="M364 0h-234v1318h234l548 -877v877h234v-1318h-234l-548 876v-876zM912 1720q26 0 71 -14t73 -40q-14 -106 -88 -182t-197 -76q-75 0 -146 49q-2 2 -14 10q-11 9 -15 11t-14 8q-35 20 -74 20t-69 -24t-30 -72q-18 -2 -31 -2q-101 0 -158 51q13 107 88 184t185 77
q51 0 80 -16t59 -34t55 -32q26 -16 70 -16t77 24t33 72q19 2 45 2z" />
    <glyph glyph-name="Ograve" unicode="&#xd2;" horiz-adv-x="1379" 
d="M294 670q0 -206 105 -336t295 -129q190 0 290 123t101 330q-1 208 -121 332t-280 124t-275 -118q-115 -120 -115 -326zM1319 660q0 -291 -178 -486t-457 -194q-278 0 -451 195t-173 485t179 484t457 194q279 0 451 -194t172 -484zM533 1802q222 -197 495 -319
q-6 -39 -22 -85t-31 -60q-214 43 -434 199q-94 67 -120 108q7 50 39 93t73 64z" />
    <glyph glyph-name="Oacute" unicode="&#xd3;" horiz-adv-x="1379" 
d="M294 670q0 -206 105 -336t295 -129q190 0 290 123t101 330q-1 208 -121 332t-280 124t-275 -118q-115 -120 -115 -326zM1319 660q0 -291 -178 -486t-457 -194q-278 0 -451 195t-173 485t179 484t457 194q279 0 451 -194t172 -484zM386 1484q271 121 495 320
q41 -22 73 -65t39 -93q-21 -32 -79 -78t-133 -89q-186 -109 -342 -141q-13 12 -31 60t-22 86z" />
    <glyph glyph-name="Ocircumflex" unicode="&#xd4;" horiz-adv-x="1379" 
d="M294 670q0 -206 105 -336t295 -129q190 0 290 123t101 330q-1 208 -121 332t-280 124t-275 -118q-115 -120 -115 -326zM1319 660q0 -291 -178 -486t-457 -194q-278 0 -451 195t-173 485t179 484t457 194q279 0 451 -194t172 -484zM686 1586q-144 -134 -375 -248
q-15 12 -32 68t-22 100q224 119 426 315h11q206 -198 427 -315q-1 -35 -19 -95t-35 -73q-221 107 -376 248h-5z" />
    <glyph glyph-name="Otilde" unicode="&#xd5;" horiz-adv-x="1379" 
d="M294 670q0 -206 105 -336t295 -129q190 0 290 123t101 330q-1 208 -121 332t-280 124t-275 -118q-115 -120 -115 -326zM1319 660q0 -291 -178 -486t-457 -194q-278 0 -451 195t-173 485t179 484t457 194q279 0 451 -194t172 -484zM962 1720q26 0 72 -14q45 -14 73 -40
q-13 -106 -87 -182t-198 -76q-75 0 -146 49q-2 2 -14 10q-12 9 -16 11t-14 8q-35 20 -73 20q-39 0 -69 -24t-30 -72q-18 -2 -31 -2q-101 0 -158 51q13 107 88 184t185 77q51 0 80 -16q28 -16 58 -34t56 -32q26 -16 70 -16t77 24t33 72q18 2 44 2z" />
    <glyph glyph-name="Odieresis" unicode="&#xd6;" horiz-adv-x="1379" 
d="M294 670q0 -206 105 -336t295 -129q190 0 290 123t101 330q-1 208 -121 332t-280 124t-275 -118q-115 -120 -115 -326zM1319 660q0 -291 -178 -486t-457 -194q-278 0 -451 195t-173 485t179 484t457 194q279 0 451 -194t172 -484zM898 1480q-58 0 -98 39t-40 97t40 98
t98 40t99 -41q40 -41 40 -97t-40 -96q-41 -40 -99 -40zM480 1480q-58 0 -98 39t-40 97t40 98t98 40t99 -41q40 -41 40 -97t-40 -96q-41 -40 -99 -40z" />
    <glyph glyph-name="multiply" unicode="&#xd7;" horiz-adv-x="953" 
d="M252 899l224 -225l225 225l152 -152l-225 -225l225 -224l-152 -152l-225 224l-224 -224l-152 152l224 224l-224 225z" />
    <glyph glyph-name="Oslash" unicode="&#xd8;" horiz-adv-x="1379" 
d="M696 205q188 0 288 123t101 325q0 202 -119 333l-284 -781h14zM664 1114q-56 0 -126 -29t-123 -84q-121 -124 -121 -331q0 -279 173 -399l303 832q-50 11 -106 11zM60 660q0 289 179 484q179 194 457 194q81 0 153 -18l47 128l211 -76l-53 -145q126 -90 196 -239t69 -328
q0 -291 -178 -486t-456 -194q-38 0 -83 5l-62 -171l-211 76l59 162q-156 84 -242 245t-86 363z" />
    <glyph glyph-name="Ugrave" unicode="&#xd9;" horiz-adv-x="1286" 
d="M100 1318h234v-742q0 -214 77 -292t232 -79q155 1 232 79t77 292v742h234v-809q0 -214 -92 -344q-134 -185 -440 -185h-22q-309 0 -439 185q-93 129 -93 344v809zM451 1802q222 -197 495 -319q-6 -39 -22 -85t-31 -60q-214 43 -434 199q-94 67 -120 108q7 50 39 93t73 64
z" />
    <glyph glyph-name="Uacute" unicode="&#xda;" horiz-adv-x="1286" 
d="M100 1318h234v-742q0 -214 77 -292t232 -79q155 1 232 79t77 292v742h234v-809q0 -214 -92 -344q-134 -185 -440 -185h-22q-309 0 -439 185q-93 129 -93 344v809zM353 1484q271 121 495 320q40 -22 72 -65t40 -93q-21 -32 -79 -78t-133 -89q-186 -109 -342 -141
q-14 12 -32 60t-21 86z" />
    <glyph glyph-name="Ucircumflex" unicode="&#xdb;" horiz-adv-x="1286" 
d="M100 1318h234v-742q0 -214 77 -292t232 -79q155 1 232 79t77 292v742h234v-809q0 -214 -92 -344q-134 -185 -440 -185h-22q-309 0 -439 185q-93 129 -93 344v809zM637 1586q-144 -134 -375 -248q-15 12 -32 68t-22 100q224 119 426 315h11q206 -198 427 -315
q-2 -35 -20 -95t-34 -73q-221 107 -376 248h-5z" />
    <glyph glyph-name="Udieresis" unicode="&#xdc;" horiz-adv-x="1286" 
d="M100 1318h234v-742q0 -214 77 -292t232 -79q155 1 232 79t77 292v742h234v-809q0 -214 -92 -344q-134 -185 -440 -185h-22q-309 0 -439 185q-93 129 -93 344v809zM852 1408q-58 0 -99 39q-40 39 -40 97t40 98q41 40 99 40t98 -41t40 -97t-40 -96t-98 -40zM434 1408
q-58 0 -99 39q-40 39 -40 97t40 98q41 40 99 40t98 -41t40 -97t-40 -96t-98 -40z" />
    <glyph glyph-name="Yacute" unicode="&#xdd;" horiz-adv-x="1149" 
d="M692 0h-234v477l-428 841h262l282 -555l283 555h262l-427 -839v-479zM319 1484q271 121 495 320q40 -22 72 -65t40 -93q-21 -32 -79 -78t-133 -89q-186 -109 -342 -141q-14 12 -32 60t-21 86z" />
    <glyph glyph-name="Thorn" unicode="&#xde;" horiz-adv-x="1148" 
d="M394 487h148q220 0 306 77q46 41 45 85q0 77 -78 130q-78 52 -273 52h-148v-344zM394 1056h144q294 0 458 -124q132 -100 132 -281q0 -95 -50 -171t-133 -122q-173 -96 -407 -96h-144v-262h-234v1318h234v-262z" />
    <glyph glyph-name="germandbls" unicode="&#xdf;" horiz-adv-x="1141" 
d="M905 316q0 54 -36 88t-173 73q-137 40 -195 133q-33 50 -33 144t44 163t124 102q45 17 72 39t27 67q-1 45 -59 71t-176 27q-118 0 -152 -52q-35 -52 -35 -202v-969h-234v1042q0 214 110 310t300 96q107 0 218 -30t190 -102t79 -191q0 -171 -175 -276q-19 -13 -59 -35
t-40 -60t28 -60t84 -41l104 -36q216 -75 216 -290q0 -171 -116 -259t-276 -88q-162 0 -274 71v219l8 6q134 -73 257 -73q71 -1 121 29t51 84z" />
    <glyph glyph-name="agrave" unicode="&#xe0;" horiz-adv-x="1051" 
d="M636 420h-72q-132 0 -180 -12q-90 -22 -90 -105q0 -62 40 -97t108 -35q66 0 118 32q76 47 76 154v63zM867 331q0 -125 154 -155l-106 -196q-134 0 -233 109q-76 -57 -133 -83t-171 -26t-200 62q-118 83 -118 269q0 145 82 217t282 72q121 0 213 -8v52q0 194 -203 194
q-125 0 -278 -71l-55 204q185 88 367 88t290 -82t109 -260v-386zM334 1664q222 -197 495 -319q-5 -39 -21 -85t-32 -60q-214 43 -434 199q-94 67 -120 108q8 50 40 93t72 64z" />
    <glyph glyph-name="aacute" unicode="&#xe1;" horiz-adv-x="1051" 
d="M636 420h-72q-132 0 -180 -12q-90 -22 -90 -105q0 -62 40 -97t108 -35q66 0 118 32q76 47 76 154v63zM867 331q0 -125 154 -155l-106 -196q-134 0 -233 109q-76 -57 -133 -83t-171 -26t-200 62q-118 83 -118 269q0 145 82 217t282 72q121 0 213 -8v52q0 194 -203 194
q-125 0 -278 -71l-55 204q185 88 367 88t290 -82t109 -260v-386zM222 1346q271 121 495 320q41 -22 73 -65t39 -93q-21 -32 -79 -78t-133 -89q-186 -109 -342 -141q-13 12 -31 60t-22 86z" />
    <glyph glyph-name="acircumflex" unicode="&#xe2;" horiz-adv-x="1051" 
d="M636 420h-72q-132 0 -180 -12q-90 -22 -90 -105q0 -62 40 -97t108 -35q66 0 118 32q76 47 76 154v63zM867 331q0 -125 154 -155l-106 -196q-134 0 -233 109q-76 -57 -133 -83t-171 -26t-200 62q-118 83 -118 269q0 145 82 217t282 72q121 0 213 -8v52q0 194 -203 194
q-125 0 -278 -71l-55 204q185 88 367 88t290 -82t109 -260v-386zM477 1425q-144 -134 -375 -248q-15 12 -32 68t-22 100q224 119 426 315h11q206 -198 427 -315q-2 -35 -20 -95t-34 -73q-221 107 -376 248h-5z" />
    <glyph glyph-name="atilde" unicode="&#xe3;" horiz-adv-x="1051" 
d="M636 420h-72q-132 0 -180 -12q-90 -22 -90 -105q0 -62 40 -97t108 -35q66 0 118 32q76 47 76 154v63zM867 331q0 -125 154 -155l-106 -196q-134 0 -233 109q-76 -57 -133 -83t-171 -26t-200 62q-118 83 -118 269q0 145 82 217t282 72q121 0 213 -8v52q0 194 -203 194
q-125 0 -278 -71l-55 204q185 88 367 88t290 -82t109 -260v-386zM742 1506q26 0 71 -14t73 -40q-14 -106 -88 -182t-197 -76q-75 0 -146 49q-2 2 -14 10q-11 9 -15 11t-14 8q-35 20 -74 20t-69 -24t-30 -72q-18 -2 -31 -2q-101 0 -158 51q13 107 88 184t185 77q51 0 80 -16
t59 -34t55 -32q26 -15 70 -16q44 0 77 24t33 72q19 2 45 2z" />
    <glyph glyph-name="adieresis" unicode="&#xe4;" horiz-adv-x="1051" 
d="M636 420h-72q-132 0 -180 -12q-90 -22 -90 -105q0 -62 40 -97t108 -35q66 0 118 32q76 47 76 154v63zM867 331q0 -125 154 -155l-106 -196q-134 0 -233 109q-76 -57 -133 -83t-171 -26t-200 62q-118 83 -118 269q0 145 82 217t282 72q121 0 213 -8v52q0 194 -203 194
q-125 0 -278 -71l-55 204q185 88 367 88t290 -82t109 -260v-386zM734 1200q-58 0 -98 39t-40 97t40 98t98 40t99 -41q40 -41 40 -97t-40 -96q-41 -40 -99 -40zM316 1200q-58 0 -98 39t-40 97t40 98t98 40t99 -41q40 -41 40 -97t-40 -96q-41 -40 -99 -40z" />
    <glyph glyph-name="aring" unicode="&#xe5;" horiz-adv-x="1051" 
d="M636 420h-72q-132 0 -180 -12q-90 -22 -90 -105q0 -62 40 -97t108 -35q66 0 118 32q76 47 76 154v63zM867 331q0 -125 154 -155l-106 -196q-134 0 -233 109q-76 -57 -133 -83t-171 -26t-200 62q-118 83 -118 269q0 145 82 217t282 72q121 0 213 -8v52q0 194 -203 194
q-125 0 -278 -71l-55 204q185 88 367 88t290 -82t109 -260v-386zM460 1411q0 -25 20 -45t45 -20q26 0 46 20t20 45t-20 45t-46 20q-25 0 -45 -20t-20 -45zM305 1410q0 88 65 154q66 64 155 64t155 -65t66 -153t-66 -152q-66 -66 -155 -66q-90 0 -155 65t-65 153z" />
    <glyph glyph-name="ae" unicode="&#xe6;" horiz-adv-x="1577" 
d="M636 420h-72q-132 0 -180 -12q-90 -22 -90 -105q0 -62 40 -97t108 -35q66 0 118 32q76 47 76 154v63zM1106 833q-78 -1 -139 -55q-62 -54 -83 -161h419q-7 105 -63 161t-134 55zM637 644q0 194 -203 194q-125 0 -278 -71l-55 204q185 88 391 88t306 -122q129 121 303 121
q80 0 153 -25q112 -38 178 -130q85 -117 85 -315v-156h-630q27 -118 111 -173t208 -55q122 0 249 68l9 -3v-227q-127 -62 -295 -62q-248 0 -398 157q-130 -157 -369 -157q-137 0 -224 62q-118 83 -118 269q0 145 82 217t282 72q121 0 213 -8v52z" />
    <glyph glyph-name="ccedilla" unicode="&#xe7;" horiz-adv-x="965" 
d="M716 -80q133 -47 133 -204q-1 -80 -69 -137t-176 -57q-111 0 -193 51q5 35 24 75t35 54q73 -26 121 -26q77 0 77 57q0 37 -54 59t-98 22v173q-192 26 -314 165t-122 380q0 242 150 384t374 142q179 0 301 -62v-234l-9 -4q-140 75 -270 75q-130 1 -218 -75
q-86 -76 -86 -236t90 -239t224 -79q133 0 260 68l9 -3v-227q-78 -38 -189 -54v-68z" />
    <glyph glyph-name="egrave" unicode="&#xe8;" horiz-adv-x="1023" 
d="M552 833q-78 -1 -139 -55q-62 -54 -83 -161h419q-7 105 -63 161t-134 55zM615 -20q-227 0 -381 140t-154 393t139 399t328 146q80 0 153 -25q112 -38 178 -130q85 -117 85 -315v-156h-630q27 -118 111 -173t208 -55q122 0 249 68l9 -3v-227q-127 -62 -295 -62zM368 1664
q222 -197 495 -319q-5 -39 -21 -85t-32 -60q-214 43 -434 199q-94 67 -120 108q8 50 40 93t72 64z" />
    <glyph glyph-name="eacute" unicode="&#xe9;" horiz-adv-x="1023" 
d="M552 833q-78 -1 -139 -55q-62 -54 -83 -161h419q-7 105 -63 161t-134 55zM615 -20q-227 0 -381 140t-154 393t139 399t328 146q80 0 153 -25q112 -38 178 -130q85 -117 85 -315v-156h-630q27 -118 111 -173t208 -55q122 0 249 68l9 -3v-227q-127 -62 -295 -62zM248 1346
q271 121 495 320q41 -22 73 -65t39 -93q-21 -32 -79 -78t-133 -89q-186 -109 -342 -141q-13 12 -31 60t-22 86z" />
    <glyph glyph-name="ecircumflex" unicode="&#xea;" horiz-adv-x="1023" 
d="M552 833q-78 -1 -139 -55q-62 -54 -83 -161h419q-7 105 -63 161t-134 55zM615 -20q-227 0 -381 140t-154 393t139 399t328 146q80 0 153 -25q112 -38 178 -130q85 -117 85 -315v-156h-630q27 -118 111 -173t208 -55q122 0 249 68l9 -3v-227q-127 -62 -295 -62zM556 1425
q-144 -134 -375 -248q-15 12 -32 68t-22 100q224 119 426 315h11q206 -198 427 -315q-1 -35 -19 -95t-35 -73q-221 107 -376 248h-5z" />
    <glyph glyph-name="edieresis" unicode="&#xeb;" horiz-adv-x="1023" 
d="M552 833q-78 -1 -139 -55q-62 -54 -83 -161h419q-7 105 -63 161t-134 55zM615 -20q-227 0 -381 140t-154 393t139 399t328 146q80 0 153 -25q112 -38 178 -130q85 -117 85 -315v-156h-630q27 -118 111 -173t208 -55q122 0 249 68l9 -3v-227q-127 -62 -295 -62zM772 1200
q-58 0 -98 39t-40 97t40 98t98 40t99 -41q40 -41 40 -97t-40 -96q-41 -40 -99 -40zM354 1200q-58 0 -98 39t-40 97t40 98t98 40t99 -41q40 -41 40 -97t-40 -96q-41 -40 -99 -40z" />
    <glyph glyph-name="igrave" unicode="&#xec;" horiz-adv-x="453" 
d="M110 1038h234v-1038h-234v1038zM35 1664q222 -197 495 -319q-6 -39 -22 -85t-31 -60q-214 43 -434 199q-94 67 -120 108q7 50 39 93t73 64z" />
    <glyph glyph-name="iacute" unicode="&#xed;" horiz-adv-x="453" 
d="M110 1038h234v-1038h-234v1038zM-77 1346q271 121 495 320q40 -22 72 -65t40 -93q-21 -32 -79 -78t-133 -89q-186 -109 -342 -141q-13 9 -31 59t-22 87z" />
    <glyph glyph-name="icircumflex" unicode="&#xee;" horiz-adv-x="453" 
d="M110 1038h234v-1038h-234v1038zM224 1425q-144 -134 -375 -248q-15 13 -34 75t-20 93q224 119 426 315h11q206 -198 427 -315q-1 -35 -19 -95t-35 -73q-221 107 -376 248h-5z" />
    <glyph glyph-name="idieresis" unicode="&#xef;" horiz-adv-x="453" 
d="M110 1038h234v-1038h-234v1038zM436 1200q-58 0 -99 39q-40 39 -40 97t40 98q41 40 99 40t98 -41t40 -97t-40 -96t-98 -40zM18 1200q-58 0 -99 39q-40 39 -40 97t40 98q41 40 99 40t98 -41t40 -97t-40 -96t-98 -40z" />
    <glyph glyph-name="eth" unicode="&#xf0;" horiz-adv-x="1138" 
d="M310 497q0 -135 67 -213t195 -79q254 0 255 284q0 137 -65 215q-64 78 -192 79t-194 -75t-66 -211zM1058 541q0 -273 -133 -417t-356 -144t-356 142t-133 370t138 372t354 144q68 0 112 -16q-30 46 -80 90l-311 -114l-66 184l188 68q-90 57 -167 92l111 176
q67 -23 173 -80t151 -95l281 106l66 -183l-192 -71q104 -107 162 -279t58 -345z" />
    <glyph glyph-name="ntilde" unicode="&#xf1;" 
d="M110 1038h198l23 -81q151 101 323 101t278 -93q107 -93 107 -276v-689h-234v620q0 109 -66 161q-65 52 -179 52t-216 -64v-769h-234v1038zM842 1506q26 0 72 -14q45 -14 73 -40q-13 -106 -87 -182t-198 -76q-75 0 -146 49q-2 2 -14 10q-12 9 -16 11t-14 8q-35 20 -73 20
q-39 0 -69 -24t-30 -72q-18 -2 -31 -2q-101 0 -158 51q13 107 88 184t185 77q51 0 80 -16q28 -16 58 -34t56 -32q26 -16 70 -16t77 24t33 72q18 2 44 2z" />
    <glyph glyph-name="ograve" unicode="&#xf2;" horiz-adv-x="1178" 
d="M319 524q0 -136 71 -228t202 -91q130 1 198 85t68 224t-68 230t-200 89q-131 -1 -201 -87t-70 -222zM586 -20q-226 0 -366 152t-140 385t145 387t369 154t364 -154t140 -385t-144 -385t-368 -154zM412 1664q222 -197 495 -319q-5 -39 -21 -85t-32 -60q-214 43 -434 199
q-94 67 -120 108q8 50 40 93t72 64z" />
    <glyph glyph-name="oacute" unicode="&#xf3;" horiz-adv-x="1178" 
d="M319 524q0 -136 71 -228t202 -91q130 1 198 85t68 224t-68 230t-200 89q-131 -1 -201 -87t-70 -222zM586 -20q-226 0 -366 152t-140 385t145 387t369 154t364 -154t140 -385t-144 -385t-368 -154zM285 1346q271 121 495 320q40 -22 72 -65t40 -93q-21 -32 -79 -78
t-133 -89q-186 -109 -342 -141q-14 12 -32 60t-21 86z" />
    <glyph glyph-name="ocircumflex" unicode="&#xf4;" horiz-adv-x="1178" 
d="M319 524q0 -136 71 -228t202 -91q130 1 198 85t68 224t-68 230t-200 89q-131 -1 -201 -87t-70 -222zM586 -20q-226 0 -366 152t-140 385t145 387t369 154t364 -154t140 -385t-144 -385t-368 -154zM593 1425q-144 -134 -375 -248q-15 12 -32 68t-22 100q224 119 426 315
h11q206 -198 427 -315q-2 -35 -20 -95t-34 -73q-221 107 -376 248h-5z" />
    <glyph glyph-name="otilde" unicode="&#xf5;" horiz-adv-x="1178" 
d="M319 524q0 -136 71 -228t202 -91q130 1 198 85t68 224t-68 230t-200 89q-131 -1 -201 -87t-70 -222zM586 -20q-226 0 -366 152t-140 385t145 387t369 154t364 -154t140 -385t-144 -385t-368 -154zM862 1506q26 0 72 -14q45 -14 73 -40q-13 -106 -87 -182t-198 -76
q-75 0 -146 49q-2 2 -14 10q-12 9 -16 11t-14 8q-35 20 -73 20q-39 0 -69 -24t-30 -72q-18 -2 -31 -2q-101 0 -158 51q13 107 88 184t185 77q51 0 80 -16q28 -16 58 -34t56 -32q26 -16 70 -16t77 24t33 72q18 2 44 2z" />
    <glyph glyph-name="odieresis" unicode="&#xf6;" horiz-adv-x="1178" 
d="M319 524q0 -136 71 -228t202 -91q130 1 198 85t68 224t-68 230t-200 89q-131 -1 -201 -87t-70 -222zM586 -20q-226 0 -366 152t-140 385t145 387t369 154t364 -154t140 -385t-144 -385t-368 -154zM798 1200q-58 0 -99 39q-40 39 -40 97t40 98q41 40 99 40t98 -41t40 -97
t-40 -96t-98 -40zM380 1200q-58 0 -99 39q-40 39 -40 97t40 98q41 40 99 40t98 -41t40 -97t-40 -96t-98 -40z" />
    <glyph glyph-name="divide" unicode="&#xf7;" horiz-adv-x="1091" 
d="M542 -20q-58 0 -98 39t-40 97t40 98t98 40t99 -41q40 -41 40 -97t-40 -96q-41 -40 -99 -40zM120 630h851v-215h-851v215zM542 784q-58 0 -98 39t-40 97t40 98t98 40t99 -41q40 -41 40 -97t-40 -96q-41 -40 -99 -40z" />
    <glyph glyph-name="oslash" unicode="&#xf8;" horiz-adv-x="1178" 
d="M858 513q0 132 -57 215l-191 -523q124 6 186 91t62 217zM589 833q-130 -1 -200 -87t-70 -230t81 -233l200 549q-4 0 -5 1h-6zM80 515q0 235 145 389t369 154q37 0 86 -7l69 190l211 -76l-73 -199q99 -72 155 -188t56 -244q0 -246 -144 -400t-369 -154q-29 0 -56 3
l-61 -169l-211 76l59 163q-112 73 -174 193t-62 269z" />
    <glyph glyph-name="ugrave" unicode="&#xf9;" 
d="M1029 0h-198l-24 81q-151 -101 -322 -101t-278 93t-107 276v689h234v-620q0 -108 67 -161t178 -53t216 64v770h234v-1038zM378 1664q222 -197 495 -319q-5 -39 -21 -85t-32 -60q-214 43 -434 199q-94 67 -120 108q8 50 40 93t72 64z" />
    <glyph glyph-name="uacute" unicode="&#xfa;" 
d="M1029 0h-198l-24 81q-151 -101 -322 -101t-278 93t-107 276v689h234v-620q0 -108 67 -161t178 -53t216 64v770h234v-1038zM266 1346q271 121 495 320q41 -22 73 -65t39 -93q-21 -32 -79 -78t-133 -89q-186 -109 -342 -141q-13 12 -31 60t-22 86z" />
    <glyph glyph-name="ucircumflex" unicode="&#xfb;" 
d="M1029 0h-198l-24 81q-151 -101 -322 -101t-278 93t-107 276v689h234v-620q0 -108 67 -161t178 -53t216 64v770h234v-1038zM566 1425q-144 -134 -375 -248q-15 12 -32 68t-22 100q224 119 426 315h11q206 -198 427 -315q-1 -35 -19 -95t-35 -73q-221 107 -376 248h-5z" />
    <glyph glyph-name="udieresis" unicode="&#xfc;" 
d="M1029 0h-198l-24 81q-151 -101 -322 -101t-278 93t-107 276v689h234v-620q0 -108 67 -161t178 -53t216 64v770h234v-1038zM778 1200q-58 0 -98 39t-40 97t40 98t98 40t99 -41q40 -41 40 -97t-40 -96q-41 -40 -99 -40zM360 1200q-58 0 -98 39t-40 97t40 98t98 40t99 -41
q40 -41 40 -97t-40 -96q-41 -40 -99 -40z" />
    <glyph glyph-name="yacute" unicode="&#xfd;" horiz-adv-x="1047" 
d="M184 -478q-142 0 -274 71l59 196q89 -41 165 -41t148 70t103 183l-356 1037h254l233 -678h6l241 678h254l-351 -1020q-76 -220 -208 -358t-274 -138zM220 1346q271 121 495 320q41 -22 73 -65t39 -93q-21 -32 -79 -78t-133 -89q-186 -109 -342 -141q-13 12 -31 60t-22 86
z" />
    <glyph glyph-name="thorn" unicode="&#xfe;" horiz-adv-x="1130" 
d="M552 203q114 0 185 94q71 93 71 221t-66 222t-182 93q-114 0 -216 -65v-535q94 -30 208 -30zM344 1448v-478q125 88 264 88q212 0 327 -144t115 -352q0 -254 -136 -418t-383 -164q-79 0 -187 20v-458h-234v1866l198 40h36z" />
    <glyph glyph-name="ydieresis" unicode="&#xff;" horiz-adv-x="1047" 
d="M184 -478q-142 0 -274 71l59 196q89 -41 165 -41t148 70t103 183l-356 1037h254l233 -678h6l241 678h254l-351 -1020q-76 -220 -208 -358t-274 -138zM732 1200q-58 0 -98 39t-40 97t40 98t98 40t99 -41q40 -41 40 -97t-40 -96q-41 -40 -99 -40zM314 1200q-58 0 -98 39
t-40 97t40 98t98 40t99 -41q40 -41 40 -97t-40 -96q-41 -40 -99 -40z" />
    <glyph glyph-name="Amacron" unicode="&#x100;" horiz-adv-x="1256" 
d="M449 498h357l-178 518zM30 0l461 1338h274l461 -1338h-248l-94 273h-512l-94 -273h-248zM307 1623h642v-215h-642v215z" />
    <glyph glyph-name="amacron" unicode="&#x101;" horiz-adv-x="1051" 
d="M636 420h-72q-132 0 -180 -12q-90 -22 -90 -105q0 -62 40 -97t108 -35q66 0 118 32q76 47 76 154v63zM867 331q0 -125 154 -155l-106 -196q-134 0 -233 109q-76 -57 -133 -83t-171 -26t-200 62q-118 83 -118 269q0 145 82 217t282 72q121 0 213 -8v52q0 194 -203 194
q-125 0 -278 -71l-55 204q185 88 367 88t290 -82t109 -260v-386zM167 1448h642v-215h-642v215z" />
    <glyph glyph-name="Abreve" unicode="&#x102;" horiz-adv-x="1256" 
d="M449 498h357l-178 518zM30 0l461 1338h274l461 -1338h-248l-94 273h-512l-94 -273h-248zM630 1408q-214 0 -342 142q8 38 38 77t63 51q87 -93 237 -93t240 93q31 -11 63 -51t38 -77q-123 -142 -337 -142z" />
    <glyph glyph-name="abreve" unicode="&#x103;" horiz-adv-x="1051" 
d="M636 420h-72q-132 0 -180 -12q-90 -22 -90 -105q0 -62 40 -97t108 -35q66 0 118 32q76 47 76 154v63zM867 331q0 -125 154 -155l-106 -196q-134 0 -233 109q-76 -57 -133 -83t-171 -26t-200 62q-118 83 -118 269q0 145 82 217t282 72q121 0 213 -8v52q0 194 -203 194
q-125 0 -278 -71l-55 204q185 88 367 88t290 -82t109 -260v-386zM486 1231q-214 0 -342 142q8 38 38 77t63 51q87 -93 237 -93t240 93q31 -11 63 -51t38 -77q-123 -142 -337 -142z" />
    <glyph glyph-name="Aogonek" unicode="&#x104;" horiz-adv-x="1256" 
d="M449 498h357l-178 518zM1053 -220q0 -83 90 -83q64 0 152 46l7 -5v-165q-72 -51 -182 -51t-181 70t-71 182t109 227l-93 272h-512l-94 -273h-248l461 1338h274l461 -1338q-81 -34 -127 -98t-46 -122z" />
    <glyph glyph-name="aogonek" unicode="&#x105;" horiz-adv-x="1051" 
d="M636 420h-72q-132 0 -180 -12q-90 -22 -90 -105q0 -62 40 -97t108 -35q66 0 118 32q76 47 76 154v63zM867 331q0 -125 154 -155l-106 -196q-60 -35 -97 -92t-37 -108q0 -83 90 -83q64 0 152 46l7 -5v-165q-72 -51 -182 -51t-181 70t-71 177q0 135 144 266q-31 21 -58 54
q-76 -57 -133 -83t-171 -26t-200 62q-118 83 -118 269q0 145 82 217t282 72q121 0 213 -8v52q0 194 -203 194q-125 0 -278 -71l-55 204q185 88 367 88t290 -82t109 -260v-386z" />
    <glyph glyph-name="Cacute" unicode="&#x106;" horiz-adv-x="1134" 
d="M759 -20q-339 0 -519 192t-180 508q6 291 177 466q186 192 523 192q182 0 329 -41v-222l-8 -4q-139 41 -288 41q-242 0 -375 -141q-115 -123 -115 -313t115 -311q131 -141 374 -141q150 0 289 41l8 -4v-222q-147 -41 -330 -41zM467 1554q271 121 495 320q40 -22 72 -65
t40 -93q-21 -32 -79 -78t-133 -89q-186 -109 -342 -141q-14 12 -32 60t-21 86z" />
    <glyph glyph-name="cacute" unicode="&#x107;" horiz-adv-x="965" 
d="M604 1058q179 0 301 -62v-234l-9 -4q-140 75 -270 75q-130 1 -218 -75q-86 -76 -86 -236t90 -239t224 -79q133 0 260 68l9 -3v-227q-127 -62 -295 -62q-230 0 -380 141t-150 397t150 398t374 142zM300 1346q271 121 495 320q41 -22 73 -65t39 -93q-21 -32 -79 -78
t-133 -89q-186 -109 -342 -141q-13 12 -31 60t-22 86z" />
    <glyph glyph-name="Ccircumflex" unicode="&#x108;" horiz-adv-x="1169" 
d="M779 -20q-339 0 -519 192t-180 508q6 291 177 466q186 192 523 192q182 0 329 -41v-222l-8 -4q-139 41 -288 41q-242 0 -375 -141q-115 -123 -115 -313t115 -311q131 -141 374 -141q150 0 289 41l8 -4v-222q-147 -41 -330 -41zM712 1654q-144 -134 -375 -248
q-15 12 -32 68t-22 100q224 119 426 315h11q206 -198 427 -315q-1 -35 -19 -95t-35 -73q-221 107 -376 248h-5z" />
    <glyph glyph-name="ccircumflex" unicode="&#x109;" horiz-adv-x="965" 
d="M604 1058q179 0 301 -62v-234l-9 -4q-140 75 -270 75q-130 1 -218 -75q-86 -76 -86 -236t90 -239t224 -79q133 0 260 68l9 -3v-227q-127 -62 -295 -62q-230 0 -380 141t-150 397t150 398t374 142zM602 1425q-144 -134 -375 -248q-15 12 -32 68t-22 100q224 119 426 315
h11q206 -198 427 -315q-1 -35 -19 -95t-35 -73q-221 107 -376 248h-5z" />
    <glyph glyph-name="Ccaron" unicode="&#x10c;" horiz-adv-x="1134" 
d="M759 -20q-339 0 -519 192t-180 508q6 291 177 466q186 192 523 192q182 0 329 -41v-222l-8 -4q-139 41 -288 41q-242 0 -375 -141q-115 -123 -115 -313t115 -311q131 -141 374 -141q150 0 289 41l8 -4v-222q-147 -41 -330 -41zM774 1643q155 141 376 248q16 -13 34 -73
t20 -95q-221 -117 -427 -315h-11q-202 196 -426 315q5 44 22 100t32 68q231 -114 375 -248h5z" />
    <glyph glyph-name="ccaron" unicode="&#x10d;" horiz-adv-x="965" 
d="M604 1058q179 0 301 -62v-234l-9 -4q-140 75 -270 75q-130 1 -218 -75q-86 -76 -86 -236t90 -239t224 -79q133 0 260 68l9 -3v-227q-127 -62 -295 -62q-230 0 -380 141t-150 397t150 398t374 142zM627 1412q155 141 376 248q17 -13 35 -73t19 -95q-221 -117 -427 -315
h-11q-202 196 -426 315q5 44 22 100t32 68q231 -114 375 -248h5z" />
    <glyph glyph-name="Dcaron" unicode="&#x10e;" horiz-adv-x="1328" 
d="M364 1093v-869h175q251 0 382 147q103 117 103 292t-134 302q-134 128 -369 128h-157zM130 0v1318h437q313 0 507 -189t194 -463q0 -275 -169 -458q-191 -208 -521 -208h-448zM618 1573q155 141 376 248q16 -13 34 -73t20 -95q-221 -117 -427 -315h-11q-202 196 -426 315
q5 44 22 100t32 68q231 -114 375 -248h5z" />
    <glyph glyph-name="dcaron" unicode="&#x10f;" horiz-adv-x="1572" 
d="M620 840q-138 0 -218 -82t-80 -224q0 -141 67 -235t181 -94t216 64v549q-87 22 -166 22zM1270 1180q0 55 -53 132q0 56 40 96t94 40q53 0 97 -38t44 -124t-72 -184t-158 -145l-52 65q60 103 60 158zM1020 0h-177l-42 78q-131 -98 -279 -98q-212 0 -327 144t-115 352
q0 284 152 433t401 149q74 0 153 -10v380l198 20h36v-1448z" />
    <glyph glyph-name="dcroat" unicode="&#x111;" horiz-adv-x="1130" 
d="M620 840q-138 0 -218 -82t-80 -224q0 -141 67 -235t181 -94t216 64v549q-87 22 -166 22zM1159 1038h-139v-1038h-177l-42 78q-131 -98 -279 -98q-212 0 -327 144t-115 352q0 284 152 433t401 149q74 0 153 -10v380l198 20h36v-235h139v-175z" />
    <glyph glyph-name="Emacron" unicode="&#x112;" horiz-adv-x="992" 
d="M130 1318h783v-225h-549v-325h534v-225h-534v-318h549v-225h-783v1318zM214 1623h642v-215h-642v215z" />
    <glyph glyph-name="emacron" unicode="&#x113;" horiz-adv-x="1023" 
d="M552 833q-78 -1 -139 -55q-62 -54 -83 -161h419q-7 105 -63 161t-134 55zM615 -20q-227 0 -381 140t-154 393t139 399t328 146q80 0 153 -25q112 -38 178 -130q85 -117 85 -315v-156h-630q27 -118 111 -173t208 -55q122 0 249 68l9 -3v-227q-127 -62 -295 -62zM235 1448
h642v-215h-642v215z" />
    <glyph glyph-name="Edotaccent" unicode="&#x116;" horiz-adv-x="992" 
d="M130 1318h783v-225h-549v-325h534v-225h-534v-318h549v-225h-783v1318zM496 1408q-58 0 -98 39t-40 97t40 98t98 40t99 -41q40 -41 40 -97t-40 -96q-41 -40 -99 -40z" />
    <glyph glyph-name="edotaccent" unicode="&#x117;" horiz-adv-x="1023" 
d="M552 833q-78 -1 -139 -55q-62 -54 -83 -161h419q-7 105 -63 161t-134 55zM615 -20q-227 0 -381 140t-154 393t139 399t328 146q80 0 153 -25q112 -38 178 -130q85 -117 85 -315v-156h-630q27 -118 111 -173t208 -55q122 0 249 68l9 -3v-227q-127 -62 -295 -62zM556 1200
q-58 0 -98 39t-40 97t40 98t98 40t99 -41q40 -41 40 -97t-40 -96q-41 -40 -99 -40z" />
    <glyph glyph-name="Eogonek" unicode="&#x118;" horiz-adv-x="992" 
d="M740 -220q0 -83 90 -83q64 0 152 46l7 -5v-165q-72 -51 -182 -51t-181 70t-71 181t108 227h-533v1318h783v-225h-549v-325h534v-225h-534v-318h549v-225q-81 -34 -127 -98t-46 -122z" />
    <glyph glyph-name="eogonek" unicode="&#x119;" horiz-adv-x="1023" 
d="M552 833q-78 -1 -139 -55q-62 -54 -83 -161h419q-7 105 -63 161t-134 55zM613 -220q0 -83 90 -83q64 0 152 46l7 -5v-165q-72 -51 -182 -51t-181 70t-71 177t96 218q-196 27 -320 163t-124 377q0 239 139 385t328 146q80 0 153 -25q112 -38 178 -130q85 -117 85 -315
v-156h-630q27 -118 111 -173t208 -55q122 0 249 68l9 -3v-227q-57 -28 -128 -43q-78 -35 -124 -98t-45 -121z" />
    <glyph glyph-name="Ecaron" unicode="&#x11a;" horiz-adv-x="992" 
d="M130 1318h783v-225h-549v-325h534v-225h-534v-318h549v-225h-783v1318zM527 1573q155 141 376 248q17 -13 35 -73t19 -95q-221 -117 -427 -315h-11q-202 196 -426 315q5 44 22 100t32 68q231 -114 375 -248h5z" />
    <glyph glyph-name="ecaron" unicode="&#x11b;" horiz-adv-x="1023" 
d="M552 833q-78 -1 -139 -55q-62 -54 -83 -161h419q-7 105 -63 161t-134 55zM615 -20q-227 0 -381 140t-154 393t139 399t328 146q80 0 153 -25q112 -38 178 -130q85 -117 85 -315v-156h-630q27 -118 111 -173t208 -55q122 0 249 68l9 -3v-227q-127 -62 -295 -62zM556 1412
q155 141 376 248q16 -13 34 -73t20 -95q-221 -117 -427 -315h-11q-202 196 -426 315q5 44 22 100t32 68q231 -114 375 -248h5z" />
    <glyph glyph-name="Gcircumflex" unicode="&#x11c;" horiz-adv-x="1280" 
d="M750 1117q-174 1 -315 -115t-141 -330t113 -340q113 -127 281 -127t270 95v229h-243v217h457l8 -8v-738h-121l-62 59q-141 -79 -295 -79q-295 0 -474 194q-178 194 -178 480q0 287 163 472q189 212 542 212q155 0 308 -42v-216l-8 -4q-131 41 -305 41zM700 1587
q-144 -134 -375 -248q-15 12 -32 68t-22 100q224 119 426 315h11q206 -198 427 -315q-1 -35 -19 -95t-35 -73q-221 107 -376 248h-5z" />
    <glyph glyph-name="gcircumflex" unicode="&#x11d;" horiz-adv-x="1033" 
d="M299 -108q-1 -68 49 -108t148 -39q98 0 170 51t71 120q0 69 -76 95q-54 18 -190 18h-110q-62 -69 -62 -137zM306 703q0 -59 44 -103t120 -45q76 1 118 45t41 102q0 58 -44 104q-43 46 -117 46t-118 -45t-44 -104zM88 709q0 153 108 251t276 98q114 0 201 -48
q65 49 137 77t128 28l65 -184l-5 -19q-92 -20 -174 -67q25 -60 25 -129q0 -150 -110 -258t-277 -108q-67 0 -119 16q-20 -28 -20 -58t31 -50q31 -19 85 -19h120q205 0 312 -87t107 -227q0 -165 -166 -284t-354 -119t-293 94t-105 237q0 65 32 135t92 129q-40 23 -62 73
t-23 94q0 88 75 181q-86 92 -86 244zM468 1425q-144 -134 -375 -248q-15 12 -32 68t-22 100q224 119 426 315h11q206 -198 427 -315q-1 -35 -19 -95t-35 -73q-221 107 -376 248h-5z" />
    <glyph glyph-name="Gbreve" unicode="&#x11e;" horiz-adv-x="1280" 
d="M750 1117q-174 1 -315 -115t-141 -330t113 -340q113 -127 281 -127t270 95v229h-243v217h457l8 -8v-738h-121l-62 59q-141 -79 -295 -79q-295 0 -474 194q-178 194 -178 480q0 287 163 472q189 212 542 212q155 0 308 -42v-216l-8 -4q-131 41 -305 41zM780 1408
q-214 0 -343 142q7 38 37 77t64 51q88 -93 238 -93t239 93q31 -11 63 -51t38 -77q-122 -142 -336 -142z" />
    <glyph glyph-name="gbreve" unicode="&#x11f;" horiz-adv-x="1033" 
d="M299 -108q-1 -68 49 -108t148 -39q98 0 170 51t71 120q0 69 -76 95q-54 18 -190 18h-110q-62 -69 -62 -137zM306 703q0 -59 44 -103t120 -45q76 1 118 45t41 102q0 58 -44 104q-43 46 -117 46t-118 -45t-44 -104zM88 709q0 153 108 251t276 98q114 0 201 -48
q65 49 137 77t128 28l65 -184l-5 -19q-92 -20 -174 -67q25 -60 25 -129q0 -150 -110 -258t-277 -108q-67 0 -119 16q-20 -28 -20 -58t31 -50q31 -19 85 -19h120q205 0 312 -87t107 -227q0 -165 -166 -284t-354 -119t-293 94t-105 237q0 65 32 135t92 129q-40 23 -62 73
t-23 94q0 88 75 181q-86 92 -86 244zM490 1231q-214 0 -342 142q8 38 38 77t63 51q87 -93 237 -93t240 93q31 -11 63 -51t38 -77q-123 -142 -337 -142z" />
    <glyph glyph-name="Gdotaccent" unicode="&#x120;" horiz-adv-x="1280" 
d="M750 1117q-174 1 -315 -115t-141 -330t113 -340q113 -127 281 -127t270 95v229h-243v217h457l8 -8v-738h-121l-62 59q-141 -79 -295 -79q-295 0 -474 194q-178 194 -178 480q0 287 163 472q189 212 542 212q155 0 308 -42v-216l-8 -4q-131 41 -305 41zM754 1408
q-58 0 -99 39q-40 39 -40 97t40 98q41 40 99 40t98 -41t40 -97t-40 -96t-98 -40z" />
    <glyph glyph-name="gdotaccent" unicode="&#x121;" horiz-adv-x="1053" 
d="M319 -108q-1 -68 49 -108t148 -39q98 0 170 51t71 120q0 69 -76 95q-54 18 -190 18h-110q-62 -69 -62 -137zM326 703q0 -59 44 -103t120 -45q76 1 118 45t41 102q0 58 -44 104q-43 46 -117 46t-118 -45t-44 -104zM108 709q0 153 108 251t276 98q114 0 201 -48
q65 49 137 77t128 28l65 -184l-5 -19q-92 -20 -174 -67q25 -60 25 -129q0 -150 -110 -258t-277 -108q-67 0 -119 16q-20 -28 -20 -58t31 -50q31 -19 85 -19h120q205 0 312 -87t107 -227q0 -165 -166 -284t-354 -119t-293 94t-105 237q0 65 32 135t92 129q-40 23 -62 73
t-23 94q0 88 75 181q-86 92 -86 244zM510 1200q-58 0 -99 39q-40 39 -40 97t40 98q41 40 99 40t98 -41t40 -97t-40 -96t-98 -40z" />
    <glyph glyph-name="Gcommaaccent" unicode="&#x122;" horiz-adv-x="1280" 
d="M624 -356q0 55 -53 132q0 56 40 96t94 40q53 0 97 -38t44 -124t-72 -184t-158 -145l-52 65q60 103 60 158zM750 1116q-176 0 -316 -115t-140 -329t113 -340q113 -127 281 -127t270 95v229h-243v217h457l8 -8v-738h-121l-62 59q-141 -79 -295 -79q-295 0 -474 194
q-178 194 -178 481t163 470q189 212 542 212q155 0 308 -42v-216l-8 -4q-130 41 -305 41z" />
    <glyph glyph-name="gcommaaccent" unicode="&#x123;" horiz-adv-x="1053" 
d="M319 -108q-1 -68 49 -108t148 -39q98 0 170 51t71 120q0 69 -76 95q-54 18 -190 18h-110q-62 -69 -62 -137zM326 703q0 -59 44 -103t120 -45q76 1 118 45t41 102q0 58 -44 104q-43 46 -117 46t-118 -45t-44 -104zM108 709q0 153 108 251t276 98q114 0 201 -48
q65 49 137 77t128 28l65 -184l-5 -19q-92 -20 -174 -67q25 -60 25 -129q0 -150 -110 -258t-277 -108q-67 0 -119 16q-20 -28 -20 -58t31 -50q31 -19 85 -19h120q205 0 312 -87t107 -227q0 -165 -166 -284t-354 -119t-293 94t-105 237q0 65 32 135t92 129q-40 23 -62 73
t-23 94q0 88 75 181q-86 92 -86 244zM588 1436q0 -55 53 -132q0 -56 -40 -96q-41 -40 -95 -40t-97 38t-43 124t72 184t158 145l52 -65q-60 -103 -60 -158z" />
    <glyph glyph-name="Hcircumflex" unicode="&#x124;" horiz-adv-x="1277" 
d="M130 1318h234v-550h549v550h234v-1318h-234v543h-549v-543h-234v1318zM635 1656q-144 -134 -375 -248q-15 12 -32 68t-22 100q224 119 426 315h11q206 -198 427 -315q-2 -35 -20 -95t-34 -73q-221 107 -376 248h-5z" />
    <glyph glyph-name="hcircumflex" unicode="&#x125;" 
d="M344 1448v-483q144 92 312 92q168 -1 276 -93t107 -275v-689h-234v620q0 109 -66 161q-65 52 -179 52t-216 -64v-769h-234v1428l198 20h36zM233 1674q-144 -134 -375 -248q-15 12 -34 74t-20 94q224 119 426 315h11q206 -198 427 -315q-2 -35 -20 -95t-34 -73
q-221 107 -376 248h-5z" />
    <glyph glyph-name="Hbar" unicode="&#x126;" horiz-adv-x="1277" 
d="M364 768h549v105h-549v-105zM130 1318h234v-220h549v220h234v-1318h-234v543h-549v-543h-234v1318z" />
    <glyph glyph-name="hbar" unicode="&#x127;" horiz-adv-x="1149" 
d="M0 1318h110v110l198 20h36v-130h196v-225h-196v-128q144 92 312 92q168 -1 276 -93t107 -275v-689h-234v620q0 109 -66 161q-65 52 -179 52t-216 -64v-769h-234v1093h-110v225z" />
    <glyph glyph-name="Itilde" unicode="&#x128;" horiz-adv-x="494" 
d="M130 1318h234v-1318h-234v1318zM520 1720q26 0 72 -14q45 -14 73 -40q-13 -106 -87 -182t-198 -76q-75 0 -146 49q-2 2 -14 10q-12 9 -16 11t-14 8q-35 20 -73 20q-39 0 -69 -24t-30 -72q-18 -2 -31 -2q-101 0 -158 51q13 107 88 184t185 77q51 0 80 -16q28 -16 58 -34
t56 -32q26 -16 70 -16t77 24t33 72q18 2 44 2z" />
    <glyph glyph-name="Imacron" unicode="&#x12a;" horiz-adv-x="494" 
d="M130 1318h234v-1318h-234v1318zM-74 1623h642v-215h-642v215z" />
    <glyph glyph-name="imacron" unicode="&#x12b;" horiz-adv-x="453" 
d="M110 1038h234v-1038h-234v1038zM-94 1408h642v-215h-642v215z" />
    <glyph glyph-name="Ibreve" unicode="&#x12c;" horiz-adv-x="494" 
d="M130 1318h234v-1318h-234v1318zM250 1408q-214 0 -342 142q7 38 38 78t63 50q87 -93 237 -93t240 93q31 -11 63 -51t38 -77q-123 -142 -337 -142z" />
    <glyph glyph-name="ibreve" unicode="&#x12d;" horiz-adv-x="453" 
d="M110 1038h234v-1038h-234v1038zM226 1231q-214 0 -343 142q7 37 38 77t63 51q88 -93 238 -93t239 93q31 -11 63 -51t38 -77q-122 -142 -336 -142z" />
    <glyph glyph-name="Iogonek" unicode="&#x12e;" horiz-adv-x="494" 
d="M258 -478q-110 0 -181 70t-71 186t124 238v1302h234v-1318q-81 -34 -127 -98t-46 -122q0 -83 90 -83q64 0 152 46l7 -5v-165q-72 -51 -182 -51z" />
    <glyph glyph-name="iogonek" unicode="&#x12f;" horiz-adv-x="453" 
d="M238 -478q-110 0 -181 70t-71 186t124 238v1022h234v-1038q-81 -34 -127 -98t-46 -122q0 -83 90 -83q64 0 152 46l7 -5v-165q-72 -51 -182 -51zM226 1174q-58 0 -98 39t-40 97t40 98t98 40t99 -41q40 -41 40 -97t-40 -96q-41 -40 -99 -40z" />
    <glyph glyph-name="Idotaccent" unicode="&#x130;" horiz-adv-x="494" 
d="M130 1318h234v-1318h-234v1318zM246 1408q-58 0 -98 39t-40 97t40 98t98 40t99 -41q40 -41 40 -97t-40 -96q-41 -40 -99 -40z" />
    <glyph glyph-name="dotlessi" unicode="&#x131;" horiz-adv-x="453" 
d="M110 1038h234v-1038h-234v1038z" />
    <glyph glyph-name="IJ" unicode="&#x132;" horiz-adv-x="1182" 
d="M516 -20v225h23q161 0 225 58q84 76 84 288v767h234v-834q0 -388 -303 -476q-93 -28 -229 -28h-34zM122 1318h234v-933h-234v933zM934 1454q-58 0 -99 39q-40 39 -40 97t40 98q41 40 99 40t98 -41t40 -97t-40 -96t-98 -40zM238 1454q-58 0 -98 39t-40 97t40 98t98 40
t99 -41q40 -41 40 -97t-40 -96q-41 -40 -99 -40z" />
    <glyph glyph-name="ij" unicode="&#x133;" horiz-adv-x="1182" 
d="M644 -253q110 0 147 69q26 48 26 185v71q-143 -92 -312 -92t-276 93t-107 276v689h234v-620q0 -108 67 -161t178 -53t216 64v770h234v-1110q0 -210 -129 -316q-110 -90 -286 -90q-125 0 -239 38l65 222q72 -35 182 -35zM934 1174q-58 0 -99 39q-40 39 -40 97t40 98
q41 40 99 40t98 -41t40 -97t-40 -96t-98 -40zM238 1174q-58 0 -98 39t-40 97t40 98t98 40t99 -41q40 -41 40 -97t-40 -96q-41 -40 -99 -40z" />
    <glyph glyph-name="Jcircumflex" unicode="&#x134;" horiz-adv-x="696" 
d="M30 -20v225h23q161 0 225 58q84 76 84 288v767h234v-834q0 -388 -303 -476q-93 -28 -229 -28h-34zM480 1586q-144 -134 -375 -248q-15 12 -32 68t-22 100q224 119 426 315h11q206 -198 427 -315q-1 -35 -19 -95t-35 -73q-221 107 -376 248h-5z" />
    <glyph glyph-name="jcircumflex" unicode="&#x135;" horiz-adv-x="515" 
d="M-24 -253q110 0 148 69q26 48 26 185v1037h234v-1110q0 -210 -129 -316q-110 -90 -286 -90q-125 0 -239 38l65 222q71 -35 181 -35zM267 1425q-144 -134 -375 -248q-15 13 -34 75t-20 93q224 119 426 315h11q206 -198 427 -315q-2 -35 -20 -95t-34 -73q-221 107 -376 248
h-5z" />
    <glyph glyph-name="Kcommaaccent" unicode="&#x136;" horiz-adv-x="1229" 
d="M513 -268q0 55 -53 132q0 56 40 96t94 40t98 -38t43 -124t-73 -184t-157 -145l-52 65q60 103 60 158zM364 0h-234v1318h234v-494l414 494h304l-471 -562q30 -82 139 -210t242 -234t223 -126l4 -10l-121 -196q-84 0 -220 98t-265 241q-128 142 -165 243l-84 -101v-461z
" />
    <glyph glyph-name="kcommaaccent" unicode="&#x137;" horiz-adv-x="1040" 
d="M447 -268q0 55 -53 132q0 56 40 96t94 40t98 -38t43 -124t-73 -184t-157 -145l-52 65q60 103 60 158zM344 1448v-856l377 446h275l-402 -478q62 -94 194 -217t222 -150l-99 -213q-102 5 -257 146q-118 104 -233 255l-77 -94v-287h-234v1428l204 20h30z" />
    <glyph glyph-name="Lacute" unicode="&#x139;" horiz-adv-x="953" 
d="M130 1318h234v-1093h549v-225h-783v1318zM-56 1484q271 121 495 320q41 -22 73 -65t39 -93q-21 -32 -79 -78t-133 -89q-186 -109 -342 -141q-13 9 -31 59t-22 87z" />
    <glyph glyph-name="lacute" unicode="&#x13a;" horiz-adv-x="494" 
d="M364 1448v-1448h-234v1428l204 20h30zM-56 1594q271 121 495 320q41 -22 73 -65t39 -93q-21 -32 -79 -78t-133 -89q-186 -109 -342 -141q-13 9 -31 59t-22 87z" />
    <glyph glyph-name="Lcommaaccent" unicode="&#x13b;" horiz-adv-x="953" 
d="M442 -354q0 55 -53 132q0 56 40 96t94 40q53 0 97 -38t44 -124t-72 -184t-158 -145l-52 65q60 103 60 158zM130 1318h234v-1093h549v-225h-783v1318z" />
    <glyph glyph-name="lcommaaccent" unicode="&#x13c;" horiz-adv-x="494" 
d="M157 -356q0 55 -53 132q0 56 40 96t94 40t98 -38t43 -124t-73 -184t-157 -145l-52 65q60 103 60 158zM364 1448v-1448h-234v1428l204 20h30z" />
    <glyph glyph-name="Lcaron" unicode="&#x13d;" horiz-adv-x="953" 
d="M130 1318h234v-1093h549v-225h-783v1318zM680 1070q0 55 -53 132q0 56 40 96t94 40q53 0 97 -38t44 -124t-72 -184t-158 -145l-52 65q60 103 60 158z" />
    <glyph glyph-name="lcaron" unicode="&#x13e;" horiz-adv-x="936" 
d="M634 1180q0 55 -53 132q0 56 40 96t94 40q53 0 97 -38t44 -124t-72 -184t-158 -145l-52 65q60 103 60 158zM364 1448v-1448h-234v1428l204 20h30z" />
    <glyph glyph-name="Ldot" unicode="&#x13f;" horiz-adv-x="953" 
d="M764 592q-58 0 -99 39q-40 39 -40 97t40 98q41 40 99 40t98 -41t40 -97t-40 -96t-98 -40zM130 1318h234v-1093h549v-225h-783v1318z" />
    <glyph glyph-name="ldot" unicode="&#x140;" horiz-adv-x="844" 
d="M666 592q-58 0 -99 39q-40 39 -40 97t40 98q41 40 99 40t98 -41t40 -97t-40 -96t-98 -40zM364 1448v-1448h-234v1428l204 20h30z" />
    <glyph glyph-name="lslash" unicode="&#x142;" horiz-adv-x="494" 
d="M364 1448v-414l148 54l77 -211l-225 -82v-795h-234v711l-141 -51l-77 211l218 79v478l204 20h30z" />
    <glyph glyph-name="Nacute" unicode="&#x143;" horiz-adv-x="1276" 
d="M364 0h-234v1318h234l548 -877v877h234v-1318h-234l-548 876v-876zM396 1484q271 121 495 320q41 -22 73 -65t39 -93q-21 -32 -79 -78t-133 -89q-186 -109 -342 -141q-13 12 -31 60t-22 86z" />
    <glyph glyph-name="nacute" unicode="&#x144;" 
d="M110 1038h198l23 -81q151 101 323 101t278 -93q107 -93 107 -276v-689h-234v620q0 109 -66 161q-65 52 -179 52t-216 -64v-769h-234v1038zM266 1346q271 121 495 320q41 -22 73 -65t39 -93q-21 -32 -79 -78t-133 -89q-186 -109 -342 -141q-13 12 -31 60t-22 86z" />
    <glyph glyph-name="Ncommaaccent" unicode="&#x145;" horiz-adv-x="1276" 
d="M544 -268q0 55 -53 132q0 56 40 96t94 40q53 0 97 -38t44 -124t-72 -184t-158 -145l-52 65q60 103 60 158zM364 0h-234v1318h234l548 -877v877h234v-1318h-234l-548 876v-876z" />
    <glyph glyph-name="ncommaaccent" unicode="&#x146;" 
d="M489 -268q0 55 -53 132q0 56 40 96t94 40t98 -38t43 -124t-73 -184t-157 -145l-52 65q60 103 60 158zM110 1038h198l23 -81q151 101 323 101t278 -93q107 -93 107 -276v-689h-234v620q0 109 -66 161q-65 52 -179 52t-216 -64v-769h-234v1038z" />
    <glyph glyph-name="Ncaron" unicode="&#x147;" horiz-adv-x="1276" 
d="M364 0h-234v1318h234l548 -877v877h234v-1318h-234l-548 876v-876zM671 1573q155 141 376 248q17 -13 35 -73t19 -95q-221 -117 -427 -315h-11q-202 196 -426 315q5 44 22 100t32 68q231 -114 375 -248h5z" />
    <glyph glyph-name="ncaron" unicode="&#x148;" 
d="M110 1038h198l23 -81q151 101 323 101t278 -93q107 -93 107 -276v-689h-234v620q0 109 -66 161q-65 52 -179 52t-216 -64v-769h-234v1038zM571 1412q155 141 376 248q17 -13 35 -73t19 -95q-221 -117 -427 -315h-11q-202 196 -426 315q5 44 22 100t32 68
q231 -114 375 -248h5z" />
    <glyph glyph-name="Eng" unicode="&#x14a;" horiz-adv-x="1276" 
d="M580 -478v225h23q142 0 216 51t89 208l-544 870v-876h-234v1318h234l548 -877v877h234v-1318h-1q-5 -202 -89 -307t-218 -144q-94 -27 -224 -27h-34z" />
    <glyph glyph-name="eng" unicode="&#x14b;" 
d="M805 620q0 109 -66 161q-65 52 -179 52t-216 -64v-769h-234v1038h198l23 -81q151 101 323 101t278 -93q107 -93 107 -276v-761q0 -210 -129 -316q-110 -90 -286 -90q-125 0 -239 38l65 222q72 -35 182 -35t147 69q26 48 26 184v620z" />
    <glyph glyph-name="Omacron" unicode="&#x14c;" horiz-adv-x="1379" 
d="M294 670q0 -206 105 -336t295 -129q190 0 290 123t101 330q-1 208 -121 332t-280 124t-275 -118q-115 -120 -115 -326zM1319 660q0 -291 -178 -486t-457 -194q-278 0 -451 195t-173 485t179 484t457 194q279 0 451 -194t172 -484zM386 1622h642v-215h-642v215z" />
    <glyph glyph-name="omacron" unicode="&#x14d;" horiz-adv-x="1178" 
d="M319 524q0 -136 71 -228t202 -91q130 1 198 85t68 224t-68 230t-200 89q-131 -1 -201 -87t-70 -222zM586 -20q-226 0 -366 152t-140 385t145 387t369 154t364 -154t140 -385t-144 -385t-368 -154zM268 1448h642v-215h-642v215z" />
    <glyph glyph-name="Ohungarumlaut" unicode="&#x150;" horiz-adv-x="1379" 
d="M294 670q0 -206 105 -336t295 -129q190 0 290 123t101 330q-1 208 -121 332t-280 124t-275 -118q-115 -120 -115 -326zM1319 660q0 -291 -178 -486t-457 -194q-278 0 -451 195t-173 485t179 484t457 194q279 0 451 -194t172 -484zM798 1459q214 195 373 458
q46 -11 89 -41t66 -75q-14 -50 -80 -138q-66 -87 -160 -179t-192 -146q-16 7 -47 45t-49 76zM342 1459q218 199 371 458q47 -11 91 -41t66 -75q-14 -48 -80 -137t-162 -181q-95 -92 -190 -145q-18 7 -50 49t-46 72z" />
    <glyph glyph-name="ohungarumlaut" unicode="&#x151;" horiz-adv-x="1178" 
d="M319 524q0 -136 71 -228t202 -91q130 1 198 85t68 224t-68 230t-200 89q-131 -1 -201 -87t-70 -222zM586 -20q-226 0 -366 152t-140 385t145 387t369 154t364 -154t140 -385t-144 -385t-368 -154zM701 1321q214 195 373 458q46 -11 89 -41t66 -75q-15 -50 -81 -138
q-66 -87 -159 -179q-94 -92 -192 -146q-16 7 -47 45t-49 76zM245 1321q218 199 371 458q48 -11 92 -41t65 -75q-15 -48 -81 -137t-161 -181t-190 -145q-17 7 -49 49t-47 72z" />
    <glyph glyph-name="OE" unicode="&#x152;" horiz-adv-x="1792" 
d="M760 1114q-166 0 -281 -118t-115 -326q0 -206 105 -336t297 -129q87 0 163 26v838q-87 45 -169 45zM1712 225v-225h-783q-88 -20 -200 -20t-228 52t-199 145q-172 193 -172 483t179 484t457 194q83 0 163 -20h783v-225h-549v-325h534v-225h-534v-318h549z" />
    <glyph glyph-name="oe" unicode="&#x153;" horiz-adv-x="1781" 
d="M1310 833q-78 -1 -139 -55q-62 -54 -83 -161h419q-7 105 -63 161t-134 55zM299 524q0 -136 71 -228t202 -91q130 1 198 85t68 224t-68 230t-200 89q-131 -1 -201 -87t-70 -222zM1373 -20q-267 0 -417 178q-148 -178 -382 -178t-374 152t-140 385t145 387t375 154
t374 -173q66 85 158 129t182 44q230 0 342 -155q85 -117 85 -315v-156h-630q27 -118 111 -173t208 -55q122 0 249 68l9 -3v-227q-127 -62 -295 -62z" />
    <glyph glyph-name="Racute" unicode="&#x154;" horiz-adv-x="1224" 
d="M364 1093v-474h148q193 1 272 59t79 174t-79 178q-79 63 -272 63h-148zM1098 843q0 -255 -226 -372q40 -93 142 -193t190 -131v-11l-104 -156q-92 0 -188 68t-168 168q-72 99 -103 186q-49 -8 -133 -8h-144v-394h-234v1318h378q341 0 501 -192q89 -106 89 -283zM289 1554
q271 121 495 320q40 -22 72 -65t40 -93q-21 -32 -79 -78t-133 -89q-186 -109 -342 -141q-14 12 -32 60t-21 86z" />
    <glyph glyph-name="racute" unicode="&#x155;" horiz-adv-x="833" 
d="M544 832q-100 0 -200 -76v-756h-234v1038h198l24 -85q124 105 261 105t210 -41l-74 -237q-85 52 -185 52zM131 1346q271 121 495 320q40 -22 72 -65t40 -93q-21 -32 -79 -78t-133 -89q-186 -109 -342 -141q-14 12 -32 60t-21 86z" />
    <glyph glyph-name="Rcommaaccent" unicode="&#x156;" horiz-adv-x="1224" 
d="M513 -268q0 55 -53 132q0 56 40 96t94 40t98 -38t43 -124t-73 -184t-157 -145l-52 65q60 103 60 158zM364 1093v-474h148q193 1 272 59t79 174t-79 178q-79 63 -272 63h-148zM1098 843q0 -255 -226 -372q40 -93 142 -193t190 -131v-11l-104 -156q-92 0 -188 68t-168 168
q-72 99 -103 186q-49 -8 -133 -8h-144v-394h-234v1318h378q341 0 501 -192q89 -106 89 -283z" />
    <glyph glyph-name="rcommaaccent" unicode="&#x157;" horiz-adv-x="833" 
d="M144 -356q0 55 -53 132q0 56 40 96t94 40q53 0 97 -38t44 -124t-72 -184t-158 -145l-52 65q60 103 60 158zM544 832q-100 0 -200 -76v-756h-234v1038h198l24 -85q124 105 261 105t210 -41l-74 -237q-85 52 -185 52z" />
    <glyph glyph-name="Rcaron" unicode="&#x158;" horiz-adv-x="1224" 
d="M364 1093v-474h148q193 1 272 59t79 174t-79 178q-79 63 -272 63h-148zM1098 843q0 -255 -226 -372q40 -93 142 -193t190 -131v-11l-104 -156q-92 0 -188 68t-168 168q-72 99 -103 186q-49 -8 -133 -8h-144v-394h-234v1318h378q341 0 501 -192q89 -106 89 -283zM538 1573
q155 141 376 248q16 -13 34 -73t20 -95q-221 -117 -427 -315h-11q-202 196 -426 315q5 44 22 100t32 68q231 -114 375 -248h5z" />
    <glyph glyph-name="rcaron" unicode="&#x159;" horiz-adv-x="833" 
d="M544 832q-100 0 -200 -76v-756h-234v1038h198l24 -85q124 105 261 105t210 -41l-74 -237q-85 52 -185 52zM419 1412q155 141 376 248q17 -13 35 -73t19 -95q-221 -117 -427 -315h-11q-202 196 -426 315q1 32 20 94t34 74q231 -114 375 -248h5z" />
    <glyph glyph-name="Sacute" unicode="&#x15a;" horiz-adv-x="964" 
d="M71 259q144 -59 335 -59q108 0 192 48t85 118q0 70 -64 120t-167 93q-10 3 -97 37t-171 92t-122 159q-22 53 -22 120q0 176 159 271q134 80 339 80q120 0 237 -31l-3 -211q-103 22 -234 22t-194 -28t-63 -94q1 -66 67 -116q66 -51 167 -93q19 -9 103 -41t164 -91
q80 -58 122 -160q20 -54 20 -116q0 -188 -184 -300q-162 -99 -352 -99t-320 58v220zM161 1484q271 121 495 320q40 -22 72 -65t40 -93q-21 -32 -79 -78t-133 -89q-186 -109 -342 -141q-14 12 -32 60t-21 86z" />
    <glyph glyph-name="sacute" unicode="&#x15b;" horiz-adv-x="771" 
d="M492 316q0 54 -36 88t-173 73q-137 40 -195 133q-33 51 -33 139q0 153 102 231q101 78 243 78t245 -39v-210l-12 -9q-87 42 -169 42t-128 -24q-47 -24 -47 -62q1 -40 29 -62t83 -41l104 -36q216 -75 216 -290q1 -171 -115 -259t-278 -88t-273 71v219l8 6q134 -73 257 -73
q72 -1 122 29t50 84zM100 1346q271 121 495 320q41 -22 73 -65t39 -93q-21 -32 -79 -78t-133 -89q-186 -109 -342 -141q-13 12 -31 60t-22 86z" />
    <glyph glyph-name="Scircumflex" unicode="&#x15c;" horiz-adv-x="964" 
d="M71 259q144 -59 335 -59q108 0 192 48t85 118q0 70 -64 120t-167 93q-10 3 -97 37t-171 92t-122 159q-22 53 -22 120q0 176 159 271q134 80 339 80q120 0 237 -31l-3 -211q-103 22 -234 22t-194 -28t-63 -94q1 -66 67 -116q66 -51 167 -93q19 -9 103 -41t164 -91
q80 -58 122 -160q20 -54 20 -116q0 -188 -184 -300q-162 -99 -352 -99t-320 58v220zM494 1586q-144 -134 -375 -248q-15 12 -32 68t-22 100q224 119 426 315h11q206 -198 427 -315q-1 -35 -19 -95t-35 -73q-221 107 -376 248h-5z" />
    <glyph glyph-name="scircumflex" unicode="&#x15d;" horiz-adv-x="771" 
d="M492 316q0 54 -36 88t-173 73q-137 40 -195 133q-33 51 -33 139q0 153 102 231q101 78 243 78t245 -39v-210l-12 -9q-87 42 -169 42t-128 -24q-47 -24 -47 -62q1 -40 29 -62t83 -41l104 -36q216 -75 216 -290q1 -171 -115 -259t-278 -88t-273 71v219l8 6q134 -73 257 -73
q72 -1 122 29t50 84zM383 1425q-144 -134 -375 -248q-15 13 -34 75t-20 93q224 119 426 315h11q206 -198 427 -315q-2 -35 -20 -95t-34 -73q-221 107 -376 248h-5z" />
    <glyph glyph-name="Scedilla" unicode="&#x15e;" horiz-adv-x="964" 
d="M378 -356q0 55 -53 132q0 56 40 96t94 40q53 0 97 -38t44 -124t-72 -184t-158 -145l-52 65q60 103 60 158zM71 259q144 -59 335 -59q108 0 192 48t85 118q0 70 -64 120t-167 93q-10 3 -97 37t-171 92t-122 159q-22 53 -22 120q0 176 159 271q134 80 339 80q120 0 237 -31
l-3 -211q-103 22 -234 22t-194 -28t-63 -94q1 -66 67 -116q66 -51 167 -93q19 -9 103 -41t164 -91q80 -58 122 -160q20 -54 20 -116q0 -188 -184 -300q-162 -99 -352 -99t-320 58v220z" />
    <glyph glyph-name="scedilla" unicode="&#x15f;" horiz-adv-x="771" 
d="M302 -356q0 55 -53 132q0 56 40 96t94 40q53 0 97 -38t44 -124t-72 -184t-158 -145l-52 65q60 103 60 158zM492 316q0 54 -36 88t-173 73q-137 40 -195 133q-33 51 -33 139q0 153 102 231q101 78 243 78t245 -39v-210l-12 -9q-87 42 -169 42t-128 -24q-47 -24 -47 -62
q1 -40 29 -62t83 -41l104 -36q216 -75 216 -290q1 -171 -115 -259t-278 -88t-273 71v219l8 6q134 -73 257 -73q72 -1 122 29t50 84z" />
    <glyph glyph-name="Scaron" unicode="&#x160;" horiz-adv-x="964" 
d="M71 259q144 -59 335 -59q108 0 192 48t85 118q0 70 -64 120t-167 93q-10 3 -97 37t-171 92t-122 159q-22 53 -22 120q0 176 159 271q134 80 339 80q120 0 237 -31l-3 -211q-103 22 -234 22t-194 -28t-63 -94q1 -66 67 -116q66 -51 167 -93q19 -9 103 -41t164 -91
q80 -58 122 -160q20 -54 20 -116q0 -188 -184 -300q-162 -99 -352 -99t-320 58v220zM464 1643q155 141 376 248q16 -13 34 -73t20 -95q-221 -117 -427 -315h-11q-202 196 -426 315q5 44 22 100t32 68q231 -114 375 -248h5z" />
    <glyph glyph-name="scaron" unicode="&#x161;" horiz-adv-x="771" 
d="M492 316q0 54 -36 88t-173 73q-137 40 -195 133q-33 51 -33 139q0 153 102 231q101 78 243 78t245 -39v-210l-12 -9q-87 42 -169 42t-128 -24q-47 -24 -47 -62q1 -40 29 -62t83 -41l104 -36q216 -75 216 -290q1 -171 -115 -259t-278 -88t-273 71v219l8 6q134 -73 257 -73
q72 -1 122 29t50 84zM412 1412q155 141 376 248q16 -13 34 -73t20 -95q-221 -117 -427 -315h-11q-202 196 -426 315q1 32 20 94t34 74q231 -114 375 -248h5z" />
    <glyph glyph-name="Tcedilla" unicode="&#x162;" horiz-adv-x="1114" 
d="M467 -356q0 55 -53 132q0 56 40 96t94 40t98 -38t43 -124t-73 -184t-157 -145l-52 65q60 103 60 158zM40 1318h1034v-225h-400v-1093h-234v1093h-400v225z" />
    <glyph glyph-name="tcedilla" unicode="&#x163;" horiz-adv-x="866" 
d="M392 -356q0 55 -53 132q0 56 40 96t94 40q53 0 97 -38t44 -124t-72 -184t-158 -145l-52 65q60 103 60 158zM580 205q114 0 215 33l41 -219q-46 -15 -132 -27t-148 -12q-167 0 -267 90q-119 106 -119 316v427h-130v225h130v260l204 20h30v-280h309v-225h-309v-354
q0 -136 26 -184q36 -70 150 -70z" />
    <glyph glyph-name="Tcaron" unicode="&#x164;" horiz-adv-x="1114" 
d="M40 1318h1034v-225h-400v-1093h-234v1093h-400v225zM558 1573q155 141 376 248q16 -13 34 -73t20 -95q-221 -117 -427 -315h-11q-202 196 -426 315q5 44 22 100t32 68q231 -114 375 -248h5z" />
    <glyph glyph-name="tcaron" unicode="&#x165;" horiz-adv-x="1308" 
d="M580 205q114 0 215 33l41 -219q-46 -15 -132 -27t-148 -12q-167 0 -267 90q-119 106 -119 316v427h-130v225h130v260l204 20h30v-280h309v-225h-309v-354q0 -136 26 -184q36 -70 150 -70zM1006 1180q0 55 -53 132q0 56 40 96t94 40q53 0 97 -38t44 -124t-72 -184
t-158 -145l-52 65q60 103 60 158z" />
    <glyph glyph-name="Tbar" unicode="&#x166;" horiz-adv-x="1114" 
d="M40 1318h1034v-225h-400v-301h179v-225h-179v-567h-234v567h-185v225h185v301h-400v225z" />
    <glyph glyph-name="tbar" unicode="&#x167;" horiz-adv-x="866" 
d="M580 205q114 0 215 33l41 -219q-46 -15 -132 -27t-148 -12q-167 0 -267 90q-119 106 -119 316v143h-130v225h130v59h-130v225h130v260l204 20h30v-280h309v-225h-309v-59h309v-225h-309v-70q0 -136 26 -184q36 -70 150 -70z" />
    <glyph glyph-name="Utilde" unicode="&#x168;" horiz-adv-x="1286" 
d="M100 1318h234v-742q0 -214 77 -292t232 -79q155 1 232 79t77 292v742h234v-809q0 -214 -92 -344q-134 -185 -440 -185h-22q-309 0 -439 185q-93 129 -93 344v809zM916 1720q26 0 72 -14q45 -14 73 -40q-13 -106 -87 -182t-198 -76q-75 0 -146 49q-2 2 -14 10
q-12 9 -16 11t-14 8q-35 20 -73 20q-39 0 -69 -24t-30 -72q-18 -2 -31 -2q-101 0 -158 51q13 107 88 184t185 77q51 0 80 -16q28 -16 58 -34t56 -32q26 -16 70 -16t77 24t33 72q18 2 44 2z" />
    <glyph glyph-name="utilde" unicode="&#x169;" 
d="M1029 0h-198l-24 81q-151 -101 -322 -101t-278 93t-107 276v689h234v-620q0 -108 67 -161t178 -53t216 64v770h234v-1038zM842 1506q26 0 72 -14q45 -14 73 -40q-13 -106 -87 -182t-198 -76q-75 0 -146 49q-2 2 -14 10q-12 9 -16 11t-14 8q-35 20 -73 20q-39 0 -69 -24
t-30 -72q-18 -2 -31 -2q-101 0 -158 51q13 107 88 184t185 77q51 0 80 -16q28 -16 58 -34t56 -32q26 -16 70 -16t77 24t33 72q18 2 44 2z" />
    <glyph glyph-name="Umacron" unicode="&#x16a;" horiz-adv-x="1286" 
d="M100 1318h234v-742q0 -214 77 -292t232 -79q155 1 232 79t77 292v742h234v-809q0 -214 -92 -344q-134 -185 -440 -185h-22q-309 0 -439 185q-93 129 -93 344v809zM324 1623h642v-215h-642v215z" />
    <glyph glyph-name="umacron" unicode="&#x16b;" 
d="M1029 0h-198l-24 81q-151 -101 -322 -101t-278 93t-107 276v689h234v-620q0 -108 67 -161t178 -53t216 64v770h234v-1038zM248 1448h642v-215h-642v215z" />
    <glyph glyph-name="Uring" unicode="&#x16e;" horiz-adv-x="1286" 
d="M100 1318h234v-742q0 -214 77 -292t232 -79q155 1 232 79t77 292v742h234v-809q0 -214 -92 -344q-134 -185 -440 -185h-22q-309 0 -439 185q-93 129 -93 344v809zM584 1557q0 -25 20 -45t45 -20q26 0 46 20t20 45t-20 45t-46 20q-25 0 -45 -20t-20 -45zM429 1556
q0 88 65 154q66 64 155 64t155 -65t66 -153t-66 -152q-66 -66 -155 -66q-90 0 -155 65t-65 153z" />
    <glyph glyph-name="uring" unicode="&#x16f;" 
d="M1029 0h-198l-24 81q-151 -101 -322 -101t-278 93t-107 276v689h234v-620q0 -108 67 -161t178 -53t216 64v770h234v-1038zM504 1411q0 -25 20 -45t45 -20q26 0 46 20t20 45t-20 45t-46 20q-25 0 -45 -20t-20 -45zM349 1410q0 88 65 154q66 64 155 64t155 -65t66 -153
t-66 -152q-66 -66 -155 -66q-90 0 -155 65t-65 153z" />
    <glyph glyph-name="Uhungarumlaut" unicode="&#x170;" horiz-adv-x="1286" 
d="M100 1318h234v-742q0 -214 77 -292t232 -79q155 1 232 79t77 292v742h234v-809q0 -214 -92 -344q-134 -185 -440 -185h-22q-309 0 -439 185q-93 129 -93 344v809zM752 1459q214 195 373 458q46 -11 89 -41t66 -75q-14 -50 -80 -138q-66 -87 -160 -179t-192 -146
q-16 7 -47 45t-49 76zM296 1459q218 199 371 458q47 -11 91 -41t66 -75q-14 -48 -80 -137t-162 -181q-95 -92 -190 -145q-18 7 -50 49t-46 72z" />
    <glyph glyph-name="uhungarumlaut" unicode="&#x171;" 
d="M1029 0h-198l-24 81q-151 -101 -322 -101t-278 93t-107 276v689h234v-620q0 -108 67 -161t178 -53t216 64v770h234v-1038zM688 1321q214 195 373 458q46 -11 89 -41t66 -75q-14 -50 -80 -138q-66 -87 -160 -179t-192 -146q-16 7 -47 45t-49 76zM232 1321q218 199 371 458
q47 -11 91 -41t66 -75q-14 -48 -80 -137t-162 -181q-95 -92 -190 -145q-18 7 -50 49t-46 72z" />
    <glyph glyph-name="Uogonek" unicode="&#x172;" horiz-adv-x="1286" 
d="M662 -220q0 -83 90 -83q64 0 152 46l7 -5v-165q-72 -51 -182 -51t-181 70t-71 176t92 214q-275 16 -392 207q-77 122 -77 320v809h234v-742q0 -214 77 -292t232 -79q155 1 232 79t77 292v742h234v-809q0 -234 -110 -366q-87 -106 -241 -143q-81 -34 -127 -98t-46 -122z
" />
    <glyph glyph-name="uogonek" unicode="&#x173;" 
d="M857 -220q0 -83 90 -83q64 0 152 46l7 -5v-165q-72 -51 -182 -51t-181 70t-71 177q0 69 41 141t106 128l-12 43q-151 -101 -322 -101t-278 93t-107 276v689h234v-620q0 -108 67 -161t178 -53t216 64v770h234v-1038q-80 -35 -126 -99q-46 -63 -46 -121z" />
    <glyph glyph-name="Wcircumflex" unicode="&#x174;" horiz-adv-x="1874" 
d="M1844 1318l-391 -1338h-259l-257 902l-257 -902h-259l-391 1338h248l271 -927l264 927h248l264 -927l271 927h248zM934 1586q-144 -134 -375 -248q-15 12 -32 68t-22 100q224 119 426 315h11q206 -198 427 -315q-1 -35 -19 -95t-35 -73q-221 107 -376 248h-5z" />
    <glyph glyph-name="wcircumflex" unicode="&#x175;" horiz-adv-x="1649" 
d="M1023 0l-199 656l-198 -656h-257l-349 1038h254l225 -678h5l205 678h231l204 -678h6l225 678h254l-349 -1038h-257zM821 1425q-144 -134 -375 -248q-15 12 -32 68t-22 100q224 119 426 315h11q206 -198 427 -315q-2 -35 -20 -95t-34 -73q-221 107 -376 248h-5z" />
    <glyph glyph-name="Ycircumflex" unicode="&#x176;" horiz-adv-x="1149" 
d="M692 0h-234v477l-428 841h262l282 -555l283 555h262l-427 -839v-479zM572 1586q-144 -134 -375 -248q-15 12 -32 68t-22 100q224 119 426 315h11q206 -198 427 -315q-1 -35 -19 -95t-35 -73q-221 107 -376 248h-5z" />
    <glyph glyph-name="ycircumflex" unicode="&#x177;" horiz-adv-x="1047" 
d="M184 -478q-142 0 -274 71l59 196q89 -41 165 -41t148 70t103 183l-356 1037h254l233 -678h6l241 678h254l-351 -1020q-76 -220 -208 -358t-274 -138zM520 1425q-144 -134 -375 -248q-15 12 -32 68t-22 100q224 119 426 315h11q206 -198 427 -315q-1 -35 -19 -95t-35 -73
q-221 107 -376 248h-5z" />
    <glyph glyph-name="Ydieresis" unicode="&#x178;" horiz-adv-x="1149" 
d="M692 0h-234v477l-428 841h262l282 -555l283 555h262l-427 -839v-479zM784 1408q-58 0 -99 39q-40 39 -40 97t40 98q41 40 99 40t98 -41t40 -97t-40 -96t-98 -40zM366 1408q-58 0 -99 39q-40 39 -40 97t40 98q41 40 99 40t98 -41t40 -97t-40 -96t-98 -40z" />
    <glyph glyph-name="Zacute" unicode="&#x179;" horiz-adv-x="1008" 
d="M70 1318h871l15 -28l-543 -1065h545v-225h-881l-27 27l543 1066h-523v225zM200 1484q271 121 495 320q41 -22 73 -65t39 -93q-21 -32 -79 -78t-133 -89q-186 -109 -342 -141q-13 12 -31 60t-22 86z" />
    <glyph glyph-name="zacute" unicode="&#x17a;" horiz-adv-x="1058" 
d="M80 813v225h881l16 -16l-498 -797h504v-225h-881l-27 17l496 796h-491zM225 1346q271 121 495 320q40 -22 72 -65t40 -93q-21 -32 -79 -78t-133 -89q-186 -109 -342 -141q-14 12 -32 60t-21 86z" />
    <glyph glyph-name="Zdotaccent" unicode="&#x17b;" horiz-adv-x="1008" 
d="M70 1318h871l15 -28l-543 -1065h545v-225h-881l-27 27l543 1066h-523v225zM514 1408q-58 0 -98 39t-40 97t40 98t98 40t99 -41q40 -41 40 -97t-40 -96q-41 -40 -99 -40z" />
    <glyph glyph-name="zdotaccent" unicode="&#x17c;" horiz-adv-x="1058" 
d="M983 225v-225h-881l-27 17l496 796h-491v225h881l16 -16l-498 -797h504zM534 1200q-58 0 -99 39q-40 39 -40 97t40 98q41 40 99 40t98 -41t40 -97t-40 -96t-98 -40z" />
    <glyph glyph-name="Zcaron" unicode="&#x17d;" horiz-adv-x="1008" 
d="M70 1318h871l15 -28l-543 -1065h545v-225h-881l-27 27l543 1066h-523v225zM506 1573q155 141 376 248q16 -13 34 -73t20 -95q-221 -117 -427 -315h-11q-202 196 -426 315q5 44 22 100t32 68q231 -114 375 -248h5z" />
    <glyph glyph-name="zcaron" unicode="&#x17e;" horiz-adv-x="1058" 
d="M80 813v225h881l16 -16l-498 -797h504v-225h-881l-27 17l496 796h-491zM549 1412q155 141 376 248q17 -13 35 -73t19 -95q-221 -117 -427 -315h-11q-202 196 -426 315q5 44 22 100t32 68q231 -114 375 -248h5z" />
    <glyph glyph-name="florin" unicode="&#x192;" horiz-adv-x="616" 
d="M589 1223q-105 1 -142 -45t-42 -140h215v-225h-216v-885q0 -210 -129 -316q-110 -90 -286 -90q-125 0 -239 38l65 222q71 -35 181 -35t148 69q26 48 26 184v813h-130v225h130v4q0 210 119 316q100 90 267 90q62 0 148 -12t132 -27l-41 -219q-101 33 -206 33z" />
    <glyph glyph-name="lbar" unicode="&#x19a;" horiz-adv-x="747" 
d="M492 1448v-414l148 54l77 -211l-225 -82v-795h-234v711l-141 -51l-77 211l218 79v478l204 20h30z" />
    <glyph glyph-name="Ezh" unicode="&#x1b7;" horiz-adv-x="980" 
d="M675 386q0 186 -318 186h-150v225l251 296h-395v225h862l15 -28l-427 -499q405 -43 405 -414q0 -140 -68 -230q-68 -91 -171 -129q-102 -38 -206 -38t-230 32t-203 90l48 204l8 7q170 -107 343 -107q113 0 175 50t61 130z" />
    <glyph glyph-name="Gstroke" unicode="&#x1e4;" horiz-adv-x="1280" 
d="M750 1117q-174 1 -315 -115t-141 -330t113 -340q113 -127 294 -127q145 0 245 84h-230v175h242v65h-243v217h457l8 -8v-274h78v-175h-78v-289h-121l-62 59q-141 -79 -295 -79q-295 0 -474 194q-178 194 -178 480q0 287 163 472q189 212 542 212q155 0 308 -42v-216l-8 -4
q-131 41 -305 41z" />
    <glyph glyph-name="gstroke" unicode="&#x1e5;" horiz-adv-x="1064" 
d="M358 -187q47 -68 162 -68q116 0 194 60q6 5 9 8h-365zM508 29h-110q-30 -33 -43 -61h404q-19 29 -67 45t-184 16zM343 703q-1 -59 43 -103t120 -45q76 1 118 45t42 102t-44 104t-118 46t-117 -45q-44 -45 -44 -104zM125 709q0 153 108 251t276 98q114 0 201 -48
q65 49 137 77t128 28l65 -184l-5 -19q-92 -20 -174 -67q25 -60 25 -129q0 -150 -110 -258t-277 -108q-67 0 -119 16q-20 -28 -20 -58t31 -50q31 -19 85 -19h120q205 0 317 -91q85 -69 99 -180h42v-155h-62q-41 -99 -147 -174q-162 -117 -350 -117t-295 97q-86 76 -101 194
h-89v155h111q33 82 100 149q-41 23 -63 73t-22 94q0 88 75 181q-86 92 -86 244z" />
    <glyph glyph-name="Gcaron" unicode="&#x1e6;" horiz-adv-x="1280" 
d="M750 1117q-174 1 -315 -115t-141 -330t113 -340q113 -127 281 -127t270 95v229h-243v217h457l8 -8v-738h-121l-62 59q-141 -79 -295 -79q-295 0 -474 194q-178 194 -178 480q0 287 163 472q189 212 542 212q155 0 308 -42v-216l-8 -4q-131 41 -305 41zM682 1622
q155 141 376 248q16 -13 34 -73t20 -95q-221 -117 -427 -315h-11q-202 196 -426 315q5 44 22 100t32 68q231 -114 375 -248h5z" />
    <glyph glyph-name="gcaron" unicode="&#x1e7;" horiz-adv-x="1053" 
d="M319 -108q-1 -68 49 -108t148 -39q98 0 170 51t71 120q0 69 -76 95q-54 18 -190 18h-110q-62 -69 -62 -137zM326 703q0 -59 44 -103t120 -45q76 1 118 45t41 102q0 58 -44 104q-43 46 -117 46t-118 -45t-44 -104zM108 709q0 153 108 251t276 98q114 0 201 -48
q65 49 137 77t128 28l65 -184l-5 -19q-92 -20 -174 -67q25 -60 25 -129q0 -150 -110 -258t-277 -108q-67 0 -119 16q-20 -28 -20 -58t31 -50q31 -19 85 -19h120q205 0 312 -87t107 -227q0 -165 -166 -284t-354 -119t-293 94t-105 237q0 65 32 135t92 129q-40 23 -62 73
t-23 94q0 88 75 181q-86 92 -86 244zM514 1412q155 141 376 248q16 -13 34 -73t20 -95q-221 -117 -427 -315h-11q-202 196 -426 315q5 44 22 100t32 68q231 -114 375 -248h5z" />
    <glyph glyph-name="Kcaron" unicode="&#x1e8;" horiz-adv-x="1229" 
d="M364 0h-234v1318h234v-494l414 494h304l-471 -562q30 -82 139 -210t242 -234t223 -126l4 -10l-121 -196q-84 0 -220 98t-265 241q-128 142 -165 243l-84 -101v-461zM542 1622q155 141 376 248q16 -13 34 -73t20 -95q-221 -117 -427 -315h-11q-202 196 -426 315
q5 44 22 100t32 68q231 -114 375 -248h5z" />
    <glyph glyph-name="kcaron" unicode="&#x1e9;" horiz-adv-x="1040" 
d="M344 1448v-856l377 446h275l-402 -478q62 -94 194 -217t222 -150l-99 -213q-102 5 -257 146q-118 104 -233 255l-77 -94v-287h-234v1428l204 20h30zM242 1702q155 141 376 248q16 -13 34 -73t20 -95q-221 -117 -427 -315h-11q-202 196 -426 315q5 44 22 100t32 68
q231 -114 375 -248h5z" />
    <glyph glyph-name="Ezhcaron" unicode="&#x1ee;" horiz-adv-x="980" 
d="M675 386q0 186 -318 186h-150v225l251 296h-395v225h862l15 -28l-427 -499q405 -43 405 -414q0 -140 -68 -230q-68 -91 -171 -129q-102 -38 -206 -38t-230 32t-203 90l48 204l8 7q170 -107 343 -107q113 0 175 50t61 130zM493 1573q155 141 376 248q17 -13 35 -73t19 -95
q-221 -117 -427 -315h-11q-202 196 -426 315q5 44 22 100t32 68q231 -114 375 -248h5z" />
    <glyph glyph-name="ezhcaron" unicode="&#x1ef;" horiz-adv-x="980" 
d="M675 106q0 186 -318 186h-150v225l251 296h-395v225h862l15 -28l-427 -499q405 -43 405 -414q0 -140 -68 -230q-68 -91 -171 -129q-102 -38 -206 -38t-230 32t-203 90l48 204l8 7q170 -107 343 -107q113 0 175 50t61 130zM493 1412q155 141 376 248q17 -13 35 -73t19 -95
q-221 -117 -427 -315h-11q-202 196 -426 315q5 44 22 100t32 68q231 -114 375 -248h5z" />
    <glyph glyph-name="AEacute" unicode="&#x1fc;" horiz-adv-x="1650" 
d="M449 498h357l-178 518zM1570 1318v-225h-721l112 -325h594v-225h-516l109 -318h422v-225h-592l-94 273h-512l-94 -273h-248l454 1318h1086zM629 1484q271 121 495 320q40 -22 72 -65t40 -93q-21 -32 -79 -78t-133 -89q-186 -109 -342 -141q-14 12 -32 60t-21 86z" />
    <glyph glyph-name="Oslashacute" unicode="&#x1fe;" horiz-adv-x="1379" 
d="M696 205q188 0 288 123t101 325q0 202 -119 333l-284 -781h14zM664 1114q-56 0 -126 -29t-123 -84q-121 -124 -121 -331q0 -279 173 -399l303 832q-50 11 -106 11zM60 660q0 289 179 484q179 194 457 194q81 0 153 -18l47 128l211 -76l-53 -145q126 -90 196 -239t69 -328
q0 -291 -178 -486t-456 -194q-38 0 -83 5l-62 -171l-211 76l59 162q-156 84 -242 245t-86 363zM465 1555q271 121 495 320q40 -22 72 -65t40 -93q-21 -31 -79 -77t-133 -90q-186 -109 -342 -141q-14 13 -32 61t-21 85z" />
    <glyph glyph-name="oslashacute" unicode="&#x1ff;" horiz-adv-x="1178" 
d="M858 513q0 132 -57 215l-191 -523q124 6 186 91t62 217zM589 833q-130 -1 -200 -87t-70 -230t81 -233l200 549q-4 0 -5 1h-6zM80 515q0 235 145 389t369 154q37 0 86 -7l69 190l211 -76l-73 -199q99 -72 155 -188t56 -244q0 -246 -144 -400t-369 -154q-29 0 -56 3
l-61 -169l-211 76l59 163q-112 73 -174 193t-62 269zM345 1346q271 121 495 320q40 -22 72 -65t40 -93q-21 -32 -79 -78t-133 -89q-186 -109 -342 -141q-14 12 -32 60t-21 86z" />
    <glyph glyph-name="uni023D" unicode="&#x23d;" horiz-adv-x="1045" 
d="M222 1318h234v-297l184 67l77 -211l-261 -95v-557h549v-225h-783v698l-105 -38l-77 211l182 66v381z" />
    <glyph glyph-name="ezh" unicode="&#x292;" horiz-adv-x="980" 
d="M675 106q0 186 -318 186h-150v225l251 296h-395v225h862l15 -28l-427 -499q405 -43 405 -414q0 -140 -68 -230q-68 -91 -171 -129q-102 -38 -206 -38t-230 32t-203 90l48 204l8 7q170 -107 343 -107q113 0 175 50t61 130z" />
    <glyph glyph-name="circumflex" unicode="&#x2c6;" horiz-adv-x="1024" 
d="M509 1425q-144 -134 -375 -248q-15 12 -32 68t-22 100q224 119 426 315h11q206 -198 427 -315q-2 -35 -20 -95t-34 -73q-221 107 -376 248h-5z" />
    <glyph glyph-name="caron" unicode="&#x2c7;" horiz-adv-x="1024" 
d="M514 1412q155 141 376 248q16 -13 34 -73t20 -95q-221 -117 -427 -315h-11q-202 196 -426 315q5 44 22 100t32 68q231 -114 375 -248h5z" />
    <glyph glyph-name="breve" unicode="&#x2d8;" horiz-adv-x="919" 
d="M462 1058q-214 0 -342 142q8 38 38 77t63 51q87 -93 237 -93t240 93q31 -11 63 -51t38 -77q-123 -142 -337 -142z" />
    <glyph glyph-name="dotaccent" unicode="&#x2d9;" horiz-adv-x="437" 
d="M218 1200q-58 0 -98 39t-40 97t40 98t98 40t99 -41q40 -41 40 -97t-40 -96q-41 -40 -99 -40z" />
    <glyph glyph-name="ring" unicode="&#x2da;" horiz-adv-x="641" 
d="M255 1411q-1 -25 19 -45t46 -20t46 20t20 45t-20 45t-46 20t-46 -20t-19 -45zM100 1410q0 88 65 154q66 64 155 64t155 -65t66 -153q1 -88 -65 -152q-66 -66 -156 -66t-155 65t-65 153z" />
    <glyph glyph-name="ogonek" unicode="&#x2db;" horiz-adv-x="554" 
d="M245 -220q0 -83 90 -83q64 0 152 46l7 -5v-165q-72 -51 -182 -51t-181 70t-71 166t62 184t152 148l144 -90q-81 -34 -127 -98t-46 -122z" />
    <glyph glyph-name="tilde" unicode="&#x2dc;" horiz-adv-x="1036" 
d="M792 1650q26 0 71 -14t73 -40q-14 -106 -88 -182t-197 -76q-75 0 -146 49q-2 2 -14 10q-11 9 -15 11t-14 8q-35 20 -74 20t-69 -24t-30 -72q-18 -2 -31 -2q-101 0 -158 51q13 107 88 184t185 77q51 0 80 -16t59 -34t55 -32q26 -16 70 -16t77 24t33 72q19 2 45 2z" />
    <glyph glyph-name="hungarumlaut" unicode="&#x2dd;" horiz-adv-x="1144" 
d="M536 1321q214 195 373 458q46 -11 89 -41t66 -75q-14 -50 -80 -138q-66 -87 -160 -179t-192 -146q-16 7 -47 45t-49 76zM80 1321q218 199 371 458q47 -11 91 -41t66 -75q-14 -48 -80 -137t-162 -181q-95 -92 -190 -145q-18 7 -50 49t-46 72z" />
    <glyph glyph-name="Ygrave" unicode="&#x1ef2;" horiz-adv-x="1149" 
d="M692 0h-234v477l-428 841h262l282 -555l283 555h262l-427 -839v-479zM383 1802q222 -197 495 -319q-6 -39 -22 -85t-31 -60q-214 43 -434 199q-94 67 -120 108q7 50 39 93t73 64z" />
    <glyph glyph-name="ygrave" unicode="&#x1ef3;" horiz-adv-x="1047" 
d="M184 -478q-142 0 -274 71l59 196q89 -41 165 -41t148 70t103 183l-356 1037h254l233 -678h6l241 678h254l-351 -1020q-76 -220 -208 -358t-274 -138zM332 1664q222 -197 495 -319q-5 -39 -21 -85t-32 -60q-214 43 -434 199q-94 67 -120 108q8 50 40 93t72 64z" />
    <glyph glyph-name="endash" unicode="&#x2013;" horiz-adv-x="1101" 
d="M80 630h941v-215h-941v215z" />
    <glyph glyph-name="emdash" unicode="&#x2014;" horiz-adv-x="1277" 
d="M80 630h1117v-215h-1117v215z" />
    <glyph glyph-name="quoteleft" unicode="&#x2018;" horiz-adv-x="442" 
d="M302 1225q0 -55 53 -132q0 -56 -40 -96q-41 -40 -95 -40q-54 -1 -97 37t-43 124t72 185q72 98 158 145l52 -65q-60 -103 -60 -158z" />
    <glyph glyph-name="quoteright" unicode="&#x2019;" horiz-adv-x="442" 
d="M140 1180q0 55 -53 132q0 56 40 96t94 40q53 0 97 -38t44 -124t-72 -184t-158 -145l-52 65q60 103 60 158z" />
    <glyph glyph-name="quotesinglbase" unicode="&#x201a;" horiz-adv-x="442" 
d="M221 254q53 0 97 -38t44 -123q0 -86 -72 -185t-158 -145l-52 65q60 102 60 158t-53 132q0 56 40 96t94 40z" />
    <glyph glyph-name="quotedblleft" unicode="&#x201c;" horiz-adv-x="855" 
d="M715 1225q0 -55 53 -132q0 -56 -40 -96t-94 -40q-54 -1 -98 37q-43 38 -43 124q1 86 73 185q72 98 157 145l52 -65q-60 -103 -60 -158zM302 1225q0 -55 53 -132q0 -56 -40 -96q-41 -40 -95 -40q-54 -1 -97 37t-43 124t72 185q72 98 158 145l52 -65q-60 -103 -60 -158z
" />
    <glyph glyph-name="quotedblright" unicode="&#x201d;" horiz-adv-x="855" 
d="M553 1180q0 55 -53 132q0 56 40 96t94 40t98 -38t43 -124t-73 -184t-157 -145l-52 65q60 103 60 158zM140 1180q0 55 -53 132q0 56 40 96t94 40q53 0 97 -38t44 -124t-72 -184t-158 -145l-52 65q60 103 60 158z" />
    <glyph glyph-name="quotedblbase" unicode="&#x201e;" horiz-adv-x="855" 
d="M634 254q54 0 98 -38t43 -123q-1 -86 -73 -185t-157 -145l-52 65q60 102 60 158t-53 132q0 56 40 96t94 40zM221 254q53 0 97 -38t44 -123q0 -86 -72 -185t-158 -145l-52 65q60 102 60 158t-53 132q0 56 40 96t94 40z" />
    <glyph glyph-name="dagger" unicode="&#x2020;" horiz-adv-x="951" 
d="M358 804h234q0 -315 -8 -652t-19 -420h-182q-25 230 -25 1072zM50 1073h851v-215h-851v215zM592 1128h-234q0 152 27 320h182q25 -164 25 -320z" />
    <glyph glyph-name="daggerdbl" unicode="&#x2021;" horiz-adv-x="951" 
d="M358 -90h234q0 -156 -25 -320h-182q-27 168 -27 320zM50 179h851v-215h-851v215zM592 804q0 -141 -20 -285q20 -144 20 -285h-234q0 134 21 285q-21 151 -21 285h234zM50 1073h851v-215h-851v215zM592 1128h-234q0 152 27 320h182q25 -164 25 -320z" />
    <glyph glyph-name="bullet" unicode="&#x2022;" horiz-adv-x="901" 
d="M821 518q1 -148 -109 -258t-263 -109q-153 0 -261 109q-108 110 -108 258t108 258q109 109 261 109t263 -109q109 -110 109 -258z" />
    <glyph glyph-name="ellipsis" unicode="&#x2026;" horiz-adv-x="1311" 
d="M1092 -20q-58 0 -98 39t-40 97t40 98t98 40t99 -41q40 -41 40 -97t-40 -96q-41 -40 -99 -40zM656 -20q-58 0 -99 39q-40 39 -40 97t40 98q41 40 99 40t98 -41t40 -97t-40 -96t-98 -40zM218 -20q-58 0 -98 39t-40 97t40 98t98 40t99 -41q40 -41 40 -97t-40 -96
q-41 -40 -99 -40z" />
    <glyph glyph-name="perthousand" unicode="&#x2030;" horiz-adv-x="1707" 
d="M1895 314q0 -50 33 -86q32 -36 86 -36t88 36t33 88q0 50 -33 86q-32 36 -86 36t-88 -36t-33 -88zM1157 314q0 -50 33 -86q32 -36 86 -36t88 36t33 88q0 50 -33 86q-32 36 -86 36t-88 -36t-33 -88zM2018 650q144 0 234 -97t90 -238t-92 -238t-237 -97t-235 96t-90 238
t94 238q94 98 236 98zM1280 650q144 0 234 -97t90 -238t-92 -238t-237 -97t-235 96t-90 238t94 238q94 98 236 98zM287 1002q0 -50 33 -86q32 -36 86 -36t88 36t33 88q0 50 -33 86q-32 36 -86 36t-88 -36t-33 -88zM411 255l686 979l192 -135l-686 -977zM410 1338
q144 0 234 -97t90 -238t-92 -238t-237 -97t-235 96t-90 238t94 238q94 98 236 98z" />
    <glyph glyph-name="guilsinglleft" unicode="&#x2039;" horiz-adv-x="870" 
d="M120 714l423 746l203 -119l-361 -627l365 -628l-201 -119z" />
    <glyph glyph-name="guilsinglright" unicode="&#x203a;" horiz-adv-x="870" 
d="M321 -33l-201 119l364 628l-360 627l203 119l423 -746z" />
    <glyph glyph-name="fraction" unicode="&#x2044;" horiz-adv-x="1118" 
d="M120 233l686 979l192 -135l-686 -977z" />
    <glyph glyph-name="uni2063" unicode="&#x2063;" horiz-adv-x="600" 
 />
    <glyph glyph-name="Euro" unicode="&#x20ac;" horiz-adv-x="1232" 
d="M478 393q126 -187 414 -187q148 0 287 41l8 -4v-222q-147 -41 -330 -41q-255 0 -421 110t-233 303h-158l-5 6l76 209h45q-3 34 -3 72v11q0 7 1 10h-108l-5 6l76 209h75q65 192 231 307t430 115q182 0 329 -41l-77 -210h-9q-119 25 -241 25t-225 -53q-104 -53 -162 -143
h560l6 -7l-77 -208h-559q-2 -14 -2 -21v-22q0 -18 2 -50h522l6 -7l-77 -208h-376z" />
    <glyph glyph-name="trademark" unicode="&#x2122;" horiz-adv-x="1440" 
d="M1146 678v310l-67 -125h-156l-66 124v-309h-164v660h164v-4l144 -269l145 273h164v-660h-164zM40 1338h584v-157h-210v-503h-164v503h-210v157z" />
    <glyph glyph-name="estimated" unicode="&#x212e;" horiz-adv-x="1712" 
d="M410 713h904v338q-104 109 -208 156t-245 47q-142 0 -244 -47t-207 -156v-338zM410 627v-366q174 -196 460 -196q147 0 255 49t196 154h153v-55q-222 -233 -619 -233q-211 0 -385 84t-277 240t-103 358q0 200 102 356t280 238q176 82 396 83q220 -1 391 -89t267 -250
t96 -373h-1212z" />
    <glyph glyph-name="minus" unicode="&#x2212;" horiz-adv-x="1011" 
d="M80 630h851v-215h-851v215z" />
    <glyph glyph-name="approxequal" unicode="&#x2248;" horiz-adv-x="1017" 
d="M378 221q-28 -1 -59 -25q-32 -24 -32 -70q-77 0 -146 25t-109 64q13 109 93 201t181 91q101 0 190 -49t130 -49q42 0 76 25t35 71q165 0 254 -98q-18 -135 -107 -208q-88 -73 -182 -73t-182 48q-4 2 -25 13t-27 14t-23 9q-15 6 -27 9q-12 2 -40 2zM378 611
q-28 -1 -59 -25q-32 -24 -32 -70q-77 0 -146 25t-109 64q13 109 93 201t181 91q101 0 190 -49t130 -49q42 0 76 25t35 71q165 0 254 -98q-18 -135 -107 -208q-88 -73 -182 -73t-182 48q-4 2 -25 13t-27 14t-23 9q-15 6 -27 9q-12 2 -40 2z" />
    <glyph glyph-name="notequal" unicode="&#x2260;" horiz-adv-x="1031" 
d="M90 816h461l50 136l144 -53l-30 -83h226v-215h-305l-62 -172h367v-215h-445l-61 -167l-144 53l41 114h-242v215h320l63 172h-383v215z" />
    <glyph glyph-name="lessequal" unicode="&#x2264;" horiz-adv-x="1031" 
d="M90 215h684l-657 460l658 459l133 -188l-387 -271l386 -271l-133 -189h167v-215h-851v215z" />
    <glyph glyph-name="greaterequal" unicode="&#x2265;" horiz-adv-x="1031" 
d="M90 215h167l-133 189l386 271l-387 271l133 188l658 -459l-657 -460h684v-215h-851v215z" />
    <glyph glyph-name="f.ss01" horiz-adv-x="616" 
d="M589 1223q-105 1 -142 -45t-42 -140h215v-225h-216v-836q0 -222 -47 -435h-233l-9 8q15 56 35 180t20 247v836h-130v225h130v4q0 210 119 316q100 90 267 90q62 0 148 -12t132 -27l-41 -219q-101 33 -206 33z" />
    <glyph glyph-name="g.ss01" horiz-adv-x="1130" 
d="M620 840q-138 0 -218 -82t-80 -224q0 -141 67 -235t181 -94t216 64v549q-87 22 -166 22zM566 -256q220 0 220 257v66q-127 -87 -264 -87q-212 0 -327 144t-115 352q0 284 152 433t401 149q94 0 193 -16l158 16h36v-1130q0 -214 -133 -317q-113 -89 -311 -89
q-239 0 -465 111l65 222q252 -111 390 -111z" />
    <glyph glyph-name="g.ss02" horiz-adv-x="1130" 
d="M522 -20q-66 0 -123 15q-35 -50 -35 -113q0 -64 55 -102t151 -38t156 57t60 202v66q-127 -87 -264 -87zM620 840q-138 0 -218 -82t-80 -224q0 -141 67 -235t181 -94t216 64v549q-87 22 -166 22zM80 495q0 265 152 414t401 149q94 0 193 -16l158 16h36v-1130
q0 -406 -476 -406q-197 0 -308 93t-111 225t101 251q-146 139 -146 404z" />
    <glyph glyph-name="zero.osf" horiz-adv-x="1089" 
d="M783 505q0 129 -59 217q-58 88 -174 89q-116 -1 -180 -87t-65 -212q0 -126 64 -217q64 -90 180 -90q116 -1 175 85t59 215zM60 508q0 228 136 378t353 150q216 0 348 -148t132 -378q1 -228 -133 -379t-352 -151t-352 150q-132 150 -132 378z" />
    <glyph glyph-name="one.osf" horiz-adv-x="681" 
d="M53 944q198 0 338 94h160v-1038h-234v770q-129 -46 -264 -46v220z" />
    <glyph glyph-name="two.osf" horiz-adv-x="993" 
d="M492 1055q168 0 272 -64q132 -81 132 -241t-100 -293q-100 -132 -275 -232h424v-225h-900v225q284 113 445 247t161 231q1 58 -55 92t-142 34t-170 -27t-135 -65l-9 7l-64 199q179 112 416 112z" />
    <glyph glyph-name="three.osf" horiz-adv-x="967" 
d="M675 106q0 186 -318 186h-119v225h158q117 -1 174 51t57 120q1 68 -43 106q-44 39 -132 39q-157 0 -313 -92l-8 7l-52 191q89 57 194 88t193 31t180 -31t160 -105t68 -196q0 -193 -170 -304q214 -77 214 -325q0 -140 -68 -230q-68 -91 -171 -129q-102 -38 -206 -38
t-230 32t-203 90l48 204l8 7q170 -107 343 -107q113 0 175 50t61 130z" />
    <glyph glyph-name="four.osf" horiz-adv-x="1033" 
d="M618 225v416l-292 -416h292zM618 0h-578v225l578 826h234v-826h141v-225h-141v-267h-234v267z" />
    <glyph glyph-name="five.osf" horiz-adv-x="1082" 
d="M960 1038v-225h-567l-29 -269q182 -2 316 -30t218 -111q104 -101 104 -297t-133 -301t-334 -105q-125 0 -255 38t-230 107l59 201l8 7q74 -47 196 -87t223 -39q102 0 160 50t58 142q0 121 -112 169t-362 48h-180l79 702h781z" />
    <glyph glyph-name="six.osf" horiz-adv-x="1030" 
d="M325 440q1 -113 59 -177t144 -64t132 62t46 144q0 83 -53 133t-131 50t-194 -73q-3 -48 -3 -75zM870 1116q-220 0 -348 -106t-156 -241q92 38 194 38q160 0 275 -113t115 -272q0 -94 -44 -196t-144 -174t-255 -72q-211 0 -319 136t-108 354t80 414t258 325t452 129v-222z
" />
    <glyph glyph-name="seven.osf" horiz-adv-x="914" 
d="M40 813v225h844l-532 -1318h-253l441 1093h-500z" />
    <glyph glyph-name="eight.osf" horiz-adv-x="1059" 
d="M309 354q-1 -74 65 -118t155 -44t155 44t65 118q0 74 -69 130q-44 35 -151 84q-109 -51 -149 -83q-71 -56 -71 -131zM683 997q0 61 -45 95t-108 34t-109 -33t-46 -95q-1 -62 39 -101q40 -38 115 -71q75 32 115 71t39 100zM928 1001q0 -107 -58 -181t-168 -132
q132 -58 212 -139t80 -210q0 -169 -138 -264t-328 -95q-188 0 -326 94t-137 265q0 132 96 228q69 68 196 121q-107 57 -167 131t-60 182q0 157 118 247t280 90q164 0 282 -89t118 -248z" />
    <glyph glyph-name="nine.osf" horiz-adv-x="1030" 
d="M501 839q-87 0 -132 -62t-45 -144q0 -83 53 -133t131 -50t194 73q3 48 3 75q-1 112 -59 176t-145 65zM160 -78q220 0 358 114q113 93 146 233q-92 -38 -194 -38q-158 -1 -274 113t-116 272q0 94 44 196t144 174t255 72q209 0 318 -136t109 -354t-81 -414t-258 -325
t-451 -129v222z" />
    <glyph glyph-name="zero.tf" horiz-adv-x="1196" 
d="M364 667q0 -461 237 -461q115 0 173 108t58 349t-58 345t-177 104q-117 0 -175 -107t-58 -338zM597 -19q-172 1 -280 99q-197 180 -197 600q0 330 127 494t349 163q222 1 350 -167q130 -168 128 -511t-130 -511t-347 -167z" />
    <glyph glyph-name="one.tf" horiz-adv-x="756" 
d="M138 1224q198 0 338 94h160v-1318h-234v1050q-129 -46 -264 -46v220z" />
    <glyph glyph-name="two.tf" horiz-adv-x="1140" 
d="M748 942q0 172 -187 173q-90 1 -177 -29t-136 -66l-9 7l-64 196q79 49 197 82t213 33q166 0 287 -98t121 -281t-132 -362t-381 -372h540v-225h-900v225q272 191 410 327t178 218q40 84 40 172z" />
    <glyph glyph-name="three.tf" horiz-adv-x="1118" 
d="M755 386q0 186 -318 186h-119v225h158q117 -1 174 51t57 120q1 68 -43 106q-44 39 -132 39q-157 0 -313 -92l-8 7l-52 191q89 57 193 88t194 31q88 0 180 -31t160 -105t68 -196q0 -193 -170 -304q214 -77 214 -325q0 -140 -68 -230q-68 -91 -171 -129q-102 -38 -206 -38
t-230 32t-203 90l48 204l8 7q170 -107 343 -107q113 0 175 50t61 130z" />
    <glyph glyph-name="four.tf" horiz-adv-x="1193" 
d="M698 492v416l-292 -416h292zM698 267h-578v225l578 826h234v-826h141v-225h-141v-267h-234v267z" />
    <glyph glyph-name="five.tf" horiz-adv-x="1192" 
d="M1030 1318v-225h-567l-29 -269q182 -2 316 -30t218 -111q104 -101 104 -297t-133 -301t-334 -105q-125 0 -255 38t-230 107l59 201l8 7q74 -47 196 -87t223 -39q102 0 160 50t58 142q0 121 -112 169t-362 48h-180l79 702h781z" />
    <glyph glyph-name="six.tf" horiz-adv-x="1110" 
d="M365 440q1 -113 59 -177t144 -64t132 62t46 144q0 83 -53 133t-131 50t-194 -73q-3 -48 -3 -75zM910 1116q-220 0 -348 -106t-156 -241q92 38 194 38q160 0 275 -113t115 -272q0 -94 -44 -196t-144 -174t-255 -72q-211 0 -319 136t-108 354t80 414t258 325t452 129v-222z
" />
    <glyph glyph-name="seven.tf" horiz-adv-x="1084" 
d="M120 1093v225h844l-532 -1318h-253l441 1093h-500z" />
    <glyph glyph-name="eight.tf" horiz-adv-x="1169" 
d="M364 354q0 -74 65 -118t155 -44t155 44t65 118t-69 130q-44 35 -151 84q-109 -51 -149 -83q-71 -56 -71 -131zM738 997q0 61 -45 95t-108 34t-109 -33t-46 -95t40 -101q40 -38 114 -71q74 32 114 71t40 100zM983 1001q0 -107 -58 -181t-168 -132q132 -58 212 -139
t80 -210q-1 -169 -139 -264t-326 -95t-326 94t-138 265q0 132 96 228q69 68 196 121q-108 57 -168 131t-59 182q-1 157 117 247t282 90t281 -89q118 -89 118 -248z" />
    <glyph glyph-name="nine.tf" horiz-adv-x="1110" 
d="M541 1119q-87 0 -132 -62t-45 -144q0 -83 53 -133t131 -50t194 73q3 48 3 75q-1 112 -59 176t-145 65zM200 202q220 0 358 114q113 93 146 233q-92 -38 -194 -38q-158 -1 -274 113t-116 272q0 94 44 196t144 174t255 72q209 0 318 -136t109 -354t-81 -414t-258 -325
t-451 -129v222z" />
    <glyph glyph-name="zero.tosf" horiz-adv-x="1209" 
d="M843 505q0 129 -59 217q-58 88 -174 89q-116 -1 -180 -87t-65 -212q0 -126 64 -217q64 -90 180 -90q116 -1 175 85t59 215zM120 508q0 228 136 378t353 150q216 0 348 -148t132 -378q1 -228 -133 -379t-352 -151t-352 150q-132 150 -132 378z" />
    <glyph glyph-name="one.tosf" horiz-adv-x="738" 
d="M120 944q198 0 338 94h160v-1038h-234v770q-129 -46 -264 -46v220z" />
    <glyph glyph-name="two.tosf" horiz-adv-x="1140" 
d="M567 1055q168 0 272 -64q132 -81 132 -241t-100 -293q-100 -132 -275 -232h424v-225h-900v225q284 113 445 247t161 231q0 58 -56 92t-140 34q-86 0 -170 -27t-136 -65l-9 7l-64 199q179 112 416 112z" />
    <glyph glyph-name="three.tosf" horiz-adv-x="1118" 
d="M755 106q0 186 -318 186h-119v225h158q117 -1 174 51t57 120q1 68 -43 106q-44 39 -132 39q-157 0 -313 -92l-8 7l-52 191q89 57 193 88t194 31q88 0 180 -31t160 -105t68 -196q0 -193 -170 -304q214 -77 214 -325q0 -140 -68 -230q-68 -91 -171 -129q-102 -38 -206 -38
t-230 32t-203 90l48 204l8 7q170 -107 343 -107q113 0 175 50t61 130z" />
    <glyph glyph-name="four.tosf" horiz-adv-x="1193" 
d="M698 225v416l-292 -416h292zM698 0h-578v225l578 826h234v-826h141v-225h-141v-267h-234v267z" />
    <glyph glyph-name="five.tosf" horiz-adv-x="1192" 
d="M1030 1038v-225h-567l-29 -269q182 -2 316 -30t218 -111q104 -101 104 -297t-133 -301t-334 -105q-125 0 -255 38t-230 107l59 201l8 7q74 -47 196 -87t223 -39q102 0 160 50t58 142q0 121 -112 169t-362 48h-180l79 702h781z" />
    <glyph glyph-name="six.tosf" horiz-adv-x="1110" 
d="M365 440q1 -113 59 -177t144 -64t132 62t46 144q0 83 -53 133t-131 50t-194 -73q-3 -48 -3 -75zM910 1116q-220 0 -348 -106t-156 -241q92 38 194 38q160 0 275 -113t115 -272q0 -94 -44 -196t-144 -174t-255 -72q-211 0 -319 136t-108 354t80 414t258 325t452 129v-222z
" />
    <glyph glyph-name="seven.tosf" horiz-adv-x="1084" 
d="M120 813v225h844l-532 -1318h-253l441 1093h-500z" />
    <glyph glyph-name="eight.tosf" horiz-adv-x="1169" 
d="M364 354q0 -74 65 -118t155 -44t155 44t65 118t-69 130q-44 35 -151 84q-109 -51 -149 -83q-71 -56 -71 -131zM738 997q0 61 -45 95t-108 34t-109 -33t-46 -95t40 -101q40 -38 114 -71q74 32 114 71t40 100zM983 1001q0 -107 -58 -181t-168 -132q132 -58 212 -139
t80 -210q-1 -169 -139 -264t-326 -95t-326 94t-138 265q0 132 96 228q69 68 196 121q-108 57 -168 131t-59 182q-1 157 117 247t282 90t281 -89q118 -89 118 -248z" />
    <glyph glyph-name="nine.tosf" horiz-adv-x="1110" 
d="M541 839q-87 0 -132 -62t-45 -144q0 -83 53 -133t131 -50t194 73q3 48 3 75q-1 112 -59 176t-145 65zM200 -78q220 0 358 114q113 93 146 233q-92 -38 -194 -38q-158 -1 -274 113t-116 272q0 94 44 196t144 174t255 72q209 0 318 -136t109 -354t-81 -414t-258 -325
t-451 -129v222z" />
    <glyph glyph-name="null" horiz-adv-x="0" 
 />
    </font>
</defs>
</svg>
