<?xml version="1.0" encoding="utf-8"?>
<!-- Generator: Adobe Illustrator 15.1.0, SVG Export Plug-In . SVG Version: 6.00 Build 0)  -->
<!DOCTYPE svg PUBLIC "-//W3C//DTD SVG 1.1//EN" "http://www.w3.org/Graphics/SVG/1.1/DTD/svg11.dtd">
<svg version="1.1" id="Layer_1" xmlns="http://www.w3.org/2000/svg" xmlns:xlink="http://www.w3.org/1999/xlink" x="0px" y="0px"
	 width="270.091px" height="31.387px" viewBox="0 0 270.091 31.387" enable-background="new 0 0 270.091 31.387"
	 xml:space="preserve">
<g>
	<polygon fill-rule="evenodd" clip-rule="evenodd" points="53.183,12.798 55.472,11.181 57.895,9.699 60.318,8.217 62.742,7.005 
		65.165,5.792 67.723,4.715 70.146,3.772 72.705,2.83 75.264,2.156 77.822,1.482 80.379,0.943 83.074,0.54 85.631,0.27 88.189,0 
		90.748,0 93.306,0 95.595,0.135 97.748,0.404 99.769,0.674 101.788,0.943 103.537,1.347 105.289,1.751 107.039,2.29 108.655,2.83 
		110.137,3.368 111.617,4.042 113.098,4.715 114.578,5.389 115.926,6.197 117.406,7.14 118.753,8.082 120.234,9.025 121.58,9.16 
		122.927,9.43 124.139,9.968 125.081,10.777 125.889,11.72 126.428,12.798 126.697,14.145 126.562,15.762 124.812,15.896 
		123.196,15.626 121.85,15.222 120.639,14.548 119.695,13.605 118.887,12.663 118.482,11.585 118.349,10.508 116.733,8.622 
		114.578,6.87 111.752,5.389 108.52,4.042 104.885,2.963 100.711,2.156 96.402,1.482 91.824,1.213 86.977,1.347 82.13,1.751 
		77.148,2.559 72.303,3.772 67.454,5.254 62.877,7.409 58.434,9.968 54.26,12.932 53.183,12.798 	"/>
	<polygon fill-rule="evenodd" clip-rule="evenodd" points="54.26,12.932 56.951,10.642 60.185,8.622 63.818,6.87 67.992,5.523 
		72.303,4.446 76.879,3.772 81.592,3.368 86.438,3.368 91.286,3.772 96.133,4.446 100.711,5.658 105.154,7.14 109.328,9.025 
		113.098,11.451 116.464,14.145 119.291,17.378 120.504,17.917 121.716,18.591 122.658,19.532 123.331,20.476 123.734,21.688 
		123.869,22.9 123.601,24.247 123.062,25.729 121.447,25.324 119.965,24.651 118.887,23.709 117.945,22.765 117.271,21.553 
		116.867,20.476 116.733,19.264 117.002,18.185 116.195,15.896 114.578,13.605 112.155,11.585 109.059,9.699 105.424,8.082 
		101.25,6.735 96.672,5.658 91.824,4.85 86.843,4.446 81.592,4.446 76.477,4.715 71.359,5.523 66.377,6.735 61.529,8.352 
		57.222,10.642 53.183,13.336 54.26,12.932 	"/>
	<polygon fill-rule="evenodd" clip-rule="evenodd" points="49.951,14.817 52.375,12.528 55.472,10.642 59.105,9.025 63.146,7.813 
		67.589,7.005 72.303,6.601 77.148,6.466 82.13,6.735 87.112,7.409 91.959,8.487 96.672,9.968 101.25,11.72 105.424,13.875 
		109.193,16.569 112.425,19.532 115.118,22.9 116.329,23.438 117.406,24.247 118.35,25.19 119.021,26.269 119.427,27.345 
		119.427,28.692 119.157,30.04 118.482,31.387 116.867,30.849 115.521,30.175 114.309,29.231 113.502,28.154 112.963,26.941 
		112.693,25.864 112.693,24.651 112.963,23.573 112.155,21.149 110.406,18.858 107.848,16.704 104.48,14.684 100.576,12.932 
		96.133,11.315 91.286,9.968 86.035,8.891 80.783,8.082 75.398,7.813 70.012,7.813 64.896,8.352 60.049,9.295 55.472,10.777 
		51.566,12.798 48.2,15.357 49.951,14.817 	"/>
	<polygon fill-rule="evenodd" clip-rule="evenodd" points="63.55,3.772 60.991,3.907 58.703,4.176 56.413,4.85 54.395,5.658 
		52.509,6.466 50.894,7.274 49.547,7.948 48.471,8.487 50.355,6.87 52.509,5.523 54.664,4.311 56.817,3.503 58.838,2.963 
		60.723,2.694 62.338,2.963 63.55,3.772 65.974,4.85 64.492,3.099 62.607,2.156 60.453,1.887 57.895,2.29 55.202,3.368 52.24,4.85 
		49.277,6.735 46.181,9.025 44.701,10.238 43.219,11.315 41.737,12.394 40.257,13.471 38.775,14.414 37.295,15.357 35.812,16.165 
		34.332,16.839 32.717,17.513 31.235,18.185 29.619,18.591 28.139,18.993 26.523,19.264 24.908,19.532 23.292,19.532 21.543,19.532 
		22.483,19.802 23.561,19.937 24.637,19.937 25.851,19.937 27.197,19.802 28.543,19.532 29.889,19.128 31.37,18.726 32.986,18.185 
		34.468,17.513 36.218,16.839 37.833,16.031 39.584,15.088 41.199,14.145 42.949,13.067 44.701,11.855 48.066,9.564 51.298,7.813 
		54.26,6.466 57.088,5.523 59.645,4.984 61.934,4.715 64.088,4.715 65.974,4.85 63.55,3.772 	"/>
	<polygon fill-rule="evenodd" clip-rule="evenodd" points="135.045,5.928 134.236,7.948 133.43,10.104 132.352,12.258 
		131.141,14.279 129.658,16.3 127.908,18.185 125.889,19.802 123.734,21.417 121.043,22.632 118.08,23.709 114.848,24.382 
		111.078,24.786 106.904,24.786 102.326,24.382 97.21,23.438 91.689,22.091 88.863,21.284 86.17,20.476 83.746,19.667 
		81.457,18.858 79.303,18.185 77.148,17.378 75.129,16.569 73.109,15.762 71.09,14.953 68.936,14.145 66.781,13.336 64.492,12.394 
		62.203,11.451 59.645,10.508 56.817,9.564 53.855,8.487 50.49,7.274 47.123,6.197 43.893,5.254 40.66,4.311 37.564,3.503 
		34.468,2.83 31.504,2.29 28.678,1.751 25.851,1.347 23.292,1.078 20.734,0.943 18.31,0.943 16.021,1.078 13.865,1.213 
		11.982,1.616 10.097,2.156 7.135,3.638 4.98,5.389 3.77,7.274 3.365,9.43 3.5,11.585 4.307,13.471 5.653,15.222 7.404,16.704 
		8.48,17.243 9.828,17.781 11.443,18.319 13.193,18.726 15.348,18.993 17.771,19.264 20.33,19.264 23.292,19.264 26.523,18.993 
		30.023,18.455 33.93,17.781 37.967,16.704 42.411,15.491 47.123,13.875 52.24,11.989 57.627,9.834 58.164,10.508 56.279,11.315 
		54.124,12.258 51.836,13.067 49.413,14.01 46.988,14.817 44.295,15.762 41.737,16.569 39.045,17.243 36.352,18.052 33.659,18.591 
		30.966,19.264 28.408,19.667 25.851,19.937 23.426,20.206 21.139,20.206 18.983,20.072 15.214,19.532 11.982,18.993 9.289,18.185 
		7.135,17.243 5.385,16.165 4.038,14.684 2.961,13.067 2.287,11.181 2.018,9.16 2.557,7.274 3.77,5.389 5.654,3.772 8.346,2.29 
		11.578,1.213 15.483,0.404 20.194,0 22.754,0 25.312,0.135 27.734,0.404 30.293,0.809 32.853,1.347 35.275,1.887 37.699,2.425 
		40.122,3.099 42.411,3.772 44.701,4.58 46.719,5.254 48.738,5.928 50.624,6.601 52.375,7.14 53.99,7.679 55.336,8.082 
		57.088,8.622 59.105,9.295 61.262,10.238 63.818,11.181 66.512,12.258 69.339,13.336 72.437,14.548 75.668,15.762 79.033,16.974 
		82.534,18.185 86.17,19.398 89.805,20.476 93.439,21.417 97.21,22.362 100.98,23.171 104.75,23.709 107.578,23.979 110.137,24.112 
		112.693,24.112 114.982,23.844 117.271,23.306 119.291,22.632 121.312,21.688 123.196,20.61 124.947,19.128 126.562,17.513 
		128.178,15.491 129.658,13.336 131.141,10.777 132.487,7.948 133.834,4.85 135.045,1.347 135.045,5.928 	"/>
	<polygon fill-rule="evenodd" clip-rule="evenodd" points="135.045,16.839 133.16,18.993 131.141,20.879 129.254,22.497 
		127.101,23.979 125.081,25.19 122.927,26.269 120.639,27.077 118.214,27.75 115.791,28.154 113.232,28.289 110.54,28.289 
		107.713,28.019 104.75,27.479 101.52,26.807 98.287,25.864 94.786,24.651 91.15,23.306 87.517,21.958 84.016,20.61 80.648,19.128 
		77.283,17.781 74.052,16.569 70.955,15.222 67.858,14.01 64.896,12.798 61.934,11.585 59.105,10.508 56.413,9.43 53.721,8.487 
		51.028,7.544 48.471,6.735 45.912,5.928 43.488,5.254 40.93,4.446 38.506,3.772 36.084,3.099 33.793,2.559 31.37,1.887 
		29.081,1.482 26.793,1.078 24.504,0.809 22.215,0.674 19.926,0.674 17.771,0.943 15.483,1.213 13.328,1.887 11.174,2.559 
		9.02,3.638 6.191,5.523 4.442,7.679 3.77,9.834 4.174,11.855 5.385,14.01 7.674,15.896 10.635,17.646 14.405,18.993 16.694,19.532 
		19.117,19.802 21.811,19.802 24.637,19.802 27.602,19.532 30.697,19.128 33.793,18.591 37.024,17.917 40.122,17.108 43.084,16.3 
		46.047,15.491 48.875,14.548 51.432,13.605 53.721,12.528 55.875,11.585 57.627,10.642 56.145,10.104 55.066,10.642 53.586,11.315 
		51.701,12.258 49.547,13.067 46.988,14.01 44.162,15.088 41.199,16.031 37.967,16.839 34.736,17.646 31.37,18.319 28.004,18.726 
		24.637,18.993 21.406,19.128 18.31,18.858 15.348,18.319 12.521,17.513 9.02,15.896 6.73,14.145 5.25,12.394 4.712,10.508 
		4.846,8.756 5.923,7.14 7.404,5.658 9.559,4.311 11.578,3.368 13.731,2.559 15.887,2.021 18.176,1.751 20.464,1.482 22.754,1.482 
		25.041,1.482 27.332,1.751 29.755,2.156 32.044,2.559 34.468,3.099 36.756,3.638 39.18,4.311 41.469,5.12 43.758,5.792 
		45.912,6.601 48.066,7.409 50.49,8.217 53.047,9.16 55.875,10.238 58.703,11.315 61.664,12.528 64.762,13.741 67.858,14.953 
		70.955,16.165 74.188,17.513 77.418,18.858 80.648,20.072 83.881,21.417 86.977,22.632 90.209,23.979 93.171,25.19 96.133,26.403 
		98.961,27.345 101.788,28.289 104.48,29.098 107.174,29.636 109.732,30.04 112.291,30.31 114.848,30.175 117.271,29.905 
		119.83,29.366 122.254,28.425 124.812,27.21 127.369,25.595 129.793,23.573 132.487,21.149 135.045,18.319 135.045,16.839 	"/>
	<polygon fill-rule="evenodd" clip-rule="evenodd" points="59.51,9.295 57.088,11.046 54.528,12.798 51.701,14.279 48.738,15.626 
		45.777,16.839 42.545,17.917 39.314,18.858 36.218,19.667 32.986,20.341 29.889,20.879 26.928,21.284 24.099,21.553 21.543,21.688 
		19.117,21.688 16.963,21.553 15.079,21.284 11.982,20.61 9.154,19.937 6.73,19.128 4.712,18.185 3.096,16.974 1.749,15.626 
		0.807,14.145 0.134,12.258 0,10.642 0.134,9.025 0.672,7.544 1.479,6.197 2.557,4.85 4.038,3.772 5.789,2.694 7.808,1.887 
		9.963,1.213 12.387,0.809 15.078,0.54 18.041,0.27 21.139,0.27 24.504,0.404 28.004,0.809 31.773,1.213 35.68,1.887 39.853,2.694 
		44.161,3.638 48.604,4.85 53.183,6.197 58.029,7.813 62.877,9.564 67.992,11.451 70.82,12.528 73.244,13.605 75.398,14.414 
		77.283,15.222 79.033,15.896 80.515,16.435 81.861,16.839 83.208,17.378 84.42,17.646 85.631,18.052 86.843,18.319 88.189,18.591 
		89.67,18.858 91.15,19.128 92.901,19.398 94.922,19.667 97.21,19.937 99.499,20.072 101.788,20.072 104.211,20.072 106.635,19.667 
		109.059,19.264 111.482,18.591 113.771,17.781 115.926,16.704 118.08,15.357 120.1,13.741 121.984,11.855 123.734,9.699 
		125.216,7.274 126.562,4.58 127.639,1.482 128.447,4.58 129.39,7.274 130.467,9.699 131.545,11.855 132.621,13.741 133.564,15.088 
		134.372,16.165 135.045,16.839 135.045,18.319 134.372,17.646 133.43,16.435 132.352,14.817 131.141,13.067 129.928,11.315 
		128.852,9.43 128.043,7.813 127.639,6.332 127.369,7.005 126.831,7.813 126.158,8.891 125.216,10.104 124.004,11.451 
		122.658,12.932 121.043,14.279 119.157,15.626 117.002,16.974 114.714,18.185 112.021,19.264 109.193,20.072 105.962,20.61 
		102.461,20.879 98.691,20.879 94.652,20.476 90.612,19.802 86.708,18.858 83.074,17.781 79.438,16.569 75.937,15.357 72.571,14.01 
		69.069,12.663 65.705,11.181 62.069,9.834 58.434,8.487 54.528,7.14 50.49,5.928 46.316,4.85 41.737,3.907 36.756,3.099 
		31.504,2.425 26.255,2.021 21.677,1.751 17.771,1.751 14.271,2.021 11.31,2.29 8.752,2.83 6.596,3.503 4.98,4.176 3.634,4.984 
		2.557,5.928 1.749,6.87 1.345,7.813 1.076,8.756 0.94,9.834 0.94,10.777 1.076,11.72 1.749,13.471 2.826,15.088 4.442,16.569 
		6.461,17.781 8.885,18.858 11.443,19.802 14.405,20.341 17.367,20.61 19.252,20.61 21.272,20.61 23.426,20.476 25.851,20.206 
		28.273,19.937 30.832,19.532 33.525,19.128 36.352,18.455 39.045,17.781 42.006,16.974 44.835,16.031 47.662,14.953 50.49,13.741 
		53.183,12.258 56.01,10.777 58.567,9.025 59.51,9.295 	"/>
	<polygon fill-rule="evenodd" clip-rule="evenodd" fill="#FFFFFF" points="119.695,9.968 120.504,10.104 121.446,10.238 
		122.389,10.508 123.465,10.777 124.408,11.451 125.081,12.258 125.754,13.471 126.023,14.953 125.081,14.953 124.004,14.684 
		122.793,14.414 121.716,13.875 120.773,13.201 120.1,12.394 119.695,11.315 119.695,9.968 	"/>
	<polygon fill-rule="evenodd" clip-rule="evenodd" fill="#FFFFFF" points="118.619,18.591 119.427,18.726 120.1,18.993 
		120.908,19.264 121.716,19.667 122.254,20.341 122.658,21.417 122.927,22.9 122.793,24.786 121.716,24.247 120.639,23.573 
		119.695,22.765 118.753,21.823 118.214,21.015 117.811,20.072 117.945,19.264 118.619,18.591 	"/>
	<polygon fill-rule="evenodd" clip-rule="evenodd" fill="#FFFFFF" points="114.309,23.709 115.521,24.112 116.464,24.518 
		117.271,25.056 117.945,25.729 118.214,26.671 118.482,27.75 118.482,28.963 118.214,30.578 117.137,29.905 115.926,29.231 
		114.848,28.425 114.04,27.479 113.502,26.538 113.232,25.595 113.502,24.651 114.309,23.709 	"/>
	<polygon fill-rule="evenodd" clip-rule="evenodd" points="217.042,12.798 214.753,11.181 212.33,9.699 209.905,8.217 
		207.481,7.005 205.06,5.792 202.5,4.715 199.941,3.772 197.385,2.83 194.825,2.156 192.268,1.482 189.71,0.943 187.15,0.54 
		184.593,0.27 182.036,0 179.477,0 176.919,0 174.629,0 172.34,0.135 170.322,0.404 168.301,0.674 166.551,0.943 164.801,1.482 
		163.186,1.887 161.57,2.425 159.955,3.099 158.473,3.772 157.127,4.58 155.645,5.389 154.299,6.197 152.816,7.14 151.471,8.082 
		149.99,9.025 148.644,9.16 147.297,9.43 146.086,9.968 145.143,10.777 144.336,11.72 143.797,12.798 143.527,14.145 
		143.662,15.762 145.412,15.896 146.893,15.626 148.24,15.222 149.452,14.548 150.395,13.605 151.201,12.663 151.605,11.585 
		151.739,10.508 153.354,8.622 155.512,6.87 158.337,5.389 161.703,4.042 165.34,2.963 169.513,2.156 173.82,1.482 178.399,1.213 
		183.246,1.347 188.094,1.751 193.076,2.559 197.923,3.772 202.771,5.254 207.349,7.409 211.791,9.968 215.965,12.932 
		217.042,12.798 	"/>
	<polygon fill-rule="evenodd" clip-rule="evenodd" points="215.965,12.932 213.271,10.642 210.041,8.622 206.271,6.87 202.23,5.523 
		197.788,4.446 193.21,3.772 188.497,3.368 183.651,3.368 178.803,3.772 174.091,4.446 169.378,5.658 164.936,7.14 160.896,9.025 
		157.127,11.451 153.76,14.145 150.933,17.378 149.721,17.917 148.508,18.591 147.566,19.532 146.893,20.476 146.354,21.688 
		146.219,22.9 146.489,24.247 147.027,25.729 148.778,25.324 150.124,24.651 151.336,23.709 152.277,22.765 152.816,21.553 
		153.222,20.476 153.354,19.264 153.086,18.185 153.895,15.896 155.512,13.605 157.934,11.585 161.031,9.699 164.666,8.082 
		168.84,6.735 173.418,5.658 178.264,4.85 183.246,4.446 188.497,4.446 193.748,4.715 198.864,5.523 203.847,6.735 208.559,8.352 
		213.001,10.642 217.042,13.336 215.965,12.932 	"/>
	<polygon fill-rule="evenodd" clip-rule="evenodd" points="220.138,14.817 217.715,12.528 214.618,10.642 210.982,9.025 
		206.943,7.813 202.5,7.005 197.923,6.601 193.077,6.466 188.094,6.735 183.112,7.409 178.132,8.487 173.418,9.968 168.975,11.72 
		164.801,13.875 161.031,16.569 157.666,19.532 154.973,22.9 153.76,23.438 152.684,24.247 151.875,25.19 151.201,26.269 
		150.797,27.345 150.662,28.692 150.933,30.04 151.605,31.387 153.222,30.849 154.703,30.175 155.779,29.231 156.722,28.154 
		157.26,26.941 157.53,25.864 157.53,24.651 157.26,23.573 158.068,21.149 159.684,18.858 162.242,16.704 165.607,14.684 
		169.513,12.932 174.091,11.315 178.938,9.968 184.055,8.891 189.305,8.082 194.692,7.813 200.077,7.813 205.194,8.352 
		210.176,9.295 214.618,10.777 218.657,12.798 222.023,15.357 220.138,14.817 	"/>
	<polygon fill-rule="evenodd" clip-rule="evenodd" points="206.675,3.772 209.097,3.907 211.521,4.176 213.675,4.85 215.83,5.658 
		217.58,6.466 219.331,7.274 220.676,7.948 221.755,8.487 219.869,6.87 217.715,5.523 215.562,4.311 213.406,3.503 211.386,2.963 
		209.502,2.694 207.887,2.963 206.675,3.772 204.117,4.85 205.598,3.099 207.481,2.156 209.771,1.887 212.194,2.29 215.023,3.368 
		217.851,4.85 220.812,6.735 223.909,9.025 225.389,10.238 226.87,11.315 228.353,12.394 229.833,13.471 231.313,14.414 
		232.796,15.357 234.276,16.165 235.892,16.839 237.372,17.513 238.854,18.185 240.47,18.591 241.951,18.993 243.566,19.264 
		245.182,19.532 246.797,19.532 248.548,19.532 247.605,19.802 246.528,19.937 245.452,19.937 244.239,19.937 242.893,19.802 
		241.547,19.532 240.2,19.128 238.72,18.726 237.104,18.185 235.621,17.513 233.872,16.839 232.257,16.031 230.507,15.088 
		228.891,14.145 227.141,13.067 225.389,11.855 222.023,9.564 218.792,7.813 215.83,6.466 213.137,5.523 210.579,4.984 
		208.29,4.715 206.136,4.715 204.117,4.85 206.675,3.772 	"/>
	<polygon fill-rule="evenodd" clip-rule="evenodd" points="135.045,5.928 135.852,7.948 136.659,10.104 137.738,12.258 
		139.083,14.279 140.565,16.3 142.314,18.185 144.201,19.802 146.489,21.417 149.182,22.632 152.145,23.709 155.377,24.382 
		159.146,24.786 163.318,24.786 167.897,24.382 173.014,23.438 178.534,22.091 181.362,21.284 184.055,20.476 186.477,19.667 
		188.766,18.858 190.921,18.185 193.076,17.378 195.096,16.569 197.114,15.762 199.135,14.953 201.289,14.145 203.443,13.336 
		205.598,12.394 208.02,11.451 210.579,10.508 213.271,9.564 216.235,8.487 219.6,7.274 222.965,6.197 226.196,5.254 229.43,4.311 
		232.525,3.503 235.488,2.83 238.449,2.29 241.412,1.751 244.104,1.347 246.797,1.078 249.356,0.943 251.779,0.943 253.934,1.078 
		256.087,1.213 258.107,1.616 259.858,2.156 262.82,3.638 264.974,5.389 266.187,7.274 266.725,9.43 266.59,11.585 265.782,13.471 
		264.436,15.222 262.685,16.704 261.607,17.243 260.262,17.781 258.646,18.319 256.761,18.726 254.742,18.993 252.317,19.264 
		249.625,19.264 246.797,19.264 243.566,18.993 240.065,18.455 236.16,17.781 232.122,16.704 227.679,15.491 222.965,13.875 
		217.983,11.989 212.598,9.834 212.06,10.508 213.945,11.315 216.1,12.258 218.389,13.067 220.812,14.01 223.235,14.817 
		225.793,15.762 228.485,16.569 231.179,17.243 233.737,18.052 236.43,18.591 239.123,19.264 241.681,19.667 244.239,19.937 
		246.528,20.206 248.817,20.206 250.973,20.072 254.742,19.532 257.973,18.993 260.665,18.185 262.955,17.243 264.706,16.165 
		266.051,14.684 266.995,13.067 267.666,11.181 267.937,9.16 267.398,7.274 266.187,5.389 264.301,3.772 261.743,2.29 
		258.512,1.213 254.606,0.404 249.895,0 247.335,0 244.913,0.135 242.354,0.404 239.797,0.809 237.236,1.347 234.814,1.887 
		232.391,2.425 229.968,3.099 227.679,3.772 225.524,4.58 223.37,5.254 221.35,5.928 219.466,6.601 217.715,7.14 216.235,7.679 
		214.753,8.082 213.001,8.622 211.117,9.295 208.828,10.238 206.404,11.181 203.712,12.258 200.75,13.336 197.788,14.548 
		194.557,15.762 191.056,16.974 187.688,18.185 184.055,19.398 180.419,20.476 176.648,21.417 172.879,22.362 169.109,23.171 
		165.34,23.709 162.512,23.979 159.955,24.112 157.53,24.112 155.106,23.844 152.951,23.306 150.797,22.632 148.914,21.688 
		147.027,20.61 145.277,19.128 143.527,17.513 142.046,15.491 140.43,13.336 139.083,10.777 137.604,7.948 136.391,4.85 
		135.045,1.347 135.045,5.928 	"/>
	<polygon fill-rule="evenodd" clip-rule="evenodd" points="135.045,16.839 136.93,18.993 138.949,20.879 140.969,22.497 
		142.988,23.979 145.143,25.19 147.297,26.269 149.586,27.077 152.01,27.75 154.435,28.154 156.992,28.289 159.684,28.289 
		162.512,28.019 165.475,27.479 168.706,26.807 171.938,25.864 175.436,24.651 179.073,23.306 182.707,21.958 186.209,20.61 
		189.574,19.128 192.941,17.781 196.172,16.569 199.269,15.222 202.367,14.01 205.327,12.798 208.29,11.585 211.117,10.508 
		213.811,9.43 216.503,8.487 219.195,7.544 221.755,6.735 224.312,5.928 226.737,5.254 229.159,4.446 231.584,3.772 234.006,3.099 
		236.295,2.559 238.72,1.887 241.009,1.482 243.298,1.078 245.585,0.809 247.874,0.674 250.028,0.674 252.317,0.943 254.472,1.213 
		256.761,1.887 258.915,2.559 261.068,3.638 263.897,5.523 265.647,7.679 266.321,9.834 265.918,11.855 264.57,14.01 
		262.417,15.896 259.318,17.646 255.549,18.993 253.395,19.532 250.837,19.802 248.277,19.802 245.316,19.802 242.354,19.532 
		239.394,19.128 236.295,18.591 233.063,17.917 229.968,17.108 227.006,16.3 224.042,15.491 221.35,14.548 218.792,13.605 
		216.368,12.528 214.35,11.585 212.598,10.642 214.079,10.104 215.156,10.642 216.639,11.315 218.522,12.258 220.676,13.067 
		223.235,14.01 226.063,15.088 229.024,16.031 232.122,16.839 235.353,17.646 238.72,18.319 242.086,18.726 245.452,18.993 
		248.683,19.128 251.779,18.858 254.742,18.319 257.569,17.513 261.068,15.896 263.358,14.145 264.839,12.394 265.379,10.508 
		265.244,8.756 264.301,7.14 262.685,5.658 260.53,4.311 258.512,3.368 256.357,2.559 254.203,2.021 251.914,1.751 249.624,1.482 
		247.335,1.482 245.047,1.482 242.758,1.751 240.335,2.156 238.046,2.559 235.621,3.099 233.334,3.638 231.045,4.311 228.756,5.12 
		226.467,5.792 224.312,6.601 222.158,7.409 219.734,8.217 217.177,9.16 214.35,10.238 211.521,11.315 208.559,12.528 
		205.463,13.741 202.367,14.953 199.269,16.165 196.037,17.513 192.807,18.858 189.574,20.072 186.344,21.417 183.246,22.632 
		180.016,23.979 177.054,25.19 174.091,26.269 171.264,27.345 168.436,28.289 165.607,28.963 162.915,29.501 160.357,29.905 
		157.666,30.04 155.106,29.905 152.548,29.636 150.124,28.963 147.566,28.019 145.143,26.807 142.584,25.19 140.16,23.306 
		137.604,21.015 135.045,18.319 135.045,16.839 	"/>
	<polygon fill-rule="evenodd" clip-rule="evenodd" points="210.714,9.295 213.001,11.046 215.696,12.798 218.389,14.279 
		221.35,15.626 224.447,16.839 227.544,17.917 230.774,18.858 233.872,19.667 237.104,20.341 240.065,20.879 243.027,21.284 
		245.855,21.553 248.548,21.688 250.973,21.688 252.991,21.553 254.877,21.284 257.973,20.61 260.8,19.937 263.224,19.128 
		265.244,18.185 266.995,16.974 268.34,15.626 269.282,14.145 269.955,12.258 270.091,9.968 269.552,7.679 268.205,5.792 
		266.187,4.042 263.629,2.559 260.262,1.482 256.492,0.674 252.05,0.27 249.761,0.135 247.335,0.27 244.778,0.404 242.086,0.54 
		239.394,0.943 236.43,1.347 233.468,1.887 230.371,2.559 227.141,3.233 223.909,4.176 220.543,5.12 217.042,6.197 213.406,7.274 
		209.771,8.622 206.001,9.968 202.23,11.451 199.403,12.528 196.979,13.605 194.825,14.414 192.941,15.222 191.19,15.896 
		189.71,16.435 188.362,16.839 187.016,17.378 185.805,17.646 184.458,18.052 183.246,18.319 181.9,18.591 180.554,18.858 
		178.938,19.128 177.187,19.398 175.303,19.667 173.014,19.937 170.725,20.072 168.301,20.072 165.877,20.072 163.453,19.667 
		161.031,19.264 158.742,18.591 156.453,17.781 154.164,16.704 152.01,15.357 149.99,13.741 148.105,11.855 146.354,9.699 
		144.874,7.274 143.527,4.58 142.45,1.482 141.643,4.58 140.699,7.274 139.621,9.699 138.545,11.855 137.468,13.741 136.525,15.088 
		135.717,16.165 135.045,16.839 135.045,18.319 135.717,17.646 136.659,16.435 137.873,14.817 139.083,13.067 140.16,11.315 
		141.237,9.43 142.046,7.813 142.45,6.332 142.721,7.005 143.259,7.813 144.065,8.891 145.01,10.104 146.086,11.451 147.566,12.932 
		149.182,14.279 151.067,15.626 153.086,16.974 155.512,18.185 158.204,19.264 161.031,20.072 164.262,20.61 167.763,20.879 
		171.533,20.879 175.571,20.476 179.611,19.802 183.517,18.858 187.15,17.781 190.788,16.569 194.153,15.357 197.652,14.01 
		201.019,12.663 204.521,11.181 208.02,9.834 211.656,8.487 215.562,7.14 219.6,5.928 223.773,4.85 228.353,3.907 233.334,3.099 
		238.585,2.425 243.836,2.021 248.412,1.751 252.317,1.751 255.819,2.021 258.779,2.29 261.339,2.83 263.493,3.503 265.109,4.176 
		266.456,4.984 267.533,5.928 268.34,6.87 268.743,7.813 269.014,8.756 269.148,9.834 269.148,10.777 269.014,11.72 268.34,13.471 
		267.263,15.088 265.513,16.569 263.493,17.781 261.204,18.858 258.512,19.802 255.684,20.341 252.722,20.61 250.837,20.61 
		248.817,20.61 246.662,20.476 244.375,20.206 241.815,19.937 239.259,19.532 236.565,19.128 233.872,18.455 231.045,17.781 
		228.218,16.974 225.389,16.031 222.562,14.953 219.734,13.741 217.042,12.258 214.214,10.777 211.656,9.025 210.714,9.295 	"/>
	<polygon fill-rule="evenodd" clip-rule="evenodd" fill="#FFFFFF" points="150.529,9.968 149.721,10.104 148.778,10.238 
		147.835,10.508 146.758,10.777 145.816,11.451 145.143,12.258 144.471,13.471 144.201,14.953 145.143,14.953 146.354,14.684 
		147.432,14.414 148.508,13.875 149.452,13.201 150.124,12.394 150.529,11.315 150.529,9.968 	"/>
	<polygon fill-rule="evenodd" clip-rule="evenodd" fill="#FFFFFF" points="151.605,18.591 150.797,18.726 150.124,18.993 
		149.316,19.264 148.508,19.667 147.971,20.341 147.432,21.417 147.297,22.9 147.297,24.786 148.375,24.247 149.452,23.573 
		150.529,22.765 151.471,21.823 152.01,21.015 152.413,20.072 152.277,19.264 151.605,18.591 	"/>
	<polygon fill-rule="evenodd" clip-rule="evenodd" fill="#FFFFFF" points="155.915,23.709 154.703,24.112 153.76,24.518 
		152.951,25.056 152.413,25.729 152.01,26.671 151.739,27.75 151.739,28.963 152.01,30.578 153.086,29.905 154.299,29.231 
		155.377,28.425 156.184,27.479 156.722,26.538 156.992,25.595 156.722,24.651 155.915,23.709 	"/>
</g>
</svg>
